ISO-10303-21;
HEADER;
/* Generated by software containing ST-Developer
 * from STEP Tools, Inc. (www.steptools.com) 
 */

FILE_DESCRIPTION(
/* description */ (''),
/* implementation_level */ '2;1');

FILE_NAME(
/* name */ '',
/* time_stamp */ '2025-07-23T15:09:21+03:00',
/* author */ ('User'),
/* organization */ (''),
/* preprocessor_version */ 'ST-DEVELOPER v19.2',
/* originating_system */ 'Autodesk Inventor 2024',
/* authorisation */ '');

FILE_SCHEMA (('AUTOMOTIVE_DESIGN { 1 0 10303 214 3 1 1 }'));
ENDSEC;

DATA;
#10=MECHANICAL_DESIGN_GEOMETRIC_PRESENTATION_REPRESENTATION('',(#14,#15,
#16),#752);
#11=SHAPE_REPRESENTATION_RELATIONSHIP('SRR','None',#759,#12);
#12=ADVANCED_BREP_SHAPE_REPRESENTATION('',(#13),#751);
#13=MANIFOLD_SOLID_BREP('\X2\04220432043504400434043E0435\X0\ \X2\04420435043B043E\X0\1',
#408);
#14=STYLED_ITEM('',(#769),#405);
#15=STYLED_ITEM('',(#769),#406);
#16=STYLED_ITEM('',(#768),#13);
#17=CONICAL_SURFACE('',#476,20.5,0.620249485982822);
#18=CONICAL_SURFACE('',#481,22.75,0.576375220591184);
#19=FACE_BOUND('',#84,.T.);
#20=FACE_BOUND('',#87,.T.);
#21=FACE_BOUND('',#91,.T.);
#22=FACE_BOUND('',#95,.T.);
#23=FACE_BOUND('',#99,.T.);
#24=FACE_BOUND('',#103,.T.);
#25=FACE_BOUND('',#105,.T.);
#26=FACE_BOUND('',#107,.T.);
#27=FACE_BOUND('',#109,.T.);
#28=FACE_BOUND('',#111,.T.);
#29=FACE_BOUND('',#113,.T.);
#30=FACE_BOUND('',#119,.T.);
#31=FACE_BOUND('',#122,.T.);
#32=FACE_BOUND('',#126,.T.);
#33=PLANE('',#437);
#34=PLANE('',#441);
#35=PLANE('',#449);
#36=PLANE('',#456);
#37=PLANE('',#463);
#38=PLANE('',#470);
#39=PLANE('',#471);
#40=PLANE('',#472);
#41=PLANE('',#473);
#42=PLANE('',#474);
#43=PLANE('',#475);
#44=PLANE('',#480);
#45=PLANE('',#484);
#46=PLANE('',#488);
#47=PLANE('',#492);
#48=PLANE('',#493);
#49=FACE_OUTER_BOUND('',#81,.T.);
#50=FACE_OUTER_BOUND('',#82,.T.);
#51=FACE_OUTER_BOUND('',#83,.T.);
#52=FACE_OUTER_BOUND('',#85,.T.);
#53=FACE_OUTER_BOUND('',#86,.T.);
#54=FACE_OUTER_BOUND('',#88,.T.);
#55=FACE_OUTER_BOUND('',#89,.T.);
#56=FACE_OUTER_BOUND('',#90,.T.);
#57=FACE_OUTER_BOUND('',#92,.T.);
#58=FACE_OUTER_BOUND('',#93,.T.);
#59=FACE_OUTER_BOUND('',#94,.T.);
#60=FACE_OUTER_BOUND('',#96,.T.);
#61=FACE_OUTER_BOUND('',#97,.T.);
#62=FACE_OUTER_BOUND('',#98,.T.);
#63=FACE_OUTER_BOUND('',#100,.T.);
#64=FACE_OUTER_BOUND('',#101,.T.);
#65=FACE_OUTER_BOUND('',#102,.T.);
#66=FACE_OUTER_BOUND('',#104,.T.);
#67=FACE_OUTER_BOUND('',#106,.T.);
#68=FACE_OUTER_BOUND('',#108,.T.);
#69=FACE_OUTER_BOUND('',#110,.T.);
#70=FACE_OUTER_BOUND('',#112,.T.);
#71=FACE_OUTER_BOUND('',#114,.T.);
#72=FACE_OUTER_BOUND('',#115,.T.);
#73=FACE_OUTER_BOUND('',#116,.T.);
#74=FACE_OUTER_BOUND('',#117,.T.);
#75=FACE_OUTER_BOUND('',#118,.T.);
#76=FACE_OUTER_BOUND('',#120,.T.);
#77=FACE_OUTER_BOUND('',#121,.T.);
#78=FACE_OUTER_BOUND('',#123,.T.);
#79=FACE_OUTER_BOUND('',#124,.T.);
#80=FACE_OUTER_BOUND('',#125,.T.);
#81=EDGE_LOOP('',(#268,#269,#270,#271));
#82=EDGE_LOOP('',(#272,#273,#274,#275));
#83=EDGE_LOOP('',(#276));
#84=EDGE_LOOP('',(#277));
#85=EDGE_LOOP('',(#278,#279,#280,#281));
#86=EDGE_LOOP('',(#282));
#87=EDGE_LOOP('',(#283));
#88=EDGE_LOOP('',(#284,#285,#286,#287));
#89=EDGE_LOOP('',(#288,#289,#290,#291));
#90=EDGE_LOOP('',(#292));
#91=EDGE_LOOP('',(#293));
#92=EDGE_LOOP('',(#294,#295,#296,#297));
#93=EDGE_LOOP('',(#298,#299,#300,#301));
#94=EDGE_LOOP('',(#302));
#95=EDGE_LOOP('',(#303));
#96=EDGE_LOOP('',(#304,#305,#306,#307));
#97=EDGE_LOOP('',(#308,#309,#310,#311));
#98=EDGE_LOOP('',(#312));
#99=EDGE_LOOP('',(#313));
#100=EDGE_LOOP('',(#314,#315,#316,#317));
#101=EDGE_LOOP('',(#318,#319,#320,#321));
#102=EDGE_LOOP('',(#322));
#103=EDGE_LOOP('',(#323));
#104=EDGE_LOOP('',(#324));
#105=EDGE_LOOP('',(#325));
#106=EDGE_LOOP('',(#326));
#107=EDGE_LOOP('',(#327));
#108=EDGE_LOOP('',(#328));
#109=EDGE_LOOP('',(#329));
#110=EDGE_LOOP('',(#330));
#111=EDGE_LOOP('',(#331));
#112=EDGE_LOOP('',(#332));
#113=EDGE_LOOP('',(#333));
#114=EDGE_LOOP('',(#334,#335,#336,#337));
#115=EDGE_LOOP('',(#338,#339,#340,#341));
#116=EDGE_LOOP('',(#342));
#117=EDGE_LOOP('',(#343,#344,#345,#346));
#118=EDGE_LOOP('',(#347));
#119=EDGE_LOOP('',(#348));
#120=EDGE_LOOP('',(#349,#350,#351,#352));
#121=EDGE_LOOP('',(#353));
#122=EDGE_LOOP('',(#354));
#123=EDGE_LOOP('',(#355,#356,#357,#358));
#124=EDGE_LOOP('',(#359));
#125=EDGE_LOOP('',(#360));
#126=EDGE_LOOP('',(#361));
#127=LINE('',#643,#143);
#128=LINE('',#649,#144);
#129=LINE('',#656,#145);
#130=LINE('',#665,#146);
#131=LINE('',#671,#147);
#132=LINE('',#678,#148);
#133=LINE('',#684,#149);
#134=LINE('',#691,#150);
#135=LINE('',#697,#151);
#136=LINE('',#704,#152);
#137=LINE('',#710,#153);
#138=LINE('',#722,#154);
#139=LINE('',#725,#155);
#140=LINE('',#731,#156);
#141=LINE('',#739,#157);
#142=LINE('',#746,#158);
#143=VECTOR('',#500,11.5);
#144=VECTOR('',#507,12.);
#145=VECTOR('',#516,17.5);
#146=VECTOR('',#527,9.5);
#147=VECTOR('',#534,10.);
#148=VECTOR('',#543,13.5);
#149=VECTOR('',#550,14.);
#150=VECTOR('',#559,15.5);
#151=VECTOR('',#566,16.);
#152=VECTOR('',#575,7.5);
#153=VECTOR('',#582,8.);
#154=VECTOR('',#601,20.5);
#155=VECTOR('',#606,18.);
#156=VECTOR('',#613,22.75);
#157=VECTOR('',#624,16.5);
#158=VECTOR('',#633,2.99999999999999);
#159=CIRCLE('',#432,11.5);
#160=CIRCLE('',#433,11.5);
#161=CIRCLE('',#435,12.);
#162=CIRCLE('',#436,12.);
#163=CIRCLE('',#439,17.5);
#164=CIRCLE('',#440,17.5);
#165=CIRCLE('',#442,18.);
#166=CIRCLE('',#444,9.5);
#167=CIRCLE('',#445,9.5);
#168=CIRCLE('',#447,10.);
#169=CIRCLE('',#448,10.);
#170=CIRCLE('',#451,13.5);
#171=CIRCLE('',#452,13.5);
#172=CIRCLE('',#454,14.);
#173=CIRCLE('',#455,14.);
#174=CIRCLE('',#458,15.5);
#175=CIRCLE('',#459,15.5);
#176=CIRCLE('',#461,16.);
#177=CIRCLE('',#462,16.);
#178=CIRCLE('',#465,7.5);
#179=CIRCLE('',#466,7.5);
#180=CIRCLE('',#468,8.);
#181=CIRCLE('',#469,8.);
#182=CIRCLE('',#477,23.);
#183=CIRCLE('',#478,18.);
#184=CIRCLE('',#482,19.5);
#185=CIRCLE('',#483,26.);
#186=CIRCLE('',#485,16.5);
#187=CIRCLE('',#487,16.5);
#188=CIRCLE('',#489,3.);
#189=CIRCLE('',#491,2.99999999999999);
#190=VERTEX_POINT('',#640);
#191=VERTEX_POINT('',#642);
#192=VERTEX_POINT('',#646);
#193=VERTEX_POINT('',#648);
#194=VERTEX_POINT('',#653);
#195=VERTEX_POINT('',#655);
#196=VERTEX_POINT('',#659);
#197=VERTEX_POINT('',#662);
#198=VERTEX_POINT('',#664);
#199=VERTEX_POINT('',#668);
#200=VERTEX_POINT('',#670);
#201=VERTEX_POINT('',#675);
#202=VERTEX_POINT('',#677);
#203=VERTEX_POINT('',#681);
#204=VERTEX_POINT('',#683);
#205=VERTEX_POINT('',#688);
#206=VERTEX_POINT('',#690);
#207=VERTEX_POINT('',#694);
#208=VERTEX_POINT('',#696);
#209=VERTEX_POINT('',#701);
#210=VERTEX_POINT('',#703);
#211=VERTEX_POINT('',#707);
#212=VERTEX_POINT('',#709);
#213=VERTEX_POINT('',#719);
#214=VERTEX_POINT('',#721);
#215=VERTEX_POINT('',#728);
#216=VERTEX_POINT('',#730);
#217=VERTEX_POINT('',#734);
#218=VERTEX_POINT('',#737);
#219=VERTEX_POINT('',#741);
#220=VERTEX_POINT('',#744);
#221=EDGE_CURVE('',#190,#190,#159,.T.);
#222=EDGE_CURVE('',#190,#191,#127,.T.);
#223=EDGE_CURVE('',#191,#191,#160,.T.);
#224=EDGE_CURVE('',#192,#192,#161,.T.);
#225=EDGE_CURVE('',#192,#193,#128,.T.);
#226=EDGE_CURVE('',#193,#193,#162,.T.);
#227=EDGE_CURVE('',#194,#194,#163,.T.);
#228=EDGE_CURVE('',#194,#195,#129,.T.);
#229=EDGE_CURVE('',#195,#195,#164,.T.);
#230=EDGE_CURVE('',#196,#196,#165,.T.);
#231=EDGE_CURVE('',#197,#197,#166,.T.);
#232=EDGE_CURVE('',#197,#198,#130,.T.);
#233=EDGE_CURVE('',#198,#198,#167,.T.);
#234=EDGE_CURVE('',#199,#199,#168,.T.);
#235=EDGE_CURVE('',#199,#200,#131,.T.);
#236=EDGE_CURVE('',#200,#200,#169,.T.);
#237=EDGE_CURVE('',#201,#201,#170,.T.);
#238=EDGE_CURVE('',#201,#202,#132,.T.);
#239=EDGE_CURVE('',#202,#202,#171,.T.);
#240=EDGE_CURVE('',#203,#203,#172,.T.);
#241=EDGE_CURVE('',#203,#204,#133,.T.);
#242=EDGE_CURVE('',#204,#204,#173,.T.);
#243=EDGE_CURVE('',#205,#205,#174,.T.);
#244=EDGE_CURVE('',#205,#206,#134,.T.);
#245=EDGE_CURVE('',#206,#206,#175,.T.);
#246=EDGE_CURVE('',#207,#207,#176,.T.);
#247=EDGE_CURVE('',#207,#208,#135,.T.);
#248=EDGE_CURVE('',#208,#208,#177,.T.);
#249=EDGE_CURVE('',#209,#209,#178,.T.);
#250=EDGE_CURVE('',#209,#210,#136,.T.);
#251=EDGE_CURVE('',#210,#210,#179,.T.);
#252=EDGE_CURVE('',#211,#211,#180,.T.);
#253=EDGE_CURVE('',#211,#212,#137,.T.);
#254=EDGE_CURVE('',#212,#212,#181,.T.);
#255=EDGE_CURVE('',#213,#213,#182,.T.);
#256=EDGE_CURVE('',#213,#214,#138,.T.);
#257=EDGE_CURVE('',#214,#214,#183,.T.);
#258=EDGE_CURVE('',#196,#214,#139,.T.);
#259=EDGE_CURVE('',#215,#215,#184,.T.);
#260=EDGE_CURVE('',#215,#216,#140,.T.);
#261=EDGE_CURVE('',#216,#216,#185,.T.);
#262=EDGE_CURVE('',#217,#217,#186,.T.);
#263=EDGE_CURVE('',#218,#218,#187,.T.);
#264=EDGE_CURVE('',#218,#217,#141,.T.);
#265=EDGE_CURVE('',#219,#219,#188,.T.);
#266=EDGE_CURVE('',#220,#220,#189,.T.);
#267=EDGE_CURVE('',#220,#219,#142,.T.);
#268=ORIENTED_EDGE('',*,*,#221,.F.);
#269=ORIENTED_EDGE('',*,*,#222,.T.);
#270=ORIENTED_EDGE('',*,*,#223,.F.);
#271=ORIENTED_EDGE('',*,*,#222,.F.);
#272=ORIENTED_EDGE('',*,*,#224,.F.);
#273=ORIENTED_EDGE('',*,*,#225,.T.);
#274=ORIENTED_EDGE('',*,*,#226,.F.);
#275=ORIENTED_EDGE('',*,*,#225,.F.);
#276=ORIENTED_EDGE('',*,*,#224,.T.);
#277=ORIENTED_EDGE('',*,*,#221,.T.);
#278=ORIENTED_EDGE('',*,*,#227,.F.);
#279=ORIENTED_EDGE('',*,*,#228,.T.);
#280=ORIENTED_EDGE('',*,*,#229,.F.);
#281=ORIENTED_EDGE('',*,*,#228,.F.);
#282=ORIENTED_EDGE('',*,*,#230,.T.);
#283=ORIENTED_EDGE('',*,*,#227,.T.);
#284=ORIENTED_EDGE('',*,*,#231,.F.);
#285=ORIENTED_EDGE('',*,*,#232,.T.);
#286=ORIENTED_EDGE('',*,*,#233,.F.);
#287=ORIENTED_EDGE('',*,*,#232,.F.);
#288=ORIENTED_EDGE('',*,*,#234,.F.);
#289=ORIENTED_EDGE('',*,*,#235,.T.);
#290=ORIENTED_EDGE('',*,*,#236,.F.);
#291=ORIENTED_EDGE('',*,*,#235,.F.);
#292=ORIENTED_EDGE('',*,*,#234,.T.);
#293=ORIENTED_EDGE('',*,*,#231,.T.);
#294=ORIENTED_EDGE('',*,*,#237,.F.);
#295=ORIENTED_EDGE('',*,*,#238,.T.);
#296=ORIENTED_EDGE('',*,*,#239,.F.);
#297=ORIENTED_EDGE('',*,*,#238,.F.);
#298=ORIENTED_EDGE('',*,*,#240,.F.);
#299=ORIENTED_EDGE('',*,*,#241,.T.);
#300=ORIENTED_EDGE('',*,*,#242,.F.);
#301=ORIENTED_EDGE('',*,*,#241,.F.);
#302=ORIENTED_EDGE('',*,*,#240,.T.);
#303=ORIENTED_EDGE('',*,*,#237,.T.);
#304=ORIENTED_EDGE('',*,*,#243,.F.);
#305=ORIENTED_EDGE('',*,*,#244,.T.);
#306=ORIENTED_EDGE('',*,*,#245,.F.);
#307=ORIENTED_EDGE('',*,*,#244,.F.);
#308=ORIENTED_EDGE('',*,*,#246,.F.);
#309=ORIENTED_EDGE('',*,*,#247,.T.);
#310=ORIENTED_EDGE('',*,*,#248,.F.);
#311=ORIENTED_EDGE('',*,*,#247,.F.);
#312=ORIENTED_EDGE('',*,*,#246,.T.);
#313=ORIENTED_EDGE('',*,*,#243,.T.);
#314=ORIENTED_EDGE('',*,*,#249,.F.);
#315=ORIENTED_EDGE('',*,*,#250,.T.);
#316=ORIENTED_EDGE('',*,*,#251,.F.);
#317=ORIENTED_EDGE('',*,*,#250,.F.);
#318=ORIENTED_EDGE('',*,*,#252,.F.);
#319=ORIENTED_EDGE('',*,*,#253,.T.);
#320=ORIENTED_EDGE('',*,*,#254,.F.);
#321=ORIENTED_EDGE('',*,*,#253,.F.);
#322=ORIENTED_EDGE('',*,*,#252,.T.);
#323=ORIENTED_EDGE('',*,*,#249,.T.);
#324=ORIENTED_EDGE('',*,*,#233,.T.);
#325=ORIENTED_EDGE('',*,*,#254,.T.);
#326=ORIENTED_EDGE('',*,*,#229,.T.);
#327=ORIENTED_EDGE('',*,*,#248,.T.);
#328=ORIENTED_EDGE('',*,*,#245,.T.);
#329=ORIENTED_EDGE('',*,*,#242,.T.);
#330=ORIENTED_EDGE('',*,*,#223,.T.);
#331=ORIENTED_EDGE('',*,*,#236,.T.);
#332=ORIENTED_EDGE('',*,*,#239,.T.);
#333=ORIENTED_EDGE('',*,*,#226,.T.);
#334=ORIENTED_EDGE('',*,*,#255,.F.);
#335=ORIENTED_EDGE('',*,*,#256,.T.);
#336=ORIENTED_EDGE('',*,*,#257,.T.);
#337=ORIENTED_EDGE('',*,*,#256,.F.);
#338=ORIENTED_EDGE('',*,*,#230,.F.);
#339=ORIENTED_EDGE('',*,*,#258,.T.);
#340=ORIENTED_EDGE('',*,*,#257,.F.);
#341=ORIENTED_EDGE('',*,*,#258,.F.);
#342=ORIENTED_EDGE('',*,*,#251,.T.);
#343=ORIENTED_EDGE('',*,*,#259,.F.);
#344=ORIENTED_EDGE('',*,*,#260,.T.);
#345=ORIENTED_EDGE('',*,*,#261,.T.);
#346=ORIENTED_EDGE('',*,*,#260,.F.);
#347=ORIENTED_EDGE('',*,*,#259,.T.);
#348=ORIENTED_EDGE('',*,*,#262,.F.);
#349=ORIENTED_EDGE('',*,*,#263,.F.);
#350=ORIENTED_EDGE('',*,*,#264,.T.);
#351=ORIENTED_EDGE('',*,*,#262,.T.);
#352=ORIENTED_EDGE('',*,*,#264,.F.);
#353=ORIENTED_EDGE('',*,*,#263,.T.);
#354=ORIENTED_EDGE('',*,*,#265,.F.);
#355=ORIENTED_EDGE('',*,*,#266,.F.);
#356=ORIENTED_EDGE('',*,*,#267,.T.);
#357=ORIENTED_EDGE('',*,*,#265,.T.);
#358=ORIENTED_EDGE('',*,*,#267,.F.);
#359=ORIENTED_EDGE('',*,*,#266,.T.);
#360=ORIENTED_EDGE('',*,*,#261,.F.);
#361=ORIENTED_EDGE('',*,*,#255,.T.);
#362=CYLINDRICAL_SURFACE('',#431,11.5);
#363=CYLINDRICAL_SURFACE('',#434,12.);
#364=CYLINDRICAL_SURFACE('',#438,17.5);
#365=CYLINDRICAL_SURFACE('',#443,9.5);
#366=CYLINDRICAL_SURFACE('',#446,10.);
#367=CYLINDRICAL_SURFACE('',#450,13.5);
#368=CYLINDRICAL_SURFACE('',#453,14.);
#369=CYLINDRICAL_SURFACE('',#457,15.5);
#370=CYLINDRICAL_SURFACE('',#460,16.);
#371=CYLINDRICAL_SURFACE('',#464,7.5);
#372=CYLINDRICAL_SURFACE('',#467,8.);
#373=CYLINDRICAL_SURFACE('',#479,18.);
#374=CYLINDRICAL_SURFACE('',#486,16.5);
#375=CYLINDRICAL_SURFACE('',#490,2.99999999999999);
#376=ADVANCED_FACE('',(#49),#362,.F.);
#377=ADVANCED_FACE('',(#50),#363,.T.);
#378=ADVANCED_FACE('',(#51,#19),#33,.T.);
#379=ADVANCED_FACE('',(#52),#364,.F.);
#380=ADVANCED_FACE('',(#53,#20),#34,.T.);
#381=ADVANCED_FACE('',(#54),#365,.F.);
#382=ADVANCED_FACE('',(#55),#366,.T.);
#383=ADVANCED_FACE('',(#56,#21),#35,.T.);
#384=ADVANCED_FACE('',(#57),#367,.F.);
#385=ADVANCED_FACE('',(#58),#368,.T.);
#386=ADVANCED_FACE('',(#59,#22),#36,.T.);
#387=ADVANCED_FACE('',(#60),#369,.F.);
#388=ADVANCED_FACE('',(#61),#370,.T.);
#389=ADVANCED_FACE('',(#62,#23),#37,.T.);
#390=ADVANCED_FACE('',(#63),#371,.F.);
#391=ADVANCED_FACE('',(#64),#372,.T.);
#392=ADVANCED_FACE('',(#65,#24),#38,.T.);
#393=ADVANCED_FACE('',(#66,#25),#39,.F.);
#394=ADVANCED_FACE('',(#67,#26),#40,.F.);
#395=ADVANCED_FACE('',(#68,#27),#41,.F.);
#396=ADVANCED_FACE('',(#69,#28),#42,.F.);
#397=ADVANCED_FACE('',(#70,#29),#43,.F.);
#398=ADVANCED_FACE('',(#71),#17,.F.);
#399=ADVANCED_FACE('',(#72),#373,.T.);
#400=ADVANCED_FACE('',(#73),#44,.F.);
#401=ADVANCED_FACE('',(#74),#18,.T.);
#402=ADVANCED_FACE('',(#75,#30),#45,.T.);
#403=ADVANCED_FACE('',(#76),#374,.T.);
#404=ADVANCED_FACE('',(#77,#31),#46,.T.);
#405=ADVANCED_FACE('',(#78),#375,.T.);
#406=ADVANCED_FACE('',(#79),#47,.T.);
#407=ADVANCED_FACE('',(#80,#32),#48,.T.);
#408=CLOSED_SHELL('',(#376,#377,#378,#379,#380,#381,#382,#383,#384,#385,
#386,#387,#388,#389,#390,#391,#392,#393,#394,#395,#396,#397,#398,#399,#400,
#401,#402,#403,#404,#405,#406,#407));
#409=DERIVED_UNIT_ELEMENT(#412,1.);
#410=DERIVED_UNIT_ELEMENT(#754,-3.);
#411=DIMENSIONAL_EXPONENTS(0.,1.,0.,0.,0.,0.,0.);
#412=(
CONVERSION_BASED_UNIT('gram',#414)
MASS_UNIT()
NAMED_UNIT(#411)
);
#413=(
MASS_UNIT()
NAMED_UNIT(*)
SI_UNIT(.KILO.,.GRAM.)
);
#414=MASS_MEASURE_WITH_UNIT(MASS_MEASURE(0.001),#413);
#415=DERIVED_UNIT((#409,#410));
#416=MEASURE_REPRESENTATION_ITEM('density measure',
POSITIVE_RATIO_MEASURE(1.),#415);
#417=PROPERTY_DEFINITION_REPRESENTATION(#422,#419);
#418=PROPERTY_DEFINITION_REPRESENTATION(#423,#420);
#419=REPRESENTATION('material name',(#421),#751);
#420=REPRESENTATION('density',(#416),#751);
#421=DESCRIPTIVE_REPRESENTATION_ITEM('\X2\04220438043F043E0432044B0435\X0\',
'\X2\04220438043F043E0432044B0435\X0\');
#422=PROPERTY_DEFINITION('material property','material name',#761);
#423=PROPERTY_DEFINITION('material property','density of part',#761);
#424=DATE_TIME_ROLE('creation_date');
#425=APPLIED_DATE_AND_TIME_ASSIGNMENT(#426,#424,(#761));
#426=DATE_AND_TIME(#427,#428);
#427=CALENDAR_DATE(2025,10,7);
#428=LOCAL_TIME(0,0,0.,#429);
#429=COORDINATED_UNIVERSAL_TIME_OFFSET(0,0,.BEHIND.);
#430=AXIS2_PLACEMENT_3D('',#638,#494,#495);
#431=AXIS2_PLACEMENT_3D('',#639,#496,#497);
#432=AXIS2_PLACEMENT_3D('',#641,#498,#499);
#433=AXIS2_PLACEMENT_3D('',#644,#501,#502);
#434=AXIS2_PLACEMENT_3D('',#645,#503,#504);
#435=AXIS2_PLACEMENT_3D('',#647,#505,#506);
#436=AXIS2_PLACEMENT_3D('',#650,#508,#509);
#437=AXIS2_PLACEMENT_3D('',#651,#510,#511);
#438=AXIS2_PLACEMENT_3D('',#652,#512,#513);
#439=AXIS2_PLACEMENT_3D('',#654,#514,#515);
#440=AXIS2_PLACEMENT_3D('',#657,#517,#518);
#441=AXIS2_PLACEMENT_3D('',#658,#519,#520);
#442=AXIS2_PLACEMENT_3D('',#660,#521,#522);
#443=AXIS2_PLACEMENT_3D('',#661,#523,#524);
#444=AXIS2_PLACEMENT_3D('',#663,#525,#526);
#445=AXIS2_PLACEMENT_3D('',#666,#528,#529);
#446=AXIS2_PLACEMENT_3D('',#667,#530,#531);
#447=AXIS2_PLACEMENT_3D('',#669,#532,#533);
#448=AXIS2_PLACEMENT_3D('',#672,#535,#536);
#449=AXIS2_PLACEMENT_3D('',#673,#537,#538);
#450=AXIS2_PLACEMENT_3D('',#674,#539,#540);
#451=AXIS2_PLACEMENT_3D('',#676,#541,#542);
#452=AXIS2_PLACEMENT_3D('',#679,#544,#545);
#453=AXIS2_PLACEMENT_3D('',#680,#546,#547);
#454=AXIS2_PLACEMENT_3D('',#682,#548,#549);
#455=AXIS2_PLACEMENT_3D('',#685,#551,#552);
#456=AXIS2_PLACEMENT_3D('',#686,#553,#554);
#457=AXIS2_PLACEMENT_3D('',#687,#555,#556);
#458=AXIS2_PLACEMENT_3D('',#689,#557,#558);
#459=AXIS2_PLACEMENT_3D('',#692,#560,#561);
#460=AXIS2_PLACEMENT_3D('',#693,#562,#563);
#461=AXIS2_PLACEMENT_3D('',#695,#564,#565);
#462=AXIS2_PLACEMENT_3D('',#698,#567,#568);
#463=AXIS2_PLACEMENT_3D('',#699,#569,#570);
#464=AXIS2_PLACEMENT_3D('',#700,#571,#572);
#465=AXIS2_PLACEMENT_3D('',#702,#573,#574);
#466=AXIS2_PLACEMENT_3D('',#705,#576,#577);
#467=AXIS2_PLACEMENT_3D('',#706,#578,#579);
#468=AXIS2_PLACEMENT_3D('',#708,#580,#581);
#469=AXIS2_PLACEMENT_3D('',#711,#583,#584);
#470=AXIS2_PLACEMENT_3D('',#712,#585,#586);
#471=AXIS2_PLACEMENT_3D('',#713,#587,#588);
#472=AXIS2_PLACEMENT_3D('',#714,#589,#590);
#473=AXIS2_PLACEMENT_3D('',#715,#591,#592);
#474=AXIS2_PLACEMENT_3D('',#716,#593,#594);
#475=AXIS2_PLACEMENT_3D('',#717,#595,#596);
#476=AXIS2_PLACEMENT_3D('',#718,#597,#598);
#477=AXIS2_PLACEMENT_3D('',#720,#599,#600);
#478=AXIS2_PLACEMENT_3D('',#723,#602,#603);
#479=AXIS2_PLACEMENT_3D('',#724,#604,#605);
#480=AXIS2_PLACEMENT_3D('',#726,#607,#608);
#481=AXIS2_PLACEMENT_3D('',#727,#609,#610);
#482=AXIS2_PLACEMENT_3D('',#729,#611,#612);
#483=AXIS2_PLACEMENT_3D('',#732,#614,#615);
#484=AXIS2_PLACEMENT_3D('',#733,#616,#617);
#485=AXIS2_PLACEMENT_3D('',#735,#618,#619);
#486=AXIS2_PLACEMENT_3D('',#736,#620,#621);
#487=AXIS2_PLACEMENT_3D('',#738,#622,#623);
#488=AXIS2_PLACEMENT_3D('',#740,#625,#626);
#489=AXIS2_PLACEMENT_3D('',#742,#627,#628);
#490=AXIS2_PLACEMENT_3D('',#743,#629,#630);
#491=AXIS2_PLACEMENT_3D('',#745,#631,#632);
#492=AXIS2_PLACEMENT_3D('',#747,#634,#635);
#493=AXIS2_PLACEMENT_3D('',#748,#636,#637);
#494=DIRECTION('axis',(0.,0.,1.));
#495=DIRECTION('refdir',(1.,0.,0.));
#496=DIRECTION('center_axis',(0.,-1.,0.));
#497=DIRECTION('ref_axis',(-1.,0.,0.));
#498=DIRECTION('center_axis',(-2.77555756156289E-16,1.,0.));
#499=DIRECTION('ref_axis',(-1.,-2.77555756156289E-16,0.));
#500=DIRECTION('',(0.,1.,0.));
#501=DIRECTION('center_axis',(2.77555756156289E-16,-1.,0.));
#502=DIRECTION('ref_axis',(-1.,0.,0.));
#503=DIRECTION('center_axis',(0.,-1.,0.));
#504=DIRECTION('ref_axis',(1.,0.,0.));
#505=DIRECTION('center_axis',(2.77555756156289E-16,-1.,0.));
#506=DIRECTION('ref_axis',(1.,2.77555756156289E-16,0.));
#507=DIRECTION('',(0.,1.,0.));
#508=DIRECTION('center_axis',(-2.77555756156289E-16,1.,0.));
#509=DIRECTION('ref_axis',(1.,0.,0.));
#510=DIRECTION('center_axis',(2.77555756156289E-16,-1.,0.));
#511=DIRECTION('ref_axis',(0.,0.,-1.));
#512=DIRECTION('center_axis',(0.,-1.,0.));
#513=DIRECTION('ref_axis',(-1.,0.,0.));
#514=DIRECTION('center_axis',(-2.77555756156289E-16,1.,0.));
#515=DIRECTION('ref_axis',(-1.,-2.77555756156289E-16,0.));
#516=DIRECTION('',(0.,1.,0.));
#517=DIRECTION('center_axis',(2.77555756156289E-16,-1.,0.));
#518=DIRECTION('ref_axis',(-1.,0.,0.));
#519=DIRECTION('center_axis',(2.77555756156289E-16,-1.,0.));
#520=DIRECTION('ref_axis',(0.,0.,-1.));
#521=DIRECTION('center_axis',(2.77555756156289E-16,-1.,0.));
#522=DIRECTION('ref_axis',(1.,2.77555756156289E-16,0.));
#523=DIRECTION('center_axis',(0.,-1.,0.));
#524=DIRECTION('ref_axis',(-1.,0.,0.));
#525=DIRECTION('center_axis',(-2.77555756156289E-16,1.,0.));
#526=DIRECTION('ref_axis',(-1.,-2.77555756156289E-16,0.));
#527=DIRECTION('',(0.,1.,0.));
#528=DIRECTION('center_axis',(2.77555756156289E-16,-1.,0.));
#529=DIRECTION('ref_axis',(-1.,0.,0.));
#530=DIRECTION('center_axis',(0.,-1.,0.));
#531=DIRECTION('ref_axis',(1.,0.,0.));
#532=DIRECTION('center_axis',(2.77555756156289E-16,-1.,0.));
#533=DIRECTION('ref_axis',(1.,2.77555756156289E-16,0.));
#534=DIRECTION('',(0.,1.,0.));
#535=DIRECTION('center_axis',(-2.77555756156289E-16,1.,0.));
#536=DIRECTION('ref_axis',(1.,0.,0.));
#537=DIRECTION('center_axis',(2.77555756156289E-16,-1.,0.));
#538=DIRECTION('ref_axis',(0.,0.,-1.));
#539=DIRECTION('center_axis',(0.,-1.,0.));
#540=DIRECTION('ref_axis',(-1.,0.,0.));
#541=DIRECTION('center_axis',(-2.77555756156289E-16,1.,0.));
#542=DIRECTION('ref_axis',(-1.,-2.77555756156289E-16,0.));
#543=DIRECTION('',(0.,1.,0.));
#544=DIRECTION('center_axis',(2.77555756156289E-16,-1.,0.));
#545=DIRECTION('ref_axis',(-1.,0.,0.));
#546=DIRECTION('center_axis',(0.,-1.,0.));
#547=DIRECTION('ref_axis',(1.,0.,0.));
#548=DIRECTION('center_axis',(2.77555756156289E-16,-1.,0.));
#549=DIRECTION('ref_axis',(1.,2.77555756156289E-16,0.));
#550=DIRECTION('',(0.,1.,0.));
#551=DIRECTION('center_axis',(-2.77555756156289E-16,1.,0.));
#552=DIRECTION('ref_axis',(1.,0.,0.));
#553=DIRECTION('center_axis',(2.77555756156289E-16,-1.,0.));
#554=DIRECTION('ref_axis',(0.,0.,-1.));
#555=DIRECTION('center_axis',(0.,-1.,0.));
#556=DIRECTION('ref_axis',(-1.,0.,0.));
#557=DIRECTION('center_axis',(-2.77555756156289E-16,1.,0.));
#558=DIRECTION('ref_axis',(-1.,-2.77555756156289E-16,0.));
#559=DIRECTION('',(0.,1.,0.));
#560=DIRECTION('center_axis',(2.77555756156289E-16,-1.,0.));
#561=DIRECTION('ref_axis',(-1.,0.,0.));
#562=DIRECTION('center_axis',(0.,-1.,0.));
#563=DIRECTION('ref_axis',(1.,0.,0.));
#564=DIRECTION('center_axis',(2.77555756156289E-16,-1.,0.));
#565=DIRECTION('ref_axis',(1.,2.77555756156289E-16,0.));
#566=DIRECTION('',(0.,1.,0.));
#567=DIRECTION('center_axis',(-2.77555756156289E-16,1.,0.));
#568=DIRECTION('ref_axis',(1.,0.,0.));
#569=DIRECTION('center_axis',(2.77555756156289E-16,-1.,0.));
#570=DIRECTION('ref_axis',(0.,0.,-1.));
#571=DIRECTION('center_axis',(0.,-1.,0.));
#572=DIRECTION('ref_axis',(-1.,0.,0.));
#573=DIRECTION('center_axis',(-2.77555756156289E-16,1.,0.));
#574=DIRECTION('ref_axis',(-1.,-2.77555756156289E-16,0.));
#575=DIRECTION('',(0.,1.,0.));
#576=DIRECTION('center_axis',(2.77555756156289E-16,-1.,0.));
#577=DIRECTION('ref_axis',(-1.,0.,0.));
#578=DIRECTION('center_axis',(0.,-1.,0.));
#579=DIRECTION('ref_axis',(1.,0.,0.));
#580=DIRECTION('center_axis',(2.77555756156289E-16,-1.,0.));
#581=DIRECTION('ref_axis',(1.,2.77555756156289E-16,0.));
#582=DIRECTION('',(0.,1.,0.));
#583=DIRECTION('center_axis',(-2.77555756156289E-16,1.,0.));
#584=DIRECTION('ref_axis',(1.,0.,0.));
#585=DIRECTION('center_axis',(2.77555756156289E-16,-1.,0.));
#586=DIRECTION('ref_axis',(0.,0.,-1.));
#587=DIRECTION('center_axis',(-2.77555756156289E-16,1.,0.));
#588=DIRECTION('ref_axis',(0.,0.,1.));
#589=DIRECTION('center_axis',(-2.77555756156289E-16,1.,0.));
#590=DIRECTION('ref_axis',(0.,0.,1.));
#591=DIRECTION('center_axis',(-2.77555756156289E-16,1.,0.));
#592=DIRECTION('ref_axis',(0.,0.,1.));
#593=DIRECTION('center_axis',(-2.77555756156289E-16,1.,0.));
#594=DIRECTION('ref_axis',(0.,0.,1.));
#595=DIRECTION('center_axis',(-2.77555756156289E-16,1.,0.));
#596=DIRECTION('ref_axis',(0.,0.,1.));
#597=DIRECTION('center_axis',(2.77555756156289E-16,-1.,0.));
#598=DIRECTION('ref_axis',(1.,2.22269341456178E-16,0.));
#599=DIRECTION('center_axis',(3.70074341541719E-16,1.,0.));
#600=DIRECTION('ref_axis',(1.,2.22269341456178E-16,0.));
#601=DIRECTION('',(0.581238193719097,0.813733471206735,-7.11811493480281E-17));
#602=DIRECTION('center_axis',(-2.77555756156289E-16,1.,0.));
#603=DIRECTION('ref_axis',(1.,2.77555756156289E-16,0.));
#604=DIRECTION('center_axis',(-2.77555756156289E-16,1.,0.));
#605=DIRECTION('ref_axis',(1.,2.22269341456178E-16,0.));
#606=DIRECTION('',(-2.77555756156289E-16,1.,0.));
#607=DIRECTION('center_axis',(-2.77555756156289E-16,1.,0.));
#608=DIRECTION('ref_axis',(0.,0.,1.));
#609=DIRECTION('center_axis',(-3.70074341541719E-16,-1.,0.));
#610=DIRECTION('ref_axis',(1.,-3.93245757960929E-16,0.));
#611=DIRECTION('center_axis',(3.70074341541719E-16,1.,0.));
#612=DIRECTION('ref_axis',(1.,-3.70074341541719E-16,0.));
#613=DIRECTION('',(-0.544988350595415,-0.838443616300637,6.6741823912927E-17));
#614=DIRECTION('center_axis',(3.70074341541719E-16,1.,0.));
#615=DIRECTION('ref_axis',(1.,-3.70074341541719E-16,0.));
#616=DIRECTION('center_axis',(3.70074341541719E-16,1.,0.));
#617=DIRECTION('ref_axis',(0.,0.,1.));
#618=DIRECTION('center_axis',(3.70074341541719E-16,1.,0.));
#619=DIRECTION('ref_axis',(1.,-3.70074341541719E-16,0.));
#620=DIRECTION('center_axis',(3.70074341541719E-16,1.,0.));
#621=DIRECTION('ref_axis',(1.,-3.93245757960929E-16,0.));
#622=DIRECTION('center_axis',(3.70074341541719E-16,1.,0.));
#623=DIRECTION('ref_axis',(1.,-3.70074341541719E-16,0.));
#624=DIRECTION('',(-3.70074341541719E-16,-1.,0.));
#625=DIRECTION('center_axis',(3.70074341541719E-16,1.,0.));
#626=DIRECTION('ref_axis',(0.,0.,1.));
#627=DIRECTION('center_axis',(3.70074341541719E-16,1.,0.));
#628=DIRECTION('ref_axis',(1.,-3.70074341541719E-16,0.));
#629=DIRECTION('center_axis',(3.70074341541719E-16,1.,0.));
#630=DIRECTION('ref_axis',(1.,-3.93245757960929E-16,0.));
#631=DIRECTION('center_axis',(3.70074341541719E-16,1.,0.));
#632=DIRECTION('ref_axis',(1.,-3.70074341541719E-16,0.));
#633=DIRECTION('',(-3.70074341541719E-16,-1.,0.));
#634=DIRECTION('center_axis',(3.70074341541719E-16,1.,0.));
#635=DIRECTION('ref_axis',(0.,0.,1.));
#636=DIRECTION('center_axis',(-3.70074341541719E-16,-1.,0.));
#637=DIRECTION('ref_axis',(0.,0.,-1.));
#638=CARTESIAN_POINT('',(0.,0.,0.));
#639=CARTESIAN_POINT('Origin',(1.59131966862939E-14,-13.,0.));
#640=CARTESIAN_POINT('',(11.5,-14.,1.40834381901946E-15));
#641=CARTESIAN_POINT('Origin',(1.59131966862939E-14,-14.,0.));
#642=CARTESIAN_POINT('',(11.5,-13.,1.40834381901946E-15));
#643=CARTESIAN_POINT('',(11.5,-13.,1.40834381901946E-15));
#644=CARTESIAN_POINT('Origin',(1.59131966862939E-14,-13.,0.));
#645=CARTESIAN_POINT('Origin',(1.59131966862939E-14,-13.,0.));
#646=CARTESIAN_POINT('',(-12.,-14.,-1.46957615897682E-15));
#647=CARTESIAN_POINT('Origin',(1.59131966862939E-14,-14.,0.));
#648=CARTESIAN_POINT('',(-12.,-13.,-1.46957615897682E-15));
#649=CARTESIAN_POINT('',(-12.,-13.,-1.46957615897682E-15));
#650=CARTESIAN_POINT('Origin',(1.59131966862939E-14,-13.,0.));
#651=CARTESIAN_POINT('Origin',(1.55431223447522E-14,-14.,0.));
#652=CARTESIAN_POINT('Origin',(1.59131966862939E-14,-13.,0.));
#653=CARTESIAN_POINT('',(17.5,-14.,2.14313189850787E-15));
#654=CARTESIAN_POINT('Origin',(1.59131966862939E-14,-14.,0.));
#655=CARTESIAN_POINT('',(17.5,-13.,2.14313189850787E-15));
#656=CARTESIAN_POINT('',(17.5,-13.,2.14313189850787E-15));
#657=CARTESIAN_POINT('Origin',(1.59131966862939E-14,-13.,0.));
#658=CARTESIAN_POINT('Origin',(1.55431223447522E-14,-14.,0.));
#659=CARTESIAN_POINT('',(-18.,-14.,2.20436423846524E-15));
#660=CARTESIAN_POINT('Origin',(1.59131966862939E-14,-14.,0.));
#661=CARTESIAN_POINT('Origin',(3.60822483003176E-15,-13.,0.));
#662=CARTESIAN_POINT('',(9.5,-14.,1.16341445918999E-15));
#663=CARTESIAN_POINT('Origin',(3.60822483003176E-15,-14.,0.));
#664=CARTESIAN_POINT('',(9.5,-13.,1.16341445918999E-15));
#665=CARTESIAN_POINT('',(9.5,-13.,1.16341445918999E-15));
#666=CARTESIAN_POINT('Origin',(3.60822483003176E-15,-13.,0.));
#667=CARTESIAN_POINT('Origin',(1.59131966862939E-14,-13.,0.));
#668=CARTESIAN_POINT('',(-9.99999999999998,-14.,-1.22464679914735E-15));
#669=CARTESIAN_POINT('Origin',(1.59131966862939E-14,-14.,0.));
#670=CARTESIAN_POINT('',(-9.99999999999998,-13.,-1.22464679914735E-15));
#671=CARTESIAN_POINT('',(-9.99999999999998,-13.,-1.22464679914735E-15));
#672=CARTESIAN_POINT('Origin',(1.59131966862939E-14,-13.,0.));
#673=CARTESIAN_POINT('Origin',(1.55431223447522E-14,-14.,0.));
#674=CARTESIAN_POINT('Origin',(1.59131966862939E-14,-13.,0.));
#675=CARTESIAN_POINT('',(13.5,-14.,1.65327317884893E-15));
#676=CARTESIAN_POINT('Origin',(1.59131966862939E-14,-14.,0.));
#677=CARTESIAN_POINT('',(13.5,-13.,1.65327317884893E-15));
#678=CARTESIAN_POINT('',(13.5,-13.,1.65327317884893E-15));
#679=CARTESIAN_POINT('Origin',(1.59131966862939E-14,-13.,0.));
#680=CARTESIAN_POINT('Origin',(1.59131966862939E-14,-13.,0.));
#681=CARTESIAN_POINT('',(-14.,-14.,-1.71450551880629E-15));
#682=CARTESIAN_POINT('Origin',(1.59131966862939E-14,-14.,0.));
#683=CARTESIAN_POINT('',(-14.,-13.,-1.71450551880629E-15));
#684=CARTESIAN_POINT('',(-14.,-13.,-1.71450551880629E-15));
#685=CARTESIAN_POINT('Origin',(1.59131966862939E-14,-13.,0.));
#686=CARTESIAN_POINT('Origin',(1.55431223447522E-14,-14.,0.));
#687=CARTESIAN_POINT('Origin',(1.59131966862939E-14,-13.,0.));
#688=CARTESIAN_POINT('',(15.5,-14.,1.8982025386784E-15));
#689=CARTESIAN_POINT('Origin',(1.59131966862939E-14,-14.,0.));
#690=CARTESIAN_POINT('',(15.5,-13.,1.8982025386784E-15));
#691=CARTESIAN_POINT('',(15.5,-13.,1.8982025386784E-15));
#692=CARTESIAN_POINT('Origin',(1.59131966862939E-14,-13.,0.));
#693=CARTESIAN_POINT('Origin',(1.59131966862939E-14,-13.,0.));
#694=CARTESIAN_POINT('',(-16.,-14.,-1.95943487863577E-15));
#695=CARTESIAN_POINT('Origin',(1.59131966862939E-14,-14.,0.));
#696=CARTESIAN_POINT('',(-16.,-13.,-1.95943487863577E-15));
#697=CARTESIAN_POINT('',(-16.,-13.,-1.95943487863577E-15));
#698=CARTESIAN_POINT('Origin',(1.59131966862939E-14,-13.,0.));
#699=CARTESIAN_POINT('Origin',(1.55431223447522E-14,-14.,0.));
#700=CARTESIAN_POINT('Origin',(3.60822483003176E-15,-13.,0.));
#701=CARTESIAN_POINT('',(7.5,-14.,9.18485099360515E-16));
#702=CARTESIAN_POINT('Origin',(3.60822483003176E-15,-14.,0.));
#703=CARTESIAN_POINT('',(7.5,-13.,9.18485099360515E-16));
#704=CARTESIAN_POINT('',(7.5,-13.,9.18485099360515E-16));
#705=CARTESIAN_POINT('Origin',(3.60822483003176E-15,-13.,0.));
#706=CARTESIAN_POINT('Origin',(3.60822483003176E-15,-13.,0.));
#707=CARTESIAN_POINT('',(-8.,-14.,-9.79717439317883E-16));
#708=CARTESIAN_POINT('Origin',(3.60822483003176E-15,-14.,0.));
#709=CARTESIAN_POINT('',(-8.,-13.,-9.79717439317883E-16));
#710=CARTESIAN_POINT('',(-8.,-13.,-9.79717439317883E-16));
#711=CARTESIAN_POINT('Origin',(3.60822483003176E-15,-13.,0.));
#712=CARTESIAN_POINT('Origin',(3.33066907387547E-15,-14.,0.));
#713=CARTESIAN_POINT('Origin',(0.,-13.,0.));
#714=CARTESIAN_POINT('Origin',(0.,-13.,0.));
#715=CARTESIAN_POINT('Origin',(0.,-13.,0.));
#716=CARTESIAN_POINT('Origin',(0.,-13.,0.));
#717=CARTESIAN_POINT('Origin',(0.,-13.,0.));
#718=CARTESIAN_POINT('Origin',(-1.38777878078144E-16,-12.5,0.));
#719=CARTESIAN_POINT('',(-23.,-16.,2.81668763803891E-15));
#720=CARTESIAN_POINT('Origin',(8.3266726846887E-16,-16.,0.));
#721=CARTESIAN_POINT('',(-18.,-9.,2.20436423846524E-15));
#722=CARTESIAN_POINT('',(-20.5,-12.5,2.51052593825207E-15));
#723=CARTESIAN_POINT('Origin',(-1.11022302462516E-15,-9.,0.));
#724=CARTESIAN_POINT('Origin',(-5.55111512312578E-16,-11.,0.));
#725=CARTESIAN_POINT('',(-18.,-11.,2.20436423846524E-15));
#726=CARTESIAN_POINT('Origin',(0.,-13.,0.));
#727=CARTESIAN_POINT('Origin',(-4.0708177569589E-15,-11.,0.));
#728=CARTESIAN_POINT('',(-19.5,-5.99999999999998,2.38806125833734E-15));
#729=CARTESIAN_POINT('Origin',(-2.22044604925031E-15,-5.99999999999999,
0.));
#730=CARTESIAN_POINT('',(-26.,-16.,3.18408167778312E-15));
#731=CARTESIAN_POINT('',(-22.75,-11.,2.78607146806023E-15));
#732=CARTESIAN_POINT('Origin',(-5.9211894646675E-15,-16.,0.));
#733=CARTESIAN_POINT('Origin',(16.5,-6.,0.));
#734=CARTESIAN_POINT('',(-16.5,-5.99999999999999,2.02066721859313E-15));
#735=CARTESIAN_POINT('Origin',(-2.22044604925031E-15,-5.99999999999999,
0.));
#736=CARTESIAN_POINT('Origin',(-1.11022302462515E-15,-2.99999999999999,
0.));
#737=CARTESIAN_POINT('',(-16.5,1.38777878078145E-14,2.02066721859313E-15));
#738=CARTESIAN_POINT('Origin',(1.97215226305253E-30,6.66133814775094E-15,
0.));
#739=CARTESIAN_POINT('',(-16.5,-2.99999999999999,2.02066721859313E-15));
#740=CARTESIAN_POINT('Origin',(3.,0.,0.));
#741=CARTESIAN_POINT('',(-2.99999999999999,3.33066907387547E-15,3.67394039744205E-16));
#742=CARTESIAN_POINT('Origin',(0.,2.22044604925031E-15,0.));
#743=CARTESIAN_POINT('Origin',(3.51570624464633E-15,9.5,0.));
#744=CARTESIAN_POINT('',(-2.99999999999999,19.,3.67394039744205E-16));
#745=CARTESIAN_POINT('Origin',(7.03141248929266E-15,19.,0.));
#746=CARTESIAN_POINT('',(-2.99999999999999,9.5,3.67394039744205E-16));
#747=CARTESIAN_POINT('Origin',(-3.33066907387547E-15,19.,0.));
#748=CARTESIAN_POINT('Origin',(26.,-16.,0.));
#749=UNCERTAINTY_MEASURE_WITH_UNIT(LENGTH_MEASURE(0.01),#753,
'DISTANCE_ACCURACY_VALUE',
'Maximum model space distance between geometric entities at asserted c
onnectivities');
#750=UNCERTAINTY_MEASURE_WITH_UNIT(LENGTH_MEASURE(0.01),#753,
'DISTANCE_ACCURACY_VALUE',
'Maximum model space distance between geometric entities at asserted c
onnectivities');
#751=(
GEOMETRIC_REPRESENTATION_CONTEXT(3)
GLOBAL_UNCERTAINTY_ASSIGNED_CONTEXT((#749))
GLOBAL_UNIT_ASSIGNED_CONTEXT((#753,#755,#756))
REPRESENTATION_CONTEXT('','3D')
);
#752=(
GEOMETRIC_REPRESENTATION_CONTEXT(3)
GLOBAL_UNCERTAINTY_ASSIGNED_CONTEXT((#750))
GLOBAL_UNIT_ASSIGNED_CONTEXT((#753,#755,#756))
REPRESENTATION_CONTEXT('','3D')
);
#753=(
LENGTH_UNIT()
NAMED_UNIT(*)
SI_UNIT(.MILLI.,.METRE.)
);
#754=(
LENGTH_UNIT()
NAMED_UNIT(*)
SI_UNIT(.CENTI.,.METRE.)
);
#755=(
NAMED_UNIT(*)
PLANE_ANGLE_UNIT()
SI_UNIT($,.RADIAN.)
);
#756=(
NAMED_UNIT(*)
SI_UNIT($,.STERADIAN.)
SOLID_ANGLE_UNIT()
);
#757=SHAPE_DEFINITION_REPRESENTATION(#758,#759);
#758=PRODUCT_DEFINITION_SHAPE('',$,#761);
#759=SHAPE_REPRESENTATION('',(#430),#751);
#760=PRODUCT_DEFINITION_CONTEXT('part definition',#765,'design');
#761=PRODUCT_DEFINITION('\X2\043D043E0436043A0430\X0\',
'\X2\041E043F043E04400430\X0\ \X2\0441\X0\ \X2\0440043504370438043D043E0432043E0439\X0\ 
\X2\043F044004380441043E0441043A043E0439\X0\ \X2\041C\X0\6',#762,#760);
#762=PRODUCT_DEFINITION_FORMATION('',$,#767);
#763=PRODUCT_RELATED_PRODUCT_CATEGORY(
'\X2\041E043F043E04400430\X0\ \X2\0441\X0\ \X2\0440043504370438043D043E0432043E0439\X0\ 
\X2\043F044004380441043E0441043A043E0439\X0\ \X2\041C\X0\6',
'\X2\041E043F043E04400430\X0\ \X2\0441\X0\ \X2\0440043504370438043D043E0432043E0439\X0\ 
\X2\043F044004380441043E0441043A043E0439\X0\ \X2\041C\X0\6',(#767));
#764=APPLICATION_PROTOCOL_DEFINITION('international standard',
'automotive_design',2009,#765);
#765=APPLICATION_CONTEXT(
'Core Data for Automotive Mechanical Design Process');
#766=PRODUCT_CONTEXT('part definition',#765,'mechanical');
#767=PRODUCT('\X2\043D043E0436043A0430\X0\',
'\X2\041E043F043E04400430\X0\ \X2\0441\X0\ \X2\0440043504370438043D043E0432043E0439\X0\ 
\X2\043F044004380441043E0441043A043E0439\X0\ \X2\041C\X0\6',$,(#766));
#768=PRESENTATION_STYLE_ASSIGNMENT((#770));
#769=PRESENTATION_STYLE_ASSIGNMENT((#771));
#770=SURFACE_STYLE_USAGE(.BOTH.,#776);
#771=SURFACE_STYLE_USAGE(.BOTH.,#777);
#772=SURFACE_STYLE_RENDERING_WITH_PROPERTIES($,#784,(#774));
#773=SURFACE_STYLE_RENDERING_WITH_PROPERTIES($,#785,(#775));
#774=SURFACE_STYLE_TRANSPARENT(0.);
#775=SURFACE_STYLE_TRANSPARENT(0.);
#776=SURFACE_SIDE_STYLE('',(#778,#772));
#777=SURFACE_SIDE_STYLE('',(#779,#773));
#778=SURFACE_STYLE_FILL_AREA(#780);
#779=SURFACE_STYLE_FILL_AREA(#781);
#780=FILL_AREA_STYLE('',(#782));
#781=FILL_AREA_STYLE('',(#783));
#782=FILL_AREA_STYLE_COLOUR('',#784);
#783=FILL_AREA_STYLE_COLOUR('',#785);
#784=COLOUR_RGB('',0.,0.,0.);
#785=COLOUR_RGB('',0.956862745098039,0.956862745098039,0.956862745098039);
ENDSEC;
END-ISO-10303-21;
