  0
SECTION
  2
HEADER
  9
$ACADVER
  1
AC1015
  9
$ACADMAINTVER
 70
     6
  9
$DWGCODEPAGE
  3
ANSI_1251
  9
$INSBASE
 10
0.0
 20
0.0
 30
0.0
  9
$EXTMIN
 10
-173.0895518499
 20
1.5743031278
 30
0.0
  9
$EXTMAX
 10
-0.1021592062
 20
51.7928272556
 30
0.0
  9
$LIMMIN
 10
0.0
 20
0.0
  9
$LIMMAX
 10
420.0
 20
297.0
  9
$ORTHOMODE
 70
     0
  9
$REGENMODE
 70
     1
  9
$FILLMODE
 70
     1
  9
$QTEXTMODE
 70
     0
  9
$MIRRTEXT
 70
     1
  9
$LTSCALE
 40
1.0
  9
$ATTMODE
 70
     1
  9
$TEXTSIZE
 40
3.5
  9
$TRACEWID
 40
1.0
  9
$TEXTSTYLE
  7
Standard
  9
$CLAYER
  8
0
  9
$CELTYPE
  6
ByLayer
  9
$CECOLOR
 62
   256
  9
$CELTSCALE
 40
1.0
  9
$DISPSILH
 70
     0
  9
$DIMSCALE
 40
1.0
  9
$DIMASZ
 40
3.556
  9
$DIMEXO
 40
0.0
  9
$DIMDLI
 40
3.75
  9
$DIMRND
 40
0.0
  9
$DIMDLE
 40
0.0
  9
$DIMEXE
 40
1.0
  9
$DIMTP
 40
0.0
  9
$DIMTM
 40
0.0
  9
$DIMTXT
 40
3.5
  9
$DIMCEN
 40
2.5
  9
$DIMTSZ
 40
0.0
  9
$DIMTOL
 70
     0
  9
$DIMLIM
 70
     0
  9
$DIMTIH
 70
     1
  9
$DIMTOH
 70
     1
  9
$DIMSE1
 70
     0
  9
$DIMSE2
 70
     0
  9
$DIMTAD
 70
     1
  9
$DIMZIN
 70
     1
  9
$DIMBLK
  1

  9
$DIMASO
 70
     1
  9
$DIMSHO
 70
     1
  9
$DIMPOST
  1

  9
$DIMAPOST
  1

  9
$DIMALT
 70
     0
  9
$DIMALTD
 70
     3
  9
$DIMALTF
 40
0.0393700787
  9
$DIMLFAC
 40
1.0
  9
$DIMTOFL
 70
     1
  9
$DIMTVP
 40
0.0
  9
$DIMTIX
 70
     0
  9
$DIMSOXD
 70
     0
  9
$DIMSAH
 70
     0
  9
$DIMBLK1
  1

  9
$DIMBLK2
  1

  9
$DIMSTYLE
  2
ISO-25
  9
$DIMCLRD
 70
     0
  9
$DIMCLRE
 70
     0
  9
$DIMCLRT
 70
     0
  9
$DIMTFAC
 40
1.0
  9
$DIMGAP
 40
1.524
  9
$DIMJUST
 70
     0
  9
$DIMSD1
 70
     0
  9
$DIMSD2
 70
     0
  9
$DIMTOLJ
 70
     0
  9
$DIMTZIN
 70
     1
  9
$DIMALTZ
 70
     0
  9
$DIMALTTZ
 70
     0
  9
$DIMUPT
 70
     0
  9
$DIMDEC
 70
     2
  9
$DIMTDEC
 70
     2
  9
$DIMALTU
 70
     2
  9
$DIMALTTD
 70
     3
  9
$DIMTXSTY
  7
Standard
  9
$DIMAUNIT
 70
     0
  9
$DIMADEC
 70
     2
  9
$DIMALTRND
 40
0.0
  9
$DIMAZIN
 70
     0
  9
$DIMDSEP
 70
    44
  9
$DIMATFIT
 70
     3
  9
$DIMFRAC
 70
     0
  9
$DIMLDRBLK
  1

  9
$DIMLUNIT
 70
     2
  9
$DIMLWD
 70
    -2
  9
$DIMLWE
 70
    -2
  9
$DIMTMOVE
 70
     0
  9
$LUNITS
 70
     2
  9
$LUPREC
 70
     2
  9
$SKETCHINC
 40
1.0
  9
$FILLETRAD
 40
0.0
  9
$AUNITS
 70
     0
  9
$AUPREC
 70
     2
  9
$MENU
  1
.
  9
$ELEVATION
 40
0.0
  9
$PELEVATION
 40
0.0
  9
$THICKNESS
 40
0.0
  9
$LIMCHECK
 70
     0
  9
$CHAMFERA
 40
0.0
  9
$CHAMFERB
 40
0.0
  9
$CHAMFERC
 40
0.0
  9
$CHAMFERD
 40
0.0
  9
$SKPOLY
 70
     0
  9
$TDCREATE
 40
2461079.639164965
  9
$TDUCREATE
 40
2461079.514164965
  9
$TDUPDATE
 40
2461079.639324988
  9
$TDUUPDATE
 40
2461079.514324988
  9
$TDINDWG
 40
0.0000000116
  9
$TDUSRTIMER
 40
0.0000000116
  9
$USRTIMER
 70
     1
  9
$ANGBASE
 50
0.0
  9
$ANGDIR
 70
     0
  9
$PDMODE
 70
     0
  9
$PDSIZE
 40
-1.0
  9
$PLINEWID
 40
0.0
  9
$SPLFRAME
 70
     0
  9
$SPLINETYPE
 70
     6
  9
$SPLINESEGS
 70
     8
  9
$HANDSEED
  5
72
  9
$SURFTAB1
 70
     6
  9
$SURFTAB2
 70
     6
  9
$SURFTYPE
 70
     6
  9
$SURFU
 70
     6
  9
$SURFV
 70
     6
  9
$UCSBASE
  2

  9
$UCSNAME
  2

  9
$UCSORG
 10
0.0
 20
0.0
 30
0.0
  9
$UCSXDIR
 10
1.0
 20
0.0
 30
0.0
  9
$UCSYDIR
 10
0.0
 20
1.0
 30
0.0
  9
$UCSORTHOREF
  2

  9
$UCSORTHOVIEW
 70
     0
  9
$UCSORGTOP
 10
0.0
 20
0.0
 30
0.0
  9
$UCSORGBOTTOM
 10
0.0
 20
0.0
 30
0.0
  9
$UCSORGLEFT
 10
0.0
 20
0.0
 30
0.0
  9
$UCSORGRIGHT
 10
0.0
 20
0.0
 30
0.0
  9
$UCSORGFRONT
 10
0.0
 20
0.0
 30
0.0
  9
$UCSORGBACK
 10
0.0
 20
0.0
 30
0.0
  9
$PUCSBASE
  2

  9
$PUCSNAME
  2

  9
$PUCSORG
 10
0.0
 20
0.0
 30
0.0
  9
$PUCSXDIR
 10
1.0
 20
0.0
 30
0.0
  9
$PUCSYDIR
 10
0.0
 20
1.0
 30
0.0
  9
$PUCSORTHOREF
  2

  9
$PUCSORTHOVIEW
 70
     0
  9
$PUCSORGTOP
 10
0.0
 20
0.0
 30
0.0
  9
$PUCSORGBOTTOM
 10
0.0
 20
0.0
 30
0.0
  9
$PUCSORGLEFT
 10
0.0
 20
0.0
 30
0.0
  9
$PUCSORGRIGHT
 10
0.0
 20
0.0
 30
0.0
  9
$PUCSORGFRONT
 10
0.0
 20
0.0
 30
0.0
  9
$PUCSORGBACK
 10
0.0
 20
0.0
 30
0.0
  9
$USERI1
 70
     0
  9
$USERI2
 70
     0
  9
$USERI3
 70
     0
  9
$USERI4
 70
     0
  9
$USERI5
 70
     0
  9
$USERR1
 40
0.0
  9
$USERR2
 40
0.0
  9
$USERR3
 40
0.0
  9
$USERR4
 40
0.0
  9
$USERR5
 40
0.0
  9
$WORLDVIEW
 70
     1
  9
$SHADEDGE
 70
     3
  9
$SHADEDIF
 70
    70
  9
$TILEMODE
 70
     1
  9
$MAXACTVP
 70
    64
  9
$PINSBASE
 10
0.0
 20
0.0
 30
0.0
  9
$PLIMCHECK
 70
     0
  9
$PEXTMIN
 10
1.0000000000E+20
 20
1.0000000000E+20
 30
1.0000000000E+20
  9
$PEXTMAX
 10
-1.0000000000E+20
 20
-1.0000000000E+20
 30
-1.0000000000E+20
  9
$PLIMMIN
 10
0.0
 20
0.0
  9
$PLIMMAX
 10
420.0
 20
297.0
  9
$UNITMODE
 70
     0
  9
$VISRETAIN
 70
     1
  9
$PLINEGEN
 70
     0
  9
$PSLTSCALE
 70
     1
  9
$TREEDEPTH
 70
  3020
  9
$CMLSTYLE
  2
Standard
  9
$CMLJUST
 70
     0
  9
$CMLSCALE
 40
20.0
  9
$PROXYGRAPHICS
 70
     1
  9
$MEASUREMENT
 70
     1
  9
$CELWEIGHT
370
    -1
  9
$ENDCAPS
280
     0
  9
$JOINSTYLE
280
     0
  9
$LWDISPLAY
290
     1
  9
$INSUNITS
 70
     4
  9
$HYPERLINKBASE
  1

  9
$STYLESHEET
  1

  9
$XEDIT
290
     1
  9
$CEPSNTYPE
380
     0
  9
$PSTYLEMODE
290
     1
  9
$FINGERPRINTGUID
  2
{3fd78605-ab54-484f-ac08-e4448804da1a}
  9
$VERSIONGUID
  2
{FAEB1C32-E019-11D5-929B-00C0DF256EC4}
  9
$EXTNAMES
290
     1
  9
$PSVPSCALE
 40
0.0
  9
$OLESTARTUP
290
     0
  0
ENDSEC
  0
SECTION
  2
CLASSES
  0
CLASS
  1
ACDBDICTIONARYWDFLT
  2
AcDbDictionaryWithDefault
  3
ObjectDBX Classes
 90
        0
280
     0
281
     0
  0
CLASS
  1
VISUALSTYLE
  2
AcDbVisualStyle
  3
ObjectDBX Classes
 90
     4095
280
     0
281
     0
  0
CLASS
  1
MATERIAL
  2
AcDbMaterial
  3
ObjectDBX Classes
 90
     1153
280
     0
281
     0
  0
CLASS
  1
SCALE
  2
AcDbScale
  3
ObjectDBX Classes
 90
     1153
280
     0
281
     0
  0
CLASS
  1
TABLESTYLE
  2
AcDbTableStyle
  3
ObjectDBX Classes
 90
     4095
280
     0
281
     0
  0
CLASS
  1
MLEADERSTYLE
  2
AcDbMLeaderStyle
  3
ACDB_MLEADERSTYLE_CLASS
 90
     4095
280
     0
281
     0
  0
CLASS
  1
SUN
  2
AcDbSun
  3
SCENEOE
 90
     1153
280
     0
281
     0
  0
CLASS
  1
ACDBPLACEHOLDER
  2
AcDbPlaceHolder
  3
ObjectDBX Classes
 90
        0
280
     0
281
     0
  0
CLASS
  1
LAYOUT
  2
AcDbLayout
  3
ObjectDBX Classes
 90
        0
280
     0
281
     0
  0
ENDSEC
  0
SECTION
  2
TABLES
  0
TABLE
  2
VPORT
  5
8
330
0
100
AcDbSymbolTable
 70
     1
  0
VPORT
  5
29
330
8
100
AcDbSymbolTableRecord
100
AcDbViewportTableRecord
  2
*Active
 70
     0
 10
0.0
 20
0.0
 11
1.0
 21
1.0
 12
-86.5958555281
 22
26.6835651917
 13
0.0
 23
0.0
 14
10.0
 24
10.0
 15
10.0
 25
10.0
 16
0.0
 26
0.0
 36
1.0
 17
0.0
 27
0.0
 37
0.0
 40
51.2228946104
 41
3.4446928827
 42
50.0
 43
0.0
 44
0.0
 50
0.0
 51
0.0
 71
     0
 72
   100
 73
     1
 74
     3
 75
     0
 76
     0
 77
     0
 78
     0
281
     0
 65
     1
110
0.0
120
0.0
130
0.0
111
1.0
121
0.0
131
0.0
112
0.0
122
1.0
132
0.0
 79
     0
146
0.0
  0
ENDTAB
  0
TABLE
  2
LTYPE
  5
5
330
0
100
AcDbSymbolTable
 70
     6
  0
LTYPE
  5
14
330
5
100
AcDbSymbolTableRecord
100
AcDbLinetypeTableRecord
  2
ByBlock
 70
     0
  3

 72
    65
 73
     0
 40
0.0
  0
LTYPE
  5
15
330
5
100
AcDbSymbolTableRecord
100
AcDbLinetypeTableRecord
  2
ByLayer
 70
     0
  3

 72
    65
 73
     0
 40
0.0
  0
LTYPE
  5
16
330
5
100
AcDbSymbolTableRecord
100
AcDbLinetypeTableRecord
  2
Continuous
 70
     0
  3
Solid line
 72
    65
 73
     0
 40
0.0
  0
LTYPE
  5
5E
330
5
100
AcDbSymbolTableRecord
100
AcDbLinetypeTableRecord
  2
HIDDEN
 70
     0
  3
Hidden __ __ __ __ __ __ __ __ __ __ __ __ __ __
 72
    65
 73
     2
 40
1.905
 49
1.27
 74
     0
 49
-0.635
 74
     0
  0
LTYPE
  5
5F
330
5
100
AcDbSymbolTableRecord
100
AcDbLinetypeTableRecord
  2
PHANTOM
 70
     0
  3
Phantom ______  __  __  ______  __  __  ______
 72
    65
 73
     6
 40
12.7
 49
6.35
 74
     0
 49
-1.27
 74
     0
 49
1.27
 74
     0
 49
-1.27
 74
     0
 49
1.27
 74
     0
 49
-1.27
 74
     0
  0
LTYPE
  5
60
330
5
100
AcDbSymbolTableRecord
100
AcDbLinetypeTableRecord
  2
CENTER
 70
     0
  3
Center ____ _ ____ _ ____ _ ____ _ ____ _ ____
 72
    65
 73
     4
 40
10.16
 49
6.35
 74
     0
 49
-1.27
 74
     0
 49
1.27
 74
     0
 49
-1.27
 74
     0
  0
LTYPE
  5
61
330
5
100
AcDbSymbolTableRecord
100
AcDbLinetypeTableRecord
  2
CENTERX2
 70
     0
  3
Center (2x) ________  __  ________  __  _____
 72
    65
 73
     4
 40
20.32
 49
12.7
 74
     0
 49
-2.54
 74
     0
 49
2.54
 74
     0
 49
-2.54
 74
     0
  0
LTYPE
  5
62
330
5
100
AcDbSymbolTableRecord
100
AcDbLinetypeTableRecord
  2
DOT2
 70
     0
  3
Dot (.5x) ........................................
 72
    65
 73
     2
 40
0.635
 49
0.0
 74
     0
 49
-0.635
 74
     0
  0
ENDTAB
  0
TABLE
  2
LAYER
  5
2
330
0
100
AcDbSymbolTable
 70
     1
  0
LAYER
  5
10
330
2
100
AcDbSymbolTableRecord
100
AcDbLayerTableRecord
  2
0
 70
     0
 62
     7
  6
Continuous
370
    -3
390
F
  0
ENDTAB
  0
TABLE
  2
STYLE
  5
3
330
0
100
AcDbSymbolTable
 70
     1
  0
STYLE
  5
11
330
3
100
AcDbSymbolTableRecord
100
AcDbTextStyleTableRecord
  2
Standard
 70
     0
 40
0.0
 41
1.0
 50
0.0
 71
     0
 42
3.5
  3
txt
  4

  0
ENDTAB
  0
TABLE
  2
VIEW
  5
6
330
0
100
AcDbSymbolTable
 70
     0
  0
ENDTAB
  0
TABLE
  2
UCS
  5
7
330
0
100
AcDbSymbolTable
 70
     0
  0
ENDTAB
  0
TABLE
  2
APPID
  5
9
330
0
100
AcDbSymbolTable
 70
     1
  0
APPID
  5
12
330
9
100
AcDbSymbolTableRecord
100
AcDbRegAppTableRecord
  2
ACAD
 70
     0
  0
ENDTAB
  0
TABLE
  2
DIMSTYLE
  5
A
330
0
100
AcDbSymbolTable
 70
     1
100
AcDbDimStyleTable
  0
DIMSTYLE
105
27
330
A
100
AcDbSymbolTableRecord
100
AcDbDimStyleTableRecord
  2
ISO-25
 70
     0
 41
2.5
 42
0.625
 43
3.75
 44
1.25
 73
     0
 74
     0
 77
     1
 78
     8
140
2.5
141
2.5
143
0.0393700787
147
0.625
171
     3
172
     1
178
     0
271
     2
272
     2
274
     3
278
    44
283
     0
284
     8
340
11
  0
ENDTAB
  0
TABLE
  2
BLOCK_RECORD
  5
1
330
0
100
AcDbSymbolTable
 70
     1
  0
BLOCK_RECORD
  5
1F
330
1
100
AcDbSymbolTableRecord
100
AcDbBlockTableRecord
  2
*Model_Space
340
22
  0
BLOCK_RECORD
  5
1B
330
1
100
AcDbSymbolTableRecord
100
AcDbBlockTableRecord
  2
*Paper_Space
340
1E
  0
BLOCK_RECORD
  5
23
330
1
100
AcDbSymbolTableRecord
100
AcDbBlockTableRecord
  2
*Paper_Space0
340
26
  0
ENDTAB
  0
ENDSEC
  0
SECTION
  2
BLOCKS
  0
BLOCK
  5
20
330
1F
100
AcDbEntity
  8
0
100
AcDbBlockBegin
  2
*Model_Space
 70
     0
 10
0.0
 20
0.0
 30
0.0
  3
*Model_Space
  1

  0
ENDBLK
  5
21
330
1F
100
AcDbEntity
  8
0
100
AcDbBlockEnd
  0
BLOCK
  5
1C
330
1B
100
AcDbEntity
 67
     1
  8
0
100
AcDbBlockBegin
  2
*Paper_Space
 70
     0
 10
0.0
 20
0.0
 30
0.0
  3
*Paper_Space
  1

  0
ENDBLK
  5
1D
330
1B
100
AcDbEntity
 67
     1
  8
0
100
AcDbBlockEnd
  0
BLOCK
  5
24
330
23
100
AcDbEntity
  8
0
100
AcDbBlockBegin
  2
*Paper_Space0
 70
     0
 10
0.0
 20
0.0
 30
0.0
  3
*Paper_Space0
  1

  0
ENDBLK
  5
25
330
23
100
AcDbEntity
  8
0
100
AcDbBlockEnd
  0
ENDSEC
  0
SECTION
  2
ENTITIES
  0
CIRCLE
  5
63
330
1F
100
AcDbEntity
  8
0
  6
Continuous
 62
     7
100
AcDbCircle
 10
-162.6323073659
 20
31.0184169435
 30
0.0
 40
1.499999999999982
  0
CIRCLE
  5
64
330
1F
100
AcDbEntity
  8
0
  6
Continuous
 62
     7
100
AcDbCircle
 10
-122.5840960512
 20
8.4397922553
 30
0.0
 40
1.499999999999996
  0
CIRCLE
  5
65
330
1F
100
AcDbEntity
  8
0
  6
Continuous
 62
     7
100
AcDbCircle
 10
-52.1849209107
 20
7.9019629504
 30
0.0
 40
1.500000000000002
  0
CIRCLE
  5
66
330
1F
100
AcDbEntity
  8
0
  6
Continuous
 62
     7
100
AcDbCircle
 10
-10.9605261998
 20
31.3946196619
 30
0.0
 40
1.499999999999999
  0
SPLINE
  5
67
330
1F
100
AcDbEntity
  8
0
  6
Continuous
 62
     7
100
AcDbSpline
210
0.0
220
0.0
230
1.0
 70
     8
 71
     3
 72
   746
 73
   742
 74
     0
 42
0.00000001
 43
0.00000001
 40
0.0
 40
0.0
 40
0.0
 40
0.0
 40
0.0036633709962365
 40
0.0070022835622894
 40
0.0083454747705961
 40
0.009253758186603
 40
0.0103447811763695
 40
0.0105744045239542
 40
0.0115056687171436
 40
0.0126293582487062
 40
0.0146764656362802
 40
0.0163990421042995
 40
0.0190140154063541
 40
0.0201481952665431
 40
0.0211797741021667
 40
0.0216627256476306
 40
0.0223250953167357
 40
0.0230707688747251
 40
0.0237600390772664
 40
0.0240141509041454
 40
0.0243306963518505
 40
0.0244390421202889
 40
0.0245529325599277
 40
0.0247745662770556
 40
0.0252991408574241
 40
0.0268487035617292
 40
0.0279341014721477
 40
0.0300127776461474
 40
0.0319128789263686
 40
0.0337739901253471
 40
0.0341846521937296
 40
0.0347979750286254
 40
0.0357175651367354
 40
0.036716771690133
 40
0.0378152047220445
 40
0.0406676908438476
 40
0.0428582207761206
 40
0.0453753946117046
 40
0.0476079970146681
 40
0.0494992439073791
 40
0.0522263219298985
 40
0.0555741886484937
 40
0.0577881955778561
 40
0.0592861700166102
 40
0.0605256774470019
 40
0.0623812882951396
 40
0.0640485993906102
 40
0.0650654000527517
 40
0.0673880824964857
 40
0.0686339757438257
 40
0.0700088261186777
 40
0.0709065255858759
 40
0.0716343320779372
 40
0.0726836273508059
 40
0.0736257790120135
 40
0.0740798132477357
 40
0.0752597524522923
 40
0.0793672102356291
 40
0.0803565938786061
 40
0.0807894856685949
 40
0.0816542144047574
 40
0.0825626295091091
 40
0.0838686736493598
 40
0.0855117197836469
 40
0.087019752847612
 40
0.0882364817730821
 40
0.0887615632945232
 40
0.08945780267399
 40
0.089582363017622
 40
0.0895867731442558
 40
0.0897624741931758
 40
0.0899743285883378
 40
0.0900473400437357
 40
0.0901319536006913
 40
0.091235584322137
 40
0.0919645695123555
 40
0.0928575596102219
 40
0.0934708077115517
 40
0.0943200153032308
 40
0.0954468945835913
 40
0.0962595421547497
 40
0.0970357836455727
 40
0.098836646854662
 40
0.1000963110427609
 40
0.1010546856222034
 40
0.1044202238982547
 40
0.1061258070713714
 40
0.1077979709832888
 40
0.1089767130058813
 40
0.1112463470130472
 40
0.1136614047471888
 40
0.1157875892077123
 40
0.1176849605062933
 40
0.120007902384395
 40
0.1210191772923983
 40
0.1222016386806225
 40
0.123308197257293
 40
0.1240055486551311
 40
0.124387845303573
 40
0.1248317692551404
 40
0.1253056425502634
 40
0.1261510811952108
 40
0.127075703080589
 40
0.1278455486975593
 40
0.1280612835050476
 40
0.1287811137511745
 40
0.1292433143661075
 40
0.1303919229012774
 40
0.131720179207757
 40
0.1354680223035994
 40
0.1411558993434296
 40
0.14138571719622
 40
0.1414225872305751
 40
0.1414299506749863
 40
0.1414370177014239
 40
0.1415164924638204
 40
0.1424609328321676
 40
0.1428004963844132
 40
0.1434009465071976
 40
0.1446108201318876
 40
0.1459556062432127
 40
0.1472458369682517
 40
0.1487803895768176
 40
0.1508102849903445
 40
0.1517317960189332
 40
0.1529638097606077
 40
0.1542106129168733
 40
0.1571618743737374
 40
0.1596491566282677
 40
0.1621172889881783
 40
0.1641126162885891
 40
0.1654048694312016
 40
0.166025375510427
 40
0.1662173649872183
 40
0.1666550311165464
 40
0.1670821323258829
 40
0.1678652879786805
 40
0.1694372505658644
 40
0.1708319901945767
 40
0.1737034257414844
 40
0.1749587288166793
 40
0.1763428063863189
 40
0.1781509856425685
 40
0.1793880743415876
 40
0.1816721187796033
 40
0.1819706942535784
 40
0.182088851607746
 40
0.1825021826528785
 40
0.1826463972957329
 40
0.1827029876823201
 40
0.1827484371749254
 40
0.1828085770785682
 40
0.182977051328419
 40
0.1834296126137288
 40
0.1839146186350915
 40
0.1839816359000586
 40
0.1840300726698398
 40
0.1842750314704995
 40
0.1845063236719778
 40
0.1858526010072832
 40
0.1860858616159913
 40
0.1861212295452081
 40
0.1861493491385581
 40
0.1862577428469256
 40
0.1868960699508711
 40
0.1875636630185534
 40
0.1877091516835395
 40
0.187749237966206
 40
0.1881377585057581
 40
0.1890679325318528
 40
0.1904175370251474
 40
0.1915631488163521
 40
0.1933515700263142
 40
0.1942685619864845
 40
0.1952095377424139
 40
0.1969218548533078
 40
0.1988437528156866
 40
0.1994869509845695
 40
0.2007271029203653
 40
0.2022836340161766
 40
0.2038125744017583
 40
0.205171918523519
 40
0.2065577367361792
 40
0.2073005712650027
 40
0.2074917752624046
 40
0.207963952931695
 40
0.2086410099461828
 40
0.2090055918194156
 40
0.2098016488566101
 40
0.2098559278073699
 40
0.2098658112822145
 40
0.2099033157952135
 40
0.2101268204483215
 40
0.2104930039275283
 40
0.211029389687338
 40
0.2116285528141177
 40
0.2122826682977025
 40
0.2129666172128626
 40
0.2141996988406768
 40
0.215367013590199
 40
0.216146935484034
 40
0.217004034244531
 40
0.2181987619721786
 40
0.2187177756971466
 40
0.219145505687441
 40
0.2200473678848091
 40
0.2203683769869399
 40
0.2204739103029008
 40
0.2210292031712362
 40
0.2211970769343597
 40
0.2212489369456845
 40
0.2213434348327196
 40
0.2215868459657544
 40
0.2223939369415798
 40
0.2235370596577428
 40
0.2249180590842593
 40
0.2258351826752488
 40
0.227303480339784
 40
0.2292458932131067
 40
0.2325483701637297
 40
0.2363110595001647
 40
0.239433420752486
 40
0.2423712809734054
 40
0.2461733795473914
 40
0.2495854726826822
 40
0.2524058300607722
 40
0.2558666278968206
 40
0.2590173473558646
 40
0.2619413126586807
 40
0.2647044749473237
 40
0.2668737244583085
 40
0.2698471695326792
 40
0.2703806414773976
 40
0.2712500630810035
 40
0.2718781749582518
 40
0.2729354418173364
 40
0.2742230078904641
 40
0.2755327661962335
 40
0.2772783385450709
 40
0.2823787344794069
 40
0.2837217430533364
 40
0.2853936644868566
 40
0.2862285467435827
 40
0.2874145212709765
 40
0.2882073170226064
 40
0.2884652070074617
 40
0.2885089634788469
 40
0.2888599867346861
 40
0.2893444959452967
 40
0.2897608667217115
 40
0.2907867307893109
 40
0.2922333736697459
 40
0.2942668751795136
 40
0.2965149106853425
 40
0.2988559744414145
 40
0.3012602652275452
 40
0.3030746248451121
 40
0.3050010098534262
 40
0.306980805708137
 40
0.3085460664837052
 40
0.310559952058896
 40
0.3130660826325234
 40
0.3172538011482456
 40
0.3198872871936909
 40
0.3212665382045838
 40
0.3229519356640739
 40
0.3251718054857291
 40
0.327582509317119
 40
0.3306716614979702
 40
0.3329395234487548
 40
0.3350870322815636
 40
0.3371048856665694
 40
0.3393715362774851
 40
0.3408044251015925
 40
0.3423807734899769
 40
0.3439415260988811
 40
0.3477699783503101
 40
0.3516396266200958
 40
0.3543978080829845
 40
0.3578519766943736
 40
0.3582258234960014
 40
0.3592510277521473
 40
0.3593578709482224
 40
0.3593660994372828
 40
0.3593704883081925
 40
0.3593932914211307
 40
0.3600749222249897
 40
0.3604927484190543
 40
0.3608578834141212
 40
0.3608741773647114
 40
0.3608880396328606
 40
0.3610050550637084
 40
0.3619957212233876
 40
0.3624673166028497
 40
0.363279969572093
 40
0.3634262205975473
 40
0.3641704682875075
 40
0.3649219077775268
 40
0.3657360715709619
 40
0.3660050105718604
 40
0.3660273409151721
 40
0.3662573020308134
 40
0.3675488098970425
 40
0.3686293800780894
 40
0.370901054180509
 40
0.3727875601449136
 40
0.3738497425080161
 40
0.3751225522712844
 40
0.3771152015059152
 40
0.379447156423409
 40
0.3814032795932594
 40
0.3831254186970458
 40
0.384461218600512
 40
0.3871750171661281
 40
0.3892722947509789
 40
0.3919477324721086
 40
0.3935820098452995
 40
0.3963217017815283
 40
0.3995062978388244
 40
0.402461872147452
 40
0.4059648259266073
 40
0.4088572117537914
 40
0.4121416984228507
 40
0.4146926939258932
 40
0.4181698485025609
 40
0.4211364666138387
 40
0.4228657714073663
 40
0.4245314343200974
 40
0.426300475198492
 40
0.4274712658919989
 40
0.4305589434576949
 40
0.4342399789130139
 40
0.4355413213739526
 40
0.4367952937820864
 40
0.4379803118418589
 40
0.4390756268137876
 40
0.4431284496353898
 40
0.4470222989955768
 40
0.451063477970355
 40
0.4539196116724057
 40
0.4570893584363137
 40
0.4586163553196553
 40
0.4612506590743448
 40
0.4630892434694363
 40
0.4647998124311818
 40
0.4675475136350119
 40
0.4713249540225176
 40
0.4740718437038816
 40
0.4750831184522314
 40
0.4757313978668697
 40
0.4758730634881557
 40
0.4770811134141981
 40
0.477510689741357
 40
0.4783560181876734
 40
0.4790292554512424
 40
0.4801022680137026
 40
0.4809009732035678
 40
0.4814285560894219
 40
0.4860263441083945
 40
0.4904120662269426
 40
0.4943474720432425
 40
0.497646652685957
 40
0.5010786739919131
 40
0.5044221186903459
 40
0.5078381198371693
 40
0.512094420377044
 40
0.5144965671482867
 40
0.5195819784467958
 40
0.5235533874894738
 40
0.5309441119896063
 40
0.5373412794547198
 40
0.5421662460675976
 40
0.5481732706668376
 40
0.5511582526776082
 40
0.552771793854831
 40
0.5535000218605454
 40
0.5539837639654497
 40
0.5547388959033961
 40
0.555188299128036
 40
0.5556227061099411
 40
0.5557149640572745
 40
0.5557382971543381
 40
0.555803025628964
 40
0.557401621614364
 40
0.55796311425496
 40
0.5592518585505803
 40
0.5616786822535556
 40
0.5634560968311753
 40
0.5644335151549656
 40
0.5649376416745178
 40
0.5656993133928953
 40
0.5660676503996185
 40
0.5667222284126737
 40
0.5679930182975254
 40
0.5688729668172207
 40
0.5692972184084394
 40
0.5713708184451581
 40
0.5725472418624712
 40
0.5729675522264193
 40
0.5740612521746026
 40
0.5745640828253226
 40
0.5748253019027201
 40
0.5751372715569809
 40
0.575499828512317
 40
0.5764042916083841
 40
0.5769251220897172
 40
0.5772443269369127
 40
0.5778025404171053
 40
0.5786329895256594
 40
0.5801087893835368
 40
0.5811438757886004
 40
0.5824082104483362
 40
0.5832082949411372
 40
0.5845060595312852
 40
0.5853381674712853
 40
0.58565372453662
 40
0.5859913833483297
 40
0.5863841641091524
 40
0.5872112849704955
 40
0.5874946692978198
 40
0.5878879087779187
 40
0.5889085392469576
 40
0.5889703452014874
 40
0.5891020083569704
 40
0.5892993715758229
 40
0.589481560410185
 40
0.5899705112293816
 40
0.5910805155773398
 40
0.5919472569757415
 40
0.5930734647063948
 40
0.5953184816531648
 40
0.5974779745806577
 40
0.5993572519645035
 40
0.6016103243056126
 40
0.6038470106230017
 40
0.6040790866982846
 40
0.6046314005566256
 40
0.6057162224594478
 40
0.6064135822022
 40
0.6069027498710554
 40
0.6089431455492487
 40
0.6100297346323225
 40
0.6109009801277169
 40
0.6128441418744761
 40
0.6145212234127226
 40
0.6157359122408006
 40
0.6175388764534774
 40
0.6180057650326823
 40
0.6182758189923415
 40
0.6184151297978221
 40
0.618553765704813
 40
0.6187965471378407
 40
0.6194144535257031
 40
0.6203665808722747
 40
0.6212676252998143
 40
0.6225414230658104
 40
0.6231930434564562
 40
0.6238496190475421
 40
0.6248243588976787
 40
0.6258181827704713
 40
0.6260674647392445
 40
0.626799223647922
 40
0.6280835807428803
 40
0.6294415953027942
 40
0.6312666752822451
 40
0.6325495284751267
 40
0.6337867687588135
 40
0.6353713652440925
 40
0.6363134199222296
 40
0.6387873408847073
 40
0.6396800176639583
 40
0.6406261382068604
 40
0.641258759294388
 40
0.6425493712715504
 40
0.643031102594102
 40
0.6439944443578063
 40
0.6441842166197032
 40
0.6449020871626299
 40
0.6454266946221304
 40
0.6476770713863582
 40
0.6489932457188797
 40
0.6500674209382746
 40
0.6511832239899421
 40
0.6513388483295149
 40
0.6514056923480309
 40
0.6514473873740207
 40
0.6514743481752964
 40
0.6515793939895326
 40
0.6531638025823546
 40
0.656375183116691
 40
0.65974733719166
 40
0.6619199095945705
 40
0.6649910551201983
 40
0.6677526717616491
 40
0.6707576709285955
 40
0.67411136613403
 40
0.6775209692013325
 40
0.6790128010602158
 40
0.6804156364768676
 40
0.6812809497023407
 40
0.6828419665342847
 40
0.6831927101614781
 40
0.6835890921931915
 40
0.683802324759065
 40
0.6842413125226323
 40
0.6842515994390383
 40
0.6842562656230518
 40
0.6842670666065456
 40
0.6849325863532287
 40
0.6855265854632088
 40
0.6867965145485618
 40
0.6874693356552106
 40
0.6876599132140793
 40
0.6889776894588906
 40
0.6894797814832795
 40
0.6896959439432483
 40
0.6904737775174521
 40
0.6911651930895693
 40
0.6916548524734484
 40
0.6926674362471752
 40
0.6934111111969848
 40
0.6944328756580362
 40
0.6954374101985704
 40
0.695463586953247
 40
0.6954681722803538
 40
0.6954737124553608
 40
0.6955640346637378
 40
0.6958084482758227
 40
0.6962952849019353
 40
0.6966144703398099
 40
0.6972684370094685
 40
0.6977878858609016
 40
0.698822683326269
 40
0.7005548753775214
 40
0.701744657248211
 40
0.7022928526489728
 40
0.7036053080236786
 40
0.7087209843554853
 40
0.7135405650500428
 40
0.7165914666584785
 40
0.7198976921575261
 40
0.7231738208645041
 40
0.7268714586516858
 40
0.7290186934918322
 40
0.7324935134184419
 40
0.7344378609288449
 40
0.7369430442119954
 40
0.739626820716738
 40
0.7428885266611662
 40
0.7454021606363826
 40
0.7488107494745763
 40
0.7518079544844877
 40
0.7522301854627766
 40
0.7524244545885652
 40
0.7525543250096216
 40
0.7536834078128821
 40
0.7540353846671749
 40
0.7548793126539992
 40
0.7561824644926994
 40
0.7572810092873205
 40
0.7581476886870563
 40
0.7588735895658592
 40
0.7594363547437368
 40
0.7597854421497533
 40
0.7601951216788215
 40
0.7609403819445487
 40
0.7620592585746081
 40
0.763162715015184
 40
0.7635007568036374
 40
0.7637529396038846
 40
0.7643285488466377
 40
0.7681835570977812
 40
0.7721372243814001
 40
0.7735510941697106
 40
0.7751845402154637
 40
0.7771414989452317
 40
0.7782566575355567
 40
0.7812591043454657
 40
0.7837127048995643
 40
0.7859440102139851
 40
0.7887229133529667
 40
0.7906162870857486
 40
0.793537385915949
 40
0.7977799613783351
 40
0.8009173808656983
 40
0.8036644127793204
 40
0.8075161899247185
 40
0.8097042198948151
 40
0.811277392877023
 40
0.8132903836744176
 40
0.8145680753370179
 40
0.8163168640311068
 40
0.8177259455897923
 40
0.8188702091936483
 40
0.8199789707770118
 40
0.8206974581297722
 40
0.821713393344348
 40
0.823125605960274
 40
0.8233084669608529
 40
0.8233270722137401
 40
0.8235078291251087
 40
0.8237938873796851
 40
0.8243907385450746
 40
0.8254062105665783
 40
0.8259769922064321
 40
0.8263379465606855
 40
0.8264873974076031
 40
0.826861696405221
 40
0.8276040740285765
 40
0.8284325133664282
 40
0.8299052915378843
 40
0.8322984961600588
 40
0.8334416735953322
 40
0.8357647286533689
 40
0.8371163773141262
 40
0.8384200971332412
 40
0.8388993005885165
 40
0.8396673562546378
 40
0.8405245177880415
 40
0.8410586164860934
 40
0.8416100358090034
 40
0.8423684244875922
 40
0.8436063832739024
 40
0.8445880224307754
 40
0.8451769047260297
 40
0.8457049493283867
 40
0.8489388623600403
 40
0.8521004213339655
 40
0.852629149339188
 40
0.8532770761008452
 40
0.8540902088314923
 40
0.8545016631890465
 40
0.8545194519277899
 40
0.8548606453939526
 40
0.8558007655340205
 40
0.8566692797341444
 40
0.8572698206449556
 40
0.8585577364851011
 40
0.8591881675787694
 40
0.8598917139516585
 40
0.8613186826811714
 40
0.8626456131240681
 40
0.8645132160213956
 40
0.8657566786880329
 40
0.866905034096454
 40
0.8682829359079893
 40
0.8685662490446138
 40
0.8697868967182594
 40
0.871746928386402
 40
0.8737858835166253
 40
0.8762797453544314
 40
0.8792525015418446
 40
0.8814910709209215
 40
0.8842199955831137
 40
0.8873256125039723
 40
0.8889177611375781
 40
0.890918375402323
 40
0.8924743639213648
 40
0.8941690681287248
 40
0.897282480896008
 40
0.8998369413086413
 40
0.901028374897391
 40
0.9019093742178435
 40
0.9022620967306878
 40
0.9028826475225249
 40
0.9038730098044703
 40
0.9042768075155997
 40
0.9049231675609194
 40
0.9061439991113756
 40
0.9072272745414377
 40
0.9079721278110299
 40
0.9095163216155763
 40
0.9115270422551807
 40
0.915208938366302
 40
0.9184656362795088
 40
0.920418902415819
 40
0.9215359082635894
 40
0.9219746908766033
 40
0.9229839205724558
 40
0.9238028519226408
 40
0.9249065320272052
 40
0.9261242953873943
 40
0.9266192466934589
 40
0.927053799874675
 40
0.9278510142902783
 40
0.929176959588459
 40
0.9306187987396183
 40
0.9326289600203143
 40
0.934046835362853
 40
0.9364662658216396
 40
0.937042237070992
 40
0.939062268295221
 40
0.9411133889378351
 40
0.9435386144664776
 40
0.9452394662980662
 40
0.9482986513485988
 40
0.9509978114330115
 40
0.9527157407666743
 40
0.9537635298617392
 40
0.9554541035282581
 40
0.9567927858702518
 40
0.9584582540816947
 40
0.9596216653189437
 40
0.960692111474121
 40
0.9623640694020639
 40
0.9638586738065903
 40
0.9641423312037999
 40
0.9653562997590485
 40
0.9661580309691182
 40
0.9665522070252005
 40
0.9686434650323608
 40
0.9718473103936546
 40
0.9730479337545828
 40
0.9735867634431016
 40
0.9737556687100251
 40
0.9746533761849742
 40
0.9757449882831631
 40
0.9765811088034522
 40
0.9775839203083015
 40
0.9784423824504316
 40
0.9807226519204892
 40
0.982244707140777
 40
0.9835234283951666
 40
0.9844402142194312
 40
0.986494170413482
 40
0.9870580326342299
 40
0.9878758702948937
 40
0.9890400305217601
 40
0.9899806085355507
 40
0.9906486600460194
 40
0.9922180962475878
 40
0.9946238182812194
 40
0.9962834386759436
 40
0.9974071789691592
 40
0.9980206775249236
 40
0.9986814885161831
 40
0.9995520787620804
 40
0.9999116584476703
 40
0.9999823208842198
 40
0.9999963235781538
 40
1.0
 40
1.0
 40
1.0
 40
1.0
 10
-29.29595112800598
 20
16.00548778686459
 30
0.0
 10
-27.4066080904071
 20
15.98285017972609
 30
0.0
 10
-25.6844774487752
 20
15.98358155889679
 30
0.0
 10
-24.99169698974554
 20
15.98088167262455
 30
0.0
 10
-24.52325372742365
 20
15.98595561645224
 30
0.0
 10
-23.96053736647871
 20
15.98877377987819
 30
0.0
 10
-23.84236670650724
 20
15.98087727132195
 30
0.0
 10
-23.36210368757389
 20
15.98851031667119
 30
0.0
 10
-22.78253317041126
 20
15.98718417067745
 30
0.0
 10
-21.72668614144044
 20
15.98909346176238
 30
0.0
 10
-20.8382253588279
 20
15.98689109344669
 30
0.0
 10
-19.48953243132359
 20
15.99819956805174
 30
0.0
 10
-18.90457466078028
 20
15.99279971041901
 30
0.0
 10
-18.37251446214687
 20
15.99468894862641
 30
0.0
 10
-18.12342012282515
 20
15.99421426010397
 30
0.0
 10
-17.78266324023126
 20
16.01868408567745
 30
0.0
 10
-17.39944422812996
 20
16.05125283297613
 30
0.0
 10
-17.13386572797123
 20
16.2875888314471
 30
0.0
 10
-17.12432555457541
 20
16.41830592545837
 30
0.0
 10
-17.12530413602259
 20
16.58156952138719
 30
0.0
 10
-17.12528272755566
 20
16.63745165880835
 30
0.0
 10
-17.1275389545478
 20
16.69615026253303
 30
0.0
 10
-17.13008649983963
 20
16.81043521292884
 30
0.0
 10
-17.14069604983265
 20
17.0807900693895
 30
0.0
 10
-17.12743514692008
 20
17.879907222465
 30
0.0
 10
-17.09672216423765
 20
18.43888623632066
 30
0.0
 10
-17.09428356212302
 20
19.51101463900246
 30
0.0
 10
-17.08141259335029
 20
20.49095665704963
 30
0.0
 10
-17.08326972462475
 20
21.45087125516961
 30
0.0
 10
-17.08139488370617
 20
21.66267257537755
 30
0.0
 10
-17.08189997715912
 20
21.97900933926747
 30
0.0
 10
-17.08680570277134
 20
22.45328642912869
 30
0.0
 10
-17.10238140453168
 20
22.96841771475169
 30
0.0
 10
-17.09530245945495
 20
23.53491882685973
 30
0.0
 10
-17.09249634745064
 20
25.00615988690167
 30
0.0
 10
-17.09309044628493
 20
26.13598238504168
 30
0.0
 10
-17.11702372211866
 20
27.43405949260493
 30
0.0
 10
-17.10170282300847
 20
28.58548018937047
 30
0.0
 10
-17.12120066789415
 20
29.56074496549995
 30
0.0
 10
-17.09097526177142
 20
30.96698142784976
 30
0.0
 10
-17.10019175472519
 20
32.69370596470251
 30
0.0
 10
-17.07716824145922
 20
33.83540536697247
 30
0.0
 10
-17.09583730615759
 20
34.60779896803147
 30
0.0
 10
-17.08782622730983
 20
35.24705689425532
 30
0.0
 10
-17.07953053724668
 20
36.20410038717446
 30
0.0
 10
-17.08860207528951
 20
37.06401150122949
 30
0.0
 10
-17.09248863840013
 20
37.58843842596147
 30
0.0
 10
-17.10301597165171
 20
38.78637591170579
 30
0.0
 10
-17.09225320027447
 20
39.42888754577589
 30
0.0
 10
-17.08831801773303
 20
40.13799138332099
 30
0.0
 10
-17.09723254805927
 20
40.60091735255034
 30
0.0
 10
-17.09133241921859
 20
40.9762560659746
 30
0.0
 10
-17.08351689482416
 20
41.5174008957766
 30
0.0
 10
-17.09427343770901
 20
42.00322099709426
 30
0.0
 10
-17.09405893448696
 20
42.23740083760185
 30
0.0
 10
-17.1038491033906
 20
42.84590634913252
 30
0.0
 10
-17.0996108458135
 20
44.96443004529825
 30
0.0
 10
-17.08544902415089
 20
45.47453378570217
 30
0.0
 10
-17.07498795686766
 20
45.6975637596497
 30
0.0
 10
-17.05661720632528
 20
46.14319154295593
 30
0.0
 10
-17.0554246268431
 20
46.61172868761867
 30
0.0
 10
-17.0939254565272
 20
47.28425369366374
 30
0.0
 10
-17.09993040381971
 20
48.13167609694856
 30
0.0
 10
-17.09377121594417
 20
48.90945889480851
 30
0.0
 10
-17.08576274059629
 20
49.53696730949679
 30
0.0
 10
-17.08450540385415
 20
49.80778881076192
 30
0.0
 10
-17.0847156685106
 20
50.16689227578683
 30
0.0
 10
-17.08477210161906
 20
50.2311374804293
 30
0.0
 10
-17.0847585465819
 20
50.23341207728946
 30
0.0
 10
-17.09104965315242
 20
50.32381582095795
 30
0.0
 10
-17.09822535549316
 20
50.43284935451888
 30
0.0
 10
-17.10059418496616
 20
50.4704323283398
 30
0.0
 10
-17.10468057367832
 20
50.51388223008824
 30
0.0
 10
-17.08855644004502
 20
51.08287999741002
 30
0.0
 10
-16.82830701943581
 20
51.35424874344298
 30
0.0
 10
-16.37008507233789
 20
51.40082316477253
 30
0.0
 10
-16.0538542392051
 20
51.39427503171526
 30
0.0
 10
-15.61588969258191
 20
51.38863573093073
 30
0.0
 10
-15.03468154069108
 20
51.39188422664857
 30
0.0
 10
-14.61553751554253
 20
51.3920826347107
 30
0.0
 10
-14.21517440825864
 20
51.39038853564362
 30
0.0
 10
-13.28633538251219
 20
51.38806560505725
 30
0.0
 10
-12.63663815455341
 20
51.39113785806734
 30
0.0
 10
-12.14234694333834
 20
51.3872427485823
 30
0.0
 10
-10.40648396587247
 20
51.38566138117376
 30
0.0
 10
-9.526925792936881
 20
51.40138916072575
 30
0.0
 10
-8.664557377325664
 20
51.38868902001622
 30
0.0
 10
-8.056590683091725
 20
51.38835649333077
 30
0.0
 10
-6.88597136085563
 20
51.39114087193942
 30
0.0
 10
-5.640343564195521
 20
51.38964538337395
 30
0.0
 10
-4.543718480988142
 20
51.39426361919389
 30
0.0
 10
-3.565109182073956
 20
51.39850309453675
 30
0.0
 10
-2.367092949455234
 20
51.38292191325463
 30
0.0
 10
-1.845784627494511
 20
51.36574367523956
 30
0.0
 10
-1.236116575896769
 20
51.34947233988643
 30
0.0
 10
-0.665705154439624
 20
51.33021787942879
 30
0.0
 10
-0.3105533155315864
 20
51.27334281972901
 30
0.0
 10
-0.1393254089756159
 20
51.17556385293849
 30
0.0
 10
-0.0598206263647095
 20
50.96084520696211
 30
0.0
 10
-0.0685252798160973
 20
50.7165878141199
 30
0.0
 10
-0.180128458551217
 20
50.29505446149996
 30
0.0
 10
-0.2837314032155963
 20
49.82954627145705
 30
0.0
 10
-0.2269378036462379
 20
49.43656107149467
 30
0.0
 10
-0.2200853151370485
 20
49.32550144829443
 30
0.0
 10
-0.2559433206909302
 20
48.95596599115039
 30
0.0
 10
-0.2718253839770948
 20
48.71810366330454
 30
0.0
 10
-0.255951266897073
 20
48.12589171919077
 30
0.0
 10
-0.263717663921501
 20
47.44085308543173
 30
0.0
 10
-0.2498594717544792
 20
45.50785543242934
 30
0.0
 10
-0.2296756823818847
 20
42.57425468870873
 30
0.0
 10
-0.1972880396302966
 20
42.46023068559144
 30
0.0
 10
-0.1922047013026949
 20
42.44190601168353
 30
0.0
 10
-0.1920848279486353
 20
42.43811001641814
 30
0.0
 10
-0.192180980683938
 20
42.4344662825949
 30
0.0
 10
-0.1949310999961738
 20
42.39356746913322
 30
0.0
 10
-0.2360596880101048
 20
41.90818723634117
 30
0.0
 10
-0.254396347332646
 20
41.73401107309753
 30
0.0
 10
-0.2773195837735828
 20
41.42516287360574
 30
0.0
 10
-0.250010998976828
 20
40.80173698362032
 30
0.0
 10
-0.2809596744505687
 20
40.10881945712358
 30
0.0
 10
-0.235908570032119
 20
39.44487617071633
 30
0.0
 10
-0.2261809314903652
 20
38.65345062328851
 30
0.0
 10
-0.2566875408792494
 20
37.6069239348866
 30
0.0
 10
-0.2856782867858941
 20
37.13251568607976
 30
0.0
 10
-0.2782493421668829
 20
36.49711605671291
 30
0.0
 10
-0.2427338791166598
 20
35.85502644687045
 30
0.0
 10
-0.2539028891204725
 20
34.33287774525198
 30
0.0
 10
-0.226126832393813
 20
33.05029810975424
 30
0.0
 10
-0.2271161899880894
 20
31.77729518434968
 30
0.0
 10
-0.2576382525382285
 20
30.74860606056742
 30
0.0
 10
-0.2412649548876709
 20
30.08229411009622
 30
0.0
 10
-0.2514879889568382
 20
29.76241531602986
 30
0.0
 10
-0.2594938763838706
 20
29.66371592330084
 30
0.0
 10
-0.259510462068913
 20
29.43797826076922
 30
0.0
 10
-0.2687365560244383
 20
29.2178830170585
 30
0.0
 10
-0.2755537149279063
 20
28.81400769768563
 30
0.0
 10
-0.2753070770151431
 20
28.00322724021161
 30
0.0
 10
-0.2621260896295231
 20
27.28397485174727
 30
0.0
 10
-0.2946204011433449
 20
25.80331397210511
 30
0.0
 10
-0.2939114109213269
 20
25.15585922556839
 30
0.0
 10
-0.2439354388048813
 20
24.44373677934391
 30
0.0
 10
-0.2798514307945125
 20
23.5118132455237
 30
0.0
 10
-0.2896965716456658
 20
22.87382860670296
 30
0.0
 10
-0.2384097161623717
 20
21.69689034039066
 30
0.0
 10
-0.2305694382610903
 20
21.54309200180161
 30
0.0
 10
-0.2247718598797754
 20
21.48242567354589
 30
0.0
 10
-0.2200835256113094
 20
21.26929102007927
 30
0.0
 10
-0.2232262985961127
 20
21.19497499898111
 30
0.0
 10
-0.2344381344284248
 20
21.16802631133206
 30
0.0
 10
-0.2408577400787645
 20
21.14548070091822
 30
0.0
 10
-0.2427845969767068
 20
21.11452189027447
 30
0.0
 10
-0.2405198959137592
 20
21.02765644111021
 30
0.0
 10
-0.2287244629737149
 20
20.79453443478847
 30
0.0
 10
-0.2353535185741795
 20
20.54446784383525
 30
0.0
 10
-0.2369655198398577
 20
20.50993955919128
 30
0.0
 10
-0.237702161243995
 20
20.48496790106338
 30
0.0
 10
-0.2407181507058528
 20
20.35866004611232
 30
0.0
 10
-0.2379853731227422
 20
20.23939639641356
 30
0.0
 10
-0.211988971259988
 20
19.54550572922623
 30
0.0
 10
-0.2065485726583768
 20
19.42531858713562
 30
0.0
 10
-0.2073480353895498
 20
19.40709418675642
 30
0.0
 10
-0.207127969043353
 20
19.39259244649035
 30
0.0
 10
-0.2116919830886761
 20
19.33687218409638
 30
0.0
 10
-0.2454962262039041
 20
19.00937844834313
 30
0.0
 10
-0.2361126609685945
 20
18.66517788360706
 30
0.0
 10
-0.2251141430017215
 20
18.59094872961792
 30
0.0
 10
-0.2246036264445953
 20
18.57027949288943
 30
0.0
 10
-0.2360255288811091
 20
18.37021572337947
 30
0.0
 10
-0.263795128079683
 20
17.89125868816878
 30
0.0
 10
-0.2159213907870744
 20
17.19681335619878
 30
0.0
 10
-0.2160577403380761
 20
16.60593436328938
 30
0.0
 10
-0.2196851069606026
 20
15.68351684895111
 30
0.0
 10
-0.2230534087348764
 20
15.21056644478024
 30
0.0
 10
-0.2127784500239408
 20
14.72534255896871
 30
0.0
 10
-0.2007749581554767
 20
13.84225215188206
 30
0.0
 10
-0.2103655550880714
 20
12.85102980265743
 30
0.0
 10
-0.2060349531912649
 20
12.51931192375529
 30
0.0
 10
-0.2078573391047341
 20
11.8796739783968
 30
0.0
 10
-0.1973399349051532
 20
11.07692157038394
 30
0.0
 10
-0.203774375168533
 20
10.28835714332807
 30
0.0
 10
-0.1939215574309072
 20
9.587309373477007
 30
0.0
 10
-0.1823851640513106
 20
8.872630774467217
 30
0.0
 10
-0.2023438646559721
 20
8.490014797637208
 30
0.0
 10
-0.2136105344524994
 20
8.392042069066513
 30
0.0
 10
-0.2840928586155677
 20
8.158926338984976
 30
0.0
 10
-0.247905374721831
 20
7.811596672235392
 30
0.0
 10
-0.239265623540973
 20
7.62375269528924
 30
0.0
 10
-0.2123020856778403
 20
7.214051935313941
 30
0.0
 10
-0.2015742646548086
 20
7.188193137884425
 30
0.0
 10
-0.2013975681369135
 20
7.183098542541651
 30
0.0
 10
-0.2001092244351713
 20
7.163797567565189
 30
0.0
 10
-0.1980297008436069
 20
7.048538000982912
 30
0.0
 10
-0.1964509207813241
 20
6.859675968275885
 30
0.0
 10
-0.2002680317347342
 20
6.583047428359901
 30
0.0
 10
-0.2178796689983203
 20
6.274515743969397
 30
0.0
 10
-0.2147985745174419
 20
5.937152779090321
 30
0.0
 10
-0.2181965360604519
 20
5.584404744009234
 30
0.0
 10
-0.2146867956215615
 20
4.948420581741733
 30
0.0
 10
-0.1876940622852318
 20
4.346953096152939
 30
0.0
 10
-0.2254245077668069
 20
3.946461514004494
 30
0.0
 10
-0.171892390418707
 20
3.507643765457091
 30
0.0
 10
-0.1849415348415284
 20
2.891570120497522
 30
0.0
 10
-0.1815331356787592
 20
2.623897023469996
 30
0.0
 10
-0.1821027147999253
 20
2.403284917139263
 30
0.0
 10
-0.2700026925696439
 20
1.946506708828081
 30
0.0
 10
-0.3494736583556081
 20
1.801257321213291
 30
0.0
 10
-0.3833755166886328
 20
1.758672614794714
 30
0.0
 10
-0.6398109036870145
 20
1.631119905792807
 30
0.0
 10
-0.7245666794420528
 20
1.613414994015555
 30
0.0
 10
-0.7508336206964166
 20
1.608364138547359
 30
0.0
 10
-0.799472085065835
 20
1.60522379129363
 30
0.0
 10
-0.925017422644023
 20
1.604963163211612
 30
0.0
 10
-1.340684007500244
 20
1.62751883495365
 30
0.0
 10
-1.930016216549565
 20
1.645127113829516
 30
0.0
 10
-2.642301603136878
 20
1.646261309608645
 30
0.0
 10
-3.115331301784937
 20
1.645513108498901
 30
0.0
 10
-3.872243074432181
 20
1.620876254556914
 30
0.0
 10
-4.874074198919516
 20
1.614752074290631
 30
0.0
 10
-6.57724579987585
 20
1.590930597861532
 30
0.0
 10
-8.517917327285536
 20
1.579589924390993
 30
0.0
 10
-10.12835022108248
 20
1.575214505368816
 30
0.0
 10
-11.64362630549846
 20
1.573041116170198
 30
0.0
 10
-13.60465703710204
 20
1.574066503252927
 30
0.0
 10
-15.36448104147813
 20
1.587539114619175
 30
0.0
 10
-16.81906555600984
 20
1.571539721959141
 30
0.0
 10
-18.60405325376437
 20
1.577077415521249
 30
0.0
 10
-20.22911465095386
 20
1.580647441134553
 30
0.0
 10
-21.73722350308796
 20
1.578114927510152
 30
0.0
 10
-23.1623924532602
 20
1.57486693278169
 30
0.0
 10
-24.28118466698218
 20
1.585911218045528
 30
0.0
 10
-25.81481505639747
 20
1.587718788405583
 30
0.0
 10
-26.08995256889688
 20
1.584895406813045
 30
0.0
 10
-26.53827266288326
 20
1.575115542603405
 30
0.0
 10
-26.86223456032275
 20
1.573697834307129
 30
0.0
 10
-27.40749396201947
 20
1.581330247815546
 30
0.0
 10
-28.07145726908155
 20
1.594585820537292
 30
0.0
 10
-28.74699711964093
 20
1.596222391189001
 30
0.0
 10
-29.64729145859192
 20
1.588885460834745
 30
0.0
 10
-32.27789903621338
 20
1.605737078869962
 30
0.0
 10
-32.97055094773181
 20
1.598329413710933
 30
0.0
 10
-33.83282376905545
 20
1.608838851474966
 30
0.0
 10
-34.26339368133283
 20
1.602805011170882
 30
0.0
 10
-34.87508995868061
 20
1.603830650075226
 30
0.0
 10
-35.28399362042509
 20
1.60279192830312
 30
0.0
 10
-35.41699479091109
 20
1.600984452976454
 30
0.0
 10
-35.4395629084648
 20
1.600847096316615
 30
0.0
 10
-35.62061215072532
 20
1.6006469813874
 30
0.0
 10
-35.87049373334848
 20
1.597765324218344
 30
0.0
 10
-36.08517918180456
 20
1.592338298867676
 30
0.0
 10
-36.6142841849095
 20
1.588924976566735
 30
0.0
 10
-37.36041359643011
 20
1.584322852875645
 30
0.0
 10
-38.40919518275261
 20
1.594521326719565
 30
0.0
 10
-39.56867354475903
 20
1.591369397735089
 30
0.0
 10
-40.77604886318246
 20
1.606034655350306
 30
0.0
 10
-42.01609190110947
 20
1.597081083121747
 30
0.0
 10
-42.95189445521421
 20
1.598047707800678
 30
0.0
 10
-43.94546930175618
 20
1.602086592063239
 30
0.0
 10
-44.96657768817633
 20
1.595277993919221
 30
0.0
 10
-45.77382311109029
 20
1.606531656559596
 30
0.0
 10
-46.8125251603821
 20
1.611460513862025
 30
0.0
 10
-48.1050499326081
 20
1.597342461898827
 30
0.0
 10
-50.26496844869362
 20
1.602422898155442
 30
0.0
 10
-51.62321305367452
 20
1.613375487864489
 30
0.0
 10
-52.33459364592586
 20
1.615733071029494
 30
0.0
 10
-53.20388107719261
 20
1.616005277173234
 30
0.0
 10
-54.34882891135135
 20
1.611825475938026
 30
0.0
 10
-55.59220494770356
 20
1.616003555652428
 30
0.0
 10
-57.18550254468983
 20
1.622390220770598
 30
0.0
 10
-58.3552067804095
 20
1.625603599789565
 30
0.0
 10
-59.46282649187321
 20
1.631111479040825
 30
0.0
 10
-60.50358662129152
 20
1.63160053964543
 30
0.0
 10
-61.67266585811089
 20
1.634891767736352
 30
0.0
 10
-62.4117096638916
 20
1.631967068656516
 30
0.0
 10
-63.22474495551275
 20
1.628523111208478
 30
0.0
 10
-64.02974287733991
 20
1.629611651174593
 30
0.0
 10
-66.00436635535573
 20
1.628938746111435
 30
0.0
 10
-68.00020760855446
 20
1.639928240571852
 30
0.0
 10
-69.42280565917301
 20
1.643923630813424
 30
0.0
 10
-71.20437688814027
 20
1.64849470488625
 30
0.0
 10
-71.39718736053563
 20
1.646461825045339
 30
0.0
 10
-71.92595505513508
 20
1.643552540122413
 30
0.0
 10
-71.98106162730853
 20
1.643300000028873
 30
0.0
 10
-71.98530568394601
 20
1.643300989930462
 30
0.0
 10
-71.98756935546886
 20
1.643304377699481
 30
0.0
 10
-71.99933018977356
 20
1.643408726082061
 30
0.0
 10
-72.35087878343688
 20
1.647175633714375
 30
0.0
 10
-72.56638342487543
 20
1.64701446493249
 30
0.0
 10
-72.75469251814687
 20
1.644356659657118
 30
0.0
 10
-72.76309654349261
 20
1.644350202451239
 30
0.0
 10
-72.77024556898306
 20
1.644243314501384
 30
0.0
 10
-72.8305992511727
 20
1.644156326593142
 30
0.0
 10
-73.34156073880955
 20
1.644701540959602
 30
0.0
 10
-73.58478764538171
 20
1.64697744790435
 30
0.0
 10
-74.00393210345023
 20
1.645559553158668
 30
0.0
 10
-74.07936426676406
 20
1.645259163061756
 30
0.0
 10
-74.46321501687429
 20
1.641944836224148
 30
0.0
 10
-74.85074015211742
 20
1.635764425445954
 30
0.0
 10
-75.27065490942906
 20
1.63885127655038
 30
0.0
 10
-75.40935885900208
 20
1.640370411421564
 30
0.0
 10
-75.42087372319013
 20
1.640614644107891
 30
0.0
 10
-75.5394424651103
 20
1.643682050871328
 30
0.0
 10
-76.20550862038797
 20
1.652809773822488
 30
0.0
 10
-76.76282987817842
 20
1.649331706909458
 30
0.0
 10
-77.9344902839308
 20
1.65515274495913
 30
0.0
 10
-78.90749387512702
 20
1.650565634111308
 30
0.0
 10
-79.45534184779233
 20
1.650169062909098
 30
0.0
 10
-80.1118070560786
 20
1.655223126407473
 30
0.0
 10
-81.13943113852982
 20
1.671971045333815
 30
0.0
 10
-82.34219418366715
 20
1.669190014934598
 30
0.0
 10
-83.35111037893391
 20
1.672394433120744
 30
0.0
 10
-84.23934013268538
 20
1.676205658294669
 30
0.0
 10
-84.9282860525743
 20
1.682366160026422
 30
0.0
 10
-86.32797485483958
 20
1.674302393118345
 30
0.0
 10
-87.40962006573122
 20
1.687468299260434
 30
0.0
 10
-88.78954407547465
 20
1.690052379989393
 30
0.0
 10
-89.63242524063392
 20
1.681861466544595
 30
0.0
 10
-91.04540490557366
 20
1.697590446828952
 30
0.0
 10
-92.68794132858783
 20
1.695276292675579
 30
0.0
 10
-94.21227590585487
 20
1.710851188612339
 30
0.0
 10
-96.01898415584797
 20
1.7002572704565
 30
0.0
 10
-97.51073354210871
 20
1.715081733470431
 30
0.0
 10
-99.20479255016365
 20
1.715945519450122
 30
0.0
 10
-100.5205142315646
 20
1.723280339152356
 30
0.0
 10
-102.3139150213188
 20
1.712581703060892
 30
0.0
 10
-103.8439155729093
 20
1.730905304646988
 30
0.0
 10
-104.7358316151931
 20
1.736536835012661
 30
0.0
 10
-105.5948793045851
 20
1.726284192920711
 30
0.0
 10
-106.5073055702661
 20
1.728408095551393
 30
0.0
 10
-107.1111692962582
 20
1.726871553760003
 30
0.0
 10
-108.7037181794806
 20
1.728604645208816
 30
0.0
 10
-110.6021569370114
 20
1.752533318766041
 30
0.0
 10
-111.2732260659376
 20
1.765844893341354
 30
0.0
 10
-111.9199518761203
 20
1.758387125849825
 30
0.0
 10
-112.5311189660728
 20
1.751687076938584
 30
0.0
 10
-113.0960557761113
 20
1.751096284401575
 30
0.0
 10
-115.18640382398
 20
1.749667158890006
 30
0.0
 10
-117.1947574036485
 20
1.748628028351018
 30
0.0
 10
-119.2790199956578
 20
1.766927120400306
 30
0.0
 10
-120.7521441456631
 20
1.765280513626397
 30
0.0
 10
-122.3870108017957
 20
1.771670727773805
 30
0.0
 10
-123.1745915584379
 20
1.775110084134643
 30
0.0
 10
-124.5332356473726
 20
1.788545603021109
 30
0.0
 10
-125.4815102463259
 20
1.79515195696537
 30
0.0
 10
-126.3634855148578
 20
1.772336178605698
 30
0.0
 10
-127.7806548218024
 20
1.781384995434157
 30
0.0
 10
-129.7288634182417
 20
1.801544897721176
 30
0.0
 10
-131.1456143297882
 20
1.810565974189932
 30
0.0
 10
-131.6671639421691
 20
1.80398005505733
 30
0.0
 10
-132.0014836313082
 20
1.798359603496532
 30
0.0
 10
-132.0745451081454
 20
1.799314770245736
 30
0.0
 10
-132.6975528978337
 20
1.809001854875218
 30
0.0
 10
-132.9190437490555
 20
1.81473884813409
 30
0.0
 10
-133.3550336674715
 20
1.811761918518306
 30
0.0
 10
-133.7022543284986
 20
1.808136407704021
 30
0.0
 10
-134.2556772359897
 20
1.804620995667347
 30
0.0
 10
-134.6676300638367
 20
1.804334935246833
 30
0.0
 10
-134.9397417159942
 20
1.80559368859955
 30
0.0
 10
-137.3111536276487
 20
1.814457793259093
 30
0.0
 10
-139.5731917249781
 20
1.821792003218701
 30
0.0
 10
-141.6029732378605
 20
1.826791152870975
 30
0.0
 10
-143.3045552396961
 20
1.840599273142841
 30
0.0
 10
-145.0746757823063
 20
1.851490086569724
 30
0.0
 10
-146.7991098878114
 20
1.862359616374795
 30
0.0
 10
-148.5609943344992
 20
1.867249693019607
 30
0.0
 10
-150.7562789864002
 20
1.859753733200163
 30
0.0
 10
-151.9952473331877
 20
1.858041262111632
 30
0.0
 10
-154.6177819722581
 20
1.903743984413905
 30
0.0
 10
-156.6661123036788
 20
1.893239319646467
 30
0.0
 10
-160.4780062312095
 20
1.915330852310718
 30
0.0
 10
-163.7775026021403
 20
1.922928944710354
 30
0.0
 10
-166.2658503461374
 20
1.958482994632806
 30
0.0
 10
-169.3641225331065
 20
1.964890464656869
 30
0.0
 10
-170.9037039876566
 20
1.966099087478779
 30
0.0
 10
-171.7358673871215
 20
1.976284622486191
 30
0.0
 10
-172.1110983657555
 20
1.959583016358977
 30
0.0
 10
-172.3605997862984
 20
1.95883455647143
 30
0.0
 10
-172.7379274741777
 20
2.055362392498635
 30
0.0
 10
-172.9244359310999
 20
2.192991738356213
 30
0.0
 10
-173.0468480301298
 20
2.380652791468531
 30
0.0
 10
-173.0714801742403
 20
2.421365633250957
 30
0.0
 10
-173.0743551288821
 20
2.433051840639176
 30
0.0
 10
-173.0792409118161
 20
2.466077791322543
 30
0.0
 10
-173.099777544818
 20
3.290339355187147
 30
0.0
 10
-173.0806023874389
 20
3.579308248911998
 30
0.0
 10
-173.0844796437649
 20
4.244000252595402
 30
0.0
 10
-173.0705717710413
 20
5.495620281690334
 30
0.0
 10
-173.0658848516511
 20
6.412355990855559
 30
0.0
 10
-173.0643222426426
 20
6.916482432493457
 30
0.0
 10
-173.0505262058553
 20
7.176132511061764
 30
0.0
 10
-173.0602957212237
 20
7.568862970484317
 30
0.0
 10
-173.0661093949699
 20
7.758753364918672
 30
0.0
 10
-173.0697944590629
 20
8.096348848928395
 30
0.0
 10
-173.0264292967675
 20
8.750355579535697
 30
0.0
 10
-173.0196441884587
 20
9.204161141038714
 30
0.0
 10
-173.0204720154404
 20
9.422978342149996
 30
0.0
 10
-172.9545662655415
 20
10.49045880848234
 30
0.0
 10
-172.9535478595186
 20
11.09722885816734
 30
0.0
 10
-172.9761102923326
 20
11.31283752301086
 30
0.0
 10
-172.9503262310231
 20
11.87635207475638
 30
0.0
 10
-172.9860651760401
 20
12.13322575983816
 30
0.0
 10
-172.973333227273
 20
12.26735334770965
 30
0.0
 10
-172.9581031285238
 20
12.42753739172052
 30
0.0
 10
-172.955409328845
 20
12.61451614562123
 30
0.0
 10
-172.9708008946283
 20
13.08076247581067
 30
0.0
 10
-172.9778694571479
 20
13.34930129717523
 30
0.0
 10
-172.9892705661614
 20
13.51354424526344
 30
0.0
 10
-173.0015817846653
 20
13.80119399722682
 30
0.0
 10
-173.0052262593199
 20
14.22950416911055
 30
0.0
 10
-172.9307301431487
 20
14.98703204018924
 30
0.0
 10
-172.8223719348722
 20
15.50979252969422
 30
0.0
 10
-172.9797661841882
 20
16.14262659027573
 30
0.0
 10
-172.9634634707198
 20
16.55496877555404
 30
0.0
 10
-172.9226805384433
 20
17.2230809590589
 30
0.0
 10
-172.9018939040851
 20
17.65175854390859
 30
0.0
 10
-172.9312724018377
 20
17.81184184049476
 30
0.0
 10
-172.9582738804697
 20
17.98389222524423
 30
0.0
 10
-172.9541204896918
 20
18.18643651443399
 30
0.0
 10
-172.974010051863
 20
18.61258165915893
 30
0.0
 10
-172.9491566036762
 20
18.75661594728853
 30
0.0
 10
-172.9560178722469
 20
18.95932332590529
 30
0.0
 10
-172.9750107294259
 20
19.48539723640701
 30
0.0
 10
-172.9772001978791
 20
19.51719998307758
 30
0.0
 10
-172.9740919251812
 20
19.58503749980504
 30
0.0
 10
-172.9655865973432
 20
19.68647675473976
 30
0.0
 10
-172.9577932396743
 20
19.78012164203864
 30
0.0
 10
-172.9479474551334
 20
20.03211844544343
 30
0.0
 10
-172.9594129893017
 20
20.60451717156608
 30
0.0
 10
-172.978033672806
 20
21.05117356788821
 30
0.0
 10
-172.9959469443527
 20
21.63176815255414
 30
0.0
 10
-172.9384862452397
 20
22.78826730999959
 30
0.0
 10
-172.9499698666803
 20
23.90202262310684
 30
0.0
 10
-172.8781475290415
 20
24.86864408398305
 30
0.0
 10
-172.9259678894397
 20
26.02974027241318
 30
0.0
 10
-172.8784868233698
 20
27.18239175299962
 30
0.0
 10
-172.8342788031772
 20
27.29362827263964
 30
0.0
 10
-172.7961803603749
 20
27.5759393457256
 30
0.0
 10
-172.7648273158153
 20
28.13458526579546
 30
0.0
 10
-172.7608059524501
 20
28.49424416798941
 30
0.0
 10
-172.8022845715199
 20
28.74311216043851
 30
0.0
 10
-172.8311572658764
 20
29.7951030354158
 30
0.0
 10
-172.7261364158416
 20
30.34561162644415
 30
0.0
 10
-172.7411513021243
 20
30.79472817941893
 30
0.0
 10
-172.7778160866579
 20
31.79629339504988
 30
0.0
 10
-172.7793277134104
 20
32.66129039594374
 30
0.0
 10
-172.7212558594721
 20
33.28510049147053
 30
0.0
 10
-172.7569611602276
 20
34.21434034818616
 30
0.0
 10
-172.7455323809191
 20
34.45487889170783
 30
0.0
 10
-172.813909848556
 20
34.57622749799753
 30
0.0
 10
-172.8526322358731
 20
34.63675396937091
 30
0.0
 10
-172.8555515955362
 20
34.70819941618718
 30
0.0
 10
-172.8444907801506
 20
34.83293078001758
 30
0.0
 10
-172.8678194666637
 20
35.1507770657827
 30
0.0
 10
-172.8577966374129
 20
35.64175915984851
 30
0.0
 10
-172.8504924518188
 20
36.10643880162606
 30
0.0
 10
-172.8362697821115
 20
36.76327908819977
 30
0.0
 10
-172.8386645100605
 20
37.09936068185361
 30
0.0
 10
-172.8305410113277
 20
37.43790913235329
 30
0.0
 10
-172.8372550853353
 20
37.94061166900935
 30
0.0
 10
-172.8285904820793
 20
38.45312888345434
 30
0.0
 10
-172.8253152806292
 20
38.58166080548765
 30
0.0
 10
-172.7998085077381
 20
38.95822157441152
 30
0.0
 10
-172.7569732727734
 20
39.61927570064127
 30
0.0
 10
-172.7057564360746
 20
40.31783190390152
 30
0.0
 10
-172.678655257271
 20
41.2587740565463
 30
0.0
 10
-172.6673648948407
 20
41.92034254541717
 30
0.0
 10
-172.6907441007087
 20
42.55805291613798
 30
0.0
 10
-172.7513325440532
 20
43.37310078437496
 30
0.0
 10
-172.6705969694031
 20
43.85223545093631
 30
0.0
 10
-172.715631138389
 20
45.12742942747821
 30
0.0
 10
-172.7357099386887
 20
45.58741261741032
 30
0.0
 10
-172.8056091251052
 20
46.07036670983256
 30
0.0
 10
-172.7904395966178
 20
46.39630463876948
 30
0.0
 10
-172.7180084999855
 20
47.05801891352439
 30
0.0
 10
-172.7743280676204
 20
47.3000172114532
 30
0.0
 10
-172.8044756411903
 20
47.79597027604761
 30
0.0
 10
-172.8011234078633
 20
47.89379282332167
 30
0.0
 10
-172.7431841046817
 20
48.25949184117787
 30
0.0
 10
-172.7223167617674
 20
48.52926589813475
 30
0.0
 10
-172.7540847205233
 20
49.68952128485849
 30
0.0
 10
-172.8334348370454
 20
50.36371882844038
 30
0.0
 10
-172.8174333794346
 20
50.91752144830844
 30
0.0
 10
-172.7973590984678
 20
51.49267561200785
 30
0.0
 10
-172.7928944958284
 20
51.57281864285618
 30
0.0
 10
-172.7919640115072
 20
51.60728262126389
 30
0.0
 10
-172.7890450685961
 20
51.62858889589787
 30
0.0
 10
-172.7781872399727
 20
51.63727664382029
 30
0.0
 10
-172.7291365163499
 20
51.66028773325598
 30
0.0
 10
-171.9173421474842
 20
51.75412530529538
 30
0.0
 10
-170.2613945662595
 20
51.7907633501078
 30
0.0
 10
-168.5221308310038
 20
51.79728647716038
 30
0.0
 10
-167.401721114148
 20
51.77889876261639
 30
0.0
 10
-165.8177139862357
 20
51.7718082330339
 30
0.0
 10
-164.3934181790021
 20
51.78687003801379
 30
0.0
 10
-162.8436504195201
 20
51.76614758297782
 30
0.0
 10
-161.1139076063292
 20
51.77272715587522
 30
0.0
 10
-159.3553865219185
 20
51.75701709791018
 30
0.0
 10
-158.5859453629886
 20
51.7531269946389
 30
0.0
 10
-157.8624520725393
 20
51.74416716578394
 30
0.0
 10
-157.4161943559149
 20
51.73748450124582
 30
0.0
 10
-156.6115349193337
 20
51.76515143121713
 30
0.0
 10
-156.4310043589567
 20
51.75351606315672
 30
0.0
 10
-156.2275200730436
 20
51.73372655174823
 30
0.0
 10
-156.1238378870314
 20
51.69704338022491
 30
0.0
 10
-155.9534565692772
 20
51.54792624609399
 30
0.0
 10
-155.9496678600035
 20
51.54421186832931
 30
0.0
 10
-155.9486340120392
 20
51.54203853225585
 30
0.0
 10
-155.9473312895774
 20
51.53662210337335
 30
0.0
 10
-155.8878109773658
 20
51.1985627481755
 30
0.0
 10
-155.8832848629935
 20
50.89222572833349
 30
0.0
 10
-155.8936402512103
 20
50.2373087126632
 30
0.0
 10
-155.891904765314
 20
49.89028810760895
 30
0.0
 10
-155.8944143787618
 20
49.79202482849828
 30
0.0
 10
-155.9052980691826
 20
49.1124346814347
 30
0.0
 10
-155.9070705639125
 20
48.85347375711179
 30
0.0
 10
-155.9092578396399
 20
48.7420038166322
 30
0.0
 10
-155.9109939455357
 20
48.340819723279
 30
0.0
 10
-155.9280730037161
 20
47.98461341107771
 30
0.0
 10
-155.9421841682019
 20
47.7324534076111
 30
0.0
 10
-155.9361095737856
 20
47.21022237957451
 30
0.0
 10
-155.9216313132879
 20
46.82692607305921
 30
0.0
 10
-155.9232020014794
 20
46.29992687930621
 30
0.0
 10
-155.9112468489651
 20
45.78195007044337
 30
0.0
 10
-155.9110288211974
 20
45.76845049049842
 30
0.0
 10
-155.911058294033
 20
45.76608567271246
 30
0.0
 10
-155.9110565922779
 20
45.76322818419811
 30
0.0
 10
-155.9128224977957
 20
45.71667564300599
 30
0.0
 10
-155.9178604142315
 20
45.5907136871534
 30
0.0
 10
-155.9263278787946
 20
45.33975787350487
 30
0.0
 10
-155.9247362334213
 20
45.17513739571192
 30
0.0
 10
-155.9312777157824
 20
44.83790055370523
 30
0.0
 10
-155.933723139108
 20
44.56999248995998
 30
0.0
 10
-155.9425185708358
 20
44.03634132190233
 30
0.0
 10
-155.9348167629209
 20
43.14295152061984
 30
0.0
 10
-155.9193528353696
 20
42.52948551963615
 30
0.0
 10
-155.9273137837889
 20
42.24685161241995
 30
0.0
 10
-155.9536874702759
 20
41.57043265811581
 30
0.0
 10
-155.956821844368
 20
38.93189170567564
 30
0.0
 10
-155.949416108334
 20
36.44607893136535
 30
0.0
 10
-155.9394924025572
 20
34.87252855133796
 30
0.0
 10
-155.9586523102964
 20
33.16736459821593
 30
0.0
 10
-155.978660515041
 20
31.47773466786687
 30
0.0
 10
-155.9785873393317
 20
29.57058203102247
 30
0.0
 10
-155.995293163672
 20
28.46321594952228
 30
0.0
 10
-155.9938648756323
 20
26.67098797386076
 30
0.0
 10
-155.9938212386762
 20
25.66814029270585
 30
0.0
 10
-156.0101571351509
 20
24.37613027740624
 30
0.0
 10
-156.0103313714984
 20
22.99190291509285
 30
0.0
 10
-156.0450352433496
 20
21.30995142279886
 30
0.0
 10
-156.0386695802102
 20
20.01349510189103
 30
0.0
 10
-156.0374258477781
 20
18.25542739951072
 30
0.0
 10
-156.0411414812052
 20
16.70954560696029
 30
0.0
 10
-155.9581384365496
 20
16.50820724776161
 30
0.0
 10
-155.8936703854538
 20
16.43150145486937
 30
0.0
 10
-155.8292160721448
 20
16.4132667883323
 30
0.0
 10
-155.2511144065436
 20
16.34302179377325
 30
0.0
 10
-155.0699903607102
 20
16.3553216257536
 30
0.0
 10
-154.6351250280414
 20
16.37426546930183
 30
0.0
 10
-153.9629973775213
 20
16.37125864833891
 30
0.0
 10
-153.3965572843971
 20
16.35767328221171
 30
0.0
 10
-152.949688664215
 20
16.36900963511595
 30
0.0
 10
-152.5753017161352
 20
16.36562860486392
 30
0.0
 10
-152.2959340482955
 20
16.28685674792116
 30
0.0
 10
-152.1917069783368
 20
16.14004039942895
 30
0.0
 10
-152.1478516571541
 20
15.933338671551
 30
0.0
 10
-152.1383414935056
 20
15.54906901478843
 30
0.0
 10
-152.1540403374135
 20
14.97219293032688
 30
0.0
 10
-152.0962330316471
 20
14.40599999939682
 30
0.0
 10
-151.9768299890326
 20
14.27894816184143
 30
0.0
 10
-151.8563258287383
 20
14.22998995283404
 30
0.0
 10
-151.5601700868714
 20
14.20918804700947
 30
0.0
 10
-149.5718603625242
 20
14.21574581882034
 30
0.0
 10
-147.5327044469922
 20
14.20138336002573
 30
0.0
 10
-146.8034644153531
 20
14.20138264276163
 30
0.0
 10
-145.9609744368503
 20
14.20331046814611
 30
0.0
 10
-144.9516493211518
 20
14.19591000882728
 30
0.0
 10
-144.3766905946143
 20
14.1802489288446
 30
0.0
 10
-142.8281032151631
 20
14.18301639289572
 30
0.0
 10
-141.5626264630687
 20
14.17410137349856
 30
0.0
 10
-140.4117733037524
 20
14.17307639026895
 30
0.0
 10
-138.978482491136
 20
14.17177512537754
 30
0.0
 10
-138.0020152419486
 20
14.15856263650608
 30
0.0
 10
-136.4953899892566
 20
14.15388279440165
 30
0.0
 10
-134.307178356823
 20
14.14844670757706
 30
0.0
 10
-132.6889736989976
 20
14.14678298365707
 30
0.0
 10
-131.2721942632818
 20
14.13234584585507
 30
0.0
 10
-129.2855453668425
 20
14.12783745007744
 30
0.0
 10
-128.1571237814542
 20
14.11196338897842
 30
0.0
 10
-127.3457242357815
 20
14.11488000859127
 30
0.0
 10
-126.3074973471907
 20
14.10762475288345
 30
0.0
 10
-125.6484975699635
 20
14.10956369131521
 30
0.0
 10
-124.7465153555654
 20
14.10826588736883
 30
0.0
 10
-124.0197450230724
 20
14.10800880775807
 30
0.0
 10
-123.429564438438
 20
14.10990974556052
 30
0.0
 10
-122.8577558448763
 20
14.10135669879285
 30
0.0
 10
-122.4872815732925
 20
14.09256830417175
 30
0.0
 10
-121.9633504737716
 20
14.100748147126
 30
0.0
 10
-121.2349809793412
 20
14.0959494260057
 30
0.0
 10
-121.1406694322978
 20
14.09510737134512
 30
0.0
 10
-121.1310746320459
 20
14.09494690740581
 30
0.0
 10
-121.0379379787758
 20
14.09077446218697
 30
0.0
 10
-120.8904277548459
 20
14.08771405950392
 30
0.0
 10
-120.5825863780033
 20
14.08746677717408
 30
0.0
 10
-120.0588333377205
 20
14.08569253710088
 30
0.0
 10
-119.7647034893008
 20
14.0731901983237
 30
0.0
 10
-119.5785381333664
 20
14.07471185035633
 30
0.0
 10
-119.5014744569127
 20
14.07644452226684
 30
0.0
 10
-119.308765551262
 20
14.06489952257833
 30
0.0
 10
-118.9259512070041
 20
14.0730228484509
 30
0.0
 10
-118.4986652273698
 20
14.07139366287657
 30
0.0
 10
-117.7390686681389
 20
14.06498910445507
 30
0.0
 10
-116.5047583123937
 20
14.0542141708649
 30
0.0
 10
-115.9151381268734
 20
14.05225923155557
 30
0.0
 10
-114.7169924619568
 20
14.04374352421286
 30
0.0
 10
-114.0199221251453
 20
14.05414058777671
 30
0.0
 10
-113.3476695069658
 20
14.06946792037408
 30
0.0
 10
-113.1005165506501
 20
14.0673988564126
 30
0.0
 10
-112.7044216702329
 20
14.06112020297254
 30
0.0
 10
-112.2642944462115
 20
14.10287373451215
 30
0.0
 10
-112.0061748627606
 20
14.19910730994554
 30
0.0
 10
-111.8980035186879
 20
14.46214217412405
 30
0.0
 10
-111.792750600848
 20
14.83887404850474
 30
0.0
 10
-111.8170928340161
 20
15.4769192414829
 30
0.0
 10
-111.7489756978188
 20
15.97862202929941
 30
0.0
 10
-111.5171383444411
 20
16.17484679614971
 30
0.0
 10
-111.2471489759037
 20
16.2106481543186
 30
0.0
 10
-109.5792264754001
 20
16.19746963757093
 30
0.0
 10
-107.9487064528768
 20
16.17640529976062
 30
0.0
 10
-107.6762676063611
 20
16.16435561964655
 30
0.0
 10
-107.3424420912667
 20
16.17985292991127
 30
0.0
 10
-106.9230489886701
 20
16.18085749509907
 30
0.0
 10
-106.7108319208344
 20
16.18014565882935
 30
0.0
 10
-106.7016576192636
 20
16.18003216067497
 30
0.0
 10
-106.5256954673926
 20
16.17756951647172
 30
0.0
 10
-106.0409142194184
 20
16.16723656001894
 30
0.0
 10
-105.5929728789985
 20
16.17118426929281
 30
0.0
 10
-105.2832502973849
 20
16.16749459242141
 30
0.0
 10
-104.6189822795271
 20
16.16423515901397
 30
0.0
 10
-104.2939145346679
 20
16.15644001105286
 30
0.0
 10
-103.9310645024232
 20
16.16045981092588
 30
0.0
 10
-103.1951322284887
 20
16.15076333299488
 30
0.0
 10
-102.5107341858582
 20
16.15178705067576
 30
0.0
 10
-101.5474878083012
 20
16.14585286689516
 30
0.0
 10
-100.9061554225222
 20
16.14135803844525
 30
0.0
 10
-100.31402443107
 20
16.15525733150491
 30
0.0
 10
-99.60334214588083
 20
16.15225799841763
 30
0.0
 10
-99.45721796795526
 20
16.15150814980455
 30
0.0
 10
-98.82765315768677
 20
16.14703347352517
 30
0.0
 10
-97.81673372535582
 20
16.14104094272408
 30
0.0
 10
-96.76509853172195
 20
16.145348839609
 30
0.0
 10
-95.4788415130993
 20
16.13874798740703
 30
0.0
 10
-93.94558589686935
 20
16.13081407611539
 30
0.0
 10
-92.79098665871634
 20
16.13233932651778
 30
0.0
 10
-91.38347983007262
 20
16.12793900932522
 30
0.0
 10
-89.7816929193048
 20
16.1208688678996
 30
0.0
 10
-88.96053103440464
 20
16.11383935513555
 30
0.0
 10
-87.92867918540244
 20
16.10793863484622
 30
0.0
 10
-87.12614099153238
 20
16.11022645195834
 30
0.0
 10
-86.25208228751599
 20
16.10311042591149
 30
0.0
 10
-84.64626105734423
 20
16.10576497430393
 30
0.0
 10
-83.32873216673619
 20
16.10480111972034
 30
0.0
 10
-82.71423461177513
 20
16.10047402927622
 30
0.0
 10
-82.25986857020632
 20
16.09506298727131
 30
0.0
 10
-82.0779467163349
 20
16.09625952222228
 30
0.0
 10
-81.75788220674174
 20
16.09691142206372
 30
0.0
 10
-81.24707866905082
 20
16.09567021826701
 30
0.0
 10
-81.03880968217976
 20
16.09592897104875
 30
0.0
 10
-80.70550562680923
 20
16.08895703284341
 30
0.0
 10
-80.07583376156569
 20
16.09111158138194
 30
0.0
 10
-79.51710683247407
 20
16.09184680169957
 30
0.0
 10
-79.13312428908506
 20
16.07961232191409
 30
0.0
 10
-78.33669114824303
 20
16.0859081455179
 30
0.0
 10
-77.29961268601119
 20
16.08835374889289
 30
0.0
 10
-75.40058017586165
 20
16.09025345724071
 30
0.0
 10
-73.72090231018346
 20
16.07747708325322
 30
0.0
 10
-72.71347957111759
 20
16.0703860565351
 30
0.0
 10
-72.13737686647218
 20
16.06534597302696
 30
0.0
 10
-71.91108250843041
 20
16.062401111821
 30
0.0
 10
-71.39054958920798
 20
16.06049640771807
 30
0.0
 10
-70.96821178994597
 20
16.06681709718582
 30
0.0
 10
-70.39896416021426
 20
16.06895735168463
 30
0.0
 10
-69.77087905186352
 20
16.06579833477479
 30
0.0
 10
-69.51560764286171
 20
16.06326496745557
 30
0.0
 10
-69.29148559071285
 20
16.06538504891408
 30
0.0
 10
-68.88031033688624
 20
16.06269984736473
 30
0.0
 10
-68.19644869603805
 20
16.06900365146566
 30
0.0
 10
-67.4528182043991
 20
16.06174097514515
 30
0.0
 10
-66.41602592678635
 20
16.06065923999379
 30
0.0
 10
-65.68473181555349
 20
16.05648925627203
 30
0.0
 10
-64.43684816491755
 20
16.05747579185414
 30
0.0
 10
-64.13977668050259
 20
16.05808917203814
 30
0.0
 10
-63.09789506752129
 20
16.05609499776909
 30
0.0
 10
-62.04001657917049
 20
16.04687162732568
 30
0.0
 10
-60.7891560811575
 20
16.05246378824686
 30
0.0
 10
-59.91189775101723
 20
16.05197319444687
 30
0.0
 10
-58.3341053546238
 20
16.0380223152435
 30
0.0
 10
-56.94195366473414
 20
16.03270261781459
 30
0.0
 10
-56.05588910764062
 20
16.03078499373542
 30
0.0
 10
-55.51551549592228
 20
16.02337501513266
 30
0.0
 10
-54.64357248623678
 20
16.02835607707329
 30
0.0
 10
-53.9531375574876
 20
16.02245395506938
 30
0.0
 10
-53.09413118807345
 20
16.02434324941358
 30
0.0
 10
-52.49412854956994
 20
16.01608013196266
 30
0.0
 10
-51.9420203621386
 20
16.0176366080288
 30
0.0
 10
-51.07967234010192
 20
16.01400076443171
 30
0.0
 10
-50.30879162664354
 20
16.01467111622673
 30
0.0
 10
-50.16249384854751
 20
16.01335887023174
 30
0.0
 10
-49.53636263276218
 20
16.010967224335
 30
0.0
 10
-49.12285668913117
 20
16.01349595880925
 30
0.0
 10
-48.91955117546118
 20
16.01413859882654
 30
0.0
 10
-47.84093188484301
 20
16.01580830180572
 30
0.0
 10
-46.18848925609162
 20
16.00694828922103
 30
0.0
 10
-45.5692676655152
 20
16.00074584803974
 30
0.0
 10
-45.291362797721
 20
16.00316465105311
 30
0.0
 10
-45.20426146602637
 20
16.00483123476553
 30
0.0
 10
-44.74124840888886
 20
16.00646078768279
 30
0.0
 10
-44.17827311988458
 20
15.998810563215
 30
0.0
 10
-43.74702364716551
 20
15.99771878701306
 30
0.0
 10
-43.22979768177129
 20
15.99741357195545
 30
0.0
 10
-42.78702798289279
 20
15.99939355731508
 30
0.0
 10
-41.61092040222261
 20
15.99823674147105
 30
0.0
 10
-40.82588139814683
 20
15.99737643471592
 30
0.0
 10
-40.16638614411131
 20
16.00449468943319
 30
0.0
 10
-39.69353608072064
 20
16.00210964274796
 30
0.0
 10
-38.63415490107185
 20
16.00187826229436
 30
0.0
 10
-38.34357496481047
 20
15.98990347267114
 30
0.0
 10
-37.9218623949228
 20
15.99946697616958
 30
0.0
 10
-37.32142446695916
 20
15.99638343685818
 30
0.0
 10
-36.83630198621064
 20
15.99417279157479
 30
0.0
 10
-36.49173780052843
 20
15.99347034499644
 30
0.0
 10
-35.68228029256016
 20
15.99915175824943
 30
0.0
 10
-34.44147075714235
 20
15.99598965055779
 30
0.0
 10
-33.58547875191977
 20
15.9952989982711
 30
0.0
 10
-33.00589257864542
 20
15.99156272278927
 30
0.0
 10
-32.68954171825771
 20
15.98458521804959
 30
0.0
 10
-32.34960516495516
 20
15.95991717747933
 30
0.0
 10
-31.96139282141974
 20
15.73426550495341
 30
0.0
 10
-31.80914254725002
 20
15.62835888204226
 30
0.0
 10
-31.77926868844865
 20
15.6074815641607
 30
0.0
 10
-31.77336531498069
 20
15.60332090117377
 30
0.0
 10
-31.77183131538001
 20
15.60220624541487
 30
0.0
 10
-31.77234208980997
 20
15.60257858304866
 30
0.0
 10
-31.77183131538001
 20
15.60220624541487
 30
0.0
  0
SPLINE
  5
68
330
1F
100
AcDbEntity
  8
0
  6
Continuous
 62
     7
100
AcDbSpline
210
0.0
220
0.0
230
1.0
 70
     8
 71
     3
 72
    13
 73
     9
 74
     0
 42
0.00000001
 43
0.00000001
 40
0.0
 40
0.0
 40
0.0
 40
0.0
 40
0.4421626462461815
 40
0.628168055802768
 40
0.7555455337541434
 40
0.9392842184102469
 40
0.952718773622368
 40
1.0
 40
1.0
 40
1.0
 40
1.0
 10
-163.8656854629517
 20
30.41797428204232
 30
0.0
 10
-162.9362608849144
 20
29.65725700191988
 30
0.0
 10
-162.4316243766176
 20
29.63240750798629
 30
0.0
 10
-162.1180681355353
 20
29.77868131306369
 30
0.0
 10
-161.7003703146269
 20
30.05184828764213
 30
0.0
 10
-161.6741408799409
 20
30.07721975118787
 30
0.0
 10
-161.6269496525241
 20
30.19666575387681
 30
0.0
 10
-161.636868077768
 20
30.15300921221027
 30
0.0
 10
-161.6269496525241
 20
30.19666575387681
 30
0.0
  0
SPLINE
  5
69
330
1F
100
AcDbEntity
  8
0
  6
Continuous
 62
     7
100
AcDbSpline
210
0.0
220
0.0
230
1.0
 70
     8
 71
     3
 72
    10
 73
     6
 74
     0
 42
0.00000001
 43
0.00000001
 40
0.0
 40
0.0
 40
0.0
 40
0.0
 40
0.1302893645755662
 40
0.4475112111764371
 40
1.0
 40
1.0
 40
1.0
 40
1.0
 10
-162.6451015472412
 20
32.31420517409428
 30
0.0
 10
-162.7688322792971
 20
32.33491673452739
 30
0.0
 10
-163.065065853947
 20
32.26047143930222
 30
0.0
 10
-163.5573529376466
 20
32.05884551560182
 30
0.0
 10
-163.3955832292984
 20
32.12547525386753
 30
0.0
 10
-163.5573529376466
 20
32.05884551560182
 30
0.0
  0
SPLINE
  5
6A
330
1F
100
AcDbEntity
  8
0
  6
Continuous
 62
     7
100
AcDbSpline
210
0.0
220
0.0
230
1.0
 70
     8
 71
     3
 72
    15
 73
    11
 74
     0
 42
0.00000001
 43
0.00000001
 40
0.0
 40
0.0
 40
0.0
 40
0.0
 40
0.0920697235065699
 40
0.1399603049627492
 40
0.2548257731358468
 40
0.450085776822261
 40
0.6155775500201188
 40
0.8508168778911315
 40
0.8940655514690755
 40
1.0
 40
1.0
 40
1.0
 40
1.0
 10
-123.8207817077637
 20
8.314693876606276
 30
0.0
 10
-123.7984468245993
 20
8.004145476610159
 30
0.0
 10
-123.7249722407889
 20
7.859821113515853
 30
0.0
 10
-123.5864539145034
 20
7.496920109141733
 30
0.0
 10
-123.0495683182479
 20
7.112525089567488
 30
0.0
 10
-122.4989188112711
 20
7.012611710677911
 30
0.0
 10
-121.755518571465
 20
7.295778953782169
 30
0.0
 10
-121.6584011239161
 20
7.405132595160872
 30
0.0
 10
-121.4695922368672
 20
7.70957419127028
 30
0.0
 10
-121.5276245358385
 20
7.604657958224222
 30
0.0
 10
-121.4695922368672
 20
7.70957419127028
 30
0.0
  0
SPLINE
  5
6B
330
1F
100
AcDbEntity
  8
0
  6
Continuous
 62
     7
100
AcDbSpline
210
0.0
220
0.0
230
1.0
 70
     8
 71
     3
 72
    13
 73
     9
 74
     0
 42
0.00000001
 43
0.00000001
 40
0.0
 40
0.0
 40
0.0
 40
0.0
 40
0.257734129068791
 40
0.34798821421855
 40
0.3880633301648049
 40
0.4429404086003677
 40
0.6383912436238549
 40
1.0
 40
1.0
 40
1.0
 40
1.0
 10
-121.8156218528748
 20
9.528400883620037
 30
0.0
 10
-122.1915475169343
 20
9.70765641584515
 30
0.0
 10
-122.3251373385103
 20
9.766170708299256
 30
0.0
 10
-122.3880361975579
 20
9.78157623158722
 30
0.0
 10
-122.4762067083068
 20
9.772114831250782
 30
0.0
 10
-122.7487714532719
 20
9.612558308586962
 30
0.0
 10
-123.2956341256655
 20
9.406690254602536
 30
0.0
 10
-123.1046650708079
 20
9.456588204193654
 30
0.0
 10
-123.2956341256655
 20
9.406690254602536
 30
0.0
  0
SPLINE
  5
6C
330
1F
100
AcDbEntity
  8
0
  6
Continuous
 62
     7
100
AcDbSpline
210
0.0
220
0.0
230
1.0
 70
     8
 71
     3
 72
    19
 73
    15
 74
     0
 42
0.00000001
 43
0.00000001
 40
0.0
 40
0.0
 40
0.0
 40
0.0
 40
0.1045180665501707
 40
0.2732143695578889
 40
0.3333370362055585
 40
0.336696442651453
 40
0.3393942577506262
 40
0.3465906993558096
 40
0.4212372479066636
 40
0.4286693312444898
 40
0.4413620707178506
 40
0.5859904323876597
 40
0.8623864124036356
 40
1.0
 40
1.0
 40
1.0
 40
1.0
 10
-53.41267585754395
 20
7.397000318958111
 30
0.0
 10
-53.3794349499062
 20
7.133567718484283
 30
0.0
 10
-53.09228240783958
 20
6.815433991701139
 30
0.0
 10
-52.95821764642597
 20
6.742252798303769
 30
0.0
 10
-52.95155794760498
 20
6.736915784939796
 30
0.0
 10
-52.94684200093128
 20
6.731942649472819
 30
0.0
 10
-52.9340882714464
 20
6.718843879815333
 30
0.0
 10
-52.79385947712609
 20
6.591183161083091
 30
0.0
 10
-52.7773679067579
 20
6.581990207706021
 30
0.0
 10
-52.74682469072935
 20
6.571652962587452
 30
0.0
 10
-52.38581806330425
 20
6.503307523726716
 30
0.0
 10
-51.69000932857485
 20
6.597583972349894
 30
0.0
 10
-51.41293122955151
 20
6.810766826943441
 30
0.0
 10
-51.50091425453992
 20
6.731453985112635
 30
0.0
 10
-51.41293122955151
 20
6.810766826943441
 30
0.0
  0
SPLINE
  5
6D
330
1F
100
AcDbEntity
  8
0
  6
Continuous
 62
     7
100
AcDbSpline
210
0.0
220
0.0
230
1.0
 70
     8
 71
     3
 72
    10
 73
     6
 74
     0
 42
0.00000001
 43
0.00000001
 40
0.0
 40
0.0
 40
0.0
 40
0.0
 40
0.7296801134436088
 40
0.9209793578400474
 40
1.0
 40
1.0
 40
1.0
 40
1.0
 10
-51.4129102230072
 20
6.810766826943441
 30
0.0
 10
-51.40856740917823
 20
6.796463219836236
 30
0.0
 10
-51.40774118370931
 20
6.792632315758445
 30
0.0
 10
-51.40781874805219
 20
6.791015344664527
 30
0.0
 10
-51.40777238558064
 20
6.79155590569495
 30
0.0
 10
-51.40781874805219
 20
6.791015344664527
 30
0.0
  0
SPLINE
  5
6E
330
1F
100
AcDbEntity
  8
0
  6
Continuous
 62
     7
100
AcDbSpline
210
0.0
220
0.0
230
1.0
 70
     8
 71
     3
 72
    13
 73
     9
 74
     0
 42
0.00000001
 43
0.00000001
 40
0.0
 40
0.0
 40
0.0
 40
0.0
 40
0.1917763854657135
 40
0.5424858065587806
 40
0.6801037231481873
 40
0.756575791373078
 40
0.8580994065515584
 40
1.0
 40
1.0
 40
1.0
 40
1.0
 10
-51.78272724151611
 20
9.139784689728241
 30
0.0
 10
-51.92332410339009
 20
9.159599916029041
 30
0.0
 10
-52.17715508033807
 20
9.214292058791967
 30
0.0
 10
-52.27502190298276
 20
9.242636564736786
 30
0.0
 10
-52.3282421336693
 20
9.261954981977661
 30
0.0
 10
-52.40295063460326
 20
9.25367903988382
 30
0.0
 10
-52.50017111099537
 20
9.213858270588053
 30
0.0
 10
-52.46869572732152
 20
9.228564621068765
 30
0.0
 10
-52.50017111099537
 20
9.213858270588053
 30
0.0
  0
LWPOLYLINE
  5
6F
330
1F
100
AcDbEntity
  8
0
  6
CENTERX2
 62
     7
100
AcDbPolyline
 90
       19
 70
   128
 43
0.0
 10
-11.9819715619
 20
30.5960476895
 10
-11.6486949374
 20
30.2372483017
 10
-11.6471877655
 20
30.2361111505
 10
-11.6471567888
 20
30.2360868668
 10
-11.6471485084
 20
30.2360796246
 10
-11.6471265226
 20
30.2360604682
 10
-11.646873483
 20
30.2358483223
 10
-11.6466967759
 20
30.2357106942
 10
-11.6466543499
 20
30.2356791642
 10
-11.646647347
 20
30.235674021
 10
-11.6466369382
 20
30.2356668962
 10
-11.6458832736
 20
30.2352188224
 10
-11.6438816337
 20
30.2340376862
 10
-11.6324427138
 20
30.227304129
 10
-10.6696166376
 20
30.0610820922
 10
-10.6515235598
 20
30.0634905158
 10
-10.2996407501
 20
30.1889781193
 10
-10.0297939994
 20
30.4488945041
 10
-9.8476476308
 20
30.830629885
  0
SPLINE
  5
70
330
1F
100
AcDbEntity
  8
0
  6
Continuous
 62
     7
100
AcDbSpline
210
0.0
220
0.0
230
1.0
 70
     8
 71
     3
 72
     9
 73
     5
 74
     0
 42
0.00000001
 43
0.00000001
 40
0.0
 40
0.0
 40
0.0
 40
0.0
 40
0.5775829548722383
 40
0.9999999999999999
 40
0.9999999999999999
 40
0.9999999999999999
 40
0.9999999999999999
 10
-10.63063740730286
 20
32.64529469204638
 30
0.0
 10
-11.0818283290781
 20
32.67992335112488
 30
0.0
 10
-11.41237905574465
 20
32.69618103879281
 30
0.0
 10
-11.30215528874684
 20
32.69140022866553
 30
0.0
 10
-11.41237905574465
 20
32.69618103879281
 30
0.0
  0
ENDSEC
  0
SECTION
  2
OBJECTS
  0
DICTIONARY
  5
C
330
0
100
AcDbDictionary
281
     1
  3
ACAD_GROUP
350
D
  3
ACAD_LAYOUT
350
1A
  3
ACAD_MLINESTYLE
350
17
  3
ACAD_PLOTSETTINGS
350
19
  3
ACAD_PLOTSTYLENAME
350
E
  3
ACAD_SCALELIST
350
47
  3
DWGPROPS
350
71
  0
DICTIONARY
  5
D
102
{ACAD_REACTORS
330
C
102
}
330
C
100
AcDbDictionary
281
     1
  0
DICTIONARY
  5
1A
102
{ACAD_REACTORS
330
C
102
}
330
C
100
AcDbDictionary
281
     1
  3
Layout1
350
1E
  3
Layout2
350
26
  3
Model
350
22
  0
DICTIONARY
  5
17
102
{ACAD_REACTORS
330
C
102
}
330
C
100
AcDbDictionary
281
     1
  3
Standard
350
18
  0
DICTIONARY
  5
19
102
{ACAD_REACTORS
330
C
102
}
330
C
100
AcDbDictionary
281
     1
  0
ACDBDICTIONARYWDFLT
  5
E
102
{ACAD_REACTORS
330
C
102
}
330
C
100
AcDbDictionary
281
     1
  3
Normal
350
F
100
AcDbDictionaryWithDefault
340
F
  0
DICTIONARY
  5
47
102
{ACAD_REACTORS
330
C
102
}
330
C
100
AcDbDictionary
281
     1
  3
A0
350
48
  3
A1
350
49
  3
A2
350
4A
  3
A3
350
4B
  3
A4
350
4C
  3
A5
350
4D
  3
A6
350
4E
  3
A7
350
4F
  3
A8
350
50
  3
A9
350
51
  3
B0
350
52
  3
B1
350
53
  3
B2
350
54
  3
B3
350
55
  3
B4
350
56
  3
B5
350
57
  3
B6
350
58
  0
XRECORD
  5
71
102
{ACAD_REACTORS
330
C
102
}
330
C
100
AcDbXrecord
280
     1
  1
DWGPROPS COOKIE
  2

  3

  4

  6

  7

  8
Serj
  9

300
=
301
=
302
=
303
=
304
=
305
=
306
=
307
=
308
=
309
=
 40
0.0
 41
2461079.514164965
 42
2461079.514324988
  1

 90
        0
  0
LAYOUT
  5
1E
102
{ACAD_REACTORS
330
1A
102
}
330
1A
100
AcDbPlotSettings
  1

  2
none_device
  4

  6

 40
0.0
 41
0.0
 42
0.0
 43
0.0
 44
0.0
 45
0.0
 46
0.0
 47
0.0
 48
0.0
 49
0.0
140
0.0
141
0.0
142
1.0
143
1.0
 70
   688
 72
     1
 73
     0
 74
     5
  7

 75
    16
147
1.0
148
0.0
149
0.0
100
AcDbLayout
  1
Layout1
 70
     1
 71
     1
 10
0.0
 20
0.0
 11
420.0
 21
297.0
 12
0.0
 22
0.0
 32
0.0
 14
1.0000000000E+20
 24
1.0000000000E+20
 34
1.0000000000E+20
 15
-1.0000000000E+20
 25
-1.0000000000E+20
 35
-1.0000000000E+20
146
0.0
 13
0.0
 23
0.0
 33
0.0
 16
1.0
 26
0.0
 36
0.0
 17
0.0
 27
1.0
 37
0.0
 76
     0
330
1B
  0
LAYOUT
  5
26
102
{ACAD_REACTORS
330
1A
102
}
330
1A
100
AcDbPlotSettings
  1

  2
none_device
  4

  6

 40
0.0
 41
0.0
 42
0.0
 43
0.0
 44
0.0
 45
0.0
 46
0.0
 47
0.0
 48
0.0
 49
0.0
140
0.0
141
0.0
142
1.0
143
1.0
 70
   688
 72
     1
 73
     0
 74
     5
  7

 75
    16
147
1.0
148
0.0
149
0.0
100
AcDbLayout
  1
Layout2
 70
     1
 71
     2
 10
0.0
 20
0.0
 11
0.0
 21
0.0
 12
0.0
 22
0.0
 32
0.0
 14
0.0
 24
0.0
 34
0.0
 15
0.0
 25
0.0
 35
0.0
146
0.0
 13
0.0
 23
0.0
 33
0.0
 16
1.0
 26
0.0
 36
0.0
 17
0.0
 27
1.0
 37
0.0
 76
     0
330
23
  0
LAYOUT
  5
22
102
{ACAD_REACTORS
330
1A
102
}
330
1A
100
AcDbPlotSettings
  1

  2
none_device
  4
ANSI_A_(11.00_x_8.50_Inches)
  6

 40
6.35
 41
19.05
 42
6.35000508
 43
19.05000254
 44
279.4
 45
215.9
 46
271.8163495341
 47
46.2331076889
 48
0.0
 49
0.0
140
0.0
141
0.0
142
0.0629525645
143
1.0
 70
  1696
 72
     0
 73
     0
 74
     0
  7

 75
     0
147
0.0179189148
148
-1300.4909072572
149
0.0
100
AcDbLayout
  1
Model
 70
     1
 71
     0
 10
0.0
 20
0.0
 11
420.0
 21
297.0
 12
0.0
 22
0.0
 32
0.0
 14
-173.0895518499
 24
1.5743031278
 34
0.0
 15
-0.1021592062
 25
51.7928272556
 35
0.0
146
0.0
 13
0.0
 23
0.0
 33
0.0
 16
1.0
 26
0.0
 36
0.0
 17
0.0
 27
1.0
 37
0.0
 76
     0
330
1F
331
29
  0
MLINESTYLE
  5
18
102
{ACAD_REACTORS
330
17
102
}
330
17
100
AcDbMlineStyle
  2
Standard
 70
     0
  3

 62
   256
 51
90.0
 52
90.0
 71
     2
 49
0.5
 62
   256
  6
BYLAYER
 49
-0.5
 62
   256
  6
BYLAYER
  0
ACDBPLACEHOLDER
  5
F
102
{ACAD_REACTORS
330
E
102
}
330
E
  0
SCALE
  5
48
102
{ACAD_REACTORS
330
47
102
}
330
47
100
AcDbScale
 70
     0
300
1:1
140
1.0
141
1.0
290
     1
  0
SCALE
  5
49
102
{ACAD_REACTORS
330
47
102
}
330
47
100
AcDbScale
 70
     0
300
1:2
140
1.0
141
2.0
290
     0
  0
SCALE
  5
4A
102
{ACAD_REACTORS
330
47
102
}
330
47
100
AcDbScale
 70
     0
300
1:4
140
1.0
141
4.0
290
     0
  0
SCALE
  5
4B
102
{ACAD_REACTORS
330
47
102
}
330
47
100
AcDbScale
 70
     0
300
1:5
140
1.0
141
5.0
290
     0
  0
SCALE
  5
4C
102
{ACAD_REACTORS
330
47
102
}
330
47
100
AcDbScale
 70
     0
300
1:8
140
1.0
141
8.0
290
     0
  0
SCALE
  5
4D
102
{ACAD_REACTORS
330
47
102
}
330
47
100
AcDbScale
 70
     0
300
1:10
140
1.0
141
10.0
290
     0
  0
SCALE
  5
4E
102
{ACAD_REACTORS
330
47
102
}
330
47
100
AcDbScale
 70
     0
300
1:16
140
1.0
141
16.0
290
     0
  0
SCALE
  5
4F
102
{ACAD_REACTORS
330
47
102
}
330
47
100
AcDbScale
 70
     0
300
1:20
140
1.0
141
20.0
290
     0
  0
SCALE
  5
50
102
{ACAD_REACTORS
330
47
102
}
330
47
100
AcDbScale
 70
     0
300
1:30
140
1.0
141
30.0
290
     0
  0
SCALE
  5
51
102
{ACAD_REACTORS
330
47
102
}
330
47
100
AcDbScale
 70
     0
300
1:40
140
1.0
141
40.0
290
     0
  0
SCALE
  5
52
102
{ACAD_REACTORS
330
47
102
}
330
47
100
AcDbScale
 70
     0
300
1:50
140
1.0
141
50.0
290
     0
  0
SCALE
  5
53
102
{ACAD_REACTORS
330
47
102
}
330
47
100
AcDbScale
 70
     0
300
1:100
140
1.0
141
100.0
290
     0
  0
SCALE
  5
54
102
{ACAD_REACTORS
330
47
102
}
330
47
100
AcDbScale
 70
     0
300
2:1
140
2.0
141
1.0
290
     0
  0
SCALE
  5
55
102
{ACAD_REACTORS
330
47
102
}
330
47
100
AcDbScale
 70
     0
300
4:1
140
4.0
141
1.0
290
     0
  0
SCALE
  5
56
102
{ACAD_REACTORS
330
47
102
}
330
47
100
AcDbScale
 70
     0
300
8:1
140
8.0
141
1.0
290
     0
  0
SCALE
  5
57
102
{ACAD_REACTORS
330
47
102
}
330
47
100
AcDbScale
 70
     0
300
10:1
140
10.0
141
1.0
290
     0
  0
SCALE
  5
58
102
{ACAD_REACTORS
330
47
102
}
330
47
100
AcDbScale
 70
     0
300
100:1
140
100.0
141
1.0
290
     0
  0
ENDSEC
  0
EOF
