ISO-10303-21;
HEADER;
FILE_DESCRIPTION (( 'STEP AP214' ),
    '1' );
FILE_NAME ('z1.STEP',
    '2026-01-17T18:14:35',
    ( '' ),
    ( '' ),
    'SwSTEP 2.0',
    'SolidWorks 2024',
    '' );
FILE_SCHEMA (( 'AUTOMOTIVE_DESIGN' ));
ENDSEC;

DATA;
#1 = CARTESIAN_POINT ( 'NONE',  ( -99.58799734748014032, 29.72307692307692051, 5.000000000000000000 ) ) ;
#2 = STYLED_ITEM ( 'NONE', ( #186 ), #203 ) ;
#3 = CARTESIAN_POINT ( 'NONE',  ( 81.41200265251985968, 29.72307692307692051, 5.000000000000000000 ) ) ;
#4 = VECTOR ( 'NONE', #852, 1000.000000000000000 ) ;
#5 = ORIENTED_EDGE ( 'NONE', *, *, #516, .F. ) ;
#6 = EDGE_CURVE ( 'NONE', #13, #551, #304, .T. ) ;
#7 = PLANE ( 'NONE',  #797 ) ;
#8 = FACE_OUTER_BOUND ( 'NONE', #775, .T. ) ;
#9 = VERTEX_POINT ( 'NONE', #849 ) ;
#10 = ORIENTED_EDGE ( 'NONE', *, *, #561, .T. ) ;
#11 = CARTESIAN_POINT ( 'NONE',  ( -78.58920106770457892, 10.72367597128744876, 2.000000000000000000 ) ) ;
#12 = DIRECTION ( 'NONE',  ( -0.7071067811865496822, 0.000000000000000000, -0.7071067811865454633 ) ) ;
#13 = VERTEX_POINT ( 'NONE', #774 ) ;
#14 = VECTOR ( 'NONE', #448, 1000.000000000000000 ) ;
#15 = EDGE_CURVE ( 'NONE', #837, #145, #765, .T. ) ;
#16 = CARTESIAN_POINT ( 'NONE',  ( 62.41080028239893807, 10.68708073385019830, 5.000000000000000000 ) ) ;
#17 = VECTOR ( 'NONE', #626, 1000.000000000000000 ) ;
#18 = AXIS2_PLACEMENT_3D ( 'NONE', #418, #273, #482 ) ;
#19 = EDGE_LOOP ( 'NONE', ( #141, #771, #759, #396 ) ) ;
#20 = ORIENTED_EDGE ( 'NONE', *, *, #478, .T. ) ;
#21 = EDGE_CURVE ( 'NONE', #424, #109, #89, .T. ) ;
#22 = CARTESIAN_POINT ( 'NONE',  ( -96.58800094821914684, 10.72300095551155508, 5.000000000000000000 ) ) ;
#23 = ORIENTED_EDGE ( 'NONE', *, *, #533, .T. ) ;
#24 = DIRECTION ( 'NONE',  ( 3.750337688624504171E-05, -0.9999999992967484319, 0.000000000000000000 ) ) ;
#25 = LINE ( 'NONE', #315, #865 ) ;
#26 = EDGE_CURVE ( 'NONE', #173, #379, #646, .T. ) ;
#27 = ORIENTED_EDGE ( 'NONE', *, *, #391, .T. ) ;
#28 = DIRECTION ( 'NONE',  ( -0.000000000000000000, 0.000000000000000000, -1.000000000000000000 ) ) ;
#29 = DIRECTION ( 'NONE',  ( -1.000000000000000000, 0.000000000000000000, 0.000000000000000000 ) ) ;
#30 = VECTOR ( 'NONE', #573, 1000.000000000000114 ) ;
#31 = VERTEX_POINT ( 'NONE', #445 ) ;
#32 = CIRCLE ( 'NONE', #572, 2.000000000000015543 ) ;
#33 = LINE ( 'NONE', #307, #643 ) ;
#34 = CARTESIAN_POINT ( 'NONE',  ( 83.41200265251985968, 29.72307692307692051, 5.000000000000000000 ) ) ;
#35 = ORIENTED_EDGE ( 'NONE', *, *, #306, .T. ) ;
#36 = DIRECTION ( 'NONE',  ( -0.000000000000000000, -0.000000000000000000, -1.000000000000000000 ) ) ;
#37 = FACE_OUTER_BOUND ( 'NONE', #809, .T. ) ;
#38 = EDGE_LOOP ( 'NONE', ( #200, #750, #279, #420 ) ) ;
#39 = PRODUCT_DEFINITION_SHAPE ( 'NONE', 'NONE',  #723 ) ;
#40 = CARTESIAN_POINT ( 'NONE',  ( 83.41200265251985968, 29.72307692307692051, 5.000000000000000000 ) ) ;
#41 = ADVANCED_FACE ( 'NONE', ( #243 ), #239, .F. ) ;
#42 = CARTESIAN_POINT ( 'NONE',  ( 20.82500441292884474, -23.27692307692307949, 2.000000000000000000 ) ) ;
#43 = AXIS2_PLACEMENT_3D ( 'NONE', #432, #175, #311 ) ;
#44 = ORIENTED_EDGE ( 'NONE', *, *, #592, .F. ) ;
#45 = CIRCLE ( 'NONE', #163, 2.000000000000015543 ) ;
#46 = FACE_BOUND ( 'NONE', #337, .T. ) ;
#47 = CARTESIAN_POINT ( 'NONE',  ( -97.58799734748014032, 31.72307692307692406, 0.000000000000000000 ) ) ;
#48 = EDGE_CURVE ( 'NONE', #346, #494, #25, .T. ) ;
#49 = DIRECTION ( 'NONE',  ( -0.000000000000000000, -1.000000000000000000, -0.000000000000000000 ) ) ;
#50 = ORIENTED_EDGE ( 'NONE', *, *, #21, .F. ) ;
#51 = DIRECTION ( 'NONE',  ( -0.000000000000000000, -0.000000000000000000, -1.000000000000000000 ) ) ;
#52 = CARTESIAN_POINT ( 'NONE',  ( 57.19978530192257438, 15.72307579550376744, 2.000000000000000000 ) ) ;
#53 = ORIENTED_EDGE ( 'NONE', *, *, #340, .T. ) ;
#54 = EDGE_CURVE ( 'NONE', #31, #388, #165, .T. ) ;
#55 = DIRECTION ( 'NONE',  ( 1.000000000000000000, 0.000000000000000000, 0.000000000000000000 ) ) ;
#56 = DIRECTION ( 'NONE',  ( -1.000000000000000000, 0.000000000000000000, 0.000000000000000000 ) ) ;
#57 = DIRECTION ( 'NONE',  ( -1.000000000000000000, 3.876477041288954935E-17, -0.000000000000000000 ) ) ;
#58 = VERTEX_POINT ( 'NONE', #843 ) ;
#59 = DIRECTION ( 'NONE',  ( 0.000000000000000000, -1.000000000000000000, -0.000000000000000000 ) ) ;
#60 = AXIS2_PLACEMENT_3D ( 'NONE', #702, #96, #308 ) ;
#61 = CIRCLE ( 'NONE', #617, 2.000000000000001776 ) ;
#62 = CARTESIAN_POINT ( 'NONE',  ( 62.41207404723531482, -23.27692307702308128, 5.000000000000000000 ) ) ;
#63 = LINE ( 'NONE', #539, #347 ) ;
#64 = ORIENTED_EDGE ( 'NONE', *, *, #802, .F. ) ;
#65 = FACE_BOUND ( 'NONE', #834, .T. ) ;
#66 = FACE_OUTER_BOUND ( 'NONE', #321, .T. ) ;
#67 = CARTESIAN_POINT ( 'NONE',  ( 57.19978530192257438, 15.72307579550376744, 2.000000000000000000 ) ) ;
#68 = ORIENTED_EDGE ( 'NONE', *, *, #736, .F. ) ;
#69 = APPLICATION_PROTOCOL_DEFINITION ( 'draft international standard', 'automotive_design', 1998, #672 ) ;
#70 = CARTESIAN_POINT ( 'NONE',  ( 83.41200265251985968, -37.27692307692306883, 5.000000000000000000 ) ) ;
#71 = EDGE_CURVE ( 'NONE', #9, #305, #793, .T. ) ;
#72 = CARTESIAN_POINT ( 'NONE',  ( 20.82500441292884474, -23.27692307692307949, 5.000000000000000000 ) ) ;
#73 = ORIENTED_EDGE ( 'NONE', *, *, #715, .F. ) ;
#74 = LINE ( 'NONE', #349, #676 ) ;
#75 = CARTESIAN_POINT ( 'NONE',  ( -96.58800094821914684, 10.72300095551155508, 5.000000000000000000 ) ) ;
#76 = CIRCLE ( 'NONE', #18, 2.699999999999985523 ) ;
#77 = EDGE_CURVE ( 'NONE', #555, #746, #657, .T. ) ;
#78 = ORIENTED_EDGE ( 'NONE', *, *, #231, .T. ) ;
#79 = CARTESIAN_POINT ( 'NONE',  ( -96.58800094821914684, 10.72300095551155508, 5.000000000000000000 ) ) ;
#80 = CARTESIAN_POINT ( 'NONE',  ( -32.78799734748012895, -3.776923076923073719, -1.734723475976807883E-15 ) ) ;
#81 = ORIENTED_EDGE ( 'NONE', *, *, #640, .T. ) ;
#82 = UNCERTAINTY_MEASURE_WITH_UNIT (LENGTH_MEASURE( 1.000000000000000082E-05 ), #453, 'distance_accuracy_value', 'NONE');
#83 = ORIENTED_EDGE ( 'NONE', *, *, #683, .F. ) ;
#84 = ADVANCED_FACE ( 'NONE', ( #439 ), #782, .F. ) ;
#85 = LINE ( 'NONE', #419, #193 ) ;
#86 = EDGE_LOOP ( 'NONE', ( #428, #330, #741, #93 ) ) ;
#87 = EDGE_LOOP ( 'NONE', ( #485, #540, #718, #407 ) ) ;
#88 = ADVANCED_FACE ( 'NONE', ( #37 ), #457, .F. ) ;
#89 = CIRCLE ( 'NONE', #43, 2.000000000000001776 ) ;
#90 = FACE_OUTER_BOUND ( 'NONE', #575, .T. ) ;
#91 = VECTOR ( 'NONE', #281, 1000.000000000000000 ) ;
#92 = ORIENTED_EDGE ( 'NONE', *, *, #95, .T. ) ;
#93 = ORIENTED_EDGE ( 'NONE', *, *, #598, .F. ) ;
#94 = CARTESIAN_POINT ( 'NONE',  ( -97.58799734748014032, 31.72307692307692406, 5.000000000000000000 ) ) ;
#95 = EDGE_CURVE ( 'NONE', #670, #477, #636, .T. ) ;
#96 = DIRECTION ( 'NONE',  ( -0.000000000000000000, -0.000000000000000000, -1.000000000000000000 ) ) ;
#97 = DIRECTION ( 'NONE',  ( 0.000000000000000000, 0.000000000000000000, -1.000000000000000000 ) ) ;
#98 = EDGE_CURVE ( 'NONE', #633, #864, #867, .T. ) ;
#99 = CARTESIAN_POINT ( 'NONE',  ( 80.41199921542008155, 10.68775583959866182, 2.000000000000000000 ) ) ;
#100 = ORIENTED_EDGE ( 'NONE', *, *, #280, .T. ) ;
#101 = CARTESIAN_POINT ( 'NONE',  ( 80.41199921542008155, 10.68775583959866182, 2.000000000000000000 ) ) ;
#102 = VECTOR ( 'NONE', #172, 1000.000000000000000 ) ;
#103 = DIRECTION ( 'NONE',  ( -0.000000000000000000, -0.000000000000000000, -1.000000000000000000 ) ) ;
#104 = VECTOR ( 'NONE', #341, 1000.000000000000000 ) ;
#105 = AXIS2_PLACEMENT_3D ( 'NONE', #319, #870, #265 ) ;
#106 = EDGE_LOOP ( 'NONE', ( #709, #126, #563, #152 ) ) ;
#107 = CARTESIAN_POINT ( 'NONE',  ( 14.61200265251985542, -3.776923076923073275, 2.000000000000000000 ) ) ;
#108 = LINE ( 'NONE', #713, #146 ) ;
#109 = VERTEX_POINT ( 'NONE', #509 ) ;
#110 = EDGE_CURVE ( 'NONE', #627, #698, #108, .T. ) ;
#111 = DIRECTION ( 'NONE',  ( -0.000000000000000000, -0.000000000000000000, 1.000000000000000000 ) ) ;
#112 = CARTESIAN_POINT ( 'NONE',  ( 62.41207404723531482, -23.27692307702308128, 2.000000000000000000 ) ) ;
#113 = ORIENTED_EDGE ( 'NONE', *, *, #306, .F. ) ;
#114 = ADVANCED_FACE ( 'NONE', ( #569 ), #704, .F. ) ;
#115 = CARTESIAN_POINT ( 'NONE',  ( -28.08799734748012966, -3.776923076923073719, -1.734723475976807883E-15 ) ) ;
#116 = LINE ( 'NONE', #328, #571 ) ;
#117 = ORIENTED_EDGE ( 'NONE', *, *, #295, .T. ) ;
#118 = AXIS2_PLACEMENT_3D ( 'NONE', #821, #480, #687 ) ;
#119 = DIRECTION ( 'NONE',  ( -0.7071067811865493491, 0.000000000000000000, -0.7071067811865456854 ) ) ;
#120 = EDGE_CURVE ( 'NONE', #778, #173, #260, .T. ) ;
#121 = PLANE ( 'NONE',  #710 ) ;
#122 = ORIENTED_EDGE ( 'NONE', *, *, #98, .T. ) ;
#123 = LINE ( 'NONE', #604, #584 ) ;
#124 = CARTESIAN_POINT ( 'NONE',  ( -78.58792593042323915, -23.27692307692309015, 2.000000000000000000 ) ) ;
#125 = DIRECTION ( 'NONE',  ( -3.876477041288954935E-17, -1.000000000000000000, 0.000000000000000000 ) ) ;
#126 = ORIENTED_EDGE ( 'NONE', *, *, #525, .F. ) ;
#127 = LINE ( 'NONE', #588, #700 ) ;
#128 = DIRECTION ( 'NONE',  ( 1.046980590946524270E-16, -1.000000000000000000, 0.000000000000000000 ) ) ;
#129 = CYLINDRICAL_SURFACE ( 'NONE', #371, 2.000000000000001776 ) ;
#130 = ORIENTED_EDGE ( 'NONE', *, *, #151, .T. ) ;
#131 = DIRECTION ( 'NONE',  ( 0.000000000000000000, 0.000000000000000000, 1.000000000000000000 ) ) ;
#132 = VECTOR ( 'NONE', #568, 1000.000000000000000 ) ;
#133 = VECTOR ( 'NONE', #464, 1000.000000000000000 ) ;
#134 = DIRECTION ( 'NONE',  ( -1.779203616544987819E-16, 1.000000000000000000, 0.000000000000000000 ) ) ;
#135 = LINE ( 'NONE', #590, #486 ) ;
#136 = EDGE_LOOP ( 'NONE', ( #100, #83, #68, #411 ) ) ;
#137 = DIRECTION ( 'NONE',  ( -1.000000000000000000, 0.000000000000000000, 0.000000000000000000 ) ) ;
#138 = ADVANCED_FACE ( 'NONE', ( #395 ), #129, .T. ) ;
#139 = CARTESIAN_POINT ( 'NONE',  ( 81.41200265251985968, -37.27692307692306883, 0.000000000000000000 ) ) ;
#140 = CARTESIAN_POINT ( 'NONE',  ( -28.08799734748012966, -3.776923076923073719, -1.734723475976807883E-15 ) ) ;
#141 = ORIENTED_EDGE ( 'NONE', *, *, #648, .T. ) ;
#142 = DIRECTION ( 'NONE',  ( -1.000000000000000000, 0.000000000000000000, 0.000000000000000000 ) ) ;
#143 = EDGE_CURVE ( 'NONE', #325, #424, #135, .T. ) ;
#144 = DIRECTION ( 'NONE',  ( -0.9999999999973701037, -2.293428648603675388E-06, 0.000000000000000000 ) ) ;
#145 = VERTEX_POINT ( 'NONE', #406 ) ;
#146 = VECTOR ( 'NONE', #247, 1000.000000000000000 ) ;
#147 = CARTESIAN_POINT ( 'NONE',  ( -78.58920106770457892, 10.72367597128744876, 2.000000000000000000 ) ) ;
#148 = CIRCLE ( 'NONE', #615, 4.699999999999999289 ) ;
#149 = CARTESIAN_POINT ( 'NONE',  ( 80.41199757582123198, 28.72307692307691696, 2.000000000000000000 ) ) ;
#150 = AXIS2_PLACEMENT_3D ( 'NONE', #139, #131, #55 ) ;
#151 = EDGE_CURVE ( 'NONE', #173, #494, #876, .T. ) ;
#152 = ORIENTED_EDGE ( 'NONE', *, *, #635, .T. ) ;
#153 = ORIENTED_EDGE ( 'NONE', *, *, #120, .F. ) ;
#154 = DIRECTION ( 'NONE',  ( 0.000000000000000000, 0.000000000000000000, 1.000000000000000000 ) ) ;
#155 = CARTESIAN_POINT ( 'NONE',  ( 20.82500441292884474, -23.27692307692307949, 2.000000000000000000 ) ) ;
#156 = ORIENTED_EDGE ( 'NONE', *, *, #533, .F. ) ;
#157 = EDGE_CURVE ( 'NONE', #309, #627, #116, .T. ) ;
#158 = ORIENTED_EDGE ( 'NONE', *, *, #708, .F. ) ;
#159 = DIRECTION ( 'NONE',  ( 0.9999999992967483209, 3.750337688620764351E-05, 0.000000000000000000 ) ) ;
#160 = EDGE_LOOP ( 'NONE', ( #50, #179, #463, #653, #378, #815, #707, #382 ) ) ;
#161 = VERTEX_POINT ( 'NONE', #336 ) ;
#162 = DIRECTION ( 'NONE',  ( -3.750337688615642851E-05, 0.9999999992967483209, 0.000000000000000000 ) ) ;
#163 = AXIS2_PLACEMENT_3D ( 'NONE', #558, #426, #224 ) ;
#164 = AXIS2_PLACEMENT_3D ( 'NONE', #194, #664, #784 ) ;
#165 = LINE ( 'NONE', #235, #102 ) ;
#166 = PRODUCT_DEFINITION_CONTEXT ( 'detailed design', #728, 'design' ) ;
#167 = ADVANCED_FACE ( 'NONE', ( #798 ), #680, .F. ) ;
#168 = FACE_BOUND ( 'NONE', #312, .T. ) ;
#169 = DIRECTION ( 'NONE',  ( -0.000000000000000000, 0.000000000000000000, -1.000000000000000000 ) ) ;
#170 = ORIENTED_EDGE ( 'NONE', *, *, #860, .F. ) ;
#171 = LINE ( 'NONE', #845, #132 ) ;
#172 = DIRECTION ( 'NONE',  ( -0.000000000000000000, -0.000000000000000000, -1.000000000000000000 ) ) ;
#173 = VERTEX_POINT ( 'NONE', #324 ) ;
#174 = DIRECTION ( 'NONE',  ( -0.000000000000000000, -0.000000000000000000, -1.000000000000000000 ) ) ;
#175 = DIRECTION ( 'NONE',  ( 0.000000000000000000, 0.000000000000000000, 1.000000000000000000 ) ) ;
#176 = MECHANICAL_DESIGN_GEOMETRIC_PRESENTATION_REPRESENTATION (  '', ( #2 ), #699 ) ;
#177 = ADVANCED_FACE ( 'NONE', ( #462 ), #221, .F. ) ;
#178 = CIRCLE ( 'NONE', #827, 2.699999999999985523 ) ;
#179 = ORIENTED_EDGE ( 'NONE', *, *, #143, .F. ) ;
#180 = PLANE ( 'NONE',  #302 ) ;
#181 = PRODUCT ( 'z1', 'z1', '', ( #412 ) ) ;
#182 = ORIENTED_EDGE ( 'NONE', *, *, #6, .F. ) ;
#183 = ORIENTED_EDGE ( 'NONE', *, *, #71, .F. ) ;
#184 = EDGE_CURVE ( 'NONE', #446, #690, #730, .T. ) ;
#185 = DIRECTION ( 'NONE',  ( -0.000000000000000000, -0.000000000000000000, 1.000000000000000000 ) ) ;
#186 = PRESENTATION_STYLE_ASSIGNMENT (( #252 ) ) ;
#187 = EDGE_LOOP ( 'NONE', ( #293, #212, #113, #510 ) ) ;
#188 = DIRECTION ( 'NONE',  ( 0.000000000000000000, 0.000000000000000000, 1.000000000000000000 ) ) ;
#189 = ADVANCED_FACE ( 'NONE', ( #803 ), #121, .F. ) ;
#190 = DIRECTION ( 'NONE',  ( 1.000000000000000000, 0.000000000000000000, 0.000000000000000000 ) ) ;
#191 = LINE ( 'NONE', #725, #329 ) ;
#192 = ORIENTED_EDGE ( 'NONE', *, *, #157, .F. ) ;
#193 = VECTOR ( 'NONE', #758, 1000.000000000000000 ) ;
#194 = CARTESIAN_POINT ( 'NONE',  ( 62.41207404723531482, -23.27692307702308128, 2.000000000000000000 ) ) ;
#195 = EDGE_CURVE ( 'NONE', #109, #581, #63, .T. ) ;
#196 = DIRECTION ( 'NONE',  ( 1.000000000000000000, 1.907611189489472574E-16, 0.000000000000000000 ) ) ;
#197 = ORIENTED_EDGE ( 'NONE', *, *, #110, .F. ) ;
#198 = CARTESIAN_POINT ( 'NONE',  ( -97.58799734748014032, 31.72307692307692406, 5.000000000000000000 ) ) ;
#199 = DIRECTION ( 'NONE',  ( 3.750337688548675071E-05, -0.9999999992967483209, 0.000000000000000000 ) ) ;
#200 = ORIENTED_EDGE ( 'NONE', *, *, #495, .T. ) ;
#201 = CARTESIAN_POINT ( 'NONE',  ( -99.58799734748014032, -37.27692307692306883, 5.000000000000000000 ) ) ;
#202 = DIRECTION ( 'NONE',  ( -1.779203616544987819E-16, 1.000000000000000000, 0.000000000000000000 ) ) ;
#203 = MANIFOLD_SOLID_BREP ( '\X2\04170435043d043a043e0432043a0430\X0\ \X2\0434043b044f\X0\  \X2\04320438043d04420430\X0\ \X2\0441\X0\ \X2\043f043b043e0441043a043e0439\X0\ \X2\0433043e043b043e0432043a043e0439\X0\ M42', #399 ) ;
#204 = DIRECTION ( 'NONE',  ( -1.000000000000000000, 0.000000000000000000, 0.000000000000000000 ) ) ;
#205 = VERTEX_POINT ( 'NONE', #522 ) ;
#206 = EDGE_CURVE ( 'NONE', #13, #446, #191, .T. ) ;
#207 = CARTESIAN_POINT ( 'NONE',  ( 81.41200265251985968, -37.27692307692306883, 5.000000000000000000 ) ) ;
#208 = VECTOR ( 'NONE', #503, 1000.000000000000227 ) ;
#209 = VECTOR ( 'NONE', #622, 1000.000000000000114 ) ;
#210 = DIRECTION ( 'NONE',  ( 0.000000000000000000, 0.000000000000000000, 1.000000000000000000 ) ) ;
#211 = CARTESIAN_POINT ( 'NONE',  ( -99.58799734748014032, 29.72307692307692051, 0.000000000000000000 ) ) ;
#212 = ORIENTED_EDGE ( 'NONE', *, *, #15, .F. ) ;
#213 = EDGE_CURVE ( 'NONE', #714, #58, #266, .T. ) ;
#214 = CARTESIAN_POINT ( 'NONE',  ( 57.19978530192257438, 15.72307579550376744, 5.000000000000000000 ) ) ;
#215 = FACE_BOUND ( 'NONE', #637, .T. ) ;
#216 = ORIENTED_EDGE ( 'NONE', *, *, #525, .T. ) ;
#217 = LINE ( 'NONE', #353, #209 ) ;
#218 = ADVANCED_FACE ( 'NONE', ( #219 ), #825, .F. ) ;
#219 = FACE_OUTER_BOUND ( 'NONE', #87, .T. ) ;
#220 = ORIENTED_EDGE ( 'NONE', *, *, #635, .F. ) ;
#221 = CONICAL_SURFACE ( 'NONE', #600, 4.699999999999999289, 0.7853981633974509435 ) ;
#222 = LINE ( 'NONE', #679, #500 ) ;
#223 = CONICAL_SURFACE ( 'NONE', #711, 4.699999999999999289, 0.7853981633974512766 ) ;
#224 = DIRECTION ( 'NONE',  ( 1.000000000000000000, 0.000000000000000000, 0.000000000000000000 ) ) ;
#225 = ORIENTED_EDGE ( 'NONE', *, *, #213, .F. ) ;
#226 = ORIENTED_EDGE ( 'NONE', *, *, #490, .F. ) ;
#227 = LINE ( 'NONE', #75, #545 ) ;
#228 = ORIENTED_EDGE ( 'NONE', *, *, #808, .T. ) ;
#229 = LINE ( 'NONE', #842, #30 ) ;
#230 = EDGE_LOOP ( 'NONE', ( #756, #170, #402, #10 ) ) ;
#231 = EDGE_CURVE ( 'NONE', #367, #633, #623, .T. ) ;
#232 = CARTESIAN_POINT ( 'NONE',  ( 57.19978530192258859, -23.27692307702308128, 5.000000000000000000 ) ) ;
#233 = AXIS2_PLACEMENT_3D ( 'NONE', #437, #28, #433 ) ;
#234 = VECTOR ( 'NONE', #134, 1000.000000000000000 ) ;
#235 = CARTESIAN_POINT ( 'NONE',  ( 81.41200265251985968, -39.27692307692306883, 5.000000000000000000 ) ) ;
#236 = ORIENTED_EDGE ( 'NONE', *, *, #345, .T. ) ;
#237 = EDGE_CURVE ( 'NONE', #379, #681, #695, .T. ) ;
#238 = DIRECTION ( 'NONE',  ( 1.000000000000000000, 0.000000000000000000, 0.000000000000000000 ) ) ;
#239 = PLANE ( 'NONE',  #656 ) ;
#240 = ORIENTED_EDGE ( 'NONE', *, *, #334, .T. ) ;
#241 = FACE_OUTER_BOUND ( 'NONE', #187, .T. ) ;
#242 = ADVANCED_FACE ( 'NONE', ( #8 ), #493, .F. ) ;
#243 = FACE_OUTER_BOUND ( 'NONE', #19, .T. ) ;
#244 = ORIENTED_EDGE ( 'NONE', *, *, #868, .F. ) ;
#245 = DIRECTION ( 'NONE',  ( -1.000000000000000000, 0.000000000000000000, -0.000000000000000000 ) ) ;
#246 = EDGE_CURVE ( 'NONE', #837, #31, #476, .T. ) ;
#247 = DIRECTION ( 'NONE',  ( -0.000000000000000000, -0.000000000000000000, 1.000000000000000000 ) ) ;
#248 = AXIS2_PLACEMENT_3D ( 'NONE', #67, #734, #196 ) ;
#249 = VECTOR ( 'NONE', #787, 1000.000000000000000 ) ;
#250 = VERTEX_POINT ( 'NONE', #354 ) ;
#251 = DIRECTION ( 'NONE',  ( -0.9999999999973702147, -2.293428648603675811E-06, 0.000000000000000000 ) ) ;
#252 = SURFACE_STYLE_USAGE ( .BOTH. , #595 ) ;
#253 = ORIENTED_EDGE ( 'NONE', *, *, #830, .F. ) ;
#254 = ADVANCED_FACE ( 'NONE', ( #90 ), #619, .F. ) ;
#255 = DIRECTION ( 'NONE',  ( -0.000000000000000000, -0.000000000000000000, -1.000000000000000000 ) ) ;
#256 = FACE_OUTER_BOUND ( 'NONE', #694, .T. ) ;
#257 = EDGE_LOOP ( 'NONE', ( #240, #881, #632, #855, #35, #677, #261, #375 ) ) ;
#258 = EDGE_CURVE ( 'NONE', #356, #268, #749, .T. ) ;
#259 = CARTESIAN_POINT ( 'NONE',  ( -30.78799734748011474, -3.776923076923073719, 2.000000000000000000 ) ) ;
#260 = LINE ( 'NONE', #400, #628 ) ;
#261 = ORIENTED_EDGE ( 'NONE', *, *, #773, .T. ) ;
#262 = VECTOR ( 'NONE', #185, 1000.000000000000000 ) ;
#263 = DIRECTION ( 'NONE',  ( -0.000000000000000000, -0.000000000000000000, 1.000000000000000000 ) ) ;
#264 = CIRCLE ( 'NONE', #644, 2.000000000000001776 ) ;
#265 = DIRECTION ( 'NONE',  ( 0.9999999992967483209, 3.750337688620764351E-05, 0.000000000000000000 ) ) ;
#266 = LINE ( 'NONE', #665, #674 ) ;
#267 = EDGE_LOOP ( 'NONE', ( #839, #819, #73, #537 ) ) ;
#268 = VERTEX_POINT ( 'NONE', #72 ) ;
#269 = CARTESIAN_POINT ( 'NONE',  ( 80.41199921542008155, 10.68775583959866182, 5.000000000000000000 ) ) ;
#270 = EDGE_CURVE ( 'NONE', #494, #681, #550, .T. ) ;
#271 = ORIENTED_EDGE ( 'NONE', *, *, #151, .F. ) ;
#272 = PLANE ( 'NONE',  #331 ) ;
#273 = DIRECTION ( 'NONE',  ( 0.000000000000000000, 0.000000000000000000, -1.000000000000000000 ) ) ;
#274 = DIRECTION ( 'NONE',  ( -0.000000000000000000, -0.000000000000000000, 1.000000000000000000 ) ) ;
#275 = ORIENTED_EDGE ( 'NONE', *, *, #48, .T. ) ;
#276 = VECTOR ( 'NONE', #659, 1000.000000000000114 ) ;
#277 = LINE ( 'NONE', #682, #234 ) ;
#278 = DIRECTION ( 'NONE',  ( -0.000000000000000000, -0.000000000000000000, -1.000000000000000000 ) ) ;
#279 = ORIENTED_EDGE ( 'NONE', *, *, #391, .F. ) ;
#280 = EDGE_CURVE ( 'NONE', #698, #250, #227, .T. ) ;
#281 = DIRECTION ( 'NONE',  ( -0.000000000000000000, -0.000000000000000000, -1.000000000000000000 ) ) ;
#282 = DIRECTION ( 'NONE',  ( -2.293428648603675388E-06, 0.9999999999973701037, 0.000000000000000000 ) ) ;
#283 = ORIENTED_EDGE ( 'NONE', *, *, #736, .T. ) ;
#284 = SHAPE_DEFINITION_REPRESENTATION ( #39, #654 ) ;
#285 = ORIENTED_EDGE ( 'NONE', *, *, #95, .F. ) ;
#286 = DIRECTION ( 'NONE',  ( -0.000000000000000000, -0.000000000000000000, 1.000000000000000000 ) ) ;
#287 = CARTESIAN_POINT ( 'NONE',  ( 80.41199921542008155, 10.68775583959866182, 5.000000000000000000 ) ) ;
#288 = ORIENTED_EDGE ( 'NONE', *, *, #237, .T. ) ;
#289 = VECTOR ( 'NONE', #684, 1000.000000000000000 ) ;
#290 = VECTOR ( 'NONE', #597, 1000.000000000000000 ) ;
#291 = FACE_OUTER_BOUND ( 'NONE', #257, .T. ) ;
#292 = VERTEX_POINT ( 'NONE', #554 ) ;
#293 = ORIENTED_EDGE ( 'NONE', *, *, #461, .T. ) ;
#294 = CYLINDRICAL_SURFACE ( 'NONE', #362, 2.000000000000015543 ) ;
#295 = EDGE_CURVE ( 'NONE', #370, #161, #415, .T. ) ;
#296 = ORIENTED_EDGE ( 'NONE', *, *, #280, .F. ) ;
#297 = CARTESIAN_POINT ( 'NONE',  ( 62.41080028239893807, 10.68708073385019830, 2.000000000000000000 ) ) ;
#298 = CARTESIAN_POINT ( 'NONE',  ( 11.91200265251986856, -3.776923076923073719, -1.734723475976807883E-15 ) ) ;
#299 = EDGE_CURVE ( 'NONE', #714, #205, #85, .T. ) ;
#300 = ORIENTED_EDGE ( 'NONE', *, *, #270, .F. ) ;
#301 = PLANE ( 'NONE',  #233 ) ;
#302 = AXIS2_PLACEMENT_3D ( 'NONE', #297, #24, #645 ) ;
#303 = VECTOR ( 'NONE', #817, 1000.000000000000000 ) ;
#304 = LINE ( 'NONE', #112, #14 ) ;
#305 = VERTEX_POINT ( 'NONE', #80 ) ;
#306 = EDGE_CURVE ( 'NONE', #58, #837, #45, .T. ) ;
#307 = CARTESIAN_POINT ( 'NONE',  ( -97.58799734748012611, -39.27692307692306883, 0.000000000000000000 ) ) ;
#308 = DIRECTION ( 'NONE',  ( -1.000000000000000000, 0.000000000000000000, 0.000000000000000000 ) ) ;
#309 = VERTEX_POINT ( 'NONE', #697 ) ;
#310 = FACE_OUTER_BOUND ( 'NONE', #799, .T. ) ;
#311 = DIRECTION ( 'NONE',  ( -1.000000000000000000, 0.000000000000000000, 0.000000000000000000 ) ) ;
#312 = EDGE_LOOP ( 'NONE', ( #440, #20 ) ) ;
#313 = DIRECTION ( 'NONE',  ( 1.000000000000000000, 0.000000000000000000, 0.000000000000000000 ) ) ;
#314 = AXIS2_PLACEMENT_3D ( 'NONE', #853, #435, #777 ) ;
#315 = CARTESIAN_POINT ( 'NONE',  ( 62.41080028239893807, 10.68708073385019830, 5.000000000000000000 ) ) ;
#316 = VECTOR ( 'NONE', #51, 1000.000000000000000 ) ;
#317 = ORIENTED_EDGE ( 'NONE', *, *, #361, .T. ) ;
#318 = LINE ( 'NONE', #198, #514 ) ;
#319 = CARTESIAN_POINT ( 'NONE',  ( -96.58800094821914684, 10.72300095551155508, 2.000000000000000000 ) ) ;
#320 = EDGE_CURVE ( 'NONE', #449, #268, #363, .T. ) ;
#321 = EDGE_LOOP ( 'NONE', ( #763, #220, #459, #492 ) ) ;
#322 = DIRECTION ( 'NONE',  ( -1.000000000000000000, 0.000000000000000000, 0.000000000000000000 ) ) ;
#323 = DIRECTION ( 'NONE',  ( 0.000000000000000000, 0.000000000000000000, 1.000000000000000000 ) ) ;
#324 = CARTESIAN_POINT ( 'NONE',  ( 80.41199921542008155, 10.68775583959866182, 2.000000000000000000 ) ) ;
#325 = VERTEX_POINT ( 'NONE', #423 ) ;
#326 = LINE ( 'NONE', #810, #290 ) ;
#327 = FACE_OUTER_BOUND ( 'NONE', #136, .T. ) ;
#328 = CARTESIAN_POINT ( 'NONE',  ( -96.58800094821914684, 10.72300095551155508, 2.000000000000000000 ) ) ;
#329 = VECTOR ( 'NONE', #392, 1000.000000000000000 ) ;
#330 = ORIENTED_EDGE ( 'NONE', *, *, #875, .T. ) ;
#331 = AXIS2_PLACEMENT_3D ( 'NONE', #732, #474, #137 ) ;
#332 = CARTESIAN_POINT ( 'NONE',  ( 57.19978530192257438, 15.72307579550376744, 5.000000000000000000 ) ) ;
#333 = AXIS2_PLACEMENT_3D ( 'NONE', #556, #564, #760 ) ;
#334 = EDGE_CURVE ( 'NONE', #731, #726, #779, .T. ) ;
#335 = LINE ( 'NONE', #52, #560 ) ;
#336 = CARTESIAN_POINT ( 'NONE',  ( 20.82500441292883764, 15.72307579550376033, 5.000000000000000000 ) ) ;
#337 = EDGE_LOOP ( 'NONE', ( #452, #183 ) ) ;
#338 = CARTESIAN_POINT ( 'NONE',  ( -97.58799734748012611, -39.27692307692307594, 5.000000000000000000 ) ) ;
#339 = CYLINDRICAL_SURFACE ( 'NONE', #403, 2.000000000000001776 ) ;
#340 = EDGE_CURVE ( 'NONE', #205, #735, #544, .T. ) ;
#341 = DIRECTION ( 'NONE',  ( 1.000000000000000000, -0.000000000000000000, -0.000000000000000000 ) ) ;
#342 = ORIENTED_EDGE ( 'NONE', *, *, #231, .F. ) ;
#343 = LINE ( 'NONE', #11, #348 ) ;
#344 = DIRECTION ( 'NONE',  ( -0.000000000000000000, -0.000000000000000000, 1.000000000000000000 ) ) ;
#345 = EDGE_CURVE ( 'NONE', #305, #9, #148, .T. ) ;
#346 = VERTEX_POINT ( 'NONE', #16 ) ;
#347 = VECTOR ( 'NONE', #57, 1000.000000000000000 ) ;
#348 = VECTOR ( 'NONE', #286, 1000.000000000000000 ) ;
#349 = CARTESIAN_POINT ( 'NONE',  ( 20.82500441292884474, -23.27692307692307949, 2.000000000000000000 ) ) ;
#350 = DIRECTION ( 'NONE',  ( 1.000000000000000000, 0.000000000000000000, 0.000000000000000000 ) ) ;
#351 = ORIENTED_EDGE ( 'NONE', *, *, #841, .F. ) ;
#352 = ADVANCED_FACE ( 'NONE', ( #215, #291 ), #301, .F. ) ;
#353 = CARTESIAN_POINT ( 'NONE',  ( -96.58800094821914684, 10.72300095551155508, 2.000000000000000000 ) ) ;
#354 = CARTESIAN_POINT ( 'NONE',  ( -78.58920106770457892, 10.72367597128744876, 5.000000000000000000 ) ) ;
#355 = VERTEX_POINT ( 'NONE', #94 ) ;
#356 = VERTEX_POINT ( 'NONE', #566 ) ;
#357 = DIRECTION ( 'NONE',  ( -1.000000000000000000, 0.000000000000000000, 0.000000000000000000 ) ) ;
#358 = EDGE_LOOP ( 'NONE', ( #519, #5, #253, #117 ) ) ;
#359 = VERTEX_POINT ( 'NONE', #107 ) ;
#360 = AXIS2_PLACEMENT_3D ( 'NONE', #101, #496, #764 ) ;
#361 = EDGE_CURVE ( 'NONE', #393, #698, #368, .T. ) ;
#362 = AXIS2_PLACEMENT_3D ( 'NONE', #776, #174, #712 ) ;
#363 = LINE ( 'NONE', #155, #386 ) ;
#364 = ORIENTED_EDGE ( 'NONE', *, *, #120, .T. ) ;
#365 = DIRECTION ( 'NONE',  ( -0.000000000000000000, -0.000000000000000000, -1.000000000000000000 ) ) ;
#366 = ORIENTED_EDGE ( 'NONE', *, *, #868, .T. ) ;
#367 = VERTEX_POINT ( 'NONE', #372 ) ;
#368 = LINE ( 'NONE', #22, #512 ) ;
#369 = DIRECTION ( 'NONE',  ( 1.000000000000000000, 1.779203616544987819E-16, 0.000000000000000000 ) ) ;
#370 = VERTEX_POINT ( 'NONE', #706 ) ;
#371 = AXIS2_PLACEMENT_3D ( 'NONE', #807, #466, #204 ) ;
#372 = CARTESIAN_POINT ( 'NONE',  ( 9.212002652519883483, -3.776923076923073719, 2.000000000000000000 ) ) ;
#373 = AXIS2_PLACEMENT_3D ( 'NONE', #862, #801, #199 ) ;
#374 = DIRECTION ( 'NONE',  ( -1.779203616544987819E-16, 1.000000000000000000, 0.000000000000000000 ) ) ;
#375 = ORIENTED_EDGE ( 'NONE', *, *, #434, .T. ) ;
#376 = EDGE_CURVE ( 'NONE', #359, #864, #229, .T. ) ;
#377 = CARTESIAN_POINT ( 'NONE',  ( 20.82500441292884474, -23.27692307692307949, 2.000000000000000000 ) ) ;
#378 = ORIENTED_EDGE ( 'NONE', *, *, #461, .F. ) ;
#379 = VERTEX_POINT ( 'NONE', #836 ) ;
#380 = CARTESIAN_POINT ( 'NONE',  ( -96.58800094821914684, 28.72267098620949710, 2.000000000000000000 ) ) ;
#381 = DIRECTION ( 'NONE',  ( -9.091043281086632472E-08, 0.9999999999999957812, 0.000000000000000000 ) ) ;
#382 = ORIENTED_EDGE ( 'NONE', *, *, #195, .F. ) ;
#383 = CARTESIAN_POINT ( 'NONE',  ( 81.41200265251985968, 31.72307692307691696, 5.000000000000000000 ) ) ;
#384 = ADVANCED_FACE ( 'NONE', ( #513 ), #447, .F. ) ;
#385 =( NAMED_UNIT ( * ) SI_UNIT ( $, .STERADIAN. ) SOLID_ANGLE_UNIT ( ) );
#386 = VECTOR ( 'NONE', #274, 1000.000000000000000 ) ;
#387 = CIRCLE ( 'NONE', #417, 2.000000000000001776 ) ;
#388 = VERTEX_POINT ( 'NONE', #443 ) ;
#389 = CARTESIAN_POINT ( 'NONE',  ( 57.19978530192257438, 15.72307579550376744, 2.000000000000000000 ) ) ;
#390 = LINE ( 'NONE', #668, #630 ) ;
#391 = EDGE_CURVE ( 'NONE', #551, #778, #508, .T. ) ;
#392 = DIRECTION ( 'NONE',  ( -0.000000000000000000, -0.000000000000000000, 1.000000000000000000 ) ) ;
#393 = VERTEX_POINT ( 'NONE', #431 ) ;
#394 = PLANE ( 'NONE',  #164 ) ;
#395 = FACE_OUTER_BOUND ( 'NONE', #717, .T. ) ;
#396 = ORIENTED_EDGE ( 'NONE', *, *, #320, .T. ) ;
#397 = LINE ( 'NONE', #332, #133 ) ;
#398 = DIRECTION ( 'NONE',  ( -1.000000000000000000, 0.000000000000000000, 0.000000000000000000 ) ) ;
#399 = CLOSED_SHELL ( 'NONE', ( #794, #177, #429, #189, #138, #114, #438, #218, #748, #84, #352, #816, #404, #552, #854, #254, #167, #41, #621, #610, #585, #688, #242, #384, #454, #483, #88 ) ) ;
#400 = CARTESIAN_POINT ( 'NONE',  ( 62.41080028239893807, 10.68708073385019830, 2.000000000000000000 ) ) ;
#401 = VECTOR ( 'NONE', #12, 1000.000000000000114 ) ;
#402 = ORIENTED_EDGE ( 'NONE', *, *, #788, .F. ) ;
#403 = AXIS2_PLACEMENT_3D ( 'NONE', #609, #879, #744 ) ;
#404 = ADVANCED_FACE ( 'NONE', ( #310 ), #180, .F. ) ;
#405 = CARTESIAN_POINT ( 'NONE',  ( -25.38799734748014103, -3.776923076923073275, 2.000000000000000000 ) ) ;
#406 = CARTESIAN_POINT ( 'NONE',  ( -97.58799734748012611, -39.27692307692307594, 0.000000000000000000 ) ) ;
#407 = ORIENTED_EDGE ( 'NONE', *, *, #15, .T. ) ;
#408 = LINE ( 'NONE', #201, #316 ) ;
#409 = CARTESIAN_POINT ( 'NONE',  ( 7.212002652519870161, -3.776923076923073719, -1.734723475976807883E-15 ) ) ;
#410 = CARTESIAN_POINT ( 'NONE',  ( 20.82500441292883764, 15.72307579550376033, 2.000000000000000000 ) ) ;
#411 = ORIENTED_EDGE ( 'NONE', *, *, #110, .T. ) ;
#412 = PRODUCT_CONTEXT ( 'NONE', #672, 'mechanical' ) ;
#413 = CARTESIAN_POINT ( 'NONE',  ( -96.58800094821914684, 10.72300095551155508, 2.000000000000000000 ) ) ;
#414 = EDGE_CURVE ( 'NONE', #145, #388, #33, .T. ) ;
#415 = LINE ( 'NONE', #410, #838 ) ;
#416 = ORIENTED_EDGE ( 'NONE', *, *, #516, .T. ) ;
#417 = AXIS2_PLACEMENT_3D ( 'NONE', #811, #154, #475 ) ;
#418 = CARTESIAN_POINT ( 'NONE',  ( 11.91200265251986856, -3.776923076923073719, 2.000000000000000000 ) ) ;
#419 = CARTESIAN_POINT ( 'NONE',  ( -99.58799734748014032, 29.72307692307692051, 5.000000000000000000 ) ) ;
#420 = ORIENTED_EDGE ( 'NONE', *, *, #425, .T. ) ;
#421 = APPLICATION_PROTOCOL_DEFINITION ( 'draft international standard', 'automotive_design', 1998, #728 ) ;
#422 = UNCERTAINTY_MEASURE_WITH_UNIT (LENGTH_MEASURE( 1.000000000000000082E-05 ), #863, 'distance_accuracy_value', 'NONE');
#423 = CARTESIAN_POINT ( 'NONE',  ( 83.41200265251985968, -37.27692307692306883, 0.000000000000000000 ) ) ;
#424 = VERTEX_POINT ( 'NONE', #505 ) ;
#425 = EDGE_CURVE ( 'NONE', #551, #690, #772, .T. ) ;
#426 = DIRECTION ( 'NONE',  ( 0.000000000000000000, 0.000000000000000000, 1.000000000000000000 ) ) ;
#427 = ORIENTED_EDGE ( 'NONE', *, *, #26, .F. ) ;
#428 = ORIENTED_EDGE ( 'NONE', *, *, #478, .F. ) ;
#429 = ADVANCED_FACE ( 'NONE', ( #701 ), #631, .T. ) ;
#430 = VECTOR ( 'NONE', #693, 1000.000000000000227 ) ;
#431 = CARTESIAN_POINT ( 'NONE',  ( -96.58800094821914684, 28.72267098620949710, 5.000000000000000000 ) ) ;
#432 = CARTESIAN_POINT ( 'NONE',  ( 81.41200265251985968, 29.72307692307692051, 0.000000000000000000 ) ) ;
#433 = DIRECTION ( 'NONE',  ( -1.000000000000000000, 0.000000000000000000, 0.000000000000000000 ) ) ;
#434 = EDGE_CURVE ( 'NONE', #292, #731, #171, .T. ) ;
#435 = DIRECTION ( 'NONE',  ( 0.000000000000000000, 0.000000000000000000, -1.000000000000000000 ) ) ;
#436 = ORIENTED_EDGE ( 'NONE', *, *, #802, .T. ) ;
#437 = CARTESIAN_POINT ( 'NONE',  ( 81.41200265251985968, 29.72307692307692051, 5.000000000000000000 ) ) ;
#438 = ADVANCED_FACE ( 'NONE', ( #241 ), #294, .T. ) ;
#439 = FACE_OUTER_BOUND ( 'NONE', #106, .T. ) ;
#440 = ORIENTED_EDGE ( 'NONE', *, *, #77, .T. ) ;
#441 = AXIS2_PLACEMENT_3D ( 'NONE', #34, #497, #580 ) ;
#442 = AXIS2_PLACEMENT_3D ( 'NONE', #489, #282, #144 ) ;
#443 = CARTESIAN_POINT ( 'NONE',  ( 81.41200265251985968, -39.27692307692306883, 0.000000000000000000 ) ) ;
#444 = VECTOR ( 'NONE', #202, 1000.000000000000000 ) ;
#445 = CARTESIAN_POINT ( 'NONE',  ( 81.41200265251985968, -39.27692307692306883, 5.000000000000000000 ) ) ;
#446 = VERTEX_POINT ( 'NONE', #232 ) ;
#447 = PLANE ( 'NONE',  #360 ) ;
#448 = DIRECTION ( 'NONE',  ( 1.000000000000000000, -0.000000000000000000, -0.000000000000000000 ) ) ;
#449 = VERTEX_POINT ( 'NONE', #377 ) ;
#450 = EDGE_CURVE ( 'NONE', #864, #633, #602, .T. ) ;
#451 = DIRECTION ( 'NONE',  ( -0.000000000000000000, -0.000000000000000000, 1.000000000000000000 ) ) ;
#452 = ORIENTED_EDGE ( 'NONE', *, *, #345, .F. ) ;
#453 =( LENGTH_UNIT ( ) NAMED_UNIT ( * ) SI_UNIT ( .MILLI., .METRE. ) );
#454 = ADVANCED_FACE ( 'NONE', ( #769, #168, #703 ), #579, .F. ) ;
#455 = LINE ( 'NONE', #722, #458 ) ;
#456 = CARTESIAN_POINT ( 'NONE',  ( 80.41199921542008155, 10.68775583959866182, 2.000000000000000000 ) ) ;
#457 = CONICAL_SURFACE ( 'NONE', #60, 4.699999999999999289, 0.7853981633974512766 ) ;
#458 = VECTOR ( 'NONE', #119, 1000.000000000000000 ) ;
#459 = ORIENTED_EDGE ( 'NONE', *, *, #773, .F. ) ;
#460 = CARTESIAN_POINT ( 'NONE',  ( -78.58792593042323915, -23.27692307692309015, 2.000000000000000000 ) ) ;
#461 = EDGE_CURVE ( 'NONE', #735, #145, #32, .T. ) ;
#462 = FACE_OUTER_BOUND ( 'NONE', #86, .T. ) ;
#463 = ORIENTED_EDGE ( 'NONE', *, *, #752, .F. ) ;
#464 = DIRECTION ( 'NONE',  ( 3.558407233080851476E-16, -1.000000000000000000, 0.000000000000000000 ) ) ;
#465 = FACE_OUTER_BOUND ( 'NONE', #267, .T. ) ;
#466 = DIRECTION ( 'NONE',  ( -0.000000000000000000, -0.000000000000000000, -1.000000000000000000 ) ) ;
#467 = ORIENTED_EDGE ( 'NONE', *, *, #425, .F. ) ;
#468 =( NAMED_UNIT ( * ) PLANE_ANGLE_UNIT ( ) SI_UNIT ( $, .RADIAN. ) );
#469 = CARTESIAN_POINT ( 'NONE',  ( -28.08799734748012966, -3.776923076923073719, 2.000000000000000000 ) ) ;
#470 = CARTESIAN_POINT ( 'NONE',  ( -28.08799734748012966, -3.776923076923073719, -1.734723475976807883E-15 ) ) ;
#471 = VECTOR ( 'NONE', #111, 1000.000000000000000 ) ;
#472 = ORIENTED_EDGE ( 'NONE', *, *, #237, .F. ) ;
#473 = CONICAL_SURFACE ( 'NONE', #754, 4.699999999999999289, 0.7853981633974509435 ) ;
#474 = DIRECTION ( 'NONE',  ( -0.000000000000000000, 0.000000000000000000, -1.000000000000000000 ) ) ;
#475 = DIRECTION ( 'NONE',  ( 1.000000000000000000, 0.000000000000000000, 0.000000000000000000 ) ) ;
#476 = LINE ( 'NONE', #614, #812 ) ;
#477 = VERTEX_POINT ( 'NONE', #124 ) ;
#478 = EDGE_CURVE ( 'NONE', #746, #555, #851, .T. ) ;
#479 = DIRECTION ( 'NONE',  ( 1.000000000000000000, 1.907611189489472821E-16, -0.000000000000000000 ) ) ;
#480 = DIRECTION ( 'NONE',  ( -1.000000000000000000, -3.558407233080851476E-16, 0.000000000000000000 ) ) ;
#481 = ORIENTED_EDGE ( 'NONE', *, *, #98, .F. ) ;
#482 = DIRECTION ( 'NONE',  ( -1.000000000000000000, 0.000000000000000000, 0.000000000000000000 ) ) ;
#483 = ADVANCED_FACE ( 'NONE', ( #256 ), #473, .F. ) ;
#484 = DIRECTION ( 'NONE',  ( 0.000000000000000000, -0.000000000000000000, 1.000000000000000000 ) ) ;
#485 = ORIENTED_EDGE ( 'NONE', *, *, #414, .T. ) ;
#486 = VECTOR ( 'NONE', #527, 1000.000000000000000 ) ;
#487 = VECTOR ( 'NONE', #479, 1000.000000000000000 ) ;
#488 = DIRECTION ( 'NONE',  ( -0.9999999999973702147, -2.293428648603675811E-06, 0.000000000000000000 ) ) ;
#489 = CARTESIAN_POINT ( 'NONE',  ( 80.41199757582123198, 28.72307692307691696, 2.000000000000000000 ) ) ;
#490 = EDGE_CURVE ( 'NONE', #309, #393, #857, .T. ) ;
#491 = ORIENTED_EDGE ( 'NONE', *, *, #640, .F. ) ;
#492 = ORIENTED_EDGE ( 'NONE', *, *, #54, .T. ) ;
#493 = PLANE ( 'NONE',  #442 ) ;
#494 = VERTEX_POINT ( 'NONE', #269 ) ;
#495 = EDGE_CURVE ( 'NONE', #690, #346, #806, .T. ) ;
#496 = DIRECTION ( 'NONE',  ( 0.9999999999999958922, 9.091043281086633795E-08, 0.000000000000000000 ) ) ;
#497 = DIRECTION ( 'NONE',  ( -1.000000000000000000, 0.000000000000000000, 0.000000000000000000 ) ) ;
#498 = EDGE_CURVE ( 'NONE', #449, #370, #538, .T. ) ;
#499 = VECTOR ( 'NONE', #344, 1000.000000000000000 ) ;
#500 = VECTOR ( 'NONE', #488, 999.9999999999998863 ) ;
#501 = DIRECTION ( 'NONE',  ( -1.000000000000000000, 0.000000000000000000, 0.000000000000000000 ) ) ;
#502 = PRODUCT_DEFINITION_FORMATION_WITH_SPECIFIED_SOURCE ( 'ANY', '', #181, .NOT_KNOWN. ) ;
#503 = DIRECTION ( 'NONE',  ( 3.750337688548675071E-05, -0.9999999992967483209, 0.000000000000000000 ) ) ;
#504 = ORIENTED_EDGE ( 'NONE', *, *, #157, .T. ) ;
#505 = CARTESIAN_POINT ( 'NONE',  ( 83.41200265251985968, 29.72307692307692051, 0.000000000000000000 ) ) ;
#506 = DIRECTION ( 'NONE',  ( -0.000000000000000000, -0.000000000000000000, -1.000000000000000000 ) ) ;
#507 = ORIENTED_EDGE ( 'NONE', *, *, #48, .F. ) ;
#508 = LINE ( 'NONE', #716, #739 ) ;
#509 = CARTESIAN_POINT ( 'NONE',  ( 81.41200265251985968, 31.72307692307691696, 0.000000000000000000 ) ) ;
#510 = ORIENTED_EDGE ( 'NONE', *, *, #835, .T. ) ;
#511 = VECTOR ( 'NONE', #506, 1000.000000000000000 ) ;
#512 = VECTOR ( 'NONE', #833, 1000.000000000000000 ) ;
#513 = FACE_OUTER_BOUND ( 'NONE', #625, .T. ) ;
#514 = VECTOR ( 'NONE', #255, 1000.000000000000000 ) ;
#515 = CARTESIAN_POINT ( 'NONE',  ( -99.58799734748014032, 29.72307692307692051, 5.000000000000000000 ) ) ;
#516 = EDGE_CURVE ( 'NONE', #755, #517, #335, .T. ) ;
#517 = VERTEX_POINT ( 'NONE', #738 ) ;
#518 = LINE ( 'NONE', #460, #691 ) ;
#519 = ORIENTED_EDGE ( 'NONE', *, *, #708, .T. ) ;
#520 = LINE ( 'NONE', #593, #249 ) ;
#521 = CARTESIAN_POINT ( 'NONE',  ( 20.82500441292884474, -23.27692307692307949, 2.000000000000000000 ) ) ;
#522 = CARTESIAN_POINT ( 'NONE',  ( -99.58799734748014032, 29.72307692307692051, 0.000000000000000000 ) ) ;
#523 = ORIENTED_EDGE ( 'NONE', *, *, #206, .F. ) ;
#524 = DIRECTION ( 'NONE',  ( 3.750337688548675071E-05, -0.9999999992967483209, 0.000000000000000000 ) ) ;
#525 = EDGE_CURVE ( 'NONE', #731, #424, #652, .T. ) ;
#526 = LINE ( 'NONE', #383, #869 ) ;
#527 = DIRECTION ( 'NONE',  ( -0.000000000000000000, 1.000000000000000000, -0.000000000000000000 ) ) ;
#528 = COLOUR_RGB ( '',0.7921568627450980005, 0.8196078431372548767, 0.9333333333333333481 ) ;
#529 = CIRCLE ( 'NONE', #150, 2.000000000000001776 ) ;
#530 = ORIENTED_EDGE ( 'NONE', *, *, #6, .T. ) ;
#531 = DIRECTION ( 'NONE',  ( 0.000000000000000000, 0.000000000000000000, -1.000000000000000000 ) ) ;
#532 = PLANE ( 'NONE',  #373 ) ;
#533 = EDGE_CURVE ( 'NONE', #379, #309, #390, .T. ) ;
#534 = CARTESIAN_POINT ( 'NONE',  ( 62.41207404723531482, -23.27692307702308128, 5.000000000000000000 ) ) ;
#535 = ORIENTED_EDGE ( 'NONE', *, *, #835, .F. ) ;
#536 = CARTESIAN_POINT ( 'NONE',  ( -78.58920106770457892, 10.72367597128744876, 5.000000000000000000 ) ) ;
#537 = ORIENTED_EDGE ( 'NONE', *, *, #547, .T. ) ;
#538 = LINE ( 'NONE', #521, #444 ) ;
#539 = CARTESIAN_POINT ( 'NONE',  ( -97.58799734748014032, 31.72307692307692406, 0.000000000000000000 ) ) ;
#540 = ORIENTED_EDGE ( 'NONE', *, *, #54, .F. ) ;
#541 = CARTESIAN_POINT ( 'NONE',  ( 62.41080028239893807, 10.68708073385019830, 2.000000000000000000 ) ) ;
#542 = FACE_OUTER_BOUND ( 'NONE', #612, .T. ) ;
#543 = VECTOR ( 'NONE', #381, 1000.000000000000227 ) ;
#544 = LINE ( 'NONE', #211, #17 ) ;
#545 = VECTOR ( 'NONE', #159, 1000.000000000000114 ) ;
#546 = ORIENTED_EDGE ( 'NONE', *, *, #661, .F. ) ;
#547 = EDGE_CURVE ( 'NONE', #477, #356, #518, .T. ) ;
#548 =( GEOMETRIC_REPRESENTATION_CONTEXT ( 3 ) GLOBAL_UNCERTAINTY_ASSIGNED_CONTEXT ( ( #82 ) ) GLOBAL_UNIT_ASSIGNED_CONTEXT ( ( #453, #468, #861 ) ) REPRESENTATION_CONTEXT ( 'NONE', 'WORKASPACE' ) );
#549 = DIRECTION ( 'NONE',  ( 1.000000000000000000, 1.046980590946524270E-16, 0.000000000000000000 ) ) ;
#550 = LINE ( 'NONE', #287, #430 ) ;
#551 = VERTEX_POINT ( 'NONE', #589 ) ;
#552 = ADVANCED_FACE ( 'NONE', ( #599 ), #394, .F. ) ;
#553 = CARTESIAN_POINT ( 'NONE',  ( 83.41200265251985968, 29.72307692307692051, 5.000000000000000000 ) ) ;
#554 = CARTESIAN_POINT ( 'NONE',  ( 83.41200265251985968, -37.27692307692306883, 5.000000000000000000 ) ) ;
#555 = VERTEX_POINT ( 'NONE', #259 ) ;
#556 = CARTESIAN_POINT ( 'NONE',  ( 0.000000000000000000, 0.000000000000000000, 0.000000000000000000 ) ) ;
#557 = CARTESIAN_POINT ( 'NONE',  ( -96.58800094821914684, 10.72300095551155508, 2.000000000000000000 ) ) ;
#558 = CARTESIAN_POINT ( 'NONE',  ( -97.58799734748012611, -37.27692307692306883, 5.000000000000000000 ) ) ;
#559 = ORIENTED_EDGE ( 'NONE', *, *, #860, .T. ) ;
#560 = VECTOR ( 'NONE', #874, 1000.000000000000000 ) ;
#561 = EDGE_CURVE ( 'NONE', #726, #109, #526, .T. ) ;
#562 = DIRECTION ( 'NONE',  ( 0.000000000000000000, 1.000000000000000000, 0.000000000000000000 ) ) ;
#563 = ORIENTED_EDGE ( 'NONE', *, *, #434, .F. ) ;
#564 = DIRECTION ( 'NONE',  ( 0.000000000000000000, 0.000000000000000000, 1.000000000000000000 ) ) ;
#565 = ORIENTED_EDGE ( 'NONE', *, *, #334, .F. ) ;
#566 = CARTESIAN_POINT ( 'NONE',  ( -78.58792593042323915, -23.27692307692309015, 5.000000000000000000 ) ) ;
#567 = EDGE_LOOP ( 'NONE', ( #624, #859, #565, #216 ) ) ;
#568 = DIRECTION ( 'NONE',  ( -0.000000000000000000, 1.000000000000000000, -0.000000000000000000 ) ) ;
#569 = FACE_OUTER_BOUND ( 'NONE', #596, .T. ) ;
#570 = ORIENTED_EDGE ( 'NONE', *, *, #495, .F. ) ;
#571 = VECTOR ( 'NONE', #49, 1000.000000000000000 ) ;
#572 = AXIS2_PLACEMENT_3D ( 'NONE', #638, #719, #313 ) ;
#573 = DIRECTION ( 'NONE',  ( 0.7071067811865496822, 8.659560562354958743E-17, -0.7071067811865454633 ) ) ;
#574 = DIRECTION ( 'NONE',  ( 0.9999999992967483209, 3.750337688624503493E-05, 0.000000000000000000 ) ) ;
#575 = EDGE_LOOP ( 'NONE', ( #366, #523, #872, #416 ) ) ;
#576 = CARTESIAN_POINT ( 'NONE',  ( 81.41200265251985968, 29.72307692307692051, 5.000000000000000000 ) ) ;
#577 = CARTESIAN_POINT ( 'NONE',  ( -78.58920106770457892, 10.72367597128744876, 2.000000000000000000 ) ) ;
#578 = ORIENTED_EDGE ( 'NONE', *, *, #678, .T. ) ;
#579 = PLANE ( 'NONE',  #840 ) ;
#580 = DIRECTION ( 'NONE',  ( 0.000000000000000000, 0.000000000000000000, 1.000000000000000000 ) ) ;
#581 = VERTEX_POINT ( 'NONE', #47 ) ;
#582 = AXIS2_PLACEMENT_3D ( 'NONE', #576, #365, #634 ) ;
#583 = DIRECTION ( 'NONE',  ( -0.000000000000000000, -0.000000000000000000, -1.000000000000000000 ) ) ;
#584 = VECTOR ( 'NONE', #737, 1000.000000000000000 ) ;
#585 = ADVANCED_FACE ( 'NONE', ( #327 ), #729, .F. ) ;
#586 = DIRECTION ( 'NONE',  ( -1.000000000000000000, 0.000000000000000000, 0.000000000000000000 ) ) ;
#587 = ORIENTED_EDGE ( 'NONE', *, *, #743, .T. ) ;
#588 = CARTESIAN_POINT ( 'NONE',  ( 62.41080028239893807, 10.68708073385019830, 2.000000000000000000 ) ) ;
#589 = CARTESIAN_POINT ( 'NONE',  ( 62.41207404723531482, -23.27692307702308128, 2.000000000000000000 ) ) ;
#590 = CARTESIAN_POINT ( 'NONE',  ( 83.41200265251985968, 29.72307692307692051, 0.000000000000000000 ) ) ;
#591 = ORIENTED_EDGE ( 'NONE', *, *, #683, .T. ) ;
#592 = EDGE_CURVE ( 'NONE', #355, #714, #61, .T. ) ;
#593 = CARTESIAN_POINT ( 'NONE',  ( -23.38799734748013037, -3.776923076923073275, -1.734723475976807883E-15 ) ) ;
#594 = FACE_OUTER_BOUND ( 'NONE', #685, .T. ) ;
#595 = SURFACE_SIDE_STYLE ('',( #611 ) ) ;
#596 = EDGE_LOOP ( 'NONE', ( #53, #535, #225, #783 ) ) ;
#597 = DIRECTION ( 'NONE',  ( -1.000000000000000000, 3.876477041288954935E-17, -0.000000000000000000 ) ) ;
#598 = EDGE_CURVE ( 'NONE', #555, #305, #455, .T. ) ;
#599 = FACE_OUTER_BOUND ( 'NONE', #38, .T. ) ;
#600 = AXIS2_PLACEMENT_3D ( 'NONE', #470, #675, #871 ) ;
#601 = FILL_AREA_STYLE_COLOUR ( '', #528 ) ;
#602 = CIRCLE ( 'NONE', #660, 4.699999999999999289 ) ;
#603 = ORIENTED_EDGE ( 'NONE', *, *, #547, .F. ) ;
#604 = CARTESIAN_POINT ( 'NONE',  ( 57.19978530192257438, 15.72307579550376744, 2.000000000000000000 ) ) ;
#605 = DIRECTION ( 'NONE',  ( 0.000000000000000000, 0.000000000000000000, -1.000000000000000000 ) ) ;
#606 = FILL_AREA_STYLE ('',( #601 ) ) ;
#607 = ORIENTED_EDGE ( 'NONE', *, *, #376, .T. ) ;
#608 = DIRECTION ( 'NONE',  ( -1.000000000000000000, 0.000000000000000000, 0.000000000000000000 ) ) ;
#609 = CARTESIAN_POINT ( 'NONE',  ( 81.41200265251985968, -37.27692307692306883, 5.000000000000000000 ) ) ;
#610 = ADVANCED_FACE ( 'NONE', ( #594 ), #532, .F. ) ;
#611 = SURFACE_STYLE_FILL_AREA ( #606 ) ;
#612 = EDGE_LOOP ( 'NONE', ( #317, #197, #192, #662 ) ) ;
#613 = CARTESIAN_POINT ( 'NONE',  ( 62.41207404723531482, -23.27692307702308128, 5.000000000000000000 ) ) ;
#614 = CARTESIAN_POINT ( 'NONE',  ( -97.58799734748012611, -39.27692307692306883, 5.000000000000000000 ) ) ;
#615 = AXIS2_PLACEMENT_3D ( 'NONE', #140, #278, #818 ) ;
#616 = EDGE_LOOP ( 'NONE', ( #720, #467, #182, #620 ) ) ;
#617 = AXIS2_PLACEMENT_3D ( 'NONE', #789, #323, #190 ) ;
#618 = DIRECTION ( 'NONE',  ( 1.000000000000000000, 1.046980590946524393E-16, -0.000000000000000000 ) ) ;
#619 = PLANE ( 'NONE',  #118 ) ;
#620 = ORIENTED_EDGE ( 'NONE', *, *, #206, .T. ) ;
#621 = ADVANCED_FACE ( 'NONE', ( #465 ), #733, .F. ) ;
#622 = DIRECTION ( 'NONE',  ( 0.9999999992967483209, 3.750337688620764351E-05, 0.000000000000000000 ) ) ;
#623 = LINE ( 'NONE', #829, #401 ) ;
#624 = ORIENTED_EDGE ( 'NONE', *, *, #21, .T. ) ;
#625 = EDGE_LOOP ( 'NONE', ( #847, #472, #427, #130 ) ) ;
#626 = DIRECTION ( 'NONE',  ( 0.000000000000000000, -1.000000000000000000, 0.000000000000000000 ) ) ;
#627 = VERTEX_POINT ( 'NONE', #557 ) ;
#628 = VECTOR ( 'NONE', #740, 1000.000000000000227 ) ;
#629 = EDGE_LOOP ( 'NONE', ( #81, #850 ) ) ;
#630 = VECTOR ( 'NONE', #251, 999.9999999999998863 ) ;
#631 = CYLINDRICAL_SURFACE ( 'NONE', #582, 2.000000000000001776 ) ;
#632 = ORIENTED_EDGE ( 'NONE', *, *, #592, .T. ) ;
#633 = VERTEX_POINT ( 'NONE', #409 ) ;
#634 = DIRECTION ( 'NONE',  ( -1.000000000000000000, 0.000000000000000000, 0.000000000000000000 ) ) ;
#635 = EDGE_CURVE ( 'NONE', #292, #325, #823, .T. ) ;
#636 = LINE ( 'NONE', #577, #208 ) ;
#637 = EDGE_LOOP ( 'NONE', ( #300, #507, #570, #666, #244, #158, #786, #655, #64, #296, #831, #546 ) ) ;
#638 = CARTESIAN_POINT ( 'NONE',  ( -97.58799734748012611, -37.27692307692306883, 0.000000000000000000 ) ) ;
#639 = CARTESIAN_POINT ( 'NONE',  ( -28.08799734748012966, -3.776923076923073719, -1.734723475976807883E-15 ) ) ;
#640 = EDGE_CURVE ( 'NONE', #367, #359, #76, .T. ) ;
#641 = EDGE_LOOP ( 'NONE', ( #364, #877, #23, #504, #283, #92, #791, #873, #762, #578, #530, #27 ) ) ;
#642 = AXIS2_PLACEMENT_3D ( 'NONE', #515, #770, #169 ) ;
#643 = VECTOR ( 'NONE', #238, 1000.000000000000000 ) ;
#644 = AXIS2_PLACEMENT_3D ( 'NONE', #207, #188, #742 ) ;
#645 = DIRECTION ( 'NONE',  ( 0.9999999992967483209, 3.750337688624503493E-05, 0.000000000000000000 ) ) ;
#646 = LINE ( 'NONE', #99, #543 ) ;
#647 = ORIENTED_EDGE ( 'NONE', *, *, #875, .F. ) ;
#648 = EDGE_CURVE ( 'NONE', #268, #161, #277, .T. ) ;
#649 = CARTESIAN_POINT ( 'NONE',  ( 11.91200265251986856, -3.776923076923073719, -1.734723475976807883E-15 ) ) ;
#650 = CARTESIAN_POINT ( 'NONE',  ( -97.58799734748012611, -39.27692307692307594, 5.000000000000000000 ) ) ;
#651 = EDGE_LOOP ( 'NONE', ( #351, #607, #822, #342 ) ) ;
#652 = LINE ( 'NONE', #40, #4 ) ;
#653 = ORIENTED_EDGE ( 'NONE', *, *, #414, .F. ) ;
#654 = ADVANCED_BREP_SHAPE_REPRESENTATION ( 'z1', ( #203, #333 ), #548 ) ;
#655 = ORIENTED_EDGE ( 'NONE', *, *, #258, .F. ) ;
#656 = AXIS2_PLACEMENT_3D ( 'NONE', #42, #369, #374 ) ;
#657 = CIRCLE ( 'NONE', #314, 2.699999999999987299 ) ;
#658 = VECTOR ( 'NONE', #790, 1000.000000000000000 ) ;
#659 = DIRECTION ( 'NONE',  ( -3.750337688615642851E-05, 0.9999999992967483209, 0.000000000000000000 ) ) ;
#660 = AXIS2_PLACEMENT_3D ( 'NONE', #649, #36, #501 ) ;
#661 = EDGE_CURVE ( 'NONE', #681, #393, #222, .T. ) ;
#662 = ORIENTED_EDGE ( 'NONE', *, *, #490, .T. ) ;
#663 = FACE_OUTER_BOUND ( 'NONE', #651, .T. ) ;
#664 = DIRECTION ( 'NONE',  ( 0.9999999992967484319, 3.750337688615643528E-05, 0.000000000000000000 ) ) ;
#665 = CARTESIAN_POINT ( 'NONE',  ( -99.58799734748014032, 29.72307692307692051, 5.000000000000000000 ) ) ;
#666 = ORIENTED_EDGE ( 'NONE', *, *, #184, .F. ) ;
#667 = LINE ( 'NONE', #536, #814 ) ;
#668 = CARTESIAN_POINT ( 'NONE',  ( 80.41199757582123198, 28.72307692307691696, 2.000000000000000000 ) ) ;
#669 = DIRECTION ( 'NONE',  ( 1.000000000000000000, -3.876477041288954935E-17, 0.000000000000000000 ) ) ;
#670 = VERTEX_POINT ( 'NONE', #147 ) ;
#671 = CARTESIAN_POINT ( 'NONE',  ( 62.41207404723531482, -23.27692307702308128, 2.000000000000000000 ) ) ;
#672 = APPLICATION_CONTEXT ( 'automotive_design' ) ;
#673 = CARTESIAN_POINT ( 'NONE',  ( 20.82500441292884474, -23.27692307692307949, 2.000000000000000000 ) ) ;
#674 = VECTOR ( 'NONE', #761, 1000.000000000000000 ) ;
#675 = DIRECTION ( 'NONE',  ( -0.000000000000000000, -0.000000000000000000, -1.000000000000000000 ) ) ;
#676 = VECTOR ( 'NONE', #618, 1000.000000000000000 ) ;
#677 = ORIENTED_EDGE ( 'NONE', *, *, #246, .T. ) ;
#678 = EDGE_CURVE ( 'NONE', #755, #13, #747, .T. ) ;
#679 = CARTESIAN_POINT ( 'NONE',  ( 80.41199757582123198, 28.72307692307691696, 5.000000000000000000 ) ) ;
#680 = PLANE ( 'NONE',  #248 ) ;
#681 = VERTEX_POINT ( 'NONE', #757 ) ;
#682 = CARTESIAN_POINT ( 'NONE',  ( 20.82500441292884474, -23.27692307692307949, 5.000000000000000000 ) ) ;
#683 = EDGE_CURVE ( 'NONE', #670, #250, #343, .T. ) ;
#684 = DIRECTION ( 'NONE',  ( 1.000000000000000000, 1.046980590946524393E-16, -0.000000000000000000 ) ) ;
#685 = EDGE_LOOP ( 'NONE', ( #436, #603, #285, #591 ) ) ;
#686 = LINE ( 'NONE', #214, #487 ) ;
#687 = DIRECTION ( 'NONE',  ( 3.558407233080851476E-16, -1.000000000000000000, 0.000000000000000000 ) ) ;
#688 = ADVANCED_FACE ( 'NONE', ( #542 ), #7, .F. ) ;
#689 = AXIS2_PLACEMENT_3D ( 'NONE', #745, #562, #484 ) ;
#690 = VERTEX_POINT ( 'NONE', #613 ) ;
#691 = VECTOR ( 'NONE', #451, 1000.000000000000000 ) ;
#692 = CARTESIAN_POINT ( 'NONE',  ( 57.19978530192257438, 15.72307579550376744, 2.000000000000000000 ) ) ;
#693 = DIRECTION ( 'NONE',  ( -9.091043281086632472E-08, 0.9999999999999957812, 0.000000000000000000 ) ) ;
#694 = EDGE_LOOP ( 'NONE', ( #647, #832, #844, #236 ) ) ;
#695 = LINE ( 'NONE', #149, #499 ) ;
#696 = ORIENTED_EDGE ( 'NONE', *, *, #661, .T. ) ;
#697 = CARTESIAN_POINT ( 'NONE',  ( -96.58800094821914684, 28.72267098620949710, 2.000000000000000000 ) ) ;
#698 = VERTEX_POINT ( 'NONE', #79 ) ;
#699 =( GEOMETRIC_REPRESENTATION_CONTEXT ( 3 ) GLOBAL_UNCERTAINTY_ASSIGNED_CONTEXT ( ( #422 ) ) GLOBAL_UNIT_ASSIGNED_CONTEXT ( ( #863, #785, #385 ) ) REPRESENTATION_CONTEXT ( 'NONE', 'WORKASPACE' ) );
#700 = VECTOR ( 'NONE', #263, 1000.000000000000000 ) ;
#701 = FACE_OUTER_BOUND ( 'NONE', #567, .T. ) ;
#702 = CARTESIAN_POINT ( 'NONE',  ( 11.91200265251986856, -3.776923076923073719, -1.734723475976807883E-15 ) ) ;
#703 = FACE_OUTER_BOUND ( 'NONE', #641, .T. ) ;
#704 = PLANE ( 'NONE',  #642 ) ;
#705 = ORIENTED_EDGE ( 'NONE', *, *, #450, .F. ) ;
#706 = CARTESIAN_POINT ( 'NONE',  ( 20.82500441292883764, 15.72307579550376033, 2.000000000000000000 ) ) ;
#707 = ORIENTED_EDGE ( 'NONE', *, *, #743, .F. ) ;
#708 = EDGE_CURVE ( 'NONE', #161, #517, #686, .T. ) ;
#709 = ORIENTED_EDGE ( 'NONE', *, *, #143, .T. ) ;
#710 = AXIS2_PLACEMENT_3D ( 'NONE', #858, #125, #669 ) ;
#711 = AXIS2_PLACEMENT_3D ( 'NONE', #866, #805, #608 ) ;
#712 = DIRECTION ( 'NONE',  ( -1.000000000000000000, 0.000000000000000000, 0.000000000000000000 ) ) ;
#713 = CARTESIAN_POINT ( 'NONE',  ( -96.58800094821914684, 10.72300095551155508, 2.000000000000000000 ) ) ;
#714 = VERTEX_POINT ( 'NONE', #1 ) ;
#715 = EDGE_CURVE ( 'NONE', #477, #449, #74, .T. ) ;
#716 = CARTESIAN_POINT ( 'NONE',  ( 62.41207404723531482, -23.27692307702308128, 2.000000000000000000 ) ) ;
#717 = EDGE_LOOP ( 'NONE', ( #587, #828, #44, #559 ) ) ;
#718 = ORIENTED_EDGE ( 'NONE', *, *, #246, .F. ) ;
#719 = DIRECTION ( 'NONE',  ( 0.000000000000000000, 0.000000000000000000, 1.000000000000000000 ) ) ;
#720 = ORIENTED_EDGE ( 'NONE', *, *, #184, .T. ) ;
#721 = DIRECTION ( 'NONE',  ( 0.000000000000000000, 0.000000000000000000, -1.000000000000000000 ) ) ;
#722 = CARTESIAN_POINT ( 'NONE',  ( -32.78799734748012895, -3.776923076923073719, -1.734723475976807883E-15 ) ) ;
#723 = PRODUCT_DEFINITION ( 'UNKNOWN', '', #502, #166 ) ;
#724 = AXIS2_PLACEMENT_3D ( 'NONE', #673, #128, #549 ) ;
#725 = CARTESIAN_POINT ( 'NONE',  ( 57.19978530192258859, -23.27692307702308128, 2.000000000000000000 ) ) ;
#726 = VERTEX_POINT ( 'NONE', #751 ) ;
#727 = FACE_OUTER_BOUND ( 'NONE', #160, .T. ) ;
#728 = APPLICATION_CONTEXT ( 'automotive_design' ) ;
#729 = PLANE ( 'NONE',  #105 ) ;
#730 = LINE ( 'NONE', #534, #104 ) ;
#731 = VERTEX_POINT ( 'NONE', #553 ) ;
#732 = CARTESIAN_POINT ( 'NONE',  ( 81.41200265251985968, 29.72307692307692051, 0.000000000000000000 ) ) ;
#733 = PLANE ( 'NONE',  #724 ) ;
#734 = DIRECTION ( 'NONE',  ( 1.907611189489472574E-16, -1.000000000000000000, 0.000000000000000000 ) ) ;
#735 = VERTEX_POINT ( 'NONE', #820 ) ;
#736 = EDGE_CURVE ( 'NONE', #627, #670, #217, .T. ) ;
#737 = DIRECTION ( 'NONE',  ( 1.000000000000000000, 1.907611189489472821E-16, -0.000000000000000000 ) ) ;
#738 = CARTESIAN_POINT ( 'NONE',  ( 57.19978530192257438, 15.72307579550376744, 5.000000000000000000 ) ) ;
#739 = VECTOR ( 'NONE', #162, 1000.000000000000114 ) ;
#740 = DIRECTION ( 'NONE',  ( 0.9999999992967483209, 3.750337688624503493E-05, 0.000000000000000000 ) ) ;
#741 = ORIENTED_EDGE ( 'NONE', *, *, #71, .T. ) ;
#742 = DIRECTION ( 'NONE',  ( 1.000000000000000000, 0.000000000000000000, 0.000000000000000000 ) ) ;
#743 = EDGE_CURVE ( 'NONE', #581, #205, #387, .T. ) ;
#744 = DIRECTION ( 'NONE',  ( -1.000000000000000000, 0.000000000000000000, 0.000000000000000000 ) ) ;
#745 = CARTESIAN_POINT ( 'NONE',  ( -97.58799734748012611, -39.27692307692306883, 5.000000000000000000 ) ) ;
#746 = VERTEX_POINT ( 'NONE', #405 ) ;
#747 = LINE ( 'NONE', #692, #303 ) ;
#748 = ADVANCED_FACE ( 'NONE', ( #66 ), #339, .T. ) ;
#749 = LINE ( 'NONE', #880, #289 ) ;
#750 = ORIENTED_EDGE ( 'NONE', *, *, #808, .F. ) ;
#751 = CARTESIAN_POINT ( 'NONE',  ( 81.41200265251985968, 31.72307692307691696, 5.000000000000000000 ) ) ;
#752 = EDGE_CURVE ( 'NONE', #388, #325, #529, .T. ) ;
#753 = DIRECTION ( 'NONE',  ( -0.000000000000000000, -0.000000000000000000, 1.000000000000000000 ) ) ;
#754 = AXIS2_PLACEMENT_3D ( 'NONE', #115, #583, #56 ) ;
#755 = VERTEX_POINT ( 'NONE', #389 ) ;
#756 = ORIENTED_EDGE ( 'NONE', *, *, #195, .T. ) ;
#757 = CARTESIAN_POINT ( 'NONE',  ( 80.41199757582123198, 28.72307692307691696, 5.000000000000000000 ) ) ;
#758 = DIRECTION ( 'NONE',  ( -0.000000000000000000, -0.000000000000000000, -1.000000000000000000 ) ) ;
#759 = ORIENTED_EDGE ( 'NONE', *, *, #498, .F. ) ;
#760 = DIRECTION ( 'NONE',  ( 1.000000000000000000, 0.000000000000000000, 0.000000000000000000 ) ) ;
#761 = DIRECTION ( 'NONE',  ( 0.000000000000000000, -1.000000000000000000, 0.000000000000000000 ) ) ;
#762 = ORIENTED_EDGE ( 'NONE', *, *, #830, .T. ) ;
#763 = ORIENTED_EDGE ( 'NONE', *, *, #752, .T. ) ;
#764 = DIRECTION ( 'NONE',  ( -9.091043281086632472E-08, 0.9999999999999957812, 0.000000000000000000 ) ) ;
#765 = LINE ( 'NONE', #650, #511 ) ;
#766 = PRESENTATION_LAYER_ASSIGNMENT (  '', '', ( #2 ) ) ;
#767 = AXIS2_PLACEMENT_3D ( 'NONE', #469, #605, #398 ) ;
#768 = PRODUCT_RELATED_PRODUCT_CATEGORY ( 'part', '', ( #181 ) ) ;
#769 = FACE_BOUND ( 'NONE', #629, .T. ) ;
#770 = DIRECTION ( 'NONE',  ( 1.000000000000000000, 0.000000000000000000, -0.000000000000000000 ) ) ;
#771 = ORIENTED_EDGE ( 'NONE', *, *, #295, .F. ) ;
#772 = LINE ( 'NONE', #781, #471 ) ;
#773 = EDGE_CURVE ( 'NONE', #31, #292, #264, .T. ) ;
#774 = CARTESIAN_POINT ( 'NONE',  ( 57.19978530192258859, -23.27692307702308128, 2.000000000000000000 ) ) ;
#775 = EDGE_LOOP ( 'NONE', ( #696, #226, #156, #288 ) ) ;
#776 = CARTESIAN_POINT ( 'NONE',  ( -97.58799734748012611, -37.27692307692306883, 5.000000000000000000 ) ) ;
#777 = DIRECTION ( 'NONE',  ( -1.000000000000000000, 0.000000000000000000, 0.000000000000000000 ) ) ;
#778 = VERTEX_POINT ( 'NONE', #541 ) ;
#779 = CIRCLE ( 'NONE', #795, 2.000000000000001776 ) ;
#780 = AXIS2_PLACEMENT_3D ( 'NONE', #671, #59, #721 ) ;
#781 = CARTESIAN_POINT ( 'NONE',  ( 62.41207404723531482, -23.27692307702308128, 2.000000000000000000 ) ) ;
#782 = PLANE ( 'NONE',  #441 ) ;
#783 = ORIENTED_EDGE ( 'NONE', *, *, #299, .T. ) ;
#784 = DIRECTION ( 'NONE',  ( -3.750337688615642851E-05, 0.9999999992967483209, 0.000000000000000000 ) ) ;
#785 =( NAMED_UNIT ( * ) PLANE_ANGLE_UNIT ( ) SI_UNIT ( $, .RADIAN. ) );
#786 = ORIENTED_EDGE ( 'NONE', *, *, #648, .F. ) ;
#787 = DIRECTION ( 'NONE',  ( 0.7071067811865493491, 8.659560562354955045E-17, -0.7071067811865456854 ) ) ;
#788 = EDGE_CURVE ( 'NONE', #726, #355, #326, .T. ) ;
#789 = CARTESIAN_POINT ( 'NONE',  ( -97.58799734748014032, 29.72307692307692051, 5.000000000000000000 ) ) ;
#790 = DIRECTION ( 'NONE',  ( -0.000000000000000000, -0.000000000000000000, 1.000000000000000000 ) ) ;
#791 = ORIENTED_EDGE ( 'NONE', *, *, #715, .T. ) ;
#792 = CARTESIAN_POINT ( 'NONE',  ( 16.61200265251986963, -3.776923076923073275, -1.734723475976807883E-15 ) ) ;
#793 = CIRCLE ( 'NONE', #824, 4.699999999999999289 ) ;
#794 = ADVANCED_FACE ( 'NONE', ( #663 ), #223, .F. ) ;
#795 = AXIS2_PLACEMENT_3D ( 'NONE', #3, #813, #357 ) ;
#796 = DIRECTION ( 'NONE',  ( -0.000000000000000000, -0.000000000000000000, -1.000000000000000000 ) ) ;
#797 = AXIS2_PLACEMENT_3D ( 'NONE', #413, #142, #210 ) ;
#798 = FACE_OUTER_BOUND ( 'NONE', #358, .T. ) ;
#799 = EDGE_LOOP ( 'NONE', ( #275, #271, #153, #228 ) ) ;
#800 = FACE_OUTER_BOUND ( 'NONE', #616, .T. ) ;
#801 = DIRECTION ( 'NONE',  ( -0.9999999992967484319, -3.750337688548675748E-05, 0.000000000000000000 ) ) ;
#802 = EDGE_CURVE ( 'NONE', #250, #356, #667, .T. ) ;
#803 = FACE_OUTER_BOUND ( 'NONE', #230, .T. ) ;
#804 = ORIENTED_EDGE ( 'NONE', *, *, #376, .F. ) ;
#805 = DIRECTION ( 'NONE',  ( -0.000000000000000000, -0.000000000000000000, -1.000000000000000000 ) ) ;
#806 = LINE ( 'NONE', #62, #276 ) ;
#807 = CARTESIAN_POINT ( 'NONE',  ( -97.58799734748014032, 29.72307692307692051, 5.000000000000000000 ) ) ;
#808 = EDGE_CURVE ( 'NONE', #778, #346, #127, .T. ) ;
#809 = EDGE_LOOP ( 'NONE', ( #804, #491, #78, #122 ) ) ;
#810 = CARTESIAN_POINT ( 'NONE',  ( -97.58799734748014032, 31.72307692307692406, 5.000000000000000000 ) ) ;
#811 = CARTESIAN_POINT ( 'NONE',  ( -97.58799734748014032, 29.72307692307692051, 0.000000000000000000 ) ) ;
#812 = VECTOR ( 'NONE', #350, 1000.000000000000000 ) ;
#813 = DIRECTION ( 'NONE',  ( 0.000000000000000000, 0.000000000000000000, 1.000000000000000000 ) ) ;
#814 = VECTOR ( 'NONE', #524, 1000.000000000000227 ) ;
#815 = ORIENTED_EDGE ( 'NONE', *, *, #340, .F. ) ;
#816 = ADVANCED_FACE ( 'NONE', ( #65, #46, #727 ), #272, .T. ) ;
#817 = DIRECTION ( 'NONE',  ( 3.558407233080851476E-16, -1.000000000000000000, 0.000000000000000000 ) ) ;
#818 = DIRECTION ( 'NONE',  ( -1.000000000000000000, 0.000000000000000000, 0.000000000000000000 ) ) ;
#819 = ORIENTED_EDGE ( 'NONE', *, *, #320, .F. ) ;
#820 = CARTESIAN_POINT ( 'NONE',  ( -99.58799734748014032, -37.27692307692306883, 0.000000000000000000 ) ) ;
#821 = CARTESIAN_POINT ( 'NONE',  ( 57.19978530192257438, 15.72307579550376744, 2.000000000000000000 ) ) ;
#822 = ORIENTED_EDGE ( 'NONE', *, *, #450, .T. ) ;
#823 = LINE ( 'NONE', #70, #91 ) ;
#824 = AXIS2_PLACEMENT_3D ( 'NONE', #639, #103, #586 ) ;
#825 = PLANE ( 'NONE',  #689 ) ;
#826 = AXIS2_PLACEMENT_3D ( 'NONE', #298, #846, #29 ) ;
#827 = AXIS2_PLACEMENT_3D ( 'NONE', #856, #531, #322 ) ;
#828 = ORIENTED_EDGE ( 'NONE', *, *, #299, .F. ) ;
#829 = CARTESIAN_POINT ( 'NONE',  ( 7.212002652519870161, -3.776923076923073719, -1.734723475976807883E-15 ) ) ;
#830 = EDGE_CURVE ( 'NONE', #370, #755, #123, .T. ) ;
#831 = ORIENTED_EDGE ( 'NONE', *, *, #361, .F. ) ;
#832 = ORIENTED_EDGE ( 'NONE', *, *, #77, .F. ) ;
#833 = DIRECTION ( 'NONE',  ( -0.000000000000000000, -1.000000000000000000, -0.000000000000000000 ) ) ;
#834 = EDGE_LOOP ( 'NONE', ( #481, #705 ) ) ;
#835 = EDGE_CURVE ( 'NONE', #58, #735, #408, .T. ) ;
#836 = CARTESIAN_POINT ( 'NONE',  ( 80.41199757582123198, 28.72307692307691696, 2.000000000000000000 ) ) ;
#837 = VERTEX_POINT ( 'NONE', #338 ) ;
#838 = VECTOR ( 'NONE', #753, 1000.000000000000000 ) ;
#839 = ORIENTED_EDGE ( 'NONE', *, *, #258, .T. ) ;
#840 = AXIS2_PLACEMENT_3D ( 'NONE', #848, #97, #245 ) ;
#841 = EDGE_CURVE ( 'NONE', #359, #367, #178, .T. ) ;
#842 = CARTESIAN_POINT ( 'NONE',  ( 16.61200265251986963, -3.776923076923073275, -1.734723475976807883E-15 ) ) ;
#843 = CARTESIAN_POINT ( 'NONE',  ( -99.58799734748014032, -37.27692307692306883, 5.000000000000000000 ) ) ;
#844 = ORIENTED_EDGE ( 'NONE', *, *, #598, .T. ) ;
#845 = CARTESIAN_POINT ( 'NONE',  ( 83.41200265251985968, 29.72307692307692051, 5.000000000000000000 ) ) ;
#846 = DIRECTION ( 'NONE',  ( -0.000000000000000000, -0.000000000000000000, -1.000000000000000000 ) ) ;
#847 = ORIENTED_EDGE ( 'NONE', *, *, #270, .T. ) ;
#848 = CARTESIAN_POINT ( 'NONE',  ( 0.000000000000000000, 0.000000000000000000, 2.000000000000000000 ) ) ;
#849 = CARTESIAN_POINT ( 'NONE',  ( -23.38799734748013037, -3.776923076923073275, -1.734723475976807883E-15 ) ) ;
#850 = ORIENTED_EDGE ( 'NONE', *, *, #841, .T. ) ;
#851 = CIRCLE ( 'NONE', #767, 2.699999999999987299 ) ;
#852 = DIRECTION ( 'NONE',  ( -0.000000000000000000, -0.000000000000000000, -1.000000000000000000 ) ) ;
#853 = CARTESIAN_POINT ( 'NONE',  ( -28.08799734748012966, -3.776923076923073719, 2.000000000000000000 ) ) ;
#854 = ADVANCED_FACE ( 'NONE', ( #800 ), #878, .F. ) ;
#855 = ORIENTED_EDGE ( 'NONE', *, *, #213, .T. ) ;
#856 = CARTESIAN_POINT ( 'NONE',  ( 11.91200265251986856, -3.776923076923073719, 2.000000000000000000 ) ) ;
#857 = LINE ( 'NONE', #380, #262 ) ;
#858 = CARTESIAN_POINT ( 'NONE',  ( -97.58799734748014032, 31.72307692307692406, 5.000000000000000000 ) ) ;
#859 = ORIENTED_EDGE ( 'NONE', *, *, #561, .F. ) ;
#860 = EDGE_CURVE ( 'NONE', #355, #581, #318, .T. ) ;
#861 =( NAMED_UNIT ( * ) SI_UNIT ( $, .STERADIAN. ) SOLID_ANGLE_UNIT ( ) );
#862 = CARTESIAN_POINT ( 'NONE',  ( -78.58920106770457892, 10.72367597128744876, 2.000000000000000000 ) ) ;
#863 =( LENGTH_UNIT ( ) NAMED_UNIT ( * ) SI_UNIT ( .MILLI., .METRE. ) );
#864 = VERTEX_POINT ( 'NONE', #792 ) ;
#865 = VECTOR ( 'NONE', #574, 1000.000000000000227 ) ;
#866 = CARTESIAN_POINT ( 'NONE',  ( 11.91200265251986856, -3.776923076923073719, -1.734723475976807883E-15 ) ) ;
#867 = CIRCLE ( 'NONE', #826, 4.699999999999999289 ) ;
#868 = EDGE_CURVE ( 'NONE', #517, #446, #397, .T. ) ;
#869 = VECTOR ( 'NONE', #796, 1000.000000000000000 ) ;
#870 = DIRECTION ( 'NONE',  ( 3.750337688620765028E-05, -0.9999999992967484319, 0.000000000000000000 ) ) ;
#871 = DIRECTION ( 'NONE',  ( -1.000000000000000000, 0.000000000000000000, 0.000000000000000000 ) ) ;
#872 = ORIENTED_EDGE ( 'NONE', *, *, #678, .F. ) ;
#873 = ORIENTED_EDGE ( 'NONE', *, *, #498, .T. ) ;
#874 = DIRECTION ( 'NONE',  ( -0.000000000000000000, -0.000000000000000000, 1.000000000000000000 ) ) ;
#875 = EDGE_CURVE ( 'NONE', #746, #9, #520, .T. ) ;
#876 = LINE ( 'NONE', #456, #658 ) ;
#877 = ORIENTED_EDGE ( 'NONE', *, *, #26, .T. ) ;
#878 = PLANE ( 'NONE',  #780 ) ;
#879 = DIRECTION ( 'NONE',  ( -0.000000000000000000, -0.000000000000000000, -1.000000000000000000 ) ) ;
#880 = CARTESIAN_POINT ( 'NONE',  ( 20.82500441292884474, -23.27692307692307949, 5.000000000000000000 ) ) ;
#881 = ORIENTED_EDGE ( 'NONE', *, *, #788, .T. ) ;
ENDSEC;
END-ISO-10303-21;
