ISO-10303-21;
HEADER;
FILE_DESCRIPTION (( 'STEP AP214' ),
    '1' );
FILE_NAME ('z2.STEP',
    '2026-01-17T18:15:22',
    ( '' ),
    ( '' ),
    'SwSTEP 2.0',
    'SolidWorks 2024',
    '' );
FILE_SCHEMA (( 'AUTOMOTIVE_DESIGN' ));
ENDSEC;

DATA;
#1 = ORIENTED_EDGE ( 'NONE', *, *, #26, .F. ) ;
#2 = EDGE_CURVE ( 'NONE', #38, #658, #455, .T. ) ;
#3 = CARTESIAN_POINT ( 'NONE',  ( -79.74950184112618956, 0.7530589543937766805, 10.00000000000000000 ) ) ;
#4 = CARTESIAN_POINT ( 'NONE',  ( -82.04950184112617251, 0.7530589543937766805, 14.69999999999999929 ) ) ;
#5 = EDGE_CURVE ( 'NONE', #400, #201, #668, .T. ) ;
#6 = DIRECTION ( 'NONE',  ( -1.000000000000000000, 0.000000000000000000, 0.000000000000000000 ) ) ;
#7 = ORIENTED_EDGE ( 'NONE', *, *, #496, .T. ) ;
#8 = CARTESIAN_POINT ( 'NONE',  ( -77.04950184112617251, 0.7530589543937766805, 10.00000000000000000 ) ) ;
#9 = AXIS2_PLACEMENT_3D ( 'NONE', #396, #181, #391 ) ;
#10 = AXIS2_PLACEMENT_3D ( 'NONE', #180, #551, #619 ) ;
#11 =( LENGTH_UNIT ( ) NAMED_UNIT ( * ) SI_UNIT ( .MILLI., .METRE. ) );
#12 = CARTESIAN_POINT ( 'NONE',  ( -82.04950184112617251, 0.7530589543937766805, 14.69999999999999929 ) ) ;
#13 = LINE ( 'NONE', #234, #31 ) ;
#14 = ORIENTED_EDGE ( 'NONE', *, *, #300, .F. ) ;
#15 = DIRECTION ( 'NONE',  ( 1.000000000000000000, 0.000000000000000000, 0.000000000000000000 ) ) ;
#16 = FACE_OUTER_BOUND ( 'NONE', #426, .T. ) ;
#17 = EDGE_LOOP ( 'NONE', ( #7, #101, #447, #116 ) ) ;
#18 = CARTESIAN_POINT ( 'NONE',  ( -66.04950184112617251, 10.75305895439377935, 0.000000000000000000 ) ) ;
#19 = ORIENTED_EDGE ( 'NONE', *, *, #629, .T. ) ;
#20 = VECTOR ( 'NONE', #151, 1000.000000000000000 ) ;
#21 = VECTOR ( 'NONE', #261, 1000.000000000000000 ) ;
#22 = ORIENTED_EDGE ( 'NONE', *, *, #303, .F. ) ;
#23 = DIRECTION ( 'NONE',  ( 0.000000000000000000, 0.000000000000000000, -1.000000000000000000 ) ) ;
#24 = PLANE ( 'NONE',  #626 ) ;
#25 = CARTESIAN_POINT ( 'NONE',  ( 101.9504981588738133, 25.75305895439378290, 0.000000000000000000 ) ) ;
#26 = EDGE_CURVE ( 'NONE', #338, #87, #460, .T. ) ;
#27 = DIRECTION ( 'NONE',  ( -1.000000000000000000, -0.000000000000000000, -0.000000000000000000 ) ) ;
#28 = DIRECTION ( 'NONE',  ( -0.000000000000000000, -0.000000000000000000, -1.000000000000000000 ) ) ;
#29 = PLANE ( 'NONE',  #678 ) ;
#30 = ADVANCED_FACE ( 'NONE', ( #134 ), #24, .F. ) ;
#31 = VECTOR ( 'NONE', #458, 1000.000000000000000 ) ;
#32 = AXIS2_PLACEMENT_3D ( 'NONE', #513, #688, #204 ) ;
#33 = ORIENTED_EDGE ( 'NONE', *, *, #373, .F. ) ;
#34 = CARTESIAN_POINT ( 'NONE',  ( 101.9504981588738133, 0.7530589543937772357, 14.69999999999999929 ) ) ;
#35 = EDGE_CURVE ( 'NONE', #53, #528, #302, .T. ) ;
#36 = CARTESIAN_POINT ( 'NONE',  ( 85.95049815887381328, -24.24694104560622776, 5.000000000000000000 ) ) ;
#37 = FILL_AREA_STYLE ('',( #202 ) ) ;
#38 = VERTEX_POINT ( 'NONE', #664 ) ;
#39 = CARTESIAN_POINT ( 'NONE',  ( -82.04950184112617251, -24.24694104560622421, 5.000000000000000000 ) ) ;
#40 = DIRECTION ( 'NONE',  ( 0.000000000000000000, 1.000000000000000000, 0.000000000000000000 ) ) ;
#41 = EDGE_LOOP ( 'NONE', ( #392, #367, #554, #541 ) ) ;
#42 = VECTOR ( 'NONE', #438, 1000.000000000000000 ) ;
#43 = LINE ( 'NONE', #39, #271 ) ;
#44 = EDGE_CURVE ( 'NONE', #372, #81, #545, .T. ) ;
#45 = CARTESIAN_POINT ( 'NONE',  ( 101.9504981588738133, -24.24694104560622065, 5.000000000000000000 ) ) ;
#46 = ORIENTED_EDGE ( 'NONE', *, *, #117, .T. ) ;
#47 = LINE ( 'NONE', #292, #589 ) ;
#48 = DIRECTION ( 'NONE',  ( 0.000000000000000000, -1.000000000000000000, 0.000000000000000000 ) ) ;
#49 = EDGE_CURVE ( 'NONE', #97, #53, #13, .T. ) ;
#50 = ORIENTED_EDGE ( 'NONE', *, *, #290, .F. ) ;
#51 = FACE_OUTER_BOUND ( 'NONE', #511, .T. ) ;
#52 = ADVANCED_FACE ( 'NONE', ( #446 ), #185, .T. ) ;
#53 = VERTEX_POINT ( 'NONE', #610 ) ;
#54 = VECTOR ( 'NONE', #557, 1000.000000000000000 ) ;
#55 = CARTESIAN_POINT ( 'NONE',  ( -82.04950184112617251, 0.7530589543937766805, 10.00000000000000000 ) ) ;
#56 = EDGE_CURVE ( 'NONE', #651, #658, #345, .T. ) ;
#57 = DIRECTION ( 'NONE',  ( -1.000000000000000000, -0.000000000000000000, -0.000000000000000000 ) ) ;
#58 = APPLICATION_CONTEXT ( 'automotive_design' ) ;
#59 = ORIENTED_EDGE ( 'NONE', *, *, #143, .T. ) ;
#60 = DIRECTION ( 'NONE',  ( 1.000000000000000000, 4.336808689942017736E-16, -0.000000000000000000 ) ) ;
#61 = ORIENTED_EDGE ( 'NONE', *, *, #290, .T. ) ;
#62 = DIRECTION ( 'NONE',  ( 0.7071067811865451302, 0.000000000000000000, -0.7071067811865499042 ) ) ;
#63 = VECTOR ( 'NONE', #129, 1000.000000000000000 ) ;
#64 = PLANE ( 'NONE',  #65 ) ;
#65 = AXIS2_PLACEMENT_3D ( 'NONE', #566, #499, #449 ) ;
#66 = DIRECTION ( 'NONE',  ( 1.000000000000000000, -0.000000000000000000, -0.000000000000000000 ) ) ;
#67 = CIRCLE ( 'NONE', #647, 2.399999999999982148 ) ;
#68 = PRODUCT_DEFINITION_FORMATION_WITH_SPECIFIED_SOURCE ( 'ANY', '', #558, .NOT_KNOWN. ) ;
#69 = VERTEX_POINT ( 'NONE', #189 ) ;
#70 = DIRECTION ( 'NONE',  ( -0.000000000000000000, -0.000000000000000000, -1.000000000000000000 ) ) ;
#71 = LINE ( 'NONE', #510, #612 ) ;
#72 = EDGE_LOOP ( 'NONE', ( #583, #402 ) ) ;
#73 = VERTEX_POINT ( 'NONE', #342 ) ;
#74 = DIRECTION ( 'NONE',  ( 1.000000000000000000, 1.255391989193742158E-16, -0.000000000000000000 ) ) ;
#75 = CYLINDRICAL_SURFACE ( 'NONE', #431, 2.399999999999982148 ) ;
#76 = ADVANCED_FACE ( 'NONE', ( #562 ), #75, .F. ) ;
#77 = EDGE_LOOP ( 'NONE', ( #142, #450, #384, #531 ) ) ;
#78 = CARTESIAN_POINT ( 'NONE',  ( -66.04950184112617251, 10.75305895439377935, 5.000000000000000000 ) ) ;
#79 = CARTESIAN_POINT ( 'NONE',  ( -82.04950184112617251, 0.7530589543937766805, 10.00000000000000000 ) ) ;
#80 = PRODUCT_DEFINITION_SHAPE ( 'NONE', 'NONE',  #406 ) ;
#81 = VERTEX_POINT ( 'NONE', #366 ) ;
#82 = EDGE_CURVE ( 'NONE', #213, #201, #315, .T. ) ;
#83 = DIRECTION ( 'NONE',  ( -1.000000000000000000, -0.000000000000000000, -0.000000000000000000 ) ) ;
#84 = ORIENTED_EDGE ( 'NONE', *, *, #82, .T. ) ;
#85 = EDGE_LOOP ( 'NONE', ( #548, #696, #222, #209 ) ) ;
#86 = CARTESIAN_POINT ( 'NONE',  ( -82.04950184112617251, 0.7530589543937766805, 10.00000000000000000 ) ) ;
#87 = VERTEX_POINT ( 'NONE', #313 ) ;
#88 = FACE_OUTER_BOUND ( 'NONE', #41, .T. ) ;
#89 = FACE_OUTER_BOUND ( 'NONE', #443, .T. ) ;
#90 = ADVANCED_FACE ( 'NONE', ( #415 ), #638, .F. ) ;
#91 = VECTOR ( 'NONE', #74, 1000.000000000000000 ) ;
#92 = ORIENTED_EDGE ( 'NONE', *, *, #665, .T. ) ;
#93 = DIRECTION ( 'NONE',  ( 0.000000000000000000, 0.000000000000000000, -1.000000000000000000 ) ) ;
#94 = DIRECTION ( 'NONE',  ( -1.000000000000000000, 0.000000000000000000, 0.000000000000000000 ) ) ;
#95 = DIRECTION ( 'NONE',  ( 1.000000000000000000, 0.000000000000000000, 0.000000000000000000 ) ) ;
#96 = DIRECTION ( 'NONE',  ( 0.000000000000000000, 0.000000000000000000, 1.000000000000000000 ) ) ;
#97 = VERTEX_POINT ( 'NONE', #211 ) ;
#98 = ADVANCED_FACE ( 'NONE', ( #89 ), #581, .F. ) ;
#99 = CARTESIAN_POINT ( 'NONE',  ( -82.04950184112617251, 0.7530589543937766805, 10.00000000000000000 ) ) ;
#100 = FACE_OUTER_BOUND ( 'NONE', #512, .T. ) ;
#101 = ORIENTED_EDGE ( 'NONE', *, *, #2, .F. ) ;
#102 = PRESENTATION_LAYER_ASSIGNMENT (  '', '', ( #526 ) ) ;
#103 = ADVANCED_FACE ( 'NONE', ( #147 ), #370, .F. ) ;
#104 = CIRCLE ( 'NONE', #219, 2.399999999999982148 ) ;
#105 = LINE ( 'NONE', #318, #549 ) ;
#106 = DIRECTION ( 'NONE',  ( -1.000000000000000000, -0.000000000000000000, -0.000000000000000000 ) ) ;
#107 = ORIENTED_EDGE ( 'NONE', *, *, #239, .T. ) ;
#108 = CARTESIAN_POINT ( 'NONE',  ( 96.95049815887381328, -24.24694104560622421, 5.000000000000000000 ) ) ;
#109 = EDGE_LOOP ( 'NONE', ( #22, #618, #467, #332 ) ) ;
#110 = LINE ( 'NONE', #369, #588 ) ;
#111 = VECTOR ( 'NONE', #363, 1000.000000000000114 ) ;
#112 = VECTOR ( 'NONE', #28, 1000.000000000000000 ) ;
#113 = CARTESIAN_POINT ( 'NONE',  ( -82.04950184112617251, 25.75305895439377935, 0.000000000000000000 ) ) ;
#114 = ORIENTED_EDGE ( 'NONE', *, *, #256, .T. ) ;
#115 = DIRECTION ( 'NONE',  ( -1.000000000000000000, -0.000000000000000000, -0.000000000000000000 ) ) ;
#116 = ORIENTED_EDGE ( 'NONE', *, *, #656, .T. ) ;
#117 = EDGE_CURVE ( 'NONE', #528, #131, #642, .T. ) ;
#118 = DIRECTION ( 'NONE',  ( -0.000000000000000000, 1.000000000000000000, -0.000000000000000000 ) ) ;
#119 = EDGE_LOOP ( 'NONE', ( #692, #649 ) ) ;
#120 = ORIENTED_EDGE ( 'NONE', *, *, #2, .T. ) ;
#121 = DIRECTION ( 'NONE',  ( -0.000000000000000000, -0.000000000000000000, -1.000000000000000000 ) ) ;
#122 = EDGE_CURVE ( 'NONE', #53, #651, #358, .T. ) ;
#123 = DIRECTION ( 'NONE',  ( 1.000000000000000000, 1.885568995626964287E-17, 0.000000000000000000 ) ) ;
#124 = VECTOR ( 'NONE', #48, 1000.000000000000000 ) ;
#125 = CARTESIAN_POINT ( 'NONE',  ( -82.04950184112617251, 25.75305895439377935, 5.000000000000000000 ) ) ;
#126 = VERTEX_POINT ( 'NONE', #266 ) ;
#127 = DIRECTION ( 'NONE',  ( -0.000000000000000000, -0.000000000000000000, -1.000000000000000000 ) ) ;
#128 = LINE ( 'NONE', #293, #183 ) ;
#129 = DIRECTION ( 'NONE',  ( -1.000000000000000000, -1.885568995626964287E-17, -0.000000000000000000 ) ) ;
#130 = ADVANCED_FACE ( 'NONE', ( #154, #518 ), #29, .F. ) ;
#131 = VERTEX_POINT ( 'NONE', #262 ) ;
#132 = DIRECTION ( 'NONE',  ( 1.000000000000000000, 0.000000000000000000, 0.000000000000000000 ) ) ;
#133 = CARTESIAN_POINT ( 'NONE',  ( 85.95049815887381328, 10.75305895439379711, 5.000000000000000000 ) ) ;
#134 = FACE_OUTER_BOUND ( 'NONE', #343, .T. ) ;
#135 = CARTESIAN_POINT ( 'NONE',  ( 96.95049815887381328, 0.7530589543937770136, 7.600000000000018296 ) ) ;
#136 = FACE_BOUND ( 'NONE', #141, .T. ) ;
#137 = ORIENTED_EDGE ( 'NONE', *, *, #602, .F. ) ;
#138 = AXIS2_PLACEMENT_3D ( 'NONE', #45, #477, #519 ) ;
#139 = VECTOR ( 'NONE', #83, 1000.000000000000000 ) ;
#140 = DIRECTION ( 'NONE',  ( -1.000000000000000000, -0.000000000000000000, -0.000000000000000000 ) ) ;
#141 = EDGE_LOOP ( 'NONE', ( #573, #19 ) ) ;
#142 = ORIENTED_EDGE ( 'NONE', *, *, #377, .T. ) ;
#143 = EDGE_CURVE ( 'NONE', #81, #193, #527, .T. ) ;
#144 = CARTESIAN_POINT ( 'NONE',  ( 85.95049815887381328, -24.24694104560622776, 0.000000000000000000 ) ) ;
#145 = CARTESIAN_POINT ( 'NONE',  ( 96.95049815887381328, 25.75305895439378290, 20.00000000000000000 ) ) ;
#146 = VERTEX_POINT ( 'NONE', #522 ) ;
#147 = FACE_OUTER_BOUND ( 'NONE', #606, .T. ) ;
#148 = AXIS2_PLACEMENT_3D ( 'NONE', #445, #660, #23 ) ;
#149 = ORIENTED_EDGE ( 'NONE', *, *, #616, .T. ) ;
#150 = DIRECTION ( 'NONE',  ( -0.000000000000000000, -1.000000000000000000, -0.000000000000000000 ) ) ;
#151 = DIRECTION ( 'NONE',  ( 1.000000000000000000, 6.938893903907222461E-16, -0.000000000000000000 ) ) ;
#152 = EDGE_LOOP ( 'NONE', ( #599, #538, #683, #46 ) ) ;
#153 = CARTESIAN_POINT ( 'NONE',  ( 96.95049815887381328, -24.24694104560622421, 20.00000000000000000 ) ) ;
#154 = FACE_BOUND ( 'NONE', #72, .T. ) ;
#155 = EDGE_CURVE ( 'NONE', #201, #400, #207, .T. ) ;
#156 = ORIENTED_EDGE ( 'NONE', *, *, #524, .F. ) ;
#157 = DIRECTION ( 'NONE',  ( -1.000000000000000000, -0.000000000000000000, -0.000000000000000000 ) ) ;
#158 = AXIS2_PLACEMENT_3D ( 'NONE', #79, #27, #248 ) ;
#159 = EDGE_LOOP ( 'NONE', ( #311, #440, #407, #217 ) ) ;
#160 =( GEOMETRIC_REPRESENTATION_CONTEXT ( 3 ) GLOBAL_UNCERTAINTY_ASSIGNED_CONTEXT ( ( #329 ) ) GLOBAL_UNIT_ASSIGNED_CONTEXT ( ( #164, #227, #275 ) ) REPRESENTATION_CONTEXT ( 'NONE', 'WORKASPACE' ) );
#161 = VECTOR ( 'NONE', #127, 1000.000000000000000 ) ;
#162 = ADVANCED_FACE ( 'NONE', ( #100 ), #353, .F. ) ;
#163 = VECTOR ( 'NONE', #60, 1000.000000000000000 ) ;
#164 =( LENGTH_UNIT ( ) NAMED_UNIT ( * ) SI_UNIT ( .MILLI., .METRE. ) );
#165 = ORIENTED_EDGE ( 'NONE', *, *, #117, .F. ) ;
#166 = EDGE_CURVE ( 'NONE', #193, #236, #296, .T. ) ;
#167 = DIRECTION ( 'NONE',  ( -1.000000000000000000, -0.000000000000000000, -0.000000000000000000 ) ) ;
#168 = DIRECTION ( 'NONE',  ( -1.000000000000000000, -0.000000000000000000, -0.000000000000000000 ) ) ;
#169 = AXIS2_PLACEMENT_3D ( 'NONE', #214, #428, #682 ) ;
#170 = VECTOR ( 'NONE', #671, 1000.000000000000000 ) ;
#171 = CYLINDRICAL_SURFACE ( 'NONE', #394, 2.399999999999982148 ) ;
#172 = ADVANCED_FACE ( 'NONE', ( #571 ), #250, .T. ) ;
#173 = ORIENTED_EDGE ( 'NONE', *, *, #323, .T. ) ;
#174 = DIRECTION ( 'NONE',  ( -0.000000000000000000, -1.000000000000000000, -0.000000000000000000 ) ) ;
#175 = DIRECTION ( 'NONE',  ( 0.000000000000000000, 0.000000000000000000, -1.000000000000000000 ) ) ;
#176 = VERTEX_POINT ( 'NONE', #689 ) ;
#177 = EDGE_CURVE ( 'NONE', #364, #38, #631, .T. ) ;
#178 = VERTEX_POINT ( 'NONE', #469 ) ;
#179 = DIRECTION ( 'NONE',  ( 0.000000000000000000, 0.000000000000000000, -1.000000000000000000 ) ) ;
#180 = CARTESIAN_POINT ( 'NONE',  ( -77.04950184112617251, 0.7530589543937766805, 10.00000000000000000 ) ) ;
#181 = DIRECTION ( 'NONE',  ( -0.000000000000000000, 0.000000000000000000, 1.000000000000000000 ) ) ;
#182 = PLANE ( 'NONE',  #483 ) ;
#183 = VECTOR ( 'NONE', #344, 1000.000000000000000 ) ;
#184 = MANIFOLD_SOLID_BREP ( '\X2\04170435043d043a043e0432043a0430\X0\ \X2\0434043b044f\X0\  \X2\04320438043d04420430\X0\ \X2\0441\X0\ \X2\043f043b043e0441043a043e0439\X0\ \X2\0433043e043b043e0432043a043e0439\X0\ M42', #324 ) ;
#185 = PLANE ( 'NONE',  #9 ) ;
#186 = ORIENTED_EDGE ( 'NONE', *, *, #466, .F. ) ;
#187 = LINE ( 'NONE', #398, #637 ) ;
#188 = DIRECTION ( 'NONE',  ( -0.000000000000000000, -0.000000000000000000, -1.000000000000000000 ) ) ;
#189 = CARTESIAN_POINT ( 'NONE',  ( -82.04950184112617251, -24.24694104560622421, 20.00000000000000000 ) ) ;
#190 = EDGE_LOOP ( 'NONE', ( #50, #339, #509, #605, #640, #268, #484, #137 ) ) ;
#191 = SHAPE_DEFINITION_REPRESENTATION ( #80, #572 ) ;
#192 = DIRECTION ( 'NONE',  ( 1.885568995626964287E-17, -1.000000000000000000, 0.000000000000000000 ) ) ;
#193 = VERTEX_POINT ( 'NONE', #540 ) ;
#194 = EDGE_LOOP ( 'NONE', ( #405, #291, #690, #320 ) ) ;
#195 = LINE ( 'NONE', #459, #335 ) ;
#196 = ORIENTED_EDGE ( 'NONE', *, *, #260, .T. ) ;
#197 = VECTOR ( 'NONE', #347, 1000.000000000000000 ) ;
#198 = AXIS2_PLACEMENT_3D ( 'NONE', #287, #132, #179 ) ;
#199 = LINE ( 'NONE', #249, #21 ) ;
#200 = CARTESIAN_POINT ( 'NONE',  ( -82.04950184112617251, -24.24694104560622421, 5.000000000000000000 ) ) ;
#201 = VERTEX_POINT ( 'NONE', #648 ) ;
#202 = FILL_AREA_STYLE_COLOUR ( '', #263 ) ;
#203 = ORIENTED_EDGE ( 'NONE', *, *, #433, .T. ) ;
#204 = DIRECTION ( 'NONE',  ( 0.000000000000000000, 0.000000000000000000, -1.000000000000000000 ) ) ;
#205 = EDGE_CURVE ( 'NONE', #372, #628, #685, .T. ) ;
#206 = DIRECTION ( 'NONE',  ( -0.7071067811865451302, 8.659560562354961208E-17, -0.7071067811865499042 ) ) ;
#207 = CIRCLE ( 'NONE', #597, 4.699999999999999289 ) ;
#208 = AXIS2_PLACEMENT_3D ( 'NONE', #516, #423, #365 ) ;
#209 = ORIENTED_EDGE ( 'NONE', *, *, #122, .T. ) ;
#210 = LINE ( 'NONE', #521, #410 ) ;
#211 = CARTESIAN_POINT ( 'NONE',  ( 101.9504981588738133, 25.75305895439378290, 20.00000000000000000 ) ) ;
#212 = EDGE_CURVE ( 'NONE', #131, #279, #592, .T. ) ;
#213 = VERTEX_POINT ( 'NONE', #328 ) ;
#214 = CARTESIAN_POINT ( 'NONE',  ( 0.000000000000000000, 0.000000000000000000, 0.000000000000000000 ) ) ;
#215 = VERTEX_POINT ( 'NONE', #108 ) ;
#216 = CARTESIAN_POINT ( 'NONE',  ( -79.74950184112618956, 0.7530589543937766805, 10.00000000000000000 ) ) ;
#217 = ORIENTED_EDGE ( 'NONE', *, *, #629, .F. ) ;
#218 = ADVANCED_FACE ( 'NONE', ( #51 ), #488, .F. ) ;
#219 = AXIS2_PLACEMENT_3D ( 'NONE', #675, #95, #93 ) ;
#220 = CIRCLE ( 'NONE', #565, 2.399999999999982148 ) ;
#221 = LINE ( 'NONE', #594, #475 ) ;
#222 = ORIENTED_EDGE ( 'NONE', *, *, #35, .F. ) ;
#223 = CARTESIAN_POINT ( 'NONE',  ( -66.04950184112617251, 10.75305895439377935, 0.000000000000000000 ) ) ;
#224 = CARTESIAN_POINT ( 'NONE',  ( 101.9504981588738133, -24.24694104560622065, 5.000000000000000000 ) ) ;
#225 = UNCERTAINTY_MEASURE_WITH_UNIT (LENGTH_MEASURE( 1.000000000000000082E-05 ), #11, 'distance_accuracy_value', 'NONE');
#226 = CARTESIAN_POINT ( 'NONE',  ( 0.000000000000000000, 0.000000000000000000, 5.000000000000000000 ) ) ;
#227 =( NAMED_UNIT ( * ) PLANE_ANGLE_UNIT ( ) SI_UNIT ( $, .RADIAN. ) );
#228 = ORIENTED_EDGE ( 'NONE', *, *, #639, .T. ) ;
#229 = AXIS2_PLACEMENT_3D ( 'NONE', #301, #192, #123 ) ;
#230 = DIRECTION ( 'NONE',  ( -1.000000000000000000, -1.255391989193742158E-16, 0.000000000000000000 ) ) ;
#231 = EDGE_CURVE ( 'NONE', #559, #361, #319, .T. ) ;
#232 = ORIENTED_EDGE ( 'NONE', *, *, #542, .F. ) ;
#233 = CARTESIAN_POINT ( 'NONE',  ( 101.9504981588738133, 25.75305895439378290, 5.000000000000000000 ) ) ;
#234 = CARTESIAN_POINT ( 'NONE',  ( 101.9504981588738133, 25.75305895439378290, 20.00000000000000000 ) ) ;
#235 = EDGE_CURVE ( 'NONE', #146, #69, #530, .T. ) ;
#236 = VERTEX_POINT ( 'NONE', #269 ) ;
#237 = PLANE ( 'NONE',  #229 ) ;
#238 = DIRECTION ( 'NONE',  ( -0.000000000000000000, -1.000000000000000000, -0.000000000000000000 ) ) ;
#239 = EDGE_CURVE ( 'NONE', #213, #361, #564, .T. ) ;
#240 = AXIS2_PLACEMENT_3D ( 'NONE', #424, #304, #633 ) ;
#241 = LINE ( 'NONE', #454, #170 ) ;
#242 = CONICAL_SURFACE ( 'NONE', #635, 4.699999999999999289, 0.7853981633974517207 ) ;
#243 = ORIENTED_EDGE ( 'NONE', *, *, #401, .T. ) ;
#244 = LINE ( 'NONE', #662, #547 ) ;
#245 = DIRECTION ( 'NONE',  ( -1.000000000000000000, 0.000000000000000000, 0.000000000000000000 ) ) ;
#246 = DIRECTION ( 'NONE',  ( -0.000000000000000000, -1.000000000000000000, -0.000000000000000000 ) ) ;
#247 = DIRECTION ( 'NONE',  ( 1.000000000000000000, -0.000000000000000000, -0.000000000000000000 ) ) ;
#248 = DIRECTION ( 'NONE',  ( 0.000000000000000000, 0.000000000000000000, 1.000000000000000000 ) ) ;
#249 = CARTESIAN_POINT ( 'NONE',  ( -82.04950184112617251, -24.24694104560622421, 5.000000000000000000 ) ) ;
#250 = PLANE ( 'NONE',  #169 ) ;
#251 = AXIS2_PLACEMENT_3D ( 'NONE', #36, #681, #257 ) ;
#252 = ADVANCED_FACE ( 'NONE', ( #650 ), #171, .F. ) ;
#253 = ORIENTED_EDGE ( 'NONE', *, *, #389, .F. ) ;
#254 = CARTESIAN_POINT ( 'NONE',  ( 101.9504981588738133, 0.7530589543937766805, 10.00000000000000000 ) ) ;
#255 = ORIENTED_EDGE ( 'NONE', *, *, #166, .T. ) ;
#256 = EDGE_CURVE ( 'NONE', #552, #126, #480, .T. ) ;
#257 = DIRECTION ( 'NONE',  ( 0.000000000000000000, 0.000000000000000000, -1.000000000000000000 ) ) ;
#258 = SURFACE_STYLE_FILL_AREA ( #37 ) ;
#259 = ORIENTED_EDGE ( 'NONE', *, *, #505, .T. ) ;
#260 = EDGE_CURVE ( 'NONE', #73, #559, #67, .T. ) ;
#261 = DIRECTION ( 'NONE',  ( -0.000000000000000000, -0.000000000000000000, -1.000000000000000000 ) ) ;
#262 = CARTESIAN_POINT ( 'NONE',  ( 101.9504981588738133, -24.24694104560622065, 20.00000000000000000 ) ) ;
#263 = COLOUR_RGB ( '',0.7921568627450980005, 0.8196078431372548767, 0.9333333333333333481 ) ;
#264 = CONICAL_SURFACE ( 'NONE', #32, 4.699999999999999289, 0.7853981633974517207 ) ;
#265 = ORIENTED_EDGE ( 'NONE', *, *, #496, .F. ) ;
#266 = CARTESIAN_POINT ( 'NONE',  ( -82.04950184112617251, 25.75305895439377935, 0.000000000000000000 ) ) ;
#267 = ORIENTED_EDGE ( 'NONE', *, *, #155, .T. ) ;
#268 = ORIENTED_EDGE ( 'NONE', *, *, #505, .F. ) ;
#269 = CARTESIAN_POINT ( 'NONE',  ( 101.9504981588738133, 0.7530589543937766805, 5.300000000000000711 ) ) ;
#270 = ORIENTED_EDGE ( 'NONE', *, *, #26, .T. ) ;
#271 = VECTOR ( 'NONE', #570, 1000.000000000000000 ) ;
#272 = AXIS2_PLACEMENT_3D ( 'NONE', #498, #607, #15 ) ;
#273 = DIRECTION ( 'NONE',  ( 1.000000000000000000, 0.000000000000000000, 0.000000000000000000 ) ) ;
#274 = EDGE_CURVE ( 'NONE', #81, #178, #376, .T. ) ;
#275 =( NAMED_UNIT ( * ) SI_UNIT ( $, .STERADIAN. ) SOLID_ANGLE_UNIT ( ) );
#276 = ORIENTED_EDGE ( 'NONE', *, *, #260, .F. ) ;
#277 = PRODUCT_RELATED_PRODUCT_CATEGORY ( 'part', '', ( #558 ) ) ;
#278 = CARTESIAN_POINT ( 'NONE',  ( 85.95049815887381328, 10.75305895439379711, 0.000000000000000000 ) ) ;
#279 = VERTEX_POINT ( 'NONE', #601 ) ;
#280 =( NAMED_UNIT ( * ) SI_UNIT ( $, .STERADIAN. ) SOLID_ANGLE_UNIT ( ) );
#281 = AXIS2_PLACEMENT_3D ( 'NONE', #411, #66, #497 ) ;
#282 = VECTOR ( 'NONE', #188, 1000.000000000000000 ) ;
#283 = CARTESIAN_POINT ( 'NONE',  ( -77.04950184112617251, -24.24694104560622421, 5.000000000000000000 ) ) ;
#284 = DIRECTION ( 'NONE',  ( -1.000000000000000000, 0.000000000000000000, 0.000000000000000000 ) ) ;
#285 = EDGE_CURVE ( 'NONE', #38, #146, #221, .T. ) ;
#286 = ORIENTED_EDGE ( 'NONE', *, *, #625, .F. ) ;
#287 = CARTESIAN_POINT ( 'NONE',  ( -82.04950184112617251, -24.24694104560622421, 5.000000000000000000 ) ) ;
#288 = LINE ( 'NONE', #78, #197 ) ;
#289 = VERTEX_POINT ( 'NONE', #278 ) ;
#290 = EDGE_CURVE ( 'NONE', #327, #593, #110, .T. ) ;
#291 = ORIENTED_EDGE ( 'NONE', *, *, #457, .T. ) ;
#292 = CARTESIAN_POINT ( 'NONE',  ( -66.04950184112617251, 10.75305895439377935, 5.000000000000000000 ) ) ;
#293 = CARTESIAN_POINT ( 'NONE',  ( 85.95049815887381328, 10.75305895439379711, 0.000000000000000000 ) ) ;
#294 = CARTESIAN_POINT ( 'NONE',  ( -82.04950184112617251, 0.7530589543937766805, 10.00000000000000000 ) ) ;
#295 = FACE_BOUND ( 'NONE', #119, .T. ) ;
#296 = CIRCLE ( 'NONE', #408, 4.699999999999999289 ) ;
#297 = CARTESIAN_POINT ( 'NONE',  ( -77.04950184112617251, -24.24694104560622421, 20.00000000000000000 ) ) ;
#298 = AXIS2_PLACEMENT_3D ( 'NONE', #604, #245, #673 ) ;
#299 = DIRECTION ( 'NONE',  ( -1.000000000000000000, -0.000000000000000000, -0.000000000000000000 ) ) ;
#300 = EDGE_CURVE ( 'NONE', #361, #400, #487, .T. ) ;
#301 = CARTESIAN_POINT ( 'NONE',  ( -82.04950184112617251, 25.75305895439377935, 5.000000000000000000 ) ) ;
#302 = LINE ( 'NONE', #544, #333 ) ;
#303 = EDGE_CURVE ( 'NONE', #73, #213, #652, .T. ) ;
#304 = DIRECTION ( 'NONE',  ( -1.000000000000000000, -0.000000000000000000, -0.000000000000000000 ) ) ;
#305 = AXIS2_PLACEMENT_3D ( 'NONE', #200, #40, #417 ) ;
#306 = CARTESIAN_POINT ( 'NONE',  ( -82.04950184112617251, 0.7530589543937772357, 5.300000000000000711 ) ) ;
#307 = VECTOR ( 'NONE', #57, 1000.000000000000000 ) ;
#308 = ORIENTED_EDGE ( 'NONE', *, *, #323, .F. ) ;
#309 = DIRECTION ( 'NONE',  ( 0.000000000000000000, 0.000000000000000000, 1.000000000000000000 ) ) ;
#310 = EDGE_CURVE ( 'NONE', #236, #193, #698, .T. ) ;
#311 = ORIENTED_EDGE ( 'NONE', *, *, #205, .F. ) ;
#312 = DIRECTION ( 'NONE',  ( -0.000000000000000000, -0.000000000000000000, -1.000000000000000000 ) ) ;
#313 = CARTESIAN_POINT ( 'NONE',  ( 85.95049815887381328, -24.24694104560622776, 5.000000000000000000 ) ) ;
#314 = EDGE_LOOP ( 'NONE', ( #173, #472, #388, #653 ) ) ;
#315 = LINE ( 'NONE', #306, #575 ) ;
#316 = VECTOR ( 'NONE', #312, 1000.000000000000000 ) ;
#317 = EDGE_LOOP ( 'NONE', ( #461, #500, #481, #149 ) ) ;
#318 = CARTESIAN_POINT ( 'NONE',  ( -82.04950184112617251, 25.75305895439377935, 5.000000000000000000 ) ) ;
#319 = LINE ( 'NONE', #655, #680 ) ;
#320 = ORIENTED_EDGE ( 'NONE', *, *, #285, .T. ) ;
#321 = DIRECTION ( 'NONE',  ( -1.255391989193742158E-16, 1.000000000000000000, 0.000000000000000000 ) ) ;
#322 = ORIENTED_EDGE ( 'NONE', *, *, #625, .T. ) ;
#323 = EDGE_CURVE ( 'NONE', #81, #372, #462, .T. ) ;
#324 = CLOSED_SHELL ( 'NONE', ( #453, #582, #98, #76, #591, #90, #30, #218, #435, #162, #130, #355, #687, #172, #337, #52, #378, #413, #608, #252, #533, #103 ) ) ;
#325 = CIRCLE ( 'NONE', #421, 2.399999999999987033 ) ;
#326 = DIRECTION ( 'NONE',  ( -0.7071067811865451302, 0.000000000000000000, 0.7071067811865499042 ) ) ;
#327 = VERTEX_POINT ( 'NONE', #456 ) ;
#328 = CARTESIAN_POINT ( 'NONE',  ( -79.74950184112618956, 0.7530589543937770136, 7.600000000000012967 ) ) ;
#329 = UNCERTAINTY_MEASURE_WITH_UNIT (LENGTH_MEASURE( 1.000000000000000082E-05 ), #164, 'distance_accuracy_value', 'NONE');
#330 = ORIENTED_EDGE ( 'NONE', *, *, #44, .F. ) ;
#331 = CARTESIAN_POINT ( 'NONE',  ( 85.95049815887381328, 10.75305895439379711, 5.000000000000000000 ) ) ;
#332 = ORIENTED_EDGE ( 'NONE', *, *, #598, .T. ) ;
#333 = VECTOR ( 'NONE', #246, 1000.000000000000000 ) ;
#334 = DIRECTION ( 'NONE',  ( 1.000000000000000000, 0.000000000000000000, 0.000000000000000000 ) ) ;
#335 = VECTOR ( 'NONE', #468, 1000.000000000000000 ) ;
#336 = FACE_BOUND ( 'NONE', #397, .T. ) ;
#337 = ADVANCED_FACE ( 'NONE', ( #336, #386 ), #663, .F. ) ;
#338 = VERTEX_POINT ( 'NONE', #331 ) ;
#339 = ORIENTED_EDGE ( 'NONE', *, *, #646, .F. ) ;
#340 = CARTESIAN_POINT ( 'NONE',  ( -77.04950184112617251, 25.75305895439377935, 5.000000000000000000 ) ) ;
#341 = CARTESIAN_POINT ( 'NONE',  ( 99.65049815887381612, 0.7530589543937766805, 10.00000000000000000 ) ) ;
#342 = CARTESIAN_POINT ( 'NONE',  ( -77.04950184112617251, 0.7530589543937770136, 7.600000000000018296 ) ) ;
#343 = EDGE_LOOP ( 'NONE', ( #349, #286, #33, #228 ) ) ;
#344 = DIRECTION ( 'NONE',  ( 1.000000000000000000, 1.255391989193742158E-16, -0.000000000000000000 ) ) ;
#345 = LINE ( 'NONE', #125, #63 ) ;
#346 = FACE_OUTER_BOUND ( 'NONE', #317, .T. ) ;
#347 = DIRECTION ( 'NONE',  ( -0.000000000000000000, 1.000000000000000000, -0.000000000000000000 ) ) ;
#348 = VECTOR ( 'NONE', #442, 1000.000000000000000 ) ;
#349 = ORIENTED_EDGE ( 'NONE', *, *, #602, .T. ) ;
#350 = EDGE_LOOP ( 'NONE', ( #437, #422, #265, #502, #676, #645, #270, #686 ) ) ;
#351 = EDGE_CURVE ( 'NONE', #559, #73, #537, .T. ) ;
#352 = DIRECTION ( 'NONE',  ( 0.000000000000000000, 0.000000000000000000, 1.000000000000000000 ) ) ;
#353 = PLANE ( 'NONE',  #138 ) ;
#354 = ORIENTED_EDGE ( 'NONE', *, *, #351, .T. ) ;
#355 = ADVANCED_FACE ( 'NONE', ( #16 ), #237, .F. ) ;
#356 = CARTESIAN_POINT ( 'NONE',  ( -77.04950184112617251, 25.75305895439377935, 20.00000000000000000 ) ) ;
#357 = EDGE_LOOP ( 'NONE', ( #520, #84, #267, #14 ) ) ;
#358 = LINE ( 'NONE', #145, #419 ) ;
#359 = EDGE_CURVE ( 'NONE', #131, #97, #71, .T. ) ;
#360 = AXIS2_PLACEMENT_3D ( 'NONE', #226, #375, #654 ) ;
#361 = VERTEX_POINT ( 'NONE', #556 ) ;
#362 = DIRECTION ( 'NONE',  ( -0.000000000000000000, -1.000000000000000000, -0.000000000000000000 ) ) ;
#363 = DIRECTION ( 'NONE',  ( 0.7071067811865451302, 8.659560562354961208E-17, 0.7071067811865499042 ) ) ;
#364 = VERTEX_POINT ( 'NONE', #297 ) ;
#365 = DIRECTION ( 'NONE',  ( 0.000000000000000000, 0.000000000000000000, 1.000000000000000000 ) ) ;
#366 = CARTESIAN_POINT ( 'NONE',  ( 99.65049815887381612, 0.7530589543937766805, 12.39999999999998792 ) ) ;
#367 = ORIENTED_EDGE ( 'NONE', *, *, #598, .F. ) ;
#368 = DIRECTION ( 'NONE',  ( 0.000000000000000000, 0.000000000000000000, 1.000000000000000000 ) ) ;
#369 = CARTESIAN_POINT ( 'NONE',  ( -82.04950184112617251, -24.24694104560622421, 0.000000000000000000 ) ) ;
#370 = CONICAL_SURFACE ( 'NONE', #634, 4.699999999999999289, 0.7853981633974517207 ) ;
#371 = AXIS2_PLACEMENT_3D ( 'NONE', #482, #321, #230 ) ;
#372 = VERTEX_POINT ( 'NONE', #503 ) ;
#373 = EDGE_CURVE ( 'NONE', #176, #613, #288, .T. ) ;
#374 = ORIENTED_EDGE ( 'NONE', *, *, #677, .T. ) ;
#375 = DIRECTION ( 'NONE',  ( 0.000000000000000000, 0.000000000000000000, -1.000000000000000000 ) ) ;
#376 = LINE ( 'NONE', #383, #348 ) ;
#377 = EDGE_CURVE ( 'NONE', #279, #552, #543, .T. ) ;
#378 = ADVANCED_FACE ( 'NONE', ( #136, #404 ), #64, .F. ) ;
#379 = VECTOR ( 'NONE', #636, 1000.000000000000000 ) ;
#380 = VERTEX_POINT ( 'NONE', #623 ) ;
#381 =( GEOMETRIC_REPRESENTATION_CONTEXT ( 3 ) GLOBAL_UNCERTAINTY_ASSIGNED_CONTEXT ( ( #225 ) ) GLOBAL_UNIT_ASSIGNED_CONTEXT ( ( #11, #441, #280 ) ) REPRESENTATION_CONTEXT ( 'NONE', 'WORKASPACE' ) );
#382 = FACE_OUTER_BOUND ( 'NONE', #159, .T. ) ;
#383 = CARTESIAN_POINT ( 'NONE',  ( -82.04950184112617251, 0.7530589543937766805, 12.39999999999998259 ) ) ;
#384 = ORIENTED_EDGE ( 'NONE', *, *, #359, .F. ) ;
#385 = LINE ( 'NONE', #614, #493 ) ;
#386 = FACE_OUTER_BOUND ( 'NONE', #17, .T. ) ;
#387 = VERTEX_POINT ( 'NONE', #283 ) ;
#388 = ORIENTED_EDGE ( 'NONE', *, *, #553, .F. ) ;
#389 = EDGE_CURVE ( 'NONE', #613, #338, #495, .T. ) ;
#390 = DIRECTION ( 'NONE',  ( 0.000000000000000000, 1.000000000000000000, 0.000000000000000000 ) ) ;
#391 = DIRECTION ( 'NONE',  ( 1.000000000000000000, 0.000000000000000000, 0.000000000000000000 ) ) ;
#392 = ORIENTED_EDGE ( 'NONE', *, *, #82, .F. ) ;
#393 = APPLICATION_PROTOCOL_DEFINITION ( 'draft international standard', 'automotive_design', 1998, #58 ) ;
#394 = AXIS2_PLACEMENT_3D ( 'NONE', #55, #699, #695 ) ;
#395 = DIRECTION ( 'NONE',  ( 0.000000000000000000, -0.000000000000000000, 1.000000000000000000 ) ) ;
#396 = CARTESIAN_POINT ( 'NONE',  ( 0.000000000000000000, 0.000000000000000000, 20.00000000000000000 ) ) ;
#397 = EDGE_LOOP ( 'NONE', ( #354, #196 ) ) ;
#398 = CARTESIAN_POINT ( 'NONE',  ( -82.04950184112617251, -24.24694104560622421, 0.000000000000000000 ) ) ;
#399 = CARTESIAN_POINT ( 'NONE',  ( 0.000000000000000000, 0.000000000000000000, 20.00000000000000000 ) ) ;
#400 = VERTEX_POINT ( 'NONE', #12 ) ;
#401 = EDGE_CURVE ( 'NONE', #97, #552, #507, .T. ) ;
#402 = ORIENTED_EDGE ( 'NONE', *, *, #166, .F. ) ;
#403 = LINE ( 'NONE', #448, #161 ) ;
#404 = FACE_OUTER_BOUND ( 'NONE', #85, .T. ) ;
#405 = ORIENTED_EDGE ( 'NONE', *, *, #235, .T. ) ;
#406 = PRODUCT_DEFINITION ( 'UNKNOWN', '', #68, #567 ) ;
#407 = ORIENTED_EDGE ( 'NONE', *, *, #274, .T. ) ;
#408 = AXIS2_PLACEMENT_3D ( 'NONE', #254, #644, #693 ) ;
#409 = CARTESIAN_POINT ( 'NONE',  ( 85.95049815887381328, 10.75305895439379711, 5.000000000000000000 ) ) ;
#410 = VECTOR ( 'NONE', #150, 1000.000000000000000 ) ;
#411 = CARTESIAN_POINT ( 'NONE',  ( 99.65049815887381612, 0.7530589543937766805, 10.00000000000000000 ) ) ;
#412 = ORIENTED_EDGE ( 'NONE', *, *, #478, .F. ) ;
#413 = ADVANCED_FACE ( 'NONE', ( #666 ), #182, .T. ) ;
#414 = CARTESIAN_POINT ( 'NONE',  ( -77.04950184112617251, 25.75305895439377935, 5.000000000000000000 ) ) ;
#415 = FACE_OUTER_BOUND ( 'NONE', #451, .T. ) ;
#416 = CARTESIAN_POINT ( 'NONE',  ( 101.9504981588738133, 25.75305895439378290, 0.000000000000000000 ) ) ;
#417 = DIRECTION ( 'NONE',  ( 0.000000000000000000, -0.000000000000000000, 1.000000000000000000 ) ) ;
#418 = LINE ( 'NONE', #414, #379 ) ;
#419 = VECTOR ( 'NONE', #474, 1000.000000000000000 ) ;
#420 = DIRECTION ( 'NONE',  ( 1.000000000000000000, -0.000000000000000000, -0.000000000000000000 ) ) ;
#421 = AXIS2_PLACEMENT_3D ( 'NONE', #3, #168, #427 ) ;
#422 = ORIENTED_EDGE ( 'NONE', *, *, #56, .T. ) ;
#423 = DIRECTION ( 'NONE',  ( -1.000000000000000000, -0.000000000000000000, -0.000000000000000000 ) ) ;
#424 = CARTESIAN_POINT ( 'NONE',  ( -82.04950184112617251, 0.7530589543937766805, 10.00000000000000000 ) ) ;
#425 = EDGE_CURVE ( 'NONE', #432, #289, #128, .T. ) ;
#426 = EDGE_LOOP ( 'NONE', ( #114, #489, #579, #120, #621, #603, #534, #243 ) ) ;
#427 = DIRECTION ( 'NONE',  ( 0.000000000000000000, 0.000000000000000000, 1.000000000000000000 ) ) ;
#428 = DIRECTION ( 'NONE',  ( 0.000000000000000000, 0.000000000000000000, -1.000000000000000000 ) ) ;
#429 = ORIENTED_EDGE ( 'NONE', *, *, #639, .F. ) ;
#430 = DIRECTION ( 'NONE',  ( -1.000000000000000000, -1.885568995626964287E-17, -0.000000000000000000 ) ) ;
#431 = AXIS2_PLACEMENT_3D ( 'NONE', #294, #299, #674 ) ;
#432 = VERTEX_POINT ( 'NONE', #18 ) ;
#433 = EDGE_CURVE ( 'NONE', #528, #215, #241, .T. ) ;
#434 = FACE_OUTER_BOUND ( 'NONE', #350, .T. ) ;
#435 = ADVANCED_FACE ( 'NONE', ( #561 ), #463, .F. ) ;
#436 = DIRECTION ( 'NONE',  ( 0.000000000000000000, 0.000000000000000000, 1.000000000000000000 ) ) ;
#437 = ORIENTED_EDGE ( 'NONE', *, *, #501, .F. ) ;
#438 = DIRECTION ( 'NONE',  ( -0.000000000000000000, -0.000000000000000000, -1.000000000000000000 ) ) ;
#439 = VECTOR ( 'NONE', #326, 1000.000000000000114 ) ;
#440 = ORIENTED_EDGE ( 'NONE', *, *, #44, .T. ) ;
#441 =( NAMED_UNIT ( * ) PLANE_ANGLE_UNIT ( ) SI_UNIT ( $, .RADIAN. ) );
#442 = DIRECTION ( 'NONE',  ( -1.000000000000000000, -0.000000000000000000, -0.000000000000000000 ) ) ;
#443 = EDGE_LOOP ( 'NONE', ( #276, #627, #107, #694 ) ) ;
#444 = PLANE ( 'NONE',  #198 ) ;
#445 = CARTESIAN_POINT ( 'NONE',  ( 101.9504981588738133, 0.7530589543937766805, 10.00000000000000000 ) ) ;
#446 = FACE_OUTER_BOUND ( 'NONE', #194, .T. ) ;
#447 = ORIENTED_EDGE ( 'NONE', *, *, #177, .F. ) ;
#448 = CARTESIAN_POINT ( 'NONE',  ( -66.04950184112617251, -24.24694104560622421, 5.000000000000000000 ) ) ;
#449 = DIRECTION ( 'NONE',  ( 0.000000000000000000, 0.000000000000000000, -1.000000000000000000 ) ) ;
#450 = ORIENTED_EDGE ( 'NONE', *, *, #401, .F. ) ;
#451 = EDGE_LOOP ( 'NONE', ( #61, #429, #156, #476, #479, #508 ) ) ;
#452 = CARTESIAN_POINT ( 'NONE',  ( 96.95049815887381328, 0.7530589543937766805, 10.00000000000000000 ) ) ;
#453 = ADVANCED_FACE ( 'NONE', ( #470 ), #264, .F. ) ;
#454 = CARTESIAN_POINT ( 'NONE',  ( 96.95049815887381328, -24.24694104560622421, 20.00000000000000000 ) ) ;
#455 = LINE ( 'NONE', #568, #54 ) ;
#456 = CARTESIAN_POINT ( 'NONE',  ( -82.04950184112617251, -24.24694104560622421, 0.000000000000000000 ) ) ;
#457 = EDGE_CURVE ( 'NONE', #69, #364, #195, .T. ) ;
#458 = DIRECTION ( 'NONE',  ( -1.000000000000000000, 0.000000000000000000, 0.000000000000000000 ) ) ;
#459 = CARTESIAN_POINT ( 'NONE',  ( -82.04950184112617251, -24.24694104560622421, 20.00000000000000000 ) ) ;
#460 = LINE ( 'NONE', #620, #611 ) ;
#461 = ORIENTED_EDGE ( 'NONE', *, *, #646, .T. ) ;
#462 = CIRCLE ( 'NONE', #464, 2.399999999999987033 ) ;
#463 = PLANE ( 'NONE',  #251 ) ;
#464 = AXIS2_PLACEMENT_3D ( 'NONE', #341, #247, #175 ) ;
#465 = CARTESIAN_POINT ( 'NONE',  ( 101.9504981588738133, 0.7530589543937766805, 10.00000000000000000 ) ) ;
#466 = EDGE_CURVE ( 'NONE', #87, #380, #525, .T. ) ;
#467 = ORIENTED_EDGE ( 'NONE', *, *, #231, .T. ) ;
#468 = DIRECTION ( 'NONE',  ( 1.000000000000000000, 0.000000000000000000, 0.000000000000000000 ) ) ;
#469 = CARTESIAN_POINT ( 'NONE',  ( 96.95049815887381328, 0.7530589543937766805, 12.39999999999998259 ) ) ;
#470 = FACE_OUTER_BOUND ( 'NONE', #643, .T. ) ;
#471 = SURFACE_SIDE_STYLE ('',( #258 ) ) ;
#472 = ORIENTED_EDGE ( 'NONE', *, *, #205, .T. ) ;
#473 = CARTESIAN_POINT ( 'NONE',  ( 101.9504981588738133, -24.24694104560622065, 5.000000000000000000 ) ) ;
#474 = DIRECTION ( 'NONE',  ( -0.000000000000000000, -0.000000000000000000, -1.000000000000000000 ) ) ;
#475 = VECTOR ( 'NONE', #115, 1000.000000000000000 ) ;
#476 = ORIENTED_EDGE ( 'NONE', *, *, #656, .F. ) ;
#477 = DIRECTION ( 'NONE',  ( -4.336808689942017736E-16, 1.000000000000000000, 0.000000000000000000 ) ) ;
#478 = EDGE_CURVE ( 'NONE', #338, #289, #577, .T. ) ;
#479 = ORIENTED_EDGE ( 'NONE', *, *, #457, .F. ) ;
#480 = LINE ( 'NONE', #113, #492 ) ;
#481 = ORIENTED_EDGE ( 'NONE', *, *, #235, .F. ) ;
#482 = CARTESIAN_POINT ( 'NONE',  ( 85.95049815887381328, 10.75305895439379711, 5.000000000000000000 ) ) ;
#483 = AXIS2_PLACEMENT_3D ( 'NONE', #399, #395, #615 ) ;
#484 = ORIENTED_EDGE ( 'NONE', *, *, #425, .F. ) ;
#485 = EDGE_CURVE ( 'NONE', #69, #327, #199, .T. ) ;
#486 = CARTESIAN_POINT ( 'NONE',  ( -66.04950184112617251, -24.24694104560622421, 0.000000000000000000 ) ) ;
#487 = LINE ( 'NONE', #4, #439 ) ;
#488 = PLANE ( 'NONE',  #371 ) ;
#489 = ORIENTED_EDGE ( 'NONE', *, *, #616, .F. ) ;
#490 = SURFACE_STYLE_USAGE ( .BOTH. , #471 ) ;
#491 = MECHANICAL_DESIGN_GEOMETRIC_PRESENTATION_REPRESENTATION (  '', ( #526 ), #160 ) ;
#492 = VECTOR ( 'NONE', #430, 1000.000000000000000 ) ;
#493 = VECTOR ( 'NONE', #70, 1000.000000000000000 ) ;
#494 = CARTESIAN_POINT ( 'NONE',  ( 101.9504981588738133, -24.24694104560622065, 0.000000000000000000 ) ) ;
#495 = LINE ( 'NONE', #133, #91 ) ;
#496 = EDGE_CURVE ( 'NONE', #387, #658, #418, .T. ) ;
#497 = DIRECTION ( 'NONE',  ( 0.000000000000000000, 0.000000000000000000, -1.000000000000000000 ) ) ;
#498 = CARTESIAN_POINT ( 'NONE',  ( 0.000000000000000000, 0.000000000000000000, 0.000000000000000000 ) ) ;
#499 = DIRECTION ( 'NONE',  ( 1.000000000000000000, 0.000000000000000000, 0.000000000000000000 ) ) ;
#500 = ORIENTED_EDGE ( 'NONE', *, *, #485, .F. ) ;
#501 = EDGE_CURVE ( 'NONE', #651, #215, #210, .T. ) ;
#502 = ORIENTED_EDGE ( 'NONE', *, *, #524, .T. ) ;
#503 = CARTESIAN_POINT ( 'NONE',  ( 99.65049815887381612, 0.7530589543937770136, 7.600000000000012967 ) ) ;
#504 = ORIENTED_EDGE ( 'NONE', *, *, #466, .T. ) ;
#505 = EDGE_CURVE ( 'NONE', #289, #380, #632, .T. ) ;
#506 = VECTOR ( 'NONE', #595, 1000.000000000000000 ) ;
#507 = LINE ( 'NONE', #233, #282 ) ;
#508 = ORIENTED_EDGE ( 'NONE', *, *, #485, .T. ) ;
#509 = ORIENTED_EDGE ( 'NONE', *, *, #256, .F. ) ;
#510 = CARTESIAN_POINT ( 'NONE',  ( 101.9504981588738133, -24.24694104560622065, 20.00000000000000000 ) ) ;
#511 = EDGE_LOOP ( 'NONE', ( #661, #412, #253, #322 ) ) ;
#512 = EDGE_LOOP ( 'NONE', ( #374, #590, #165, #203, #232, #504 ) ) ;
#513 = CARTESIAN_POINT ( 'NONE',  ( 101.9504981588738133, 0.7530589543937766805, 10.00000000000000000 ) ) ;
#514 = DIRECTION ( 'NONE',  ( 0.000000000000000000, 0.000000000000000000, -1.000000000000000000 ) ) ;
#515 = CONICAL_SURFACE ( 'NONE', #208, 4.699999999999999289, 0.7853981633974517207 ) ;
#516 = CARTESIAN_POINT ( 'NONE',  ( -82.04950184112617251, 0.7530589543937766805, 10.00000000000000000 ) ) ;
#517 = AXIS2_PLACEMENT_3D ( 'NONE', #539, #157, #368 ) ;
#518 = FACE_OUTER_BOUND ( 'NONE', #77, .T. ) ;
#519 = DIRECTION ( 'NONE',  ( -1.000000000000000000, -4.336808689942017736E-16, 0.000000000000000000 ) ) ;
#520 = ORIENTED_EDGE ( 'NONE', *, *, #239, .F. ) ;
#521 = CARTESIAN_POINT ( 'NONE',  ( 96.95049815887381328, -24.24694104560622421, 5.000000000000000000 ) ) ;
#522 = CARTESIAN_POINT ( 'NONE',  ( -82.04950184112617251, 25.75305895439377935, 20.00000000000000000 ) ) ;
#523 = ORIENTED_EDGE ( 'NONE', *, *, #478, .T. ) ;
#524 = EDGE_CURVE ( 'NONE', #387, #176, #43, .T. ) ;
#525 = LINE ( 'NONE', #630, #316 ) ;
#526 = STYLED_ITEM ( 'NONE', ( #587 ), #184 ) ;
#527 = LINE ( 'NONE', #34, #111 ) ;
#528 = VERTEX_POINT ( 'NONE', #153 ) ;
#529 = DIRECTION ( 'NONE',  ( -0.000000000000000000, -0.000000000000000000, -1.000000000000000000 ) ) ;
#530 = LINE ( 'NONE', #532, #124 ) ;
#531 = ORIENTED_EDGE ( 'NONE', *, *, #212, .T. ) ;
#532 = CARTESIAN_POINT ( 'NONE',  ( -82.04950184112617251, 25.75305895439377935, 20.00000000000000000 ) ) ;
#533 = ADVANCED_FACE ( 'NONE', ( #88 ), #515, .F. ) ;
#534 = ORIENTED_EDGE ( 'NONE', *, *, #49, .F. ) ;
#535 = LINE ( 'NONE', #223, #506 ) ;
#536 = CARTESIAN_POINT ( 'NONE',  ( -82.04950184112617251, 0.7530589543937770136, 7.600000000000018296 ) ) ;
#537 = CIRCLE ( 'NONE', #10, 2.399999999999982148 ) ;
#538 = ORIENTED_EDGE ( 'NONE', *, *, #49, .T. ) ;
#539 = CARTESIAN_POINT ( 'NONE',  ( -82.04950184112617251, 0.7530589543937766805, 10.00000000000000000 ) ) ;
#540 = CARTESIAN_POINT ( 'NONE',  ( 101.9504981588738133, 0.7530589543937772357, 14.69999999999999929 ) ) ;
#541 = ORIENTED_EDGE ( 'NONE', *, *, #5, .T. ) ;
#542 = EDGE_CURVE ( 'NONE', #87, #215, #580, .T. ) ;
#543 = LINE ( 'NONE', #25, #657 ) ;
#544 = CARTESIAN_POINT ( 'NONE',  ( 96.95049815887381328, -24.24694104560622421, 20.00000000000000000 ) ) ;
#545 = CIRCLE ( 'NONE', #281, 2.399999999999987033 ) ;
#546 = AXIS2_PLACEMENT_3D ( 'NONE', #216, #167, #596 ) ;
#547 = VECTOR ( 'NONE', #62, 1000.000000000000114 ) ;
#548 = ORIENTED_EDGE ( 'NONE', *, *, #501, .T. ) ;
#549 = VECTOR ( 'NONE', #529, 1000.000000000000000 ) ;
#550 = CARTESIAN_POINT ( 'NONE',  ( 96.95049815887381328, 25.75305895439378290, 5.000000000000000000 ) ) ;
#551 = DIRECTION ( 'NONE',  ( -1.000000000000000000, 0.000000000000000000, 0.000000000000000000 ) ) ;
#552 = VERTEX_POINT ( 'NONE', #416 ) ;
#553 = EDGE_CURVE ( 'NONE', #178, #628, #104, .T. ) ;
#554 = ORIENTED_EDGE ( 'NONE', *, *, #300, .T. ) ;
#555 = LINE ( 'NONE', #494, #163 ) ;
#556 = CARTESIAN_POINT ( 'NONE',  ( -79.74950184112618956, 0.7530589543937766805, 12.39999999999998792 ) ) ;
#557 = DIRECTION ( 'NONE',  ( -0.000000000000000000, -0.000000000000000000, -1.000000000000000000 ) ) ;
#558 = PRODUCT ( 'z2', 'z2', '', ( #659 ) ) ;
#559 = VERTEX_POINT ( 'NONE', #641 ) ;
#560 = APPLICATION_PROTOCOL_DEFINITION ( 'draft international standard', 'automotive_design', 1998, #622 ) ;
#561 = FACE_OUTER_BOUND ( 'NONE', #569, .T. ) ;
#562 = FACE_OUTER_BOUND ( 'NONE', #314, .T. ) ;
#563 = VECTOR ( 'NONE', #574, 1000.000000000000000 ) ;
#564 = CIRCLE ( 'NONE', #546, 2.399999999999987033 ) ;
#565 = AXIS2_PLACEMENT_3D ( 'NONE', #452, #334, #670 ) ;
#566 = CARTESIAN_POINT ( 'NONE',  ( 96.95049815887381328, -24.24694104560622421, 20.00000000000000000 ) ) ;
#567 = PRODUCT_DEFINITION_CONTEXT ( 'detailed design', #58, 'design' ) ;
#568 = CARTESIAN_POINT ( 'NONE',  ( -77.04950184112617251, 25.75305895439377935, 20.00000000000000000 ) ) ;
#569 = EDGE_LOOP ( 'NONE', ( #259, #186, #1, #523 ) ) ;
#570 = DIRECTION ( 'NONE',  ( 1.000000000000000000, 0.000000000000000000, 0.000000000000000000 ) ) ;
#571 = FACE_OUTER_BOUND ( 'NONE', #190, .T. ) ;
#572 = ADVANCED_BREP_SHAPE_REPRESENTATION ( 'z2', ( #184, #272 ), #381 ) ;
#573 = ORIENTED_EDGE ( 'NONE', *, *, #553, .T. ) ;
#574 = DIRECTION ( 'NONE',  ( -0.000000000000000000, 1.000000000000000000, -0.000000000000000000 ) ) ;
#575 = VECTOR ( 'NONE', #206, 1000.000000000000114 ) ;
#576 = VECTOR ( 'NONE', #362, 1000.000000000000000 ) ;
#577 = LINE ( 'NONE', #409, #112 ) ;
#578 = CARTESIAN_POINT ( 'NONE',  ( 101.9504981588738133, 25.75305895439378290, 5.000000000000000000 ) ) ;
#579 = ORIENTED_EDGE ( 'NONE', *, *, #285, .F. ) ;
#580 = LINE ( 'NONE', #473, #669 ) ;
#581 = CYLINDRICAL_SURFACE ( 'NONE', #240, 2.399999999999982148 ) ;
#582 = ADVANCED_FACE ( 'NONE', ( #584 ), #242, .F. ) ;
#583 = ORIENTED_EDGE ( 'NONE', *, *, #310, .F. ) ;
#584 = FACE_OUTER_BOUND ( 'NONE', #357, .T. ) ;
#585 = CARTESIAN_POINT ( 'NONE',  ( 101.9504981588738133, -24.24694104560622065, 20.00000000000000000 ) ) ;
#586 = CARTESIAN_POINT ( 'NONE',  ( -66.04950184112617251, 10.75305895439377935, 5.000000000000000000 ) ) ;
#587 = PRESENTATION_STYLE_ASSIGNMENT (( #490 ) ) ;
#588 = VECTOR ( 'NONE', #273, 1000.000000000000000 ) ;
#589 = VECTOR ( 'NONE', #121, 1000.000000000000000 ) ;
#590 = ORIENTED_EDGE ( 'NONE', *, *, #212, .F. ) ;
#591 = ADVANCED_FACE ( 'NONE', ( #434 ), #697, .F. ) ;
#592 = LINE ( 'NONE', #224, #42 ) ;
#593 = VERTEX_POINT ( 'NONE', #486 ) ;
#594 = CARTESIAN_POINT ( 'NONE',  ( -82.04950184112617251, 25.75305895439377935, 20.00000000000000000 ) ) ;
#595 = DIRECTION ( 'NONE',  ( -0.000000000000000000, 1.000000000000000000, -0.000000000000000000 ) ) ;
#596 = DIRECTION ( 'NONE',  ( 0.000000000000000000, 0.000000000000000000, 1.000000000000000000 ) ) ;
#597 = AXIS2_PLACEMENT_3D ( 'NONE', #86, #691, #309 ) ;
#598 = EDGE_CURVE ( 'NONE', #361, #213, #325, .T. ) ;
#599 = ORIENTED_EDGE ( 'NONE', *, *, #359, .T. ) ;
#600 = CYLINDRICAL_SURFACE ( 'NONE', #517, 2.399999999999982148 ) ;
#601 = CARTESIAN_POINT ( 'NONE',  ( 101.9504981588738133, -24.24694104560622065, 0.000000000000000000 ) ) ;
#602 = EDGE_CURVE ( 'NONE', #593, #432, #535, .T. ) ;
#603 = ORIENTED_EDGE ( 'NONE', *, *, #122, .F. ) ;
#604 = CARTESIAN_POINT ( 'NONE',  ( -77.04950184112617251, 25.75305895439377935, 20.00000000000000000 ) ) ;
#605 = ORIENTED_EDGE ( 'NONE', *, *, #377, .F. ) ;
#606 = EDGE_LOOP ( 'NONE', ( #679, #330, #92, #617 ) ) ;
#607 = DIRECTION ( 'NONE',  ( 0.000000000000000000, 0.000000000000000000, 1.000000000000000000 ) ) ;
#608 = ADVANCED_FACE ( 'NONE', ( #382 ), #600, .F. ) ;
#609 = CARTESIAN_POINT ( 'NONE',  ( -82.04950184112617251, 0.7530589543937770136, 7.600000000000018296 ) ) ;
#610 = CARTESIAN_POINT ( 'NONE',  ( 96.95049815887381328, 25.75305895439378290, 20.00000000000000000 ) ) ;
#611 = VECTOR ( 'NONE', #238, 1000.000000000000000 ) ;
#612 = VECTOR ( 'NONE', #390, 1000.000000000000000 ) ;
#613 = VERTEX_POINT ( 'NONE', #586 ) ;
#614 = CARTESIAN_POINT ( 'NONE',  ( -77.04950184112617251, -24.24694104560622421, 20.00000000000000000 ) ) ;
#615 = DIRECTION ( 'NONE',  ( 1.000000000000000000, 0.000000000000000000, -0.000000000000000000 ) ) ;
#616 = EDGE_CURVE ( 'NONE', #146, #126, #105, .T. ) ;
#617 = ORIENTED_EDGE ( 'NONE', *, *, #310, .T. ) ;
#618 = ORIENTED_EDGE ( 'NONE', *, *, #351, .F. ) ;
#619 = DIRECTION ( 'NONE',  ( 0.000000000000000000, 0.000000000000000000, 1.000000000000000000 ) ) ;
#620 = CARTESIAN_POINT ( 'NONE',  ( 85.95049815887381328, -24.24694104560622776, 5.000000000000000000 ) ) ;
#621 = ORIENTED_EDGE ( 'NONE', *, *, #56, .F. ) ;
#622 = APPLICATION_CONTEXT ( 'automotive_design' ) ;
#623 = CARTESIAN_POINT ( 'NONE',  ( 85.95049815887381328, -24.24694104560622776, 0.000000000000000000 ) ) ;
#624 = ORIENTED_EDGE ( 'NONE', *, *, #665, .F. ) ;
#625 = EDGE_CURVE ( 'NONE', #613, #432, #47, .T. ) ;
#626 = AXIS2_PLACEMENT_3D ( 'NONE', #667, #284, #672 ) ;
#627 = ORIENTED_EDGE ( 'NONE', *, *, #303, .T. ) ;
#628 = VERTEX_POINT ( 'NONE', #135 ) ;
#629 = EDGE_CURVE ( 'NONE', #628, #178, #220, .T. ) ;
#630 = CARTESIAN_POINT ( 'NONE',  ( 85.95049815887381328, -24.24694104560622776, 5.000000000000000000 ) ) ;
#631 = LINE ( 'NONE', #356, #563 ) ;
#632 = LINE ( 'NONE', #144, #576 ) ;
#633 = DIRECTION ( 'NONE',  ( 0.000000000000000000, 0.000000000000000000, 1.000000000000000000 ) ) ;
#634 = AXIS2_PLACEMENT_3D ( 'NONE', #465, #420, #514 ) ;
#635 = AXIS2_PLACEMENT_3D ( 'NONE', #99, #140, #352 ) ;
#636 = DIRECTION ( 'NONE',  ( -0.000000000000000000, 1.000000000000000000, -0.000000000000000000 ) ) ;
#637 = VECTOR ( 'NONE', #174, 1000.000000000000000 ) ;
#638 = PLANE ( 'NONE',  #305 ) ;
#639 = EDGE_CURVE ( 'NONE', #176, #593, #403, .T. ) ;
#640 = ORIENTED_EDGE ( 'NONE', *, *, #677, .F. ) ;
#641 = CARTESIAN_POINT ( 'NONE',  ( -77.04950184112617251, 0.7530589543937766805, 12.39999999999998259 ) ) ;
#642 = LINE ( 'NONE', #585, #20 ) ;
#643 = EDGE_LOOP ( 'NONE', ( #308, #59, #255, #624 ) ) ;
#644 = DIRECTION ( 'NONE',  ( 1.000000000000000000, -0.000000000000000000, -0.000000000000000000 ) ) ;
#645 = ORIENTED_EDGE ( 'NONE', *, *, #389, .T. ) ;
#646 = EDGE_CURVE ( 'NONE', #126, #327, #187, .T. ) ;
#647 = AXIS2_PLACEMENT_3D ( 'NONE', #8, #6, #436 ) ;
#648 = CARTESIAN_POINT ( 'NONE',  ( -82.04950184112617251, 0.7530589543937772357, 5.300000000000000711 ) ) ;
#649 = ORIENTED_EDGE ( 'NONE', *, *, #155, .F. ) ;
#650 = FACE_OUTER_BOUND ( 'NONE', #109, .T. ) ;
#651 = VERTEX_POINT ( 'NONE', #550 ) ;
#652 = LINE ( 'NONE', #609, #139 ) ;
#653 = ORIENTED_EDGE ( 'NONE', *, *, #274, .F. ) ;
#654 = DIRECTION ( 'NONE',  ( -1.000000000000000000, 0.000000000000000000, -0.000000000000000000 ) ) ;
#655 = CARTESIAN_POINT ( 'NONE',  ( -82.04950184112617251, 0.7530589543937766805, 12.39999999999998259 ) ) ;
#656 = EDGE_CURVE ( 'NONE', #364, #387, #385, .T. ) ;
#657 = VECTOR ( 'NONE', #118, 1000.000000000000000 ) ;
#658 = VERTEX_POINT ( 'NONE', #340 ) ;
#659 = PRODUCT_CONTEXT ( 'NONE', #622, 'mechanical' ) ;
#660 = DIRECTION ( 'NONE',  ( 1.000000000000000000, -0.000000000000000000, -0.000000000000000000 ) ) ;
#661 = ORIENTED_EDGE ( 'NONE', *, *, #425, .T. ) ;
#662 = CARTESIAN_POINT ( 'NONE',  ( 101.9504981588738133, 0.7530589543937766805, 5.300000000000000711 ) ) ;
#663 = PLANE ( 'NONE',  #298 ) ;
#664 = CARTESIAN_POINT ( 'NONE',  ( -77.04950184112617251, 25.75305895439377935, 20.00000000000000000 ) ) ;
#665 = EDGE_CURVE ( 'NONE', #372, #236, #244, .T. ) ;
#666 = FACE_OUTER_BOUND ( 'NONE', #152, .T. ) ;
#667 = CARTESIAN_POINT ( 'NONE',  ( -66.04950184112617251, 10.75305895439377935, 5.000000000000000000 ) ) ;
#668 = CIRCLE ( 'NONE', #158, 4.699999999999999289 ) ;
#669 = VECTOR ( 'NONE', #684, 1000.000000000000000 ) ;
#670 = DIRECTION ( 'NONE',  ( 0.000000000000000000, 0.000000000000000000, -1.000000000000000000 ) ) ;
#671 = DIRECTION ( 'NONE',  ( -0.000000000000000000, -0.000000000000000000, -1.000000000000000000 ) ) ;
#672 = DIRECTION ( 'NONE',  ( 0.000000000000000000, 0.000000000000000000, 1.000000000000000000 ) ) ;
#673 = DIRECTION ( 'NONE',  ( 0.000000000000000000, 0.000000000000000000, 1.000000000000000000 ) ) ;
#674 = DIRECTION ( 'NONE',  ( 0.000000000000000000, 0.000000000000000000, 1.000000000000000000 ) ) ;
#675 = CARTESIAN_POINT ( 'NONE',  ( 96.95049815887381328, 0.7530589543937766805, 10.00000000000000000 ) ) ;
#676 = ORIENTED_EDGE ( 'NONE', *, *, #373, .T. ) ;
#677 = EDGE_CURVE ( 'NONE', #380, #279, #555, .T. ) ;
#678 = AXIS2_PLACEMENT_3D ( 'NONE', #578, #94, #96 ) ;
#679 = ORIENTED_EDGE ( 'NONE', *, *, #143, .F. ) ;
#680 = VECTOR ( 'NONE', #106, 1000.000000000000000 ) ;
#681 = DIRECTION ( 'NONE',  ( 1.000000000000000000, 0.000000000000000000, 0.000000000000000000 ) ) ;
#682 = DIRECTION ( 'NONE',  ( -1.000000000000000000, 0.000000000000000000, -0.000000000000000000 ) ) ;
#683 = ORIENTED_EDGE ( 'NONE', *, *, #35, .T. ) ;
#684 = DIRECTION ( 'NONE',  ( 1.000000000000000000, 4.336808689942017736E-16, -0.000000000000000000 ) ) ;
#685 = LINE ( 'NONE', #536, #307 ) ;
#686 = ORIENTED_EDGE ( 'NONE', *, *, #542, .T. ) ;
#687 = ADVANCED_FACE ( 'NONE', ( #295, #346 ), #444, .F. ) ;
#688 = DIRECTION ( 'NONE',  ( 1.000000000000000000, -0.000000000000000000, -0.000000000000000000 ) ) ;
#689 = CARTESIAN_POINT ( 'NONE',  ( -66.04950184112617251, -24.24694104560622421, 5.000000000000000000 ) ) ;
#690 = ORIENTED_EDGE ( 'NONE', *, *, #177, .T. ) ;
#691 = DIRECTION ( 'NONE',  ( -1.000000000000000000, -0.000000000000000000, -0.000000000000000000 ) ) ;
#692 = ORIENTED_EDGE ( 'NONE', *, *, #5, .F. ) ;
#693 = DIRECTION ( 'NONE',  ( 0.000000000000000000, 0.000000000000000000, -1.000000000000000000 ) ) ;
#694 = ORIENTED_EDGE ( 'NONE', *, *, #231, .F. ) ;
#695 = DIRECTION ( 'NONE',  ( 0.000000000000000000, 0.000000000000000000, 1.000000000000000000 ) ) ;
#696 = ORIENTED_EDGE ( 'NONE', *, *, #433, .F. ) ;
#697 = PLANE ( 'NONE',  #360 ) ;
#698 = CIRCLE ( 'NONE', #148, 4.699999999999999289 ) ;
#699 = DIRECTION ( 'NONE',  ( -1.000000000000000000, -0.000000000000000000, -0.000000000000000000 ) ) ;
ENDSEC;
END-ISO-10303-21;
