ISO-10303-21;
HEADER;
FILE_DESCRIPTION (( 'STEP AP214' ),
    '1' );
FILE_NAME ('óÏ.STEP',
    '2026-01-20T22:15:26',
    ( '' ),
    ( '' ),
    'SwSTEP 2.0',
    'SolidWorks 2024',
    '' );
FILE_SCHEMA (( 'AUTOMOTIVE_DESIGN' ));
ENDSEC;

DATA;
#1 = DIRECTION ( 'NONE',  ( 1.315430123963455640E-16, -1.000000000000000000, 0.000000000000000000 ) ) ;
#2 = EDGE_LOOP ( 'NONE', ( #825, #523, #581, #587 ) ) ;
#3 = DIRECTION ( 'NONE',  ( 1.000000000000000000, 0.000000000000000000, -0.000000000000000000 ) ) ;
#4 = LINE ( 'NONE', #506, #275 ) ;
#5 = EDGE_CURVE ( 'NONE', #117, #400, #396, .T. ) ;
#6 = ORIENTED_EDGE ( 'NONE', *, *, #960, .T. ) ;
#7 = CARTESIAN_POINT ( 'NONE',  ( -3.246064267725760288, 28.64817227956413959, 20.00000000000000000 ) ) ;
#8 = AXIS2_PLACEMENT_3D ( 'NONE', #782, #152, #386 ) ;
#9 = AXIS2_PLACEMENT_3D ( 'NONE', #443, #758, #934 ) ;
#10 = ORIENTED_EDGE ( 'NONE', *, *, #287, .F. ) ;
#11 = DIRECTION ( 'NONE',  ( -0.000000000000000000, -0.000000000000000000, -1.000000000000000000 ) ) ;
#12 = VERTEX_POINT ( 'NONE', #537 ) ;
#13 = EDGE_LOOP ( 'NONE', ( #819, #600, #744, #442 ) ) ;
#14 = CARTESIAN_POINT ( 'NONE',  ( -3.246064267725760288, 28.64817227956413959, 12.00000000000000000 ) ) ;
#15 = ORIENTED_EDGE ( 'NONE', *, *, #5, .F. ) ;
#16 = ADVANCED_FACE ( 'NONE', ( #139, #775, #59 ), #633, .F. ) ;
#17 = ADVANCED_BREP_SHAPE_REPRESENTATION ( '\X2\0443041f\X0\', ( #923, #962 ), #818 ) ;
#18 = ORIENTED_EDGE ( 'NONE', *, *, #540, .F. ) ;
#19 = CARTESIAN_POINT ( 'NONE',  ( 0.000000000000000000, 0.000000000000000000, 20.00000000000000000 ) ) ;
#20 = ADVANCED_FACE ( 'NONE', ( #1047 ), #878, .F. ) ;
#21 = LINE ( 'NONE', #668, #92 ) ;
#22 = DIRECTION ( 'NONE',  ( 1.000000000000000000, 0.000000000000000000, 0.000000000000000000 ) ) ;
#23 = ORIENTED_EDGE ( 'NONE', *, *, #836, .T. ) ;
#24 = CARTESIAN_POINT ( 'NONE',  ( 22.75393573227429300, -91.15235955056182604, 25.00000000000000000 ) ) ;
#25 = FACE_OUTER_BOUND ( 'NONE', #984, .T. ) ;
#26 = EDGE_CURVE ( 'NONE', #30, #604, #301, .T. ) ;
#27 = FACE_OUTER_BOUND ( 'NONE', #34, .T. ) ;
#28 = VERTEX_POINT ( 'NONE', #71 ) ;
#29 =( NAMED_UNIT ( * ) SI_UNIT ( $, .STERADIAN. ) SOLID_ANGLE_UNIT ( ) );
#30 = VERTEX_POINT ( 'NONE', #559 ) ;
#31 = CARTESIAN_POINT ( 'NONE',  ( -6.946064267725735597, -63.15235955056182604, -1.734723475976807883E-15 ) ) ;
#32 = LINE ( 'NONE', #283, #178 ) ;
#33 = EDGE_CURVE ( 'NONE', #55, #699, #542, .T. ) ;
#34 = EDGE_LOOP ( 'NONE', ( #661, #493, #256, #246 ) ) ;
#35 = SURFACE_STYLE_FILL_AREA ( #201 ) ;
#36 = EDGE_LOOP ( 'NONE', ( #269, #766, #298, #678 ) ) ;
#37 = DIRECTION ( 'NONE',  ( -0.000000000000000000, -1.000000000000000000, -0.000000000000000000 ) ) ;
#38 = CARTESIAN_POINT ( 'NONE',  ( -2.246064267725736308, -63.15235955056182604, -1.734723475976807883E-15 ) ) ;
#39 = AXIS2_PLACEMENT_3D ( 'NONE', #38, #125, #848 ) ;
#40 = EDGE_LOOP ( 'NONE', ( #1025, #983, #415, #351 ) ) ;
#41 = CARTESIAN_POINT ( 'NONE',  ( 0.1539357322742408163, -63.15235955056182604, 2.300000000000024247 ) ) ;
#42 = AXIS2_PLACEMENT_3D ( 'NONE', #161, #478, #799 ) ;
#43 = CONICAL_SURFACE ( 'NONE', #760, 4.699999999999999289, 0.7853981633974473908 ) ;
#44 = ORIENTED_EDGE ( 'NONE', *, *, #210, .F. ) ;
#45 = DIRECTION ( 'NONE',  ( 1.000000000000000000, 0.000000000000000000, 0.000000000000000000 ) ) ;
#46 = CARTESIAN_POINT ( 'NONE',  ( -19.10067103158761981, -63.15235955056182604, 20.00000000000000000 ) ) ;
#47 = EDGE_CURVE ( 'NONE', #51, #996, #274, .T. ) ;
#48 = ORIENTED_EDGE ( 'NONE', *, *, #565, .T. ) ;
#49 = CARTESIAN_POINT ( 'NONE',  ( -2.246064267725715435, 91.84764044943817396, -1.734723475976807883E-15 ) ) ;
#50 = EDGE_CURVE ( 'NONE', #606, #881, #154, .T. ) ;
#51 = VERTEX_POINT ( 'NONE', #963 ) ;
#52 = CARTESIAN_POINT ( 'NONE',  ( -3.246064267725760288, -13.95289138068775081, 12.00000000000000000 ) ) ;
#53 = EDGE_CURVE ( 'NONE', #134, #617, #966, .T. ) ;
#54 = CARTESIAN_POINT ( 'NONE',  ( 0.1539357322742711809, 91.84764044943817396, 20.00000000000000000 ) ) ;
#55 = VERTEX_POINT ( 'NONE', #74 ) ;
#56 = ORIENTED_EDGE ( 'NONE', *, *, #452, .F. ) ;
#57 = CARTESIAN_POINT ( 'NONE',  ( -47.24606426772573542, -13.95289138068775081, 20.00000000000000000 ) ) ;
#58 = CARTESIAN_POINT ( 'NONE',  ( 17.75393573227428945, 121.8476404494381740, 25.00000000000000000 ) ) ;
#59 = FACE_BOUND ( 'NONE', #533, .T. ) ;
#60 = DIRECTION ( 'NONE',  ( 0.000000000000000000, 1.000000000000000000, 0.000000000000000000 ) ) ;
#61 = ORIENTED_EDGE ( 'NONE', *, *, #88, .F. ) ;
#62 = CYLINDRICAL_SURFACE ( 'NONE', #380, 2.000000000000001776 ) ;
#63 = VECTOR ( 'NONE', #585, 1000.000000000000000 ) ;
#64 = CARTESIAN_POINT ( 'NONE',  ( 22.75393573227429300, -91.15235955056182604, 25.00000000000000000 ) ) ;
#65 = ORIENTED_EDGE ( 'NONE', *, *, #824, .T. ) ;
#66 = FACE_OUTER_BOUND ( 'NONE', #785, .T. ) ;
#67 = ORIENTED_EDGE ( 'NONE', *, *, #664, .T. ) ;
#68 = CARTESIAN_POINT ( 'NONE',  ( -50.24606426772572831, 119.8476404494381740, 25.00000000000000000 ) ) ;
#69 = CARTESIAN_POINT ( 'NONE',  ( -2.246064267725736308, -63.15235955056182604, 20.00000000000000000 ) ) ;
#70 = PRODUCT_DEFINITION_CONTEXT ( 'detailed design', #768, 'design' ) ;
#71 = CARTESIAN_POINT ( 'NONE',  ( -4.646064267725702912, 91.84764044943817396, 20.00000000000000000 ) ) ;
#72 = FACE_OUTER_BOUND ( 'NONE', #683, .T. ) ;
#73 = DIRECTION ( 'NONE',  ( -0.000000000000000000, -0.000000000000000000, -1.000000000000000000 ) ) ;
#74 = CARTESIAN_POINT ( 'NONE',  ( -38.24606426772575674, 7.347640449438196164, 2.000000000000000000 ) ) ;
#75 = FACE_OUTER_BOUND ( 'NONE', #654, .T. ) ;
#76 = DIRECTION ( 'NONE',  ( 0.000000000000000000, 0.000000000000000000, 1.000000000000000000 ) ) ;
#77 = CIRCLE ( 'NONE', #128, 2.000000000000001776 ) ;
#78 = AXIS2_PLACEMENT_3D ( 'NONE', #796, #870, #467 ) ;
#79 = AXIS2_PLACEMENT_3D ( 'NONE', #651, #270, #743 ) ;
#80 = DIRECTION ( 'NONE',  ( -0.000000000000000000, -0.000000000000000000, -1.000000000000000000 ) ) ;
#81 = PLANE ( 'NONE',  #278 ) ;
#82 = EDGE_CURVE ( 'NONE', #28, #288, #871, .T. ) ;
#83 = CARTESIAN_POINT ( 'NONE',  ( -50.24606426772569279, -93.15235955056182604, 0.000000000000000000 ) ) ;
#84 = CARTESIAN_POINT ( 'NONE',  ( -26.24606426772573542, 119.8476404494381740, 25.00000000000000000 ) ) ;
#85 = ORIENTED_EDGE ( 'NONE', *, *, #417, .T. ) ;
#86 = DIRECTION ( 'NONE',  ( 1.000000000000000000, 0.000000000000000000, 0.000000000000000000 ) ) ;
#87 = ORIENTED_EDGE ( 'NONE', *, *, #952, .T. ) ;
#88 = EDGE_CURVE ( 'NONE', #547, #1016, #361, .T. ) ;
#89 = ORIENTED_EDGE ( 'NONE', *, *, #980, .F. ) ;
#90 = CARTESIAN_POINT ( 'NONE',  ( 17.75393573227429656, -88.15235955056181183, 20.00000000000000000 ) ) ;
#91 = ORIENTED_EDGE ( 'NONE', *, *, #238, .T. ) ;
#92 = VECTOR ( 'NONE', #170, 1000.000000000000000 ) ;
#93 = VECTOR ( 'NONE', #580, 1000.000000000000000 ) ;
#94 = VECTOR ( 'NONE', #679, 1000.000000000000000 ) ;
#95 = ORIENTED_EDGE ( 'NONE', *, *, #823, .T. ) ;
#96 = LINE ( 'NONE', #7, #941 ) ;
#97 = EDGE_CURVE ( 'NONE', #329, #208, #957, .T. ) ;
#98 = EDGE_LOOP ( 'NONE', ( #176, #555, #218, #206, #89, #499, #503, #15 ) ) ;
#99 = CARTESIAN_POINT ( 'NONE',  ( -50.24606426772571410, 121.8476404494381740, 20.00000000000000000 ) ) ;
#100 = CYLINDRICAL_SURFACE ( 'NONE', #126, 2.000000000000005329 ) ;
#101 = CARTESIAN_POINT ( 'NONE',  ( -50.24606426772569279, -93.15235955056182604, 25.00000000000000000 ) ) ;
#102 = ADVANCED_FACE ( 'NONE', ( #1010 ), #602, .F. ) ;
#103 = ORIENTED_EDGE ( 'NONE', *, *, #803, .F. ) ;
#104 = DIRECTION ( 'NONE',  ( 0.000000000000000000, 0.000000000000000000, 1.000000000000000000 ) ) ;
#105 = DIRECTION ( 'NONE',  ( 0.000000000000000000, -1.000000000000000000, 0.000000000000000000 ) ) ;
#106 = AXIS2_PLACEMENT_3D ( 'NONE', #821, #512, #834 ) ;
#107 = CARTESIAN_POINT ( 'NONE',  ( -47.24606426772573542, -13.95289138068775081, 12.00000000000000000 ) ) ;
#108 = VECTOR ( 'NONE', #149, 1000.000000000000000 ) ;
#109 = CIRCLE ( 'NONE', #318, 2.000000000000001776 ) ;
#110 = ORIENTED_EDGE ( 'NONE', *, *, #292, .T. ) ;
#111 = FACE_OUTER_BOUND ( 'NONE', #36, .T. ) ;
#112 = ORIENTED_EDGE ( 'NONE', *, *, #97, .T. ) ;
#113 = LINE ( 'NONE', #84, #798 ) ;
#114 = EDGE_CURVE ( 'NONE', #308, #593, #752, .T. ) ;
#115 = PLANE ( 'NONE',  #444 ) ;
#116 = ORIENTED_EDGE ( 'NONE', *, *, #114, .T. ) ;
#117 = VERTEX_POINT ( 'NONE', #212 ) ;
#118 = CARTESIAN_POINT ( 'NONE',  ( -2.246064267725715435, 91.84764044943817396, 0.000000000000000000 ) ) ;
#119 = DIRECTION ( 'NONE',  ( 1.000000000000000000, 0.000000000000000000, 0.000000000000000000 ) ) ;
#120 = ORIENTED_EDGE ( 'NONE', *, *, #749, .F. ) ;
#121 = DIRECTION ( 'NONE',  ( 0.000000000000000000, -0.000000000000000000, 1.000000000000000000 ) ) ;
#122 = VERTEX_POINT ( 'NONE', #435 ) ;
#123 = PLANE ( 'NONE',  #9 ) ;
#124 = EDGE_CURVE ( 'NONE', #645, #1016, #32, .T. ) ;
#125 = DIRECTION ( 'NONE',  ( -0.000000000000000000, -0.000000000000000000, -1.000000000000000000 ) ) ;
#126 = AXIS2_PLACEMENT_3D ( 'NONE', #185, #80, #561 ) ;
#127 = ORIENTED_EDGE ( 'NONE', *, *, #942, .F. ) ;
#128 = AXIS2_PLACEMENT_3D ( 'NONE', #138, #457, #1038 ) ;
#129 = ADVANCED_FACE ( 'NONE', ( #916 ), #355, .T. ) ;
#130 = EDGE_LOOP ( 'NONE', ( #306, #1036, #505, #949 ) ) ;
#131 = FACE_OUTER_BOUND ( 'NONE', #648, .T. ) ;
#132 = LINE ( 'NONE', #545, #889 ) ;
#133 = EDGE_CURVE ( 'NONE', #411, #922, #762, .T. ) ;
#134 = VERTEX_POINT ( 'NONE', #660 ) ;
#135 = CARTESIAN_POINT ( 'NONE',  ( 22.75393573227426458, 119.8476404494381740, 25.00000000000000000 ) ) ;
#136 = ORIENTED_EDGE ( 'NONE', *, *, #763, .T. ) ;
#137 = CARTESIAN_POINT ( 'NONE',  ( -25.24606426772574963, 7.347640449438194388, 2.000000000000000000 ) ) ;
#138 = CARTESIAN_POINT ( 'NONE',  ( -50.24606426772570700, -91.15235955056182604, 25.00000000000000000 ) ) ;
#139 = FACE_OUTER_BOUND ( 'NONE', #98, .T. ) ;
#140 = CARTESIAN_POINT ( 'NONE',  ( -26.24606426772573187, 127.2990620251500076, 20.00000000000000000 ) ) ;
#141 = EDGE_CURVE ( 'NONE', #353, #1013, #837, .T. ) ;
#142 = ORIENTED_EDGE ( 'NONE', *, *, #405, .F. ) ;
#143 = DIRECTION ( 'NONE',  ( 0.000000000000000000, 0.000000000000000000, 1.000000000000000000 ) ) ;
#144 = FACE_OUTER_BOUND ( 'NONE', #195, .T. ) ;
#145 = VERTEX_POINT ( 'NONE', #186 ) ;
#146 = CARTESIAN_POINT ( 'NONE',  ( 0.000000000000000000, 0.000000000000000000, 0.000000000000000000 ) ) ;
#147 = AXIS2_PLACEMENT_3D ( 'NONE', #961, #552, #877 ) ;
#148 = ORIENTED_EDGE ( 'NONE', *, *, #783, .F. ) ;
#149 = DIRECTION ( 'NONE',  ( -0.000000000000000000, -0.000000000000000000, -1.000000000000000000 ) ) ;
#150 = VECTOR ( 'NONE', #894, 1000.000000000000000 ) ;
#151 = VECTOR ( 'NONE', #538, 1000.000000000000000 ) ;
#152 = DIRECTION ( 'NONE',  ( 7.885106708985491499E-17, 1.000000000000000000, 0.000000000000000000 ) ) ;
#153 = EDGE_CURVE ( 'NONE', #926, #134, #912, .T. ) ;
#154 = LINE ( 'NONE', #789, #938 ) ;
#155 = PLANE ( 'NONE',  #383 ) ;
#156 = LINE ( 'NONE', #1046, #656 ) ;
#157 = DIRECTION ( 'NONE',  ( 0.000000000000000000, -0.000000000000000000, -1.000000000000000000 ) ) ;
#158 = DIRECTION ( 'NONE',  ( -1.000000000000000000, -1.315430123963455640E-16, 0.000000000000000000 ) ) ;
#159 = VERTEX_POINT ( 'NONE', #669 ) ;
#160 = DIRECTION ( 'NONE',  ( 1.000000000000000000, -0.000000000000000000, 0.000000000000000000 ) ) ;
#161 = CARTESIAN_POINT ( 'NONE',  ( -47.24606426772573542, 91.84764044943815975, 20.00000000000000000 ) ) ;
#162 = EDGE_CURVE ( 'NONE', #998, #699, #851, .T. ) ;
#163 = ORIENTED_EDGE ( 'NONE', *, *, #33, .F. ) ;
#164 = DIRECTION ( 'NONE',  ( -1.000000000000000000, 0.000000000000000000, 0.000000000000000000 ) ) ;
#165 = ORIENTED_EDGE ( 'NONE', *, *, #687, .T. ) ;
#166 = DIRECTION ( 'NONE',  ( 1.000000000000000000, 0.000000000000000000, 0.000000000000000000 ) ) ;
#167 = VECTOR ( 'NONE', #862, 1000.000000000000000 ) ;
#168 = VECTOR ( 'NONE', #1008, 1000.000000000000000 ) ;
#169 = COLOUR_RGB ( '',0.7921568627450980005, 0.8196078431372548767, 0.9333333333333333481 ) ;
#170 = DIRECTION ( 'NONE',  ( 1.000000000000000000, 0.000000000000000000, 0.000000000000000000 ) ) ;
#171 = ORIENTED_EDGE ( 'NONE', *, *, #114, .F. ) ;
#172 = DIRECTION ( 'NONE',  ( 0.000000000000000000, -1.000000000000000000, 0.000000000000000000 ) ) ;
#173 = LINE ( 'NONE', #911, #958 ) ;
#174 = ORIENTED_EDGE ( 'NONE', *, *, #980, .T. ) ;
#175 = LINE ( 'NONE', #492, #93 ) ;
#176 = ORIENTED_EDGE ( 'NONE', *, *, #867, .F. ) ;
#177 = DIRECTION ( 'NONE',  ( 0.7071067811865469066, 8.659560562354926695E-17, -0.7071067811865482389 ) ) ;
#178 = VECTOR ( 'NONE', #276, 1000.000000000000000 ) ;
#179 = EDGE_CURVE ( 'NONE', #30, #606, #828, .T. ) ;
#180 = ORIENTED_EDGE ( 'NONE', *, *, #637, .F. ) ;
#181 = LINE ( 'NONE', #570, #514 ) ;
#182 = PRODUCT_DEFINITION ( 'UNKNOWN', '', #466, #70 ) ;
#183 = ORIENTED_EDGE ( 'NONE', *, *, #636, .F. ) ;
#184 = DIRECTION ( 'NONE',  ( 0.7071067811865469066, 8.659560562354926695E-17, -0.7071067811865482389 ) ) ;
#185 = CARTESIAN_POINT ( 'NONE',  ( 20.75393573227428234, -91.15235955056182604, 25.00000000000000000 ) ) ;
#186 = CARTESIAN_POINT ( 'NONE',  ( 2.453935732274283854, 91.84764044943817396, -1.734723475976807883E-15 ) ) ;
#187 = EDGE_LOOP ( 'NONE', ( #336, #707, #667, #116 ) ) ;
#188 = LINE ( 'NONE', #339, #249 ) ;
#189 = FACE_OUTER_BOUND ( 'NONE', #614, .T. ) ;
#190 = ADVANCED_FACE ( 'NONE', ( #27 ), #115, .F. ) ;
#191 = AXIS2_PLACEMENT_3D ( 'NONE', #553, #712, #381 ) ;
#192 = CIRCLE ( 'NONE', #343, 4.699999999999999289 ) ;
#193 = DIRECTION ( 'NONE',  ( 0.000000000000000000, 0.000000000000000000, 1.000000000000000000 ) ) ;
#194 = VECTOR ( 'NONE', #177, 999.9999999999998863 ) ;
#195 = EDGE_LOOP ( 'NONE', ( #136, #898, #183, #653 ) ) ;
#196 = DIRECTION ( 'NONE',  ( -1.000000000000000000, 0.000000000000000000, 0.000000000000000000 ) ) ;
#197 = VERTEX_POINT ( 'NONE', #1021 ) ;
#198 = DIRECTION ( 'NONE',  ( -0.000000000000000000, -0.000000000000000000, -1.000000000000000000 ) ) ;
#199 = CARTESIAN_POINT ( 'NONE',  ( -3.246064267725760288, -13.95289138068775081, 12.00000000000000000 ) ) ;
#200 = ORIENTED_EDGE ( 'NONE', *, *, #583, .F. ) ;
#201 = FILL_AREA_STYLE ('',( #844 ) ) ;
#202 = ORIENTED_EDGE ( 'NONE', *, *, #717, .T. ) ;
#203 = CARTESIAN_POINT ( 'NONE',  ( -47.24606426772573542, -63.15235955056182604, 25.00000000000000000 ) ) ;
#204 = CARTESIAN_POINT ( 'NONE',  ( -47.24606426772573542, 91.84764044943815975, 20.00000000000000000 ) ) ;
#205 = EDGE_CURVE ( 'NONE', #208, #329, #192, .T. ) ;
#206 = ORIENTED_EDGE ( 'NONE', *, *, #717, .F. ) ;
#207 = SURFACE_SIDE_STYLE ('',( #35 ) ) ;
#208 = VERTEX_POINT ( 'NONE', #620 ) ;
#209 = CYLINDRICAL_SURFACE ( 'NONE', #231, 2.399999999999987033 ) ;
#210 = EDGE_CURVE ( 'NONE', #159, #634, #577, .T. ) ;
#211 = VECTOR ( 'NONE', #875, 1000.000000000000000 ) ;
#212 = CARTESIAN_POINT ( 'NONE',  ( 20.75393573227426458, 121.8476404494381740, 0.000000000000000000 ) ) ;
#213 = VECTOR ( 'NONE', #827, 1000.000000000000000 ) ;
#214 = ORIENTED_EDGE ( 'NONE', *, *, #82, .F. ) ;
#215 = CARTESIAN_POINT ( 'NONE',  ( -50.24606426772571410, 121.8476404494381740, 25.00000000000000000 ) ) ;
#216 = AXIS2_PLACEMENT_3D ( 'NONE', #560, #237, #3 ) ;
#217 = VECTOR ( 'NONE', #708, 1000.000000000000000 ) ;
#218 = ORIENTED_EDGE ( 'NONE', *, *, #813, .F. ) ;
#219 = CARTESIAN_POINT ( 'NONE',  ( -25.24606426772574963, 7.347640449438194388, 2.000000000000000000 ) ) ;
#220 = CARTESIAN_POINT ( 'NONE',  ( -2.246064267725736308, -63.15235955056182604, 2.300000000000024247 ) ) ;
#221 = EDGE_CURVE ( 'NONE', #634, #159, #625, .T. ) ;
#222 = DIRECTION ( 'NONE',  ( -1.000000000000000000, -0.000000000000000000, -0.000000000000000000 ) ) ;
#223 = CARTESIAN_POINT ( 'NONE',  ( 0.000000000000000000, 0.000000000000000000, 12.00000000000000000 ) ) ;
#224 = CARTESIAN_POINT ( 'NONE',  ( -47.24606426772573542, -63.15235955056182604, 20.00000000000000000 ) ) ;
#225 = LINE ( 'NONE', #711, #397 ) ;
#226 = CARTESIAN_POINT ( 'NONE',  ( -3.246064267725760288, -13.95289138068775081, 12.00000000000000000 ) ) ;
#227 = CARTESIAN_POINT ( 'NONE',  ( -12.24606426772574963, 7.347640449438194388, 2.000000000000000000 ) ) ;
#228 = DIRECTION ( 'NONE',  ( -0.000000000000000000, 0.000000000000000000, 1.000000000000000000 ) ) ;
#229 = CARTESIAN_POINT ( 'NONE',  ( -38.24606426772575674, 7.347640449438196164, 2.000000000000000000 ) ) ;
#230 = CARTESIAN_POINT ( 'NONE',  ( -4.646064267725713570, -63.15235955056182604, 2.300000000000024247 ) ) ;
#231 = AXIS2_PLACEMENT_3D ( 'NONE', #525, #450, #456 ) ;
#232 = AXIS2_PLACEMENT_3D ( 'NONE', #627, #382, #698 ) ;
#233 = CARTESIAN_POINT ( 'NONE',  ( 22.75393573227426458, 119.8476404494381740, 0.000000000000000000 ) ) ;
#234 = ORIENTED_EDGE ( 'NONE', *, *, #540, .T. ) ;
#235 = CYLINDRICAL_SURFACE ( 'NONE', #232, 2.000000000000001776 ) ;
#236 = ORIENTED_EDGE ( 'NONE', *, *, #97, .F. ) ;
#237 = DIRECTION ( 'NONE',  ( 0.000000000000000000, 0.000000000000000000, 1.000000000000000000 ) ) ;
#238 = EDGE_CURVE ( 'NONE', #899, #809, #688, .T. ) ;
#239 = EDGE_CURVE ( 'NONE', #604, #575, #132, .T. ) ;
#240 = FACE_OUTER_BOUND ( 'NONE', #913, .T. ) ;
#241 = DIRECTION ( 'NONE',  ( 1.000000000000000000, 0.000000000000000000, 0.000000000000000000 ) ) ;
#242 = EDGE_CURVE ( 'NONE', #145, #1022, #872, .T. ) ;
#243 = ORIENTED_EDGE ( 'NONE', *, *, #26, .F. ) ;
#244 = LINE ( 'NONE', #788, #726 ) ;
#245 = CARTESIAN_POINT ( 'NONE',  ( -47.24606426772573542, 91.84764044943815975, 20.00000000000000000 ) ) ;
#246 = ORIENTED_EDGE ( 'NONE', *, *, #346, .T. ) ;
#247 = CARTESIAN_POINT ( 'NONE',  ( -26.24606426772573187, 121.8476404494381740, 25.00000000000000000 ) ) ;
#248 = AXIS2_PLACEMENT_3D ( 'NONE', #219, #1018, #947 ) ;
#249 = VECTOR ( 'NONE', #655, 1000.000000000000000 ) ;
#250 = CARTESIAN_POINT ( 'NONE',  ( -50.24606426772569279, -93.15235955056182604, 25.00000000000000000 ) ) ;
#251 = UNCERTAINTY_MEASURE_WITH_UNIT (LENGTH_MEASURE( 1.000000000000000082E-05 ), #369, 'distance_accuracy_value', 'NONE');
#252 = ORIENTED_EDGE ( 'NONE', *, *, #583, .T. ) ;
#253 = LINE ( 'NONE', #99, #739 ) ;
#254 = ORIENTED_EDGE ( 'NONE', *, *, #210, .T. ) ;
#255 = DIRECTION ( 'NONE',  ( 0.000000000000000000, 0.000000000000000000, 1.000000000000000000 ) ) ;
#256 = ORIENTED_EDGE ( 'NONE', *, *, #732, .F. ) ;
#257 = VERTEX_POINT ( 'NONE', #64 ) ;
#258 = LINE ( 'NONE', #348, #976 ) ;
#259 = CIRCLE ( 'NONE', #546, 2.399999999999976819 ) ;
#260 = CIRCLE ( 'NONE', #414, 13.00000000000000178 ) ;
#261 = ORIENTED_EDGE ( 'NONE', *, *, #378, .F. ) ;
#262 = DIRECTION ( 'NONE',  ( 1.000000000000000000, -0.000000000000000000, -0.000000000000000000 ) ) ;
#263 = LINE ( 'NONE', #31, #814 ) ;
#264 = CARTESIAN_POINT ( 'NONE',  ( -26.24606426772573187, 127.2990620251500076, 20.00000000000000000 ) ) ;
#265 = ORIENTED_EDGE ( 'NONE', *, *, #813, .T. ) ;
#266 = DIRECTION ( 'NONE',  ( -0.000000000000000000, -0.000000000000000000, -1.000000000000000000 ) ) ;
#267 = PLANE ( 'NONE',  #974 ) ;
#268 = CARTESIAN_POINT ( 'NONE',  ( -26.24606426772573187, 91.84764044943815975, 20.00000000000000000 ) ) ;
#269 = ORIENTED_EDGE ( 'NONE', *, *, #892, .F. ) ;
#270 = DIRECTION ( 'NONE',  ( 0.000000000000000000, 0.000000000000000000, 1.000000000000000000 ) ) ;
#271 = ORIENTED_EDGE ( 'NONE', *, *, #53, .T. ) ;
#272 = LINE ( 'NONE', #866, #168 ) ;
#273 = EDGE_CURVE ( 'NONE', #721, #122, #701, .T. ) ;
#274 = CIRCLE ( 'NONE', #427, 2.000000000000001776 ) ;
#275 = VECTOR ( 'NONE', #883, 1000.000000000000000 ) ;
#276 = DIRECTION ( 'NONE',  ( -0.000000000000000000, -0.000000000000000000, 1.000000000000000000 ) ) ;
#277 = CIRCLE ( 'NONE', #800, 2.000000000000001776 ) ;
#278 = AXIS2_PLACEMENT_3D ( 'NONE', #140, #720, #865 ) ;
#279 = ORIENTED_EDGE ( 'NONE', *, *, #732, .T. ) ;
#280 = CYLINDRICAL_SURFACE ( 'NONE', #611, 2.399999999999987033 ) ;
#281 = EDGE_LOOP ( 'NONE', ( #23, #371, #243, #918 ) ) ;
#282 = DIRECTION ( 'NONE',  ( 0.000000000000000000, 0.000000000000000000, 1.000000000000000000 ) ) ;
#283 = CARTESIAN_POINT ( 'NONE',  ( -47.24606426772573542, 28.64817227956414314, 12.00000000000000000 ) ) ;
#284 = ORIENTED_EDGE ( 'NONE', *, *, #50, .F. ) ;
#285 = ORIENTED_EDGE ( 'NONE', *, *, #327, .F. ) ;
#286 = DIRECTION ( 'NONE',  ( -0.000000000000000000, -0.000000000000000000, -1.000000000000000000 ) ) ;
#287 = EDGE_CURVE ( 'NONE', #922, #933, #451, .T. ) ;
#288 = VERTEX_POINT ( 'NONE', #54 ) ;
#289 = LINE ( 'NONE', #135, #94 ) ;
#290 = ORIENTED_EDGE ( 'NONE', *, *, #566, .F. ) ;
#291 = LINE ( 'NONE', #366, #759 ) ;
#292 = EDGE_CURVE ( 'NONE', #288, #28, #496, .T. ) ;
#293 = DIRECTION ( 'NONE',  ( -0.000000000000000000, -0.000000000000000000, 1.000000000000000000 ) ) ;
#294 = AXIS2_PLACEMENT_3D ( 'NONE', #536, #624, #541 ) ;
#295 = ORIENTED_EDGE ( 'NONE', *, *, #53, .F. ) ;
#296 = PLANE ( 'NONE',  #856 ) ;
#297 = CIRCLE ( 'NONE', #78, 13.00000000000000178 ) ;
#298 = ORIENTED_EDGE ( 'NONE', *, *, #242, .T. ) ;
#299 = DIRECTION ( 'NONE',  ( 1.000000000000000000, 0.000000000000000000, 0.000000000000000000 ) ) ;
#300 = CARTESIAN_POINT ( 'NONE',  ( -2.246064267725736308, -63.15235955056182604, 20.00000000000000000 ) ) ;
#301 = LINE ( 'NONE', #226, #495 ) ;
#302 =( LENGTH_UNIT ( ) NAMED_UNIT ( * ) SI_UNIT ( .MILLI., .METRE. ) );
#303 = EDGE_LOOP ( 'NONE', ( #48, #1035, #724, #526 ) ) ;
#304 = LINE ( 'NONE', #716, #108 ) ;
#305 = DIRECTION ( 'NONE',  ( -0.000000000000000000, -0.000000000000000000, -1.000000000000000000 ) ) ;
#306 = ORIENTED_EDGE ( 'NONE', *, *, #398, .T. ) ;
#307 =( NAMED_UNIT ( * ) PLANE_ANGLE_UNIT ( ) SI_UNIT ( $, .RADIAN. ) );
#308 = VERTEX_POINT ( 'NONE', #610 ) ;
#309 = DIRECTION ( 'NONE',  ( -1.000000000000000000, 0.000000000000000000, 0.000000000000000000 ) ) ;
#310 = LINE ( 'NONE', #319, #852 ) ;
#311 = CARTESIAN_POINT ( 'NONE',  ( 20.75393573227426458, 119.8476404494381740, 25.00000000000000000 ) ) ;
#312 = CARTESIAN_POINT ( 'NONE',  ( -26.24606426772573187, 91.84764044943815975, 20.00000000000000000 ) ) ;
#313 = VECTOR ( 'NONE', #597, 1000.000000000000000 ) ;
#314 = EDGE_CURVE ( 'NONE', #972, #612, #259, .T. ) ;
#315 = ORIENTED_EDGE ( 'NONE', *, *, #327, .T. ) ;
#316 = DIRECTION ( 'NONE',  ( -0.000000000000000000, -0.000000000000000000, -1.000000000000000000 ) ) ;
#317 = EDGE_CURVE ( 'NONE', #634, #612, #225, .T. ) ;
#318 = AXIS2_PLACEMENT_3D ( 'NONE', #365, #999, #196 ) ;
#319 = CARTESIAN_POINT ( 'NONE',  ( -6.946064267725715169, 91.84764044943817396, -1.734723475976807883E-15 ) ) ;
#320 = DIRECTION ( 'NONE',  ( 0.000000000000000000, 0.000000000000000000, 1.000000000000000000 ) ) ;
#321 = CARTESIAN_POINT ( 'NONE',  ( 20.75393573227426458, 121.8476404494381740, 25.00000000000000000 ) ) ;
#322 = ORIENTED_EDGE ( 'NONE', *, *, #793, .F. ) ;
#323 = DIRECTION ( 'NONE',  ( 1.000000000000000000, 0.000000000000000000, 0.000000000000000000 ) ) ;
#324 = EDGE_CURVE ( 'NONE', #612, #972, #429, .T. ) ;
#325 = DIRECTION ( 'NONE',  ( -0.7071067811865469066, 0.000000000000000000, -0.7071067811865482389 ) ) ;
#326 = CARTESIAN_POINT ( 'NONE',  ( -26.24606426772573187, 91.84764044943815975, 25.00000000000000000 ) ) ;
#327 = EDGE_CURVE ( 'NONE', #447, #411, #77, .T. ) ;
#328 = DIRECTION ( 'NONE',  ( -0.000000000000000000, -0.000000000000000000, -1.000000000000000000 ) ) ;
#329 = VERTEX_POINT ( 'NONE', #868 ) ;
#330 = LINE ( 'NONE', #337, #194 ) ;
#331 = AXIS2_PLACEMENT_3D ( 'NONE', #373, #616, #390 ) ;
#332 = CIRCLE ( 'NONE', #855, 4.699999999999999289 ) ;
#333 = EDGE_LOOP ( 'NONE', ( #234, #171, #742, #588 ) ) ;
#334 = DIRECTION ( 'NONE',  ( 9.865725929725919765E-17, -1.000000000000000000, 0.000000000000000000 ) ) ;
#335 = EDGE_CURVE ( 'NONE', #954, #1022, #310, .T. ) ;
#336 = ORIENTED_EDGE ( 'NONE', *, *, #986, .T. ) ;
#337 = CARTESIAN_POINT ( 'NONE',  ( 2.453935732274283854, 91.84764044943817396, -1.734723475976807883E-15 ) ) ;
#338 = ORIENTED_EDGE ( 'NONE', *, *, #812, .F. ) ;
#339 = CARTESIAN_POINT ( 'NONE',  ( -12.24606426772574963, 7.347640449438194388, 2.000000000000000000 ) ) ;
#340 = ADVANCED_FACE ( 'NONE', ( #144 ), #461, .F. ) ;
#341 = CARTESIAN_POINT ( 'NONE',  ( -50.24606426772571410, 121.8476404494381740, 25.00000000000000000 ) ) ;
#342 = ADVANCED_FACE ( 'NONE', ( #468 ), #590, .F. ) ;
#343 = AXIS2_PLACEMENT_3D ( 'NONE', #792, #73, #632 ) ;
#344 = VECTOR ( 'NONE', #323, 1000.000000000000000 ) ;
#345 = VECTOR ( 'NONE', #184, 999.9999999999998863 ) ;
#346 = EDGE_CURVE ( 'NONE', #1013, #680, #156, .T. ) ;
#347 = EDGE_LOOP ( 'NONE', ( #978, #254, #887, #861 ) ) ;
#348 = CARTESIAN_POINT ( 'NONE',  ( -3.246064267725760288, 28.64817227956413959, 12.00000000000000000 ) ) ;
#349 = CARTESIAN_POINT ( 'NONE',  ( -52.24606426772571410, -91.15235955056182604, 0.000000000000000000 ) ) ;
#350 = DIRECTION ( 'NONE',  ( -0.000000000000000000, -0.000000000000000000, 1.000000000000000000 ) ) ;
#351 = ORIENTED_EDGE ( 'NONE', *, *, #317, .F. ) ;
#352 = ADVANCED_FACE ( 'NONE', ( #189 ), #100, .T. ) ;
#353 = VERTEX_POINT ( 'NONE', #890 ) ;
#354 = CARTESIAN_POINT ( 'NONE',  ( -50.24606426772571410, 121.8476404494381740, 0.000000000000000000 ) ) ;
#355 = PLANE ( 'NONE',  #757 ) ;
#356 = ORIENTED_EDGE ( 'NONE', *, *, #508, .F. ) ;
#357 = FACE_OUTER_BOUND ( 'NONE', #303, .T. ) ;
#358 = EDGE_LOOP ( 'NONE', ( #424, #44 ) ) ;
#359 = LINE ( 'NONE', #224, #445 ) ;
#360 = AXIS2_PLACEMENT_3D ( 'NONE', #1051, #328, #992 ) ;
#361 = LINE ( 'NONE', #204, #779 ) ;
#362 = CIRCLE ( 'NONE', #901, 2.000000000000001776 ) ;
#363 = VECTOR ( 'NONE', #432, 1000.000000000000000 ) ;
#364 = ORIENTED_EDGE ( 'NONE', *, *, #970, .F. ) ;
#365 = CARTESIAN_POINT ( 'NONE',  ( -50.24606426772570700, -91.15235955056182604, 0.000000000000000000 ) ) ;
#366 = CARTESIAN_POINT ( 'NONE',  ( -52.24606426772573542, 119.8476404494381597, 25.00000000000000000 ) ) ;
#367 = DIRECTION ( 'NONE',  ( 0.000000000000000000, 0.000000000000000000, 1.000000000000000000 ) ) ;
#368 = EDGE_LOOP ( 'NONE', ( #946, #56, #284, #869, #488, #928, #61, #705 ) ) ;
#369 =( LENGTH_UNIT ( ) NAMED_UNIT ( * ) SI_UNIT ( .MILLI., .METRE. ) );
#370 = ADVANCED_FACE ( 'NONE', ( #501 ), #582, .F. ) ;
#371 = ORIENTED_EDGE ( 'NONE', *, *, #239, .F. ) ;
#372 = FACE_OUTER_BOUND ( 'NONE', #2, .T. ) ;
#373 = CARTESIAN_POINT ( 'NONE',  ( -2.246064267725715435, 91.84764044943817396, 20.00000000000000000 ) ) ;
#374 = ORIENTED_EDGE ( 'NONE', *, *, #379, .T. ) ;
#375 = LINE ( 'NONE', #666, #1027 ) ;
#376 = ORIENTED_EDGE ( 'NONE', *, *, #47, .T. ) ;
#377 = FACE_OUTER_BOUND ( 'NONE', #440, .T. ) ;
#378 = EDGE_CURVE ( 'NONE', #447, #391, #421, .T. ) ;
#379 = EDGE_CURVE ( 'NONE', #829, #617, #4, .T. ) ;
#380 = AXIS2_PLACEMENT_3D ( 'NONE', #686, #778, #1026 ) ;
#381 = DIRECTION ( 'NONE',  ( 1.000000000000000000, 0.000000000000000000, -0.000000000000000000 ) ) ;
#382 = DIRECTION ( 'NONE',  ( -0.000000000000000000, -0.000000000000000000, -1.000000000000000000 ) ) ;
#383 = AXIS2_PLACEMENT_3D ( 'NONE', #706, #1043, #791 ) ;
#384 = AXIS2_PLACEMENT_3D ( 'NONE', #49, #765, #613 ) ;
#385 = DIRECTION ( 'NONE',  ( -1.000000000000000000, 0.000000000000000000, 0.000000000000000000 ) ) ;
#386 = DIRECTION ( 'NONE',  ( -1.000000000000000000, 7.885106708985491499E-17, 0.000000000000000000 ) ) ;
#387 = ORIENTED_EDGE ( 'NONE', *, *, #823, .F. ) ;
#388 = PLANE ( 'NONE',  #904 ) ;
#389 = FACE_OUTER_BOUND ( 'NONE', #187, .T. ) ;
#390 = DIRECTION ( 'NONE',  ( 1.000000000000000000, 0.000000000000000000, 0.000000000000000000 ) ) ;
#391 = VERTEX_POINT ( 'NONE', #349 ) ;
#392 = DIRECTION ( 'NONE',  ( 0.000000000000000000, 0.000000000000000000, 1.000000000000000000 ) ) ;
#393 = CARTESIAN_POINT ( 'NONE',  ( -26.24606426772573187, 91.84764044943815975, 20.00000000000000000 ) ) ;
#394 = ADVANCED_FACE ( 'NONE', ( #240 ), #267, .F. ) ;
#395 = DIRECTION ( 'NONE',  ( -0.000000000000000000, -0.000000000000000000, -1.000000000000000000 ) ) ;
#396 = LINE ( 'NONE', #864, #642 ) ;
#397 = VECTOR ( 'NONE', #1034, 1000.000000000000000 ) ;
#398 = EDGE_CURVE ( 'NONE', #733, #680, #113, .T. ) ;
#399 = CIRCLE ( 'NONE', #675, 2.000000000000005329 ) ;
#400 = VERTEX_POINT ( 'NONE', #354 ) ;
#401 = LINE ( 'NONE', #477, #529 ) ;
#402 = DIRECTION ( 'NONE',  ( 0.000000000000000000, -1.000000000000000000, 0.000000000000000000 ) ) ;
#403 = CARTESIAN_POINT ( 'NONE',  ( -50.24606426772569279, -93.15235955056182604, 25.00000000000000000 ) ) ;
#404 = FACE_OUTER_BOUND ( 'NONE', #944, .T. ) ;
#405 = EDGE_CURVE ( 'NONE', #926, #829, #21, .T. ) ;
#406 = FACE_OUTER_BOUND ( 'NONE', #368, .T. ) ;
#407 = ORIENTED_EDGE ( 'NONE', *, *, #292, .F. ) ;
#408 = DIRECTION ( 'NONE',  ( -0.000000000000000000, -0.000000000000000000, 1.000000000000000000 ) ) ;
#409 = EDGE_LOOP ( 'NONE', ( #214, #407 ) ) ;
#410 = ADVANCED_FACE ( 'NONE', ( #719 ), #413, .F. ) ;
#411 = VERTEX_POINT ( 'NONE', #250 ) ;
#412 = PLANE ( 'NONE',  #497 ) ;
#413 = CONICAL_SURFACE ( 'NONE', #483, 4.699999999999999289, 0.7853981633974473908 ) ;
#414 = AXIS2_PLACEMENT_3D ( 'NONE', #773, #282, #299 ) ;
#415 = ORIENTED_EDGE ( 'NONE', *, *, #314, .T. ) ;
#416 = DIRECTION ( 'NONE',  ( -1.000000000000000000, 0.000000000000000000, 0.000000000000000000 ) ) ;
#417 = EDGE_CURVE ( 'NONE', #733, #353, #663, .T. ) ;
#418 = EDGE_CURVE ( 'NONE', #811, #400, #434, .T. ) ;
#419 = ORIENTED_EDGE ( 'NONE', *, *, #239, .T. ) ;
#420 = CARTESIAN_POINT ( 'NONE',  ( -50.24606426772569279, -93.15235955056182604, 25.00000000000000000 ) ) ;
#421 = LINE ( 'NONE', #723, #213 ) ;
#422 = ADVANCED_FACE ( 'NONE', ( #25 ), #568, .T. ) ;
#423 = DIRECTION ( 'NONE',  ( 0.000000000000000000, 0.000000000000000000, -1.000000000000000000 ) ) ;
#424 = ORIENTED_EDGE ( 'NONE', *, *, #221, .F. ) ;
#425 = LINE ( 'NONE', #738, #873 ) ;
#426 = EDGE_CURVE ( 'NONE', #612, #329, #263, .T. ) ;
#427 = AXIS2_PLACEMENT_3D ( 'NONE', #311, #320, #469 ) ;
#428 = DIRECTION ( 'NONE',  ( 0.000000000000000000, 0.000000000000000000, -1.000000000000000000 ) ) ;
#429 = CIRCLE ( 'NONE', #294, 2.399999999999976819 ) ;
#430 = DIRECTION ( 'NONE',  ( -0.000000000000000000, -0.000000000000000000, 1.000000000000000000 ) ) ;
#431 = ORIENTED_EDGE ( 'NONE', *, *, #242, .F. ) ;
#432 = DIRECTION ( 'NONE',  ( -1.000000000000000000, -0.000000000000000000, -0.000000000000000000 ) ) ;
#433 = ORIENTED_EDGE ( 'NONE', *, *, #379, .F. ) ;
#434 = LINE ( 'NONE', #741, #608 ) ;
#435 = CARTESIAN_POINT ( 'NONE',  ( 17.75393573227429300, 121.8476404494381171, 25.00000000000000000 ) ) ;
#436 = ORIENTED_EDGE ( 'NONE', *, *, #335, .T. ) ;
#437 = FACE_BOUND ( 'NONE', #790, .T. ) ;
#438 = ORIENTED_EDGE ( 'NONE', *, *, #993, .F. ) ;
#439 = CARTESIAN_POINT ( 'NONE',  ( -47.24606426772573542, 91.84764044943815975, 20.00000000000000000 ) ) ;
#440 = EDGE_LOOP ( 'NONE', ( #271, #433, #142, #1039 ) ) ;
#441 = LINE ( 'NONE', #215, #363 ) ;
#442 = ORIENTED_EDGE ( 'NONE', *, *, #426, .F. ) ;
#443 = CARTESIAN_POINT ( 'NONE',  ( 17.75393573227429656, -88.15235955056181183, 20.00000000000000000 ) ) ;
#444 = AXIS2_PLACEMENT_3D ( 'NONE', #268, #930, #774 ) ;
#445 = VECTOR ( 'NONE', #607, 1000.000000000000000 ) ;
#446 = CIRCLE ( 'NONE', #79, 13.00000000000000178 ) ;
#447 = VERTEX_POINT ( 'NONE', #638 ) ;
#448 = CARTESIAN_POINT ( 'NONE',  ( -52.24606426772573542, 119.8476404494381597, 25.00000000000000000 ) ) ;
#449 = ORIENTED_EDGE ( 'NONE', *, *, #82, .T. ) ;
#450 = DIRECTION ( 'NONE',  ( -0.000000000000000000, -0.000000000000000000, -1.000000000000000000 ) ) ;
#451 = LINE ( 'NONE', #769, #920 ) ;
#452 = EDGE_CURVE ( 'NONE', #881, #491, #173, .T. ) ;
#453 = ORIENTED_EDGE ( 'NONE', *, *, #398, .F. ) ;
#454 = PLANE ( 'NONE',  #676 ) ;
#455 = EDGE_LOOP ( 'NONE', ( #91, #127, #509, #787 ) ) ;
#456 = DIRECTION ( 'NONE',  ( -1.000000000000000000, 0.000000000000000000, 0.000000000000000000 ) ) ;
#457 = DIRECTION ( 'NONE',  ( 0.000000000000000000, 0.000000000000000000, 1.000000000000000000 ) ) ;
#458 = CARTESIAN_POINT ( 'NONE',  ( 17.75393573227429656, -88.15235955056181183, 25.00000000000000000 ) ) ;
#459 = ORIENTED_EDGE ( 'NONE', *, *, #273, .F. ) ;
#460 = DIRECTION ( 'NONE',  ( 0.000000000000000000, -1.000000000000000000, 0.000000000000000000 ) ) ;
#461 = PLANE ( 'NONE',  #8 ) ;
#462 = AXIS2_PLACEMENT_3D ( 'NONE', #300, #1028, #863 ) ;
#463 = ADVANCED_FACE ( 'NONE', ( #406 ), #997, .F. ) ;
#464 = ORIENTED_EDGE ( 'NONE', *, *, #892, .T. ) ;
#465 = PRODUCT_CONTEXT ( 'NONE', #955, 'mechanical' ) ;
#466 = PRODUCT_DEFINITION_FORMATION_WITH_SPECIFIED_SOURCE ( 'ANY', '', #535, .NOT_KNOWN. ) ;
#467 = DIRECTION ( 'NONE',  ( 1.000000000000000000, 0.000000000000000000, 0.000000000000000000 ) ) ;
#468 = FACE_OUTER_BOUND ( 'NONE', #1007, .T. ) ;
#469 = DIRECTION ( 'NONE',  ( 1.000000000000000000, 0.000000000000000000, 0.000000000000000000 ) ) ;
#470 = CARTESIAN_POINT ( 'NONE',  ( 22.75393573227426458, 119.8476404494381740, 25.00000000000000000 ) ) ;
#471 = PLANE ( 'NONE',  #216 ) ;
#472 = CARTESIAN_POINT ( 'NONE',  ( -2.246064267725715435, 91.84764044943817396, -1.734723475976807883E-15 ) ) ;
#473 = EDGE_CURVE ( 'NONE', #547, #12, #971, .T. ) ;
#474 = CARTESIAN_POINT ( 'NONE',  ( -19.10067103158761981, -88.15235955056181183, 25.00000000000000000 ) ) ;
#475 = FACE_OUTER_BOUND ( 'NONE', #455, .T. ) ;
#476 = ORIENTED_EDGE ( 'NONE', *, *, #986, .F. ) ;
#477 = CARTESIAN_POINT ( 'NONE',  ( 0.1539357322742503642, -63.15235955056182604, 0.000000000000000000 ) ) ;
#478 = DIRECTION ( 'NONE',  ( -1.000000000000000000, 0.000000000000000000, -0.000000000000000000 ) ) ;
#479 = VECTOR ( 'NONE', #241, 1000.000000000000000 ) ;
#480 = ORIENTED_EDGE ( 'NONE', *, *, #637, .T. ) ;
#481 = ADVANCED_FACE ( 'NONE', ( #806 ), #641, .F. ) ;
#482 = DIRECTION ( 'NONE',  ( 0.000000000000000000, -0.000000000000000000, 1.000000000000000000 ) ) ;
#483 = AXIS2_PLACEMENT_3D ( 'NONE', #657, #586, #895 ) ;
#484 = VECTOR ( 'NONE', #830, 1000.000000000000000 ) ;
#485 = LINE ( 'NONE', #640, #548 ) ;
#486 = AXIS2_PLACEMENT_3D ( 'NONE', #605, #937, #690 ) ;
#487 = DIRECTION ( 'NONE',  ( -0.000000000000000000, -0.000000000000000000, 1.000000000000000000 ) ) ;
#488 = ORIENTED_EDGE ( 'NONE', *, *, #565, .F. ) ;
#489 = DIRECTION ( 'NONE',  ( 0.000000000000000000, 0.000000000000000000, -1.000000000000000000 ) ) ;
#490 = ADVANCED_FACE ( 'NONE', ( #767 ), #924, .F. ) ;
#491 = VERTEX_POINT ( 'NONE', #203 ) ;
#492 = CARTESIAN_POINT ( 'NONE',  ( -26.24606426772573187, 91.84764044943815975, 25.00000000000000000 ) ) ;
#493 = ORIENTED_EDGE ( 'NONE', *, *, #473, .F. ) ;
#494 = LINE ( 'NONE', #24, #784 ) ;
#495 = VECTOR ( 'NONE', #794, 1000.000000000000000 ) ;
#496 = CIRCLE ( 'NONE', #331, 2.399999999999986589 ) ;
#497 = AXIS2_PLACEMENT_3D ( 'NONE', #19, #734, #985 ) ;
#498 = EDGE_CURVE ( 'NONE', #604, #902, #1001, .T. ) ;
#499 = ORIENTED_EDGE ( 'NONE', *, *, #797, .F. ) ;
#500 = CARTESIAN_POINT ( 'NONE',  ( -50.24606426772571410, 121.8476404494381740, 25.00000000000000000 ) ) ;
#501 = FACE_OUTER_BOUND ( 'NONE', #816, .T. ) ;
#502 = ADVANCED_FACE ( 'NONE', ( #520 ), #62, .T. ) ;
#503 = ORIENTED_EDGE ( 'NONE', *, *, #647, .F. ) ;
#504 = CARTESIAN_POINT ( 'NONE',  ( 20.75393573227428234, -91.15235955056182604, 0.000000000000000000 ) ) ;
#505 = ORIENTED_EDGE ( 'NONE', *, *, #141, .F. ) ;
#506 = CARTESIAN_POINT ( 'NONE',  ( 17.75393573227429656, -88.15235955056181183, 20.00000000000000000 ) ) ;
#507 = CARTESIAN_POINT ( 'NONE',  ( -19.10067103158761981, -88.15235955056181183, 20.00000000000000000 ) ) ;
#508 = EDGE_CURVE ( 'NONE', #691, #1004, #291, .T. ) ;
#509 = ORIENTED_EDGE ( 'NONE', *, *, #718, .F. ) ;
#510 = LINE ( 'NONE', #90, #484 ) ;
#511 = ORIENTED_EDGE ( 'NONE', *, *, #162, .T. ) ;
#512 = DIRECTION ( 'NONE',  ( -0.000000000000000000, -0.000000000000000000, -1.000000000000000000 ) ) ;
#513 = AXIS2_PLACEMENT_3D ( 'NONE', #746, #193, #516 ) ;
#514 = VECTOR ( 'NONE', #334, 1000.000000000000000 ) ;
#515 = AXIS2_PLACEMENT_3D ( 'NONE', #914, #817, #416 ) ;
#516 = DIRECTION ( 'NONE',  ( 1.000000000000000000, 0.000000000000000000, 0.000000000000000000 ) ) ;
#517 = VERTEX_POINT ( 'NONE', #681 ) ;
#518 = DIRECTION ( 'NONE',  ( 1.000000000000000000, 0.000000000000000000, -0.000000000000000000 ) ) ;
#519 = ORIENTED_EDGE ( 'NONE', *, *, #405, .T. ) ;
#520 = FACE_OUTER_BOUND ( 'NONE', #697, .T. ) ;
#521 = EDGE_CURVE ( 'NONE', #881, #308, #359, .T. ) ;
#522 = ADVANCED_FACE ( 'NONE', ( #372 ), #534, .F. ) ;
#523 = ORIENTED_EDGE ( 'NONE', *, *, #33, .T. ) ;
#524 = ORIENTED_EDGE ( 'NONE', *, *, #803, .T. ) ;
#525 = CARTESIAN_POINT ( 'NONE',  ( -2.246064267725736308, -63.15235955056182604, 0.000000000000000000 ) ) ;
#526 = ORIENTED_EDGE ( 'NONE', *, *, #636, .T. ) ;
#527 = PRESENTATION_STYLE_ASSIGNMENT (( #945 ) ) ;
#528 = LINE ( 'NONE', #1014, #578 ) ;
#529 = VECTOR ( 'NONE', #888, 1000.000000000000000 ) ;
#530 = DIRECTION ( 'NONE',  ( 0.000000000000000000, 0.000000000000000000, 1.000000000000000000 ) ) ;
#531 = VERTEX_POINT ( 'NONE', #673 ) ;
#532 = CARTESIAN_POINT ( 'NONE',  ( 20.75393573227428234, -93.15235955056182604, 0.000000000000000000 ) ) ;
#533 = EDGE_LOOP ( 'NONE', ( #989, #431 ) ) ;
#534 = CYLINDRICAL_SURFACE ( 'NONE', #959, 13.00000000000000178 ) ;
#535 = PRODUCT ( '\X2\0443041f\X0\', '\X2\0443041f\X0\', '', ( #465 ) ) ;
#536 = CARTESIAN_POINT ( 'NONE',  ( -2.246064267725736308, -63.15235955056182604, 2.300000000000024247 ) ) ;
#537 = CARTESIAN_POINT ( 'NONE',  ( -47.24606426772574252, 91.84764044943815975, 25.00000000000000000 ) ) ;
#538 = DIRECTION ( 'NONE',  ( 0.000000000000000000, 1.000000000000000000, 0.000000000000000000 ) ) ;
#539 = DIRECTION ( 'NONE',  ( -0.000000000000000000, -0.000000000000000000, 1.000000000000000000 ) ) ;
#540 = EDGE_CURVE ( 'NONE', #491, #593, #272, .T. ) ;
#541 = DIRECTION ( 'NONE',  ( -1.000000000000000000, 0.000000000000000000, 0.000000000000000000 ) ) ;
#542 = LINE ( 'NONE', #229, #211 ) ;
#543 = LINE ( 'NONE', #321, #729 ) ;
#544 = DIRECTION ( 'NONE',  ( -0.000000000000000000, -0.000000000000000000, -1.000000000000000000 ) ) ;
#545 = CARTESIAN_POINT ( 'NONE',  ( -3.246064267725760288, -13.95289138068775081, 12.00000000000000000 ) ) ;
#546 = AXIS2_PLACEMENT_3D ( 'NONE', #220, #395, #948 ) ;
#547 = VERTEX_POINT ( 'NONE', #439 ) ;
#548 = VECTOR ( 'NONE', #556, 1000.000000000000000 ) ;
#549 = MECHANICAL_DESIGN_GEOMETRIC_PRESENTATION_REPRESENTATION (  '', ( #835 ), #761 ) ;
#550 = ORIENTED_EDGE ( 'NONE', *, *, #1020, .T. ) ;
#551 = CARTESIAN_POINT ( 'NONE',  ( -50.24606426772572831, 119.8476404494381740, 0.000000000000000000 ) ) ;
#552 = DIRECTION ( 'NONE',  ( -0.000000000000000000, -0.000000000000000000, -1.000000000000000000 ) ) ;
#553 = CARTESIAN_POINT ( 'NONE',  ( 20.75393573227426458, 119.8476404494381740, 0.000000000000000000 ) ) ;
#554 = PLANE ( 'NONE',  #977 ) ;
#555 = ORIENTED_EDGE ( 'NONE', *, *, #238, .F. ) ;
#556 = DIRECTION ( 'NONE',  ( -1.315430123963455640E-16, 1.000000000000000000, -0.000000000000000000 ) ) ;
#557 = ADVANCED_FACE ( 'NONE', ( #589 ), #209, .F. ) ;
#558 = DIRECTION ( 'NONE',  ( -0.000000000000000000, -0.000000000000000000, 1.000000000000000000 ) ) ;
#559 = CARTESIAN_POINT ( 'NONE',  ( -47.24606426772573542, -13.95289138068775081, 12.00000000000000000 ) ) ;
#560 = CARTESIAN_POINT ( 'NONE',  ( -25.24606426772574963, 7.347640449438194388, 2.000000000000000000 ) ) ;
#561 = DIRECTION ( 'NONE',  ( -1.000000000000000000, 0.000000000000000000, 0.000000000000000000 ) ) ;
#562 = VECTOR ( 'NONE', #119, 1000.000000000000000 ) ;
#563 = ORIENTED_EDGE ( 'NONE', *, *, #993, .T. ) ;
#564 = LINE ( 'NONE', #709, #815 ) ;
#565 = EDGE_CURVE ( 'NONE', #645, #30, #751, .T. ) ;
#566 = EDGE_CURVE ( 'NONE', #699, #998, #260, .T. ) ;
#567 = CIRCLE ( 'NONE', #486, 2.399999999999976819 ) ;
#568 = CYLINDRICAL_SURFACE ( 'NONE', #360, 2.000000000000001776 ) ;
#569 = ORIENTED_EDGE ( 'NONE', *, *, #942, .T. ) ;
#570 = CARTESIAN_POINT ( 'NONE',  ( -52.24606426772573542, 119.8476404494381597, 0.000000000000000000 ) ) ;
#571 = ORIENTED_EDGE ( 'NONE', *, *, #847, .F. ) ;
#572 = ORIENTED_EDGE ( 'NONE', *, *, #426, .T. ) ;
#573 = CARTESIAN_POINT ( 'NONE',  ( 2.453935732274262982, -63.15235955056182604, -1.734723475976807883E-15 ) ) ;
#574 = EDGE_CURVE ( 'NONE', #922, #257, #399, .T. ) ;
#575 = VERTEX_POINT ( 'NONE', #601 ) ;
#576 = DIRECTION ( 'NONE',  ( -0.000000000000000000, -0.000000000000000000, -1.000000000000000000 ) ) ;
#577 = CIRCLE ( 'NONE', #462, 2.399999999999986589 ) ;
#578 = VECTOR ( 'NONE', #929, 1000.000000000000000 ) ;
#579 = ORIENTED_EDGE ( 'NONE', *, *, #5, .T. ) ;
#580 = DIRECTION ( 'NONE',  ( -1.000000000000000000, 0.000000000000000000, 0.000000000000000000 ) ) ;
#581 = ORIENTED_EDGE ( 'NONE', *, *, #566, .T. ) ;
#582 = CYLINDRICAL_SURFACE ( 'NONE', #106, 2.399999999999987033 ) ;
#583 = EDGE_CURVE ( 'NONE', #691, #447, #528, .T. ) ;
#584 = ORIENTED_EDGE ( 'NONE', *, *, #273, .T. ) ;
#585 = DIRECTION ( 'NONE',  ( -1.000000000000000000, -0.000000000000000000, -0.000000000000000000 ) ) ;
#586 = DIRECTION ( 'NONE',  ( -0.000000000000000000, -0.000000000000000000, -1.000000000000000000 ) ) ;
#587 = ORIENTED_EDGE ( 'NONE', *, *, #772, .F. ) ;
#588 = ORIENTED_EDGE ( 'NONE', *, *, #452, .T. ) ;
#589 = FACE_OUTER_BOUND ( 'NONE', #40, .T. ) ;
#590 = CONICAL_SURFACE ( 'NONE', #147, 4.699999999999999289, 0.7853981633974473908 ) ;
#591 = VECTOR ( 'NONE', #37, 1000.000000000000000 ) ;
#592 = CIRCLE ( 'NONE', #515, 2.399999999999976819 ) ;
#593 = VERTEX_POINT ( 'NONE', #846 ) ;
#594 = DIRECTION ( 'NONE',  ( 1.000000000000000000, 9.865725929725919765E-17, -0.000000000000000000 ) ) ;
#595 = ORIENTED_EDGE ( 'NONE', *, *, #574, .F. ) ;
#596 = CARTESIAN_POINT ( 'NONE',  ( 20.75393573227428234, -91.15235955056182604, 25.00000000000000000 ) ) ;
#597 = DIRECTION ( 'NONE',  ( -0.000000000000000000, -0.000000000000000000, 1.000000000000000000 ) ) ;
#598 = ORIENTED_EDGE ( 'NONE', *, *, #418, .F. ) ;
#599 = CARTESIAN_POINT ( 'NONE',  ( -19.10067103158761981, -63.15235955056182604, 25.00000000000000000 ) ) ;
#600 = ORIENTED_EDGE ( 'NONE', *, *, #880, .T. ) ;
#601 = CARTESIAN_POINT ( 'NONE',  ( -3.246064267725760288, -13.95289138068775081, 20.00000000000000000 ) ) ;
#602 = PLANE ( 'NONE',  #1003 ) ;
#603 = ADVANCED_FACE ( 'NONE', ( #131 ), #123, .F. ) ;
#604 = VERTEX_POINT ( 'NONE', #52 ) ;
#605 = CARTESIAN_POINT ( 'NONE',  ( -2.246064267725715435, 91.84764044943817396, 2.300000000000024247 ) ) ;
#606 = VERTEX_POINT ( 'NONE', #57 ) ;
#607 = DIRECTION ( 'NONE',  ( 1.000000000000000000, 0.000000000000000000, 0.000000000000000000 ) ) ;
#608 = VECTOR ( 'NONE', #745, 1000.000000000000000 ) ;
#609 = ADVANCED_FACE ( 'NONE', ( #377 ), #692, .F. ) ;
#610 = CARTESIAN_POINT ( 'NONE',  ( -19.10067103158761981, -63.15235955056182604, 20.00000000000000000 ) ) ;
#611 = AXIS2_PLACEMENT_3D ( 'NONE', #932, #1048, #164 ) ;
#612 = VERTEX_POINT ( 'NONE', #230 ) ;
#613 = DIRECTION ( 'NONE',  ( -1.000000000000000000, 0.000000000000000000, 0.000000000000000000 ) ) ;
#614 = EDGE_LOOP ( 'NONE', ( #265, #801, #595, #727 ) ) ;
#615 = CARTESIAN_POINT ( 'NONE',  ( -19.10067103158761981, -88.15235955056181183, 20.00000000000000000 ) ) ;
#616 = DIRECTION ( 'NONE',  ( 0.000000000000000000, 0.000000000000000000, 1.000000000000000000 ) ) ;
#617 = VERTEX_POINT ( 'NONE', #623 ) ;
#618 = ORIENTED_EDGE ( 'NONE', *, *, #378, .T. ) ;
#619 = CARTESIAN_POINT ( 'NONE',  ( -47.24606426772573542, 28.64817227956414314, 12.00000000000000000 ) ) ;
#620 = CARTESIAN_POINT ( 'NONE',  ( 2.453935732274262982, -63.15235955056182604, -1.734723475976807883E-15 ) ) ;
#621 = DIRECTION ( 'NONE',  ( 0.000000000000000000, -1.000000000000000000, 0.000000000000000000 ) ) ;
#622 = SHAPE_DEFINITION_REPRESENTATION ( #776, #17 ) ;
#623 = CARTESIAN_POINT ( 'NONE',  ( 17.75393573227429656, -88.15235955056181183, 25.00000000000000000 ) ) ;
#624 = DIRECTION ( 'NONE',  ( -0.000000000000000000, -0.000000000000000000, -1.000000000000000000 ) ) ;
#625 = CIRCLE ( 'NONE', #1045, 2.399999999999986589 ) ;
#626 = DIRECTION ( 'NONE',  ( 0.000000000000000000, -1.000000000000000000, 0.000000000000000000 ) ) ;
#627 = CARTESIAN_POINT ( 'NONE',  ( 20.75393573227426458, 119.8476404494381740, 25.00000000000000000 ) ) ;
#628 = VECTOR ( 'NONE', #576, 1000.000000000000000 ) ;
#629 = PRESENTATION_LAYER_ASSIGNMENT (  '', '', ( #835 ) ) ;
#630 = ORIENTED_EDGE ( 'NONE', *, *, #133, .T. ) ;
#631 = FACE_BOUND ( 'NONE', #409, .T. ) ;
#632 = DIRECTION ( 'NONE',  ( -1.000000000000000000, 0.000000000000000000, 0.000000000000000000 ) ) ;
#633 = PLANE ( 'NONE',  #191 ) ;
#634 = VERTEX_POINT ( 'NONE', #969 ) ;
#635 = CARTESIAN_POINT ( 'NONE',  ( -2.246064267725715435, 91.84764044943817396, -1.734723475976807883E-15 ) ) ;
#636 = EDGE_CURVE ( 'NONE', #902, #645, #808, .T. ) ;
#637 = EDGE_CURVE ( 'NONE', #288, #517, #304, .T. ) ;
#638 = CARTESIAN_POINT ( 'NONE',  ( -52.24606426772571410, -91.15235955056182604, 25.00000000000000000 ) ) ;
#639 = APPLICATION_PROTOCOL_DEFINITION ( 'draft international standard', 'automotive_design', 1998, #955 ) ;
#640 = CARTESIAN_POINT ( 'NONE',  ( 22.75393573227426458, 119.8476404494381740, 25.00000000000000000 ) ) ;
#641 = CYLINDRICAL_SURFACE ( 'NONE', #248, 13.00000000000000178 ) ;
#642 = VECTOR ( 'NONE', #222, 1000.000000000000000 ) ;
#643 = VECTOR ( 'NONE', #430, 1000.000000000000000 ) ;
#644 = CIRCLE ( 'NONE', #781, 2.000000000000005329 ) ;
#645 = VERTEX_POINT ( 'NONE', #619 ) ;
#646 = CARTESIAN_POINT ( 'NONE',  ( 22.75393573227426458, 119.8476404494381740, 0.000000000000000000 ) ) ;
#647 = EDGE_CURVE ( 'NONE', #400, #1004, #832, .T. ) ;
#648 = EDGE_LOOP ( 'NONE', ( #103, #374, #563, #459 ) ) ;
#649 = DIRECTION ( 'NONE',  ( 1.000000000000000000, 0.000000000000000000, 0.000000000000000000 ) ) ;
#650 = EDGE_LOOP ( 'NONE', ( #453, #885, #1017, #252, #315, #630, #849, #893, #376, #730, #438, #295, #476, #18, #833, #571 ) ) ;
#651 = CARTESIAN_POINT ( 'NONE',  ( -25.24606426772574963, 7.347640449438194388, 2.000000000000000000 ) ) ;
#652 = ADVANCED_FACE ( 'NONE', ( #404 ), #471, .T. ) ;
#653 = ORIENTED_EDGE ( 'NONE', *, *, #793, .T. ) ;
#654 = EDGE_LOOP ( 'NONE', ( #202, #10, #750, #95 ) ) ;
#655 = DIRECTION ( 'NONE',  ( -0.000000000000000000, -0.000000000000000000, 1.000000000000000000 ) ) ;
#656 = VECTOR ( 'NONE', #975, 1000.000000000000000 ) ;
#657 = CARTESIAN_POINT ( 'NONE',  ( -2.246064267725736308, -63.15235955056182604, -1.734723475976807883E-15 ) ) ;
#658 = ADVANCED_FACE ( 'NONE', ( #72 ), #951, .F. ) ;
#659 = CONICAL_SURFACE ( 'NONE', #384, 4.699999999999999289, 0.7853981633974473908 ) ;
#660 = CARTESIAN_POINT ( 'NONE',  ( -19.10067103158761981, -88.15235955056181183, 25.00000000000000000 ) ) ;
#661 = ORIENTED_EDGE ( 'NONE', *, *, #847, .T. ) ;
#662 = CARTESIAN_POINT ( 'NONE',  ( 20.75393573227426458, 119.8476404494381740, 0.000000000000000000 ) ) ;
#663 = LINE ( 'NONE', #915, #674 ) ;
#664 = EDGE_CURVE ( 'NONE', #1022, #145, #332, .T. ) ;
#665 = VERTEX_POINT ( 'NONE', #227 ) ;
#666 = CARTESIAN_POINT ( 'NONE',  ( -47.24606426772573542, 91.84764044943815975, 25.00000000000000000 ) ) ;
#667 = ORIENTED_EDGE ( 'NONE', *, *, #693, .F. ) ;
#668 = CARTESIAN_POINT ( 'NONE',  ( -19.10067103158761981, -88.15235955056181183, 20.00000000000000000 ) ) ;
#669 = CARTESIAN_POINT ( 'NONE',  ( 0.1539357322742503642, -63.15235955056182604, 20.00000000000000000 ) ) ;
#670 = ORIENTED_EDGE ( 'NONE', *, *, #960, .F. ) ;
#671 = AXIS2_PLACEMENT_3D ( 'NONE', #842, #367, #22 ) ;
#672 = ORIENTED_EDGE ( 'NONE', *, *, #205, .F. ) ;
#673 = CARTESIAN_POINT ( 'NONE',  ( -3.246064267725760288, 28.64817227956413959, 20.00000000000000000 ) ) ;
#674 = VECTOR ( 'NONE', #428, 1000.000000000000000 ) ;
#675 = AXIS2_PLACEMENT_3D ( 'NONE', #596, #143, #45 ) ;
#676 = AXIS2_PLACEMENT_3D ( 'NONE', #223, #121, #518 ) ;
#677 = DIRECTION ( 'NONE',  ( 0.000000000000000000, -1.000000000000000000, 0.000000000000000000 ) ) ;
#678 = ORIENTED_EDGE ( 'NONE', *, *, #335, .F. ) ;
#679 = DIRECTION ( 'NONE',  ( -0.000000000000000000, -0.000000000000000000, -1.000000000000000000 ) ) ;
#680 = VERTEX_POINT ( 'NONE', #326 ) ;
#681 = CARTESIAN_POINT ( 'NONE',  ( 0.1539357322742616330, 91.84764044943817396, 2.300000000000024247 ) ) ;
#682 = EDGE_CURVE ( 'NONE', #159, #972, #401, .T. ) ;
#683 = EDGE_LOOP ( 'NONE', ( #6, #322, #968, #419 ) ) ;
#684 = FACE_OUTER_BOUND ( 'NONE', #845, .T. ) ;
#685 = ORIENTED_EDGE ( 'NONE', *, *, #772, .T. ) ;
#686 = CARTESIAN_POINT ( 'NONE',  ( -50.24606426772570700, -91.15235955056182604, 25.00000000000000000 ) ) ;
#687 = EDGE_CURVE ( 'NONE', #665, #55, #297, .T. ) ;
#688 = LINE ( 'NONE', #233, #1006 ) ;
#689 = ORIENTED_EDGE ( 'NONE', *, *, #704, .F. ) ;
#690 = DIRECTION ( 'NONE',  ( -1.000000000000000000, 0.000000000000000000, 0.000000000000000000 ) ) ;
#691 = VERTEX_POINT ( 'NONE', #722 ) ;
#692 = PLANE ( 'NONE',  #921 ) ;
#693 = EDGE_CURVE ( 'NONE', #308, #926, #244, .T. ) ;
#694 = VECTOR ( 'NONE', #487, 1000.000000000000000 ) ;
#695 = AXIS2_PLACEMENT_3D ( 'NONE', #700, #160, #489 ) ;
#696 = DIRECTION ( 'NONE',  ( -0.000000000000000000, -0.000000000000000000, -1.000000000000000000 ) ) ;
#697 = EDGE_LOOP ( 'NONE', ( #174, #387, #285, #618 ) ) ;
#698 = DIRECTION ( 'NONE',  ( -1.000000000000000000, 0.000000000000000000, 0.000000000000000000 ) ) ;
#699 = VERTEX_POINT ( 'NONE', #876 ) ;
#700 = CARTESIAN_POINT ( 'NONE',  ( -3.246064267725760288, -13.95289138068775081, 12.00000000000000000 ) ) ;
#701 = LINE ( 'NONE', #58, #710 ) ;
#702 = EDGE_LOOP ( 'NONE', ( #236, #672 ) ) ;
#703 = APPLICATION_PROTOCOL_DEFINITION ( 'draft international standard', 'automotive_design', 1998, #768 ) ;
#704 = EDGE_CURVE ( 'NONE', #811, #691, #277, .T. ) ;
#705 = ORIENTED_EDGE ( 'NONE', *, *, #473, .T. ) ;
#706 = CARTESIAN_POINT ( 'NONE',  ( -19.10067103158761981, -63.15235955056182604, 20.00000000000000000 ) ) ;
#707 = ORIENTED_EDGE ( 'NONE', *, *, #153, .F. ) ;
#708 = DIRECTION ( 'NONE',  ( -1.610315182225156617E-17, 1.000000000000000000, 0.000000000000000000 ) ) ;
#709 = CARTESIAN_POINT ( 'NONE',  ( -4.646064267725702912, 91.84764044943817396, 0.000000000000000000 ) ) ;
#710 = VECTOR ( 'NONE', #228, 1000.000000000000000 ) ;
#711 = CARTESIAN_POINT ( 'NONE',  ( -4.646064267725723340, -63.15235955056182604, 0.000000000000000000 ) ) ;
#712 = DIRECTION ( 'NONE',  ( 0.000000000000000000, 0.000000000000000000, 1.000000000000000000 ) ) ;
#713 = AXIS2_PLACEMENT_3D ( 'NONE', #551, #882, #86 ) ;
#714 = ADVANCED_FACE ( 'NONE', ( #389 ), #155, .F. ) ;
#715 = ORIENTED_EDGE ( 'NONE', *, *, #836, .F. ) ;
#716 = CARTESIAN_POINT ( 'NONE',  ( 0.1539357322742711809, 91.84764044943817396, 0.000000000000000000 ) ) ;
#717 = EDGE_CURVE ( 'NONE', #197, #933, #1049, .T. ) ;
#718 = EDGE_CURVE ( 'NONE', #257, #51, #485, .T. ) ;
#719 = FACE_OUTER_BOUND ( 'NONE', #1042, .T. ) ;
#720 = DIRECTION ( 'NONE',  ( -1.000000000000000000, 0.000000000000000000, -0.000000000000000000 ) ) ;
#721 = VERTEX_POINT ( 'NONE', #973 ) ;
#722 = CARTESIAN_POINT ( 'NONE',  ( -52.24606426772573542, 119.8476404494381597, 25.00000000000000000 ) ) ;
#723 = CARTESIAN_POINT ( 'NONE',  ( -52.24606426772571410, -91.15235955056182604, 25.00000000000000000 ) ) ;
#724 = ORIENTED_EDGE ( 'NONE', *, *, #498, .T. ) ;
#725 = FACE_OUTER_BOUND ( 'NONE', #981, .T. ) ;
#726 = VECTOR ( 'NONE', #172, 1000.000000000000000 ) ;
#727 = ORIENTED_EDGE ( 'NONE', *, *, #287, .T. ) ;
#728 = FACE_OUTER_BOUND ( 'NONE', #13, .T. ) ;
#729 = VECTOR ( 'NONE', #1030, 1000.000000000000000 ) ;
#730 = ORIENTED_EDGE ( 'NONE', *, *, #812, .T. ) ;
#731 = CARTESIAN_POINT ( 'NONE',  ( 22.75393573227429300, -91.15235955056182604, 0.000000000000000000 ) ) ;
#732 = EDGE_CURVE ( 'NONE', #1013, #547, #805, .T. ) ;
#733 = VERTEX_POINT ( 'NONE', #247 ) ;
#734 = DIRECTION ( 'NONE',  ( 0.000000000000000000, 0.000000000000000000, 1.000000000000000000 ) ) ;
#735 = DIRECTION ( 'NONE',  ( 0.000000000000000000, -0.000000000000000000, -1.000000000000000000 ) ) ;
#736 = CARTESIAN_POINT ( 'NONE',  ( 20.75393573227426458, 119.8476404494381740, 25.00000000000000000 ) ) ;
#737 = ORIENTED_EDGE ( 'NONE', *, *, #88, .T. ) ;
#738 = CARTESIAN_POINT ( 'NONE',  ( -3.246064267725760288, -13.95289138068775081, 20.00000000000000000 ) ) ;
#739 = VECTOR ( 'NONE', #897, 1000.000000000000000 ) ;
#740 = ORIENTED_EDGE ( 'NONE', *, *, #47, .F. ) ;
#741 = CARTESIAN_POINT ( 'NONE',  ( -50.24606426772571410, 121.8476404494381740, 25.00000000000000000 ) ) ;
#742 = ORIENTED_EDGE ( 'NONE', *, *, #521, .F. ) ;
#743 = DIRECTION ( 'NONE',  ( 1.000000000000000000, 0.000000000000000000, 0.000000000000000000 ) ) ;
#744 = ORIENTED_EDGE ( 'NONE', *, *, #205, .T. ) ;
#745 = DIRECTION ( 'NONE',  ( -0.000000000000000000, -0.000000000000000000, -1.000000000000000000 ) ) ;
#746 = CARTESIAN_POINT ( 'NONE',  ( -25.24606426772574963, 7.347640449438194388, 12.00000000000000000 ) ) ;
#747 = ORIENTED_EDGE ( 'NONE', *, *, #418, .T. ) ;
#748 = FACE_OUTER_BOUND ( 'NONE', #347, .T. ) ;
#749 = EDGE_CURVE ( 'NONE', #28, #954, #564, .T. ) ;
#750 = ORIENTED_EDGE ( 'NONE', *, *, #133, .F. ) ;
#751 = LINE ( 'NONE', #854, #591 ) ;
#752 = LINE ( 'NONE', #46, #1024 ) ;
#753 = UNCERTAINTY_MEASURE_WITH_UNIT (LENGTH_MEASURE( 1.000000000000000082E-05 ), #302, 'distance_accuracy_value', 'NONE');
#754 = ORIENTED_EDGE ( 'NONE', *, *, #1020, .F. ) ;
#755 = CARTESIAN_POINT ( 'NONE',  ( -19.10067103158761981, -88.15235955056181183, 20.00000000000000000 ) ) ;
#756 = ADVANCED_FACE ( 'NONE', ( #631, #964, #725 ), #412, .T. ) ;
#757 = AXIS2_PLACEMENT_3D ( 'NONE', #736, #822, #925 ) ;
#758 = DIRECTION ( 'NONE',  ( 1.000000000000000000, 1.610315182225156617E-17, 0.000000000000000000 ) ) ;
#759 = VECTOR ( 'NONE', #198, 1000.000000000000000 ) ;
#760 = AXIS2_PLACEMENT_3D ( 'NONE', #810, #11, #908 ) ;
#761 =( GEOMETRIC_REPRESENTATION_CONTEXT ( 3 ) GLOBAL_UNCERTAINTY_ASSIGNED_CONTEXT ( ( #251 ) ) GLOBAL_UNIT_ASSIGNED_CONTEXT ( ( #369, #771, #29 ) ) REPRESENTATION_CONTEXT ( 'NONE', 'WORKASPACE' ) );
#762 = LINE ( 'NONE', #101, #562 ) ;
#763 = EDGE_CURVE ( 'NONE', #531, #1016, #96, .T. ) ;
#764 = ORIENTED_EDGE ( 'NONE', *, *, #521, .T. ) ;
#765 = DIRECTION ( 'NONE',  ( -0.000000000000000000, -0.000000000000000000, -1.000000000000000000 ) ) ;
#766 = ORIENTED_EDGE ( 'NONE', *, *, #783, .T. ) ;
#767 = FACE_OUTER_BOUND ( 'NONE', #1011, .T. ) ;
#768 = APPLICATION_CONTEXT ( 'automotive_design' ) ;
#769 = CARTESIAN_POINT ( 'NONE',  ( 20.75393573227428234, -93.15235955056182604, 25.00000000000000000 ) ) ;
#770 = ORIENTED_EDGE ( 'NONE', *, *, #162, .F. ) ;
#771 =( NAMED_UNIT ( * ) PLANE_ANGLE_UNIT ( ) SI_UNIT ( $, .RADIAN. ) );
#772 = EDGE_CURVE ( 'NONE', #665, #998, #188, .T. ) ;
#773 = CARTESIAN_POINT ( 'NONE',  ( -25.24606426772574963, 7.347640449438194388, 12.00000000000000000 ) ) ;
#774 = DIRECTION ( 'NONE',  ( 0.000000000000000000, -0.000000000000000000, 1.000000000000000000 ) ) ;
#775 = FACE_BOUND ( 'NONE', #702, .T. ) ;
#776 = PRODUCT_DEFINITION_SHAPE ( 'NONE', 'NONE',  #182 ) ;
#777 = CARTESIAN_POINT ( 'NONE',  ( -52.24606426772573542, 119.8476404494381597, 0.000000000000000000 ) ) ;
#778 = DIRECTION ( 'NONE',  ( -0.000000000000000000, -0.000000000000000000, -1.000000000000000000 ) ) ;
#779 = VECTOR ( 'NONE', #1015, 1000.000000000000000 ) ;
#780 = AXIS2_PLACEMENT_3D ( 'NONE', #472, #696, #874 ) ;
#781 = AXIS2_PLACEMENT_3D ( 'NONE', #504, #104, #979 ) ;
#782 = CARTESIAN_POINT ( 'NONE',  ( -3.246064267725760288, 28.64817227956413959, 12.00000000000000000 ) ) ;
#783 = EDGE_CURVE ( 'NONE', #517, #145, #330, .T. ) ;
#784 = VECTOR ( 'NONE', #266, 1000.000000000000000 ) ;
#785 = EDGE_LOOP ( 'NONE', ( #1031, #754, #740, #569 ) ) ;
#786 = LINE ( 'NONE', #458, #217 ) ;
#787 = ORIENTED_EDGE ( 'NONE', *, *, #884, .T. ) ;
#788 = CARTESIAN_POINT ( 'NONE',  ( -19.10067103158761981, -63.15235955056182604, 20.00000000000000000 ) ) ;
#789 = CARTESIAN_POINT ( 'NONE',  ( -47.24606426772573542, 91.84764044943815975, 20.00000000000000000 ) ) ;
#790 = EDGE_LOOP ( 'NONE', ( #770, #290 ) ) ;
#791 = DIRECTION ( 'NONE',  ( -0.000000000000000000, 0.000000000000000000, 1.000000000000000000 ) ) ;
#792 = CARTESIAN_POINT ( 'NONE',  ( -2.246064267725736308, -63.15235955056182604, -1.734723475976807883E-15 ) ) ;
#793 = EDGE_CURVE ( 'NONE', #902, #531, #258, .T. ) ;
#794 = DIRECTION ( 'NONE',  ( 1.000000000000000000, -0.000000000000000000, -0.000000000000000000 ) ) ;
#795 = CARTESIAN_POINT ( 'NONE',  ( 20.75393573227426458, 121.8476404494381740, 25.00000000000000000 ) ) ;
#796 = CARTESIAN_POINT ( 'NONE',  ( -25.24606426772574963, 7.347640449438194388, 2.000000000000000000 ) ) ;
#797 = EDGE_CURVE ( 'NONE', #1004, #391, #181, .T. ) ;
#798 = VECTOR ( 'NONE', #105, 1000.000000000000000 ) ;
#799 = DIRECTION ( 'NONE',  ( -0.000000000000000000, 0.000000000000000000, 1.000000000000000000 ) ) ;
#800 = AXIS2_PLACEMENT_3D ( 'NONE', #68, #76, #166 ) ;
#801 = ORIENTED_EDGE ( 'NONE', *, *, #884, .F. ) ;
#802 = FACE_OUTER_BOUND ( 'NONE', #130, .T. ) ;
#803 = EDGE_CURVE ( 'NONE', #829, #721, #510, .T. ) ;
#804 = ORIENTED_EDGE ( 'NONE', *, *, #141, .T. ) ;
#805 = LINE ( 'NONE', #393, #891 ) ;
#806 = FACE_OUTER_BOUND ( 'NONE', #910, .T. ) ;
#807 = ORIENTED_EDGE ( 'NONE', *, *, #693, .T. ) ;
#808 = LINE ( 'NONE', #956, #150 ) ;
#809 = VERTEX_POINT ( 'NONE', #646 ) ;
#810 = CARTESIAN_POINT ( 'NONE',  ( -2.246064267725736308, -63.15235955056182604, -1.734723475976807883E-15 ) ) ;
#811 = VERTEX_POINT ( 'NONE', #500 ) ;
#812 = EDGE_CURVE ( 'NONE', #996, #122, #990, .T. ) ;
#813 = EDGE_CURVE ( 'NONE', #933, #899, #644, .T. ) ;
#814 = VECTOR ( 'NONE', #325, 999.9999999999998863 ) ;
#815 = VECTOR ( 'NONE', #316, 1000.000000000000000 ) ;
#816 = EDGE_LOOP ( 'NONE', ( #449, #480, #464, #120 ) ) ;
#817 = DIRECTION ( 'NONE',  ( -0.000000000000000000, -0.000000000000000000, -1.000000000000000000 ) ) ;
#818 =( GEOMETRIC_REPRESENTATION_CONTEXT ( 3 ) GLOBAL_UNCERTAINTY_ASSIGNED_CONTEXT ( ( #753 ) ) GLOBAL_UNIT_ASSIGNED_CONTEXT ( ( #302, #307, #967 ) ) REPRESENTATION_CONTEXT ( 'NONE', 'WORKASPACE' ) );
#819 = ORIENTED_EDGE ( 'NONE', *, *, #314, .F. ) ;
#820 = LINE ( 'NONE', #420, #628 ) ;
#821 = CARTESIAN_POINT ( 'NONE',  ( -2.246064267725715435, 91.84764044943817396, 0.000000000000000000 ) ) ;
#822 = DIRECTION ( 'NONE',  ( 0.000000000000000000, 0.000000000000000000, 1.000000000000000000 ) ) ;
#823 = EDGE_CURVE ( 'NONE', #411, #197, #820, .T. ) ;
#824 = EDGE_CURVE ( 'NONE', #721, #353, #253, .T. ) ;
#825 = ORIENTED_EDGE ( 'NONE', *, *, #905, .F. ) ;
#826 = CARTESIAN_POINT ( 'NONE',  ( -50.24606426772571410, 121.8476404494381740, 25.00000000000000000 ) ) ;
#827 = DIRECTION ( 'NONE',  ( -0.000000000000000000, -0.000000000000000000, -1.000000000000000000 ) ) ;
#828 = LINE ( 'NONE', #107, #643 ) ;
#829 = VERTEX_POINT ( 'NONE', #903 ) ;
#830 = DIRECTION ( 'NONE',  ( -1.610315182225156617E-17, 1.000000000000000000, 0.000000000000000000 ) ) ;
#831 = AXIS2_PLACEMENT_3D ( 'NONE', #118, #286, #385 ) ;
#832 = CIRCLE ( 'NONE', #713, 2.000000000000001776 ) ;
#833 = ORIENTED_EDGE ( 'NONE', *, *, #935, .F. ) ;
#834 = DIRECTION ( 'NONE',  ( -1.000000000000000000, 0.000000000000000000, 0.000000000000000000 ) ) ;
#835 = STYLED_ITEM ( 'NONE', ( #527 ), #923 ) ;
#836 = EDGE_CURVE ( 'NONE', #606, #575, #425, .T. ) ;
#837 = LINE ( 'NONE', #264, #917 ) ;
#838 = ORIENTED_EDGE ( 'NONE', *, *, #687, .F. ) ;
#839 = DIRECTION ( 'NONE',  ( 0.000000000000000000, -1.000000000000000000, 0.000000000000000000 ) ) ;
#840 = ORIENTED_EDGE ( 'NONE', *, *, #905, .T. ) ;
#841 = DIRECTION ( 'NONE',  ( 1.000000000000000000, 0.000000000000000000, 0.000000000000000000 ) ) ;
#842 = CARTESIAN_POINT ( 'NONE',  ( -2.246064267725715435, 91.84764044943817396, 20.00000000000000000 ) ) ;
#843 = ORIENTED_EDGE ( 'NONE', *, *, #763, .F. ) ;
#844 = FILL_AREA_STYLE_COLOUR ( '', #169 ) ;
#845 = EDGE_LOOP ( 'NONE', ( #939, #261, #200, #907 ) ) ;
#846 = CARTESIAN_POINT ( 'NONE',  ( -19.10067103158761981, -63.15235955056182604, 25.00000000000000000 ) ) ;
#847 = EDGE_CURVE ( 'NONE', #680, #12, #175, .T. ) ;
#848 = DIRECTION ( 'NONE',  ( -1.000000000000000000, 0.000000000000000000, 0.000000000000000000 ) ) ;
#849 = ORIENTED_EDGE ( 'NONE', *, *, #574, .T. ) ;
#850 = CARTESIAN_POINT ( 'NONE',  ( 20.75393573227428234, -93.15235955056182604, 25.00000000000000000 ) ) ;
#851 = CIRCLE ( 'NONE', #513, 13.00000000000000178 ) ;
#852 = VECTOR ( 'NONE', #953, 999.9999999999998863 ) ;
#853 = ORIENTED_EDGE ( 'NONE', *, *, #749, .T. ) ;
#854 = CARTESIAN_POINT ( 'NONE',  ( -47.24606426772573542, -13.95289138068775081, 12.00000000000000000 ) ) ;
#855 = AXIS2_PLACEMENT_3D ( 'NONE', #635, #544, #1037 ) ;
#856 = AXIS2_PLACEMENT_3D ( 'NONE', #448, #594, #927 ) ;
#857 = DIRECTION ( 'NONE',  ( -1.315430123963455640E-16, 1.000000000000000000, -0.000000000000000000 ) ) ;
#858 = ADVANCED_FACE ( 'NONE', ( #728 ), #43, .F. ) ;
#859 = ORIENTED_EDGE ( 'NONE', *, *, #50, .T. ) ;
#860 = CARTESIAN_POINT ( 'NONE',  ( -4.646064267725692254, 91.84764044943817396, 2.300000000000024247 ) ) ;
#861 = ORIENTED_EDGE ( 'NONE', *, *, #324, .T. ) ;
#862 = DIRECTION ( 'NONE',  ( 0.000000000000000000, 1.000000000000000000, 0.000000000000000000 ) ) ;
#863 = DIRECTION ( 'NONE',  ( 1.000000000000000000, 0.000000000000000000, 0.000000000000000000 ) ) ;
#864 = CARTESIAN_POINT ( 'NONE',  ( -50.24606426772571410, 121.8476404494381740, 0.000000000000000000 ) ) ;
#865 = DIRECTION ( 'NONE',  ( -0.000000000000000000, 0.000000000000000000, 1.000000000000000000 ) ) ;
#866 = CARTESIAN_POINT ( 'NONE',  ( -47.24606426772573542, -63.15235955056182604, 25.00000000000000000 ) ) ;
#867 = EDGE_CURVE ( 'NONE', #809, #117, #362, .T. ) ;
#868 = CARTESIAN_POINT ( 'NONE',  ( -6.946064267725735597, -63.15235955056182604, -1.734723475976807883E-15 ) ) ;
#869 = ORIENTED_EDGE ( 'NONE', *, *, #179, .F. ) ;
#870 = DIRECTION ( 'NONE',  ( 0.000000000000000000, 0.000000000000000000, 1.000000000000000000 ) ) ;
#871 = CIRCLE ( 'NONE', #671, 2.399999999999986589 ) ;
#872 = CIRCLE ( 'NONE', #780, 4.699999999999999289 ) ;
#873 = VECTOR ( 'NONE', #262, 1000.000000000000000 ) ;
#874 = DIRECTION ( 'NONE',  ( -1.000000000000000000, 0.000000000000000000, 0.000000000000000000 ) ) ;
#875 = DIRECTION ( 'NONE',  ( -0.000000000000000000, -0.000000000000000000, 1.000000000000000000 ) ) ;
#876 = CARTESIAN_POINT ( 'NONE',  ( -38.24606426772575674, 7.347640449438196164, 12.00000000000000000 ) ) ;
#877 = DIRECTION ( 'NONE',  ( -1.000000000000000000, 0.000000000000000000, 0.000000000000000000 ) ) ;
#878 = PLANE ( 'NONE',  #1044 ) ;
#879 = CARTESIAN_POINT ( 'NONE',  ( -6.946064267725715169, 91.84764044943817396, -1.734723475976807883E-15 ) ) ;
#880 = EDGE_CURVE ( 'NONE', #972, #208, #995, .T. ) ;
#881 = VERTEX_POINT ( 'NONE', #900 ) ;
#882 = DIRECTION ( 'NONE',  ( 0.000000000000000000, 0.000000000000000000, 1.000000000000000000 ) ) ;
#883 = DIRECTION ( 'NONE',  ( -0.000000000000000000, -0.000000000000000000, 1.000000000000000000 ) ) ;
#884 = EDGE_CURVE ( 'NONE', #257, #899, #494, .T. ) ;
#885 = ORIENTED_EDGE ( 'NONE', *, *, #970, .T. ) ;
#886 = CARTESIAN_POINT ( 'NONE',  ( -47.24606426772573542, 28.64817227956415024, 20.00000000000000000 ) ) ;
#887 = ORIENTED_EDGE ( 'NONE', *, *, #317, .T. ) ;
#888 = DIRECTION ( 'NONE',  ( -0.000000000000000000, -0.000000000000000000, -1.000000000000000000 ) ) ;
#889 = VECTOR ( 'NONE', #293, 1000.000000000000000 ) ;
#890 = CARTESIAN_POINT ( 'NONE',  ( -26.24606426772573187, 121.8476404494381740, 20.00000000000000000 ) ) ;
#891 = VECTOR ( 'NONE', #309, 1000.000000000000000 ) ;
#892 = EDGE_CURVE ( 'NONE', #517, #954, #592, .T. ) ;
#893 = ORIENTED_EDGE ( 'NONE', *, *, #718, .T. ) ;
#894 = DIRECTION ( 'NONE',  ( -1.000000000000000000, 7.885106708985491499E-17, 0.000000000000000000 ) ) ;
#895 = DIRECTION ( 'NONE',  ( -1.000000000000000000, 0.000000000000000000, 0.000000000000000000 ) ) ;
#896 = ORIENTED_EDGE ( 'NONE', *, *, #647, .T. ) ;
#897 = DIRECTION ( 'NONE',  ( -1.000000000000000000, 0.000000000000000000, 0.000000000000000000 ) ) ;
#898 = ORIENTED_EDGE ( 'NONE', *, *, #124, .F. ) ;
#899 = VERTEX_POINT ( 'NONE', #731 ) ;
#900 = CARTESIAN_POINT ( 'NONE',  ( -47.24606426772573542, -63.15235955056182604, 20.00000000000000000 ) ) ;
#901 = AXIS2_PLACEMENT_3D ( 'NONE', #662, #255, #649 ) ;
#902 = VERTEX_POINT ( 'NONE', #14 ) ;
#903 = CARTESIAN_POINT ( 'NONE',  ( 17.75393573227429656, -88.15235955056181183, 20.00000000000000000 ) ) ;
#904 = AXIS2_PLACEMENT_3D ( 'NONE', #470, #158, #1 ) ;
#905 = EDGE_CURVE ( 'NONE', #55, #665, #446, .T. ) ;
#906 = ADVANCED_FACE ( 'NONE', ( #684 ), #296, .F. ) ;
#907 = ORIENTED_EDGE ( 'NONE', *, *, #508, .T. ) ;
#908 = DIRECTION ( 'NONE',  ( -1.000000000000000000, 0.000000000000000000, 0.000000000000000000 ) ) ;
#909 = ADVANCED_FACE ( 'NONE', ( #111 ), #659, .F. ) ;
#910 = EDGE_LOOP ( 'NONE', ( #163, #838, #685, #511 ) ) ;
#911 = CARTESIAN_POINT ( 'NONE',  ( -47.24606426772573542, -63.15235955056182604, 20.00000000000000000 ) ) ;
#912 = LINE ( 'NONE', #507, #313 ) ;
#913 = EDGE_LOOP ( 'NONE', ( #364, #85, #1000, #584, #338, #550, #579, #598 ) ) ;
#914 = CARTESIAN_POINT ( 'NONE',  ( -2.246064267725715435, 91.84764044943817396, 2.300000000000024247 ) ) ;
#915 = CARTESIAN_POINT ( 'NONE',  ( -26.24606426772573187, 121.8476404494381740, 25.00000000000000000 ) ) ;
#916 = FACE_OUTER_BOUND ( 'NONE', #650, .T. ) ;
#917 = VECTOR ( 'NONE', #677, 1000.000000000000000 ) ;
#918 = ORIENTED_EDGE ( 'NONE', *, *, #179, .T. ) ;
#919 = LINE ( 'NONE', #1023, #151 ) ;
#920 = VECTOR ( 'NONE', #305, 1000.000000000000000 ) ;
#921 = AXIS2_PLACEMENT_3D ( 'NONE', #615, #460, #1032 ) ;
#922 = VERTEX_POINT ( 'NONE', #850 ) ;
#923 = MANIFOLD_SOLID_BREP ( '\X2\0412044b044004350437\X0\-\X2\0412044b0442044f043d04430442044c\X0\4', #987 ) ;
#924 = CYLINDRICAL_SURFACE ( 'NONE', #831, 2.399999999999987033 ) ;
#925 = DIRECTION ( 'NONE',  ( 1.000000000000000000, 0.000000000000000000, -0.000000000000000000 ) ) ;
#926 = VERTEX_POINT ( 'NONE', #755 ) ;
#927 = DIRECTION ( 'NONE',  ( -9.865725929725919765E-17, 1.000000000000000000, 0.000000000000000000 ) ) ;
#928 = ORIENTED_EDGE ( 'NONE', *, *, #124, .T. ) ;
#929 = DIRECTION ( 'NONE',  ( 9.865725929725919765E-17, -1.000000000000000000, 0.000000000000000000 ) ) ;
#930 = DIRECTION ( 'NONE',  ( 0.000000000000000000, 1.000000000000000000, 0.000000000000000000 ) ) ;
#931 = ORIENTED_EDGE ( 'NONE', *, *, #880, .F. ) ;
#932 = CARTESIAN_POINT ( 'NONE',  ( -2.246064267725736308, -63.15235955056182604, 0.000000000000000000 ) ) ;
#933 = VERTEX_POINT ( 'NONE', #532 ) ;
#934 = DIRECTION ( 'NONE',  ( -1.610315182225156617E-17, 1.000000000000000000, 0.000000000000000000 ) ) ;
#935 = EDGE_CURVE ( 'NONE', #12, #491, #375, .T. ) ;
#936 = ORIENTED_EDGE ( 'NONE', *, *, #324, .F. ) ;
#937 = DIRECTION ( 'NONE',  ( -0.000000000000000000, -0.000000000000000000, -1.000000000000000000 ) ) ;
#938 = VECTOR ( 'NONE', #626, 1000.000000000000000 ) ;
#939 = ORIENTED_EDGE ( 'NONE', *, *, #797, .T. ) ;
#940 = CARTESIAN_POINT ( 'NONE',  ( -3.246064267725760288, -13.95289138068775081, 12.00000000000000000 ) ) ;
#941 = VECTOR ( 'NONE', #982, 1000.000000000000000 ) ;
#942 = EDGE_CURVE ( 'NONE', #51, #809, #289, .T. ) ;
#943 = DIRECTION ( 'NONE',  ( 1.000000000000000000, 0.000000000000000000, 0.000000000000000000 ) ) ;
#944 = EDGE_LOOP ( 'NONE', ( #165, #840 ) ) ;
#945 = SURFACE_STYLE_USAGE ( .BOTH. , #207 ) ;
#946 = ORIENTED_EDGE ( 'NONE', *, *, #935, .T. ) ;
#947 = DIRECTION ( 'NONE',  ( 1.000000000000000000, 0.000000000000000000, 0.000000000000000000 ) ) ;
#948 = DIRECTION ( 'NONE',  ( -1.000000000000000000, 0.000000000000000000, 0.000000000000000000 ) ) ;
#949 = ORIENTED_EDGE ( 'NONE', *, *, #417, .F. ) ;
#950 = DIRECTION ( 'NONE',  ( 1.000000000000000000, 0.000000000000000000, 0.000000000000000000 ) ) ;
#951 = PLANE ( 'NONE',  #695 ) ;
#952 = EDGE_CURVE ( 'NONE', #954, #517, #567, .T. ) ;
#953 = DIRECTION ( 'NONE',  ( -0.7071067811865469066, 0.000000000000000000, -0.7071067811865482389 ) ) ;
#954 = VERTEX_POINT ( 'NONE', #860 ) ;
#955 = APPLICATION_CONTEXT ( 'automotive_design' ) ;
#956 = CARTESIAN_POINT ( 'NONE',  ( -3.246064267725760288, 28.64817227956413959, 12.00000000000000000 ) ) ;
#957 = CIRCLE ( 'NONE', #39, 4.699999999999999289 ) ;
#958 = VECTOR ( 'NONE', #558, 1000.000000000000000 ) ;
#959 = AXIS2_PLACEMENT_3D ( 'NONE', #137, #539, #841 ) ;
#960 = EDGE_CURVE ( 'NONE', #575, #531, #919, .T. ) ;
#961 = CARTESIAN_POINT ( 'NONE',  ( -2.246064267725715435, 91.84764044943817396, -1.734723475976807883E-15 ) ) ;
#962 = AXIS2_PLACEMENT_3D ( 'NONE', #146, #392, #950 ) ;
#963 = CARTESIAN_POINT ( 'NONE',  ( 22.75393573227426458, 119.8476404494381740, 25.00000000000000000 ) ) ;
#964 = FACE_BOUND ( 'NONE', #358, .T. ) ;
#965 = ADVANCED_FACE ( 'NONE', ( #437, #357 ), #454, .T. ) ;
#966 = LINE ( 'NONE', #474, #479 ) ;
#967 =( NAMED_UNIT ( * ) SI_UNIT ( $, .STERADIAN. ) SOLID_ANGLE_UNIT ( ) );
#968 = ORIENTED_EDGE ( 'NONE', *, *, #498, .F. ) ;
#969 = CARTESIAN_POINT ( 'NONE',  ( -4.646064267725723340, -63.15235955056182604, 20.00000000000000000 ) ) ;
#970 = EDGE_CURVE ( 'NONE', #733, #811, #441, .T. ) ;
#971 = LINE ( 'NONE', #245, #694 ) ;
#972 = VERTEX_POINT ( 'NONE', #41 ) ;
#973 = CARTESIAN_POINT ( 'NONE',  ( 17.75393573227429300, 121.8476404494381171, 20.00000000000000000 ) ) ;
#974 = AXIS2_PLACEMENT_3D ( 'NONE', #341, #402, #735 ) ;
#975 = DIRECTION ( 'NONE',  ( -0.000000000000000000, -0.000000000000000000, 1.000000000000000000 ) ) ;
#976 = VECTOR ( 'NONE', #408, 1000.000000000000000 ) ;
#977 = AXIS2_PLACEMENT_3D ( 'NONE', #403, #60, #482 ) ;
#978 = ORIENTED_EDGE ( 'NONE', *, *, #682, .F. ) ;
#979 = DIRECTION ( 'NONE',  ( 1.000000000000000000, 0.000000000000000000, 0.000000000000000000 ) ) ;
#980 = EDGE_CURVE ( 'NONE', #391, #197, #109, .T. ) ;
#981 = EDGE_LOOP ( 'NONE', ( #843, #670, #715, #859, #764, #807, #519, #524, #65, #804, #279, #737 ) ) ;
#982 = DIRECTION ( 'NONE',  ( -1.000000000000000000, 7.885106708985491499E-17, 0.000000000000000000 ) ) ;
#983 = ORIENTED_EDGE ( 'NONE', *, *, #682, .T. ) ;
#984 = EDGE_LOOP ( 'NONE', ( #896, #356, #689, #747 ) ) ;
#985 = DIRECTION ( 'NONE',  ( 1.000000000000000000, 0.000000000000000000, -0.000000000000000000 ) ) ;
#986 = EDGE_CURVE ( 'NONE', #593, #134, #1012, .T. ) ;
#987 = CLOSED_SHELL ( 'NONE', ( #522, #909, #370, #858, #557, #16, #1019, #394, #422, #906, #502, #1009, #352, #1041, #129, #756, #1033, #603, #190, #609, #714, #20, #463, #340, #658, #102, #965, #988, #410, #490, #342, #481, #652 ) ) ;
#988 = ADVANCED_FACE ( 'NONE', ( #748 ), #280, .F. ) ;
#989 = ORIENTED_EDGE ( 'NONE', *, *, #664, .F. ) ;
#990 = LINE ( 'NONE', #826, #63 ) ;
#991 = VECTOR ( 'NONE', #839, 1000.000000000000000 ) ;
#992 = DIRECTION ( 'NONE',  ( -1.000000000000000000, 0.000000000000000000, 0.000000000000000000 ) ) ;
#993 = EDGE_CURVE ( 'NONE', #617, #122, #786, .T. ) ;
#994 = ORIENTED_EDGE ( 'NONE', *, *, #952, .F. ) ;
#995 = LINE ( 'NONE', #573, #345 ) ;
#996 = VERTEX_POINT ( 'NONE', #795 ) ;
#997 = PLANE ( 'NONE',  #42 ) ;
#998 = VERTEX_POINT ( 'NONE', #1040 ) ;
#999 = DIRECTION ( 'NONE',  ( 0.000000000000000000, 0.000000000000000000, 1.000000000000000000 ) ) ;
#1000 = ORIENTED_EDGE ( 'NONE', *, *, #824, .F. ) ;
#1001 = LINE ( 'NONE', #940, #167 ) ;
#1002 = DIRECTION ( 'NONE',  ( 0.000000000000000000, -1.000000000000000000, -0.000000000000000000 ) ) ;
#1003 = AXIS2_PLACEMENT_3D ( 'NONE', #199, #1002, #423 ) ;
#1004 = VERTEX_POINT ( 'NONE', #777 ) ;
#1005 = DIRECTION ( 'NONE',  ( 0.000000000000000000, -1.000000000000000000, 0.000000000000000000 ) ) ;
#1006 = VECTOR ( 'NONE', #857, 1000.000000000000000 ) ;
#1007 = EDGE_LOOP ( 'NONE', ( #148, #994, #436, #67 ) ) ;
#1008 = DIRECTION ( 'NONE',  ( 1.000000000000000000, 0.000000000000000000, 0.000000000000000000 ) ) ;
#1009 = ADVANCED_FACE ( 'NONE', ( #75 ), #554, .F. ) ;
#1010 = FACE_OUTER_BOUND ( 'NONE', #281, .T. ) ;
#1011 = EDGE_LOOP ( 'NONE', ( #180, #110, #853, #87 ) ) ;
#1012 = LINE ( 'NONE', #599, #991 ) ;
#1013 = VERTEX_POINT ( 'NONE', #312 ) ;
#1014 = CARTESIAN_POINT ( 'NONE',  ( -52.24606426772573542, 119.8476404494381597, 25.00000000000000000 ) ) ;
#1015 = DIRECTION ( 'NONE',  ( 0.000000000000000000, -1.000000000000000000, 0.000000000000000000 ) ) ;
#1016 = VERTEX_POINT ( 'NONE', #886 ) ;
#1017 = ORIENTED_EDGE ( 'NONE', *, *, #704, .T. ) ;
#1018 = DIRECTION ( 'NONE',  ( -0.000000000000000000, -0.000000000000000000, 1.000000000000000000 ) ) ;
#1019 = ADVANCED_FACE ( 'NONE', ( #66 ), #235, .T. ) ;
#1020 = EDGE_CURVE ( 'NONE', #996, #117, #543, .T. ) ;
#1021 = CARTESIAN_POINT ( 'NONE',  ( -50.24606426772569279, -93.15235955056182604, 0.000000000000000000 ) ) ;
#1022 = VERTEX_POINT ( 'NONE', #879 ) ;
#1023 = CARTESIAN_POINT ( 'NONE',  ( -3.246064267725760288, -13.95289138068775081, 20.00000000000000000 ) ) ;
#1024 = VECTOR ( 'NONE', #350, 1000.000000000000000 ) ;
#1025 = ORIENTED_EDGE ( 'NONE', *, *, #221, .T. ) ;
#1026 = DIRECTION ( 'NONE',  ( -1.000000000000000000, 0.000000000000000000, 0.000000000000000000 ) ) ;
#1027 = VECTOR ( 'NONE', #1005, 1000.000000000000000 ) ;
#1028 = DIRECTION ( 'NONE',  ( 0.000000000000000000, 0.000000000000000000, 1.000000000000000000 ) ) ;
#1029 = CARTESIAN_POINT ( 'NONE',  ( -47.24606426772573542, -63.15235955056182604, 20.00000000000000000 ) ) ;
#1030 = DIRECTION ( 'NONE',  ( -0.000000000000000000, -0.000000000000000000, -1.000000000000000000 ) ) ;
#1031 = ORIENTED_EDGE ( 'NONE', *, *, #867, .T. ) ;
#1032 = DIRECTION ( 'NONE',  ( 0.000000000000000000, -0.000000000000000000, -1.000000000000000000 ) ) ;
#1033 = ADVANCED_FACE ( 'NONE', ( #802 ), #81, .F. ) ;
#1034 = DIRECTION ( 'NONE',  ( -0.000000000000000000, -0.000000000000000000, -1.000000000000000000 ) ) ;
#1035 = ORIENTED_EDGE ( 'NONE', *, *, #26, .T. ) ;
#1036 = ORIENTED_EDGE ( 'NONE', *, *, #346, .F. ) ;
#1037 = DIRECTION ( 'NONE',  ( -1.000000000000000000, 0.000000000000000000, 0.000000000000000000 ) ) ;
#1038 = DIRECTION ( 'NONE',  ( -1.000000000000000000, 0.000000000000000000, 0.000000000000000000 ) ) ;
#1039 = ORIENTED_EDGE ( 'NONE', *, *, #153, .T. ) ;
#1040 = CARTESIAN_POINT ( 'NONE',  ( -12.24606426772574963, 7.347640449438194388, 12.00000000000000000 ) ) ;
#1041 = ADVANCED_FACE ( 'NONE', ( #475 ), #388, .F. ) ;
#1042 = EDGE_LOOP ( 'NONE', ( #931, #936, #572, #112 ) ) ;
#1043 = DIRECTION ( 'NONE',  ( -1.000000000000000000, 0.000000000000000000, -0.000000000000000000 ) ) ;
#1044 = AXIS2_PLACEMENT_3D ( 'NONE', #1029, #621, #157 ) ;
#1045 = AXIS2_PLACEMENT_3D ( 'NONE', #69, #530, #943 ) ;
#1046 = CARTESIAN_POINT ( 'NONE',  ( -26.24606426772573187, 91.84764044943815975, 20.00000000000000000 ) ) ;
#1047 = FACE_OUTER_BOUND ( 'NONE', #333, .T. ) ;
#1048 = DIRECTION ( 'NONE',  ( -0.000000000000000000, -0.000000000000000000, -1.000000000000000000 ) ) ;
#1049 = LINE ( 'NONE', #83, #344 ) ;
#1050 = PRODUCT_RELATED_PRODUCT_CATEGORY ( 'part', '', ( #535 ) ) ;
#1051 = CARTESIAN_POINT ( 'NONE',  ( -50.24606426772572831, 119.8476404494381740, 25.00000000000000000 ) ) ;
ENDSEC;
END-ISO-10303-21;
