ISO-10303-21;
HEADER;
FILE_DESCRIPTION (( 'STEP AP203' ),
    '1' );
FILE_NAME ('õ1.STEP',
    '2026-01-18T20:48:58',
    ( '' ),
    ( '' ),
    'SwSTEP 2.0',
    'SolidWorks 2024',
    '' );
FILE_SCHEMA (( 'CONFIG_CONTROL_DESIGN' ));
ENDSEC;

DATA;
#1 = LINE ( 'NONE', #989, #457 ) ;
#2 = AXIS2_PLACEMENT_3D ( 'NONE', #588, #212, #492 ) ;
#3 = CARTESIAN_POINT ( 'NONE',  ( -111.0593793656032631, 10.00000000000000000, 57.65837776191830955 ) ) ;
#4 = EDGE_LOOP ( 'NONE', ( #50, #369, #375, #414 ) ) ;
#5 = CARTESIAN_POINT ( 'NONE',  ( -28.85285297260059423, 0.000000000000000000, -2.341622238081685126 ) ) ;
#6 = DIRECTION ( 'NONE',  ( 0.000000000000000000, -0.000000000000000000, 1.000000000000000000 ) ) ;
#7 = LINE ( 'NONE', #1081, #663 ) ;
#8 = EDGE_CURVE ( 'NONE', #1056, #495, #1024, .T. ) ;
#9 = ORIENTED_EDGE ( 'NONE', *, *, #77, .F. ) ;
#10 = PLANE ( 'NONE',  #928 ) ;
#11 = DIRECTION ( 'NONE',  ( 0.000000000000000000, 0.000000000000000000, -1.000000000000000000 ) ) ;
#12 = CARTESIAN_POINT ( 'NONE',  ( -11.99289496014687195, 0.000000000000000000, -8.960339099444883715 ) ) ;
#13 = ORIENTED_EDGE ( 'NONE', *, *, #384, .F. ) ;
#14 = FACE_OUTER_BOUND ( 'NONE', #81, .T. ) ;
#15 = AXIS2_PLACEMENT_3D ( 'NONE', #643, #738, #1071 ) ;
#16 = DIRECTION ( 'NONE',  ( -0.000000000000000000, 1.000000000000000000, -0.000000000000000000 ) ) ;
#17 = CIRCLE ( 'NONE', #686, 4.699999999999995737 ) ;
#18 = DIRECTION ( 'NONE',  ( -0.000000000000000000, -1.000000000000000000, -0.000000000000000000 ) ) ;
#19 = VECTOR ( 'NONE', #846, 1000.000000000000000 ) ;
#20 = VECTOR ( 'NONE', #617, 1000.000000000000000 ) ;
#21 = ORIENTED_EDGE ( 'NONE', *, *, #796, .F. ) ;
#22 = LINE ( 'NONE', #31, #1067 ) ;
#23 = CARTESIAN_POINT ( 'NONE',  ( -83.05937936560327728, 10.00000000000000178, 27.65837776191835928 ) ) ;
#24 = CARTESIAN_POINT ( 'NONE',  ( 188.9406206343967085, 10.00000000000000000, -0.3416222380816843485 ) ) ;
#25 = VERTEX_POINT ( 'NONE', #293 ) ;
#26 = DIRECTION ( 'NONE',  ( -0.000000000000000000, 1.000000000000000000, -0.000000000000000000 ) ) ;
#27 = DIRECTION ( 'NONE',  ( -1.000000000000000000, -0.000000000000000000, -0.000000000000000000 ) ) ;
#28 = ADVANCED_FACE ( 'NONE', ( #558, #656, #368, #635 ), #986, .F. ) ;
#29 = DIRECTION ( 'NONE',  ( 0.000000000000000000, 0.000000000000000000, 1.000000000000000000 ) ) ;
#30 = ORIENTED_EDGE ( 'NONE', *, *, #636, .T. ) ;
#31 = CARTESIAN_POINT ( 'NONE',  ( -83.05937936560327728, 10.00000000000000000, 30.05837776191835076 ) ) ;
#32 = PLANE ( 'NONE',  #890 ) ;
#33 = EDGE_CURVE ( 'NONE', #824, #435, #734, .T. ) ;
#34 = DIRECTION ( 'NONE',  ( -0.000000000000000000, 1.000000000000000000, -0.000000000000000000 ) ) ;
#35 = CIRCLE ( 'NONE', #520, 4.699999999999995737 ) ;
#36 = ORIENTED_EDGE ( 'NONE', *, *, #292, .T. ) ;
#37 = LINE ( 'NONE', #295, #650 ) ;
#38 = VECTOR ( 'NONE', #164, 1000.000000000000000 ) ;
#39 = CARTESIAN_POINT ( 'NONE',  ( -83.05937936560327728, 10.00000000000000000, 27.65837776191835928 ) ) ;
#40 = EDGE_CURVE ( 'NONE', #1118, #599, #922, .T. ) ;
#41 = CARTESIAN_POINT ( 'NONE',  ( 128.8571050398529678, 2.000000000000000000, -8.401768755544246403 ) ) ;
#42 = EDGE_CURVE ( 'NONE', #25, #952, #921, .T. ) ;
#43 = ORIENTED_EDGE ( 'NONE', *, *, #393, .T. ) ;
#44 = VERTEX_POINT ( 'NONE', #990 ) ;
#45 = DIRECTION ( 'NONE',  ( 0.000000000000000000, 0.000000000000000000, -1.000000000000000000 ) ) ;
#46 = FACE_OUTER_BOUND ( 'NONE', #544, .T. ) ;
#47 = ORIENTED_EDGE ( 'NONE', *, *, #377, .F. ) ;
#48 = COORDINATED_UNIVERSAL_TIME_OFFSET ( 3, 0, .AHEAD. ) ;
#49 = ADVANCED_FACE ( 'NONE', ( #452 ), #466, .F. ) ;
#50 = ORIENTED_EDGE ( 'NONE', *, *, #701, .F. ) ;
#51 = CARTESIAN_POINT ( 'NONE',  ( 158.9406206343967085, 10.00000000000000000, 27.65837776191831310 ) ) ;
#52 = CARTESIAN_POINT ( 'NONE',  ( -28.85285297260059423, 10.00000000000000000, -2.341622238081685126 ) ) ;
#53 = VECTOR ( 'NONE', #213, 1000.000000000000000 ) ;
#54 = EDGE_LOOP ( 'NONE', ( #118, #760, #406, #449 ) ) ;
#55 = COORDINATED_UNIVERSAL_TIME_OFFSET ( 3, 0, .AHEAD. ) ;
#56 = VECTOR ( 'NONE', #506, 1000.000000000000000 ) ;
#57 = ORIENTED_EDGE ( 'NONE', *, *, #507, .F. ) ;
#58 = DIRECTION ( 'NONE',  ( -0.000000000000000000, -1.000000000000000000, -0.000000000000000000 ) ) ;
#59 = CARTESIAN_POINT ( 'NONE',  ( -83.05937936560327728, 10.00000000000000178, 32.35837776191835502 ) ) ;
#60 = VECTOR ( 'NONE', #1017, 1000.000000000000000 ) ;
#61 = APPLICATION_CONTEXT ( 'configuration controlled 3d designs of mechanical parts and assemblies' ) ;
#62 = VERTEX_POINT ( 'NONE', #997 ) ;
#63 = PERSON_AND_ORGANIZATION ( #197, #612 ) ;
#64 = ORIENTED_EDGE ( 'NONE', *, *, #1108, .F. ) ;
#65 = LINE ( 'NONE', #877, #831 ) ;
#66 = DIRECTION ( 'NONE',  ( -0.000000000000000000, -0.000000000000000000, -1.000000000000000000 ) ) ;
#67 = ADVANCED_FACE ( 'NONE', ( #194 ), #629, .F. ) ;
#68 = PERSON_AND_ORGANIZATION ( #197, #612 ) ;
#69 = EDGE_LOOP ( 'NONE', ( #810, #936, #818, #121 ) ) ;
#70 = DIRECTION ( 'NONE',  ( -0.000000000000000000, -1.000000000000000000, -0.000000000000000000 ) ) ;
#71 = DIRECTION ( 'NONE',  ( -0.000000000000000000, 1.000000000000000000, -0.000000000000000000 ) ) ;
#72 = CC_DESIGN_PERSON_AND_ORGANIZATION_ASSIGNMENT ( #946, #344, ( #955 ) ) ;
#73 = VECTOR ( 'NONE', #236, 1000.000000000000227 ) ;
#74 = VERTEX_POINT ( 'NONE', #729 ) ;
#75 = CARTESIAN_POINT ( 'NONE',  ( 37.94062063439672272, 7.699999999999997513, -4.741622238081685481 ) ) ;
#76 = DIRECTION ( 'NONE',  ( 0.000000000000000000, 1.000000000000000000, -0.000000000000000000 ) ) ;
#77 = EDGE_CURVE ( 'NONE', #62, #1144, #548, .T. ) ;
#78 = VECTOR ( 'NONE', #993, 1000.000000000000114 ) ;
#79 = CC_DESIGN_SECURITY_CLASSIFICATION ( #350, ( #230 ) ) ;
#80 = EDGE_CURVE ( 'NONE', #263, #490, #357, .T. ) ;
#81 = EDGE_LOOP ( 'NONE', ( #704, #653, #280, #687 ) ) ;
#82 = LINE ( 'NONE', #275, #78 ) ;
#83 = DIRECTION ( 'NONE',  ( 0.000000000000000000, 0.000000000000000000, 1.000000000000000000 ) ) ;
#84 = EDGE_LOOP ( 'NONE', ( #555, #767, #232, #638 ) ) ;
#85 = VERTEX_POINT ( 'NONE', #723 ) ;
#86 = CYLINDRICAL_SURFACE ( 'NONE', #994, 2.399999999999999467 ) ;
#87 = FACE_BOUND ( 'NONE', #793, .T. ) ;
#88 = LINE ( 'NONE', #3, #606 ) ;
#89 = EDGE_CURVE ( 'NONE', #918, #1100, #1066, .T. ) ;
#90 = VERTEX_POINT ( 'NONE', #12 ) ;
#91 = DIRECTION ( 'NONE',  ( -0.000000000000000000, 1.000000000000000000, -0.000000000000000000 ) ) ;
#92 = EDGE_CURVE ( 'NONE', #427, #1137, #188, .T. ) ;
#93 = CARTESIAN_POINT ( 'NONE',  ( -11.99289496014687195, 2.000000000000000000, 1.866939305214279754 ) ) ;
#94 = AXIS2_PLACEMENT_3D ( 'NONE', #222, #124, #673 ) ;
#95 = EDGE_CURVE ( 'NONE', #1118, #824, #7, .T. ) ;
#96 = CARTESIAN_POINT ( 'NONE',  ( 37.94062063439672272, 10.00000000000000000, 0.05837776191831324513 ) ) ;
#97 = AXIS2_PLACEMENT_3D ( 'NONE', #99, #1074, #365 ) ;
#98 = ORIENTED_EDGE ( 'NONE', *, *, #590, .F. ) ;
#99 = CARTESIAN_POINT ( 'NONE',  ( 186.9406206343967085, 10.00000000000000000, -0.3416222380816843485 ) ) ;
#100 = FACE_OUTER_BOUND ( 'NONE', #1133, .T. ) ;
#101 = CARTESIAN_POINT ( 'NONE',  ( -108.0593793656032631, 2.000000000000000000, 1.866939305214279754 ) ) ;
#102 = ORIENTED_EDGE ( 'NONE', *, *, #346, .F. ) ;
#103 = DIRECTION ( 'NONE',  ( 0.000000000000000000, 1.000000000000000000, -0.000000000000000000 ) ) ;
#104 = LINE ( 'NONE', #641, #482 ) ;
#105 = DIRECTION ( 'NONE',  ( -0.9999921366623012453, 0.000000000000000000, -0.003965679458220946162 ) ) ;
#106 = EDGE_CURVE ( 'NONE', #952, #1148, #88, .T. ) ;
#107 = ORIENTED_EDGE ( 'NONE', *, *, #116, .F. ) ;
#108 = CARTESIAN_POINT ( 'NONE',  ( 183.7201862726277000, 2.000000000000000000, 53.81741376451762449 ) ) ;
#109 = AXIS2_PLACEMENT_3D ( 'NONE', #363, #564, #201 ) ;
#110 = CARTESIAN_POINT ( 'NONE',  ( 128.8571050398529678, 2.000000000000000000, -8.401768755544246403 ) ) ;
#111 = AXIS2_PLACEMENT_3D ( 'NONE', #621, #256, #618 ) ;
#112 = CARTESIAN_POINT ( 'NONE',  ( 183.7201862726277000, 2.000000000000000000, 53.81741376451762449 ) ) ;
#113 = EDGE_LOOP ( 'NONE', ( #448, #801 ) ) ;
#114 = DIRECTION ( 'NONE',  ( -0.003965679458220948764, 0.000000000000000000, 0.9999921366623013563 ) ) ;
#115 = VECTOR ( 'NONE', #1084, 1000.000000000000114 ) ;
#116 = EDGE_CURVE ( 'NONE', #679, #308, #721, .T. ) ;
#117 = CC_DESIGN_APPROVAL ( #499, ( #230 ) ) ;
#118 = ORIENTED_EDGE ( 'NONE', *, *, #292, .F. ) ;
#119 = CARTESIAN_POINT ( 'NONE',  ( 188.9406206343967085, 0.000000000000000000, 55.65837776191827402 ) ) ;
#120 = DIRECTION ( 'NONE',  ( 0.000000000000000000, 0.000000000000000000, 1.000000000000000000 ) ) ;
#121 = ORIENTED_EDGE ( 'NONE', *, *, #996, .T. ) ;
#122 = ADVANCED_FACE ( 'NONE', ( #745 ), #813, .F. ) ;
#123 = DIRECTION ( 'NONE',  ( 0.000000000000000000, 0.000000000000000000, -1.000000000000000000 ) ) ;
#124 = DIRECTION ( 'NONE',  ( -0.000000000000000000, 1.000000000000000000, -0.000000000000000000 ) ) ;
#125 = DIRECTION ( 'NONE',  ( -0.000000000000000000, 1.000000000000000000, -0.000000000000000000 ) ) ;
#126 = VERTEX_POINT ( 'NONE', #581 ) ;
#127 = CARTESIAN_POINT ( 'NONE',  ( 183.7201862726277000, 2.000000000000000000, 53.81741376451762449 ) ) ;
#128 = ORIENTED_EDGE ( 'NONE', *, *, #730, .T. ) ;
#129 = CARTESIAN_POINT ( 'NONE',  ( -28.85285297260059423, 10.00000000000000000, -27.34162223808168690 ) ) ;
#130 = EDGE_CURVE ( 'NONE', #408, #757, #1031, .T. ) ;
#131 = LINE ( 'NONE', #501, #1079 ) ;
#132 = ADVANCED_FACE ( 'NONE', ( #576 ), #219, .F. ) ;
#133 = AXIS2_PLACEMENT_3D ( 'NONE', #266, #187, #83 ) ;
#134 = ORIENTED_EDGE ( 'NONE', *, *, #1028, .T. ) ;
#135 = CARTESIAN_POINT ( 'NONE',  ( 142.1471470273994271, 10.00000000000000000, -2.341622238081684237 ) ) ;
#136 = ORIENTED_EDGE ( 'NONE', *, *, #155, .T. ) ;
#137 = DIRECTION ( 'NONE',  ( 1.000000000000000000, 0.000000000000000000, 0.000000000000000000 ) ) ;
#138 = CARTESIAN_POINT ( 'NONE',  ( -28.85285297260059423, 10.00000000000000000, -2.341622238081685126 ) ) ;
#139 = LOCAL_TIME ( 23, 48, 58.00000000000000000, #600 ) ;
#140 = ORIENTED_EDGE ( 'NONE', *, *, #180, .F. ) ;
#141 = DATE_AND_TIME ( #697, #249 ) ;
#142 = ORIENTED_EDGE ( 'NONE', *, *, #253, .F. ) ;
#143 = DIRECTION ( 'NONE',  ( -0.000000000000000000, -0.000000000000000000, 1.000000000000000000 ) ) ;
#144 = DIRECTION ( 'NONE',  ( 1.000000000000000000, -0.000000000000000000, 0.000000000000000000 ) ) ;
#145 = ADVANCED_FACE ( 'NONE', ( #755 ), #261, .F. ) ;
#146 = EDGE_CURVE ( 'NONE', #832, #573, #939, .T. ) ;
#147 = ORIENTED_EDGE ( 'NONE', *, *, #431, .T. ) ;
#148 = ORIENTED_EDGE ( 'NONE', *, *, #728, .T. ) ;
#149 = CARTESIAN_POINT ( 'NONE',  ( -111.0593793656032489, 10.00000000000000000, -2.341622238081685126 ) ) ;
#150 = DIRECTION ( 'NONE',  ( 0.000000000000000000, 0.000000000000000000, 1.000000000000000000 ) ) ;
#151 = VERTEX_POINT ( 'NONE', #1008 ) ;
#152 = APPLICATION_PROTOCOL_DEFINITION ( 'international standard', 'config_control_design', 1994, #61 ) ;
#153 = ORIENTED_EDGE ( 'NONE', *, *, #991, .F. ) ;
#154 = CARTESIAN_POINT ( 'NONE',  ( 186.9406206343967085, 0.000000000000000000, 57.65837776191827402 ) ) ;
#155 = EDGE_CURVE ( 'NONE', #1038, #273, #674, .T. ) ;
#156 = CARTESIAN_POINT ( 'NONE',  ( -83.05937936560327728, 10.00000000000000000, 25.25837776191836781 ) ) ;
#157 = AXIS2_PLACEMENT_3D ( 'NONE', #941, #748, #123 ) ;
#158 = EDGE_LOOP ( 'NONE', ( #134, #838, #153, #421 ) ) ;
#159 = DIRECTION ( 'NONE',  ( 0.9999921366623012453, 0.000000000000000000, 0.003965679458220947896 ) ) ;
#160 = ORIENTED_EDGE ( 'NONE', *, *, #546, .T. ) ;
#161 = DIRECTION ( 'NONE',  ( 1.000000000000000000, -0.000000000000000000, -1.164243943608595688E-16 ) ) ;
#162 = CYLINDRICAL_SURFACE ( 'NONE', #454, 2.000000000000001776 ) ;
#163 = ORIENTED_EDGE ( 'NONE', *, *, #260, .F. ) ;
#164 = DIRECTION ( 'NONE',  ( 0.000000000000000000, 0.000000000000000000, 1.000000000000000000 ) ) ;
#165 = DIRECTION ( 'NONE',  ( -0.000000000000000000, -1.000000000000000000, -0.000000000000000000 ) ) ;
#166 = CIRCLE ( 'NONE', #661, 2.399999999999985256 ) ;
#167 = EDGE_CURVE ( 'NONE', #300, #502, #131, .T. ) ;
#168 = AXIS2_PLACEMENT_3D ( 'NONE', #489, #842, #782 ) ;
#169 = CIRCLE ( 'NONE', #111, 2.000000000000001776 ) ;
#170 = EDGE_LOOP ( 'NONE', ( #423, #992, #441, #257 ) ) ;
#171 = CARTESIAN_POINT ( 'NONE',  ( -11.99289496014687195, 2.000000000000000000, 1.866939305214279754 ) ) ;
#172 = AXIS2_PLACEMENT_3D ( 'NONE', #39, #404, #769 ) ;
#173 = CIRCLE ( 'NONE', #324, 4.700000000000013500 ) ;
#174 = CARTESIAN_POINT ( 'NONE',  ( -113.0593793656032773, 10.00000000000000000, 55.65837776191829533 ) ) ;
#175 =( GEOMETRIC_REPRESENTATION_CONTEXT ( 3 ) GLOBAL_UNCERTAINTY_ASSIGNED_CONTEXT ( ( #298 ) ) GLOBAL_UNIT_ASSIGNED_CONTEXT ( ( #969, #226, #233 ) ) REPRESENTATION_CONTEXT ( 'NONE', 'WORKASPACE' ) );
#176 = ORIENTED_EDGE ( 'NONE', *, *, #773, .T. ) ;
#177 = DIRECTION ( 'NONE',  ( -0.000000000000000000, -0.000000000000000000, 1.000000000000000000 ) ) ;
#178 = CARTESIAN_POINT ( 'NONE',  ( 128.8571050398529678, 2.000000000000000000, -8.401768755544246403 ) ) ;
#179 = CARTESIAN_POINT ( 'NONE',  ( 158.9406206343967085, 10.00000000000000000, 25.25837776191832873 ) ) ;
#180 = EDGE_CURVE ( 'NONE', #485, #568, #949, .T. ) ;
#181 = ORIENTED_EDGE ( 'NONE', *, *, #89, .T. ) ;
#182 = CARTESIAN_POINT ( 'NONE',  ( -83.05937936560327728, 10.00000000000000178, 32.35837776191835502 ) ) ;
#183 = CARTESIAN_POINT ( 'NONE',  ( -113.0593793656032773, 0.000000000000000000, -0.3416222380816706372 ) ) ;
#184 = DIRECTION ( 'NONE',  ( 0.000000000000000000, -1.000000000000000000, 0.000000000000000000 ) ) ;
#185 = ORIENTED_EDGE ( 'NONE', *, *, #8, .T. ) ;
#186 = CARTESIAN_POINT ( 'NONE',  ( -11.99289496014687195, 2.000000000000000000, -8.960339099444883715 ) ) ;
#187 = DIRECTION ( 'NONE',  ( -0.000000000000000000, 1.000000000000000000, -0.000000000000000000 ) ) ;
#188 = LINE ( 'NONE', #179, #1116 ) ;
#189 = CIRCLE ( 'NONE', #248, 2.399999999999999467 ) ;
#190 = ORIENTED_EDGE ( 'NONE', *, *, #313, .T. ) ;
#191 = CC_DESIGN_APPROVAL ( #367, ( #350 ) ) ;
#192 = FACE_OUTER_BOUND ( 'NONE', #396, .T. ) ;
#193 = CYLINDRICAL_SURFACE ( 'NONE', #961, 2.000000000000001776 ) ;
#194 = FACE_OUTER_BOUND ( 'NONE', #351, .T. ) ;
#195 = ORIENTED_EDGE ( 'NONE', *, *, #465, .T. ) ;
#196 = CARTESIAN_POINT ( 'NONE',  ( 158.9406206343967085, 7.700000000000003730, 30.05837776191830102 ) ) ;
#197 = PERSON ( 'UNSPECIFIED', 'UNSPECIFIED', 'UNSPECIFIED', ('UNSPECIFIED'), ('UNSPECIFIED'), ('UNSPECIFIED') ) ;
#198 = VERTEX_POINT ( 'NONE', #386 ) ;
#199 = DIRECTION ( 'NONE',  ( 0.000000000000000000, 0.000000000000000000, -1.000000000000000000 ) ) ;
#200 = ADVANCED_FACE ( 'NONE', ( #750 ), #935, .F. ) ;
#201 = DIRECTION ( 'NONE',  ( 0.000000000000000000, 0.000000000000000000, 1.000000000000000000 ) ) ;
#202 = EDGE_CURVE ( 'NONE', #577, #198, #205, .T. ) ;
#203 = ORIENTED_EDGE ( 'NONE', *, *, #106, .T. ) ;
#204 = FACE_OUTER_BOUND ( 'NONE', #593, .T. ) ;
#205 = CIRCLE ( 'NONE', #885, 4.699999999999995737 ) ;
#206 = CARTESIAN_POINT ( 'NONE',  ( 186.9406206343967085, 0.000000000000000000, -0.3416222380816843485 ) ) ;
#207 = CARTESIAN_POINT ( 'NONE',  ( 37.94062063439672272, 2.000000000000000000, 0.05837776191831324513 ) ) ;
#208 = AXIS2_PLACEMENT_3D ( 'NONE', #314, #754, #199 ) ;
#209 = ORIENTED_EDGE ( 'NONE', *, *, #524, .T. ) ;
#210 = PLANE ( 'NONE',  #766 ) ;
#211 = VECTOR ( 'NONE', #912, 1000.000000000000114 ) ;
#212 = DIRECTION ( 'NONE',  ( -0.000000000000000000, 1.000000000000000000, -0.000000000000000000 ) ) ;
#213 = DIRECTION ( 'NONE',  ( -0.000000000000000000, -1.000000000000000000, -0.000000000000000000 ) ) ;
#214 = VERTEX_POINT ( 'NONE', #847 ) ;
#215 = DIRECTION ( 'NONE',  ( 1.000000000000000000, 0.000000000000000000, 0.000000000000000000 ) ) ;
#216 = ORIENTED_EDGE ( 'NONE', *, *, #373, .T. ) ;
#217 = CARTESIAN_POINT ( 'NONE',  ( 128.8571050398529678, 0.000000000000000000, -8.401768755544246403 ) ) ;
#218 = EDGE_CURVE ( 'NONE', #832, #245, #898, .T. ) ;
#219 = PLANE ( 'NONE',  #756 ) ;
#220 = ORIENTED_EDGE ( 'NONE', *, *, #384, .T. ) ;
#221 = DIRECTION ( 'NONE',  ( -0.000000000000000000, 1.000000000000000000, -0.000000000000000000 ) ) ;
#222 = CARTESIAN_POINT ( 'NONE',  ( -83.05937936560327728, 10.00000000000000178, 27.65837776191835928 ) ) ;
#223 = LINE ( 'NONE', #690, #582 ) ;
#224 = CONICAL_SURFACE ( 'NONE', #2, 4.699999999999995737, 0.7853981633974466137 ) ;
#225 = ORIENTED_EDGE ( 'NONE', *, *, #1063, .F. ) ;
#226 =( NAMED_UNIT ( * ) PLANE_ANGLE_UNIT ( ) SI_UNIT ( $, .RADIAN. ) );
#227 = ORIENTED_EDGE ( 'NONE', *, *, #764, .T. ) ;
#228 = VECTOR ( 'NONE', #768, 1000.000000000000000 ) ;
#229 = LINE ( 'NONE', #1134, #323 ) ;
#230 = PRODUCT_DEFINITION_FORMATION_WITH_SPECIFIED_SOURCE ( 'ANY', '', #955, .NOT_KNOWN. ) ;
#231 = CARTESIAN_POINT ( 'NONE',  ( 128.8571050398529678, 2.000000000000000000, 1.812803882113436904 ) ) ;
#232 = ORIENTED_EDGE ( 'NONE', *, *, #509, .F. ) ;
#233 =( NAMED_UNIT ( * ) SI_UNIT ( $, .STERADIAN. ) SOLID_ANGLE_UNIT ( ) );
#234 = ORIENTED_EDGE ( 'NONE', *, *, #146, .F. ) ;
#235 = CARTESIAN_POINT ( 'NONE',  ( -108.5442039581885325, 2.000000000000000000, 52.65837776191830955 ) ) ;
#236 = DIRECTION ( 'NONE',  ( -0.9999921366623012453, 0.000000000000000000, -0.003965679458220946162 ) ) ;
#237 = ORIENTED_EDGE ( 'NONE', *, *, #563, .T. ) ;
#238 = SECURITY_CLASSIFICATION_LEVEL ( 'unclassified' ) ;
#239 = ORIENTED_EDGE ( 'NONE', *, *, #709, .T. ) ;
#240 = DIRECTION ( 'NONE',  ( 0.000000000000000000, 0.000000000000000000, 1.000000000000000000 ) ) ;
#241 = PLANE ( 'NONE',  #477 ) ;
#242 = EDGE_LOOP ( 'NONE', ( #1109, #128, #429, #1025 ) ) ;
#243 = CARTESIAN_POINT ( 'NONE',  ( 0.000000000000000000, 0.000000000000000000, 0.000000000000000000 ) ) ;
#244 = AXIS2_PLACEMENT_3D ( 'NONE', #1070, #470, #6 ) ;
#245 = VERTEX_POINT ( 'NONE', #770 ) ;
#246 = CARTESIAN_POINT ( 'NONE',  ( 186.9406206343967085, 0.000000000000000000, 55.65837776191827402 ) ) ;
#247 = CARTESIAN_POINT ( 'NONE',  ( -108.0593793656032631, 0.000000000000000000, 1.866939305214279754 ) ) ;
#248 = AXIS2_PLACEMENT_3D ( 'NONE', #980, #639, #646 ) ;
#249 = LOCAL_TIME ( 23, 48, 58.00000000000000000, #413 ) ;
#250 = EDGE_CURVE ( 'NONE', #1093, #1137, #302, .T. ) ;
#251 = PERSON_AND_ORGANIZATION ( #197, #612 ) ;
#252 = ORIENTED_EDGE ( 'NONE', *, *, #796, .T. ) ;
#253 = EDGE_CURVE ( 'NONE', #487, #126, #315, .T. ) ;
#254 = CARTESIAN_POINT ( 'NONE',  ( -28.85285297260059423, 10.00000000000000000, -2.341622238081685126 ) ) ;
#255 = EDGE_CURVE ( 'NONE', #332, #1093, #223, .T. ) ;
#256 = DIRECTION ( 'NONE',  ( 0.000000000000000000, 1.000000000000000000, 0.000000000000000000 ) ) ;
#257 = ORIENTED_EDGE ( 'NONE', *, *, #493, .T. ) ;
#258 = DIRECTION ( 'NONE',  ( 0.000000000000000000, 0.000000000000000000, 1.000000000000000000 ) ) ;
#259 = CARTESIAN_POINT ( 'NONE',  ( 158.9406206343967085, 2.000000000000000000, 27.65837776191831310 ) ) ;
#260 = EDGE_CURVE ( 'NONE', #198, #577, #17, .T. ) ;
#261 = CONICAL_SURFACE ( 'NONE', #1006, 4.700000000000013500, 0.7853981633974539411 ) ;
#262 = SHAPE_DEFINITION_REPRESENTATION ( #1072, #1135 ) ;
#263 = VERTEX_POINT ( 'NONE', #207 ) ;
#264 = LINE ( 'NONE', #182, #763 ) ;
#265 = VECTOR ( 'NONE', #803, 1000.000000000000000 ) ;
#266 = CARTESIAN_POINT ( 'NONE',  ( 158.9406206343967085, 7.700000000000003730, 27.65837776191831310 ) ) ;
#267 = CC_DESIGN_PERSON_AND_ORGANIZATION_ASSIGNMENT ( #251, #615, ( #598 ) ) ;
#268 = CARTESIAN_POINT ( 'NONE',  ( 128.8571050398529678, 2.000000000000000000, 1.812803882113436904 ) ) ;
#269 = ADVANCED_FACE ( 'NONE', ( #46 ), #439, .F. ) ;
#270 = ORIENTED_EDGE ( 'NONE', *, *, #180, .T. ) ;
#271 = CARTESIAN_POINT ( 'NONE',  ( 188.9406206343967085, 10.00000000000000000, 55.65837776191827402 ) ) ;
#272 = DIRECTION ( 'NONE',  ( -0.000000000000000000, -0.000000000000000000, -1.000000000000000000 ) ) ;
#273 = VERTEX_POINT ( 'NONE', #322 ) ;
#274 = EDGE_LOOP ( 'NONE', ( #535, #140, #57, #216 ) ) ;
#275 = CARTESIAN_POINT ( 'NONE',  ( 128.8571050398529678, 0.000000000000000000, -8.401768755544246403 ) ) ;
#276 = LINE ( 'NONE', #720, #682 ) ;
#277 = ORIENTED_EDGE ( 'NONE', *, *, #586, .F. ) ;
#278 = AXIS2_PLACEMENT_3D ( 'NONE', #1122, #1146, #712 ) ;
#279 = AXIS2_PLACEMENT_3D ( 'NONE', #268, #1153, #915 ) ;
#280 = ORIENTED_EDGE ( 'NONE', *, *, #916, .T. ) ;
#281 = PLANE ( 'NONE',  #504 ) ;
#282 = AXIS2_PLACEMENT_3D ( 'NONE', #695, #1049, #804 ) ;
#283 = PLANE ( 'NONE',  #739 ) ;
#284 = DIRECTION ( 'NONE',  ( -0.000000000000000000, -1.000000000000000000, -0.000000000000000000 ) ) ;
#285 = AXIS2_PLACEMENT_3D ( 'NONE', #560, #1003, #569 ) ;
#286 = ADVANCED_FACE ( 'NONE', ( #571 ), #929, .F. ) ;
#287 = EDGE_LOOP ( 'NONE', ( #676, #595 ) ) ;
#288 = LOCAL_TIME ( 23, 48, 58.00000000000000000, #55 ) ;
#289 = DIRECTION ( 'NONE',  ( -0.9999544457831519573, 0.000000000000000000, -0.009544965086860099715 ) ) ;
#290 = ORIENTED_EDGE ( 'NONE', *, *, #1007, .F. ) ;
#291 = DIRECTION ( 'NONE',  ( 0.000000000000000000, 1.000000000000000000, 0.000000000000000000 ) ) ;
#292 = EDGE_CURVE ( 'NONE', #814, #577, #700, .T. ) ;
#293 = CARTESIAN_POINT ( 'NONE',  ( -113.0593793656032773, 10.00000000000000000, 55.65837776191829533 ) ) ;
#294 = EDGE_LOOP ( 'NONE', ( #1016, #963, #610, #227 ) ) ;
#295 = CARTESIAN_POINT ( 'NONE',  ( 186.9406206343967085, 10.00000000000000000, -2.341622238081685126 ) ) ;
#296 = DIRECTION ( 'NONE',  ( -1.000000000000000000, -0.000000000000000000, -0.000000000000000000 ) ) ;
#297 = DIRECTION ( 'NONE',  ( 0.000000000000000000, 0.000000000000000000, 1.000000000000000000 ) ) ;
#298 = UNCERTAINTY_MEASURE_WITH_UNIT (LENGTH_MEASURE( 1.000000000000000082E-05 ), #969, 'distance_accuracy_value', 'NONE');
#299 = AXIS2_PLACEMENT_3D ( 'NONE', #602, #76, #865 ) ;
#300 = VERTEX_POINT ( 'NONE', #614 ) ;
#301 = DIRECTION ( 'NONE',  ( 0.000000000000000000, 0.000000000000000000, 1.000000000000000000 ) ) ;
#302 = CIRCLE ( 'NONE', #956, 2.399999999999985256 ) ;
#303 = CARTESIAN_POINT ( 'NONE',  ( -108.0593793656032631, 0.000000000000000000, 1.866939305214279754 ) ) ;
#304 = EDGE_CURVE ( 'NONE', #573, #857, #1042, .T. ) ;
#305 = CARTESIAN_POINT ( 'NONE',  ( 128.8571050398529678, 2.000000000000000000, -8.401768755544246403 ) ) ;
#306 = ORIENTED_EDGE ( 'NONE', *, *, #624, .F. ) ;
#307 = CARTESIAN_POINT ( 'NONE',  ( 128.8571050398529678, 2.000000000000000000, 1.812803882113436904 ) ) ;
#308 = VERTEX_POINT ( 'NONE', #59 ) ;
#309 = CARTESIAN_POINT ( 'NONE',  ( 183.7201862726277000, 0.000000000000000000, 53.81741376451762449 ) ) ;
#310 = CARTESIAN_POINT ( 'NONE',  ( -83.05937936560327728, 10.00000000000000178, 27.65837776191835928 ) ) ;
#311 = ORIENTED_EDGE ( 'NONE', *, *, #507, .T. ) ;
#312 = CARTESIAN_POINT ( 'NONE',  ( 142.1471470273994271, 0.000000000000000000, -27.34162223808168690 ) ) ;
#313 = EDGE_CURVE ( 'NONE', #332, #427, #474, .T. ) ;
#314 = CARTESIAN_POINT ( 'NONE',  ( -111.0593793656032631, 0.000000000000000000, -0.3416222380816851811 ) ) ;
#315 = LINE ( 'NONE', #765, #706 ) ;
#316 = ORIENTED_EDGE ( 'NONE', *, *, #709, .F. ) ;
#317 = VERTEX_POINT ( 'NONE', #353 ) ;
#318 = ADVANCED_FACE ( 'NONE', ( #336 ), #241, .F. ) ;
#319 = FACE_OUTER_BOUND ( 'NONE', #873, .T. ) ;
#320 = AXIS2_PLACEMENT_3D ( 'NONE', #1001, #184, #910 ) ;
#321 = VECTOR ( 'NONE', #66, 1000.000000000000000 ) ;
#322 = CARTESIAN_POINT ( 'NONE',  ( 128.8571050398529678, 0.000000000000000000, 1.812803882113439569 ) ) ;
#323 = VECTOR ( 'NONE', #70, 1000.000000000000000 ) ;
#324 = AXIS2_PLACEMENT_3D ( 'NONE', #688, #967, #240 ) ;
#325 = ORIENTED_EDGE ( 'NONE', *, *, #304, .T. ) ;
#326 = PERSON_AND_ORGANIZATION ( #197, #612 ) ;
#327 = ADVANCED_FACE ( 'NONE', ( #1054 ), #162, .T. ) ;
#328 = ORIENTED_EDGE ( 'NONE', *, *, #146, .T. ) ;
#329 = DIRECTION ( 'NONE',  ( -1.000000000000000000, 0.000000000000000000, 1.164243943608595688E-16 ) ) ;
#330 = LOCAL_TIME ( 23, 48, 58.00000000000000000, #48 ) ;
#331 = PLANE ( 'NONE',  #278 ) ;
#332 = VERTEX_POINT ( 'NONE', #882 ) ;
#333 = PERSON_AND_ORGANIZATION ( #197, #612 ) ;
#334 = VERTEX_POINT ( 'NONE', #247 ) ;
#335 = CARTESIAN_POINT ( 'NONE',  ( -28.85285297260059423, 10.00000000000000000, -27.34162223808168690 ) ) ;
#336 = FACE_OUTER_BOUND ( 'NONE', #1068, .T. ) ;
#337 = EDGE_CURVE ( 'NONE', #599, #435, #1036, .T. ) ;
#338 = EDGE_CURVE ( 'NONE', #861, #1118, #1136, .T. ) ;
#339 = ORIENTED_EDGE ( 'NONE', *, *, #304, .F. ) ;
#340 = APPROVAL_DATE_TIME ( #428, #483 ) ;
#341 = CARTESIAN_POINT ( 'NONE',  ( 186.9406206343967085, 10.00000000000000000, 57.65837776191827402 ) ) ;
#342 = LINE ( 'NONE', #156, #1139 ) ;
#343 = EDGE_CURVE ( 'NONE', #317, #85, #500, .T. ) ;
#344 = PERSON_AND_ORGANIZATION_ROLE ( 'design_owner' ) ;
#345 = VECTOR ( 'NONE', #137, 1000.000000000000000 ) ;
#346 = EDGE_CURVE ( 'NONE', #85, #495, #342, .T. ) ;
#347 = ORIENTED_EDGE ( 'NONE', *, *, #930, .T. ) ;
#348 = FACE_OUTER_BOUND ( 'NONE', #998, .T. ) ;
#349 = AXIS2_PLACEMENT_3D ( 'NONE', #1094, #221, #301 ) ;
#350 = SECURITY_CLASSIFICATION ( '', '', #238 ) ;
#351 = EDGE_LOOP ( 'NONE', ( #657, #394, #774, #136 ) ) ;
#352 = FACE_OUTER_BOUND ( 'NONE', #84, .T. ) ;
#353 = CARTESIAN_POINT ( 'NONE',  ( -83.05937936560327728, 2.000000000000000000, 30.05837776191835076 ) ) ;
#354 = ORIENTED_EDGE ( 'NONE', *, *, #883, .T. ) ;
#355 = DIRECTION ( 'NONE',  ( -0.000000000000000000, 1.000000000000000000, -0.000000000000000000 ) ) ;
#356 = LINE ( 'NONE', #371, #479 ) ;
#357 = LINE ( 'NONE', #96, #472 ) ;
#358 = EDGE_LOOP ( 'NONE', ( #102, #148, #863, #185 ) ) ;
#359 = DIRECTION ( 'NONE',  ( 0.000000000000000000, 0.7071067811865456854, 0.7071067811865493491 ) ) ;
#360 = CIRCLE ( 'NONE', #1119, 4.700000000000013500 ) ;
#361 = AXIS2_PLACEMENT_3D ( 'NONE', #341, #948, #329 ) ;
#362 = CARTESIAN_POINT ( 'NONE',  ( -108.5442039581885325, 0.000000000000000000, 52.65837776191830955 ) ) ;
#363 = CARTESIAN_POINT ( 'NONE',  ( -83.05937936560327728, 7.700000000000003730, 27.65837776191835928 ) ) ;
#364 = VERTEX_POINT ( 'NONE', #437 ) ;
#365 = DIRECTION ( 'NONE',  ( 0.000000000000000000, 0.000000000000000000, -1.000000000000000000 ) ) ;
#366 = CARTESIAN_POINT ( 'NONE',  ( 37.94062063439672272, 7.699999999999997513, 0.05837776191831324513 ) ) ;
#367 = APPROVAL ( #862, 'UNSPECIFIED' ) ;
#368 = FACE_BOUND ( 'NONE', #698, .T. ) ;
#369 = ORIENTED_EDGE ( 'NONE', *, *, #8, .F. ) ;
#370 = DIRECTION ( 'NONE',  ( -0.000000000000000000, -1.000000000000000000, -0.000000000000000000 ) ) ;
#371 = CARTESIAN_POINT ( 'NONE',  ( -111.0593793656032489, 0.000000000000000000, -2.341622238081685126 ) ) ;
#372 = DIRECTION ( 'NONE',  ( -0.000000000000000000, 1.000000000000000000, -0.000000000000000000 ) ) ;
#373 = EDGE_CURVE ( 'NONE', #970, #90, #788, .T. ) ;
#374 = EDGE_CURVE ( 'NONE', #151, #983, #889, .T. ) ;
#375 = ORIENTED_EDGE ( 'NONE', *, *, #829, .T. ) ;
#376 = LINE ( 'NONE', #833, #228 ) ;
#377 = EDGE_CURVE ( 'NONE', #126, #1148, #169, .T. ) ;
#378 = CARTESIAN_POINT ( 'NONE',  ( 37.94062063439672272, 2.000000000000000000, -2.341622238081686014 ) ) ;
#379 = DIRECTION ( 'NONE',  ( -0.000000000000000000, 1.000000000000000000, -0.000000000000000000 ) ) ;
#380 = AXIS2_PLACEMENT_3D ( 'NONE', #1089, #289, #383 ) ;
#381 = ORIENTED_EDGE ( 'NONE', *, *, #374, .F. ) ;
#382 = CC_DESIGN_PERSON_AND_ORGANIZATION_ASSIGNMENT ( #326, #1026, ( #230 ) ) ;
#383 = DIRECTION ( 'NONE',  ( -0.009544965086860099715, 0.000000000000000000, 0.9999544457831519573 ) ) ;
#384 = EDGE_CURVE ( 'NONE', #789, #670, #1140, .T. ) ;
#385 = DIRECTION ( 'NONE',  ( 0.000000000000000000, 0.000000000000000000, 1.000000000000000000 ) ) ;
#386 = CARTESIAN_POINT ( 'NONE',  ( 37.94062063439672272, 10.00000000000000178, 2.358377761918309723 ) ) ;
#387 = ORIENTED_EDGE ( 'NONE', *, *, #538, .T. ) ;
#388 = LINE ( 'NONE', #574, #572 ) ;
#389 = ADVANCED_FACE ( 'NONE', ( #348 ), #331, .F. ) ;
#390 = ORIENTED_EDGE ( 'NONE', *, *, #431, .F. ) ;
#391 = CARTESIAN_POINT ( 'NONE',  ( -113.0593793656032773, 10.00000000000000000, -0.3416222380816706372 ) ) ;
#392 = DIRECTION ( 'NONE',  ( -0.000000000000000000, -1.000000000000000000, -0.000000000000000000 ) ) ;
#393 = EDGE_CURVE ( 'NONE', #245, #1029, #884, .T. ) ;
#394 = ORIENTED_EDGE ( 'NONE', *, *, #433, .F. ) ;
#395 = DIRECTION ( 'NONE',  ( 1.000000000000000000, 0.000000000000000000, -0.000000000000000000 ) ) ;
#396 = EDGE_LOOP ( 'NONE', ( #475, #626, #505, #664 ) ) ;
#397 = CARTESIAN_POINT ( 'NONE',  ( -28.85285297260059423, 0.000000000000000000, -27.34162223808168690 ) ) ;
#398 = DIRECTION ( 'NONE',  ( 0.000000000000000000, 0.000000000000000000, 1.000000000000000000 ) ) ;
#399 = AXIS2_PLACEMENT_3D ( 'NONE', #378, #291, #995 ) ;
#400 = AXIS2_PLACEMENT_3D ( 'NONE', #246, #787, #1127 ) ;
#401 = ORIENTED_EDGE ( 'NONE', *, *, #773, .F. ) ;
#402 = FACE_OUTER_BOUND ( 'NONE', #517, .T. ) ;
#403 = APPROVAL_PERSON_ORGANIZATION ( #68, #483, #685 ) ;
#404 = DIRECTION ( 'NONE',  ( -0.000000000000000000, 1.000000000000000000, -0.000000000000000000 ) ) ;
#405 = DIRECTION ( 'NONE',  ( -0.000000000000000000, 1.000000000000000000, -0.000000000000000000 ) ) ;
#406 = ORIENTED_EDGE ( 'NONE', *, *, #624, .T. ) ;
#407 = DIRECTION ( 'NONE',  ( 1.000000000000000000, 0.000000000000000000, 0.000000000000000000 ) ) ;
#408 = VERTEX_POINT ( 'NONE', #52 ) ;
#409 = LINE ( 'NONE', #580, #56 ) ;
#410 = DIRECTION ( 'NONE',  ( -0.000000000000000000, 1.000000000000000000, -0.000000000000000000 ) ) ;
#411 = EDGE_CURVE ( 'NONE', #427, #332, #166, .T. ) ;
#412 = ORIENTED_EDGE ( 'NONE', *, *, #338, .F. ) ;
#413 = COORDINATED_UNIVERSAL_TIME_OFFSET ( 3, 0, .AHEAD. ) ;
#414 = ORIENTED_EDGE ( 'NONE', *, *, #647, .T. ) ;
#415 = DIRECTION ( 'NONE',  ( 0.000000000000000000, 0.000000000000000000, -1.000000000000000000 ) ) ;
#416 = ADVANCED_FACE ( 'NONE', ( #519 ), #566, .F. ) ;
#417 = VECTOR ( 'NONE', #392, 1000.000000000000000 ) ;
#418 = CARTESIAN_POINT ( 'NONE',  ( 158.9406206343967085, 2.000000000000000000, 27.65837776191831310 ) ) ;
#419 = AXIS2_PLACEMENT_3D ( 'NONE', #206, #775, #45 ) ;
#420 = MANIFOLD_SOLID_BREP ( '\X2\04170435043d043a043e0432043a0430\X0\ \X2\0434043b044f\X0\  \X2\04320438043d04420430\X0\ \X2\0441\X0\ \X2\043f043b043e0441043a043e0439\X0\ \X2\0433043e043b043e0432043a043e0439\X0\ M42', #453 ) ;
#421 = ORIENTED_EDGE ( 'NONE', *, *, #33, .T. ) ;
#422 = DIRECTION ( 'NONE',  ( 0.000000000000000000, 0.000000000000000000, 1.000000000000000000 ) ) ;
#423 = ORIENTED_EDGE ( 'NONE', *, *, #377, .T. ) ;
#424 = VECTOR ( 'NONE', #177, 1000.000000000000000 ) ;
#425 = DIRECTION ( 'NONE',  ( -0.000000000000000000, -1.000000000000000000, -0.000000000000000000 ) ) ;
#426 = CARTESIAN_POINT ( 'NONE',  ( 183.7201862726277000, 0.000000000000000000, 53.81741376451762449 ) ) ;
#427 = VERTEX_POINT ( 'NONE', #1075 ) ;
#428 = DATE_AND_TIME ( #434, #836 ) ;
#429 = ORIENTED_EDGE ( 'NONE', *, *, #1114, .T. ) ;
#430 = CARTESIAN_POINT ( 'NONE',  ( -11.99289496014687195, 0.000000000000000000, 1.866939305214279754 ) ) ;
#431 = EDGE_CURVE ( 'NONE', #364, #599, #276, .T. ) ;
#432 = CARTESIAN_POINT ( 'NONE',  ( -113.0593793656032773, 10.00000000000000000, 55.65837776191829533 ) ) ;
#433 = EDGE_CURVE ( 'NONE', #861, #364, #104, .T. ) ;
#434 = CALENDAR_DATE ( 2026, 18, 1 ) ;
#435 = VERTEX_POINT ( 'NONE', #362 ) ;
#436 = LINE ( 'NONE', #887, #265 ) ;
#437 = CARTESIAN_POINT ( 'NONE',  ( 183.9264215074951210, 0.000000000000000000, 1.812803882113436904 ) ) ;
#438 = VECTOR ( 'NONE', #591, 1000.000000000000000 ) ;
#439 = CONICAL_SURFACE ( 'NONE', #585, 4.699999999999995737, 0.7853981633974509435 ) ;
#440 = CIRCLE ( 'NONE', #592, 2.399999999999992362 ) ;
#441 = ORIENTED_EDGE ( 'NONE', *, *, #42, .F. ) ;
#442 = CARTESIAN_POINT ( 'NONE',  ( -113.0593793656032773, 10.00000000000000000, -0.3416222380816706372 ) ) ;
#443 = AXIS2_PLACEMENT_3D ( 'NONE', #108, #114, #159 ) ;
#444 = CARTESIAN_POINT ( 'NONE',  ( 37.94062063439672272, 10.00000000000000178, -7.041622238081681751 ) ) ;
#445 = ORIENTED_EDGE ( 'NONE', *, *, #809, .F. ) ;
#446 = LINE ( 'NONE', #806, #669 ) ;
#447 = LINE ( 'NONE', #93, #1065 ) ;
#448 = ORIENTED_EDGE ( 'NONE', *, *, #343, .F. ) ;
#449 = ORIENTED_EDGE ( 'NONE', *, *, #260, .T. ) ;
#450 = CARTESIAN_POINT ( 'NONE',  ( 37.94062063439672272, 10.00000000000000000, -2.341622238081686014 ) ) ;
#451 = CARTESIAN_POINT ( 'NONE',  ( 186.9406206343967085, 10.00000000000000000, 55.65837776191827402 ) ) ;
#452 = FACE_OUTER_BOUND ( 'NONE', #69, .T. ) ;
#453 = CLOSED_SHELL ( 'NONE', ( #640, #914, #269, #1111, #834, #200, #28, #473, #1149, #917, #286, #870, #1058, #132, #510, #675, #318, #327, #722, #742, #746, #145, #678, #589, #467, #645, #122, #894, #389, #1045, #1151, #553, #67, #49, #416 ) ) ;
#454 = AXIS2_PLACEMENT_3D ( 'NONE', #795, #165, #792 ) ;
#455 = ORIENTED_EDGE ( 'NONE', *, *, #202, .T. ) ;
#456 = DIRECTION ( 'NONE',  ( 0.000000000000000000, 0.000000000000000000, 1.000000000000000000 ) ) ;
#457 = VECTOR ( 'NONE', #547, 1000.000000000000114 ) ;
#458 = CC_DESIGN_DATE_AND_TIME_ASSIGNMENT ( #141, #1039, ( #350 ) ) ;
#459 = CARTESIAN_POINT ( 'NONE',  ( -11.99289496014687195, 0.000000000000000000, 1.866939305214279754 ) ) ;
#460 = CARTESIAN_POINT ( 'NONE',  ( 142.1471470273994271, 0.000000000000000000, -2.341622238081684237 ) ) ;
#461 = AXIS2_PLACEMENT_3D ( 'NONE', #1150, #355, #718 ) ;
#462 = ORIENTED_EDGE ( 'NONE', *, *, #218, .T. ) ;
#463 = LINE ( 'NONE', #1078, #211 ) ;
#464 = DIRECTION ( 'NONE',  ( -0.000000000000000000, -1.000000000000000000, -0.000000000000000000 ) ) ;
#465 = EDGE_CURVE ( 'NONE', #74, #263, #977, .T. ) ;
#466 = CYLINDRICAL_SURFACE ( 'NONE', #642, 2.399999999999999467 ) ;
#467 = ADVANCED_FACE ( 'NONE', ( #87, #807, #727, #897 ), #816, .F. ) ;
#468 = EDGE_LOOP ( 'NONE', ( #160, #497, #905, #879 ) ) ;
#469 = FACE_OUTER_BOUND ( 'NONE', #886, .T. ) ;
#470 = DIRECTION ( 'NONE',  ( 0.000000000000000000, 1.000000000000000000, 0.000000000000000000 ) ) ;
#471 = ORIENTED_EDGE ( 'NONE', *, *, #563, .F. ) ;
#472 = VECTOR ( 'NONE', #822, 1000.000000000000000 ) ;
#473 = ADVANCED_FACE ( 'NONE', ( #826 ), #193, .T. ) ;
#474 = CIRCLE ( 'NONE', #1117, 2.399999999999985256 ) ;
#475 = ORIENTED_EDGE ( 'NONE', *, *, #586, .T. ) ;
#476 = DIRECTION ( 'NONE',  ( 0.000000000000000000, 0.000000000000000000, 1.000000000000000000 ) ) ;
#477 = AXIS2_PLACEMENT_3D ( 'NONE', #432, #144, #607 ) ;
#478 = DIRECTION ( 'NONE',  ( 0.000000000000000000, 0.000000000000000000, 1.000000000000000000 ) ) ;
#479 = VECTOR ( 'NONE', #1080, 1000.000000000000000 ) ;
#480 = DIRECTION ( 'NONE',  ( -0.000000000000000000, 1.000000000000000000, -0.000000000000000000 ) ) ;
#481 = CIRCLE ( 'NONE', #744, 2.399999999999985256 ) ;
#482 = VECTOR ( 'NONE', #628, 1000.000000000000000 ) ;
#483 = APPROVAL ( #1051, 'UNSPECIFIED' ) ;
#484 = APPROVAL_PERSON_ORGANIZATION ( #63, #367, #1044 ) ;
#485 = VERTEX_POINT ( 'NONE', #178 ) ;
#486 = LINE ( 'NONE', #839, #115 ) ;
#487 = VERTEX_POINT ( 'NONE', #183 ) ;
#488 = DIRECTION ( 'NONE',  ( -0.000000000000000000, 1.000000000000000000, -0.000000000000000000 ) ) ;
#489 = CARTESIAN_POINT ( 'NONE',  ( 142.1471470273994271, 10.00000000000000000, -2.341622238081684237 ) ) ;
#490 = VERTEX_POINT ( 'NONE', #366 ) ;
#491 = LINE ( 'NONE', #135, #855 ) ;
#492 = DIRECTION ( 'NONE',  ( 0.000000000000000000, 0.000000000000000000, 1.000000000000000000 ) ) ;
#493 = EDGE_CURVE ( 'NONE', #25, #126, #812, .T. ) ;
#494 = DIRECTION ( 'NONE',  ( -0.000000000000000000, -0.000000000000000000, -1.000000000000000000 ) ) ;
#495 = VERTEX_POINT ( 'NONE', #1086 ) ;
#496 = DIRECTION ( 'NONE',  ( 0.000000000000000000, 0.000000000000000000, 1.000000000000000000 ) ) ;
#497 = ORIENTED_EDGE ( 'NONE', *, *, #373, .F. ) ;
#498 = FACE_OUTER_BOUND ( 'NONE', #358, .T. ) ;
#499 = APPROVAL ( #512, 'UNSPECIFIED' ) ;
#500 = CIRCLE ( 'NONE', #282, 2.399999999999992362 ) ;
#501 = CARTESIAN_POINT ( 'NONE',  ( 142.1471470273994271, 10.00000000000000000, -27.34162223808168690 ) ) ;
#502 = VERTEX_POINT ( 'NONE', #733 ) ;
#503 = CALENDAR_DATE ( 2026, 18, 1 ) ;
#504 = AXIS2_PLACEMENT_3D ( 'NONE', #171, #1062, #896 ) ;
#505 = ORIENTED_EDGE ( 'NONE', *, *, #393, .F. ) ;
#506 = DIRECTION ( 'NONE',  ( -0.000000000000000000, -0.000000000000000000, 1.000000000000000000 ) ) ;
#507 = EDGE_CURVE ( 'NONE', #970, #485, #1, .T. ) ;
#508 = DIRECTION ( 'NONE',  ( 0.000000000000000000, 0.000000000000000000, 1.000000000000000000 ) ) ;
#509 = EDGE_CURVE ( 'NONE', #1061, #300, #901, .T. ) ;
#510 = ADVANCED_FACE ( 'NONE', ( #541 ), #820, .F. ) ;
#511 = EDGE_LOOP ( 'NONE', ( #717, #36, #455, #306 ) ) ;
#512 = APPROVAL_STATUS ( 'not_yet_approved' ) ;
#513 = ORIENTED_EDGE ( 'NONE', *, *, #509, .T. ) ;
#514 = PLANE ( 'NONE',  #361 ) ;
#515 = CARTESIAN_POINT ( 'NONE',  ( 183.9264215074951210, 2.000000000000000000, 1.812803882113436904 ) ) ;
#516 = ORIENTED_EDGE ( 'NONE', *, *, #764, .F. ) ;
#517 = EDGE_LOOP ( 'NONE', ( #684, #13, #1112, #651 ) ) ;
#518 = CARTESIAN_POINT ( 'NONE',  ( -83.05937936560327728, 10.00000000000000178, 22.95837776191836355 ) ) ;
#519 = FACE_OUTER_BOUND ( 'NONE', #54, .T. ) ;
#520 = AXIS2_PLACEMENT_3D ( 'NONE', #23, #858, #385 ) ;
#521 = ORIENTED_EDGE ( 'NONE', *, *, #433, .T. ) ;
#522 = EDGE_CURVE ( 'NONE', #1137, #1093, #1124, .T. ) ;
#523 = VECTOR ( 'NONE', #215, 1000.000000000000000 ) ;
#524 = EDGE_CURVE ( 'NONE', #1029, #1061, #634, .T. ) ;
#525 = DIRECTION ( 'NONE',  ( -0.000000000000000000, -1.000000000000000000, -0.000000000000000000 ) ) ;
#526 = EDGE_LOOP ( 'NONE', ( #252, #462, #43, #209, #513, #843, #176, #731, #561, #237, #891, #1125 ) ) ;
#527 = DIRECTION ( 'NONE',  ( 0.000000000000000000, 0.000000000000000000, 1.000000000000000000 ) ) ;
#528 = DIRECTION ( 'NONE',  ( -0.000000000000000000, -1.000000000000000000, -0.000000000000000000 ) ) ;
#529 = ORIENTED_EDGE ( 'NONE', *, *, #701, .T. ) ;
#530 = LINE ( 'NONE', #1035, #38 ) ;
#531 = CARTESIAN_POINT ( 'NONE',  ( -28.85285297260059423, 10.00000000000000000, -27.34162223808168690 ) ) ;
#532 = AXIS2_PLACEMENT_3D ( 'NONE', #649, #379, #542 ) ;
#533 = VECTOR ( 'NONE', #528, 1000.000000000000000 ) ;
#534 = CIRCLE ( 'NONE', #419, 2.000000000000000888 ) ;
#535 = ORIENTED_EDGE ( 'NONE', *, *, #934, .T. ) ;
#536 = CARTESIAN_POINT ( 'NONE',  ( -108.0593793656032631, 2.000000000000000000, 1.866939305214279754 ) ) ;
#537 = DIRECTION ( 'NONE',  ( -0.000000000000000000, -1.000000000000000000, -0.000000000000000000 ) ) ;
#538 = EDGE_CURVE ( 'NONE', #1100, #970, #447, .T. ) ;
#539 = ORIENTED_EDGE ( 'NONE', *, *, #40, .T. ) ;
#540 = FACE_OUTER_BOUND ( 'NONE', #242, .T. ) ;
#541 = FACE_OUTER_BOUND ( 'NONE', #771, .T. ) ;
#542 = DIRECTION ( 'NONE',  ( 0.000000000000000000, 0.000000000000000000, 1.000000000000000000 ) ) ;
#543 = EDGE_CURVE ( 'NONE', #757, #44, #356, .T. ) ;
#544 = EDGE_LOOP ( 'NONE', ( #1126, #529, #696, #1052 ) ) ;
#545 = FACE_OUTER_BOUND ( 'NONE', #468, .T. ) ;
#546 = EDGE_CURVE ( 'NONE', #710, #90, #1064, .T. ) ;
#547 = DIRECTION ( 'NONE',  ( 0.9999921366623016894, -0.000000000000000000, 0.003965679458100082773 ) ) ;
#548 = LINE ( 'NONE', #460, #902 ) ;
#549 = ORIENTED_EDGE ( 'NONE', *, *, #543, .T. ) ;
#550 = CARTESIAN_POINT ( 'NONE',  ( 186.9406206343967085, 0.000000000000000000, 57.65837776191827402 ) ) ;
#551 = AXIS2_PLACEMENT_3D ( 'NONE', #976, #737, #893 ) ;
#552 = CARTESIAN_POINT ( 'NONE',  ( 142.1471470273994271, 10.00000000000000000, -2.341622238081684237 ) ) ;
#553 = ADVANCED_FACE ( 'NONE', ( #100 ), #283, .F. ) ;
#554 = ORIENTED_EDGE ( 'NONE', *, *, #374, .T. ) ;
#555 = ORIENTED_EDGE ( 'NONE', *, *, #1108, .T. ) ;
#556 = DIRECTION ( 'NONE',  ( -0.000000000000000000, 1.000000000000000000, -0.000000000000000000 ) ) ;
#557 = CARTESIAN_POINT ( 'NONE',  ( 183.9264215074951210, 2.000000000000000000, 1.812803882113436904 ) ) ;
#558 = FACE_OUTER_BOUND ( 'NONE', #526, .T. ) ;
#559 = ORIENTED_EDGE ( 'NONE', *, *, #860, .F. ) ;
#560 = CARTESIAN_POINT ( 'NONE',  ( 188.9406206343967085, 10.00000000000000000, -0.3416222380816843485 ) ) ;
#561 = ORIENTED_EDGE ( 'NONE', *, *, #1128, .T. ) ;
#562 = CARTESIAN_POINT ( 'NONE',  ( 37.94062063439672272, 10.00000000000000178, 2.358377761918309723 ) ) ;
#563 = EDGE_CURVE ( 'NONE', #603, #25, #409, .T. ) ;
#564 = DIRECTION ( 'NONE',  ( -0.000000000000000000, 1.000000000000000000, -0.000000000000000000 ) ) ;
#565 = EDGE_CURVE ( 'NONE', #408, #702, #933, .T. ) ;
#566 = CONICAL_SURFACE ( 'NONE', #1005, 4.699999999999995737, 0.7853981633974466137 ) ;
#567 = VECTOR ( 'NONE', #1019, 1000.000000000000000 ) ;
#568 = VERTEX_POINT ( 'NONE', #217 ) ;
#569 = DIRECTION ( 'NONE',  ( 0.000000000000000000, 0.000000000000000000, 1.000000000000000000 ) ) ;
#570 = FACE_OUTER_BOUND ( 'NONE', #1104, .T. ) ;
#571 = FACE_OUTER_BOUND ( 'NONE', #1083, .T. ) ;
#572 = VECTOR ( 'NONE', #476, 1000.000000000000000 ) ;
#573 = VERTEX_POINT ( 'NONE', #119 ) ;
#574 = CARTESIAN_POINT ( 'NONE',  ( 128.8571050398529678, 0.000000000000000000, -8.401768755544246403 ) ) ;
#575 = CARTESIAN_POINT ( 'NONE',  ( 186.9406206343967085, 10.00000000000000000, 57.65837776191827402 ) ) ;
#576 = FACE_OUTER_BOUND ( 'NONE', #940, .T. ) ;
#577 = VERTEX_POINT ( 'NONE', #1022 ) ;
#578 = CARTESIAN_POINT ( 'NONE',  ( -111.0593793656032631, 0.000000000000000000, 57.65837776191830955 ) ) ;
#579 = ORIENTED_EDGE ( 'NONE', *, *, #799, .T. ) ;
#580 = CARTESIAN_POINT ( 'NONE',  ( -113.0593793656032773, 10.00000000000000000, 55.65837776191829533 ) ) ;
#581 = CARTESIAN_POINT ( 'NONE',  ( -113.0593793656032773, 0.000000000000000000, 55.65837776191829533 ) ) ;
#582 = VECTOR ( 'NONE', #34, 1000.000000000000000 ) ;
#583 = ORIENTED_EDGE ( 'NONE', *, *, #522, .T. ) ;
#584 = DIRECTION ( 'NONE',  ( -0.000000000000000000, 1.000000000000000000, -0.000000000000000000 ) ) ;
#585 = AXIS2_PLACEMENT_3D ( 'NONE', #310, #410, #120 ) ;
#586 = EDGE_CURVE ( 'NONE', #857, #62, #534, .T. ) ;
#587 = EDGE_LOOP ( 'NONE', ( #1002, #1090, #840, #926, #616, #181, #387, #311 ) ) ;
#588 = CARTESIAN_POINT ( 'NONE',  ( 37.94062063439672272, 10.00000000000000178, -2.341622238081686014 ) ) ;
#589 = ADVANCED_FACE ( 'NONE', ( #761 ), #608, .F. ) ;
#590 = EDGE_CURVE ( 'NONE', #1093, #214, #654, .T. ) ;
#591 = DIRECTION ( 'NONE',  ( -0.000000000000000000, -1.000000000000000000, -0.000000000000000000 ) ) ;
#592 = AXIS2_PLACEMENT_3D ( 'NONE', #1030, #425, #527 ) ;
#593 = EDGE_LOOP ( 'NONE', ( #786, #778, #791, #539 ) ) ;
#594 = PERSON_AND_ORGANIZATION_ROLE ( 'classification_officer' ) ;
#595 = ORIENTED_EDGE ( 'NONE', *, *, #411, .F. ) ;
#596 = FACE_OUTER_BOUND ( 'NONE', #611, .T. ) ;
#597 = DIRECTION ( 'NONE',  ( 0.000000000000000000, 0.000000000000000000, 1.000000000000000000 ) ) ;
#598 = PRODUCT_DEFINITION ( 'UNKNOWN', '', #230, #630 ) ;
#599 = VERTEX_POINT ( 'NONE', #309 ) ;
#600 = COORDINATED_UNIVERSAL_TIME_OFFSET ( 3, 0, .AHEAD. ) ;
#601 = ORIENTED_EDGE ( 'NONE', *, *, #524, .F. ) ;
#602 = CARTESIAN_POINT ( 'NONE',  ( 186.9406206343967085, 10.00000000000000000, -0.3416222380816843485 ) ) ;
#603 = VERTEX_POINT ( 'NONE', #391 ) ;
#604 = ORIENTED_EDGE ( 'NONE', *, *, #546, .F. ) ;
#605 = PLANE ( 'NONE',  #400 ) ;
#606 = VECTOR ( 'NONE', #284, 1000.000000000000000 ) ;
#607 = DIRECTION ( 'NONE',  ( 0.000000000000000000, 0.000000000000000000, -1.000000000000000000 ) ) ;
#608 = CONICAL_SURFACE ( 'NONE', #94, 4.699999999999995737, 0.7853981633974509435 ) ;
#609 = VECTOR ( 'NONE', #694, 1000.000000000000000 ) ;
#610 = ORIENTED_EDGE ( 'NONE', *, *, #590, .T. ) ;
#611 = EDGE_LOOP ( 'NONE', ( #579, #381, #987, #203 ) ) ;
#612 = ORGANIZATION ( 'UNSPECIFIED', 'UNSPECIFIED', '' ) ;
#613 = DIRECTION ( 'NONE',  ( -0.000000000000000000, 1.000000000000000000, -0.000000000000000000 ) ) ;
#614 = CARTESIAN_POINT ( 'NONE',  ( 142.1471470273994271, 10.00000000000000000, -27.34162223808168690 ) ) ;
#615 = PERSON_AND_ORGANIZATION_ROLE ( 'creator' ) ;
#616 = ORIENTED_EDGE ( 'NONE', *, *, #991, .T. ) ;
#617 = DIRECTION ( 'NONE',  ( -0.000000000000000000, 1.000000000000000000, -0.000000000000000000 ) ) ;
#618 = DIRECTION ( 'NONE',  ( 0.000000000000000000, 0.000000000000000000, 1.000000000000000000 ) ) ;
#619 = ORIENTED_EDGE ( 'NONE', *, *, #1028, .F. ) ;
#620 = DIRECTION ( 'NONE',  ( 8.659560562354982162E-17, 0.7071067811865435759, -0.7071067811865515695 ) ) ;
#621 = CARTESIAN_POINT ( 'NONE',  ( -111.0593793656032631, 0.000000000000000000, 55.65837776191830955 ) ) ;
#622 = AXIS2_PLACEMENT_3D ( 'NONE', #305, #776, #660 ) ;
#623 = EDGE_CURVE ( 'NONE', #44, #487, #762, .T. ) ;
#624 = EDGE_CURVE ( 'NONE', #490, #198, #1004, .T. ) ;
#625 = CIRCLE ( 'NONE', #1012, 2.000000000000001776 ) ;
#626 = ORIENTED_EDGE ( 'NONE', *, *, #1055, .F. ) ;
#627 = DIRECTION ( 'NONE',  ( 0.000000000000000000, 0.000000000000000000, 1.000000000000000000 ) ) ;
#628 = DIRECTION ( 'NONE',  ( -0.000000000000000000, -1.000000000000000000, -0.000000000000000000 ) ) ;
#629 = PLANE ( 'NONE',  #279 ) ;
#630 = DESIGN_CONTEXT ( 'detailed design', #61, 'design' ) ;
#631 = APPROVAL_DATE_TIME ( #1060, #367 ) ;
#632 = ORIENTED_EDGE ( 'NONE', *, *, #823, .T. ) ;
#633 = CARTESIAN_POINT ( 'NONE',  ( -83.05937936560327728, 7.700000000000003730, 27.65837776191835928 ) ) ;
#634 = LINE ( 'NONE', #552, #871 ) ;
#635 = FACE_BOUND ( 'NONE', #1088, .T. ) ;
#636 = EDGE_CURVE ( 'NONE', #334, #710, #943, .T. ) ;
#637 = EDGE_CURVE ( 'NONE', #805, #214, #360, .T. ) ;
#638 = ORIENTED_EDGE ( 'NONE', *, *, #1007, .T. ) ;
#639 = DIRECTION ( 'NONE',  ( 0.000000000000000000, 1.000000000000000000, 0.000000000000000000 ) ) ;
#640 = ADVANCED_FACE ( 'NONE', ( #1013 ), #224, .F. ) ;
#641 = CARTESIAN_POINT ( 'NONE',  ( 183.9264215074951210, 2.000000000000000000, 1.812803882113436904 ) ) ;
#642 = AXIS2_PLACEMENT_3D ( 'NONE', #808, #1087, #982 ) ;
#643 = CARTESIAN_POINT ( 'NONE',  ( -111.0593793656032631, 10.00000000000000000, 55.65837776191830955 ) ) ;
#644 = ORIENTED_EDGE ( 'NONE', *, *, #543, .F. ) ;
#645 = ADVANCED_FACE ( 'NONE', ( #920 ), #32, .F. ) ;
#646 = DIRECTION ( 'NONE',  ( 0.000000000000000000, 0.000000000000000000, 1.000000000000000000 ) ) ;
#647 = EDGE_CURVE ( 'NONE', #308, #679, #35, .T. ) ;
#648 = DIRECTION ( 'NONE',  ( 0.000000000000000000, 0.000000000000000000, 1.000000000000000000 ) ) ;
#649 = CARTESIAN_POINT ( 'NONE',  ( -83.05937936560327728, 10.00000000000000178, 27.65837776191835928 ) ) ;
#650 = VECTOR ( 'NONE', #1021, 1000.000000000000000 ) ;
#651 = ORIENTED_EDGE ( 'NONE', *, *, #167, .T. ) ;
#652 = PLANE ( 'NONE',  #285 ) ;
#653 = ORIENTED_EDGE ( 'NONE', *, *, #346, .T. ) ;
#654 = LINE ( 'NONE', #1095, #724 ) ;
#655 = EDGE_CURVE ( 'NONE', #952, #151, #749, .T. ) ;
#656 = FACE_BOUND ( 'NONE', #931, .T. ) ;
#657 = ORIENTED_EDGE ( 'NONE', *, *, #1147, .T. ) ;
#658 = CARTESIAN_POINT ( 'NONE',  ( -83.05937936560327728, 7.700000000000003730, 30.05837776191834365 ) ) ;
#659 = DIRECTION ( 'NONE',  ( -0.000000000000000000, -1.000000000000000000, -0.000000000000000000 ) ) ;
#660 = DIRECTION ( 'NONE',  ( -0.9999921366623016894, 0.000000000000000000, -0.003965679458100082773 ) ) ;
#661 = AXIS2_PLACEMENT_3D ( 'NONE', #418, #954, #150 ) ;
#662 = EDGE_CURVE ( 'NONE', #300, #789, #841, .T. ) ;
#663 = VECTOR ( 'NONE', #105, 1000.000000000000227 ) ;
#664 = ORIENTED_EDGE ( 'NONE', *, *, #809, .T. ) ;
#665 = CARTESIAN_POINT ( 'NONE',  ( 158.9406206343967085, 7.700000000000003730, 25.25837776191832873 ) ) ;
#666 = CARTESIAN_POINT ( 'NONE',  ( 158.9406206343967085, 10.00000000000000178, 27.65837776191831310 ) ) ;
#667 = DIRECTION ( 'NONE',  ( 0.000000000000000000, 0.000000000000000000, -1.000000000000000000 ) ) ;
#668 = CC_DESIGN_PERSON_AND_ORGANIZATION_ASSIGNMENT ( #333, #594, ( #350 ) ) ;
#669 = VECTOR ( 'NONE', #370, 1000.000000000000000 ) ;
#670 = VERTEX_POINT ( 'NONE', #397 ) ;
#671 = FACE_OUTER_BOUND ( 'NONE', #158, .T. ) ;
#672 = ORIENTED_EDGE ( 'NONE', *, *, #907, .T. ) ;
#673 = DIRECTION ( 'NONE',  ( 0.000000000000000000, 0.000000000000000000, 1.000000000000000000 ) ) ;
#674 = LINE ( 'NONE', #231, #567 ) ;
#675 = ADVANCED_FACE ( 'NONE', ( #570 ), #1101, .T. ) ;
#676 = ORIENTED_EDGE ( 'NONE', *, *, #313, .F. ) ;
#677 = CARTESIAN_POINT ( 'NONE',  ( 128.8571050398529678, 0.000000000000000000, 1.812803882113436904 ) ) ;
#678 = ADVANCED_FACE ( 'NONE', ( #498 ), #852, .F. ) ;
#679 = VERTEX_POINT ( 'NONE', #1106 ) ;
#680 = CARTESIAN_POINT ( 'NONE',  ( -111.0593793656032489, 10.00000000000000000, -2.341622238081685126 ) ) ;
#681 = DIRECTION ( 'NONE',  ( -0.000000000000000000, -0.000000000000000000, 1.000000000000000000 ) ) ;
#682 = VECTOR ( 'NONE', #1152, 1000.000000000000000 ) ;
#683 = VECTOR ( 'NONE', #1076, 1000.000000000000000 ) ;
#684 = ORIENTED_EDGE ( 'NONE', *, *, #860, .T. ) ;
#685 = APPROVAL_ROLE ( '' ) ;
#686 = AXIS2_PLACEMENT_3D ( 'NONE', #1023, #1115, #508 ) ;
#687 = ORIENTED_EDGE ( 'NONE', *, *, #1037, .F. ) ;
#688 = CARTESIAN_POINT ( 'NONE',  ( 158.9406206343967085, 10.00000000000000178, 27.65837776191831310 ) ) ;
#689 = VECTOR ( 'NONE', #953, 1000.000000000000000 ) ;
#690 = CARTESIAN_POINT ( 'NONE',  ( 158.9406206343967085, 10.00000000000000000, 30.05837776191830102 ) ) ;
#691 = ORIENTED_EDGE ( 'NONE', *, *, #218, .F. ) ;
#692 = DATE_TIME_ROLE ( 'creation_date' ) ;
#693 = ORIENTED_EDGE ( 'NONE', *, *, #934, .F. ) ;
#694 = DIRECTION ( 'NONE',  ( -0.000000000000000000, -1.000000000000000000, -0.000000000000000000 ) ) ;
#695 = CARTESIAN_POINT ( 'NONE',  ( -83.05937936560327728, 2.000000000000000000, 27.65837776191835928 ) ) ;
#696 = ORIENTED_EDGE ( 'NONE', *, *, #116, .T. ) ;
#697 = CALENDAR_DATE ( 2026, 18, 1 ) ;
#698 = EDGE_LOOP ( 'NONE', ( #1020, #107 ) ) ;
#699 = CARTESIAN_POINT ( 'NONE',  ( -28.85285297260059423, 0.000000000000000000, -2.341622238081685126 ) ) ;
#700 = LINE ( 'NONE', #444, #828 ) ;
#701 = EDGE_CURVE ( 'NONE', #495, #679, #1121, .T. ) ;
#702 = VERTEX_POINT ( 'NONE', #149 ) ;
#703 = APPROVAL_ROLE ( '' ) ;
#704 = ORIENTED_EDGE ( 'NONE', *, *, #343, .T. ) ;
#705 = CARTESIAN_POINT ( 'NONE',  ( 37.94062063439672272, 10.00000000000000000, -4.741622238081685481 ) ) ;
#706 = VECTOR ( 'NONE', #681, 1000.000000000000000 ) ;
#707 = DIRECTION ( 'NONE',  ( -0.000000000000000000, -1.000000000000000000, -0.000000000000000000 ) ) ;
#708 = VECTOR ( 'NONE', #296, 1000.000000000000000 ) ;
#709 = EDGE_CURVE ( 'NONE', #702, #44, #65, .T. ) ;
#710 = VERTEX_POINT ( 'NONE', #430 ) ;
#711 = DIRECTION ( 'NONE',  ( 0.000000000000000000, 0.000000000000000000, 1.000000000000000000 ) ) ;
#712 = DIRECTION ( 'NONE',  ( -1.000000000000000000, 0.000000000000000000, -0.000000000000000000 ) ) ;
#713 = ORIENTED_EDGE ( 'NONE', *, *, #1147, .F. ) ;
#714 = DIRECTION ( 'NONE',  ( 0.000000000000000000, 0.000000000000000000, 1.000000000000000000 ) ) ;
#715 = EDGE_CURVE ( 'NONE', #918, #334, #229, .T. ) ;
#716 = DIRECTION ( 'NONE',  ( 8.659560562354918067E-17, 0.7071067811865487940, -0.7071067811865463515 ) ) ;
#717 = ORIENTED_EDGE ( 'NONE', *, *, #1114, .F. ) ;
#718 = DIRECTION ( 'NONE',  ( 0.000000000000000000, 0.000000000000000000, 1.000000000000000000 ) ) ;
#719 = PRODUCT_RELATED_PRODUCT_CATEGORY ( 'detail', '', ( #955 ) ) ;
#720 = CARTESIAN_POINT ( 'NONE',  ( 183.9264215074951210, 0.000000000000000000, 1.812803882113436904 ) ) ;
#721 = CIRCLE ( 'NONE', #532, 4.699999999999995737 ) ;
#722 = ADVANCED_FACE ( 'NONE', ( #596 ), #514, .F. ) ;
#723 = CARTESIAN_POINT ( 'NONE',  ( -83.05937936560327728, 2.000000000000000000, 25.25837776191836781 ) ) ;
#724 = VECTOR ( 'NONE', #1000, 1000.000000000000000 ) ;
#725 = ORIENTED_EDGE ( 'NONE', *, *, #799, .F. ) ;
#726 = CARTESIAN_POINT ( 'NONE',  ( 158.9406206343967085, 10.00000000000000178, 22.95837776191830315 ) ) ;
#727 = FACE_OUTER_BOUND ( 'NONE', #587, .T. ) ;
#728 = EDGE_CURVE ( 'NONE', #85, #317, #440, .T. ) ;
#729 = CARTESIAN_POINT ( 'NONE',  ( 37.94062063439672272, 2.000000000000000000, -4.741622238081685481 ) ) ;
#730 = EDGE_CURVE ( 'NONE', #74, #814, #864, .T. ) ;
#731 = ORIENTED_EDGE ( 'NONE', *, *, #565, .T. ) ;
#732 = DIRECTION ( 'NONE',  ( 0.000000000000000000, 0.000000000000000000, -1.000000000000000000 ) ) ;
#733 = CARTESIAN_POINT ( 'NONE',  ( 142.1471470273994271, 0.000000000000000000, -27.34162223808168690 ) ) ;
#734 = LINE ( 'NONE', #827, #683 ) ;
#735 = ORIENTED_EDGE ( 'NONE', *, *, #250, .T. ) ;
#736 = CARTESIAN_POINT ( 'NONE',  ( -28.85285297260059423, 0.000000000000000000, -27.34162223808168690 ) ) ;
#737 = DIRECTION ( 'NONE',  ( 0.000000000000000000, 0.000000000000000000, 1.000000000000000000 ) ) ;
#738 = DIRECTION ( 'NONE',  ( 0.000000000000000000, 1.000000000000000000, 0.000000000000000000 ) ) ;
#739 = AXIS2_PLACEMENT_3D ( 'NONE', #557, #913, #1113 ) ;
#740 = ORIENTED_EDGE ( 'NONE', *, *, #255, .T. ) ;
#741 = FACE_OUTER_BOUND ( 'NONE', #751, .T. ) ;
#742 = ADVANCED_FACE ( 'NONE', ( #1047, #869 ), #605, .T. ) ;
#743 = DIRECTION ( 'NONE',  ( 0.000000000000000000, 0.000000000000000000, -1.000000000000000000 ) ) ;
#744 = AXIS2_PLACEMENT_3D ( 'NONE', #633, #91, #456 ) ;
#745 = FACE_OUTER_BOUND ( 'NONE', #274, .T. ) ;
#746 = ADVANCED_FACE ( 'NONE', ( #319 ), #971, .F. ) ;
#747 = ORIENTED_EDGE ( 'NONE', *, *, #881, .T. ) ;
#748 = DIRECTION ( 'NONE',  ( 0.000000000000000000, 1.000000000000000000, -0.000000000000000000 ) ) ;
#749 = LINE ( 'NONE', #575, #1027 ) ;
#750 = FACE_OUTER_BOUND ( 'NONE', #942, .T. ) ;
#751 = EDGE_LOOP ( 'NONE', ( #325, #445, #691, #328 ) ) ;
#752 = LINE ( 'NONE', #312, #60 ) ;
#753 = ORIENTED_EDGE ( 'NONE', *, *, #964, .F. ) ;
#754 = DIRECTION ( 'NONE',  ( 0.000000000000000000, 1.000000000000000000, -0.000000000000000000 ) ) ;
#755 = FACE_OUTER_BOUND ( 'NONE', #294, .T. ) ;
#756 = AXIS2_PLACEMENT_3D ( 'NONE', #1103, #1096, #667 ) ;
#757 = VERTEX_POINT ( 'NONE', #699 ) ;
#758 = PLANE ( 'NONE',  #380 ) ;
#759 = VECTOR ( 'NONE', #962, 1000.000000000000000 ) ;
#760 = ORIENTED_EDGE ( 'NONE', *, *, #996, .F. ) ;
#761 = FACE_OUTER_BOUND ( 'NONE', #4, .T. ) ;
#762 = CIRCLE ( 'NONE', #208, 2.000000000000000888 ) ;
#763 = VECTOR ( 'NONE', #359, 1000.000000000000000 ) ;
#764 = EDGE_CURVE ( 'NONE', #214, #805, #173, .T. ) ;
#765 = CARTESIAN_POINT ( 'NONE',  ( -113.0593793656032773, 0.000000000000000000, 55.65837776191829533 ) ) ;
#766 = AXIS2_PLACEMENT_3D ( 'NONE', #937, #1099, #395 ) ;
#767 = ORIENTED_EDGE ( 'NONE', *, *, #167, .F. ) ;
#768 = DIRECTION ( 'NONE',  ( 1.000000000000000000, 0.000000000000000000, 0.000000000000000000 ) ) ;
#769 = DIRECTION ( 'NONE',  ( 0.000000000000000000, 0.000000000000000000, 1.000000000000000000 ) ) ;
#770 = CARTESIAN_POINT ( 'NONE',  ( 188.9406206343967085, 10.00000000000000000, -0.3416222380816843485 ) ) ;
#771 = EDGE_LOOP ( 'NONE', ( #549, #316, #880, #780 ) ) ;
#772 = DATE_AND_TIME ( #785, #288 ) ;
#773 = EDGE_CURVE ( 'NONE', #789, #408, #1053, .T. ) ;
#774 = ORIENTED_EDGE ( 'NONE', *, *, #1130, .F. ) ;
#775 = DIRECTION ( 'NONE',  ( 0.000000000000000000, 1.000000000000000000, -0.000000000000000000 ) ) ;
#776 = DIRECTION ( 'NONE',  ( 0.003965679458100083640, 0.000000000000000000, -0.9999921366623018004 ) ) ;
#777 = VECTOR ( 'NONE', #817, 1000.000000000000000 ) ;
#778 = ORIENTED_EDGE ( 'NONE', *, *, #33, .F. ) ;
#779 = APPLICATION_PROTOCOL_DEFINITION ( 'international standard', 'config_control_design', 1994, #797 ) ;
#780 = ORIENTED_EDGE ( 'NONE', *, *, #130, .T. ) ;
#781 = CARTESIAN_POINT ( 'NONE',  ( 158.9406206343967085, 10.00000000000000178, 22.95837776191830315 ) ) ;
#782 = DIRECTION ( 'NONE',  ( 1.000000000000000000, 0.000000000000000000, -0.000000000000000000 ) ) ;
#783 = VECTOR ( 'NONE', #161, 1000.000000000000000 ) ;
#784 = ORIENTED_EDGE ( 'NONE', *, *, #823, .F. ) ;
#785 = CALENDAR_DATE ( 2026, 18, 1 ) ;
#786 = ORIENTED_EDGE ( 'NONE', *, *, #337, .T. ) ;
#787 = DIRECTION ( 'NONE',  ( 0.000000000000000000, -1.000000000000000000, 0.000000000000000000 ) ) ;
#788 = LINE ( 'NONE', #968, #888 ) ;
#789 = VERTEX_POINT ( 'NONE', #335 ) ;
#790 = MECHANICAL_CONTEXT ( 'NONE', #797, 'mechanical' ) ;
#791 = ORIENTED_EDGE ( 'NONE', *, *, #95, .F. ) ;
#792 = DIRECTION ( 'NONE',  ( 0.000000000000000000, 0.000000000000000000, -1.000000000000000000 ) ) ;
#793 = EDGE_LOOP ( 'NONE', ( #747, #195 ) ) ;
#794 = LINE ( 'NONE', #442, #609 ) ;
#795 = CARTESIAN_POINT ( 'NONE',  ( -111.0593793656032631, 10.00000000000000000, 55.65837776191830955 ) ) ;
#796 = EDGE_CURVE ( 'NONE', #151, #832, #625, .T. ) ;
#797 = APPLICATION_CONTEXT ( 'configuration controlled 3d designs of mechanical parts and assemblies' ) ;
#798 = EDGE_CURVE ( 'NONE', #485, #1038, #530, .T. ) ;
#799 = EDGE_CURVE ( 'NONE', #1148, #983, #960, .T. ) ;
#800 = AXIS2_PLACEMENT_3D ( 'NONE', #811, #1057, #627 ) ;
#801 = ORIENTED_EDGE ( 'NONE', *, *, #728, .F. ) ;
#802 = AXIS2_PLACEMENT_3D ( 'NONE', #925, #584, #496 ) ;
#803 = DIRECTION ( 'NONE',  ( -0.000000000000000000, -1.000000000000000000, -0.000000000000000000 ) ) ;
#804 = DIRECTION ( 'NONE',  ( 0.000000000000000000, 0.000000000000000000, 1.000000000000000000 ) ) ;
#805 = VERTEX_POINT ( 'NONE', #781 ) ;
#806 = CARTESIAN_POINT ( 'NONE',  ( -11.99289496014687195, 2.000000000000000000, 1.866939305214279754 ) ) ;
#807 = FACE_BOUND ( 'NONE', #113, .T. ) ;
#808 = CARTESIAN_POINT ( 'NONE',  ( 37.94062063439672272, 10.00000000000000000, -2.341622238081686014 ) ) ;
#809 = EDGE_CURVE ( 'NONE', #245, #857, #436, .T. ) ;
#810 = ORIENTED_EDGE ( 'NONE', *, *, #730, .F. ) ;
#811 = CARTESIAN_POINT ( 'NONE',  ( 158.9406206343967085, 10.00000000000000178, 27.65837776191831310 ) ) ;
#812 = LINE ( 'NONE', #174, #923 ) ;
#813 = PLANE ( 'NONE',  #622 ) ;
#814 = VERTEX_POINT ( 'NONE', #75 ) ;
#815 = CYLINDRICAL_SURFACE ( 'NONE', #97, 2.000000000000000888 ) ;
#816 = PLANE ( 'NONE',  #244 ) ;
#817 = DIRECTION ( 'NONE',  ( 1.000000000000000000, 0.000000000000000000, 0.000000000000000000 ) ) ;
#818 = ORIENTED_EDGE ( 'NONE', *, *, #80, .T. ) ;
#819 = CARTESIAN_POINT ( 'NONE',  ( 188.9406206343967085, 0.000000000000000000, -0.3416222380816843485 ) ) ;
#820 = PLANE ( 'NONE',  #551 ) ;
#821 = CC_DESIGN_DATE_AND_TIME_ASSIGNMENT ( #1033, #692, ( #598 ) ) ;
#822 = DIRECTION ( 'NONE',  ( -0.000000000000000000, 1.000000000000000000, -0.000000000000000000 ) ) ;
#823 = EDGE_CURVE ( 'NONE', #603, #487, #794, .T. ) ;
#824 = VERTEX_POINT ( 'NONE', #235 ) ;
#825 = CARTESIAN_POINT ( 'NONE',  ( -11.99289496014687195, 2.000000000000000000, 1.866939305214279754 ) ) ;
#826 = FACE_OUTER_BOUND ( 'NONE', #1077, .T. ) ;
#827 = CARTESIAN_POINT ( 'NONE',  ( -108.5442039581885325, 2.000000000000000000, 52.65837776191830955 ) ) ;
#828 = VECTOR ( 'NONE', #716, 1000.000000000000000 ) ;
#829 = EDGE_CURVE ( 'NONE', #1056, #308, #264, .T. ) ;
#830 = VECTOR ( 'NONE', #1129, 1000.000000000000000 ) ;
#831 = VECTOR ( 'NONE', #58, 1000.000000000000000 ) ;
#832 = VERTEX_POINT ( 'NONE', #271 ) ;
#833 = CARTESIAN_POINT ( 'NONE',  ( 128.8571050398529678, 2.000000000000000000, 1.812803882113436904 ) ) ;
#834 = ADVANCED_FACE ( 'NONE', ( #469 ), #1142, .F. ) ;
#835 = DIRECTION ( 'NONE',  ( 0.000000000000000000, 0.000000000000000000, -1.000000000000000000 ) ) ;
#836 = LOCAL_TIME ( 23, 48, 58.00000000000000000, #874 ) ;
#837 = CARTESIAN_POINT ( 'NONE',  ( 37.94062063439672272, 10.00000000000000178, -2.341622238081686014 ) ) ;
#838 = ORIENTED_EDGE ( 'NONE', *, *, #715, .F. ) ;
#839 = CARTESIAN_POINT ( 'NONE',  ( -108.0593793656032631, 0.000000000000000000, 1.866939305214279754 ) ) ;
#840 = ORIENTED_EDGE ( 'NONE', *, *, #338, .T. ) ;
#841 = LINE ( 'NONE', #129, #708 ) ;
#842 = DIRECTION ( 'NONE',  ( 0.000000000000000000, 0.000000000000000000, 1.000000000000000000 ) ) ;
#843 = ORIENTED_EDGE ( 'NONE', *, *, #662, .T. ) ;
#844 = LINE ( 'NONE', #677, #523 ) ;
#845 = EDGE_LOOP ( 'NONE', ( #867, #725, #47, #142, #974, #644, #924, #559, #64, #9, #277, #339 ) ) ;
#846 = DIRECTION ( 'NONE',  ( 0.000000000000000000, 0.7071067811865487940, 0.7071067811865463515 ) ) ;
#847 = CARTESIAN_POINT ( 'NONE',  ( 158.9406206343967085, 10.00000000000000178, 32.35837776191832660 ) ) ;
#848 = AXIS2_PLACEMENT_3D ( 'NONE', #1092, #405, #297 ) ;
#849 = ORIENTED_EDGE ( 'NONE', *, *, #798, .F. ) ;
#850 = CARTESIAN_POINT ( 'NONE',  ( 186.9406206343967085, 10.00000000000000000, -2.341622238081685126 ) ) ;
#851 = ORIENTED_EDGE ( 'NONE', *, *, #637, .F. ) ;
#852 = CYLINDRICAL_SURFACE ( 'NONE', #172, 2.399999999999992362 ) ;
#853 = VECTOR ( 'NONE', #143, 1000.000000000000000 ) ;
#854 = DIRECTION ( 'NONE',  ( -0.000000000000000000, -1.000000000000000000, -0.000000000000000000 ) ) ;
#855 = VECTOR ( 'NONE', #1105, 1000.000000000000000 ) ;
#856 = ORIENTED_EDGE ( 'NONE', *, *, #155, .F. ) ;
#857 = VERTEX_POINT ( 'NONE', #819 ) ;
#858 = DIRECTION ( 'NONE',  ( -0.000000000000000000, 1.000000000000000000, -0.000000000000000000 ) ) ;
#859 = DIRECTION ( 'NONE',  ( -0.000000000000000000, 1.000000000000000000, -0.000000000000000000 ) ) ;
#860 = EDGE_CURVE ( 'NONE', #502, #670, #975, .T. ) ;
#861 = VERTEX_POINT ( 'NONE', #984 ) ;
#862 = APPROVAL_STATUS ( 'not_yet_approved' ) ;
#863 = ORIENTED_EDGE ( 'NONE', *, *, #1037, .T. ) ;
#864 = LINE ( 'NONE', #705, #20 ) ;
#865 = DIRECTION ( 'NONE',  ( 0.000000000000000000, 0.000000000000000000, -1.000000000000000000 ) ) ;
#866 = VECTOR ( 'NONE', #494, 1000.000000000000000 ) ;
#867 = ORIENTED_EDGE ( 'NONE', *, *, #930, .F. ) ;
#868 = ORIENTED_EDGE ( 'NONE', *, *, #255, .F. ) ;
#869 = FACE_OUTER_BOUND ( 'NONE', #845, .T. ) ;
#870 = ADVANCED_FACE ( 'NONE', ( #352 ), #10, .F. ) ;
#871 = VECTOR ( 'NONE', #985, 1000.000000000000000 ) ;
#872 = CARTESIAN_POINT ( 'NONE',  ( 37.94062063439672272, 10.00000000000000178, -2.341622238081686014 ) ) ;
#873 = EDGE_LOOP ( 'NONE', ( #1098, #945, #740, #735 ) ) ;
#874 = COORDINATED_UNIVERSAL_TIME_OFFSET ( 3, 0, .AHEAD. ) ;
#875 = APPROVAL_PERSON_ORGANIZATION ( #951, #499, #703 ) ;
#876 = CC_DESIGN_PERSON_AND_ORGANIZATION_ASSIGNMENT ( #1110, #958, ( #230 ) ) ;
#877 = CARTESIAN_POINT ( 'NONE',  ( -111.0593793656032489, 10.00000000000000000, -2.341622238081685126 ) ) ;
#878 = CARTESIAN_POINT ( 'NONE',  ( 188.9406206343967085, 0.000000000000000000, -0.3416222380816843485 ) ) ;
#879 = ORIENTED_EDGE ( 'NONE', *, *, #964, .T. ) ;
#880 = ORIENTED_EDGE ( 'NONE', *, *, #565, .F. ) ;
#881 = EDGE_CURVE ( 'NONE', #263, #74, #189, .T. ) ;
#882 = CARTESIAN_POINT ( 'NONE',  ( 158.9406206343967085, 2.000000000000000000, 30.05837776191830102 ) ) ;
#883 = EDGE_CURVE ( 'NONE', #1137, #805, #1155, .T. ) ;
#884 = CIRCLE ( 'NONE', #299, 2.000000000000000888 ) ;
#885 = AXIS2_PLACEMENT_3D ( 'NONE', #837, #125, #597 ) ;
#886 = EDGE_LOOP ( 'NONE', ( #1073, #354, #1040, #98 ) ) ;
#887 = CARTESIAN_POINT ( 'NONE',  ( 188.9406206343967085, 10.00000000000000000, -0.3416222380816843485 ) ) ;
#888 = VECTOR ( 'NONE', #525, 1000.000000000000000 ) ;
#889 = LINE ( 'NONE', #1059, #533 ) ;
#890 = AXIS2_PLACEMENT_3D ( 'NONE', #110, #927, #835 ) ;
#891 = ORIENTED_EDGE ( 'NONE', *, *, #42, .T. ) ;
#892 = CARTESIAN_POINT ( 'NONE',  ( 186.9406206343967085, 0.000000000000000000, 55.65837776191827402 ) ) ;
#893 = DIRECTION ( 'NONE',  ( 1.000000000000000000, 0.000000000000000000, -0.000000000000000000 ) ) ;
#894 = ADVANCED_FACE ( 'NONE', ( #545 ), #281, .F. ) ;
#895 = ORIENTED_EDGE ( 'NONE', *, *, #623, .T. ) ;
#896 = DIRECTION ( 'NONE',  ( 0.000000000000000000, 0.000000000000000000, 1.000000000000000000 ) ) ;
#897 = FACE_BOUND ( 'NONE', #287, .T. ) ;
#898 = LINE ( 'NONE', #24, #866 ) ;
#899 = ORIENTED_EDGE ( 'NONE', *, *, #636, .F. ) ;
#900 = LINE ( 'NONE', #5, #424 ) ;
#901 = LINE ( 'NONE', #981, #1048 ) ;
#902 = VECTOR ( 'NONE', #903, 1000.000000000000000 ) ;
#903 = DIRECTION ( 'NONE',  ( -1.000000000000000000, -0.000000000000000000, -0.000000000000000000 ) ) ;
#904 = VECTOR ( 'NONE', #1145, 1000.000000000000000 ) ;
#905 = ORIENTED_EDGE ( 'NONE', *, *, #538, .F. ) ;
#906 = CARTESIAN_POINT ( 'NONE',  ( 142.1471470273994271, 10.00000000000000000, -27.34162223808168690 ) ) ;
#907 = EDGE_CURVE ( 'NONE', #670, #757, #900, .T. ) ;
#908 = CIRCLE ( 'NONE', #802, 2.399999999999999467 ) ;
#909 = DIRECTION ( 'NONE',  ( 0.000000000000000000, 0.000000000000000000, -1.000000000000000000 ) ) ;
#910 = DIRECTION ( 'NONE',  ( 0.000000000000000000, -0.000000000000000000, -1.000000000000000000 ) ) ;
#911 = ORIENTED_EDGE ( 'NONE', *, *, #1055, .T. ) ;
#912 = DIRECTION ( 'NONE',  ( 0.009544965086860099715, -0.000000000000000000, -0.9999544457831519573 ) ) ;
#913 = DIRECTION ( 'NONE',  ( 0.9999921366622992469, -0.000000000000000000, 0.003965679458733602919 ) ) ;
#914 = ADVANCED_FACE ( 'NONE', ( #540 ), #86, .F. ) ;
#915 = DIRECTION ( 'NONE',  ( -1.000000000000000000, 0.000000000000000000, -0.000000000000000000 ) ) ;
#916 = EDGE_CURVE ( 'NONE', #495, #1056, #481, .T. ) ;
#917 = ADVANCED_FACE ( 'NONE', ( #192 ), #815, .T. ) ;
#918 = VERTEX_POINT ( 'NONE', #536 ) ;
#919 = PLANE ( 'NONE',  #443 ) ;
#920 = FACE_OUTER_BOUND ( 'NONE', #950, .T. ) ;
#921 = CIRCLE ( 'NONE', #15, 2.000000000000001776 ) ;
#922 = LINE ( 'NONE', #112, #973 ) ;
#923 = VECTOR ( 'NONE', #537, 1000.000000000000000 ) ;
#924 = ORIENTED_EDGE ( 'NONE', *, *, #907, .F. ) ;
#925 = CARTESIAN_POINT ( 'NONE',  ( 37.94062063439672272, 7.699999999999997513, -2.341622238081686014 ) ) ;
#926 = ORIENTED_EDGE ( 'NONE', *, *, #95, .T. ) ;
#927 = DIRECTION ( 'NONE',  ( 1.000000000000000000, 0.000000000000000000, 0.000000000000000000 ) ) ;
#928 = AXIS2_PLACEMENT_3D ( 'NONE', #906, #1069, #258 ) ;
#929 = PLANE ( 'NONE',  #168 ) ;
#930 = EDGE_CURVE ( 'NONE', #983, #573, #1085, .T. ) ;
#931 = EDGE_LOOP ( 'NONE', ( #516, #851 ) ) ;
#932 = CYLINDRICAL_SURFACE ( 'NONE', #349, 2.399999999999992362 ) ;
#933 = LINE ( 'NONE', #680, #1097 ) ;
#934 = EDGE_CURVE ( 'NONE', #90, #568, #82, .T. ) ;
#935 = CYLINDRICAL_SURFACE ( 'NONE', #848, 2.399999999999985256 ) ;
#936 = ORIENTED_EDGE ( 'NONE', *, *, #881, .F. ) ;
#937 = CARTESIAN_POINT ( 'NONE',  ( -28.85285297260059423, 10.00000000000000000, -27.34162223808168690 ) ) ;
#938 = DIRECTION ( 'NONE',  ( 0.000000000000000000, 0.000000000000000000, -1.000000000000000000 ) ) ;
#939 = LINE ( 'NONE', #944, #417 ) ;
#940 = EDGE_LOOP ( 'NONE', ( #672, #1032, #401, #220 ) ) ;
#941 = CARTESIAN_POINT ( 'NONE',  ( -111.0593793656032631, 10.00000000000000000, -0.3416222380816851811 ) ) ;
#942 = EDGE_LOOP ( 'NONE', ( #190, #979, #583, #868 ) ) ;
#943 = LINE ( 'NONE', #303, #345 ) ;
#944 = CARTESIAN_POINT ( 'NONE',  ( 188.9406206343967085, 10.00000000000000000, 55.65837776191827402 ) ) ;
#945 = ORIENTED_EDGE ( 'NONE', *, *, #411, .T. ) ;
#946 = PERSON_AND_ORGANIZATION ( #197, #612 ) ;
#947 = ORIENTED_EDGE ( 'NONE', *, *, #253, .T. ) ;
#948 = DIRECTION ( 'NONE',  ( -1.164243943608595688E-16, 0.000000000000000000, -1.000000000000000000 ) ) ;
#949 = LINE ( 'NONE', #41, #53 ) ;
#950 = EDGE_LOOP ( 'NONE', ( #1034, #856, #849, #270 ) ) ;
#951 = PERSON_AND_ORGANIZATION ( #197, #612 ) ;
#952 = VERTEX_POINT ( 'NONE', #988 ) ;
#953 = DIRECTION ( 'NONE',  ( 8.659560562354955045E-17, 0.7071067811865456854, -0.7071067811865493491 ) ) ;
#954 = DIRECTION ( 'NONE',  ( -0.000000000000000000, -1.000000000000000000, -0.000000000000000000 ) ) ;
#955 = PRODUCT ( '\X2\0445\X0\1', '\X2\0445\X0\1', '', ( #790 ) ) ;
#956 = AXIS2_PLACEMENT_3D ( 'NONE', #1107, #859, #29 ) ;
#957 = ORIENTED_EDGE ( 'NONE', *, *, #337, .F. ) ;
#958 = PERSON_AND_ORGANIZATION_ROLE ( 'creator' ) ;
#959 = EDGE_LOOP ( 'NONE', ( #225, #693, #604, #899, #619, #957, #390, #713 ) ) ;
#960 = LINE ( 'NONE', #154, #783 ) ;
#961 = AXIS2_PLACEMENT_3D ( 'NONE', #451, #464, #743 ) ;
#962 = DIRECTION ( 'NONE',  ( -0.003965679458733602919, 0.000000000000000000, 0.9999921366622992469 ) ) ;
#963 = ORIENTED_EDGE ( 'NONE', *, *, #250, .F. ) ;
#964 = EDGE_CURVE ( 'NONE', #1100, #710, #446, .T. ) ;
#965 = CALENDAR_DATE ( 2026, 18, 1 ) ;
#966 = ORIENTED_EDGE ( 'NONE', *, *, #89, .F. ) ;
#967 = DIRECTION ( 'NONE',  ( -0.000000000000000000, 1.000000000000000000, -0.000000000000000000 ) ) ;
#968 = CARTESIAN_POINT ( 'NONE',  ( -11.99289496014687195, 2.000000000000000000, -8.960339099444883715 ) ) ;
#969 =( LENGTH_UNIT ( ) NAMED_UNIT ( * ) SI_UNIT ( .MILLI., .METRE. ) );
#970 = VERTEX_POINT ( 'NONE', #186 ) ;
#971 = CYLINDRICAL_SURFACE ( 'NONE', #1141, 2.399999999999985256 ) ;
#972 = DIRECTION ( 'NONE',  ( 0.000000000000000000, 0.000000000000000000, 1.000000000000000000 ) ) ;
#973 = VECTOR ( 'NONE', #18, 1000.000000000000000 ) ;
#974 = ORIENTED_EDGE ( 'NONE', *, *, #623, .F. ) ;
#975 = LINE ( 'NONE', #736, #904 ) ;
#976 = CARTESIAN_POINT ( 'NONE',  ( -111.0593793656032489, 10.00000000000000000, -2.341622238081685126 ) ) ;
#977 = CIRCLE ( 'NONE', #399, 2.399999999999999467 ) ;
#978 = CC_DESIGN_APPROVAL ( #483, ( #598 ) ) ;
#979 = ORIENTED_EDGE ( 'NONE', *, *, #92, .T. ) ;
#980 = CARTESIAN_POINT ( 'NONE',  ( 37.94062063439672272, 2.000000000000000000, -2.341622238081686014 ) ) ;
#981 = CARTESIAN_POINT ( 'NONE',  ( 142.1471470273994271, 10.00000000000000000, -27.34162223808168690 ) ) ;
#982 = DIRECTION ( 'NONE',  ( 0.000000000000000000, 0.000000000000000000, 1.000000000000000000 ) ) ;
#983 = VERTEX_POINT ( 'NONE', #550 ) ;
#984 = CARTESIAN_POINT ( 'NONE',  ( 183.9264215074951210, 2.000000000000000000, 1.812803882113436904 ) ) ;
#985 = DIRECTION ( 'NONE',  ( -1.000000000000000000, -0.000000000000000000, -0.000000000000000000 ) ) ;
#986 = PLANE ( 'NONE',  #320 ) ;
#987 = ORIENTED_EDGE ( 'NONE', *, *, #655, .F. ) ;
#988 = CARTESIAN_POINT ( 'NONE',  ( -111.0593793656032631, 10.00000000000000000, 57.65837776191830955 ) ) ;
#989 = CARTESIAN_POINT ( 'NONE',  ( 128.8571050398529678, 2.000000000000000000, -8.401768755544246403 ) ) ;
#990 = CARTESIAN_POINT ( 'NONE',  ( -111.0593793656032489, 0.000000000000000000, -2.341622238081685126 ) ) ;
#991 = EDGE_CURVE ( 'NONE', #824, #918, #463, .T. ) ;
#992 = ORIENTED_EDGE ( 'NONE', *, *, #106, .F. ) ;
#993 = DIRECTION ( 'NONE',  ( 0.9999921366623016894, -0.000000000000000000, 0.003965679458100082773 ) ) ;
#994 = AXIS2_PLACEMENT_3D ( 'NONE', #450, #556, #714 ) ;
#995 = DIRECTION ( 'NONE',  ( 0.000000000000000000, 0.000000000000000000, 1.000000000000000000 ) ) ;
#996 = EDGE_CURVE ( 'NONE', #490, #814, #1143, .T. ) ;
#997 = CARTESIAN_POINT ( 'NONE',  ( 186.9406206343967085, 0.000000000000000000, -2.341622238081685126 ) ) ;
#998 = EDGE_LOOP ( 'NONE', ( #30, #753, #966, #1131 ) ) ;
#999 = CARTESIAN_POINT ( 'NONE',  ( 142.1471470273994271, 10.00000000000000000, -2.341622238081684237 ) ) ;
#1000 = DIRECTION ( 'NONE',  ( 0.000000000000000000, 0.7071067811865435759, 0.7071067811865515695 ) ) ;
#1001 = CARTESIAN_POINT ( 'NONE',  ( 186.9406206343967085, 10.00000000000000000, 55.65837776191827402 ) ) ;
#1002 = ORIENTED_EDGE ( 'NONE', *, *, #798, .T. ) ;
#1003 = DIRECTION ( 'NONE',  ( -1.000000000000000000, 0.000000000000000000, 0.000000000000000000 ) ) ;
#1004 = LINE ( 'NONE', #562, #19 ) ;
#1005 = AXIS2_PLACEMENT_3D ( 'NONE', #872, #16, #648 ) ;
#1006 = AXIS2_PLACEMENT_3D ( 'NONE', #1015, #480, #398 ) ;
#1007 = EDGE_CURVE ( 'NONE', #1061, #1144, #491, .T. ) ;
#1008 = CARTESIAN_POINT ( 'NONE',  ( 186.9406206343967085, 10.00000000000000000, 57.65837776191827402 ) ) ;
#1009 = VECTOR ( 'NONE', #909, 1000.000000000000000 ) ;
#1010 = ORIENTED_EDGE ( 'NONE', *, *, #202, .F. ) ;
#1011 = CARTESIAN_POINT ( 'NONE',  ( 142.1471470273994271, 0.000000000000000000, -2.341622238081684237 ) ) ;
#1012 = AXIS2_PLACEMENT_3D ( 'NONE', #1138, #1041, #415 ) ;
#1013 = FACE_OUTER_BOUND ( 'NONE', #511, .T. ) ;
#1014 = CIRCLE ( 'NONE', #157, 2.000000000000000888 ) ;
#1015 = CARTESIAN_POINT ( 'NONE',  ( 158.9406206343967085, 10.00000000000000178, 27.65837776191831310 ) ) ;
#1016 = ORIENTED_EDGE ( 'NONE', *, *, #883, .F. ) ;
#1017 = DIRECTION ( 'NONE',  ( -0.000000000000000000, -0.000000000000000000, -1.000000000000000000 ) ) ;
#1018 = CARTESIAN_POINT ( 'NONE',  ( -111.0593793656032631, 10.00000000000000000, -0.3416222380816851811 ) ) ;
#1019 = DIRECTION ( 'NONE',  ( -0.000000000000000000, -1.000000000000000000, -0.000000000000000000 ) ) ;
#1020 = ORIENTED_EDGE ( 'NONE', *, *, #647, .F. ) ;
#1021 = DIRECTION ( 'NONE',  ( -0.000000000000000000, -1.000000000000000000, -0.000000000000000000 ) ) ;
#1022 = CARTESIAN_POINT ( 'NONE',  ( 37.94062063439672272, 10.00000000000000178, -7.041622238081681751 ) ) ;
#1023 = CARTESIAN_POINT ( 'NONE',  ( 37.94062063439672272, 10.00000000000000178, -2.341622238081686014 ) ) ;
#1024 = CIRCLE ( 'NONE', #109, 2.399999999999985256 ) ;
#1025 = ORIENTED_EDGE ( 'NONE', *, *, #80, .F. ) ;
#1026 = PERSON_AND_ORGANIZATION_ROLE ( 'design_supplier' ) ;
#1027 = VECTOR ( 'NONE', #1091, 1000.000000000000000 ) ;
#1028 = EDGE_CURVE ( 'NONE', #435, #334, #486, .T. ) ;
#1029 = VERTEX_POINT ( 'NONE', #850 ) ;
#1030 = CARTESIAN_POINT ( 'NONE',  ( -83.05937936560327728, 2.000000000000000000, 27.65837776191835928 ) ) ;
#1031 = LINE ( 'NONE', #138, #438 ) ;
#1032 = ORIENTED_EDGE ( 'NONE', *, *, #130, .F. ) ;
#1033 = DATE_AND_TIME ( #503, #139 ) ;
#1034 = ORIENTED_EDGE ( 'NONE', *, *, #1063, .T. ) ;
#1035 = CARTESIAN_POINT ( 'NONE',  ( 128.8571050398529678, 2.000000000000000000, -8.401768755544246403 ) ) ;
#1036 = LINE ( 'NONE', #426, #73 ) ;
#1037 = EDGE_CURVE ( 'NONE', #317, #1056, #22, .T. ) ;
#1038 = VERTEX_POINT ( 'NONE', #307 ) ;
#1039 = DATE_TIME_ROLE ( 'classification_date' ) ;
#1040 = ORIENTED_EDGE ( 'NONE', *, *, #637, .T. ) ;
#1041 = DIRECTION ( 'NONE',  ( 0.000000000000000000, 1.000000000000000000, -0.000000000000000000 ) ) ;
#1042 = LINE ( 'NONE', #878, #321 ) ;
#1043 = ORIENTED_EDGE ( 'NONE', *, *, #493, .F. ) ;
#1044 = APPROVAL_ROLE ( '' ) ;
#1045 = ADVANCED_FACE ( 'NONE', ( #671 ), #758, .F. ) ;
#1046 = ORIENTED_EDGE ( 'NONE', *, *, #77, .T. ) ;
#1047 = FACE_BOUND ( 'NONE', #959, .T. ) ;
#1048 = VECTOR ( 'NONE', #272, 1000.000000000000000 ) ;
#1049 = DIRECTION ( 'NONE',  ( -0.000000000000000000, -1.000000000000000000, -0.000000000000000000 ) ) ;
#1050 = AXIS2_PLACEMENT_3D ( 'NONE', #892, #103, #732 ) ;
#1051 = APPROVAL_STATUS ( 'not_yet_approved' ) ;
#1052 = ORIENTED_EDGE ( 'NONE', *, *, #829, .F. ) ;
#1053 = LINE ( 'NONE', #254, #853 ) ;
#1054 = FACE_OUTER_BOUND ( 'NONE', #170, .T. ) ;
#1055 = EDGE_CURVE ( 'NONE', #1029, #62, #37, .T. ) ;
#1056 = VERTEX_POINT ( 'NONE', #658 ) ;
#1057 = DIRECTION ( 'NONE',  ( -0.000000000000000000, 1.000000000000000000, -0.000000000000000000 ) ) ;
#1058 = ADVANCED_FACE ( 'NONE', ( #402 ), #210, .F. ) ;
#1059 = CARTESIAN_POINT ( 'NONE',  ( 186.9406206343967085, 10.00000000000000000, 57.65837776191827402 ) ) ;
#1060 = DATE_AND_TIME ( #965, #330 ) ;
#1061 = VERTEX_POINT ( 'NONE', #999 ) ;
#1062 = DIRECTION ( 'NONE',  ( -1.000000000000000000, 0.000000000000000000, 0.000000000000000000 ) ) ;
#1063 = EDGE_CURVE ( 'NONE', #568, #273, #388, .T. ) ;
#1064 = LINE ( 'NONE', #459, #1009 ) ;
#1065 = VECTOR ( 'NONE', #11, 1000.000000000000000 ) ;
#1066 = LINE ( 'NONE', #101, #777 ) ;
#1067 = VECTOR ( 'NONE', #26, 1000.000000000000000 ) ;
#1068 = EDGE_LOOP ( 'NONE', ( #947, #1043, #471, #632 ) ) ;
#1069 = DIRECTION ( 'NONE',  ( -1.000000000000000000, 0.000000000000000000, 0.000000000000000000 ) ) ;
#1070 = CARTESIAN_POINT ( 'NONE',  ( 0.000000000000000000, 2.000000000000000000, 0.000000000000000000 ) ) ;
#1071 = DIRECTION ( 'NONE',  ( 0.000000000000000000, 0.000000000000000000, 1.000000000000000000 ) ) ;
#1072 = PRODUCT_DEFINITION_SHAPE ( 'NONE', 'NONE',  #598 ) ;
#1073 = ORIENTED_EDGE ( 'NONE', *, *, #522, .F. ) ;
#1074 = DIRECTION ( 'NONE',  ( -0.000000000000000000, -1.000000000000000000, -0.000000000000000000 ) ) ;
#1075 = CARTESIAN_POINT ( 'NONE',  ( 158.9406206343967085, 2.000000000000000000, 25.25837776191832873 ) ) ;
#1076 = DIRECTION ( 'NONE',  ( -0.000000000000000000, -1.000000000000000000, -0.000000000000000000 ) ) ;
#1077 = EDGE_LOOP ( 'NONE', ( #347, #234, #21, #554 ) ) ;
#1078 = CARTESIAN_POINT ( 'NONE',  ( -108.0593793656032631, 2.000000000000000000, 1.866939305214279754 ) ) ;
#1079 = VECTOR ( 'NONE', #854, 1000.000000000000000 ) ;
#1080 = DIRECTION ( 'NONE',  ( -1.000000000000000000, -0.000000000000000000, -0.000000000000000000 ) ) ;
#1081 = CARTESIAN_POINT ( 'NONE',  ( 183.7201862726277000, 2.000000000000000000, 53.81741376451762449 ) ) ;
#1082 = AXIS2_PLACEMENT_3D ( 'NONE', #1018, #659, #938 ) ;
#1083 = EDGE_LOOP ( 'NONE', ( #1046, #290, #601, #911 ) ) ;
#1084 = DIRECTION ( 'NONE',  ( 0.009544965086860099715, -0.000000000000000000, -0.9999544457831519573 ) ) ;
#1085 = CIRCLE ( 'NONE', #1050, 2.000000000000001776 ) ;
#1086 = CARTESIAN_POINT ( 'NONE',  ( -83.05937936560327728, 7.700000000000003730, 25.25837776191837492 ) ) ;
#1087 = DIRECTION ( 'NONE',  ( -0.000000000000000000, 1.000000000000000000, -0.000000000000000000 ) ) ;
#1088 = EDGE_LOOP ( 'NONE', ( #163, #1010 ) ) ;
#1089 = CARTESIAN_POINT ( 'NONE',  ( -108.0593793656032631, 2.000000000000000000, 1.866939305214279754 ) ) ;
#1090 = ORIENTED_EDGE ( 'NONE', *, *, #1130, .T. ) ;
#1091 = DIRECTION ( 'NONE',  ( 1.000000000000000000, -0.000000000000000000, -1.164243943608595688E-16 ) ) ;
#1092 = CARTESIAN_POINT ( 'NONE',  ( 158.9406206343967085, 10.00000000000000000, 27.65837776191831310 ) ) ;
#1093 = VERTEX_POINT ( 'NONE', #196 ) ;
#1094 = CARTESIAN_POINT ( 'NONE',  ( -83.05937936560327728, 10.00000000000000000, 27.65837776191835928 ) ) ;
#1095 = CARTESIAN_POINT ( 'NONE',  ( 158.9406206343967085, 10.00000000000000178, 32.35837776191832660 ) ) ;
#1096 = DIRECTION ( 'NONE',  ( 1.000000000000000000, -0.000000000000000000, 0.000000000000000000 ) ) ;
#1097 = VECTOR ( 'NONE', #27, 1000.000000000000000 ) ;
#1098 = ORIENTED_EDGE ( 'NONE', *, *, #92, .F. ) ;
#1099 = DIRECTION ( 'NONE',  ( 0.000000000000000000, 0.000000000000000000, 1.000000000000000000 ) ) ;
#1100 = VERTEX_POINT ( 'NONE', #825 ) ;
#1101 = CYLINDRICAL_SURFACE ( 'NONE', #1082, 2.000000000000000888 ) ;
#1102 = AXIS2_PLACEMENT_3D ( 'NONE', #243, #422, #407 ) ;
#1103 = CARTESIAN_POINT ( 'NONE',  ( -28.85285297260059423, 10.00000000000000000, -2.341622238081685126 ) ) ;
#1104 = EDGE_LOOP ( 'NONE', ( #895, #784, #1154, #239 ) ) ;
#1105 = DIRECTION ( 'NONE',  ( -0.000000000000000000, -1.000000000000000000, -0.000000000000000000 ) ) ;
#1106 = CARTESIAN_POINT ( 'NONE',  ( -83.05937936560327728, 10.00000000000000178, 22.95837776191836355 ) ) ;
#1107 = CARTESIAN_POINT ( 'NONE',  ( 158.9406206343967085, 7.700000000000003730, 27.65837776191831310 ) ) ;
#1108 = EDGE_CURVE ( 'NONE', #1144, #502, #752, .T. ) ;
#1109 = ORIENTED_EDGE ( 'NONE', *, *, #465, .F. ) ;
#1110 = PERSON_AND_ORGANIZATION ( #197, #612 ) ;
#1111 = ADVANCED_FACE ( 'NONE', ( #14 ), #932, .F. ) ;
#1112 = ORIENTED_EDGE ( 'NONE', *, *, #662, .F. ) ;
#1113 = DIRECTION ( 'NONE',  ( 0.003965679458733602919, 0.000000000000000000, -0.9999921366622992469 ) ) ;
#1114 = EDGE_CURVE ( 'NONE', #814, #490, #908, .T. ) ;
#1115 = DIRECTION ( 'NONE',  ( -0.000000000000000000, 1.000000000000000000, -0.000000000000000000 ) ) ;
#1116 = VECTOR ( 'NONE', #372, 1000.000000000000000 ) ;
#1117 = AXIS2_PLACEMENT_3D ( 'NONE', #259, #707, #972 ) ;
#1118 = VERTEX_POINT ( 'NONE', #127 ) ;
#1119 = AXIS2_PLACEMENT_3D ( 'NONE', #666, #488, #478 ) ;
#1120 = ORIENTED_EDGE ( 'NONE', *, *, #40, .F. ) ;
#1121 = LINE ( 'NONE', #518, #689 ) ;
#1122 = CARTESIAN_POINT ( 'NONE',  ( -108.0593793656032631, 2.000000000000000000, 1.866939305214279754 ) ) ;
#1123 = VECTOR ( 'NONE', #620, 1000.000000000000000 ) ;
#1124 = CIRCLE ( 'NONE', #133, 2.399999999999985256 ) ;
#1125 = ORIENTED_EDGE ( 'NONE', *, *, #655, .T. ) ;
#1126 = ORIENTED_EDGE ( 'NONE', *, *, #916, .F. ) ;
#1127 = DIRECTION ( 'NONE',  ( 0.000000000000000000, -0.000000000000000000, -1.000000000000000000 ) ) ;
#1128 = EDGE_CURVE ( 'NONE', #702, #603, #1014, .T. ) ;
#1129 = DIRECTION ( 'NONE',  ( -0.000000000000000000, -1.000000000000000000, -0.000000000000000000 ) ) ;
#1130 = EDGE_CURVE ( 'NONE', #1038, #861, #376, .T. ) ;
#1131 = ORIENTED_EDGE ( 'NONE', *, *, #715, .T. ) ;
#1132 = APPROVAL_DATE_TIME ( #772, #499 ) ;
#1133 = EDGE_LOOP ( 'NONE', ( #147, #1120, #412, #521 ) ) ;
#1134 = CARTESIAN_POINT ( 'NONE',  ( -108.0593793656032631, 2.000000000000000000, 1.866939305214279754 ) ) ;
#1135 = ADVANCED_BREP_SHAPE_REPRESENTATION ( '\X2\0445\X0\1', ( #420, #1102 ), #175 ) ;
#1136 = LINE ( 'NONE', #515, #759 ) ;
#1137 = VERTEX_POINT ( 'NONE', #665 ) ;
#1138 = CARTESIAN_POINT ( 'NONE',  ( 186.9406206343967085, 10.00000000000000000, 55.65837776191827402 ) ) ;
#1139 = VECTOR ( 'NONE', #71, 1000.000000000000000 ) ;
#1140 = LINE ( 'NONE', #531, #830 ) ;
#1141 = AXIS2_PLACEMENT_3D ( 'NONE', #51, #613, #711 ) ;
#1142 = CONICAL_SURFACE ( 'NONE', #800, 4.700000000000013500, 0.7853981633974539411 ) ;
#1143 = CIRCLE ( 'NONE', #461, 2.399999999999999467 ) ;
#1144 = VERTEX_POINT ( 'NONE', #1011 ) ;
#1145 = DIRECTION ( 'NONE',  ( -1.000000000000000000, -0.000000000000000000, -0.000000000000000000 ) ) ;
#1146 = DIRECTION ( 'NONE',  ( 0.000000000000000000, 0.000000000000000000, -1.000000000000000000 ) ) ;
#1147 = EDGE_CURVE ( 'NONE', #273, #364, #844, .T. ) ;
#1148 = VERTEX_POINT ( 'NONE', #578 ) ;
#1149 = ADVANCED_FACE ( 'NONE', ( #741 ), #652, .F. ) ;
#1150 = CARTESIAN_POINT ( 'NONE',  ( 37.94062063439672272, 7.699999999999997513, -2.341622238081686014 ) ) ;
#1151 = ADVANCED_FACE ( 'NONE', ( #204 ), #919, .F. ) ;
#1152 = DIRECTION ( 'NONE',  ( -0.003965679458733602919, 0.000000000000000000, 0.9999921366622992469 ) ) ;
#1153 = DIRECTION ( 'NONE',  ( 0.000000000000000000, 0.000000000000000000, -1.000000000000000000 ) ) ;
#1154 = ORIENTED_EDGE ( 'NONE', *, *, #1128, .F. ) ;
#1155 = LINE ( 'NONE', #726, #1123 ) ;
ENDSEC;
END-ISO-10303-21;
