ISO-10303-21;
HEADER;
FILE_DESCRIPTION (( 'STEP AP203' ),
    '1' );
FILE_NAME ('õ2.STEP',
    '2026-01-18T20:51:13',
    ( '' ),
    ( '' ),
    'SwSTEP 2.0',
    'SolidWorks 2024',
    '' );
FILE_SCHEMA (( 'CONFIG_CONTROL_DESIGN' ));
ENDSEC;

DATA;
#1 = CARTESIAN_POINT ( 'NONE',  ( 63.06277317551847972, -19.72263016300044214, 5.000000000000000000 ) ) ;
#2 = ORIENTED_EDGE ( 'NONE', *, *, #176, .T. ) ;
#3 = VECTOR ( 'NONE', #342, 1000.000000000000000 ) ;
#4 = AXIS2_PLACEMENT_3D ( 'NONE', #546, #220, #269 ) ;
#5 = LINE ( 'NONE', #429, #37 ) ;
#6 = DIRECTION ( 'NONE',  ( -0.000000000000000000, -0.000000000000000000, -1.000000000000000000 ) ) ;
#7 = ORIENTED_EDGE ( 'NONE', *, *, #79, .T. ) ;
#8 = CARTESIAN_POINT ( 'NONE',  ( 83.06277317551847261, -19.72263016300045990, -8.673617379884035472E-16 ) ) ;
#9 = LINE ( 'NONE', #54, #46 ) ;
#10 = ORIENTED_EDGE ( 'NONE', *, *, #461, .F. ) ;
#11 = CARTESIAN_POINT ( 'NONE',  ( -97.93722682448149897, -19.72263016300045990, 5.000000000000000000 ) ) ;
#12 = DIRECTION ( 'NONE',  ( -0.000000000000000000, -0.000000000000000000, 1.000000000000000000 ) ) ;
#13 = EDGE_LOOP ( 'NONE', ( #197, #492, #331, #495 ) ) ;
#14 = VECTOR ( 'NONE', #536, 1000.000000000000000 ) ;
#15 = CARTESIAN_POINT ( 'NONE',  ( -102.9372268244814990, -3.722630163000443915, 0.000000000000000000 ) ) ;
#16 = CC_DESIGN_APPROVAL ( #613, ( #612 ) ) ;
#17 = CC_DESIGN_DATE_AND_TIME_ASSIGNMENT ( #558, #330, ( #612 ) ) ;
#18 = DIRECTION ( 'NONE',  ( 0.000000000000000000, 0.000000000000000000, -1.000000000000000000 ) ) ;
#19 = ORIENTED_EDGE ( 'NONE', *, *, #362, .T. ) ;
#20 = FACE_BOUND ( 'NONE', #436, .T. ) ;
#21 = ORIENTED_EDGE ( 'NONE', *, *, #516, .F. ) ;
#22 = CARTESIAN_POINT ( 'NONE',  ( 0.000000000000000000, 0.000000000000000000, 0.000000000000000000 ) ) ;
#23 = FACE_OUTER_BOUND ( 'NONE', #361, .T. ) ;
#24 = APPROVAL_ROLE ( '' ) ;
#25 = CIRCLE ( 'NONE', #226, 4.699999999999995737 ) ;
#26 = APPROVAL_PERSON_ORGANIZATION ( #478, #613, #33 ) ;
#27 = DIRECTION ( 'NONE',  ( -0.000000000000000000, -0.000000000000000000, 1.000000000000000000 ) ) ;
#28 = VERTEX_POINT ( 'NONE', #136 ) ;
#29 = ADVANCED_FACE ( 'NONE', ( #141, #318, #420 ), #187, .F. ) ;
#30 = ORIENTED_EDGE ( 'NONE', *, *, #327, .T. ) ;
#31 = DIRECTION ( 'NONE',  ( 0.000000000000000000, 0.000000000000000000, 1.000000000000000000 ) ) ;
#32 = CARTESIAN_POINT ( 'NONE',  ( 88.06277317551847261, -3.722630163000443915, 5.000000000000000000 ) ) ;
#33 = APPROVAL_ROLE ( '' ) ;
#34 = APPLICATION_CONTEXT ( 'configuration controlled 3d designs of mechanical parts and assemblies' ) ;
#35 = CLOSED_SHELL ( 'NONE', ( #414, #526, #525, #573, #467, #391, #419, #602, #95, #270, #437, #251, #29, #350, #84, #475, #352, #288 ) ) ;
#36 = AXIS2_PLACEMENT_3D ( 'NONE', #261, #118, #18 ) ;
#37 = VECTOR ( 'NONE', #617, 1000.000000000000000 ) ;
#38 = LINE ( 'NONE', #228, #609 ) ;
#39 = DESIGN_CONTEXT ( 'detailed design', #158, 'design' ) ;
#40 = DIRECTION ( 'NONE',  ( 1.000000000000000000, 0.000000000000000000, 0.000000000000000000 ) ) ;
#41 = EDGE_CURVE ( 'NONE', #175, #444, #86, .T. ) ;
#42 = ORIENTED_EDGE ( 'NONE', *, *, #542, .T. ) ;
#43 = EDGE_CURVE ( 'NONE', #307, #78, #184, .T. ) ;
#44 = CARTESIAN_POINT ( 'NONE',  ( -77.93722682448151318, -19.72263016300045990, 5.000000000000000000 ) ) ;
#45 = CARTESIAN_POINT ( 'NONE',  ( 88.06277317551847261, -33.72263016300044569, 0.000000000000000000 ) ) ;
#46 = VECTOR ( 'NONE', #244, 1000.000000000000000 ) ;
#47 = APPROVAL_PERSON_ORGANIZATION ( #603, #188, #455 ) ;
#48 = DIRECTION ( 'NONE',  ( 0.000000000000000000, 0.000000000000000000, -1.000000000000000000 ) ) ;
#49 = ORIENTED_EDGE ( 'NONE', *, *, #306, .F. ) ;
#50 = LINE ( 'NONE', #479, #604 ) ;
#51 = CARTESIAN_POINT ( 'NONE',  ( -102.9372268244814990, -33.72263016300046701, 0.000000000000000000 ) ) ;
#52 = ORIENTED_EDGE ( 'NONE', *, *, #516, .T. ) ;
#53 = DIRECTION ( 'NONE',  ( 1.000000000000000000, -0.000000000000000000, -0.000000000000000000 ) ) ;
#54 = CARTESIAN_POINT ( 'NONE',  ( -77.93722682448151318, -19.72263016300045990, 0.000000000000000000 ) ) ;
#55 = ORIENTED_EDGE ( 'NONE', *, *, #542, .F. ) ;
#56 = AXIS2_PLACEMENT_3D ( 'NONE', #11, #205, #346 ) ;
#57 = DIRECTION ( 'NONE',  ( -0.000000000000000000, -0.000000000000000000, 1.000000000000000000 ) ) ;
#58 = DIRECTION ( 'NONE',  ( -0.000000000000000000, -0.000000000000000000, 1.000000000000000000 ) ) ;
#59 = ORIENTED_EDGE ( 'NONE', *, *, #584, .T. ) ;
#60 = EDGE_CURVE ( 'NONE', #175, #345, #273, .T. ) ;
#61 = DIRECTION ( 'NONE',  ( -1.000000000000000000, -0.000000000000000000, -0.000000000000000000 ) ) ;
#62 = LINE ( 'NONE', #1, #139 ) ;
#63 = EDGE_LOOP ( 'NONE', ( #2, #528 ) ) ;
#64 = CC_DESIGN_PERSON_AND_ORGANIZATION_ASSIGNMENT ( #274, #106, ( #564 ) ) ;
#65 = CARTESIAN_POINT ( 'NONE',  ( -102.6372268244815018, -19.72263016300045990, 5.000000000000000000 ) ) ;
#66 = DIRECTION ( 'NONE',  ( -1.000000000000000000, 0.000000000000000000, -0.000000000000000000 ) ) ;
#67 = ORIENTED_EDGE ( 'NONE', *, *, #550, .F. ) ;
#68 = AXIS2_PLACEMENT_3D ( 'NONE', #291, #202, #486 ) ;
#69 =( NAMED_UNIT ( * ) PLANE_ANGLE_UNIT ( ) SI_UNIT ( $, .RADIAN. ) );
#70 = CARTESIAN_POINT ( 'NONE',  ( -102.9372268244814990, -3.722630163000443915, 0.000000000000000000 ) ) ;
#71 = EDGE_CURVE ( 'NONE', #335, #489, #277, .T. ) ;
#72 = ORIENTED_EDGE ( 'NONE', *, *, #538, .F. ) ;
#73 = LINE ( 'NONE', #177, #434 ) ;
#74 = CARTESIAN_POINT ( 'NONE',  ( -95.68722682448149897, -19.72263016300045990, -8.673617379884035472E-16 ) ) ;
#75 = VERTEX_POINT ( 'NONE', #271 ) ;
#76 = MECHANICAL_CONTEXT ( 'NONE', #34, 'mechanical' ) ;
#77 = LINE ( 'NONE', #211, #547 ) ;
#78 = VERTEX_POINT ( 'NONE', #607 ) ;
#79 = EDGE_CURVE ( 'NONE', #481, #133, #606, .T. ) ;
#80 = APPROVAL_DATE_TIME ( #508, #92 ) ;
#81 = AXIS2_PLACEMENT_3D ( 'NONE', #562, #470, #40 ) ;
#82 = AXIS2_PLACEMENT_3D ( 'NONE', #400, #214, #123 ) ;
#83 = ORIENTED_EDGE ( 'NONE', *, *, #154, .F. ) ;
#84 = ADVANCED_FACE ( 'NONE', ( #515 ), #511, .F. ) ;
#85 = DIRECTION ( 'NONE',  ( -0.000000000000000000, -0.000000000000000000, -1.000000000000000000 ) ) ;
#86 = LINE ( 'NONE', #231, #519 ) ;
#87 = VECTOR ( 'NONE', #90, 1000.000000000000000 ) ;
#88 = VECTOR ( 'NONE', #117, 1000.000000000000000 ) ;
#89 = VECTOR ( 'NONE', #524, 1000.000000000000000 ) ;
#90 = DIRECTION ( 'NONE',  ( -0.000000000000000000, 1.000000000000000000, -0.000000000000000000 ) ) ;
#91 = VERTEX_POINT ( 'NONE', #45 ) ;
#92 = APPROVAL ( #173, 'UNSPECIFIED' ) ;
#93 = EDGE_LOOP ( 'NONE', ( #107, #116, #278, #393 ) ) ;
#94 = CARTESIAN_POINT ( 'NONE',  ( 83.06277317551847261, -19.72263016300045990, 5.000000000000000000 ) ) ;
#95 = ADVANCED_FACE ( 'NONE', ( #224 ), #233, .F. ) ;
#96 = DIRECTION ( 'NONE',  ( 1.000000000000000000, 0.000000000000000000, 0.000000000000000000 ) ) ;
#97 = CALENDAR_DATE ( 2026, 18, 1 ) ;
#98 = LOCAL_TIME ( 23, 51, 13.00000000000000000, #127 ) ;
#99 = EDGE_CURVE ( 'NONE', #319, #447, #425, .T. ) ;
#100 = DIRECTION ( 'NONE',  ( 1.000000000000000000, 0.000000000000000000, 0.000000000000000000 ) ) ;
#101 = DIRECTION ( 'NONE',  ( -0.000000000000000000, -0.000000000000000000, 1.000000000000000000 ) ) ;
#102 = ORIENTED_EDGE ( 'NONE', *, *, #41, .F. ) ;
#103 = CC_DESIGN_DATE_AND_TIME_ASSIGNMENT ( #129, #452, ( #560 ) ) ;
#104 = LINE ( 'NONE', #286, #227 ) ;
#105 = CARTESIAN_POINT ( 'NONE',  ( -93.23722682448151033, -19.72263016300045990, 5.000000000000000000 ) ) ;
#106 = PERSON_AND_ORGANIZATION_ROLE ( 'creator' ) ;
#107 = ORIENTED_EDGE ( 'NONE', *, *, #43, .F. ) ;
#108 = DIRECTION ( 'NONE',  ( -0.000000000000000000, -0.000000000000000000, 1.000000000000000000 ) ) ;
#109 = CARTESIAN_POINT ( 'NONE',  ( 63.06277317551847972, -33.72263016300044569, 5.000000000000000000 ) ) ;
#110 = ORIENTED_EDGE ( 'NONE', *, *, #605, .T. ) ;
#111 = EDGE_CURVE ( 'NONE', #78, #364, #369, .T. ) ;
#112 = VECTOR ( 'NONE', #12, 1000.000000000000000 ) ;
#113 = APPROVAL_PERSON_ORGANIZATION ( #592, #92, #24 ) ;
#114 = DIRECTION ( 'NONE',  ( 1.000000000000000000, 0.000000000000000000, 0.000000000000000000 ) ) ;
#115 = CARTESIAN_POINT ( 'NONE',  ( 88.06277317551847261, -3.722630163000443915, 5.000000000000000000 ) ) ;
#116 = ORIENTED_EDGE ( 'NONE', *, *, #143, .F. ) ;
#117 = DIRECTION ( 'NONE',  ( -0.7071067811865465735, 8.659560562354921765E-17, 0.7071067811865484609 ) ) ;
#118 = DIRECTION ( 'NONE',  ( 1.000000000000000000, 0.000000000000000000, 0.000000000000000000 ) ) ;
#119 = DIRECTION ( 'NONE',  ( 1.000000000000000000, 0.000000000000000000, 0.000000000000000000 ) ) ;
#120 = ORIENTED_EDGE ( 'NONE', *, *, #377, .F. ) ;
#121 = AXIS2_PLACEMENT_3D ( 'NONE', #586, #394, #114 ) ;
#122 = DIRECTION ( 'NONE',  ( -1.000000000000000000, 0.000000000000000000, 0.000000000000000000 ) ) ;
#123 = DIRECTION ( 'NONE',  ( 1.000000000000000000, 0.000000000000000000, 0.000000000000000000 ) ) ;
#124 = ORIENTED_EDGE ( 'NONE', *, *, #176, .F. ) ;
#125 = DIRECTION ( 'NONE',  ( -0.000000000000000000, -0.000000000000000000, -1.000000000000000000 ) ) ;
#126 = ORIENTED_EDGE ( 'NONE', *, *, #99, .T. ) ;
#127 = COORDINATED_UNIVERSAL_TIME_OFFSET ( 3, 0, .AHEAD. ) ;
#128 = EDGE_LOOP ( 'NONE', ( #507, #594 ) ) ;
#129 = DATE_AND_TIME ( #502, #476 ) ;
#130 = CC_DESIGN_APPROVAL ( #188, ( #560 ) ) ;
#131 = ORIENTED_EDGE ( 'NONE', *, *, #552, .T. ) ;
#132 = SHAPE_DEFINITION_REPRESENTATION ( #568, #565 ) ;
#133 = VERTEX_POINT ( 'NONE', #272 ) ;
#134 = VERTEX_POINT ( 'NONE', #466 ) ;
#135 = EDGE_CURVE ( 'NONE', #133, #290, #38, .T. ) ;
#136 = CARTESIAN_POINT ( 'NONE',  ( 63.06277317551847972, -19.72263016300044214, 0.000000000000000000 ) ) ;
#137 = EDGE_LOOP ( 'NONE', ( #131, #72, #441, #222 ) ) ;
#138 = PRODUCT_RELATED_PRODUCT_CATEGORY ( 'detail', '', ( #422 ) ) ;
#139 = VECTOR ( 'NONE', #6, 1000.000000000000000 ) ;
#140 = CIRCLE ( 'NONE', #4, 2.250000000000001776 ) ;
#141 = FACE_BOUND ( 'NONE', #459, .T. ) ;
#142 = DIRECTION ( 'NONE',  ( -0.000000000000000000, -0.000000000000000000, 1.000000000000000000 ) ) ;
#143 = EDGE_CURVE ( 'NONE', #389, #307, #340, .T. ) ;
#144 = LINE ( 'NONE', #296, #3 ) ;
#145 = VECTOR ( 'NONE', #293, 1000.000000000000000 ) ;
#146 = DIRECTION ( 'NONE',  ( -1.000000000000000000, 0.000000000000000000, 0.000000000000000000 ) ) ;
#147 = VECTOR ( 'NONE', #533, 1000.000000000000000 ) ;
#148 = ORIENTED_EDGE ( 'NONE', *, *, #143, .T. ) ;
#149 = LINE ( 'NONE', #333, #89 ) ;
#150 = CARTESIAN_POINT ( 'NONE',  ( 88.06277317551847261, -3.722630163000443915, 0.000000000000000000 ) ) ;
#151 = UNCERTAINTY_MEASURE_WITH_UNIT (LENGTH_MEASURE( 1.000000000000000082E-05 ), #260, 'distance_accuracy_value', 'NONE');
#152 = ORIENTED_EDGE ( 'NONE', *, *, #186, .T. ) ;
#153 = CARTESIAN_POINT ( 'NONE',  ( 83.06277317551847261, -19.72263016300045990, 5.000000000000000000 ) ) ;
#154 = EDGE_CURVE ( 'NONE', #345, #428, #229, .T. ) ;
#155 = LINE ( 'NONE', #109, #145 ) ;
#156 = ORIENTED_EDGE ( 'NONE', *, *, #71, .F. ) ;
#157 = PLANE ( 'NONE',  #68 ) ;
#158 = APPLICATION_CONTEXT ( 'configuration controlled 3d designs of mechanical parts and assemblies' ) ;
#159 = CARTESIAN_POINT ( 'NONE',  ( -100.1872268244814990, -19.72263016300045990, -8.673617379884035472E-16 ) ) ;
#160 = ORIENTED_EDGE ( 'NONE', *, *, #538, .T. ) ;
#161 = VECTOR ( 'NONE', #163, 1000.000000000000000 ) ;
#162 = AXIS2_PLACEMENT_3D ( 'NONE', #153, #336, #357 ) ;
#163 = DIRECTION ( 'NONE',  ( -0.000000000000000000, -0.000000000000000000, -1.000000000000000000 ) ) ;
#164 = CARTESIAN_POINT ( 'NONE',  ( 63.06277317551847972, -19.72263016300044214, 5.000000000000000000 ) ) ;
#165 = VERTEX_POINT ( 'NONE', #206 ) ;
#166 = EDGE_CURVE ( 'NONE', #389, #171, #480, .T. ) ;
#167 = FACE_OUTER_BOUND ( 'NONE', #13, .T. ) ;
#168 = DIRECTION ( 'NONE',  ( -1.000000000000000000, -2.775557561562891844E-16, 0.000000000000000000 ) ) ;
#169 = CARTESIAN_POINT ( 'NONE',  ( -77.93722682448151318, -19.72263016300045990, 5.000000000000000000 ) ) ;
#170 = DIRECTION ( 'NONE',  ( 1.000000000000000000, 0.000000000000000000, 0.000000000000000000 ) ) ;
#171 = VERTEX_POINT ( 'NONE', #430 ) ;
#172 = VECTOR ( 'NONE', #583, 1000.000000000000000 ) ;
#173 = APPROVAL_STATUS ( 'not_yet_approved' ) ;
#174 = CARTESIAN_POINT ( 'NONE',  ( -77.93722682448151318, -33.72263016300045990, 5.000000000000000000 ) ) ;
#175 = VERTEX_POINT ( 'NONE', #159 ) ;
#176 = EDGE_CURVE ( 'NONE', #345, #175, #432, .T. ) ;
#177 = CARTESIAN_POINT ( 'NONE',  ( 63.06277317551847972, -33.72263016300044569, 0.000000000000000000 ) ) ;
#178 = VERTEX_POINT ( 'NONE', #150 ) ;
#179 = PERSON_AND_ORGANIZATION ( #534, #587 ) ;
#180 = AXIS2_PLACEMENT_3D ( 'NONE', #491, #234, #96 ) ;
#181 = DIRECTION ( 'NONE',  ( -1.230300337572203632E-16, 1.000000000000000000, 0.000000000000000000 ) ) ;
#182 = EDGE_CURVE ( 'NONE', #165, #335, #329, .T. ) ;
#183 = DIRECTION ( 'NONE',  ( -1.000000000000000000, -1.230300337572203632E-16, 0.000000000000000000 ) ) ;
#184 = LINE ( 'NONE', #371, #194 ) ;
#185 = CONICAL_SURFACE ( 'NONE', #532, 4.699999999999995737, 0.7853981633974469467 ) ;
#186 = EDGE_CURVE ( 'NONE', #523, #616, #200, .T. ) ;
#187 = PLANE ( 'NONE',  #380 ) ;
#188 = APPROVAL ( #263, 'UNSPECIFIED' ) ;
#189 = DIRECTION ( 'NONE',  ( 1.000000000000000000, 0.000000000000000000, 0.000000000000000000 ) ) ;
#190 = EDGE_CURVE ( 'NONE', #290, #431, #337, .T. ) ;
#191 = CARTESIAN_POINT ( 'NONE',  ( 63.06277317551847972, -33.72263016300044569, 5.000000000000000000 ) ) ;
#192 = EDGE_LOOP ( 'NONE', ( #554, #215, #412, #304 ) ) ;
#193 = LINE ( 'NONE', #382, #535 ) ;
#194 = VECTOR ( 'NONE', #142, 1000.000000000000000 ) ;
#195 = VECTOR ( 'NONE', #61, 1000.000000000000000 ) ;
#196 = CARTESIAN_POINT ( 'NONE',  ( -102.9372268244814990, -3.722630163000443915, 5.000000000000000000 ) ) ;
#197 = ORIENTED_EDGE ( 'NONE', *, *, #497, .T. ) ;
#198 = EDGE_CURVE ( 'NONE', #523, #28, #62, .T. ) ;
#199 = FACE_OUTER_BOUND ( 'NONE', #338, .T. ) ;
#200 = LINE ( 'NONE', #440, #232 ) ;
#201 = EDGE_LOOP ( 'NONE', ( #359, #545, #504, #301 ) ) ;
#202 = DIRECTION ( 'NONE',  ( 0.000000000000000000, -1.000000000000000000, 0.000000000000000000 ) ) ;
#203 = PLANE ( 'NONE',  #595 ) ;
#204 = EDGE_LOOP ( 'NONE', ( #42, #297, #67, #126 ) ) ;
#205 = DIRECTION ( 'NONE',  ( -0.000000000000000000, -0.000000000000000000, 1.000000000000000000 ) ) ;
#206 = CARTESIAN_POINT ( 'NONE',  ( -77.93722682448151318, -33.72263016300045990, 5.000000000000000000 ) ) ;
#207 = EDGE_CURVE ( 'NONE', #616, #481, #530, .T. ) ;
#208 = ORIENTED_EDGE ( 'NONE', *, *, #135, .T. ) ;
#209 = CIRCLE ( 'NONE', #556, 2.250000000000001776 ) ;
#210 = DIRECTION ( 'NONE',  ( 0.7071067811865465735, 0.000000000000000000, 0.7071067811865484609 ) ) ;
#211 = CARTESIAN_POINT ( 'NONE',  ( 63.06277317551847972, -19.72263016300044214, 0.000000000000000000 ) ) ;
#212 = ORIENTED_EDGE ( 'NONE', *, *, #60, .F. ) ;
#213 = PERSON_AND_ORGANIZATION ( #534, #587 ) ;
#214 = DIRECTION ( 'NONE',  ( -0.000000000000000000, -0.000000000000000000, 1.000000000000000000 ) ) ;
#215 = ORIENTED_EDGE ( 'NONE', *, *, #99, .F. ) ;
#216 = CARTESIAN_POINT ( 'NONE',  ( -102.6372268244815018, -19.72263016300045990, 5.000000000000000000 ) ) ;
#217 = CARTESIAN_POINT ( 'NONE',  ( 85.31277317551847261, -19.72263016300045990, -8.673617379884035472E-16 ) ) ;
#218 = ORIENTED_EDGE ( 'NONE', *, *, #186, .F. ) ;
#219 = EDGE_CURVE ( 'NONE', #428, #484, #282, .T. ) ;
#220 = DIRECTION ( 'NONE',  ( -0.000000000000000000, -0.000000000000000000, 1.000000000000000000 ) ) ;
#221 = CARTESIAN_POINT ( 'NONE',  ( -97.93722682448149897, -19.72263016300045990, 2.549999999999999378 ) ) ;
#222 = ORIENTED_EDGE ( 'NONE', *, *, #322, .T. ) ;
#223 = ORIENTED_EDGE ( 'NONE', *, *, #450, .F. ) ;
#224 = FACE_OUTER_BOUND ( 'NONE', #201, .T. ) ;
#225 = EDGE_CURVE ( 'NONE', #364, #591, #25, .T. ) ;
#226 = AXIS2_PLACEMENT_3D ( 'NONE', #384, #248, #615 ) ;
#227 = VECTOR ( 'NONE', #53, 1000.000000000000000 ) ;
#228 = CARTESIAN_POINT ( 'NONE',  ( -102.9372268244814990, -3.722630163000443915, 5.000000000000000000 ) ) ;
#229 = LINE ( 'NONE', #427, #499 ) ;
#230 = EDGE_LOOP ( 'NONE', ( #356, #585, #240, #294, #120, #464, #55, #49 ) ) ;
#231 = CARTESIAN_POINT ( 'NONE',  ( -100.1872268244814990, -19.72263016300045990, 5.000000000000000000 ) ) ;
#232 = VECTOR ( 'NONE', #388, 1000.000000000000000 ) ;
#233 = PLANE ( 'NONE',  #243 ) ;
#234 = DIRECTION ( 'NONE',  ( -0.000000000000000000, -0.000000000000000000, 1.000000000000000000 ) ) ;
#235 = PERSON_AND_ORGANIZATION_ROLE ( 'classification_officer' ) ;
#236 = ORIENTED_EDGE ( 'NONE', *, *, #241, .T. ) ;
#237 = FACE_OUTER_BOUND ( 'NONE', #262, .T. ) ;
#238 = DIRECTION ( 'NONE',  ( -0.000000000000000000, 1.000000000000000000, -0.000000000000000000 ) ) ;
#239 = COORDINATED_UNIVERSAL_TIME_OFFSET ( 3, 0, .AHEAD. ) ;
#240 = ORIENTED_EDGE ( 'NONE', *, *, #552, .F. ) ;
#241 = EDGE_CURVE ( 'NONE', #290, #319, #144, .T. ) ;
#242 = LINE ( 'NONE', #15, #195 ) ;
#243 = AXIS2_PLACEMENT_3D ( 'NONE', #375, #181, #183 ) ;
#244 = DIRECTION ( 'NONE',  ( -0.000000000000000000, 1.000000000000000000, -0.000000000000000000 ) ) ;
#245 = PERSON_AND_ORGANIZATION ( #534, #587 ) ;
#246 = EDGE_LOOP ( 'NONE', ( #541, #451, #423, #10 ) ) ;
#247 = LINE ( 'NONE', #250, #161 ) ;
#248 = DIRECTION ( 'NONE',  ( -0.000000000000000000, -0.000000000000000000, 1.000000000000000000 ) ) ;
#249 = ORIENTED_EDGE ( 'NONE', *, *, #362, .F. ) ;
#250 = CARTESIAN_POINT ( 'NONE',  ( 88.06277317551847261, -3.722630163000443915, 5.000000000000000000 ) ) ;
#251 = ADVANCED_FACE ( 'NONE', ( #376 ), #203, .F. ) ;
#252 = FACE_OUTER_BOUND ( 'NONE', #454, .T. ) ;
#253 = EDGE_LOOP ( 'NONE', ( #21, #614, #501, #610 ) ) ;
#254 = CYLINDRICAL_SURFACE ( 'NONE', #574, 2.250000000000001776 ) ;
#255 = CYLINDRICAL_SURFACE ( 'NONE', #520, 2.250000000000001776 ) ;
#256 = EDGE_LOOP ( 'NONE', ( #537, #156, #379, #415 ) ) ;
#257 = CIRCLE ( 'NONE', #56, 4.699999999999995737 ) ;
#258 = DATE_AND_TIME ( #543, #397 ) ;
#259 = PLANE ( 'NONE',  #458 ) ;
#260 =( LENGTH_UNIT ( ) NAMED_UNIT ( * ) SI_UNIT ( .MILLI., .METRE. ) );
#261 = CARTESIAN_POINT ( 'NONE',  ( -102.9372268244814990, -33.72263016300046701, 5.000000000000000000 ) ) ;
#262 = EDGE_LOOP ( 'NONE', ( #514, #404, #417, #59 ) ) ;
#263 = APPROVAL_STATUS ( 'not_yet_approved' ) ;
#264 = PLANE ( 'NONE',  #36 ) ;
#265 = EDGE_LOOP ( 'NONE', ( #102, #124, #268, #398 ) ) ;
#266 = VECTOR ( 'NONE', #559, 1000.000000000000000 ) ;
#267 = CONICAL_SURFACE ( 'NONE', #82, 4.699999999999995737, 0.7853981633974469467 ) ;
#268 = ORIENTED_EDGE ( 'NONE', *, *, #154, .T. ) ;
#269 = DIRECTION ( 'NONE',  ( 1.000000000000000000, 0.000000000000000000, 0.000000000000000000 ) ) ;
#270 = ADVANCED_FACE ( 'NONE', ( #252 ), #580, .F. ) ;
#271 = CARTESIAN_POINT ( 'NONE',  ( 63.06277317551847972, -33.72263016300044569, 0.000000000000000000 ) ) ;
#272 = CARTESIAN_POINT ( 'NONE',  ( 88.06277317551847261, -3.722630163000443915, 5.000000000000000000 ) ) ;
#273 = CIRCLE ( 'NONE', #372, 2.250000000000001776 ) ;
#274 = PERSON_AND_ORGANIZATION ( #534, #587 ) ;
#275 = AXIS2_PLACEMENT_3D ( 'NONE', #8, #108, #529 ) ;
#276 = DIRECTION ( 'NONE',  ( -0.000000000000000000, -0.000000000000000000, 1.000000000000000000 ) ) ;
#277 = LINE ( 'NONE', #44, #354 ) ;
#278 = ORIENTED_EDGE ( 'NONE', *, *, #166, .T. ) ;
#279 = CC_DESIGN_PERSON_AND_ORGANIZATION_ASSIGNMENT ( #179, #235, ( #612 ) ) ;
#280 = VECTOR ( 'NONE', #125, 1000.000000000000000 ) ;
#281 = LOCAL_TIME ( 23, 51, 13.00000000000000000, #239 ) ;
#282 = LINE ( 'NONE', #105, #14 ) ;
#283 = CARTESIAN_POINT ( 'NONE',  ( -102.9372268244814990, -33.72263016300046701, 0.000000000000000000 ) ) ;
#284 = LINE ( 'NONE', #51, #571 ) ;
#285 = ORIENTED_EDGE ( 'NONE', *, *, #166, .F. ) ;
#286 = CARTESIAN_POINT ( 'NONE',  ( 88.06277317551847261, -33.72263016300044569, 0.000000000000000000 ) ) ;
#287 = CARTESIAN_POINT ( 'NONE',  ( -97.93722682448149897, -19.72263016300045990, 5.000000000000000000 ) ) ;
#288 = ADVANCED_FACE ( 'NONE', ( #334 ), #373, .F. ) ;
#289 = PERSON_AND_ORGANIZATION_ROLE ( 'design_supplier' ) ;
#290 = VERTEX_POINT ( 'NONE', #196 ) ;
#291 = CARTESIAN_POINT ( 'NONE',  ( -102.9372268244814990, -3.722630163000443915, 5.000000000000000000 ) ) ;
#292 = CIRCLE ( 'NONE', #275, 2.250000000000001776 ) ;
#293 = DIRECTION ( 'NONE',  ( -0.000000000000000000, -0.000000000000000000, -1.000000000000000000 ) ) ;
#294 = ORIENTED_EDGE ( 'NONE', *, *, #605, .F. ) ;
#295 = CARTESIAN_POINT ( 'NONE',  ( 88.06277317551847261, -33.72263016300044569, 5.000000000000000000 ) ) ;
#296 = CARTESIAN_POINT ( 'NONE',  ( -102.9372268244814990, -33.72263016300046701, 5.000000000000000000 ) ) ;
#297 = ORIENTED_EDGE ( 'NONE', *, *, #426, .F. ) ;
#298 = CC_DESIGN_PERSON_AND_ORGANIZATION_ASSIGNMENT ( #213, #416, ( #422 ) ) ;
#299 = DIRECTION ( 'NONE',  ( 1.000000000000000000, 0.000000000000000000, 0.000000000000000000 ) ) ;
#300 = CARTESIAN_POINT ( 'NONE',  ( -97.93722682448149897, -19.72263016300045990, 5.000000000000000000 ) ) ;
#301 = ORIENTED_EDGE ( 'NONE', *, *, #71, .T. ) ;
#302 = FACE_OUTER_BOUND ( 'NONE', #265, .T. ) ;
#303 = CIRCLE ( 'NONE', #395, 2.250000000000001776 ) ;
#304 = ORIENTED_EDGE ( 'NONE', *, *, #190, .T. ) ;
#305 = DIRECTION ( 'NONE',  ( -0.000000000000000000, -0.000000000000000000, 1.000000000000000000 ) ) ;
#306 = EDGE_CURVE ( 'NONE', #431, #447, #284, .T. ) ;
#307 = VERTEX_POINT ( 'NONE', #576 ) ;
#308 = DIRECTION ( 'NONE',  ( 1.000000000000000000, 0.000000000000000000, 0.000000000000000000 ) ) ;
#309 = DIRECTION ( 'NONE',  ( 0.000000000000000000, 1.000000000000000000, -0.000000000000000000 ) ) ;
#310 = ORIENTED_EDGE ( 'NONE', *, *, #438, .T. ) ;
#311 = CALENDAR_DATE ( 2026, 18, 1 ) ;
#312 = ORIENTED_EDGE ( 'NONE', *, *, #79, .F. ) ;
#313 = EDGE_CURVE ( 'NONE', #134, #489, #9, .T. ) ;
#314 = AXIS2_PLACEMENT_3D ( 'NONE', #169, #122, #31 ) ;
#315 =( NAMED_UNIT ( * ) SI_UNIT ( $, .STERADIAN. ) SOLID_ANGLE_UNIT ( ) );
#316 = CARTESIAN_POINT ( 'NONE',  ( -97.93722682448149897, -19.72263016300045990, -8.673617379884035472E-16 ) ) ;
#317 = MANIFOLD_SOLID_BREP ( '\X2\04170435043d043a043e0432043a0430\X0\ \X2\0434043b044f\X0\  \X2\04320438043d04420430\X0\ \X2\0441\X0\ \X2\043f043b043e0441043a043e0439\X0\ \X2\0433043e043b043e0432043a043e0439\X0\ M43', #35 ) ;
#318 = FACE_BOUND ( 'NONE', #128, .T. ) ;
#319 = VERTEX_POINT ( 'NONE', #435 ) ;
#320 = CARTESIAN_POINT ( 'NONE',  ( 0.000000000000000000, 0.000000000000000000, 5.000000000000000000 ) ) ;
#321 = AXIS2_PLACEMENT_3D ( 'NONE', #94, #472, #189 ) ;
#322 = EDGE_CURVE ( 'NONE', #616, #75, #155, .T. ) ;
#323 = DIRECTION ( 'NONE',  ( 1.000000000000000000, 0.000000000000000000, 0.000000000000000000 ) ) ;
#324 = DIRECTION ( 'NONE',  ( -1.000000000000000000, 0.000000000000000000, -0.000000000000000000 ) ) ;
#325 = DIRECTION ( 'NONE',  ( -0.000000000000000000, -0.000000000000000000, -1.000000000000000000 ) ) ;
#326 = APPROVAL_STATUS ( 'not_yet_approved' ) ;
#327 = EDGE_CURVE ( 'NONE', #78, #171, #303, .T. ) ;
#328 = CIRCLE ( 'NONE', #121, 2.250000000000001776 ) ;
#329 = LINE ( 'NONE', #396, #381 ) ;
#330 = DATE_TIME_ROLE ( 'classification_date' ) ;
#331 = ORIENTED_EDGE ( 'NONE', *, *, #135, .F. ) ;
#332 = CC_DESIGN_PERSON_AND_ORGANIZATION_ASSIGNMENT ( #360, #402, ( #560 ) ) ;
#333 = CARTESIAN_POINT ( 'NONE',  ( -77.93722682448151318, -33.72263016300045990, 5.000000000000000000 ) ) ;
#334 = FACE_OUTER_BOUND ( 'NONE', #253, .T. ) ;
#335 = VERTEX_POINT ( 'NONE', #347 ) ;
#336 = DIRECTION ( 'NONE',  ( -0.000000000000000000, -0.000000000000000000, 1.000000000000000000 ) ) ;
#337 = LINE ( 'NONE', #392, #407 ) ;
#338 = EDGE_LOOP ( 'NONE', ( #531, #509, #30, #285 ) ) ;
#339 = LINE ( 'NONE', #390, #147 ) ;
#340 = CIRCLE ( 'NONE', #81, 2.250000000000001776 ) ;
#341 = VECTOR ( 'NONE', #599, 1000.000000000000000 ) ;
#342 = DIRECTION ( 'NONE',  ( -0.000000000000000000, -1.000000000000000000, -0.000000000000000000 ) ) ;
#343 = EDGE_CURVE ( 'NONE', #444, #428, #209, .T. ) ;
#344 =( GEOMETRIC_REPRESENTATION_CONTEXT ( 3 ) GLOBAL_UNCERTAINTY_ASSIGNED_CONTEXT ( ( #151 ) ) GLOBAL_UNIT_ASSIGNED_CONTEXT ( ( #260, #69, #315 ) ) REPRESENTATION_CONTEXT ( 'NONE', 'WORKASPACE' ) );
#345 = VERTEX_POINT ( 'NONE', #74 ) ;
#346 = DIRECTION ( 'NONE',  ( 1.000000000000000000, 0.000000000000000000, 0.000000000000000000 ) ) ;
#347 = CARTESIAN_POINT ( 'NONE',  ( -77.93722682448151318, -19.72263016300045990, 5.000000000000000000 ) ) ;
#348 = APPLICATION_PROTOCOL_DEFINITION ( 'international standard', 'config_control_design', 1994, #34 ) ;
#349 = PLANE ( 'NONE',  #424 ) ;
#350 = ADVANCED_FACE ( 'NONE', ( #353, #20, #456 ), #259, .T. ) ;
#351 = FACE_OUTER_BOUND ( 'NONE', #256, .T. ) ;
#352 = ADVANCED_FACE ( 'NONE', ( #302 ), #255, .F. ) ;
#353 = FACE_BOUND ( 'NONE', #63, .T. ) ;
#354 = VECTOR ( 'NONE', #567, 1000.000000000000000 ) ;
#355 = AXIS2_PLACEMENT_3D ( 'NONE', #582, #57, #482 ) ;
#356 = ORIENTED_EDGE ( 'NONE', *, *, #497, .F. ) ;
#357 = DIRECTION ( 'NONE',  ( 1.000000000000000000, 0.000000000000000000, 0.000000000000000000 ) ) ;
#358 = CARTESIAN_POINT ( 'NONE',  ( -95.68722682448149897, -19.72263016300045990, 2.549999999999999378 ) ) ;
#359 = ORIENTED_EDGE ( 'NONE', *, *, #377, .T. ) ;
#360 = PERSON_AND_ORGANIZATION ( #534, #587 ) ;
#361 = EDGE_LOOP ( 'NONE', ( #566, #52, #19, #577 ) ) ;
#362 = EDGE_CURVE ( 'NONE', #601, #484, #498, .T. ) ;
#363 = COORDINATED_UNIVERSAL_TIME_OFFSET ( 3, 0, .AHEAD. ) ;
#364 = VERTEX_POINT ( 'NONE', #446 ) ;
#365 = AXIS2_PLACEMENT_3D ( 'NONE', #551, #309, #505 ) ;
#366 = LOCAL_TIME ( 23, 51, 13.00000000000000000, #378 ) ;
#367 = CARTESIAN_POINT ( 'NONE',  ( 78.36277317551846977, -19.72263016300045990, 5.000000000000000000 ) ) ;
#368 = CC_DESIGN_PERSON_AND_ORGANIZATION_ASSIGNMENT ( #245, #289, ( #564 ) ) ;
#369 = LINE ( 'NONE', #367, #266 ) ;
#370 = EDGE_CURVE ( 'NONE', #335, #523, #503, .T. ) ;
#371 = CARTESIAN_POINT ( 'NONE',  ( 80.81277317551845840, -19.72263016300045990, 5.000000000000000000 ) ) ;
#372 = AXIS2_PLACEMENT_3D ( 'NONE', #316, #276, #323 ) ;
#373 = CONICAL_SURFACE ( 'NONE', #611, 4.699999999999995737, 0.7853981633974469467 ) ;
#374 = DIRECTION ( 'NONE',  ( -0.000000000000000000, -0.000000000000000000, 1.000000000000000000 ) ) ;
#375 = CARTESIAN_POINT ( 'NONE',  ( 63.06277317551847972, -19.72263016300044214, 5.000000000000000000 ) ) ;
#376 = FACE_OUTER_BOUND ( 'NONE', #581, .T. ) ;
#377 = EDGE_CURVE ( 'NONE', #489, #28, #77, .T. ) ;
#378 = COORDINATED_UNIVERSAL_TIME_OFFSET ( 3, 0, .AHEAD. ) ;
#379 = ORIENTED_EDGE ( 'NONE', *, *, #182, .F. ) ;
#380 = AXIS2_PLACEMENT_3D ( 'NONE', #320, #608, #324 ) ;
#381 = VECTOR ( 'NONE', #238, 1000.000000000000000 ) ;
#382 = CARTESIAN_POINT ( 'NONE',  ( -77.93722682448151318, -33.72263016300045990, 0.000000000000000000 ) ) ;
#383 = CIRCLE ( 'NONE', #487, 4.699999999999995737 ) ;
#384 = CARTESIAN_POINT ( 'NONE',  ( 83.06277317551847261, -19.72263016300045990, 5.000000000000000000 ) ) ;
#385 = SECURITY_CLASSIFICATION_LEVEL ( 'unclassified' ) ;
#386 = ORIENTED_EDGE ( 'NONE', *, *, #343, .T. ) ;
#387 = CARTESIAN_POINT ( 'NONE',  ( -100.1872268244814990, -19.72263016300045990, 2.549999999999999378 ) ) ;
#388 = DIRECTION ( 'NONE',  ( -0.000000000000000000, -1.000000000000000000, -0.000000000000000000 ) ) ;
#389 = VERTEX_POINT ( 'NONE', #217 ) ;
#390 = CARTESIAN_POINT ( 'NONE',  ( 88.06277317551847261, -3.722630163000443915, 0.000000000000000000 ) ) ;
#391 = ADVANCED_FACE ( 'NONE', ( #406 ), #264, .F. ) ;
#392 = CARTESIAN_POINT ( 'NONE',  ( -102.9372268244814990, -3.722630163000443915, 5.000000000000000000 ) ) ;
#393 = ORIENTED_EDGE ( 'NONE', *, *, #465, .T. ) ;
#394 = DIRECTION ( 'NONE',  ( -0.000000000000000000, -0.000000000000000000, 1.000000000000000000 ) ) ;
#395 = AXIS2_PLACEMENT_3D ( 'NONE', #488, #58, #170 ) ;
#396 = CARTESIAN_POINT ( 'NONE',  ( -77.93722682448151318, -19.72263016300045990, 5.000000000000000000 ) ) ;
#397 = LOCAL_TIME ( 23, 51, 13.00000000000000000, #363 ) ;
#398 = ORIENTED_EDGE ( 'NONE', *, *, #579, .T. ) ;
#399 = CARTESIAN_POINT ( 'NONE',  ( 83.06277317551847261, -19.72263016300045990, 5.000000000000000000 ) ) ;
#400 = CARTESIAN_POINT ( 'NONE',  ( -97.93722682448149897, -19.72263016300045990, 5.000000000000000000 ) ) ;
#401 = EDGE_LOOP ( 'NONE', ( #208, #236, #557, #597, #563, #152, #408, #7 ) ) ;
#402 = PERSON_AND_ORGANIZATION_ROLE ( 'creator' ) ;
#403 = FACE_OUTER_BOUND ( 'NONE', #137, .T. ) ;
#404 = ORIENTED_EDGE ( 'NONE', *, *, #465, .F. ) ;
#405 = APPLICATION_PROTOCOL_DEFINITION ( 'international standard', 'config_control_design', 1994, #158 ) ;
#406 = FACE_OUTER_BOUND ( 'NONE', #192, .T. ) ;
#407 = VECTOR ( 'NONE', #325, 1000.000000000000000 ) ;
#408 = ORIENTED_EDGE ( 'NONE', *, *, #207, .T. ) ;
#409 = CC_DESIGN_APPROVAL ( #92, ( #564 ) ) ;
#410 = CARTESIAN_POINT ( 'NONE',  ( 83.06277317551847261, -19.72263016300045990, 5.000000000000000000 ) ) ;
#411 = DIRECTION ( 'NONE',  ( 0.000000000000000000, 0.000000000000000000, -1.000000000000000000 ) ) ;
#412 = ORIENTED_EDGE ( 'NONE', *, *, #241, .F. ) ;
#413 = DIRECTION ( 'NONE',  ( 0.000000000000000000, 0.000000000000000000, 1.000000000000000000 ) ) ;
#414 = ADVANCED_FACE ( 'NONE', ( #23 ), #267, .F. ) ;
#415 = ORIENTED_EDGE ( 'NONE', *, *, #426, .T. ) ;
#416 = PERSON_AND_ORGANIZATION_ROLE ( 'design_owner' ) ;
#417 = ORIENTED_EDGE ( 'NONE', *, *, #461, .T. ) ;
#418 = DIRECTION ( 'NONE',  ( -1.000000000000000000, -0.000000000000000000, -0.000000000000000000 ) ) ;
#419 = ADVANCED_FACE ( 'NONE', ( #596 ), #349, .F. ) ;
#420 = FACE_OUTER_BOUND ( 'NONE', #401, .T. ) ;
#421 = ORIENTED_EDGE ( 'NONE', *, *, #41, .T. ) ;
#422 = PRODUCT ( '\X2\0445\X0\2', '\X2\0445\X0\2', '', ( #76 ) ) ;
#423 = ORIENTED_EDGE ( 'NONE', *, *, #225, .T. ) ;
#424 = AXIS2_PLACEMENT_3D ( 'NONE', #590, #500, #168 ) ;
#425 = LINE ( 'NONE', #510, #457 ) ;
#426 = EDGE_CURVE ( 'NONE', #165, #134, #544, .T. ) ;
#427 = CARTESIAN_POINT ( 'NONE',  ( -95.68722682448149897, -19.72263016300045990, 5.000000000000000000 ) ) ;
#428 = VERTEX_POINT ( 'NONE', #358 ) ;
#429 = CARTESIAN_POINT ( 'NONE',  ( 88.06277317551847261, -33.72263016300044569, 5.000000000000000000 ) ) ;
#430 = CARTESIAN_POINT ( 'NONE',  ( 85.31277317551847261, -19.72263016300045990, 2.549999999999999378 ) ) ;
#431 = VERTEX_POINT ( 'NONE', #70 ) ;
#432 = CIRCLE ( 'NONE', #180, 2.250000000000001776 ) ;
#433 = DIRECTION ( 'NONE',  ( -0.000000000000000000, -0.000000000000000000, 1.000000000000000000 ) ) ;
#434 = VECTOR ( 'NONE', #448, 1000.000000000000000 ) ;
#435 = CARTESIAN_POINT ( 'NONE',  ( -102.9372268244814990, -33.72263016300046701, 5.000000000000000000 ) ) ;
#436 = EDGE_LOOP ( 'NONE', ( #148, #310 ) ) ;
#437 = ADVANCED_FACE ( 'NONE', ( #403 ), #593, .F. ) ;
#438 = EDGE_CURVE ( 'NONE', #307, #389, #292, .T. ) ;
#439 = FACE_OUTER_BOUND ( 'NONE', #246, .T. ) ;
#440 = CARTESIAN_POINT ( 'NONE',  ( 63.06277317551847972, -33.72263016300044569, 5.000000000000000000 ) ) ;
#441 = ORIENTED_EDGE ( 'NONE', *, *, #207, .F. ) ;
#442 = CARTESIAN_POINT ( 'NONE',  ( 63.06277317551847972, -19.72263016300044214, 5.000000000000000000 ) ) ;
#443 = DIRECTION ( 'NONE',  ( 1.000000000000000000, 0.000000000000000000, 0.000000000000000000 ) ) ;
#444 = VERTEX_POINT ( 'NONE', #387 ) ;
#445 = CARTESIAN_POINT ( 'NONE',  ( -97.93722682448149897, -19.72263016300045990, 5.000000000000000000 ) ) ;
#446 = CARTESIAN_POINT ( 'NONE',  ( 78.36277317551846977, -19.72263016300045990, 5.000000000000000000 ) ) ;
#447 = VERTEX_POINT ( 'NONE', #283 ) ;
#448 = DIRECTION ( 'NONE',  ( -0.000000000000000000, -1.000000000000000000, -0.000000000000000000 ) ) ;
#449 = CARTESIAN_POINT ( 'NONE',  ( -97.93722682448149897, -19.72263016300045990, 5.000000000000000000 ) ) ;
#450 = EDGE_CURVE ( 'NONE', #484, #601, #257, .T. ) ;
#451 = ORIENTED_EDGE ( 'NONE', *, *, #111, .T. ) ;
#452 = DATE_TIME_ROLE ( 'creation_date' ) ;
#453 = DIRECTION ( 'NONE',  ( 1.000000000000000000, 0.000000000000000000, 0.000000000000000000 ) ) ;
#454 = EDGE_LOOP ( 'NONE', ( #110, #600, #218, #512 ) ) ;
#455 = APPROVAL_ROLE ( '' ) ;
#456 = FACE_OUTER_BOUND ( 'NONE', #230, .T. ) ;
#457 = VECTOR ( 'NONE', #85, 1000.000000000000000 ) ;
#458 = AXIS2_PLACEMENT_3D ( 'NONE', #540, #411, #66 ) ;
#459 = EDGE_LOOP ( 'NONE', ( #223, #249 ) ) ;
#460 = DIRECTION ( 'NONE',  ( -0.000000000000000000, -0.000000000000000000, 1.000000000000000000 ) ) ;
#461 = EDGE_CURVE ( 'NONE', #171, #591, #50, .T. ) ;
#462 = EDGE_LOOP ( 'NONE', ( #212, #421, #386, #83 ) ) ;
#463 = CARTESIAN_POINT ( 'NONE',  ( 87.76277317551846124, -19.72263016300045990, 5.000000000000000000 ) ) ;
#464 = ORIENTED_EDGE ( 'NONE', *, *, #313, .F. ) ;
#465 = EDGE_CURVE ( 'NONE', #171, #78, #328, .T. ) ;
#466 = CARTESIAN_POINT ( 'NONE',  ( -77.93722682448151318, -33.72263016300045990, 0.000000000000000000 ) ) ;
#467 = ADVANCED_FACE ( 'NONE', ( #167 ), #157, .F. ) ;
#468 = CONICAL_SURFACE ( 'NONE', #355, 4.699999999999995737, 0.7853981633974469467 ) ;
#469 = AXIS2_PLACEMENT_3D ( 'NONE', #22, #413, #308 ) ;
#470 = DIRECTION ( 'NONE',  ( -0.000000000000000000, -0.000000000000000000, 1.000000000000000000 ) ) ;
#471 = ORIENTED_EDGE ( 'NONE', *, *, #506, .F. ) ;
#472 = DIRECTION ( 'NONE',  ( -0.000000000000000000, -0.000000000000000000, 1.000000000000000000 ) ) ;
#473 = CALENDAR_DATE ( 2026, 18, 1 ) ;
#474 = AXIS2_PLACEMENT_3D ( 'NONE', #191, #443, #48 ) ;
#475 = ADVANCED_FACE ( 'NONE', ( #237 ), #468, .F. ) ;
#476 = LOCAL_TIME ( 23, 51, 13.00000000000000000, #553 ) ;
#477 = DIRECTION ( 'NONE',  ( 0.000000000000000000, 0.000000000000000000, 1.000000000000000000 ) ) ;
#478 = PERSON_AND_ORGANIZATION ( #534, #587 ) ;
#479 = CARTESIAN_POINT ( 'NONE',  ( 87.76277317551846124, -19.72263016300045990, 5.000000000000000000 ) ) ;
#480 = LINE ( 'NONE', #517, #112 ) ;
#481 = VERTEX_POINT ( 'NONE', #295 ) ;
#482 = DIRECTION ( 'NONE',  ( 1.000000000000000000, 0.000000000000000000, 0.000000000000000000 ) ) ;
#483 = DIRECTION ( 'NONE',  ( -0.000000000000000000, -1.000000000000000000, -0.000000000000000000 ) ) ;
#484 = VERTEX_POINT ( 'NONE', #493 ) ;
#485 = EDGE_CURVE ( 'NONE', #91, #178, #339, .T. ) ;
#486 = DIRECTION ( 'NONE',  ( 0.000000000000000000, -0.000000000000000000, -1.000000000000000000 ) ) ;
#487 = AXIS2_PLACEMENT_3D ( 'NONE', #410, #460, #549 ) ;
#488 = CARTESIAN_POINT ( 'NONE',  ( 83.06277317551847261, -19.72263016300045990, 2.549999999999999378 ) ) ;
#489 = VERTEX_POINT ( 'NONE', #490 ) ;
#490 = CARTESIAN_POINT ( 'NONE',  ( -77.93722682448151318, -19.72263016300045990, 0.000000000000000000 ) ) ;
#491 = CARTESIAN_POINT ( 'NONE',  ( -97.93722682448149897, -19.72263016300045990, -8.673617379884035472E-16 ) ) ;
#492 = ORIENTED_EDGE ( 'NONE', *, *, #190, .F. ) ;
#493 = CARTESIAN_POINT ( 'NONE',  ( -93.23722682448151033, -19.72263016300045990, 5.000000000000000000 ) ) ;
#494 = DIRECTION ( 'NONE',  ( -0.000000000000000000, -0.000000000000000000, 1.000000000000000000 ) ) ;
#495 = ORIENTED_EDGE ( 'NONE', *, *, #506, .T. ) ;
#496 = PLANE ( 'NONE',  #314 ) ;
#497 = EDGE_CURVE ( 'NONE', #178, #431, #242, .T. ) ;
#498 = CIRCLE ( 'NONE', #513, 4.699999999999995737 ) ;
#499 = VECTOR ( 'NONE', #522, 1000.000000000000000 ) ;
#500 = DIRECTION ( 'NONE',  ( -2.775557561562891844E-16, 1.000000000000000000, 0.000000000000000000 ) ) ;
#501 = ORIENTED_EDGE ( 'NONE', *, *, #219, .T. ) ;
#502 = CALENDAR_DATE ( 2026, 18, 1 ) ;
#503 = LINE ( 'NONE', #164, #341 ) ;
#504 = ORIENTED_EDGE ( 'NONE', *, *, #370, .F. ) ;
#505 = DIRECTION ( 'NONE',  ( 0.000000000000000000, 0.000000000000000000, 1.000000000000000000 ) ) ;
#506 = EDGE_CURVE ( 'NONE', #133, #178, #247, .T. ) ;
#507 = ORIENTED_EDGE ( 'NONE', *, *, #584, .F. ) ;
#508 = DATE_AND_TIME ( #311, #98 ) ;
#509 = ORIENTED_EDGE ( 'NONE', *, *, #43, .T. ) ;
#510 = CARTESIAN_POINT ( 'NONE',  ( -102.9372268244814990, -33.72263016300046701, 5.000000000000000000 ) ) ;
#511 = CYLINDRICAL_SURFACE ( 'NONE', #321, 2.250000000000001776 ) ;
#512 = ORIENTED_EDGE ( 'NONE', *, *, #198, .T. ) ;
#513 = AXIS2_PLACEMENT_3D ( 'NONE', #300, #27, #453 ) ;
#514 = ORIENTED_EDGE ( 'NONE', *, *, #111, .F. ) ;
#515 = FACE_OUTER_BOUND ( 'NONE', #93, .T. ) ;
#516 = EDGE_CURVE ( 'NONE', #444, #601, #589, .T. ) ;
#517 = CARTESIAN_POINT ( 'NONE',  ( 85.31277317551847261, -19.72263016300045990, 5.000000000000000000 ) ) ;
#518 = APPROVAL_DATE_TIME ( #561, #613 ) ;
#519 = VECTOR ( 'NONE', #374, 1000.000000000000000 ) ;
#520 = AXIS2_PLACEMENT_3D ( 'NONE', #449, #305, #548 ) ;
#521 = FACE_OUTER_BOUND ( 'NONE', #462, .T. ) ;
#522 = DIRECTION ( 'NONE',  ( -0.000000000000000000, -0.000000000000000000, 1.000000000000000000 ) ) ;
#523 = VERTEX_POINT ( 'NONE', #442 ) ;
#524 = DIRECTION ( 'NONE',  ( 1.000000000000000000, 2.775557561562891844E-16, -0.000000000000000000 ) ) ;
#525 = ADVANCED_FACE ( 'NONE', ( #439 ), #185, .F. ) ;
#526 = ADVANCED_FACE ( 'NONE', ( #521 ), #254, .F. ) ;
#527 = CARTESIAN_POINT ( 'NONE',  ( 88.06277317551847261, -33.72263016300044569, 5.000000000000000000 ) ) ;
#528 = ORIENTED_EDGE ( 'NONE', *, *, #60, .T. ) ;
#529 = DIRECTION ( 'NONE',  ( 1.000000000000000000, 0.000000000000000000, 0.000000000000000000 ) ) ;
#530 = LINE ( 'NONE', #527, #172 ) ;
#531 = ORIENTED_EDGE ( 'NONE', *, *, #438, .F. ) ;
#532 = AXIS2_PLACEMENT_3D ( 'NONE', #399, #539, #299 ) ;
#533 = DIRECTION ( 'NONE',  ( -0.000000000000000000, 1.000000000000000000, -0.000000000000000000 ) ) ;
#534 = PERSON ( 'UNSPECIFIED', 'UNSPECIFIED', 'UNSPECIFIED', ('UNSPECIFIED'), ('UNSPECIFIED'), ('UNSPECIFIED') ) ;
#535 = VECTOR ( 'NONE', #575, 1000.000000000000000 ) ;
#536 = DIRECTION ( 'NONE',  ( 0.7071067811865465735, 0.000000000000000000, 0.7071067811865484609 ) ) ;
#537 = ORIENTED_EDGE ( 'NONE', *, *, #313, .T. ) ;
#538 = EDGE_CURVE ( 'NONE', #481, #91, #5, .T. ) ;
#539 = DIRECTION ( 'NONE',  ( -0.000000000000000000, -0.000000000000000000, 1.000000000000000000 ) ) ;
#540 = CARTESIAN_POINT ( 'NONE',  ( 0.000000000000000000, 0.000000000000000000, 0.000000000000000000 ) ) ;
#541 = ORIENTED_EDGE ( 'NONE', *, *, #327, .F. ) ;
#542 = EDGE_CURVE ( 'NONE', #447, #134, #193, .T. ) ;
#543 = CALENDAR_DATE ( 2026, 18, 1 ) ;
#544 = LINE ( 'NONE', #174, #280 ) ;
#545 = ORIENTED_EDGE ( 'NONE', *, *, #198, .F. ) ;
#546 = CARTESIAN_POINT ( 'NONE',  ( -97.93722682448149897, -19.72263016300045990, 2.549999999999999378 ) ) ;
#547 = VECTOR ( 'NONE', #588, 1000.000000000000000 ) ;
#548 = DIRECTION ( 'NONE',  ( 1.000000000000000000, 0.000000000000000000, 0.000000000000000000 ) ) ;
#549 = DIRECTION ( 'NONE',  ( 1.000000000000000000, 0.000000000000000000, 0.000000000000000000 ) ) ;
#550 = EDGE_CURVE ( 'NONE', #319, #165, #149, .T. ) ;
#551 = CARTESIAN_POINT ( 'NONE',  ( 88.06277317551847261, -33.72263016300044569, 5.000000000000000000 ) ) ;
#552 = EDGE_CURVE ( 'NONE', #75, #91, #104, .T. ) ;
#553 = COORDINATED_UNIVERSAL_TIME_OFFSET ( 3, 0, .AHEAD. ) ;
#554 = ORIENTED_EDGE ( 'NONE', *, *, #306, .T. ) ;
#555 = APPROVAL_DATE_TIME ( #258, #188 ) ;
#556 = AXIS2_PLACEMENT_3D ( 'NONE', #221, #494, #119 ) ;
#557 = ORIENTED_EDGE ( 'NONE', *, *, #550, .T. ) ;
#558 = DATE_AND_TIME ( #97, #366 ) ;
#559 = DIRECTION ( 'NONE',  ( -0.7071067811865465735, 8.659560562354921765E-17, 0.7071067811865484609 ) ) ;
#560 = PRODUCT_DEFINITION ( 'UNKNOWN', '', #564, #39 ) ;
#561 = DATE_AND_TIME ( #473, #281 ) ;
#562 = CARTESIAN_POINT ( 'NONE',  ( 83.06277317551847261, -19.72263016300045990, -8.673617379884035472E-16 ) ) ;
#563 = ORIENTED_EDGE ( 'NONE', *, *, #370, .T. ) ;
#564 = PRODUCT_DEFINITION_FORMATION_WITH_SPECIFIED_SOURCE ( 'ANY', '', #422, .NOT_KNOWN. ) ;
#565 = ADVANCED_BREP_SHAPE_REPRESENTATION ( '\X2\0445\X0\2', ( #317, #469 ), #344 ) ;
#566 = ORIENTED_EDGE ( 'NONE', *, *, #343, .F. ) ;
#567 = DIRECTION ( 'NONE',  ( -0.000000000000000000, -0.000000000000000000, -1.000000000000000000 ) ) ;
#568 = PRODUCT_DEFINITION_SHAPE ( 'NONE', 'NONE',  #560 ) ;
#569 = DIRECTION ( 'NONE',  ( 1.000000000000000000, 0.000000000000000000, 0.000000000000000000 ) ) ;
#570 = ORIENTED_EDGE ( 'NONE', *, *, #485, .T. ) ;
#571 = VECTOR ( 'NONE', #483, 1000.000000000000000 ) ;
#572 = CC_DESIGN_SECURITY_CLASSIFICATION ( #612, ( #564 ) ) ;
#573 = ADVANCED_FACE ( 'NONE', ( #199 ), #578, .F. ) ;
#574 = AXIS2_PLACEMENT_3D ( 'NONE', #445, #433, #100 ) ;
#575 = DIRECTION ( 'NONE',  ( 1.000000000000000000, 2.775557561562891844E-16, -0.000000000000000000 ) ) ;
#576 = CARTESIAN_POINT ( 'NONE',  ( 80.81277317551845840, -19.72263016300045990, -8.673617379884035472E-16 ) ) ;
#577 = ORIENTED_EDGE ( 'NONE', *, *, #219, .F. ) ;
#578 = CYLINDRICAL_SURFACE ( 'NONE', #162, 2.250000000000001776 ) ;
#579 = EDGE_CURVE ( 'NONE', #428, #444, #140, .T. ) ;
#580 = PLANE ( 'NONE',  #474 ) ;
#581 = EDGE_LOOP ( 'NONE', ( #570, #471, #312, #160 ) ) ;
#582 = CARTESIAN_POINT ( 'NONE',  ( 83.06277317551847261, -19.72263016300045990, 5.000000000000000000 ) ) ;
#583 = DIRECTION ( 'NONE',  ( 1.000000000000000000, -0.000000000000000000, -0.000000000000000000 ) ) ;
#584 = EDGE_CURVE ( 'NONE', #591, #364, #383, .T. ) ;
#585 = ORIENTED_EDGE ( 'NONE', *, *, #485, .F. ) ;
#586 = CARTESIAN_POINT ( 'NONE',  ( 83.06277317551847261, -19.72263016300045990, 2.549999999999999378 ) ) ;
#587 = ORGANIZATION ( 'UNSPECIFIED', 'UNSPECIFIED', '' ) ;
#588 = DIRECTION ( 'NONE',  ( 1.000000000000000000, 1.230300337572203632E-16, -0.000000000000000000 ) ) ;
#589 = LINE ( 'NONE', #65, #88 ) ;
#590 = CARTESIAN_POINT ( 'NONE',  ( -77.93722682448151318, -33.72263016300045990, 5.000000000000000000 ) ) ;
#591 = VERTEX_POINT ( 'NONE', #463 ) ;
#592 = PERSON_AND_ORGANIZATION ( #534, #587 ) ;
#593 = PLANE ( 'NONE',  #365 ) ;
#594 = ORIENTED_EDGE ( 'NONE', *, *, #225, .F. ) ;
#595 = AXIS2_PLACEMENT_3D ( 'NONE', #115, #146, #477 ) ;
#596 = FACE_OUTER_BOUND ( 'NONE', #204, .T. ) ;
#597 = ORIENTED_EDGE ( 'NONE', *, *, #182, .T. ) ;
#598 = CARTESIAN_POINT ( 'NONE',  ( 63.06277317551847972, -33.72263016300044569, 5.000000000000000000 ) ) ;
#599 = DIRECTION ( 'NONE',  ( 1.000000000000000000, 1.230300337572203632E-16, -0.000000000000000000 ) ) ;
#600 = ORIENTED_EDGE ( 'NONE', *, *, #322, .F. ) ;
#601 = VERTEX_POINT ( 'NONE', #216 ) ;
#602 = ADVANCED_FACE ( 'NONE', ( #351 ), #496, .F. ) ;
#603 = PERSON_AND_ORGANIZATION ( #534, #587 ) ;
#604 = VECTOR ( 'NONE', #210, 1000.000000000000000 ) ;
#605 = EDGE_CURVE ( 'NONE', #28, #75, #73, .T. ) ;
#606 = LINE ( 'NONE', #32, #87 ) ;
#607 = CARTESIAN_POINT ( 'NONE',  ( 80.81277317551845840, -19.72263016300045990, 2.549999999999999378 ) ) ;
#608 = DIRECTION ( 'NONE',  ( 0.000000000000000000, 0.000000000000000000, -1.000000000000000000 ) ) ;
#609 = VECTOR ( 'NONE', #418, 1000.000000000000000 ) ;
#610 = ORIENTED_EDGE ( 'NONE', *, *, #450, .T. ) ;
#611 = AXIS2_PLACEMENT_3D ( 'NONE', #287, #101, #569 ) ;
#612 = SECURITY_CLASSIFICATION ( '', '', #385 ) ;
#613 = APPROVAL ( #326, 'UNSPECIFIED' ) ;
#614 = ORIENTED_EDGE ( 'NONE', *, *, #579, .F. ) ;
#615 = DIRECTION ( 'NONE',  ( 1.000000000000000000, 0.000000000000000000, 0.000000000000000000 ) ) ;
#616 = VERTEX_POINT ( 'NONE', #598 ) ;
#617 = DIRECTION ( 'NONE',  ( -0.000000000000000000, -0.000000000000000000, -1.000000000000000000 ) ) ;
ENDSEC;
END-ISO-10303-21;
