ISO-10303-21;
HEADER;
FILE_DESCRIPTION (( 'STEP AP203' ),
    '1' );
FILE_NAME ('õ4.STEP',
    '2026-01-17T18:11:13',
    ( '' ),
    ( '' ),
    'SwSTEP 2.0',
    'SolidWorks 2024',
    '' );
FILE_SCHEMA (( 'CONFIG_CONTROL_DESIGN' ));
ENDSEC;

DATA;
#1 = PERSON_AND_ORGANIZATION ( #650, #455 ) ;
#2 = DIRECTION ( 'NONE',  ( 0.000000000000000000, 0.000000000000000000, 1.000000000000000000 ) ) ;
#3 = ADVANCED_FACE ( 'NONE', ( #418, #406 ), #289, .F. ) ;
#4 = DIRECTION ( 'NONE',  ( 0.000000000000000000, 0.000000000000000000, 1.000000000000000000 ) ) ;
#5 = COORDINATED_UNIVERSAL_TIME_OFFSET ( 3, 0, .AHEAD. ) ;
#6 = DIRECTION ( 'NONE',  ( -0.7071067811865467956, 8.659560562354942719E-17, -0.7071067811865483499 ) ) ;
#7 = CARTESIAN_POINT ( 'NONE',  ( 86.10323193708099154, 10.95806861499363549, -5.000000000000000000 ) ) ;
#8 = ADVANCED_FACE ( 'NONE', ( #630 ), #91, .F. ) ;
#9 = ORIENTED_EDGE ( 'NONE', *, *, #118, .T. ) ;
#10 = FACE_OUTER_BOUND ( 'NONE', #480, .T. ) ;
#11 = FACE_OUTER_BOUND ( 'NONE', #447, .T. ) ;
#12 = ORIENTED_EDGE ( 'NONE', *, *, #387, .T. ) ;
#13 = DIRECTION ( 'NONE',  ( 0.000000000000000000, 0.000000000000000000, 1.000000000000000000 ) ) ;
#14 = PRODUCT_RELATED_PRODUCT_CATEGORY ( 'detail', '', ( #84 ) ) ;
#15 = PERSON_AND_ORGANIZATION ( #650, #455 ) ;
#16 = CC_DESIGN_SECURITY_CLASSIFICATION ( #739, ( #162 ) ) ;
#17 = PLANE ( 'NONE',  #134 ) ;
#18 = CARTESIAN_POINT ( 'NONE',  ( 76.10323193708099154, 6.958068614993637269, 5.000000000000000000 ) ) ;
#19 = ADVANCED_BREP_SHAPE_REPRESENTATION ( '\X2\0445\X0\4', ( #184, #542 ), #114 ) ;
#20 = LINE ( 'NONE', #185, #552 ) ;
#21 = LINE ( 'NONE', #586, #23 ) ;
#22 = CARTESIAN_POINT ( 'NONE',  ( -76.89676806291900846, 6.958068614993637269, 5.000000000000000000 ) ) ;
#23 = VECTOR ( 'NONE', #127, 1000.000000000000000 ) ;
#24 = APPROVAL_ROLE ( '' ) ;
#25 = ORIENTED_EDGE ( 'NONE', *, *, #271, .T. ) ;
#26 = DIRECTION ( 'NONE',  ( 0.7071067811865467956, 8.659560562354942719E-17, 0.7071067811865483499 ) ) ;
#27 = DIRECTION ( 'NONE',  ( 1.000000000000000000, 0.000000000000000000, -0.000000000000000000 ) ) ;
#28 = ORIENTED_EDGE ( 'NONE', *, *, #646, .F. ) ;
#29 = CARTESIAN_POINT ( 'NONE',  ( -76.89676806291900846, -3.041931385006362731, 5.000000000000000000 ) ) ;
#30 = EDGE_CURVE ( 'NONE', #211, #608, #175, .T. ) ;
#31 = LINE ( 'NONE', #695, #501 ) ;
#32 = ORIENTED_EDGE ( 'NONE', *, *, #73, .F. ) ;
#33 = CARTESIAN_POINT ( 'NONE',  ( 91.10323193708099154, -3.041931385006361399, 5.000000000000000000 ) ) ;
#34 = EDGE_CURVE ( 'NONE', #152, #682, #584, .T. ) ;
#35 = VERTEX_POINT ( 'NONE', #353 ) ;
#36 = ORIENTED_EDGE ( 'NONE', *, *, #128, .F. ) ;
#37 = FACE_OUTER_BOUND ( 'NONE', #506, .T. ) ;
#38 = VECTOR ( 'NONE', #597, 1000.000000000000000 ) ;
#39 = ADVANCED_FACE ( 'NONE', ( #581 ), #67, .F. ) ;
#40 = ORIENTED_EDGE ( 'NONE', *, *, #614, .T. ) ;
#41 = ORIENTED_EDGE ( 'NONE', *, *, #482, .T. ) ;
#42 = CARTESIAN_POINT ( 'NONE',  ( -85.89676806291900846, 10.95806861499363549, -4.999999999999997335 ) ) ;
#43 = ORIENTED_EDGE ( 'NONE', *, *, #90, .F. ) ;
#44 = FACE_OUTER_BOUND ( 'NONE', #654, .T. ) ;
#45 = PERSON_AND_ORGANIZATION_ROLE ( 'design_supplier' ) ;
#46 = ORIENTED_EDGE ( 'NONE', *, *, #592, .F. ) ;
#47 = CARTESIAN_POINT ( 'NONE',  ( 86.10323193708099154, 24.95806861499363904, 0.000000000000000000 ) ) ;
#48 = ADVANCED_FACE ( 'NONE', ( #11 ), #17, .F. ) ;
#49 = CARTESIAN_POINT ( 'NONE',  ( 76.10323193708099154, 6.958068614993637269, 5.000000000000000000 ) ) ;
#50 = VERTEX_POINT ( 'NONE', #600 ) ;
#51 = CARTESIAN_POINT ( 'NONE',  ( 91.10323193708099154, 10.95806861499363549, -0.2999999999999990452 ) ) ;
#52 = DIRECTION ( 'NONE',  ( 1.000000000000000000, -0.000000000000000000, -0.000000000000000000 ) ) ;
#53 = EDGE_CURVE ( 'NONE', #527, #678, #653, .T. ) ;
#54 = APPLICATION_CONTEXT ( 'configuration controlled 3d designs of mechanical parts and assemblies' ) ;
#55 = ORIENTED_EDGE ( 'NONE', *, *, #62, .T. ) ;
#56 = DIRECTION ( 'NONE',  ( -0.000000000000000000, -1.000000000000000000, -0.000000000000000000 ) ) ;
#57 = DIRECTION ( 'NONE',  ( 1.000000000000000000, 1.548860246407863829E-16, -0.000000000000000000 ) ) ;
#58 = EDGE_CURVE ( 'NONE', #619, #81, #533, .T. ) ;
#59 = CARTESIAN_POINT ( 'NONE',  ( 91.10323193708099154, 10.95806861499363549, -5.000000000000000000 ) ) ;
#60 = CARTESIAN_POINT ( 'NONE',  ( -90.89676806291900846, 24.95806861499363549, 5.000000000000000000 ) ) ;
#61 = VECTOR ( 'NONE', #522, 1000.000000000000000 ) ;
#62 = EDGE_CURVE ( 'NONE', #158, #500, #535, .T. ) ;
#63 = ORIENTED_EDGE ( 'NONE', *, *, #709, .T. ) ;
#64 = DIRECTION ( 'NONE',  ( -1.000000000000000000, -0.000000000000000000, -0.000000000000000000 ) ) ;
#65 = DIRECTION ( 'NONE',  ( 0.000000000000000000, 0.000000000000000000, 1.000000000000000000 ) ) ;
#66 = PLANE ( 'NONE',  #476 ) ;
#67 = PLANE ( 'NONE',  #100 ) ;
#68 = DIRECTION ( 'NONE',  ( -1.000000000000000000, 0.000000000000000000, -0.000000000000000000 ) ) ;
#69 = VECTOR ( 'NONE', #523, 1000.000000000000000 ) ;
#70 = CARTESIAN_POINT ( 'NONE',  ( 88.65323193708097449, 10.95806861499363549, -5.000000000000000000 ) ) ;
#71 = LINE ( 'NONE', #591, #324 ) ;
#72 = CARTESIAN_POINT ( 'NONE',  ( -90.89676806291900846, 10.95806861499363549, -0.2999999999999964362 ) ) ;
#73 = EDGE_CURVE ( 'NONE', #176, #741, #83, .T. ) ;
#74 = DIRECTION ( 'NONE',  ( 0.000000000000000000, 0.000000000000000000, 1.000000000000000000 ) ) ;
#75 = CARTESIAN_POINT ( 'NONE',  ( 76.10323193708099154, 6.958068614993637269, 0.000000000000000000 ) ) ;
#76 = VECTOR ( 'NONE', #316, 1000.000000000000000 ) ;
#77 = VECTOR ( 'NONE', #56, 1000.000000000000000 ) ;
#78 = APPROVAL_DATE_TIME ( #192, #230 ) ;
#79 = ADVANCED_FACE ( 'NONE', ( #421, #378 ), #547, .T. ) ;
#80 = VECTOR ( 'NONE', #357, 1000.000000000000000 ) ;
#81 = VERTEX_POINT ( 'NONE', #256 ) ;
#82 = DIRECTION ( 'NONE',  ( 0.000000000000000000, 0.000000000000000000, 1.000000000000000000 ) ) ;
#83 = LINE ( 'NONE', #363, #76 ) ;
#84 = PRODUCT ( '\X2\0445\X0\4', '\X2\0445\X0\4', '', ( #618 ) ) ;
#85 = ORIENTED_EDGE ( 'NONE', *, *, #405, .F. ) ;
#86 = FACE_OUTER_BOUND ( 'NONE', #193, .T. ) ;
#87 = APPLICATION_PROTOCOL_DEFINITION ( 'international standard', 'config_control_design', 1994, #726 ) ;
#88 = ORIENTED_EDGE ( 'NONE', *, *, #449, .F. ) ;
#89 = CARTESIAN_POINT ( 'NONE',  ( 86.10323193708099154, -0.000000000000000000, 0.000000000000000000 ) ) ;
#90 = EDGE_CURVE ( 'NONE', #664, #360, #31, .T. ) ;
#91 = CONICAL_SURFACE ( 'NONE', #187, 4.700000000000001066, 0.7853981633974492782 ) ;
#92 = ORIENTED_EDGE ( 'NONE', *, *, #348, .F. ) ;
#93 = CARTESIAN_POINT ( 'NONE',  ( -90.89676806291900846, 24.95806861499363549, -9.999999999999998224 ) ) ;
#94 = ORIENTED_EDGE ( 'NONE', *, *, #592, .T. ) ;
#95 = FACE_OUTER_BOUND ( 'NONE', #736, .T. ) ;
#96 = EDGE_CURVE ( 'NONE', #678, #554, #279, .T. ) ;
#97 = EDGE_LOOP ( 'NONE', ( #693, #321, #101, #707 ) ) ;
#98 = FACE_OUTER_BOUND ( 'NONE', #494, .T. ) ;
#99 = CALENDAR_DATE ( 2026, 17, 1 ) ;
#100 = AXIS2_PLACEMENT_3D ( 'NONE', #180, #296, #524 ) ;
#101 = ORIENTED_EDGE ( 'NONE', *, *, #118, .F. ) ;
#102 = PRODUCT_DEFINITION ( 'UNKNOWN', '', #162, #352 ) ;
#103 = DIRECTION ( 'NONE',  ( -1.000000000000000000, 0.000000000000000000, -0.000000000000000000 ) ) ;
#104 = AXIS2_PLACEMENT_3D ( 'NONE', #444, #502, #269 ) ;
#105 = VERTEX_POINT ( 'NONE', #629 ) ;
#106 = CARTESIAN_POINT ( 'NONE',  ( -90.89676806291900846, 24.95806861499363549, 0.000000000000000000 ) ) ;
#107 = DIRECTION ( 'NONE',  ( 0.000000000000000000, 0.000000000000000000, -1.000000000000000000 ) ) ;
#108 = CARTESIAN_POINT ( 'NONE',  ( -90.89676806291900846, 10.95806861499363549, -9.699999999999999289 ) ) ;
#109 = CARTESIAN_POINT ( 'NONE',  ( 91.10323193708099154, 24.95806861499363904, 5.000000000000000000 ) ) ;
#110 = CARTESIAN_POINT ( 'NONE',  ( 86.10323193708099154, 10.95806861499363549, -7.249999999999994671 ) ) ;
#111 = CARTESIAN_POINT ( 'NONE',  ( -85.89676806291900846, 10.95806861499363549, -7.249999999999992006 ) ) ;
#112 = AXIS2_PLACEMENT_3D ( 'NONE', #715, #706, #711 ) ;
#113 = CARTESIAN_POINT ( 'NONE',  ( -90.89676806291900846, 24.95806861499363549, 5.000000000000000000 ) ) ;
#114 =( GEOMETRIC_REPRESENTATION_CONTEXT ( 3 ) GLOBAL_UNCERTAINTY_ASSIGNED_CONTEXT ( ( #174 ) ) GLOBAL_UNIT_ASSIGNED_CONTEXT ( ( #245, #596, #704 ) ) REPRESENTATION_CONTEXT ( 'NONE', 'WORKASPACE' ) );
#115 = CC_DESIGN_DATE_AND_TIME_ASSIGNMENT ( #197, #376, ( #739 ) ) ;
#116 = ORIENTED_EDGE ( 'NONE', *, *, #30, .T. ) ;
#117 = DIRECTION ( 'NONE',  ( -1.000000000000000000, -0.000000000000000000, -0.000000000000000000 ) ) ;
#118 = EDGE_CURVE ( 'NONE', #35, #710, #697, .T. ) ;
#119 = ORIENTED_EDGE ( 'NONE', *, *, #62, .F. ) ;
#120 = DIRECTION ( 'NONE',  ( -1.000000000000000000, -0.000000000000000000, -0.000000000000000000 ) ) ;
#121 = ORIENTED_EDGE ( 'NONE', *, *, #571, .F. ) ;
#122 = EDGE_CURVE ( 'NONE', #554, #443, #635, .T. ) ;
#123 = FACE_OUTER_BOUND ( 'NONE', #451, .T. ) ;
#124 = AXIS2_PLACEMENT_3D ( 'NONE', #440, #257, #669 ) ;
#125 = CIRCLE ( 'NONE', #312, 2.249999999999988010 ) ;
#126 = CARTESIAN_POINT ( 'NONE',  ( -90.89676806291900846, 24.95806861499363549, -9.999999999999998224 ) ) ;
#127 = DIRECTION ( 'NONE',  ( 0.000000000000000000, -1.000000000000000000, 0.000000000000000000 ) ) ;
#128 = EDGE_CURVE ( 'NONE', #145, #450, #275, .T. ) ;
#129 = CALENDAR_DATE ( 2026, 17, 1 ) ;
#130 = CARTESIAN_POINT ( 'NONE',  ( 86.10323193708099154, 24.95806861499363904, -9.999999999999998224 ) ) ;
#131 = DIRECTION ( 'NONE',  ( -1.000000000000000000, -0.000000000000000000, -0.000000000000000000 ) ) ;
#132 = CARTESIAN_POINT ( 'NONE',  ( -90.89676806291900846, 10.95806861499363549, -2.750000000000003109 ) ) ;
#133 = DIRECTION ( 'NONE',  ( -0.000000000000000000, -0.000000000000000000, -1.000000000000000000 ) ) ;
#134 = AXIS2_PLACEMENT_3D ( 'NONE', #242, #644, #27 ) ;
#135 = DIRECTION ( 'NONE',  ( 1.000000000000000000, 0.000000000000000000, 0.000000000000000000 ) ) ;
#136 = ORIENTED_EDGE ( 'NONE', *, *, #96, .F. ) ;
#137 = DIRECTION ( 'NONE',  ( 1.000000000000000000, 0.000000000000000000, -0.000000000000000000 ) ) ;
#138 = CARTESIAN_POINT ( 'NONE',  ( -90.89676806291900846, -3.041931385006364952, 5.000000000000000000 ) ) ;
#139 = ADVANCED_FACE ( 'NONE', ( #350 ), #515, .F. ) ;
#140 = LINE ( 'NONE', #89, #164 ) ;
#141 = ORIENTED_EDGE ( 'NONE', *, *, #305, .T. ) ;
#142 = DIRECTION ( 'NONE',  ( -0.000000000000000000, 0.000000000000000000, -1.000000000000000000 ) ) ;
#143 = ORIENTED_EDGE ( 'NONE', *, *, #677, .F. ) ;
#144 = VECTOR ( 'NONE', #26, 999.9999999999998863 ) ;
#145 = VERTEX_POINT ( 'NONE', #508 ) ;
#146 = VERTEX_POINT ( 'NONE', #292 ) ;
#147 = DIRECTION ( 'NONE',  ( 1.000000000000000000, -0.000000000000000000, -0.000000000000000000 ) ) ;
#148 = VECTOR ( 'NONE', #307, 1000.000000000000000 ) ;
#149 = ORIENTED_EDGE ( 'NONE', *, *, #482, .F. ) ;
#150 = DIRECTION ( 'NONE',  ( -1.000000000000000000, -0.000000000000000000, -0.000000000000000000 ) ) ;
#151 = EDGE_CURVE ( 'NONE', #710, #105, #218, .T. ) ;
#152 = VERTEX_POINT ( 'NONE', #110 ) ;
#153 = ORIENTED_EDGE ( 'NONE', *, *, #53, .T. ) ;
#154 = DIRECTION ( 'NONE',  ( -1.000000000000000000, -1.906289534040447363E-17, -0.000000000000000000 ) ) ;
#155 = CARTESIAN_POINT ( 'NONE',  ( 91.10323193708099154, -3.041931385006363175, -9.999999999999998224 ) ) ;
#156 = CIRCLE ( 'NONE', #587, 2.249999999999988010 ) ;
#157 = CONICAL_SURFACE ( 'NONE', #656, 4.700000000000001066, 0.7853981633974492782 ) ;
#158 = VERTEX_POINT ( 'NONE', #749 ) ;
#159 = DIRECTION ( 'NONE',  ( -1.000000000000000000, 0.000000000000000000, 0.000000000000000000 ) ) ;
#160 = ADVANCED_FACE ( 'NONE', ( #10 ), #287, .F. ) ;
#161 = CONICAL_SURFACE ( 'NONE', #637, 4.700000000000000178, 0.7853981633974492782 ) ;
#162 = PRODUCT_DEFINITION_FORMATION_WITH_SPECIFIED_SOURCE ( 'ANY', '', #84, .NOT_KNOWN. ) ;
#163 = DIRECTION ( 'NONE',  ( 0.000000000000000000, 0.000000000000000000, 1.000000000000000000 ) ) ;
#164 = VECTOR ( 'NONE', #322, 1000.000000000000000 ) ;
#165 = CARTESIAN_POINT ( 'NONE',  ( -90.89676806291900846, 24.95806861499363549, 5.000000000000000000 ) ) ;
#166 = CARTESIAN_POINT ( 'NONE',  ( -90.89676806291900846, 10.95806861499363549, -4.999999999999997335 ) ) ;
#167 = EDGE_CURVE ( 'NONE', #414, #682, #156, .T. ) ;
#168 = CARTESIAN_POINT ( 'NONE',  ( 76.10323193708099154, 6.958068614993637269, 5.000000000000000000 ) ) ;
#169 = PERSON_AND_ORGANIZATION_ROLE ( 'creator' ) ;
#170 = EDGE_LOOP ( 'NONE', ( #40, #578, #283, #729 ) ) ;
#171 = CARTESIAN_POINT ( 'NONE',  ( -88.44676806291899140, 10.95806861499363549, -4.999999999999997335 ) ) ;
#172 = LINE ( 'NONE', #401, #297 ) ;
#173 = VECTOR ( 'NONE', #453, 1000.000000000000000 ) ;
#174 = UNCERTAINTY_MEASURE_WITH_UNIT (LENGTH_MEASURE( 1.000000000000000082E-05 ), #245, 'distance_accuracy_value', 'NONE');
#175 = LINE ( 'NONE', #108, #647 ) ;
#176 = VERTEX_POINT ( 'NONE', #155 ) ;
#177 = DIRECTION ( 'NONE',  ( -0.000000000000000000, -0.000000000000000000, -1.000000000000000000 ) ) ;
#178 = VECTOR ( 'NONE', #2, 1000.000000000000000 ) ;
#179 = EDGE_CURVE ( 'NONE', #682, #466, #521, .T. ) ;
#180 = CARTESIAN_POINT ( 'NONE',  ( 76.10323193708099154, -3.041931385006363175, 5.000000000000000000 ) ) ;
#181 = LINE ( 'NONE', #368, #675 ) ;
#182 = EDGE_CURVE ( 'NONE', #497, #500, #222, .T. ) ;
#183 = DIRECTION ( 'NONE',  ( 0.000000000000000000, 0.000000000000000000, 1.000000000000000000 ) ) ;
#184 = MANIFOLD_SOLID_BREP ( '\X2\04170435043d043a043e0432043a0430\X0\ \X2\0434043b044f\X0\  \X2\04320438043d04420430\X0\ \X2\0441\X0\ \X2\043f043b043e0441043a043e0439\X0\ \X2\0433043e043b043e0432043a043e0439\X0\ M44', #223 ) ;
#185 = CARTESIAN_POINT ( 'NONE',  ( -85.89676806291900846, -0.000000000000000000, -0.000000000000000000 ) ) ;
#186 = CARTESIAN_POINT ( 'NONE',  ( 91.10323193708099154, -3.041931385006361399, 0.000000000000000000 ) ) ;
#187 = AXIS2_PLACEMENT_3D ( 'NONE', #588, #293, #183 ) ;
#188 = CARTESIAN_POINT ( 'NONE',  ( 91.10323193708099154, -3.041931385006361399, 5.000000000000000000 ) ) ;
#189 = CIRCLE ( 'NONE', #262, 4.700000000000000178 ) ;
#190 = DIRECTION ( 'NONE',  ( 1.906289534040447363E-17, -1.000000000000000000, 0.000000000000000000 ) ) ;
#191 = LINE ( 'NONE', #474, #144 ) ;
#192 = DATE_AND_TIME ( #699, #599 ) ;
#193 = EDGE_LOOP ( 'NONE', ( #604, #338, #267, #485 ) ) ;
#194 = LINE ( 'NONE', #422, #574 ) ;
#195 = ORIENTED_EDGE ( 'NONE', *, *, #179, .T. ) ;
#196 = DIRECTION ( 'NONE',  ( 0.000000000000000000, 0.000000000000000000, -1.000000000000000000 ) ) ;
#197 = DATE_AND_TIME ( #99, #413 ) ;
#198 = CONICAL_SURFACE ( 'NONE', #325, 4.700000000000000178, 0.7853981633974492782 ) ;
#199 = AXIS2_PLACEMENT_3D ( 'NONE', #491, #142, #272 ) ;
#200 = ORIENTED_EDGE ( 'NONE', *, *, #73, .T. ) ;
#201 = LINE ( 'NONE', #666, #285 ) ;
#202 = ORIENTED_EDGE ( 'NONE', *, *, #96, .T. ) ;
#203 = ORIENTED_EDGE ( 'NONE', *, *, #638, .T. ) ;
#204 = ORIENTED_EDGE ( 'NONE', *, *, #331, .T. ) ;
#205 = DIRECTION ( 'NONE',  ( 0.000000000000000000, 0.000000000000000000, -1.000000000000000000 ) ) ;
#206 = ORIENTED_EDGE ( 'NONE', *, *, #461, .T. ) ;
#207 = ORIENTED_EDGE ( 'NONE', *, *, #122, .F. ) ;
#208 = LINE ( 'NONE', #214, #351 ) ;
#209 = EDGE_CURVE ( 'NONE', #741, #473, #172, .T. ) ;
#210 = CIRCLE ( 'NONE', #735, 2.249999999999994227 ) ;
#211 = VERTEX_POINT ( 'NONE', #623 ) ;
#212 = LOCAL_TIME ( 21, 11, 13.00000000000000000, #5 ) ;
#213 = ORIENTED_EDGE ( 'NONE', *, *, #493, .T. ) ;
#214 = CARTESIAN_POINT ( 'NONE',  ( 76.10323193708099154, -3.041931385006363175, 5.000000000000000000 ) ) ;
#215 = ADVANCED_FACE ( 'NONE', ( #282 ), #157, .F. ) ;
#216 = ORIENTED_EDGE ( 'NONE', *, *, #34, .F. ) ;
#217 = LINE ( 'NONE', #407, #518 ) ;
#218 = LINE ( 'NONE', #49, #69 ) ;
#219 = ORIENTED_EDGE ( 'NONE', *, *, #382, .F. ) ;
#220 = ORIENTED_EDGE ( 'NONE', *, *, #534, .F. ) ;
#221 = DIRECTION ( 'NONE',  ( -0.000000000000000000, -0.000000000000000000, -1.000000000000000000 ) ) ;
#222 = LINE ( 'NONE', #689, #236 ) ;
#223 = CLOSED_SHELL ( 'NONE', ( #517, #561, #8, #458, #314, #3, #432, #301, #139, #39, #160, #701, #585, #686, #427, #48, #79, #424, #247, #215, #224, #477 ) ) ;
#224 = ADVANCED_FACE ( 'NONE', ( #567 ), #404, .F. ) ;
#225 = CARTESIAN_POINT ( 'NONE',  ( -85.89676806291900846, -3.041931385006364952, -9.999999999999998224 ) ) ;
#226 = VECTOR ( 'NONE', #133, 1000.000000000000000 ) ;
#227 = CC_DESIGN_APPROVAL ( #230, ( #162 ) ) ;
#228 = CARTESIAN_POINT ( 'NONE',  ( -90.89676806291900846, 10.95806861499363549, -4.999999999999997335 ) ) ;
#229 = CARTESIAN_POINT ( 'NONE',  ( 91.10323193708099154, 10.95806861499363549, -7.249999999999994671 ) ) ;
#230 = APPROVAL ( #577, 'UNSPECIFIED' ) ;
#231 = CARTESIAN_POINT ( 'NONE',  ( -85.89676806291900846, 24.95806861499363549, -9.999999999999998224 ) ) ;
#232 = CARTESIAN_POINT ( 'NONE',  ( -76.89676806291900846, -3.041931385006362731, 5.000000000000000000 ) ) ;
#233 = ORIENTED_EDGE ( 'NONE', *, *, #34, .T. ) ;
#234 = DIRECTION ( 'NONE',  ( 1.000000000000000000, 1.156482317317871478E-16, -0.000000000000000000 ) ) ;
#235 = DIRECTION ( 'NONE',  ( -0.7071067811865467956, 0.000000000000000000, 0.7071067811865483499 ) ) ;
#236 = VECTOR ( 'NONE', #163, 1000.000000000000000 ) ;
#237 = ORIENTED_EDGE ( 'NONE', *, *, #445, .T. ) ;
#238 = DIRECTION ( 'NONE',  ( 0.000000000000000000, 0.000000000000000000, 1.000000000000000000 ) ) ;
#239 = APPROVAL ( #463, 'UNSPECIFIED' ) ;
#240 = AXIS2_PLACEMENT_3D ( 'NONE', #42, #137, #375 ) ;
#241 = PERSON_AND_ORGANIZATION_ROLE ( 'creator' ) ;
#242 = CARTESIAN_POINT ( 'NONE',  ( 0.000000000000000000, 0.000000000000000000, -9.999999999999998224 ) ) ;
#243 = CARTESIAN_POINT ( 'NONE',  ( 91.10323193708099154, 24.95806861499363904, 5.000000000000000000 ) ) ;
#244 = EDGE_CURVE ( 'NONE', #619, #145, #570, .T. ) ;
#245 =( LENGTH_UNIT ( ) NAMED_UNIT ( * ) SI_UNIT ( .MILLI., .METRE. ) );
#246 = DIRECTION ( 'NONE',  ( 0.000000000000000000, 0.000000000000000000, 1.000000000000000000 ) ) ;
#247 = ADVANCED_FACE ( 'NONE', ( #462 ), #408, .F. ) ;
#248 = DIRECTION ( 'NONE',  ( 1.000000000000000000, -0.000000000000000000, -0.000000000000000000 ) ) ;
#249 = VECTOR ( 'NONE', #82, 1000.000000000000000 ) ;
#250 = SHAPE_DEFINITION_REPRESENTATION ( #556, #19 ) ;
#251 = AXIS2_PLACEMENT_3D ( 'NONE', #613, #674, #265 ) ;
#252 = CC_DESIGN_PERSON_AND_ORGANIZATION_ASSIGNMENT ( #366, #45, ( #162 ) ) ;
#253 = ORIENTED_EDGE ( 'NONE', *, *, #732, .T. ) ;
#254 = LINE ( 'NONE', #22, #661 ) ;
#255 = PERSON_AND_ORGANIZATION ( #650, #455 ) ;
#256 = CARTESIAN_POINT ( 'NONE',  ( -90.89676806291900846, -3.041931385006364064, -9.999999999999998224 ) ) ;
#257 = DIRECTION ( 'NONE',  ( -1.000000000000000000, -0.000000000000000000, -0.000000000000000000 ) ) ;
#258 = ORIENTED_EDGE ( 'NONE', *, *, #261, .T. ) ;
#259 = ORIENTED_EDGE ( 'NONE', *, *, #167, .T. ) ;
#260 = DIRECTION ( 'NONE',  ( 1.000000000000000000, -0.000000000000000000, -0.000000000000000000 ) ) ;
#261 = EDGE_CURVE ( 'NONE', #497, #176, #71, .T. ) ;
#262 = AXIS2_PLACEMENT_3D ( 'NONE', #318, #260, #724 ) ;
#263 = AXIS2_PLACEMENT_3D ( 'NONE', #713, #190, #589 ) ;
#264 = ORIENTED_EDGE ( 'NONE', *, *, #271, .F. ) ;
#265 = DIRECTION ( 'NONE',  ( -0.000000000000000000, 0.000000000000000000, -1.000000000000000000 ) ) ;
#266 = EDGE_CURVE ( 'NONE', #710, #607, #194, .T. ) ;
#267 = ORIENTED_EDGE ( 'NONE', *, *, #531, .T. ) ;
#268 = EDGE_LOOP ( 'NONE', ( #679, #388 ) ) ;
#269 = DIRECTION ( 'NONE',  ( 0.000000000000000000, 0.000000000000000000, 1.000000000000000000 ) ) ;
#270 = EDGE_LOOP ( 'NONE', ( #207, #136, #206, #626, #673, #280, #590, #560 ) ) ;
#271 = EDGE_CURVE ( 'NONE', #473, #497, #21, .T. ) ;
#272 = DIRECTION ( 'NONE',  ( -1.000000000000000000, 0.000000000000000000, 0.000000000000000000 ) ) ;
#273 = ORIENTED_EDGE ( 'NONE', *, *, #372, .T. ) ;
#274 = DIRECTION ( 'NONE',  ( 1.000000000000000000, -0.000000000000000000, -0.000000000000000000 ) ) ;
#275 = LINE ( 'NONE', #563, #358 ) ;
#276 = EDGE_LOOP ( 'NONE', ( #498, #545, #412, #540 ) ) ;
#277 = ORIENTED_EDGE ( 'NONE', *, *, #410, .F. ) ;
#278 = CARTESIAN_POINT ( 'NONE',  ( -85.89676806291900846, 10.95806861499363549, -4.999999999999997335 ) ) ;
#279 = LINE ( 'NONE', #113, #323 ) ;
#280 = ORIENTED_EDGE ( 'NONE', *, *, #663, .T. ) ;
#281 = DIRECTION ( 'NONE',  ( 0.000000000000000000, 0.000000000000000000, -1.000000000000000000 ) ) ;
#282 = FACE_OUTER_BOUND ( 'NONE', #276, .T. ) ;
#283 = ORIENTED_EDGE ( 'NONE', *, *, #266, .F. ) ;
#284 = CARTESIAN_POINT ( 'NONE',  ( -85.89676806291900846, 10.95806861499363549, -2.750000000000003109 ) ) ;
#285 = VECTOR ( 'NONE', #234, 1000.000000000000000 ) ;
#286 = AXIS2_PLACEMENT_3D ( 'NONE', #634, #349, #68 ) ;
#287 = PLANE ( 'NONE',  #490 ) ;
#288 = VECTOR ( 'NONE', #708, 1000.000000000000000 ) ;
#289 = PLANE ( 'NONE',  #428 ) ;
#290 = CYLINDRICAL_SURFACE ( 'NONE', #712, 2.249999999999994227 ) ;
#291 = EDGE_CURVE ( 'NONE', #601, #664, #295, .T. ) ;
#292 = CARTESIAN_POINT ( 'NONE',  ( -76.89676806291900846, 6.958068614993637269, 0.000000000000000000 ) ) ;
#293 = DIRECTION ( 'NONE',  ( -1.000000000000000000, -0.000000000000000000, -0.000000000000000000 ) ) ;
#294 = CC_DESIGN_PERSON_AND_ORGANIZATION_ASSIGNMENT ( #526, #698, ( #84 ) ) ;
#295 = LINE ( 'NONE', #132, #441 ) ;
#296 = DIRECTION ( 'NONE',  ( 1.000000000000000000, 0.000000000000000000, 0.000000000000000000 ) ) ;
#297 = VECTOR ( 'NONE', #684, 1000.000000000000000 ) ;
#298 = FACE_BOUND ( 'NONE', #429, .T. ) ;
#299 = VECTOR ( 'NONE', #430, 1000.000000000000000 ) ;
#300 = CIRCLE ( 'NONE', #104, 4.700000000000001066 ) ;
#301 = ADVANCED_FACE ( 'NONE', ( #123 ), #717, .F. ) ;
#302 = DATE_TIME_ROLE ( 'creation_date' ) ;
#303 = LINE ( 'NONE', #594, #148 ) ;
#304 = DIRECTION ( 'NONE',  ( -1.000000000000000000, -0.000000000000000000, -0.000000000000000000 ) ) ;
#305 = EDGE_CURVE ( 'NONE', #50, #152, #210, .T. ) ;
#306 = APPROVAL_STATUS ( 'not_yet_approved' ) ;
#307 = DIRECTION ( 'NONE',  ( 1.000000000000000000, -1.734723475976805615E-16, 0.000000000000000000 ) ) ;
#308 = VECTOR ( 'NONE', #651, 1000.000000000000000 ) ;
#309 = LINE ( 'NONE', #188, #431 ) ;
#310 = AXIS2_PLACEMENT_3D ( 'NONE', #171, #150, #617 ) ;
#311 = APPROVAL_PERSON_ORGANIZATION ( #532, #230, #464 ) ;
#312 = AXIS2_PLACEMENT_3D ( 'NONE', #467, #120, #356 ) ;
#313 = EDGE_LOOP ( 'NONE', ( #557, #213, #259, #216 ) ) ;
#314 = ADVANCED_FACE ( 'NONE', ( #426, #298 ), #66, .F. ) ;
#315 = DIRECTION ( 'NONE',  ( -1.548860246407863829E-16, 1.000000000000000000, 0.000000000000000000 ) ) ;
#316 = DIRECTION ( 'NONE',  ( -0.000000000000000000, 1.000000000000000000, -0.000000000000000000 ) ) ;
#317 = ORIENTED_EDGE ( 'NONE', *, *, #509, .T. ) ;
#318 = CARTESIAN_POINT ( 'NONE',  ( 91.10323193708099154, 10.95806861499363549, -5.000000000000000000 ) ) ;
#319 = EDGE_CURVE ( 'NONE', #414, #553, #191, .T. ) ;
#320 = ORIENTED_EDGE ( 'NONE', *, *, #244, .T. ) ;
#321 = ORIENTED_EDGE ( 'NONE', *, *, #151, .F. ) ;
#322 = DIRECTION ( 'NONE',  ( 0.000000000000000000, 1.000000000000000000, 0.000000000000000000 ) ) ;
#323 = VECTOR ( 'NONE', #341, 1000.000000000000000 ) ;
#324 = VECTOR ( 'NONE', #420, 1000.000000000000000 ) ;
#325 = AXIS2_PLACEMENT_3D ( 'NONE', #371, #719, #196 ) ;
#326 = CC_DESIGN_APPROVAL ( #379, ( #739 ) ) ;
#327 = ORIENTED_EDGE ( 'NONE', *, *, #534, .T. ) ;
#328 = ORIENTED_EDGE ( 'NONE', *, *, #657, .F. ) ;
#329 = ORIENTED_EDGE ( 'NONE', *, *, #571, .T. ) ;
#330 = CARTESIAN_POINT ( 'NONE',  ( 91.10323193708099154, 10.95806861499363549, -9.700000000000001066 ) ) ;
#331 = EDGE_CURVE ( 'NONE', #554, #619, #181, .T. ) ;
#332 = ORIENTED_EDGE ( 'NONE', *, *, #493, .F. ) ;
#333 = CARTESIAN_POINT ( 'NONE',  ( 91.10323193708099154, 10.95806861499363549, -5.000000000000000000 ) ) ;
#334 = ORIENTED_EDGE ( 'NONE', *, *, #331, .F. ) ;
#335 = ORIENTED_EDGE ( 'NONE', *, *, #266, .T. ) ;
#336 = PLANE ( 'NONE',  #738 ) ;
#337 = CC_DESIGN_APPROVAL ( #239, ( #102 ) ) ;
#338 = ORIENTED_EDGE ( 'NONE', *, *, #319, .T. ) ;
#339 = DIRECTION ( 'NONE',  ( 1.000000000000000000, 0.000000000000000000, -0.000000000000000000 ) ) ;
#340 = AXIS2_PLACEMENT_3D ( 'NONE', #70, #248, #530 ) ;
#341 = DIRECTION ( 'NONE',  ( -1.000000000000000000, -1.906289534040447363E-17, -0.000000000000000000 ) ) ;
#342 = ORIENTED_EDGE ( 'NONE', *, *, #348, .T. ) ;
#343 = CARTESIAN_POINT ( 'NONE',  ( -90.89676806291900846, -3.041931385006364952, 5.000000000000000000 ) ) ;
#344 = CARTESIAN_POINT ( 'NONE',  ( 76.10323193708099154, 6.958068614993637269, 5.000000000000000000 ) ) ;
#345 = APPROVAL_DATE_TIME ( #692, #239 ) ;
#346 = CARTESIAN_POINT ( 'NONE',  ( 88.65323193708097449, 10.95806861499363549, -7.249999999999988454 ) ) ;
#347 = DIRECTION ( 'NONE',  ( -1.156482317317871478E-16, 1.000000000000000000, 0.000000000000000000 ) ) ;
#348 = EDGE_CURVE ( 'NONE', #443, #81, #595, .T. ) ;
#349 = DIRECTION ( 'NONE',  ( 0.000000000000000000, 0.000000000000000000, -1.000000000000000000 ) ) ;
#350 = FACE_OUTER_BOUND ( 'NONE', #97, .T. ) ;
#351 = VECTOR ( 'NONE', #495, 1000.000000000000000 ) ;
#352 = DESIGN_CONTEXT ( 'detailed design', #54, 'design' ) ;
#353 = CARTESIAN_POINT ( 'NONE',  ( -76.89676806291900846, 6.958068614993637269, 5.000000000000000000 ) ) ;
#354 = FACE_OUTER_BOUND ( 'NONE', #270, .T. ) ;
#355 = ORIENTED_EDGE ( 'NONE', *, *, #449, .T. ) ;
#356 = DIRECTION ( 'NONE',  ( 0.000000000000000000, 0.000000000000000000, 1.000000000000000000 ) ) ;
#357 = DIRECTION ( 'NONE',  ( -0.000000000000000000, 1.000000000000000000, -0.000000000000000000 ) ) ;
#358 = VECTOR ( 'NONE', #177, 1000.000000000000000 ) ;
#359 = DATE_AND_TIME ( #475, #212 ) ;
#360 = VERTEX_POINT ( 'NONE', #72 ) ;
#361 = DIRECTION ( 'NONE',  ( 0.000000000000000000, -1.000000000000000000, 0.000000000000000000 ) ) ;
#362 = EDGE_CURVE ( 'NONE', #664, #211, #125, .T. ) ;
#363 = CARTESIAN_POINT ( 'NONE',  ( 91.10323193708099154, 24.95806861499363904, -9.999999999999998224 ) ) ;
#364 = CARTESIAN_POINT ( 'NONE',  ( -90.89676806291900846, 10.95806861499363549, -7.249999999999992006 ) ) ;
#365 = CARTESIAN_POINT ( 'NONE',  ( -90.89676806291900846, 10.95806861499363549, -4.999999999999997335 ) ) ;
#366 = PERSON_AND_ORGANIZATION ( #650, #455 ) ;
#367 = DIRECTION ( 'NONE',  ( -1.000000000000000000, 0.000000000000000000, 0.000000000000000000 ) ) ;
#368 = CARTESIAN_POINT ( 'NONE',  ( -90.89676806291900846, 24.95806861499363549, 5.000000000000000000 ) ) ;
#369 = CARTESIAN_POINT ( 'NONE',  ( 0.000000000000000000, 0.000000000000000000, 0.000000000000000000 ) ) ;
#370 = EDGE_LOOP ( 'NONE', ( #36, #681, #616, #253, #41, #373 ) ) ;
#371 = CARTESIAN_POINT ( 'NONE',  ( 91.10323193708099154, 10.95806861499363549, -5.000000000000000000 ) ) ;
#372 = EDGE_CURVE ( 'NONE', #667, #685, #583, .T. ) ;
#373 = ORIENTED_EDGE ( 'NONE', *, *, #649, .T. ) ;
#374 = ORIENTED_EDGE ( 'NONE', *, *, #182, .T. ) ;
#375 = DIRECTION ( 'NONE',  ( 0.000000000000000000, 0.000000000000000000, -1.000000000000000000 ) ) ;
#376 = DATE_TIME_ROLE ( 'classification_date' ) ;
#377 = DIRECTION ( 'NONE',  ( 0.000000000000000000, 0.000000000000000000, 1.000000000000000000 ) ) ;
#378 = FACE_OUTER_BOUND ( 'NONE', #384, .T. ) ;
#379 = APPROVAL ( #306, 'UNSPECIFIED' ) ;
#380 = ORIENTED_EDGE ( 'NONE', *, *, #58, .F. ) ;
#381 = PLANE ( 'NONE',  #199 ) ;
#382 = EDGE_CURVE ( 'NONE', #527, #176, #309, .T. ) ;
#383 = ORIENTED_EDGE ( 'NONE', *, *, #405, .T. ) ;
#384 = EDGE_LOOP ( 'NONE', ( #374, #355, #435, #25 ) ) ;
#385 = ORIENTED_EDGE ( 'NONE', *, *, #261, .F. ) ;
#386 = CARTESIAN_POINT ( 'NONE',  ( -85.89676806291900846, 24.95806861499363549, 0.000000000000000000 ) ) ;
#387 = EDGE_CURVE ( 'NONE', #145, #35, #254, .T. ) ;
#388 = ORIENTED_EDGE ( 'NONE', *, *, #305, .F. ) ;
#389 = CARTESIAN_POINT ( 'NONE',  ( 88.65323193708097449, 10.95806861499363549, -2.750000000000011990 ) ) ;
#390 = EDGE_LOOP ( 'NONE', ( #496, #317, #672, #612 ) ) ;
#391 = CARTESIAN_POINT ( 'NONE',  ( -90.89676806291900846, 24.95806861499363549, 5.000000000000000000 ) ) ;
#392 = DATE_AND_TIME ( #129, #551 ) ;
#393 = ORIENTED_EDGE ( 'NONE', *, *, #128, .T. ) ;
#394 = LINE ( 'NONE', #621, #690 ) ;
#395 = APPROVAL_ROLE ( '' ) ;
#396 = CARTESIAN_POINT ( 'NONE',  ( 91.10323193708099154, 10.95806861499363549, -9.700000000000001066 ) ) ;
#397 = AXIS2_PLACEMENT_3D ( 'NONE', #344, #580, #65 ) ;
#398 = EDGE_LOOP ( 'NONE', ( #46, #639 ) ) ;
#399 = EDGE_CURVE ( 'NONE', #146, #105, #469, .T. ) ;
#400 = DIRECTION ( 'NONE',  ( 0.000000000000000000, 0.000000000000000000, 1.000000000000000000 ) ) ;
#401 = CARTESIAN_POINT ( 'NONE',  ( 91.10323193708099154, 24.95806861499363904, -9.999999999999998224 ) ) ;
#402 = DIRECTION ( 'NONE',  ( -0.000000000000000000, 0.000000000000000000, -1.000000000000000000 ) ) ;
#403 = LINE ( 'NONE', #106, #610 ) ;
#404 = CYLINDRICAL_SURFACE ( 'NONE', #503, 2.249999999999994227 ) ;
#405 = EDGE_CURVE ( 'NONE', #682, #414, #714, .T. ) ;
#406 = FACE_BOUND ( 'NONE', #615, .T. ) ;
#407 = CARTESIAN_POINT ( 'NONE',  ( -76.89676806291900846, 6.958068614993637269, 5.000000000000000000 ) ) ;
#408 = CYLINDRICAL_SURFACE ( 'NONE', #671, 2.249999999999994227 ) ;
#409 = AXIS2_PLACEMENT_3D ( 'NONE', #130, #367, #74 ) ;
#410 = EDGE_CURVE ( 'NONE', #439, #730, #20, .T. ) ;
#411 = CIRCLE ( 'NONE', #454, 2.249999999999994227 ) ;
#412 = ORIENTED_EDGE ( 'NONE', *, *, #90, .T. ) ;
#413 = LOCAL_TIME ( 21, 11, 13.00000000000000000, #504 ) ;
#414 = VERTEX_POINT ( 'NONE', #389 ) ;
#415 = CARTESIAN_POINT ( 'NONE',  ( 91.10323193708099154, -3.041931385006361399, 5.000000000000000000 ) ) ;
#416 = APPLICATION_PROTOCOL_DEFINITION ( 'international standard', 'config_control_design', 1994, #54 ) ;
#417 = CARTESIAN_POINT ( 'NONE',  ( -90.89676806291900846, 24.95806861499363549, -9.999999999999998224 ) ) ;
#418 = FACE_OUTER_BOUND ( 'NONE', #716, .T. ) ;
#419 = EDGE_CURVE ( 'NONE', #608, #360, #300, .T. ) ;
#420 = DIRECTION ( 'NONE',  ( 1.000000000000000000, -0.000000000000000000, -0.000000000000000000 ) ) ;
#421 = FACE_BOUND ( 'NONE', #268, .T. ) ;
#422 = CARTESIAN_POINT ( 'NONE',  ( 76.10323193708099154, -3.041931385006363175, 5.000000000000000000 ) ) ;
#423 = DIRECTION ( 'NONE',  ( -0.000000000000000000, -1.000000000000000000, -0.000000000000000000 ) ) ;
#424 = ADVANCED_FACE ( 'NONE', ( #499 ), #381, .T. ) ;
#425 = ORIENTED_EDGE ( 'NONE', *, *, #410, .T. ) ;
#426 = FACE_OUTER_BOUND ( 'NONE', #665, .T. ) ;
#427 = ADVANCED_FACE ( 'NONE', ( #603, #44 ), #558, .T. ) ;
#428 = AXIS2_PLACEMENT_3D ( 'NONE', #165, #519, #402 ) ;
#429 = EDGE_LOOP ( 'NONE', ( #143, #436 ) ) ;
#430 = DIRECTION ( 'NONE',  ( 1.000000000000000000, -0.000000000000000000, -0.000000000000000000 ) ) ;
#431 = VECTOR ( 'NONE', #541, 1000.000000000000000 ) ;
#432 = ADVANCED_FACE ( 'NONE', ( #733 ), #606, .F. ) ;
#433 = ORIENTED_EDGE ( 'NONE', *, *, #382, .T. ) ;
#434 = LINE ( 'NONE', #437, #226 ) ;
#435 = ORIENTED_EDGE ( 'NONE', *, *, #628, .F. ) ;
#436 = ORIENTED_EDGE ( 'NONE', *, *, #531, .F. ) ;
#437 = CARTESIAN_POINT ( 'NONE',  ( 91.10323193708099154, 24.95806861499363904, 5.000000000000000000 ) ) ;
#438 = EDGE_LOOP ( 'NONE', ( #332, #141, #233, #383 ) ) ;
#439 = VERTEX_POINT ( 'NONE', #386 ) ;
#440 = CARTESIAN_POINT ( 'NONE',  ( -90.89676806291900846, 10.95806861499363549, -4.999999999999997335 ) ) ;
#441 = VECTOR ( 'NONE', #304, 1000.000000000000000 ) ;
#442 = VECTOR ( 'NONE', #582, 1000.000000000000000 ) ;
#443 = VERTEX_POINT ( 'NONE', #93 ) ;
#444 = CARTESIAN_POINT ( 'NONE',  ( -90.89676806291900846, 10.95806861499363549, -4.999999999999997335 ) ) ;
#445 = EDGE_CURVE ( 'NONE', #607, #158, #208, .T. ) ;
#446 = ORIENTED_EDGE ( 'NONE', *, *, #732, .F. ) ;
#447 = EDGE_LOOP ( 'NONE', ( #92, #565, #731, #446 ) ) ;
#448 = CARTESIAN_POINT ( 'NONE',  ( -76.89676806291900846, -3.041931385006362731, 0.000000000000000000 ) ) ;
#449 = EDGE_CURVE ( 'NONE', #500, #605, #140, .T. ) ;
#450 = VERTEX_POINT ( 'NONE', #486 ) ;
#451 = EDGE_LOOP ( 'NONE', ( #510, #28, #456, #393 ) ) ;
#452 = CARTESIAN_POINT ( 'NONE',  ( 76.10323193708099154, -3.041931385006363175, 5.000000000000000000 ) ) ;
#453 = DIRECTION ( 'NONE',  ( -0.000000000000000000, -0.000000000000000000, -1.000000000000000000 ) ) ;
#454 = AXIS2_PLACEMENT_3D ( 'NONE', #278, #339, #742 ) ;
#455 = ORGANIZATION ( 'UNSPECIFIED', 'UNSPECIFIED', '' ) ;
#456 = ORIENTED_EDGE ( 'NONE', *, *, #387, .F. ) ;
#457 = CARTESIAN_POINT ( 'NONE',  ( 91.10323193708099154, 10.95806861499363549, -5.000000000000000000 ) ) ;
#458 = ADVANCED_FACE ( 'NONE', ( #37 ), #609, .F. ) ;
#459 = DIRECTION ( 'NONE',  ( 1.000000000000000000, -0.000000000000000000, -0.000000000000000000 ) ) ;
#460 = CARTESIAN_POINT ( 'NONE',  ( -85.89676806291900846, 24.95806861499363549, -9.999999999999998224 ) ) ;
#461 = EDGE_CURVE ( 'NONE', #678, #741, #434, .T. ) ;
#462 = FACE_OUTER_BOUND ( 'NONE', #390, .T. ) ;
#463 = APPROVAL_STATUS ( 'not_yet_approved' ) ;
#464 = APPROVAL_ROLE ( '' ) ;
#465 = DIRECTION ( 'NONE',  ( -1.000000000000000000, -1.156482317317871478E-16, 0.000000000000000000 ) ) ;
#466 = VERTEX_POINT ( 'NONE', #330 ) ;
#467 = CARTESIAN_POINT ( 'NONE',  ( -88.44676806291899140, 10.95806861499363549, -4.999999999999997335 ) ) ;
#468 = CARTESIAN_POINT ( 'NONE',  ( -85.89676806291900846, -3.041931385006364064, 0.000000000000000000 ) ) ;
#469 = LINE ( 'NONE', #75, #288 ) ;
#470 = COORDINATED_UNIVERSAL_TIME_OFFSET ( 3, 0, .AHEAD. ) ;
#471 = DIRECTION ( 'NONE',  ( -0.000000000000000000, 1.000000000000000000, -0.000000000000000000 ) ) ;
#472 = LINE ( 'NONE', #364, #442 ) ;
#473 = VERTEX_POINT ( 'NONE', #737 ) ;
#474 = CARTESIAN_POINT ( 'NONE',  ( 91.10323193708099154, 10.95806861499363549, -0.2999999999999990452 ) ) ;
#475 = CALENDAR_DATE ( 2026, 17, 1 ) ;
#476 = AXIS2_PLACEMENT_3D ( 'NONE', #243, #655, #246 ) ;
#477 = ADVANCED_FACE ( 'NONE', ( #95 ), #198, .F. ) ;
#478 = DIRECTION ( 'NONE',  ( -1.000000000000000000, -0.000000000000000000, -0.000000000000000000 ) ) ;
#479 = AXIS2_PLACEMENT_3D ( 'NONE', #457, #631, #579 ) ;
#480 = EDGE_LOOP ( 'NONE', ( #55, #727, #258, #219, #220, #237 ) ) ;
#481 = DIRECTION ( 'NONE',  ( -1.000000000000000000, 0.000000000000000000, 0.000000000000000000 ) ) ;
#482 = EDGE_CURVE ( 'NONE', #667, #730, #598, .T. ) ;
#483 = COORDINATED_UNIVERSAL_TIME_OFFSET ( 3, 0, .AHEAD. ) ;
#484 = ORIENTED_EDGE ( 'NONE', *, *, #122, .T. ) ;
#485 = ORIENTED_EDGE ( 'NONE', *, *, #179, .F. ) ;
#486 = CARTESIAN_POINT ( 'NONE',  ( -76.89676806291900846, -3.041931385006362731, 0.000000000000000000 ) ) ;
#487 = CC_DESIGN_PERSON_AND_ORGANIZATION_ASSIGNMENT ( #1, #169, ( #102 ) ) ;
#488 = PERSON_AND_ORGANIZATION_ROLE ( 'classification_officer' ) ;
#489 = DIRECTION ( 'NONE',  ( 1.000000000000000000, 1.156482317317871478E-16, -0.000000000000000000 ) ) ;
#490 = AXIS2_PLACEMENT_3D ( 'NONE', #415, #347, #465 ) ;
#491 = CARTESIAN_POINT ( 'NONE',  ( 0.000000000000000000, 0.000000000000000000, -9.999999999999998224 ) ) ;
#492 = APPROVAL_PERSON_ORGANIZATION ( #15, #239, #395 ) ;
#493 = EDGE_CURVE ( 'NONE', #50, #414, #728, .T. ) ;
#494 = EDGE_LOOP ( 'NONE', ( #327, #153, #202, #204, #320, #12, #9, #335 ) ) ;
#495 = DIRECTION ( 'NONE',  ( -0.000000000000000000, -0.000000000000000000, -1.000000000000000000 ) ) ;
#496 = ORIENTED_EDGE ( 'NONE', *, *, #709, .F. ) ;
#497 = VERTEX_POINT ( 'NONE', #550 ) ;
#498 = ORIENTED_EDGE ( 'NONE', *, *, #30, .F. ) ;
#499 = FACE_OUTER_BOUND ( 'NONE', #687, .T. ) ;
#500 = VERTEX_POINT ( 'NONE', #659 ) ;
#501 = VECTOR ( 'NONE', #235, 999.9999999999998863 ) ;
#502 = DIRECTION ( 'NONE',  ( -1.000000000000000000, -0.000000000000000000, -0.000000000000000000 ) ) ;
#503 = AXIS2_PLACEMENT_3D ( 'NONE', #512, #52, #107 ) ;
#504 = COORDINATED_UNIVERSAL_TIME_OFFSET ( 3, 0, .AHEAD. ) ;
#505 = VECTOR ( 'NONE', #57, 1000.000000000000000 ) ;
#506 = EDGE_LOOP ( 'NONE', ( #94, #63, #329, #611 ) ) ;
#507 = FACE_OUTER_BOUND ( 'NONE', #313, .T. ) ;
#508 = CARTESIAN_POINT ( 'NONE',  ( -76.89676806291900846, -3.041931385006362731, 5.000000000000000000 ) ) ;
#509 = EDGE_CURVE ( 'NONE', #658, #601, #516, .T. ) ;
#510 = ORIENTED_EDGE ( 'NONE', *, *, #539, .T. ) ;
#511 = CARTESIAN_POINT ( 'NONE',  ( -90.89676806291900846, 10.95806861499363549, -9.699999999999999289 ) ) ;
#512 = CARTESIAN_POINT ( 'NONE',  ( 91.10323193708099154, 10.95806861499363549, -5.000000000000000000 ) ) ;
#513 = CALENDAR_DATE ( 2026, 17, 1 ) ;
#514 = LINE ( 'NONE', #520, #178 ) ;
#515 = PLANE ( 'NONE',  #397 ) ;
#516 = CIRCLE ( 'NONE', #240, 2.249999999999994227 ) ;
#517 = ADVANCED_FACE ( 'NONE', ( #86 ), #161, .F. ) ;
#518 = VECTOR ( 'NONE', #221, 1000.000000000000000 ) ;
#519 = DIRECTION ( 'NONE',  ( 1.000000000000000000, 0.000000000000000000, -0.000000000000000000 ) ) ;
#520 = CARTESIAN_POINT ( 'NONE',  ( 86.10323193708099154, 24.95806861499363904, -9.999999999999998224 ) ) ;
#521 = LINE ( 'NONE', #396, #747 ) ;
#522 = DIRECTION ( 'NONE',  ( 0.000000000000000000, 0.000000000000000000, 1.000000000000000000 ) ) ;
#523 = DIRECTION ( 'NONE',  ( -0.000000000000000000, -0.000000000000000000, -1.000000000000000000 ) ) ;
#524 = DIRECTION ( 'NONE',  ( 0.000000000000000000, 0.000000000000000000, -1.000000000000000000 ) ) ;
#525 = CARTESIAN_POINT ( 'NONE',  ( 91.10323193708099154, 24.95806861499363904, -9.999999999999998224 ) ) ;
#526 = PERSON_AND_ORGANIZATION ( #650, #455 ) ;
#527 = VERTEX_POINT ( 'NONE', #33 ) ;
#528 = PLANE ( 'NONE',  #263 ) ;
#529 = LOCAL_TIME ( 21, 11, 13.00000000000000000, #622 ) ;
#530 = DIRECTION ( 'NONE',  ( 0.000000000000000000, 0.000000000000000000, -1.000000000000000000 ) ) ;
#531 = EDGE_CURVE ( 'NONE', #553, #466, #189, .T. ) ;
#532 = PERSON_AND_ORGANIZATION ( #650, #455 ) ;
#533 = LINE ( 'NONE', #138, #308 ) ;
#534 = EDGE_CURVE ( 'NONE', #607, #527, #201, .T. ) ;
#535 = LINE ( 'NONE', #186, #620 ) ;
#536 = LINE ( 'NONE', #126, #725 ) ;
#537 = CARTESIAN_POINT ( 'NONE',  ( -85.89676806291900846, 24.95806861499363549, -9.999999999999998224 ) ) ;
#538 = VECTOR ( 'NONE', #459, 1000.000000000000000 ) ;
#539 = EDGE_CURVE ( 'NONE', #450, #146, #394, .T. ) ;
#540 = ORIENTED_EDGE ( 'NONE', *, *, #657, .T. ) ;
#541 = DIRECTION ( 'NONE',  ( -0.000000000000000000, -0.000000000000000000, -1.000000000000000000 ) ) ;
#542 = AXIS2_PLACEMENT_3D ( 'NONE', #369, #377, #135 ) ;
#543 = PERSON_AND_ORGANIZATION ( #650, #455 ) ;
#544 = CC_DESIGN_PERSON_AND_ORGANIZATION_ASSIGNMENT ( #543, #488, ( #739 ) ) ;
#545 = ORIENTED_EDGE ( 'NONE', *, *, #362, .F. ) ;
#546 = DIRECTION ( 'NONE',  ( -1.000000000000000000, -1.548860246407863829E-16, 0.000000000000000000 ) ) ;
#547 = PLANE ( 'NONE',  #409 ) ;
#548 = CARTESIAN_POINT ( 'NONE',  ( 91.10323193708099154, 10.95806861499363549, -2.750000000000005773 ) ) ;
#549 = ORIENTED_EDGE ( 'NONE', *, *, #209, .F. ) ;
#550 = CARTESIAN_POINT ( 'NONE',  ( 86.10323193708099154, -3.041931385006363175, -9.999999999999998224 ) ) ;
#551 = LOCAL_TIME ( 21, 11, 13.00000000000000000, #483 ) ;
#552 = VECTOR ( 'NONE', #652, 1000.000000000000000 ) ;
#553 = VERTEX_POINT ( 'NONE', #51 ) ;
#554 = VERTEX_POINT ( 'NONE', #391 ) ;
#555 = CARTESIAN_POINT ( 'NONE',  ( -85.89676806291900846, -3.041931385006364952, -9.999999999999998224 ) ) ;
#556 = PRODUCT_DEFINITION_SHAPE ( 'NONE', 'NONE',  #102 ) ;
#557 = ORIENTED_EDGE ( 'NONE', *, *, #642, .T. ) ;
#558 = PLANE ( 'NONE',  #251 ) ;
#559 = APPROVAL_DATE_TIME ( #392, #379 ) ;
#560 = ORIENTED_EDGE ( 'NONE', *, *, #720, .T. ) ;
#561 = ADVANCED_FACE ( 'NONE', ( #507 ), #290, .F. ) ;
#562 = LINE ( 'NONE', #744, #77 ) ;
#563 = CARTESIAN_POINT ( 'NONE',  ( -76.89676806291900846, -3.041931385006362731, 5.000000000000000000 ) ) ;
#564 = CIRCLE ( 'NONE', #660, 4.700000000000001066 ) ;
#565 = ORIENTED_EDGE ( 'NONE', *, *, #720, .F. ) ;
#566 = DIRECTION ( 'NONE',  ( 0.000000000000000000, 0.000000000000000000, -1.000000000000000000 ) ) ;
#567 = FACE_OUTER_BOUND ( 'NONE', #438, .T. ) ;
#568 = ORIENTED_EDGE ( 'NONE', *, *, #614, .F. ) ;
#569 = CARTESIAN_POINT ( 'NONE',  ( -88.44676806291899140, 10.95806861499363549, -2.750000000000009326 ) ) ;
#570 = LINE ( 'NONE', #232, #505 ) ;
#571 = EDGE_CURVE ( 'NONE', #211, #664, #662, .T. ) ;
#572 = FACE_OUTER_BOUND ( 'NONE', #746, .T. ) ;
#573 = DIRECTION ( 'NONE',  ( 0.7071067811865467956, 0.000000000000000000, -0.7071067811865483499 ) ) ;
#574 = VECTOR ( 'NONE', #423, 1000.000000000000000 ) ;
#575 = CC_DESIGN_PERSON_AND_ORGANIZATION_ASSIGNMENT ( #721, #241, ( #162 ) ) ;
#576 = AXIS2_PLACEMENT_3D ( 'NONE', #7, #159, #748 ) ;
#577 = APPROVAL_STATUS ( 'not_yet_approved' ) ;
#578 = ORIENTED_EDGE ( 'NONE', *, *, #445, .F. ) ;
#579 = DIRECTION ( 'NONE',  ( 0.000000000000000000, 0.000000000000000000, -1.000000000000000000 ) ) ;
#580 = DIRECTION ( 'NONE',  ( 0.000000000000000000, 1.000000000000000000, -0.000000000000000000 ) ) ;
#581 = FACE_OUTER_BOUND ( 'NONE', #170, .T. ) ;
#582 = DIRECTION ( 'NONE',  ( -1.000000000000000000, -0.000000000000000000, -0.000000000000000000 ) ) ;
#583 = LINE ( 'NONE', #537, #80 ) ;
#584 = LINE ( 'NONE', #229, #538 ) ;
#585 = ADVANCED_FACE ( 'NONE', ( #98 ), #336, .F. ) ;
#586 = CARTESIAN_POINT ( 'NONE',  ( 86.10323193708099154, 24.95806861499363904, -9.999999999999998224 ) ) ;
#587 = AXIS2_PLACEMENT_3D ( 'NONE', #632, #700, #641 ) ;
#588 = CARTESIAN_POINT ( 'NONE',  ( -90.89676806291900846, 10.95806861499363549, -4.999999999999997335 ) ) ;
#589 = DIRECTION ( 'NONE',  ( 1.000000000000000000, 1.906289534040447363E-17, 0.000000000000000000 ) ) ;
#590 = ORIENTED_EDGE ( 'NONE', *, *, #638, .F. ) ;
#591 = CARTESIAN_POINT ( 'NONE',  ( 91.10323193708099154, -3.041931385006363175, -9.999999999999998224 ) ) ;
#592 = EDGE_CURVE ( 'NONE', #601, #658, #411, .T. ) ;
#593 = CARTESIAN_POINT ( 'NONE',  ( 91.10323193708099154, 24.95806861499363904, 5.000000000000000000 ) ) ;
#594 = CARTESIAN_POINT ( 'NONE',  ( -90.89676806291900846, -3.041931385006364064, -9.999999999999998224 ) ) ;
#595 = LINE ( 'NONE', #417, #38 ) ;
#596 =( NAMED_UNIT ( * ) PLANE_ANGLE_UNIT ( ) SI_UNIT ( $, .RADIAN. ) );
#597 = DIRECTION ( 'NONE',  ( 0.000000000000000000, -1.000000000000000000, 0.000000000000000000 ) ) ;
#598 = LINE ( 'NONE', #555, #249 ) ;
#599 = LOCAL_TIME ( 21, 11, 13.00000000000000000, #470 ) ;
#600 = CARTESIAN_POINT ( 'NONE',  ( 86.10323193708099154, 10.95806861499363549, -2.750000000000005773 ) ) ;
#601 = VERTEX_POINT ( 'NONE', #284 ) ;
#602 = ORIENTED_EDGE ( 'NONE', *, *, #539, .F. ) ;
#603 = FACE_BOUND ( 'NONE', #398, .T. ) ;
#604 = ORIENTED_EDGE ( 'NONE', *, *, #167, .F. ) ;
#605 = VERTEX_POINT ( 'NONE', #47 ) ;
#606 = PLANE ( 'NONE',  #625 ) ;
#607 = VERTEX_POINT ( 'NONE', #452 ) ;
#608 = VERTEX_POINT ( 'NONE', #511 ) ;
#609 = CYLINDRICAL_SURFACE ( 'NONE', #124, 2.249999999999994227 ) ;
#610 = VECTOR ( 'NONE', #154, 1000.000000000000000 ) ;
#611 = ORIENTED_EDGE ( 'NONE', *, *, #291, .F. ) ;
#612 = ORIENTED_EDGE ( 'NONE', *, *, #362, .T. ) ;
#613 = CARTESIAN_POINT ( 'NONE',  ( -85.89676806291900846, 24.95806861499363549, -9.999999999999998224 ) ) ;
#614 = EDGE_CURVE ( 'NONE', #105, #158, #562, .T. ) ;
#615 = EDGE_LOOP ( 'NONE', ( #328, #705 ) ) ;
#616 = ORIENTED_EDGE ( 'NONE', *, *, #58, .T. ) ;
#617 = DIRECTION ( 'NONE',  ( 0.000000000000000000, 0.000000000000000000, 1.000000000000000000 ) ) ;
#618 = MECHANICAL_CONTEXT ( 'NONE', #726, 'mechanical' ) ;
#619 = VERTEX_POINT ( 'NONE', #343 ) ;
#620 = VECTOR ( 'NONE', #489, 1000.000000000000000 ) ;
#621 = CARTESIAN_POINT ( 'NONE',  ( -76.89676806291900846, 6.958068614993637269, 0.000000000000000000 ) ) ;
#622 = COORDINATED_UNIVERSAL_TIME_OFFSET ( 3, 0, .AHEAD. ) ;
#623 = CARTESIAN_POINT ( 'NONE',  ( -88.44676806291899140, 10.95806861499363549, -7.249999999999985789 ) ) ;
#624 = CIRCLE ( 'NONE', #576, 2.249999999999994227 ) ;
#625 = AXIS2_PLACEMENT_3D ( 'NONE', #29, #315, #546 ) ;
#626 = ORIENTED_EDGE ( 'NONE', *, *, #209, .T. ) ;
#627 = LINE ( 'NONE', #231, #61 ) ;
#628 = EDGE_CURVE ( 'NONE', #473, #605, #514, .T. ) ;
#629 = CARTESIAN_POINT ( 'NONE',  ( 76.10323193708099154, 6.958068614993637269, 0.000000000000000000 ) ) ;
#630 = FACE_OUTER_BOUND ( 'NONE', #723, .T. ) ;
#631 = DIRECTION ( 'NONE',  ( 1.000000000000000000, -0.000000000000000000, -0.000000000000000000 ) ) ;
#632 = CARTESIAN_POINT ( 'NONE',  ( 88.65323193708097449, 10.95806861499363549, -5.000000000000000000 ) ) ;
#633 = ORIENTED_EDGE ( 'NONE', *, *, #677, .T. ) ;
#634 = CARTESIAN_POINT ( 'NONE',  ( 0.000000000000000000, 0.000000000000000000, 0.000000000000000000 ) ) ;
#635 = LINE ( 'NONE', #60, #173 ) ;
#636 = VECTOR ( 'NONE', #471, 1000.000000000000000 ) ;
#637 = AXIS2_PLACEMENT_3D ( 'NONE', #333, #147, #205 ) ;
#638 = EDGE_CURVE ( 'NONE', #685, #439, #627, .T. ) ;
#639 = ORIENTED_EDGE ( 'NONE', *, *, #509, .F. ) ;
#640 = ORIENTED_EDGE ( 'NONE', *, *, #663, .F. ) ;
#641 = DIRECTION ( 'NONE',  ( 0.000000000000000000, 0.000000000000000000, -1.000000000000000000 ) ) ;
#642 = EDGE_CURVE ( 'NONE', #152, #50, #624, .T. ) ;
#643 = CARTESIAN_POINT ( 'NONE',  ( 86.10323193708099154, 10.95806861499363549, -5.000000000000000000 ) ) ;
#644 = DIRECTION ( 'NONE',  ( 0.000000000000000000, 0.000000000000000000, 1.000000000000000000 ) ) ;
#645 = CC_DESIGN_DATE_AND_TIME_ASSIGNMENT ( #359, #302, ( #102 ) ) ;
#646 = EDGE_CURVE ( 'NONE', #35, #146, #217, .T. ) ;
#647 = VECTOR ( 'NONE', #6, 999.9999999999998863 ) ;
#648 = DIRECTION ( 'NONE',  ( -0.000000000000000000, 1.000000000000000000, -0.000000000000000000 ) ) ;
#649 = EDGE_CURVE ( 'NONE', #730, #450, #694, .T. ) ;
#650 = PERSON ( 'UNSPECIFIED', 'UNSPECIFIED', 'UNSPECIFIED', ('UNSPECIFIED'), ('UNSPECIFIED'), ('UNSPECIFIED') ) ;
#651 = DIRECTION ( 'NONE',  ( -0.000000000000000000, -0.000000000000000000, -1.000000000000000000 ) ) ;
#652 = DIRECTION ( 'NONE',  ( 0.000000000000000000, -1.000000000000000000, 0.000000000000000000 ) ) ;
#653 = LINE ( 'NONE', #593, #636 ) ;
#654 = EDGE_LOOP ( 'NONE', ( #203, #425, #149, #273 ) ) ;
#655 = DIRECTION ( 'NONE',  ( -1.000000000000000000, 0.000000000000000000, 0.000000000000000000 ) ) ;
#656 = AXIS2_PLACEMENT_3D ( 'NONE', #228, #117, #4 ) ;
#657 = EDGE_CURVE ( 'NONE', #360, #608, #564, .T. ) ;
#658 = VERTEX_POINT ( 'NONE', #111 ) ;
#659 = CARTESIAN_POINT ( 'NONE',  ( 86.10323193708099154, -3.041931385006363175, 0.000000000000000000 ) ) ;
#660 = AXIS2_PLACEMENT_3D ( 'NONE', #166, #64, #400 ) ;
#661 = VECTOR ( 'NONE', #648, 1000.000000000000000 ) ;
#662 = CIRCLE ( 'NONE', #310, 2.249999999999988010 ) ;
#663 = EDGE_CURVE ( 'NONE', #605, #439, #403, .T. ) ;
#664 = VERTEX_POINT ( 'NONE', #569 ) ;
#665 = EDGE_LOOP ( 'NONE', ( #433, #200, #668, #703 ) ) ;
#666 = CARTESIAN_POINT ( 'NONE',  ( 91.10323193708099154, -3.041931385006361399, 5.000000000000000000 ) ) ;
#667 = VERTEX_POINT ( 'NONE', #225 ) ;
#668 = ORIENTED_EDGE ( 'NONE', *, *, #461, .F. ) ;
#669 = DIRECTION ( 'NONE',  ( 0.000000000000000000, 0.000000000000000000, 1.000000000000000000 ) ) ;
#670 = ORIENTED_EDGE ( 'NONE', *, *, #419, .T. ) ;
#671 = AXIS2_PLACEMENT_3D ( 'NONE', #365, #478, #238 ) ;
#672 = ORIENTED_EDGE ( 'NONE', *, *, #291, .T. ) ;
#673 = ORIENTED_EDGE ( 'NONE', *, *, #628, .T. ) ;
#674 = DIRECTION ( 'NONE',  ( 1.000000000000000000, 0.000000000000000000, -0.000000000000000000 ) ) ;
#675 = VECTOR ( 'NONE', #361, 1000.000000000000000 ) ;
#676 = CIRCLE ( 'NONE', #479, 4.700000000000000178 ) ;
#677 = EDGE_CURVE ( 'NONE', #466, #553, #676, .T. ) ;
#678 = VERTEX_POINT ( 'NONE', #109 ) ;
#679 = ORIENTED_EDGE ( 'NONE', *, *, #642, .F. ) ;
#680 = DIRECTION ( 'NONE',  ( -0.000000000000000000, 1.000000000000000000, -0.000000000000000000 ) ) ;
#681 = ORIENTED_EDGE ( 'NONE', *, *, #244, .F. ) ;
#682 = VERTEX_POINT ( 'NONE', #346 ) ;
#683 = CARTESIAN_POINT ( 'NONE',  ( 0.000000000000000000, 0.000000000000000000, 5.000000000000000000 ) ) ;
#684 = DIRECTION ( 'NONE',  ( -1.000000000000000000, 0.000000000000000000, 0.000000000000000000 ) ) ;
#685 = VERTEX_POINT ( 'NONE', #460 ) ;
#686 = ADVANCED_FACE ( 'NONE', ( #572 ), #696, .T. ) ;
#687 = EDGE_LOOP ( 'NONE', ( #32, #385, #264, #549 ) ) ;
#688 = DIRECTION ( 'NONE',  ( 1.000000000000000000, 1.548860246407863829E-16, -0.000000000000000000 ) ) ;
#689 = CARTESIAN_POINT ( 'NONE',  ( 86.10323193708099154, -3.041931385006363175, -9.999999999999998224 ) ) ;
#690 = VECTOR ( 'NONE', #680, 1000.000000000000000 ) ;
#691 = APPROVAL_PERSON_ORGANIZATION ( #255, #379, #24 ) ;
#692 = DATE_AND_TIME ( #513, #529 ) ;
#693 = ORIENTED_EDGE ( 'NONE', *, *, #399, .T. ) ;
#694 = LINE ( 'NONE', #448, #702 ) ;
#695 = CARTESIAN_POINT ( 'NONE',  ( -90.89676806291900846, 10.95806861499363549, -0.2999999999999964362 ) ) ;
#696 = PLANE ( 'NONE',  #286 ) ;
#697 = LINE ( 'NONE', #168, #734 ) ;
#698 = PERSON_AND_ORGANIZATION_ROLE ( 'design_owner' ) ;
#699 = CALENDAR_DATE ( 2026, 17, 1 ) ;
#700 = DIRECTION ( 'NONE',  ( 1.000000000000000000, -0.000000000000000000, -0.000000000000000000 ) ) ;
#701 = ADVANCED_FACE ( 'NONE', ( #354 ), #528, .F. ) ;
#702 = VECTOR ( 'NONE', #688, 1000.000000000000000 ) ;
#703 = ORIENTED_EDGE ( 'NONE', *, *, #53, .F. ) ;
#704 =( NAMED_UNIT ( * ) SI_UNIT ( $, .STERADIAN. ) SOLID_ANGLE_UNIT ( ) );
#705 = ORIENTED_EDGE ( 'NONE', *, *, #419, .F. ) ;
#706 = DIRECTION ( 'NONE',  ( -1.000000000000000000, 0.000000000000000000, 0.000000000000000000 ) ) ;
#707 = ORIENTED_EDGE ( 'NONE', *, *, #646, .T. ) ;
#708 = DIRECTION ( 'NONE',  ( 1.000000000000000000, -0.000000000000000000, -0.000000000000000000 ) ) ;
#709 = EDGE_CURVE ( 'NONE', #658, #211, #472, .T. ) ;
#710 = VERTEX_POINT ( 'NONE', #18 ) ;
#711 = DIRECTION ( 'NONE',  ( 0.000000000000000000, 0.000000000000000000, 1.000000000000000000 ) ) ;
#712 = AXIS2_PLACEMENT_3D ( 'NONE', #59, #274, #281 ) ;
#713 = CARTESIAN_POINT ( 'NONE',  ( -90.89676806291900846, 24.95806861499363549, 5.000000000000000000 ) ) ;
#714 = CIRCLE ( 'NONE', #340, 2.249999999999988010 ) ;
#715 = CARTESIAN_POINT ( 'NONE',  ( -76.89676806291900846, 6.958068614993637269, 5.000000000000000000 ) ) ;
#716 = EDGE_LOOP ( 'NONE', ( #484, #342, #380, #334 ) ) ;
#717 = PLANE ( 'NONE',  #112 ) ;
#718 = ORIENTED_EDGE ( 'NONE', *, *, #319, .F. ) ;
#719 = DIRECTION ( 'NONE',  ( 1.000000000000000000, -0.000000000000000000, -0.000000000000000000 ) ) ;
#720 = EDGE_CURVE ( 'NONE', #685, #443, #536, .T. ) ;
#721 = PERSON_AND_ORGANIZATION ( #650, #455 ) ;
#722 = ORIENTED_EDGE ( 'NONE', *, *, #399, .F. ) ;
#723 = EDGE_LOOP ( 'NONE', ( #121, #116, #670, #43 ) ) ;
#724 = DIRECTION ( 'NONE',  ( 0.000000000000000000, 0.000000000000000000, -1.000000000000000000 ) ) ;
#725 = VECTOR ( 'NONE', #131, 1000.000000000000000 ) ;
#726 = APPLICATION_CONTEXT ( 'configuration controlled 3d designs of mechanical parts and assemblies' ) ;
#727 = ORIENTED_EDGE ( 'NONE', *, *, #182, .F. ) ;
#728 = LINE ( 'NONE', #548, #299 ) ;
#729 = ORIENTED_EDGE ( 'NONE', *, *, #151, .T. ) ;
#730 = VERTEX_POINT ( 'NONE', #468 ) ;
#731 = ORIENTED_EDGE ( 'NONE', *, *, #372, .F. ) ;
#732 = EDGE_CURVE ( 'NONE', #81, #667, #303, .T. ) ;
#733 = FACE_OUTER_BOUND ( 'NONE', #370, .T. ) ;
#734 = VECTOR ( 'NONE', #745, 1000.000000000000000 ) ;
#735 = AXIS2_PLACEMENT_3D ( 'NONE', #643, #481, #13 ) ;
#736 = EDGE_LOOP ( 'NONE', ( #718, #85, #195, #633 ) ) ;
#737 = CARTESIAN_POINT ( 'NONE',  ( 86.10323193708099154, 24.95806861499363904, -9.999999999999998224 ) ) ;
#738 = AXIS2_PLACEMENT_3D ( 'NONE', #683, #566, #103 ) ;
#739 = SECURITY_CLASSIFICATION ( '', '', #740 ) ;
#740 = SECURITY_CLASSIFICATION_LEVEL ( 'unclassified' ) ;
#741 = VERTEX_POINT ( 'NONE', #525 ) ;
#742 = DIRECTION ( 'NONE',  ( 0.000000000000000000, 0.000000000000000000, -1.000000000000000000 ) ) ;
#743 = ORIENTED_EDGE ( 'NONE', *, *, #649, .F. ) ;
#744 = CARTESIAN_POINT ( 'NONE',  ( 76.10323193708099154, -3.041931385006363175, 0.000000000000000000 ) ) ;
#745 = DIRECTION ( 'NONE',  ( 1.000000000000000000, -0.000000000000000000, -0.000000000000000000 ) ) ;
#746 = EDGE_LOOP ( 'NONE', ( #88, #119, #568, #722, #602, #743, #277, #640 ) ) ;
#747 = VECTOR ( 'NONE', #573, 999.9999999999998863 ) ;
#748 = DIRECTION ( 'NONE',  ( 0.000000000000000000, 0.000000000000000000, 1.000000000000000000 ) ) ;
#749 = CARTESIAN_POINT ( 'NONE',  ( 76.10323193708099154, -3.041931385006363175, 0.000000000000000000 ) ) ;
ENDSEC;
END-ISO-10303-21;
