  0
SECTION
  2
HEADER
  9
$ACADVER
  1
AC1015
  9
$ACADMAINTVER
 70
     6
  9
$DWGCODEPAGE
  3
ANSI_1251
  9
$INSBASE
 10
0.0
 20
0.0
 30
0.0
  9
$EXTMIN
 10
-12.75
 20
-11.5999128004
 30
0.0
  9
$EXTMAX
 10
10.3268662487
 20
3.2065754128
 30
0.0
  9
$LIMMIN
 10
0.0
 20
0.0
  9
$LIMMAX
 10
420.0
 20
297.0
  9
$ORTHOMODE
 70
     0
  9
$REGENMODE
 70
     1
  9
$FILLMODE
 70
     1
  9
$QTEXTMODE
 70
     0
  9
$MIRRTEXT
 70
     1
  9
$LTSCALE
 40
1.0
  9
$ATTMODE
 70
     1
  9
$TEXTSIZE
 40
3.5
  9
$TRACEWID
 40
1.0
  9
$TEXTSTYLE
  7
Standard
  9
$CLAYER
  8
0
  9
$CELTYPE
  6
ByLayer
  9
$CECOLOR
 62
   256
  9
$CELTSCALE
 40
1.0
  9
$DISPSILH
 70
     0
  9
$DIMSCALE
 40
1.0
  9
$DIMASZ
 40
3.556
  9
$DIMEXO
 40
0.0
  9
$DIMDLI
 40
3.75
  9
$DIMRND
 40
0.0
  9
$DIMDLE
 40
0.0
  9
$DIMEXE
 40
1.0
  9
$DIMTP
 40
0.0
  9
$DIMTM
 40
0.0
  9
$DIMTXT
 40
3.5
  9
$DIMCEN
 40
2.5
  9
$DIMTSZ
 40
0.0
  9
$DIMTOL
 70
     0
  9
$DIMLIM
 70
     0
  9
$DIMTIH
 70
     1
  9
$DIMTOH
 70
     1
  9
$DIMSE1
 70
     0
  9
$DIMSE2
 70
     0
  9
$DIMTAD
 70
     1
  9
$DIMZIN
 70
     1
  9
$DIMBLK
  1

  9
$DIMASO
 70
     1
  9
$DIMSHO
 70
     1
  9
$DIMPOST
  1

  9
$DIMAPOST
  1

  9
$DIMALT
 70
     0
  9
$DIMALTD
 70
     3
  9
$DIMALTF
 40
0.0393700787
  9
$DIMLFAC
 40
1.0
  9
$DIMTOFL
 70
     1
  9
$DIMTVP
 40
0.0
  9
$DIMTIX
 70
     0
  9
$DIMSOXD
 70
     0
  9
$DIMSAH
 70
     0
  9
$DIMBLK1
  1

  9
$DIMBLK2
  1

  9
$DIMSTYLE
  2
ISO-25
  9
$DIMCLRD
 70
     0
  9
$DIMCLRE
 70
     0
  9
$DIMCLRT
 70
     0
  9
$DIMTFAC
 40
1.0
  9
$DIMGAP
 40
1.524
  9
$DIMJUST
 70
     0
  9
$DIMSD1
 70
     0
  9
$DIMSD2
 70
     0
  9
$DIMTOLJ
 70
     0
  9
$DIMTZIN
 70
     1
  9
$DIMALTZ
 70
     0
  9
$DIMALTTZ
 70
     0
  9
$DIMUPT
 70
     0
  9
$DIMDEC
 70
     2
  9
$DIMTDEC
 70
     2
  9
$DIMALTU
 70
     2
  9
$DIMALTTD
 70
     3
  9
$DIMTXSTY
  7
Standard
  9
$DIMAUNIT
 70
     0
  9
$DIMADEC
 70
     2
  9
$DIMALTRND
 40
0.0
  9
$DIMAZIN
 70
     0
  9
$DIMDSEP
 70
    44
  9
$DIMATFIT
 70
     3
  9
$DIMFRAC
 70
     0
  9
$DIMLDRBLK
  1

  9
$DIMLUNIT
 70
     2
  9
$DIMLWD
 70
    -2
  9
$DIMLWE
 70
    -2
  9
$DIMTMOVE
 70
     0
  9
$LUNITS
 70
     2
  9
$LUPREC
 70
     2
  9
$SKETCHINC
 40
1.0
  9
$FILLETRAD
 40
0.0
  9
$AUNITS
 70
     0
  9
$AUPREC
 70
     2
  9
$MENU
  1
.
  9
$ELEVATION
 40
0.0
  9
$PELEVATION
 40
0.0
  9
$THICKNESS
 40
0.0
  9
$LIMCHECK
 70
     0
  9
$CHAMFERA
 40
0.0
  9
$CHAMFERB
 40
0.0
  9
$CHAMFERC
 40
0.0
  9
$CHAMFERD
 40
0.0
  9
$SKPOLY
 70
     0
  9
$TDCREATE
 40
2461111.708115556
  9
$TDUCREATE
 40
2461111.583115556
  9
$TDUPDATE
 40
2461111.708183044
  9
$TDUUPDATE
 40
2461111.583183044
  9
$TDINDWG
 40
0.0000000116
  9
$TDUSRTIMER
 40
0.0000000116
  9
$USRTIMER
 70
     1
  9
$ANGBASE
 50
0.0
  9
$ANGDIR
 70
     0
  9
$PDMODE
 70
     0
  9
$PDSIZE
 40
-1.0
  9
$PLINEWID
 40
0.0
  9
$SPLFRAME
 70
     0
  9
$SPLINETYPE
 70
     6
  9
$SPLINESEGS
 70
     8
  9
$HANDSEED
  5
C7
  9
$SURFTAB1
 70
     6
  9
$SURFTAB2
 70
     6
  9
$SURFTYPE
 70
     6
  9
$SURFU
 70
     6
  9
$SURFV
 70
     6
  9
$UCSBASE
  2

  9
$UCSNAME
  2

  9
$UCSORG
 10
0.0
 20
0.0
 30
0.0
  9
$UCSXDIR
 10
1.0
 20
0.0
 30
0.0
  9
$UCSYDIR
 10
0.0
 20
1.0
 30
0.0
  9
$UCSORTHOREF
  2

  9
$UCSORTHOVIEW
 70
     0
  9
$UCSORGTOP
 10
0.0
 20
0.0
 30
0.0
  9
$UCSORGBOTTOM
 10
0.0
 20
0.0
 30
0.0
  9
$UCSORGLEFT
 10
0.0
 20
0.0
 30
0.0
  9
$UCSORGRIGHT
 10
0.0
 20
0.0
 30
0.0
  9
$UCSORGFRONT
 10
0.0
 20
0.0
 30
0.0
  9
$UCSORGBACK
 10
0.0
 20
0.0
 30
0.0
  9
$PUCSBASE
  2

  9
$PUCSNAME
  2

  9
$PUCSORG
 10
0.0
 20
0.0
 30
0.0
  9
$PUCSXDIR
 10
1.0
 20
0.0
 30
0.0
  9
$PUCSYDIR
 10
0.0
 20
1.0
 30
0.0
  9
$PUCSORTHOREF
  2

  9
$PUCSORTHOVIEW
 70
     0
  9
$PUCSORGTOP
 10
0.0
 20
0.0
 30
0.0
  9
$PUCSORGBOTTOM
 10
0.0
 20
0.0
 30
0.0
  9
$PUCSORGLEFT
 10
0.0
 20
0.0
 30
0.0
  9
$PUCSORGRIGHT
 10
0.0
 20
0.0
 30
0.0
  9
$PUCSORGFRONT
 10
0.0
 20
0.0
 30
0.0
  9
$PUCSORGBACK
 10
0.0
 20
0.0
 30
0.0
  9
$USERI1
 70
     0
  9
$USERI2
 70
     0
  9
$USERI3
 70
     0
  9
$USERI4
 70
     0
  9
$USERI5
 70
     0
  9
$USERR1
 40
0.0
  9
$USERR2
 40
0.0
  9
$USERR3
 40
0.0
  9
$USERR4
 40
0.0
  9
$USERR5
 40
0.0
  9
$WORLDVIEW
 70
     1
  9
$SHADEDGE
 70
     3
  9
$SHADEDIF
 70
    70
  9
$TILEMODE
 70
     1
  9
$MAXACTVP
 70
    64
  9
$PINSBASE
 10
0.0
 20
0.0
 30
0.0
  9
$PLIMCHECK
 70
     0
  9
$PEXTMIN
 10
1.0000000000E+20
 20
1.0000000000E+20
 30
1.0000000000E+20
  9
$PEXTMAX
 10
-1.0000000000E+20
 20
-1.0000000000E+20
 30
-1.0000000000E+20
  9
$PLIMMIN
 10
0.0
 20
0.0
  9
$PLIMMAX
 10
420.0
 20
297.0
  9
$UNITMODE
 70
     0
  9
$VISRETAIN
 70
     1
  9
$PLINEGEN
 70
     0
  9
$PSLTSCALE
 70
     1
  9
$TREEDEPTH
 70
  3020
  9
$CMLSTYLE
  2
Standard
  9
$CMLJUST
 70
     0
  9
$CMLSCALE
 40
20.0
  9
$PROXYGRAPHICS
 70
     1
  9
$MEASUREMENT
 70
     1
  9
$CELWEIGHT
370
    -1
  9
$ENDCAPS
280
     0
  9
$JOINSTYLE
280
     0
  9
$LWDISPLAY
290
     1
  9
$INSUNITS
 70
     4
  9
$HYPERLINKBASE
  1

  9
$STYLESHEET
  1

  9
$XEDIT
290
     1
  9
$CEPSNTYPE
380
     0
  9
$PSTYLEMODE
290
     1
  9
$FINGERPRINTGUID
  2
{01a4be21-af81-40f9-979c-fee3b4a7ca60}
  9
$VERSIONGUID
  2
{FAEB1C32-E019-11D5-929B-00C0DF256EC4}
  9
$EXTNAMES
290
     1
  9
$PSVPSCALE
 40
0.0
  9
$OLESTARTUP
290
     0
  0
ENDSEC
  0
SECTION
  2
CLASSES
  0
CLASS
  1
ACDBDICTIONARYWDFLT
  2
AcDbDictionaryWithDefault
  3
ObjectDBX Classes
 90
        0
280
     0
281
     0
  0
CLASS
  1
VISUALSTYLE
  2
AcDbVisualStyle
  3
ObjectDBX Classes
 90
     4095
280
     0
281
     0
  0
CLASS
  1
MATERIAL
  2
AcDbMaterial
  3
ObjectDBX Classes
 90
     1153
280
     0
281
     0
  0
CLASS
  1
SCALE
  2
AcDbScale
  3
ObjectDBX Classes
 90
     1153
280
     0
281
     0
  0
CLASS
  1
TABLESTYLE
  2
AcDbTableStyle
  3
ObjectDBX Classes
 90
     4095
280
     0
281
     0
  0
CLASS
  1
MLEADERSTYLE
  2
AcDbMLeaderStyle
  3
ACDB_MLEADERSTYLE_CLASS
 90
     4095
280
     0
281
     0
  0
CLASS
  1
SUN
  2
AcDbSun
  3
SCENEOE
 90
     1153
280
     0
281
     0
  0
CLASS
  1
ACDBPLACEHOLDER
  2
AcDbPlaceHolder
  3
ObjectDBX Classes
 90
        0
280
     0
281
     0
  0
CLASS
  1
LAYOUT
  2
AcDbLayout
  3
ObjectDBX Classes
 90
        0
280
     0
281
     0
  0
ENDSEC
  0
SECTION
  2
TABLES
  0
TABLE
  2
VPORT
  5
8
330
0
100
AcDbSymbolTable
 70
     1
  0
VPORT
  5
29
330
8
100
AcDbSymbolTableRecord
100
AcDbViewportTableRecord
  2
*Active
 70
     0
 10
0.0
 20
0.0
 11
1.0
 21
1.0
 12
-1.2115668756
 22
-4.1966686938
 13
0.0
 23
0.0
 14
10.0
 24
10.0
 15
10.0
 25
10.0
 16
0.0
 26
0.0
 36
1.0
 17
0.0
 27
0.0
 37
0.0
 40
15.1026179775
 41
1.5585644561
 42
50.0
 43
0.0
 44
0.0
 50
0.0
 51
0.0
 71
     0
 72
   100
 73
     1
 74
     3
 75
     0
 76
     0
 77
     0
 78
     0
281
     0
 65
     1
110
0.0
120
0.0
130
0.0
111
1.0
121
0.0
131
0.0
112
0.0
122
1.0
132
0.0
 79
     0
146
0.0
  0
ENDTAB
  0
TABLE
  2
LTYPE
  5
5
330
0
100
AcDbSymbolTable
 70
     6
  0
LTYPE
  5
14
330
5
100
AcDbSymbolTableRecord
100
AcDbLinetypeTableRecord
  2
ByBlock
 70
     0
  3

 72
    65
 73
     0
 40
0.0
  0
LTYPE
  5
15
330
5
100
AcDbSymbolTableRecord
100
AcDbLinetypeTableRecord
  2
ByLayer
 70
     0
  3

 72
    65
 73
     0
 40
0.0
  0
LTYPE
  5
16
330
5
100
AcDbSymbolTableRecord
100
AcDbLinetypeTableRecord
  2
Continuous
 70
     0
  3
Solid line
 72
    65
 73
     0
 40
0.0
  0
LTYPE
  5
5E
330
5
100
AcDbSymbolTableRecord
100
AcDbLinetypeTableRecord
  2
HIDDEN
 70
     0
  3
Hidden __ __ __ __ __ __ __ __ __ __ __ __ __ __
 72
    65
 73
     2
 40
1.905
 49
1.27
 74
     0
 49
-0.635
 74
     0
  0
LTYPE
  5
5F
330
5
100
AcDbSymbolTableRecord
100
AcDbLinetypeTableRecord
  2
PHANTOM
 70
     0
  3
Phantom ______  __  __  ______  __  __  ______
 72
    65
 73
     6
 40
12.7
 49
6.35
 74
     0
 49
-1.27
 74
     0
 49
1.27
 74
     0
 49
-1.27
 74
     0
 49
1.27
 74
     0
 49
-1.27
 74
     0
  0
LTYPE
  5
60
330
5
100
AcDbSymbolTableRecord
100
AcDbLinetypeTableRecord
  2
CENTER
 70
     0
  3
Center ____ _ ____ _ ____ _ ____ _ ____ _ ____
 72
    65
 73
     4
 40
10.16
 49
6.35
 74
     0
 49
-1.27
 74
     0
 49
1.27
 74
     0
 49
-1.27
 74
     0
  0
LTYPE
  5
61
330
5
100
AcDbSymbolTableRecord
100
AcDbLinetypeTableRecord
  2
CENTERX2
 70
     0
  3
Center (2x) ________  __  ________  __  _____
 72
    65
 73
     4
 40
20.32
 49
12.7
 74
     0
 49
-2.54
 74
     0
 49
2.54
 74
     0
 49
-2.54
 74
     0
  0
LTYPE
  5
62
330
5
100
AcDbSymbolTableRecord
100
AcDbLinetypeTableRecord
  2
DOT2
 70
     0
  3
Dot (.5x) ........................................
 72
    65
 73
     2
 40
0.635
 49
0.0
 74
     0
 49
-0.635
 74
     0
  0
ENDTAB
  0
TABLE
  2
LAYER
  5
2
330
0
100
AcDbSymbolTable
 70
     1
  0
LAYER
  5
10
330
2
100
AcDbSymbolTableRecord
100
AcDbLayerTableRecord
  2
0
 70
     0
 62
     7
  6
Continuous
370
    -3
390
F
  0
ENDTAB
  0
TABLE
  2
STYLE
  5
3
330
0
100
AcDbSymbolTable
 70
     1
  0
STYLE
  5
11
330
3
100
AcDbSymbolTableRecord
100
AcDbTextStyleTableRecord
  2
Standard
 70
     0
 40
0.0
 41
1.0
 50
0.0
 71
     0
 42
3.5
  3
txt
  4

  0
ENDTAB
  0
TABLE
  2
VIEW
  5
6
330
0
100
AcDbSymbolTable
 70
     0
  0
ENDTAB
  0
TABLE
  2
UCS
  5
7
330
0
100
AcDbSymbolTable
 70
     0
  0
ENDTAB
  0
TABLE
  2
APPID
  5
9
330
0
100
AcDbSymbolTable
 70
     1
  0
APPID
  5
12
330
9
100
AcDbSymbolTableRecord
100
AcDbRegAppTableRecord
  2
ACAD
 70
     0
  0
ENDTAB
  0
TABLE
  2
DIMSTYLE
  5
A
330
0
100
AcDbSymbolTable
 70
     1
100
AcDbDimStyleTable
  0
DIMSTYLE
105
27
330
A
100
AcDbSymbolTableRecord
100
AcDbDimStyleTableRecord
  2
ISO-25
 70
     0
 41
2.5
 42
0.625
 43
3.75
 44
1.25
 73
     0
 74
     0
 77
     1
 78
     8
140
2.5
141
2.5
143
0.0393700787
147
0.625
171
     3
172
     1
178
     0
271
     2
272
     2
274
     3
278
    44
283
     0
284
     8
340
11
  0
ENDTAB
  0
TABLE
  2
BLOCK_RECORD
  5
1
330
0
100
AcDbSymbolTable
 70
     1
  0
BLOCK_RECORD
  5
1F
330
1
100
AcDbSymbolTableRecord
100
AcDbBlockTableRecord
  2
*Model_Space
340
22
  0
BLOCK_RECORD
  5
1B
330
1
100
AcDbSymbolTableRecord
100
AcDbBlockTableRecord
  2
*Paper_Space
340
1E
  0
BLOCK_RECORD
  5
23
330
1
100
AcDbSymbolTableRecord
100
AcDbBlockTableRecord
  2
*Paper_Space0
340
26
  0
ENDTAB
  0
ENDSEC
  0
SECTION
  2
BLOCKS
  0
BLOCK
  5
20
330
1F
100
AcDbEntity
  8
0
100
AcDbBlockBegin
  2
*Model_Space
 70
     0
 10
0.0
 20
0.0
 30
0.0
  3
*Model_Space
  1

  0
ENDBLK
  5
21
330
1F
100
AcDbEntity
  8
0
100
AcDbBlockEnd
  0
BLOCK
  5
1C
330
1B
100
AcDbEntity
 67
     1
  8
0
100
AcDbBlockBegin
  2
*Paper_Space
 70
     0
 10
0.0
 20
0.0
 30
0.0
  3
*Paper_Space
  1

  0
ENDBLK
  5
1D
330
1B
100
AcDbEntity
 67
     1
  8
0
100
AcDbBlockEnd
  0
BLOCK
  5
24
330
23
100
AcDbEntity
  8
0
100
AcDbBlockBegin
  2
*Paper_Space0
 70
     0
 10
0.0
 20
0.0
 30
0.0
  3
*Paper_Space0
  1

  0
ENDBLK
  5
25
330
23
100
AcDbEntity
  8
0
100
AcDbBlockEnd
  0
ENDSEC
  0
SECTION
  2
ENTITIES
  0
CIRCLE
  5
63
330
1F
100
AcDbEntity
  8
0
  6
Continuous
 62
     7
370
    25
100
AcDbCircle
 10
-11.72
 20
1.75
 30
0.0
 40
0.4999999999999982
  0
SPLINE
  5
65
330
1F
100
AcDbEntity
  8
0
  6
Continuous
 62
     7
370
    25
100
AcDbSpline
210
0.0
220
0.0
230
1.0
 70
     8
 71
     3
 72
    22
 73
    18
 74
     0
 42
0.00000001
 43
0.00000001
 40
0.0
 40
0.0
 40
0.0
 40
0.0
 40
0.1250000000000002
 40
0.1250000000000002
 40
0.2500000000000005
 40
0.2500000000000005
 40
0.3750000000000004
 40
0.3750000000000004
 40
0.5000000000000003
 40
0.5000000000000003
 40
0.6250000000000002
 40
0.6250000000000002
 40
0.7500000000000001
 40
0.7500000000000001
 40
0.8750000000000001
 40
0.8750000000000001
 40
1.0
 40
1.0
 40
1.0
 40
1.0
 10
-11.72
 20
2.15
 30
0.0
 10
-11.79854016368522
 20
2.150004674033918
 30
0.0
 10
-11.87692466866718
 20
2.126222297498784
 30
0.0
 10
-12.00753150670633
 20
2.038953365450341
 30
0.0
 10
-12.05949578201034
 20
1.975634634329542
 30
0.0
 10
-12.11960783198711
 20
1.830512092424366
 30
0.0
 10
-12.12763664796634
 20
1.748994524694711
 30
0.0
 10
-12.09699156166145
 20
1.594933204598577
 30
0.0
 10
-12.05837873691702
 20
1.522693330957193
 30
0.0
 10
-11.94730665627767
 20
1.411621258331169
 30
0.0
 10
-11.87506678766518
 20
1.373008378807746
 30
0.0
 10
-11.72100545908314
 20
1.342363401359487
 30
0.0
 10
-11.63948789586748
 20
1.350392168378131
 30
0.0
 10
-11.49436535991974
 20
1.410504224189967
 30
0.0
 10
-11.43104662622254
 20
1.462468495000605
 30
0.0
 10
-11.3437777060731
 20
1.593075337600745
 30
0.0
 10
-11.31999539525544
 20
1.6714598444259
 30
0.0
 10
-11.32
 20
1.750000000000001
 30
0.0
  0
CIRCLE
  5
6E
330
1F
100
AcDbEntity
  8
0
  6
Continuous
 62
     7
370
    25
100
AcDbCircle
 10
-11.099
 20
0.0
 30
0.0
 40
0.4999999999999982
  0
CIRCLE
  5
6F
330
1F
100
AcDbEntity
  8
0
  6
Continuous
 62
     7
370
    25
100
AcDbCircle
 10
5.587
 20
-10.45
 30
0.0
 40
0.5
  0
SPLINE
  5
71
330
1F
100
AcDbEntity
  8
0
  6
Continuous
 62
     7
370
    25
100
AcDbSpline
210
0.0
220
0.0
230
1.0
 70
     8
 71
     3
 72
    22
 73
    18
 74
     0
 42
0.00000001
 43
0.00000001
 40
0.0
 40
0.0
 40
0.0
 40
0.0
 40
0.125
 40
0.125
 40
0.25
 40
0.25
 40
0.375
 40
0.375
 40
0.5
 40
0.5
 40
0.625
 40
0.625
 40
0.75
 40
0.75
 40
0.875
 40
0.875
 40
1.0
 40
1.0
 40
1.0
 40
1.0
 10
5.587
 20
-10.05
 30
0.0
 10
5.508459836314405
 20
-10.04999532596571
 30
0.0
 10
5.430075331332853
 20
-10.0737777025012
 30
0.0
 10
5.299468493293602
 20
-10.16104663454971
 30
0.0
 10
5.247504217989729
 20
-10.22436536567042
 30
0.0
 10
5.187392168012849
 20
-10.36948790757565
 30
0.0
 10
5.17936335203374
 20
-10.45100547530537
 30
0.0
 10
5.210008438338474
 20
-10.60506679540137
 30
0.0
 10
5.248621263082947
 20
-10.67730666904278
 30
0.0
 10
5.359693343722396
 20
-10.7883787416688
 30
0.0
 10
5.431933212334858
 20
-10.82699162119222
 30
0.0
 10
5.585994540916793
 20
-10.85763659864058
 30
0.0
 10
5.667512104132531
 20
-10.84960783162194
 30
0.0
 10
5.812634640080305
 20
-10.78949577580996
 30
0.0
 10
5.875953373777315
 20
-10.73753150499947
 30
0.0
 10
5.963222293927052
 20
-10.60692466239917
 30
0.0
 10
5.987004604744273
 20
-10.5285401555741
 30
0.0
 10
5.987
 20
-10.45
 30
0.0
  0
CIRCLE
  5
80
330
1F
100
AcDbEntity
  8
0
  6
Continuous
 62
     7
370
    25
100
AcDbCircle
 10
8.042
 20
-7.65
 30
0.0
 40
0.4999999999999982
  0
CIRCLE
  5
81
330
1F
100
AcDbEntity
  8
0
  6
Continuous
 62
     7
370
    25
100
AcDbCircle
 10
7.65
 20
-6.0
 30
0.0
 40
0.3625000000000052
  0
CIRCLE
  5
82
330
1F
100
AcDbEntity
  8
0
  6
Continuous
 62
     7
370
    25
100
AcDbCircle
 10
6.15
 20
-5.6
 30
0.0
 40
0.330000000000001
  0
SPLINE
  5
84
330
1F
100
AcDbEntity
  8
0
  6
Continuous
 62
     7
370
    25
100
AcDbSpline
210
0.0
220
0.0
230
1.0
 70
     8
 71
     3
 72
    22
 73
    18
 74
     0
 42
0.00000001
 43
0.00000001
 40
0.0
 40
0.0
 40
0.0
 40
0.0
 40
0.125
 40
0.125
 40
0.25
 40
0.25
 40
0.375
 40
0.375
 40
0.5
 40
0.5
 40
0.625
 40
0.625
 40
0.75
 40
0.75
 40
0.875
 40
0.875
 40
1.0
 40
1.0
 40
1.0
 40
1.0
 10
6.45
 20
-5.6
 30
0.0
 10
6.45000350552528
 20
-5.658905121602717
 30
0.0
 10
6.432166723846139
 20
-5.717693499187965
 30
0.0
 10
6.366715027238921
 20
-5.815648626545602
 30
0.0
 10
6.319225980560272
 20
-5.854621832614842
 30
0.0
 10
6.210384077377426
 20
-5.899705872420104
 30
0.0
 10
6.149245906137856
 20
-5.905727445907048
 30
0.0
 10
6.033699908685294
 20
-5.882743719462836
 30
0.0
 10
5.97952000436755
 20
-5.853784059689443
 30
0.0
 10
5.896215950748164
 20
-5.770479998364843
 30
0.0
 10
5.867256330354641
 20
-5.716300096176053
 30
0.0
 10
5.844272513093275
 20
-5.600754106726954
 30
0.0
 10
5.850294125348652
 20
-5.539615930311176
 30
0.0
 10
5.895378163884711
 20
-5.430774024512951
 30
0.0
 10
5.934351368876186
 20
-5.38328497437851
 30
0.0
 10
6.032306499687365
 20
-5.317833278565209
 30
0.0
 10
6.091094879704813
 20
-5.299996520516055
 30
0.0
 10
6.15
 20
-5.3
 30
0.0
  0
SPLINE
  5
85
330
1F
100
AcDbEntity
  8
0
  6
Continuous
 62
     7
370
    25
100
AcDbSpline
210
0.0
220
0.0
230
1.0
 70
    11
 71
     3
 72
    65
 73
    61
 74
     0
 42
0.00000001
 43
0.00000001
 40
0.0
 40
0.0
 40
0.0
 40
0.0
 40
0.0552439914412998
 40
0.0552439914412998
 40
0.0552439914412998
 40
0.1105827633883697
 40
0.1105827633883697
 40
0.1105827633883697
 40
0.1658302493096911
 40
0.1658302493096911
 40
0.1658302493096911
 40
0.2211787111771738
 40
0.2211787111771738
 40
0.2211787111771738
 40
0.2764258790258731
 40
0.2764258790258731
 40
0.2764258790258731
 40
0.3317744197135384
 40
0.3317744197135384
 40
0.3317744197135384
 40
0.3870687963619044
 40
0.3870687963619044
 40
0.3870687963619044
 40
0.442417636194151
 40
0.442417636194151
 40
0.442417636194151
 40
0.4977661516326134
 40
0.4977661516326134
 40
0.4977661516326134
 40
0.5067015451021598
 40
0.5067015451021598
 40
0.5067015451021598
 40
0.5618986397307945
 40
0.5618986397307945
 40
0.5618986397307945
 40
0.6172465825180036
 40
0.6172465825180036
 40
0.6172465825180036
 40
0.6482602524459893
 40
0.6482602524459893
 40
0.6482602524459893
 40
0.7035128647086726
 40
0.7035128647086726
 40
0.7035128647086726
 40
0.7588205570369422
 40
0.7588205570369422
 40
0.7588205570369422
 40
0.8141694186658921
 40
0.8141694186658921
 40
0.8141694186658921
 40
0.8695179757246606
 40
0.8695179757246606
 40
0.8695179757246606
 40
0.8914460728260182
 40
0.8914460728260182
 40
0.8914460728260182
 40
0.9466766338271815
 40
0.9466766338271815
 40
0.9466766338271815
 40
1.0
 40
1.0
 40
1.0
 40
1.0
 10
8.491999999999999
 20
-7.649999999999999
 30
0.0
 10
8.492003083001954
 20
-7.598194753894571
 30
0.0
 10
8.48278523862317
 20
-7.545634641178136
 30
0.0
 10
8.465162146106032
 20
-7.496919036453559
 30
0.0
 10
8.447509123193987
 20
-7.448120694985352
 30
0.0
 10
8.420902551627242
 20
-7.401754539444433
 30
0.0
 10
8.387678337439155
 20
-7.361891537305043
 30
0.0
 10
8.35450837734777
 20
-7.322093630194257
 30
0.0
 10
8.313775642749153
 20
-7.28761613412318
 30
0.0
 10
8.269044950470132
 20
-7.261476416620833
 30
0.0
 10
8.224233328973462
 20
-7.23528940571033
 30
0.0
 10
8.174099150995437
 20
-7.216705956547237
 30
0.0
 10
8.1230456131241
 20
-7.20735837758754
 30
0.0
 10
8.072084567690467
 20
-7.198027733406521
 30
0.0
 10
8.01872112827401
 20
-7.197626141833521
 30
0.0
 10
7.96762542888961
 20
-7.206188768588246
 30
0.0
 10
7.916436920640249
 20
-7.214766948269729
 30
0.0
 10
7.866028625830483
 20
-7.232593712282816
 30
0.0
 10
7.820827936754829
 20
-7.258103440829562
 30
0.0
 10
7.775671034495177
 20
-7.283588457589541
 30
0.0
 10
7.734392349381128
 20
-7.317485230011325
 30
0.0
 10
7.700610386727251
 20
-7.356822374038265
 30
0.0
 10
7.666795486229223
 20
-7.396197872281999
 30
0.0
 10
7.639503849425088
 20
-7.442176009627932
 30
0.0
 10
7.621132568209108
 20
-7.49071850012973
 30
0.0
 10
7.602761390122376
 20
-7.539260718132805
 30
0.0
 10
7.592771642958771
 20
-7.591786947603761
 30
0.0
 10
7.592044093227686
 20
-7.64368413234765
 30
0.0
 10
7.591926059930519
 20
-7.652103619795994
 30
0.0
 10
7.592044086694837
 20
-7.660529742990232
 30
0.0
 10
7.592398691622211
 20
-7.66894258769922
 30
0.0
 10
7.594578534189599
 20
-7.720658386307094
 30
0.0
 10
7.605978893388045
 20
-7.772739380539209
 30
0.0
 10
7.625606506831573
 20
-7.820635438099096
 30
0.0
 10
7.645287216510905
 20
-7.868661063136639
 30
0.0
 10
7.673814927272076
 20
-7.91388150049158
 30
0.0
 10
7.708684210689285
 20
-7.952325278501803
 30
0.0
 10
7.728290617315097
 20
-7.973941562808031
 30
0.0
 10
7.750111977503918
 20
-7.993733909554367
 30
0.0
 10
7.773532951253343
 20
-8.01114462225124
 30
0.0
 10
7.815115283019826
 20
-8.042056147937494
 30
0.0
 10
7.862803010029521
 20
-8.066020557826274
 30
0.0
 10
7.912421725915733
 20
-8.080940201561733
 30
0.0
 10
7.962089407553625
 20
-8.095874568603856
 30
0.0
 10
8.015142018200192
 20
-8.102181911895034
 30
0.0
 10
8.066926772503598
 20
-8.099309084025531
 30
0.0
 10
8.118749684164218
 20
-8.096434139326073
 30
0.0
 10
8.170818099210274
 20
-8.084280787738065
 30
0.0
 10
8.218558852757546
 20
-8.06391660519253
 30
0.0
 10
8.266299346617958
 20
-8.043552533418405
 30
0.0
 10
8.31110865604098
 20
-8.014382129939905
 30
0.0
 10
8.349051280782575
 20
-7.978967339230707
 30
0.0
 10
8.36414753355378
 20
-7.964876837162747
 30
0.0
 10
8.378304905836956
 20
-7.949708990247547
 30
0.0
 10
8.391322827270265
 20
-7.933678618517126
 30
0.0
 10
8.423972764365356
 20
-7.893473226950548
 30
0.0
 10
8.44994869213525
 20
-7.846876288942195
 30
0.0
 10
8.46697861953476
 20
-7.797963371669735
 30
0.0
 10
8.48342608900692
 20
-7.750723375000335
 30
0.0
 10
8.492002932710989
 20
-7.700021360724811
 30
0.0
 10
8.491999999999999
 20
-7.649999999999999
 30
0.0
  0
SPLINE
  5
86
330
1F
100
AcDbEntity
  8
0
  6
Continuous
 62
     7
370
    25
100
AcDbSpline
210
0.0
220
0.0
230
1.0
 70
    11
 71
     3
 72
    65
 73
    61
 74
     0
 42
0.00000001
 43
0.00000001
 40
0.0
 40
0.0
 40
0.0
 40
0.0
 40
0.0552439914422504
 40
0.0552439914422504
 40
0.0552439914422504
 40
0.1105827633898216
 40
0.1105827633898216
 40
0.1105827633898216
 40
0.1658302493111528
 40
0.1658302493111528
 40
0.1658302493111528
 40
0.2211787111785961
 40
0.2211787111785961
 40
0.2211787111785961
 40
0.2764258790273504
 40
0.2764258790273504
 40
0.2764258790273504
 40
0.3317744197149979
 40
0.3317744197149979
 40
0.3317744197149979
 40
0.387068796363212
 40
0.387068796363212
 40
0.387068796363212
 40
0.442417636195529
 40
0.442417636195529
 40
0.442417636195529
 40
0.4977661516341817
 40
0.4977661516341817
 40
0.4977661516341817
 40
0.5067015450974549
 40
0.5067015450974549
 40
0.5067015450974549
 40
0.5618986397291952
 40
0.5618986397291952
 40
0.5618986397291952
 40
0.6172465825166461
 40
0.6172465825166461
 40
0.6172465825166461
 40
0.6482602524500617
 40
0.6482602524500617
 40
0.6482602524500617
 40
0.7035128647126646
 40
0.7035128647126646
 40
0.7035128647126646
 40
0.7588205570409347
 40
0.7588205570409347
 40
0.7588205570409347
 40
0.8141694186698595
 40
0.8141694186698595
 40
0.8141694186698595
 40
0.8695179757286231
 40
0.8695179757286231
 40
0.8695179757286231
 40
0.8914460728141307
 40
0.8914460728141307
 40
0.8914460728141307
 40
0.9466766338154535
 40
0.9466766338154535
 40
0.9466766338154535
 40
0.9999999999999998
 40
0.9999999999999998
 40
0.9999999999999998
 40
0.9999999999999998
 10
-10.649
 20
0.0
 30
0.0
 10
-10.64899691699822
 20
0.0518052461063144
 30
0.0
 10
-10.65821476137715
 20
0.1043653588236786
 30
0.0
 10
-10.67583785389491
 20
0.1530809635489705
 30
0.0
 10
-10.69349087680744
 20
0.2018793050174916
 30
0.0
 10
-10.72009744837474
 20
0.2482454605586609
 30
0.0
 10
-10.75332166256348
 20
0.2881084626981112
 30
0.0
 10
-10.78649162265522
 20
0.3279063698086128
 30
0.0
 10
-10.82722435725419
 20
0.3623838658792867
 30
0.0
 10
-10.87195504953344
 20
0.3885235833812565
 30
0.0
 10
-10.91676667103029
 20
0.4147105942913483
 30
0.0
 10
-10.96690084900844
 20
0.4332940434539608
 30
0.0
 10
-11.0179543868798
 20
0.4426416224131841
 30
0.0
 10
-11.06891543231359
 20
0.4519722665937516
 30
0.0
 10
-11.12227887173012
 20
0.4523738581662757
 30
0.0
 10
-11.17337457111451
 20
0.4438112314110679
 30
0.0
 10
-11.22456307936379
 20
0.4352330517291133
 30
0.0
 10
-11.27497137417337
 20
0.4174062877155558
 30
0.0
 10
-11.32017206324879
 20
0.3918965591684087
 30
0.0
 10
-11.36532896550808
 20
0.366411542408099
 30
0.0
 10
-11.40660765062168
 20
0.3325147699860236
 30
0.0
 10
-11.44038961327515
 20
0.2931776259589326
 30
0.0
 10
-11.47420451377291
 20
0.2538021277148873
 30
0.0
 10
-11.50149615057661
 20
0.2078239903686241
 30
0.0
 10
-11.51986743179225
 20
0.1592814998666314
 30
0.0
 10
-11.53823860987868
 20
0.1107392818632475
 30
0.0
 10
-11.54822835704198
 20
0.0582130523919941
 30
0.0
 10
-11.54895590677241
 20
0.0063158676479125
 30
0.0
 10
-11.54907394006938
 20
-0.0021036197945228
 30
0.0
 10
-11.54895591330521
 20
-0.0105297429828354
 30
0.0
 10
-11.54860130837835
 20
-0.0189425876859295
 30
0.0
 10
-11.54642146581248
 20
-0.0706583862967554
 30
0.0
 10
-11.5350211066142
 20
-0.1227393805321364
 30
0.0
 10
-11.51539349317012
 20
-0.170635438094916
 30
0.0
 10
-11.49571278349124
 20
-0.2186610631328845
 30
0.0
 10
-11.46718507273031
 20
-0.2638815004882694
 30
0.0
 10
-11.43231578931329
 20
-0.3023252784989622
 30
0.0
 10
-11.41270938268425
 20
-0.3239415628091382
 30
0.0
 10
-11.39088802249139
 20
-0.3437339095588251
 30
0.0
 10
-11.36746704873741
 20
-0.3611446222581164
 30
0.0
 10
-11.32588471697017
 20
-0.3920561479432106
 30
0.0
 10
-11.27819698995998
 20
-0.4160205578307859
 30
0.0
 10
-11.22857827407348
 20
-0.4309402015649834
 30
0.0
 10
-11.17891059243521
 20
-0.4458745686058683
 30
0.0
 10
-11.12585798178849
 20
-0.4521819118957072
 30
0.0
 10
-11.07407322748515
 20
-0.4493090840249118
 30
0.0
 10
-11.02225031582463
 20
-0.4464341393241598
 30
0.0
 10
-10.97018190077891
 20
-0.4342807877348405
 30
0.0
 10
-10.92244114723217
 20
-0.4139166051881273
 30
0.0
 10
-10.87470065337225
 20
-0.393552533412811
 30
0.0
 10
-10.82989134394991
 20
-0.3643821299332333
 30
0.0
 10
-10.79194871920921
 20
-0.3289673392230614
 30
0.0
 10
-10.77685246644926
 20
-0.314876837164889
 30
0.0
 10
-10.76269509417603
 20
-0.2997089902610902
 30
0.0
 10
-10.74967717275092
 20
-0.2836786185432182
 30
0.0
 10
-10.71702723565273
 20
-0.2434732269789731
 30
0.0
 10
-10.69105130787939
 20
-0.1968762889723672
 30
0.0
 10
-10.67402138047615
 20
-0.1479633717010485
 30
0.0
 10
-10.65757391099686
 20
-0.1007233750225925
 30
0.0
 10
-10.6489970672888
 20
-0.0500213607357095
 30
0.0
 10
-10.649
 20
0.0
 30
0.0
  0
SPLINE
  5
87
330
1F
100
AcDbEntity
  8
0
  6
Continuous
 62
     7
370
    25
100
AcDbSpline
210
0.0
220
0.0
230
1.0
 70
    11
 71
     3
 72
    47
 73
    43
 74
     0
 42
0.00000001
 43
0.00000001
 40
0.0
 40
0.0
 40
0.0
 40
0.0
 40
0.0723825104435172
 40
0.0723825104435172
 40
0.0723825104435172
 40
0.1448335423304301
 40
0.1448335423304301
 40
0.1448335423304301
 40
0.2174328976075265
 40
0.2174328976075265
 40
0.2174328976075265
 40
0.2825671023924735
 40
0.2825671023924735
 40
0.2825671023924735
 40
0.355105871976
 40
0.355105871976
 40
0.355105871976
 40
0.4274861367543061
 40
0.4274861367543061
 40
0.4274861367543061
 40
0.5
 40
0.5
 40
0.5
 40
0.5725996347610722
 40
0.5725996347610722
 40
0.5725996347610722
 40
0.6450493037997684
 40
0.6450493037997684
 40
0.6450493037997684
 40
0.7176486813199324
 40
0.7176486813199324
 40
0.7176486813199324
 40
0.7823513186800676
 40
0.7823513186800676
 40
0.7823513186800676
 40
0.8548867262555401
 40
0.8548867262555401
 40
0.8548867262555401
 40
0.9272691462456568
 40
0.9272691462456568
 40
0.9272691462456568
 40
0.9999999999999999
 40
0.9999999999999999
 40
0.9999999999999999
 40
0.9999999999999999
 10
7.9125
 20
-6.0
 30
0.0
 10
7.912502347860671
 20
-6.039452293422494
 30
0.0
 10
7.903147940926282
 20
-6.079867961923792
 30
0.0
 10
7.885817420769518
 20
-6.115309978414154
 30
0.0
 10
7.868470779005532
 20
-6.150784964617127
 30
0.0
 10
7.842282040264104
 20
-6.183011600980375
 30
0.0
 10
7.811104939868795
 20
-6.207247298567406
 30
0.0
 10
7.779865122472092
 20
-6.231531749574738
 30
0.0
 10
7.742082942320188
 20
-6.248983130873106
 30
0.0
 10
7.703340033705826
 20
-6.257023515428949
 30
0.0
 10
7.668521905769783
 20
-6.264249383287938
 30
0.0
 10
7.631478094010012
 20
-6.264249384356628
 30
0.0
 10
7.596659966244394
 20
-6.257023515676441
 30
0.0
 10
7.55794882770401
 20
-6.248989723468076
 30
0.0
 10
7.520197396118817
 20
-6.231561269274498
 30
0.0
 10
7.488973964899293
 20
-6.207308611539318
 30
0.0
 10
7.457817578861937
 20
-6.183108030843476
 30
0.0
 10
7.431637060706313
 20
-6.150931183657091
 30
0.0
 10
7.414277827080571
 20
-6.115504562242513
 30
0.0
 10
7.396887107417521
 20
-6.080013684309034
 30
0.0
 10
7.387502352047306
 20
-6.039522645930604
 30
0.0
 10
7.3875
 20
-6.0
 30
0.0
 10
7.387497645219007
 20
-5.960431418480566
 30
0.0
 10
7.396910030333617
 20
-5.919891158911098
 30
0.0
 10
7.414340108850914
 20
-5.884368419547615
 30
0.0
 10
7.431734807121124
 20
-5.848917785613528
 30
0.0
 10
7.457966821934024
 20
-5.816727456144807
 30
0.0
 10
7.489176166926105
 20
-5.792534486930477
 30
0.0
 10
7.520448881333356
 20
-5.768292394791244
 30
0.0
 10
7.558254704385708
 20
-5.750892254983109
 30
0.0
 10
7.597008489883372
 20
-5.742904401248503
 30
0.0
 10
7.631608816994501
 20
-5.735772650154153
 30
0.0
 10
7.66839118314846
 20
-5.735772649459994
 30
0.0
 10
7.702991510168788
 20
-5.742904400994859
 30
0.0
 10
7.741711741604004
 20
-5.750885339146287
 30
0.0
 10
7.77948506549837
 20
-5.768261316214787
 30
0.0
 10
7.81074043243116
 20
-5.792469862930155
 30
0.0
 10
7.841931018648154
 20
-5.816628234359211
 30
0.0
 10
7.868156451014654
 20
-5.848770205509695
 30
0.0
 10
7.885564475330512
 20
-5.884174163877121
 30
0.0
 10
7.903054838684157
 20
-5.919745581102195
 30
0.0
 10
7.912502323993143
 20
-5.960361148752244
 30
0.0
 10
7.9125
 20
-6.0
 30
0.0
  0
CIRCLE
  5
88
330
1F
100
AcDbEntity
  8
0
  6
Continuous
 62
     7
370
    25
100
AcDbCircle
 10
-7.6
 20
-1.05
 30
0.0
 40
0.330000000000001
  0
SPLINE
  5
8A
330
1F
100
AcDbEntity
  8
0
  6
Continuous
 62
     7
370
    25
100
AcDbSpline
210
0.0
220
0.0
230
1.0
 70
     8
 71
     3
 72
    22
 73
    18
 74
     0
 42
0.00000001
 43
0.00000001
 40
0.0
 40
0.0
 40
0.0
 40
0.0
 40
0.1250000000000009
 40
0.1250000000000009
 40
0.2500000000000018
 40
0.2500000000000018
 40
0.3750000000000028
 40
0.3750000000000028
 40
0.5000000000000037
 40
0.5000000000000037
 40
0.6250000000000032
 40
0.6250000000000032
 40
0.7500000000000028
 40
0.7500000000000028
 40
0.8750000000000022
 40
0.8750000000000022
 40
1.0
 40
1.0
 40
1.0
 40
1.0
 10
-7.3
 20
-1.05000000000005
 30
0.0
 10
-7.299996494474658
 20
-1.108905122764247
 30
0.0
 10
-7.317833276875898
 20
-1.167693501500412
 30
0.0
 10
-7.383284975912287
 20
-1.265648630029849
 30
0.0
 10
-7.430774024252862
 20
-1.304621836507753
 30
0.0
 10
-7.539615930681731
 20
-1.34970587399041
 30
0.0
 10
-7.600754106478961
 20
-1.355727485974765
 30
0.0
 10
-7.716300096551089
 20
-1.332743671246173
 30
0.0
 10
-7.770480001782127
 20
-1.303784052687862
 30
0.0
 10
-7.853784056251624
 20
-1.220479992208225
 30
0.0
 10
-7.882743715894192
 20
-1.166300090748913
 30
0.0
 10
-7.905727448980406
 20
-1.050754094312452
 30
0.0
 10
-7.899705873716375
 20
-0.9896159219006228
 30
0.0
 10
-7.854621831857565
 20
-0.8807740199398479
 30
0.0
 10
-7.815648628749559
 20
-0.8332849696670603
 30
0.0
 10
-7.71769349679944
 20
-0.7678332795547699
 30
0.0
 10
-7.658905116680715
 20
-0.7499965464418424
 30
0.0
 10
-7.6
 20
-0.7500000000000532
 30
0.0
  0
CIRCLE
  5
8E
330
1F
100
AcDbEntity
  8
0
  6
Continuous
 62
     7
370
    25
100
AcDbCircle
 10
-9.0
 20
-1.2
 30
0.0
 40
0.3624999999999989
  0
SPLINE
  5
96
330
1F
100
AcDbEntity
  8
0
  6
Continuous
 62
     7
370
    25
100
AcDbSpline
210
0.0
220
0.0
230
1.0
 70
    11
 71
     3
 72
    65
 73
    61
 74
     0
 42
0.00000001
 43
0.00000001
 40
0.0
 40
0.0
 40
0.0
 40
0.0
 40
0.052403541722978
 40
0.052403541722978
 40
0.052403541722978
 40
0.104888798991635
 40
0.104888798991635
 40
0.104888798991635
 40
0.1573348384923247
 40
0.1573348384923247
 40
0.1573348384923247
 40
0.2098298416309473
 40
0.2098298416309473
 40
0.2098298416309473
 40
0.2622756025001872
 40
0.2622756025001872
 40
0.2622756025001872
 40
0.314770273473187
 40
0.314770273473187
 40
0.314770273473187
 40
0.3672654334886948
 40
0.3672654334886948
 40
0.3672654334886948
 40
0.3982036995339157
 40
0.3982036995339157
 40
0.3982036995339157
 40
0.4506207283795317
 40
0.4506207283795317
 40
0.4506207283795317
 40
0.5
 40
0.5
 40
0.5
 40
0.5524816191595927
 40
0.5524816191595927
 40
0.5524816191595927
 40
0.6049672443843227
 40
0.6049672443843227
 40
0.6049672443843227
 40
0.6574127232051667
 40
0.6574127232051667
 40
0.6574127232051667
 40
0.7099077114562293
 40
0.7099077114562293
 40
0.7099077114562293
 40
0.7623532322928278
 40
0.7623532322928278
 40
0.7623532322928278
 40
0.8148479039892856
 40
0.8148479039892856
 40
0.8148479039892856
 40
0.8673430761779253
 40
0.8673430761779253
 40
0.8673430761779253
 40
0.8979707714662242
 40
0.8979707714662242
 40
0.8979707714662242
 40
0.9503869568725584
 40
0.9503869568725584
 40
0.9503869568725584
 40
0.9999999999999998
 40
0.9999999999999998
 40
0.9999999999999998
 40
0.9999999999999998
 10
4.273
 20
-3.032
 30
0.0
 10
4.273003251065629
 20
-3.086629305459976
 30
0.0
 10
4.263804898834826
 20
-3.141977314645269
 30
0.0
 10
4.246140739603343
 20
-3.193671980755552
 30
0.0
 10
4.228449285918035
 20
-3.245446524863917
 30
0.0
 10
4.201795726764108
 20
-3.294921666282202
 30
0.0
 10
4.16829151172654
 20
-3.338177400304928
 30
0.0
 10
4.13481210451603
 20
-3.381401106095755
 30
0.0
 10
4.093609966587694
 20
-3.419554245720049
 30
0.0
 10
4.047944929381551
 20
-3.449618573858569
 30
0.0
 10
4.002237645599181
 20
-3.479710715725229
 30
0.0
 10
3.950852598295462
 20
-3.502492427441201
 30
0.0
 10
3.897862646168453
 20
-3.516158361966969
 30
0.0
 10
3.844921949656778
 20
-3.529811593631398
 30
0.0
 10
3.788983650617681
 20
-3.534726317030064
 30
0.0
 10
3.734473284409721
 20
-3.530513472634898
 30
0.0
 10
3.679912545004648
 20
-3.526296735137266
 30
0.0
 10
3.625342623528385
 20
-3.512824240170883
 30
0.0
 10
3.575088619460955
 20
-3.491163440676339
 30
0.0
 10
3.52483415161034
 20
-3.469502441279027
 30
0.0
 10
3.477568998122887
 20
-3.439081220061341
 30
0.0
 10
3.437039160433567
 20
-3.402311086927012
 30
0.0
 10
3.413081852407828
 20
-3.380576151485148
 30
0.0
 10
3.391141792072125
 20
-3.356392660133612
 30
0.0
 10
3.371834217795993
 20
-3.330439286517187
 30
0.0
 10
3.339218752905426
 20
-3.286597355165679
 30
0.0
 10
3.313555584467058
 20
-3.236686978031734
 30
0.0
 10
3.296872754237288
 20
-3.18465269442772
 30
0.0
 10
3.281148744522208
 20
-3.135609002821565
 30
0.0
 10
3.273003064997033
 20
-3.083502700497017
 30
0.0
 10
3.273
 20
-3.032
 30
0.0
 10
3.272996744134466
 20
-2.97729003922448
 30
0.0
 10
3.282222996758039
 20
-2.921858232244325
 30
0.0
 10
3.299938630019541
 20
-2.870095927844272
 30
0.0
 10
3.317655602989088
 20
-2.818329709027239
 30
0.0
 10
3.344333686617591
 20
-2.768867320933004
 30
0.0
 10
3.377859447153566
 20
-2.725627802870229
 30
0.0
 10
3.411359796308999
 20
-2.682421058884175
 30
0.0
 10
3.452580211388875
 20
-2.64428858829871
 30
0.0
 10
3.498259470809955
 20
-2.614246927589721
 30
0.0
 10
3.543981461482964
 20
-2.584177164022051
 30
0.0
 10
3.595377633916179
 20
-2.56142059923266
 30
0.0
 10
3.648374253151265
 20
-2.547780604299756
 30
0.0
 10
3.701321385285282
 20
-2.534153346100205
 30
0.0
 10
3.757261809406044
 20
-2.529265966728869
 30
0.0
 10
3.811769867072752
 20
-2.533505379029782
 30
0.0
 10
3.86632854398017
 20
-2.537748728286823
 30
0.0
 10
3.920891886653698
 20
-2.551247843190793
 30
0.0
 10
3.971135321716257
 20
-2.572933148628341
 30
0.0
 10
4.021379231360322
 20
-2.594618658897523
 30
0.0
 10
4.06862954842244
 20
-2.625062944926376
 30
0.0
 10
4.109141453710211
 20
-2.661852853079433
 30
0.0
 10
4.132848515768186
 20
-2.683381848802945
 30
0.0
 10
4.154576634487503
 20
-2.707308266544728
 30
0.0
 10
4.173728576661301
 20
-2.732973915947289
 30
0.0
 10
4.206407650515096
 20
-2.776767367531502
 30
0.0
 10
4.232143518799327
 20
-2.82663923265596
 30
0.0
 10
4.248902511914954
 20
-2.878648120544003
 30
0.0
 10
4.264772735643878
 20
-2.927898853030198
 30
0.0
 10
4.273003033740231
 20
-2.980255448186024
 30
0.0
 10
4.273
 20
-3.032
 30
0.0
  0
CIRCLE
  5
97
330
1F
100
AcDbEntity
  8
0
  6
Continuous
 62
     7
370
    25
100
AcDbCircle
 10
3.773
 20
-3.032
 30
0.0
 40
0.5519615242270581
  0
CIRCLE
  5
98
330
1F
100
AcDbEntity
  8
0
  6
Continuous
 62
     7
370
    25
100
AcDbCircle
 10
0.0
 20
0.0
 30
0.0
 40
0.5519615242270659
  0
CIRCLE
  5
99
330
1F
100
AcDbEntity
  8
0
  6
Continuous
 62
     7
370
    25
100
AcDbCircle
 10
-4.897
 20
-0.738
 30
0.0
 40
0.551961524227079
  0
SPLINE
  5
A0
330
1F
100
AcDbEntity
  8
0
  6
Continuous
 62
     7
370
    25
100
AcDbSpline
210
0.0
220
0.0
230
1.0
 70
    11
 71
     3
 72
    65
 73
    61
 74
     0
 42
0.00000001
 43
0.00000001
 40
0.0
 40
0.0
 40
0.0
 40
0.0
 40
0.0524035417229722
 40
0.0524035417229722
 40
0.0524035417229722
 40
0.1048887989916266
 40
0.1048887989916266
 40
0.1048887989916266
 40
0.1573348384923287
 40
0.1573348384923287
 40
0.1573348384923287
 40
0.209829841630962
 40
0.209829841630962
 40
0.209829841630962
 40
0.2622756025002256
 40
0.2622756025002256
 40
0.2622756025002256
 40
0.3147702734732238
 40
0.3147702734732238
 40
0.3147702734732238
 40
0.367265433488735
 40
0.367265433488735
 40
0.367265433488735
 40
0.3982036995337949
 40
0.3982036995337949
 40
0.3982036995337949
 40
0.4506207283794317
 40
0.4506207283794317
 40
0.4506207283794317
 40
0.5
 40
0.5
 40
0.5
 40
0.5524816191595395
 40
0.5524816191595395
 40
0.5524816191595395
 40
0.6049672443845484
 40
0.6049672443845484
 40
0.6049672443845484
 40
0.6574127232053922
 40
0.6574127232053922
 40
0.6574127232053922
 40
0.7099077114564369
 40
0.7099077114564369
 40
0.7099077114564369
 40
0.7623532322930311
 40
0.7623532322930311
 40
0.7623532322930311
 40
0.8148479039894728
 40
0.8148479039894728
 40
0.8148479039894728
 40
0.8673430761780866
 40
0.8673430761780866
 40
0.8673430761780866
 40
0.8979707714657402
 40
0.8979707714657402
 40
0.8979707714657402
 40
0.950386956872066
 40
0.950386956872066
 40
0.950386956872066
 40
0.9999999999999999
 40
0.9999999999999999
 40
0.9999999999999999
 40
0.9999999999999999
 10
0.5
 20
0.0
 30
0.0
 10
0.5000032510656325
 20
-0.0546293054599573
 30
0.0
 10
0.4908048988348326
 20
-0.1099773146452316
 30
0.0
 10
0.4731407396033639
 20
-0.1616719807554989
 30
0.0
 10
0.4554492859180669
 20
-0.2134465248638546
 30
0.0
 10
0.4287957267641489
 20
-0.2629216662821294
 30
0.0
 10
0.3952915117265967
 20
-0.3061774003048521
 30
0.0
 10
0.3618121045160937
 20
-0.3494011060956848
 30
0.0
 10
0.320609966587762
 20
-0.3875542457199821
 30
0.0
 10
0.2749449293816253
 20
-0.4176185738585139
 30
0.0
 10
0.2292376455992637
 20
-0.4477107157251853
 30
0.0
 10
0.1778525982955471
 20
-0.4704924274411665
 30
0.0
 10
0.1248626461685402
 20
-0.4841583619669414
 30
0.0
 10
0.0719219496568564
 20
-0.4978115936313809
 30
0.0
 10
0.0159836506177483
 20
-0.5027263170300652
 30
0.0
 10
-0.0385267155902237
 20
-0.4985134726349016
 30
0.0
 10
-0.0930874549952851
 20
-0.4942967351372731
 30
0.0
 10
-0.1476573764715376
 20
-0.480824240170907
 30
0.0
 10
-0.1979113805389608
 20
-0.459163440676375
 30
0.0
 10
-0.2481658483895706
 20
-0.437502441279073
 30
0.0
 10
-0.2954310018770212
 20
-0.4070812200614028
 30
0.0
 10
-0.3359608395663426
 20
-0.3703110869270896
 30
0.0
 10
-0.3599181475919578
 20
-0.3485761514853488
 30
0.0
 10
-0.381858207927561
 20
-0.3243926601339642
 30
0.0
 10
-0.4011657822036244
 20
-0.2984392865177047
 30
0.0
 10
-0.4337812470942581
 20
-0.2545973551662329
 30
0.0
 10
-0.4594444155326888
 20
-0.204686978032307
 30
0.0
 10
-0.4761272457625275
 20
-0.1526526944283044
 30
0.0
 10
-0.4918512554777305
 20
-0.1036090028219763
 30
0.0
 10
-0.4999969350029594
 20
-0.0515027004972194
 30
0.0
 10
-0.5
 20
0.0
 30
0.0
 10
-0.500003255865542
 20
0.0547099607753673
 30
0.0
 10
-0.490777003242018
 20
0.110141767755363
 30
0.0
 10
-0.4730613699806163
 20
0.161904072155287
 30
0.0
 10
-0.4553443970110216
 20
0.2136702909726227
 30
0.0
 10
-0.4286663133823632
 20
0.2631326790671429
 30
0.0
 10
-0.3951405528461666
 20
0.3063721971301283
 30
0.0
 10
-0.3616402036906898
 20
0.3495789411161638
 30
0.0
 10
-0.3204197886107635
 20
0.3877114117015918
 30
0.0
 10
-0.274740529189646
 20
0.4177530724105453
 30
0.0
 10
-0.2290185385166131
 20
0.4478228359781691
 30
0.0
 10
-0.1776223660833833
 20
0.4705794007675108
 30
0.0
 10
-0.1246257468482902
 20
0.4842193957003641
 30
0.0
 10
-0.071678614714254
 20
0.4978466538998663
 30
0.0
 10
-0.0157381905934798
 20
0.5027340332711562
 30
0.0
 10
0.0387698670732304
 20
0.4984946209701906
 30
0.0
 10
0.0933285439806422
 20
0.4942512717130959
 30
0.0
 10
0.1478918866541549
 20
0.4807521568090788
 30
0.0
 10
0.1981353217166894
 20
0.4590668513714813
 30
0.0
 10
0.2483792313607177
 20
0.4373813411022547
 30
0.0
 10
0.2956295484227932
 20
0.4069370550733716
 30
0.0
 10
0.3361414537105213
 20
0.3701471469202905
 30
0.0
 10
0.3598485157679848
 20
0.348618151197206
 30
0.0
 10
0.3815766344868721
 20
0.324691733455955
 30
0.0
 10
0.4007285766603524
 20
0.2990260840539886
 30
0.0
 10
0.4334076505142876
 20
0.2552326324698735
 30
0.0
 10
0.4591435187986826
 20
0.2053607673454952
 30
0.0
 10
0.4759025119144764
 20
0.153351879457502
 30
0.0
 10
0.4917727356437162
 20
0.1041011469708622
 30
0.0
 10
0.50000303374022
 20
0.0517445518144963
 30
0.0
 10
0.5
 20
0.0
 30
0.0
  0
SPLINE
  5
A1
330
1F
100
AcDbEntity
  8
0
  6
Continuous
 62
     7
370
    25
100
AcDbSpline
210
0.0
220
0.0
230
1.0
 70
    11
 71
     3
 72
    65
 73
    61
 74
     0
 42
0.00000001
 43
0.00000001
 40
0.0
 40
0.0
 40
0.0
 40
0.0
 40
0.0524035417227646
 40
0.0524035417227646
 40
0.0524035417227646
 40
0.1048887989912896
 40
0.1048887989912896
 40
0.1048887989912896
 40
0.157334838492006
 40
0.157334838492006
 40
0.157334838492006
 40
0.2098298416306601
 40
0.2098298416306601
 40
0.2098298416306601
 40
0.262275602499927
 40
0.262275602499927
 40
0.262275602499927
 40
0.3147702734729105
 40
0.3147702734729105
 40
0.3147702734729105
 40
0.3672654334884383
 40
0.3672654334884383
 40
0.3672654334884383
 40
0.398203699534685
 40
0.398203699534685
 40
0.398203699534685
 40
0.4506207283803439
 40
0.4506207283803439
 40
0.4506207283803439
 40
0.5
 40
0.5
 40
0.5
 40
0.5524816191595725
 40
0.5524816191595725
 40
0.5524816191595725
 40
0.6049672443845873
 40
0.6049672443845873
 40
0.6049672443845873
 40
0.6574127232054396
 40
0.6574127232054396
 40
0.6574127232054396
 40
0.7099077114564857
 40
0.7099077114564857
 40
0.7099077114564857
 40
0.7623532322930798
 40
0.7623532322930798
 40
0.7623532322930798
 40
0.8148479039895251
 40
0.8148479039895251
 40
0.8148479039895251
 40
0.8673430761781391
 40
0.8673430761781391
 40
0.8673430761781391
 40
0.8979707714655827
 40
0.8979707714655827
 40
0.8979707714655827
 40
0.9503869568719254
 40
0.9503869568719254
 40
0.9503869568719254
 40
1.0
 40
1.0
 40
1.0
 40
1.0
 10
-4.397
 20
-0.738
 30
0.0
 10
-4.396996748934321
 20
-0.792629305459743
 30
0.0
 10
-4.406195101165086
 20
-0.8479773146447952
 30
0.0
 10
-4.423859260396418
 20
-0.899671980754883
 30
0.0
 10
-4.441550714081605
 20
-0.9514465248631355
 30
0.0
 10
-4.468204273235362
 20
-1.000921666281335
 30
0.0
 10
-4.501708488272747
 20
-1.044177400304019
 30
0.0
 10
-4.535187895483173
 20
-1.08740110609493
 30
0.0
 10
-4.576390033411433
 20
-1.125554245719326
 30
0.0
 10
-4.622055070617521
 20
-1.155618573857958
 30
0.0
 10
-4.66776235439984
 20
-1.185710715724734
 30
0.0
 10
-4.719147401703532
 20
-1.208492427440825
 30
0.0
 10
-4.772137353830534
 20
-1.222158361966707
 30
0.0
 10
-4.825078050342196
 20
-1.235811593631249
 30
0.0
 10
-4.881016349381299
 20
-1.240726317030045
 30
0.0
 10
-4.935526715589283
 20
-1.236513472634981
 30
0.0
 10
-4.99008745499434
 20
-1.232296735137453
 30
0.0
 10
-5.044657376470601
 20
-1.218824240171191
 30
0.0
 10
-5.094911380538059
 20
-1.197163440676769
 30
0.0
 10
-5.145165848388729
 20
-1.175502441279565
 30
0.0
 10
-5.192431001876249
 20
-1.145081220061967
 30
0.0
 10
-5.232960839565649
 20
-1.108311086927717
 30
0.0
 10
-5.256918147592221
 20
-1.086576151485189
 30
0.0
 10
-5.27885820792864
 20
-1.062392660132827
 30
0.0
 10
-5.298165782205293
 20
-1.036439286515465
 30
0.0
 10
-5.330781247095691
 20
-0.9925973551637877
 30
0.0
 10
-5.356444415533867
 20
-0.9426869780297014
 30
0.0
 10
-5.373127245763404
 20
-0.8906526944255774
 30
0.0
 10
-5.388851255478027
 20
-0.8416090028200538
 30
0.0
 10
-5.396996935002963
 20
-0.7895027004962757
 30
0.0
 10
-5.397
 20
-0.738
 30
0.0
 10
-5.397003255865538
 20
-0.6832900392245984
 30
0.0
 10
-5.387777003242005
 20
-0.6278582322445658
 30
0.0
 10
-5.37006136998058
 20
-0.5760959278446136
 30
0.0
 10
-5.35234439701097
 20
-0.5243297090272757
 30
0.0
 10
-5.3256663133823
 20
-0.4748673209327538
 30
0.0
 10
-5.292140552846088
 20
-0.4316278028697715
 30
0.0
 10
-5.258640203690595
 20
-0.3884210588837381
 30
0.0
 10
-5.21741978861065
 20
-0.3502885882983157
 30
0.0
 10
-5.171740529189517
 20
-0.3202469275893692
 30
0.0
 10
-5.126018538516476
 20
-0.2901771640217562
 30
0.0
 10
-5.074622366083236
 20
-0.267420599232431
 30
0.0
 10
-5.021625746848138
 20
-0.2537806042995942
 30
0.0
 10
-4.968678614714097
 20
-0.2401533461001068
 30
0.0
 10
-4.912738190593322
 20
-0.235265966728836
 30
0.0
 10
-4.858230132926612
 20
-0.2395053790298172
 30
0.0
 10
-4.803671456019198
 20
-0.2437487282869275
 30
0.0
 10
-4.749108113345687
 20
-0.2572478431909645
 30
0.0
 10
-4.698864678283158
 20
-0.2789331486285802
 30
0.0
 10
-4.648620768639135
 20
-0.3006186588978242
 30
0.0
 10
-4.601370451577064
 20
-0.3310629449267189
 30
0.0
 10
-4.560858546289349
 20
-0.3678528530798174
 30
0.0
 10
-4.537151484232055
 20
-0.3893818488027641
 30
0.0
 10
-4.515423365513314
 20
-0.4133082665438432
 30
0.0
 10
-4.496271423339935
 20
-0.4389739159456124
 30
0.0
 10
-4.463592349485937
 20
-0.4827673675297036
 30
0.0
 10
-4.437856481201494
 20
-0.5326392326540802
 30
0.0
 10
-4.421097488085648
 20
-0.5846481205420764
 30
0.0
 10
-4.405227264356319
 20
-0.6338988530288402
 30
0.0
 10
-4.396996966259717
 20
-0.6862554481853583
 30
0.0
 10
-4.397
 20
-0.738
 30
0.0
  0
LINE
  5
A2
330
1F
100
AcDbEntity
  8
0
  6
Continuous
 62
     7
370
    25
100
AcDbLine
 10
-10.3305006283
 20
0.3954641031
 30
0.0
 11
-10.7527770797
 21
2.0039287743
 31
0.0
  0
LINE
  5
A3
330
1F
100
AcDbEntity
  8
0
  6
Continuous
 62
     7
370
    25
100
AcDbLine
 10
-12.6427817686
 20
-1.6500209552
 30
0.0
 11
-9.5271320198
 21
-1.9491937487
 31
0.0
  0
LINE
  5
A4
330
1F
100
AcDbEntity
  8
0
  6
Continuous
 62
     7
370
    25
100
AcDbLine
 10
-11.2541834511
 20
2.6348813156
 30
0.0
 11
-12.3401934394
 21
3.2065754128
 31
0.0
  0
LINE
  5
A5
330
1F
100
AcDbEntity
  8
0
  6
Continuous
 62
     7
370
    25
100
AcDbLine
 10
4.8462116911
 20
-11.0447543034
 30
0.0
 11
5.2919299904
 21
-11.5999128004
 31
0.0
  0
LINE
  5
A6
330
1F
100
AcDbEntity
  8
0
  6
Continuous
 62
     7
370
    25
100
AcDbLine
 10
4.948529972
 20
-8.1864627188
 30
0.0
 11
4.6464131942
 21
-10.3165966236
 31
0.0
  0
LINE
  5
A7
330
1F
100
AcDbEntity
  8
0
  6
Continuous
 62
     7
370
    25
100
AcDbLine
 10
1.707
 20
-2.97
 30
0.0
 11
4.922112937
 21
-6.3891201031
 31
0.0
  0
LINE
  5
A8
330
1F
100
AcDbEntity
  8
0
  6
Continuous
 62
     7
370
    25
100
AcDbLine
 10
6.8627793328
 20
-3.9291082513
 30
0.0
 11
2.7501520298
 21
0.4922255673
 31
0.0
  0
LINE
  5
A9
330
1F
100
AcDbEntity
  8
0
  6
Continuous
 62
     7
370
    25
100
AcDbLine
 10
10.3268662487
 20
-7.4778562089
 30
0.0
 11
7.0170414341
 21
-3.9195857146
 31
0.0
  0
LINE
  5
AA
330
1F
100
AcDbEntity
  8
0
  6
Continuous
 62
     7
370
    25
100
AcDbLine
 10
-9.4314417041
 20
-1.9004578532
 30
0.0
 11
1.707
 21
-2.97
 31
0.0
  0
LINE
  5
AB
330
1F
100
AcDbEntity
  8
0
  6
Continuous
 62
     7
370
    25
100
AcDbLine
 10
-9.3069946078
 20
-0.2628987259
 30
0.0
 11
-4.9769946078
 21
0.4841012741
 31
0.0
  0
LINE
  5
AC
330
1F
100
AcDbEntity
  8
0
  6
Continuous
 62
     7
370
    25
100
AcDbLine
 10
-2.1437819704
 20
3.1002194957
 30
0.0
 11
-4.4914750011
 21
0.7367399383
 31
0.0
  0
ARC
  5
AD
330
1F
100
AcDbEntity
  8
0
  6
Continuous
 62
     7
370
    25
100
AcDbCircle
 10
-11.72
 20
1.75
 30
0.0
 40
0.4000000000000039
100
AcDbArc
 50
0.0
 51
90.0
  0
ARC
  5
AE
330
1F
100
AcDbEntity
  8
0
  6
Continuous
 62
     7
370
    25
100
AcDbCircle
 10
-9.46
 20
0.624
 30
0.0
 40
0.9000000000002418
100
AcDbArc
 50
194.7101192768
 51
279.7881674056
  0
ARC
  5
AF
330
1F
100
AcDbEntity
  8
0
  6
Continuous
 62
     7
370
    25
100
AcDbCircle
 10
-4.897
 20
-0.738
 30
0.0
 40
4.700000000000312
100
AcDbArc
 50
174.2707738395
 51
194.3201597653
  0
ARC
  5
B0
330
1F
100
AcDbEntity
  8
0
  6
Continuous
 62
     7
370
    25
100
AcDbCircle
 10
-9.441
 20
-2.0
 30
0.0
 40
0.0999999999999793
100
AcDbArc
 50
84.5151264251
 51
149.4651393554
  0
ARC
  5
B1
330
1F
100
AcDbEntity
  8
0
  6
Continuous
 62
     7
370
    25
100
AcDbCircle
 10
0.0
 20
0.0
 30
0.0
 40
12.75000000000137
100
AcDbArc
 50
165.4339380135
 51
187.4356967481
  0
ARC
  5
B2
330
1F
100
AcDbEntity
  8
0
  6
Continuous
 62
     7
370
    25
100
AcDbCircle
 10
-11.72
 20
1.75
 30
0.0
 40
1.000000000000039
100
AcDbArc
 50
14.7101192768
 51
62.2369194998
  0
ARC
  5
B3
330
1F
100
AcDbEntity
  8
0
  6
Continuous
 62
     7
370
    25
100
AcDbCircle
 10
5.587
 20
-10.45
 30
0.0
 40
0.3999999999999968
100
AcDbArc
 50
0.0
 51
90.0
  0
ARC
  5
B4
330
1F
100
AcDbEntity
  8
0
  6
Continuous
 62
     7
370
    25
100
AcDbCircle
 10
0.0
 20
0.0
 30
0.0
 40
12.7500000000029
100
AcDbArc
 50
294.5226751342
 51
303.3987336615
  0
ARC
  5
B5
330
1F
100
AcDbEntity
  8
0
  6
Continuous
 62
     7
370
    25
100
AcDbCircle
 10
5.587
 20
-10.45
 30
0.0
 40
0.9499999999998723
100
AcDbArc
 50
171.9275828567
 51
218.7598224251
  0
ARC
  5
B6
330
1F
100
AcDbEntity
  8
0
  6
Continuous
 62
     7
370
    25
100
AcDbCircle
 10
-0.794
 20
-7.372
 30
0.0
 40
5.799999999999752
100
AcDbArc
 50
351.9275828567
 51
9.7565430582
  0
ARC
  5
B7
330
1F
100
AcDbEntity
  8
0
  6
Continuous
 62
     7
370
    25
100
AcDbCircle
 10
0.0
 20
0.0
 30
0.0
 40
4.700000000002481
100
AcDbArc
 50
303.5497379765
 51
306.8607159002
  0
ARC
  5
B8
330
1F
100
AcDbEntity
  8
0
  6
Continuous
 62
     7
370
    25
100
AcDbCircle
 10
3.773
 20
-3.032
 30
0.0
 40
1.199999999999998
100
AcDbArc
 50
217.3760140653
 51
65.0529509284
  0
ARC
  5
B9
330
1F
100
AcDbEntity
  8
0
  6
Continuous
 62
     7
370
    25
100
AcDbCircle
 10
0.0
 20
0.0
 30
0.0
 40
4.699999999998481
100
AcDbArc
 50
335.5682490936
 51
342.9131739479
  0
ARC
  5
BA
330
1F
100
AcDbEntity
  8
0
  6
Continuous
 62
     7
370
    25
100
AcDbCircle
 10
6.936
 20
-3.861
 30
0.0
 40
0.0999999999999824
100
AcDbArc
 50
222.9282924742
 51
324.136433467
  0
ARC
  5
BB
330
1F
100
AcDbEntity
  8
0
  6
Continuous
 62
     7
370
    25
100
AcDbCircle
 10
0.0
 20
0.0
 30
0.0
 40
12.74999999999515
100
AcDbArc
 50
311.5708774728
 51
324.0910752923
  0
ARC
  5
BC
330
1F
100
AcDbEntity
  8
0
  6
Continuous
 62
     7
370
    25
100
AcDbCircle
 10
7.485
 20
-9.76
 30
0.0
 40
1.000000000000008
100
AcDbArc
 50
12.7838089382
 51
242.1858021961
  0
ARC
  5
BD
330
1F
100
AcDbEntity
  8
0
  6
Continuous
 62
     7
370
    25
100
AcDbCircle
 10
6.15
 20
-5.6
 30
0.0
 40
0.3000000000000016
100
AcDbArc
 50
0.0
 51
90.0
  0
ARC
  5
BE
330
1F
100
AcDbEntity
  8
0
  6
Continuous
 62
     7
370
    25
100
AcDbCircle
 10
-7.6
 20
-1.05
 30
0.0
 40
0.3000000000000034
100
AcDbArc
 50
0.0
 51
90.0
  0
ARC
  5
BF
330
1F
100
AcDbEntity
  8
0
  6
Continuous
 62
     7
370
    25
100
AcDbCircle
 10
0.0
 20
0.0
 30
0.0
 40
4.699999999999359
100
AcDbArc
 50
202.5374595995
 51
210.9783529025
  0
ARC
  5
C0
330
1F
100
AcDbEntity
  8
0
  6
Continuous
 62
     7
370
    25
100
AcDbCircle
 10
0.0
 20
0.0
 30
0.0
 40
4.699999999988567
100
AcDbArc
 50
172.6319085247
 51
174.6030182059
  0
ARC
  5
C1
330
1F
100
AcDbEntity
  8
0
  6
Continuous
 62
     7
370
    25
100
AcDbCircle
 10
-4.897
 20
-0.738
 30
0.0
 40
1.200000000000003
100
AcDbArc
 50
79.5411349128
 51
297.5993428925
  0
ARC
  5
C2
330
1F
100
AcDbEntity
  8
0
  6
Continuous
 62
     7
370
    25
100
AcDbCircle
 10
-5.13
 20
1.371
 30
0.0
 40
0.8999999999998292
100
AcDbArc
 50
279.7881674056
 51
315.1919899869
  0
ARC
  5
C3
330
1F
100
AcDbEntity
  8
0
  6
Continuous
 62
     7
370
    25
100
AcDbCircle
 10
-9.0
 20
-1.2
 30
0.0
 40
0.2625000000000011
100
AcDbArc
 50
0.0
 51
180.0
  0
ARC
  5
C4
330
1F
100
AcDbEntity
  8
0
  6
Continuous
 62
     7
370
    25
100
AcDbCircle
 10
-9.0
 20
-1.2
 30
0.0
 40
0.2625000000000011
100
AcDbArc
 50
180.0
 51
0.0
  0
ARC
  5
C5
330
1F
100
AcDbEntity
  8
0
  6
Continuous
 62
     7
370
    25
100
AcDbCircle
 10
2.699
 20
6.292
 30
0.0
 40
5.800000000000007
100
AcDbArc
 50
213.3880758679
 51
270.5053161065
  0
ENDSEC
  0
SECTION
  2
OBJECTS
  0
DICTIONARY
  5
C
330
0
100
AcDbDictionary
281
     1
  3
ACAD_GROUP
350
D
  3
ACAD_LAYOUT
350
1A
  3
ACAD_MLINESTYLE
350
17
  3
ACAD_PLOTSETTINGS
350
19
  3
ACAD_PLOTSTYLENAME
350
E
  3
ACAD_SCALELIST
350
47
  3
DWGPROPS
350
C6
  0
DICTIONARY
  5
D
102
{ACAD_REACTORS
330
C
102
}
330
C
100
AcDbDictionary
281
     1
  0
DICTIONARY
  5
1A
102
{ACAD_REACTORS
330
C
102
}
330
C
100
AcDbDictionary
281
     1
  3
Layout1
350
1E
  3
Layout2
350
26
  3
Model
350
22
  0
DICTIONARY
  5
17
102
{ACAD_REACTORS
330
C
102
}
330
C
100
AcDbDictionary
281
     1
  3
Standard
350
18
  0
DICTIONARY
  5
19
102
{ACAD_REACTORS
330
C
102
}
330
C
100
AcDbDictionary
281
     1
  0
ACDBDICTIONARYWDFLT
  5
E
102
{ACAD_REACTORS
330
C
102
}
330
C
100
AcDbDictionary
281
     1
  3
Normal
350
F
100
AcDbDictionaryWithDefault
340
F
  0
DICTIONARY
  5
47
102
{ACAD_REACTORS
330
C
102
}
330
C
100
AcDbDictionary
281
     1
  3
A0
350
48
  3
A1
350
49
  3
A2
350
4A
  3
A3
350
4B
  3
A4
350
4C
  3
A5
350
4D
  3
A6
350
4E
  3
A7
350
4F
  3
A8
350
50
  3
A9
350
51
  3
B0
350
52
  3
B1
350
53
  3
B2
350
54
  3
B3
350
55
  3
B4
350
56
  3
B5
350
57
  3
B6
350
58
  0
XRECORD
  5
C6
102
{ACAD_REACTORS
330
C
102
}
330
C
100
AcDbXrecord
280
     1
  1
DWGPROPS COOKIE
  2

  3

  4

  6

  7

  8
Serj
  9

300
=
301
=
302
=
303
=
304
=
305
=
306
=
307
=
308
=
309
=
 40
0.0
 41
2461111.583115556
 42
2461111.583183044
  1

 90
        0
  0
LAYOUT
  5
1E
102
{ACAD_REACTORS
330
1A
102
}
330
1A
100
AcDbPlotSettings
  1

  2
none_device
  4

  6

 40
0.0
 41
0.0
 42
0.0
 43
0.0
 44
0.0
 45
0.0
 46
0.0
 47
0.0
 48
0.0
 49
0.0
140
0.0
141
0.0
142
1.0
143
1.0
 70
   688
 72
     1
 73
     0
 74
     5
  7

 75
    16
147
1.0
148
0.0
149
0.0
100
AcDbLayout
  1
Layout1
 70
     1
 71
     1
 10
0.0
 20
0.0
 11
420.0
 21
297.0
 12
0.0
 22
0.0
 32
0.0
 14
1.0000000000E+20
 24
1.0000000000E+20
 34
1.0000000000E+20
 15
-1.0000000000E+20
 25
-1.0000000000E+20
 35
-1.0000000000E+20
146
0.0
 13
0.0
 23
0.0
 33
0.0
 16
1.0
 26
0.0
 36
0.0
 17
0.0
 27
1.0
 37
0.0
 76
     0
330
1B
  0
LAYOUT
  5
26
102
{ACAD_REACTORS
330
1A
102
}
330
1A
100
AcDbPlotSettings
  1

  2
none_device
  4

  6

 40
0.0
 41
0.0
 42
0.0
 43
0.0
 44
0.0
 45
0.0
 46
0.0
 47
0.0
 48
0.0
 49
0.0
140
0.0
141
0.0
142
1.0
143
1.0
 70
   688
 72
     1
 73
     0
 74
     5
  7

 75
    16
147
1.0
148
0.0
149
0.0
100
AcDbLayout
  1
Layout2
 70
     1
 71
     2
 10
0.0
 20
0.0
 11
0.0
 21
0.0
 12
0.0
 22
0.0
 32
0.0
 14
0.0
 24
0.0
 34
0.0
 15
0.0
 25
0.0
 35
0.0
146
0.0
 13
0.0
 23
0.0
 33
0.0
 16
1.0
 26
0.0
 36
0.0
 17
0.0
 27
1.0
 37
0.0
 76
     0
330
23
  0
LAYOUT
  5
22
102
{ACAD_REACTORS
330
1A
102
}
330
1A
100
AcDbPlotSettings
  1

  2
none_device
  4
ANSI_A_(11.00_x_8.50_Inches)
  6

 40
6.35
 41
19.05
 42
6.35000508
 43
19.05000254
 44
279.4
 45
215.9
 46
147.8721888006
 47
139.2024847005
 48
0.0
 49
0.0
140
0.0
141
0.0
142
0.4719011621
143
1.0
 70
  1696
 72
     0
 73
     0
 74
     0
  7

 75
     0
147
0.0179189148
148
-1300.4909072572
149
0.0
100
AcDbLayout
  1
Model
 70
     1
 71
     0
 10
0.0
 20
0.0
 11
420.0
 21
297.0
 12
0.0
 22
0.0
 32
0.0
 14
-12.75
 24
-11.5999128004
 34
0.0
 15
10.3268662487
 25
3.2065754128
 35
0.0
146
0.0
 13
0.0
 23
0.0
 33
0.0
 16
1.0
 26
0.0
 36
0.0
 17
0.0
 27
1.0
 37
0.0
 76
     0
330
1F
331
29
  0
MLINESTYLE
  5
18
102
{ACAD_REACTORS
330
17
102
}
330
17
100
AcDbMlineStyle
  2
Standard
 70
     0
  3

 62
   256
 51
90.0
 52
90.0
 71
     2
 49
0.5
 62
   256
  6
BYLAYER
 49
-0.5
 62
   256
  6
BYLAYER
  0
ACDBPLACEHOLDER
  5
F
102
{ACAD_REACTORS
330
E
102
}
330
E
  0
SCALE
  5
48
102
{ACAD_REACTORS
330
47
102
}
330
47
100
AcDbScale
 70
     0
300
1:1
140
1.0
141
1.0
290
     1
  0
SCALE
  5
49
102
{ACAD_REACTORS
330
47
102
}
330
47
100
AcDbScale
 70
     0
300
1:2
140
1.0
141
2.0
290
     0
  0
SCALE
  5
4A
102
{ACAD_REACTORS
330
47
102
}
330
47
100
AcDbScale
 70
     0
300
1:4
140
1.0
141
4.0
290
     0
  0
SCALE
  5
4B
102
{ACAD_REACTORS
330
47
102
}
330
47
100
AcDbScale
 70
     0
300
1:5
140
1.0
141
5.0
290
     0
  0
SCALE
  5
4C
102
{ACAD_REACTORS
330
47
102
}
330
47
100
AcDbScale
 70
     0
300
1:8
140
1.0
141
8.0
290
     0
  0
SCALE
  5
4D
102
{ACAD_REACTORS
330
47
102
}
330
47
100
AcDbScale
 70
     0
300
1:10
140
1.0
141
10.0
290
     0
  0
SCALE
  5
4E
102
{ACAD_REACTORS
330
47
102
}
330
47
100
AcDbScale
 70
     0
300
1:16
140
1.0
141
16.0
290
     0
  0
SCALE
  5
4F
102
{ACAD_REACTORS
330
47
102
}
330
47
100
AcDbScale
 70
     0
300
1:20
140
1.0
141
20.0
290
     0
  0
SCALE
  5
50
102
{ACAD_REACTORS
330
47
102
}
330
47
100
AcDbScale
 70
     0
300
1:30
140
1.0
141
30.0
290
     0
  0
SCALE
  5
51
102
{ACAD_REACTORS
330
47
102
}
330
47
100
AcDbScale
 70
     0
300
1:40
140
1.0
141
40.0
290
     0
  0
SCALE
  5
52
102
{ACAD_REACTORS
330
47
102
}
330
47
100
AcDbScale
 70
     0
300
1:50
140
1.0
141
50.0
290
     0
  0
SCALE
  5
53
102
{ACAD_REACTORS
330
47
102
}
330
47
100
AcDbScale
 70
     0
300
1:100
140
1.0
141
100.0
290
     0
  0
SCALE
  5
54
102
{ACAD_REACTORS
330
47
102
}
330
47
100
AcDbScale
 70
     0
300
2:1
140
2.0
141
1.0
290
     0
  0
SCALE
  5
55
102
{ACAD_REACTORS
330
47
102
}
330
47
100
AcDbScale
 70
     0
300
4:1
140
4.0
141
1.0
290
     0
  0
SCALE
  5
56
102
{ACAD_REACTORS
330
47
102
}
330
47
100
AcDbScale
 70
     0
300
8:1
140
8.0
141
1.0
290
     0
  0
SCALE
  5
57
102
{ACAD_REACTORS
330
47
102
}
330
47
100
AcDbScale
 70
     0
300
10:1
140
10.0
141
1.0
290
     0
  0
SCALE
  5
58
102
{ACAD_REACTORS
330
47
102
}
330
47
100
AcDbScale
 70
     0
300
100:1
140
100.0
141
1.0
290
     0
  0
ENDSEC
  0
EOF
