ISO-10303-21;
HEADER;
FILE_DESCRIPTION (( 'STEP AP214' ),
    '1' );
FILE_NAME ('z1.STEP',
    '2026-01-21T22:11:10',
    ( '' ),
    ( '' ),
    'SwSTEP 2.0',
    'SolidWorks 2024',
    '' );
FILE_SCHEMA (( 'AUTOMOTIVE_DESIGN' ));
ENDSEC;

DATA;
#1 = ORIENTED_EDGE ( 'NONE', *, *, #422, .F. ) ;
#2 = CARTESIAN_POINT ( 'NONE',  ( -28.08799734748012966, -3.776923076923073719, 2.000000000000000000 ) ) ;
#3 = EDGE_CURVE ( 'NONE', #781, #301, #410, .T. ) ;
#4 = VERTEX_POINT ( 'NONE', #495 ) ;
#5 = CARTESIAN_POINT ( 'NONE',  ( 62.41080028239893807, 10.68708073385019830, 5.000000000000000000 ) ) ;
#6 = VERTEX_POINT ( 'NONE', #751 ) ;
#7 = DIRECTION ( 'NONE',  ( 0.000000000000000000, 0.000000000000000000, 1.000000000000000000 ) ) ;
#8 = LINE ( 'NONE', #625, #564 ) ;
#9 = CIRCLE ( 'NONE', #80, 2.699999999999985523 ) ;
#10 = LINE ( 'NONE', #844, #78 ) ;
#11 = AXIS2_PLACEMENT_3D ( 'NONE', #206, #679, #761 ) ;
#12 = ADVANCED_FACE ( 'NONE', ( #762 ), #568, .F. ) ;
#13 = ORIENTED_EDGE ( 'NONE', *, *, #826, .T. ) ;
#14 = DIRECTION ( 'NONE',  ( 0.9999999992967484319, 3.750337688615643528E-05, 0.000000000000000000 ) ) ;
#15 = LINE ( 'NONE', #556, #95 ) ;
#16 = CARTESIAN_POINT ( 'NONE',  ( 20.82500441292883764, 15.72307579550376033, 2.000000000000000000 ) ) ;
#17 = EDGE_CURVE ( 'NONE', #709, #501, #143, .T. ) ;
#18 = CARTESIAN_POINT ( 'NONE',  ( 7.212002652519870161, -3.776923076923073719, -1.734723475976807883E-15 ) ) ;
#19 = VERTEX_POINT ( 'NONE', #772 ) ;
#20 = FACE_OUTER_BOUND ( 'NONE', #223, .T. ) ;
#21 = CARTESIAN_POINT ( 'NONE',  ( 81.41200265251985968, 29.72307692307692051, 5.000000000000000000 ) ) ;
#22 = ORIENTED_EDGE ( 'NONE', *, *, #273, .F. ) ;
#23 = CARTESIAN_POINT ( 'NONE',  ( 57.19978530192258859, -23.27692307702308128, 2.000000000000000000 ) ) ;
#24 = ORIENTED_EDGE ( 'NONE', *, *, #601, .F. ) ;
#25 = PLANE ( 'NONE',  #388 ) ;
#26 = LINE ( 'NONE', #279, #793 ) ;
#27 = VECTOR ( 'NONE', #865, 1000.000000000000000 ) ;
#28 = VECTOR ( 'NONE', #799, 1000.000000000000000 ) ;
#29 = VECTOR ( 'NONE', #628, 1000.000000000000114 ) ;
#30 = EDGE_CURVE ( 'NONE', #705, #197, #26, .T. ) ;
#31 = FACE_BOUND ( 'NONE', #513, .T. ) ;
#32 = LINE ( 'NONE', #41, #489 ) ;
#33 = ORIENTED_EDGE ( 'NONE', *, *, #290, .T. ) ;
#34 = LINE ( 'NONE', #720, #63 ) ;
#35 = EDGE_CURVE ( 'NONE', #583, #294, #10, .T. ) ;
#36 = DIRECTION ( 'NONE',  ( -0.000000000000000000, -0.000000000000000000, 1.000000000000000000 ) ) ;
#37 = ORIENTED_EDGE ( 'NONE', *, *, #191, .T. ) ;
#38 = DIRECTION ( 'NONE',  ( -0.000000000000000000, -0.000000000000000000, -1.000000000000000000 ) ) ;
#39 = AXIS2_PLACEMENT_3D ( 'NONE', #390, #594, #802 ) ;
#40 = LINE ( 'NONE', #375, #349 ) ;
#41 = CARTESIAN_POINT ( 'NONE',  ( 20.82500441292884474, -23.27692307692307949, 2.000000000000000000 ) ) ;
#42 = ADVANCED_FACE ( 'NONE', ( #547 ), #93, .F. ) ;
#43 = ORIENTED_EDGE ( 'NONE', *, *, #541, .T. ) ;
#44 = LINE ( 'NONE', #645, #763 ) ;
#45 = DIRECTION ( 'NONE',  ( -1.000000000000000000, 0.000000000000000000, 0.000000000000000000 ) ) ;
#46 = VERTEX_POINT ( 'NONE', #487 ) ;
#47 = CARTESIAN_POINT ( 'NONE',  ( -28.08799734748012966, -3.776923076923073719, -1.734723475976807883E-15 ) ) ;
#48 = CARTESIAN_POINT ( 'NONE',  ( 83.41200265251985968, 29.72307692307692051, 5.000000000000000000 ) ) ;
#49 = AXIS2_PLACEMENT_3D ( 'NONE', #664, #326, #595 ) ;
#50 = VECTOR ( 'NONE', #795, 1000.000000000000000 ) ;
#51 = EDGE_LOOP ( 'NONE', ( #321, #484, #528, #54 ) ) ;
#52 = DIRECTION ( 'NONE',  ( 0.000000000000000000, 0.000000000000000000, 1.000000000000000000 ) ) ;
#53 = ORIENTED_EDGE ( 'NONE', *, *, #416, .F. ) ;
#54 = ORIENTED_EDGE ( 'NONE', *, *, #876, .T. ) ;
#55 = DIRECTION ( 'NONE',  ( -1.000000000000000000, 0.000000000000000000, 0.000000000000000000 ) ) ;
#56 = CARTESIAN_POINT ( 'NONE',  ( 83.41200265251985968, 29.72307692307692051, 0.000000000000000000 ) ) ;
#57 = EDGE_CURVE ( 'NONE', #544, #75, #561, .T. ) ;
#58 = ORIENTED_EDGE ( 'NONE', *, *, #447, .T. ) ;
#59 = SURFACE_SIDE_STYLE ('',( #62 ) ) ;
#60 = CARTESIAN_POINT ( 'NONE',  ( -99.58799734748014032, 29.72307692307692051, 5.000000000000000000 ) ) ;
#61 = EDGE_CURVE ( 'NONE', #182, #781, #685, .T. ) ;
#62 = SURFACE_STYLE_FILL_AREA ( #736 ) ;
#63 = VECTOR ( 'NONE', #863, 1000.000000000000000 ) ;
#64 = CARTESIAN_POINT ( 'NONE',  ( 80.41199921542008155, 10.68775583959866182, 2.000000000000000000 ) ) ;
#65 = VECTOR ( 'NONE', #610, 1000.000000000000000 ) ;
#66 = ORIENTED_EDGE ( 'NONE', *, *, #401, .F. ) ;
#67 = EDGE_CURVE ( 'NONE', #671, #638, #154, .T. ) ;
#68 = CARTESIAN_POINT ( 'NONE',  ( -97.58799734748014032, 31.72307692307692406, 5.000000000000000000 ) ) ;
#69 = ORIENTED_EDGE ( 'NONE', *, *, #158, .F. ) ;
#70 = DIRECTION ( 'NONE',  ( 3.750337688548675071E-05, -0.9999999992967483209, 0.000000000000000000 ) ) ;
#71 = EDGE_LOOP ( 'NONE', ( #687, #355 ) ) ;
#72 = DIRECTION ( 'NONE',  ( -1.000000000000000000, 0.000000000000000000, 0.000000000000000000 ) ) ;
#73 = ORIENTED_EDGE ( 'NONE', *, *, #438, .F. ) ;
#74 = DIRECTION ( 'NONE',  ( 1.000000000000000000, 0.000000000000000000, 0.000000000000000000 ) ) ;
#75 = VERTEX_POINT ( 'NONE', #362 ) ;
#76 = ORIENTED_EDGE ( 'NONE', *, *, #609, .F. ) ;
#77 = DIRECTION ( 'NONE',  ( 0.000000000000000000, 0.000000000000000000, 1.000000000000000000 ) ) ;
#78 = VECTOR ( 'NONE', #211, 1000.000000000000000 ) ;
#79 = DIRECTION ( 'NONE',  ( 1.000000000000000000, -0.000000000000000000, -0.000000000000000000 ) ) ;
#80 = AXIS2_PLACEMENT_3D ( 'NONE', #879, #126, #135 ) ;
#81 = EDGE_CURVE ( 'NONE', #788, #112, #829, .T. ) ;
#82 = DIRECTION ( 'NONE',  ( 0.9999999992967483209, 3.750337688624503493E-05, 0.000000000000000000 ) ) ;
#83 = EDGE_LOOP ( 'NONE', ( #652, #565, #814, #451 ) ) ;
#84 = DIRECTION ( 'NONE',  ( -3.750337688615642851E-05, 0.9999999992967483209, 0.000000000000000000 ) ) ;
#85 = EDGE_LOOP ( 'NONE', ( #53, #744, #308, #76 ) ) ;
#86 = CARTESIAN_POINT ( 'NONE',  ( 57.19978530192257438, 15.72307579550376744, 2.000000000000000000 ) ) ;
#87 = LINE ( 'NONE', #626, #360 ) ;
#88 = EDGE_LOOP ( 'NONE', ( #58, #92, #752, #414 ) ) ;
#89 = DIRECTION ( 'NONE',  ( 0.000000000000000000, 0.000000000000000000, -1.000000000000000000 ) ) ;
#90 = FACE_OUTER_BOUND ( 'NONE', #276, .T. ) ;
#91 = CARTESIAN_POINT ( 'NONE',  ( 57.19978530192257438, 15.72307579550376744, 5.000000000000000000 ) ) ;
#92 = ORIENTED_EDGE ( 'NONE', *, *, #575, .F. ) ;
#93 = PLANE ( 'NONE',  #807 ) ;
#94 = VECTOR ( 'NONE', #523, 1000.000000000000000 ) ;
#95 = VECTOR ( 'NONE', #340, 1000.000000000000000 ) ;
#96 = ORIENTED_EDGE ( 'NONE', *, *, #447, .F. ) ;
#97 = EDGE_CURVE ( 'NONE', #411, #705, #87, .T. ) ;
#98 = ORIENTED_EDGE ( 'NONE', *, *, #683, .T. ) ;
#99 = LINE ( 'NONE', #503, #780 ) ;
#100 = DIRECTION ( 'NONE',  ( -0.000000000000000000, 1.000000000000000000, -0.000000000000000000 ) ) ;
#101 =( LENGTH_UNIT ( ) NAMED_UNIT ( * ) SI_UNIT ( .MILLI., .METRE. ) );
#102 = ORIENTED_EDGE ( 'NONE', *, *, #805, .T. ) ;
#103 = CARTESIAN_POINT ( 'NONE',  ( 20.82500441292884474, -23.27692307692307949, 2.000000000000000000 ) ) ;
#104 = ADVANCED_FACE ( 'NONE', ( #697 ), #157, .T. ) ;
#105 = DIRECTION ( 'NONE',  ( -0.000000000000000000, -0.000000000000000000, -1.000000000000000000 ) ) ;
#106 = CARTESIAN_POINT ( 'NONE',  ( -96.58800094821914684, 10.72300095551155508, 5.000000000000000000 ) ) ;
#107 = CARTESIAN_POINT ( 'NONE',  ( 81.41200265251985968, -37.27692307692306883, 5.000000000000000000 ) ) ;
#108 = EDGE_CURVE ( 'NONE', #841, #118, #839, .T. ) ;
#109 = AXIS2_PLACEMENT_3D ( 'NONE', #620, #7, #281 ) ;
#110 = VECTOR ( 'NONE', #288, 1000.000000000000000 ) ;
#111 = VECTOR ( 'NONE', #706, 1000.000000000000000 ) ;
#112 = VERTEX_POINT ( 'NONE', #299 ) ;
#113 = FACE_OUTER_BOUND ( 'NONE', #448, .T. ) ;
#114 = ORIENTED_EDGE ( 'NONE', *, *, #318, .F. ) ;
#115 = LINE ( 'NONE', #581, #94 ) ;
#116 = ORIENTED_EDGE ( 'NONE', *, *, #518, .T. ) ;
#117 = DIRECTION ( 'NONE',  ( -0.9999999999973702147, -2.293428648603675811E-06, 0.000000000000000000 ) ) ;
#118 = VERTEX_POINT ( 'NONE', #230 ) ;
#119 = AXIS2_PLACEMENT_3D ( 'NONE', #107, #105, #45 ) ;
#120 = CONICAL_SURFACE ( 'NONE', #577, 4.699999999999999289, 0.7853981633974512766 ) ;
#121 = ORIENTED_EDGE ( 'NONE', *, *, #17, .F. ) ;
#122 = EDGE_CURVE ( 'NONE', #618, #294, #701, .T. ) ;
#123 = CARTESIAN_POINT ( 'NONE',  ( -97.58799734748014032, 31.72307692307692406, 5.000000000000000000 ) ) ;
#124 = DIRECTION ( 'NONE',  ( 0.000000000000000000, 0.000000000000000000, -1.000000000000000000 ) ) ;
#125 = PRESENTATION_STYLE_ASSIGNMENT (( #128 ) ) ;
#126 = DIRECTION ( 'NONE',  ( 0.000000000000000000, 0.000000000000000000, -1.000000000000000000 ) ) ;
#127 = ORIENTED_EDGE ( 'NONE', *, *, #639, .F. ) ;
#128 = SURFACE_STYLE_USAGE ( .BOTH. , #59 ) ;
#129 = LINE ( 'NONE', #656, #254 ) ;
#130 = EDGE_CURVE ( 'NONE', #690, #593, #507, .T. ) ;
#131 = AXIS2_PLACEMENT_3D ( 'NONE', #338, #77, #152 ) ;
#132 = CARTESIAN_POINT ( 'NONE',  ( -96.58800094821914684, 10.72300095551155508, 2.000000000000000000 ) ) ;
#133 = AXIS2_PLACEMENT_3D ( 'NONE', #586, #860, #791 ) ;
#134 = STYLED_ITEM ( 'NONE', ( #125 ), #753 ) ;
#135 = DIRECTION ( 'NONE',  ( -1.000000000000000000, 0.000000000000000000, 0.000000000000000000 ) ) ;
#136 = VERTEX_POINT ( 'NONE', #167 ) ;
#137 = DIRECTION ( 'NONE',  ( -1.000000000000000000, 0.000000000000000000, 0.000000000000000000 ) ) ;
#138 = VERTEX_POINT ( 'NONE', #379 ) ;
#139 = FACE_OUTER_BOUND ( 'NONE', #83, .T. ) ;
#140 = CARTESIAN_POINT ( 'NONE',  ( -99.58799734748014032, 29.72307692307692051, 0.000000000000000000 ) ) ;
#141 = DIRECTION ( 'NONE',  ( 0.9999999992967483209, 3.750337688620764351E-05, 0.000000000000000000 ) ) ;
#142 = LINE ( 'NONE', #612, #808 ) ;
#143 = LINE ( 'NONE', #757, #648 ) ;
#144 = CARTESIAN_POINT ( 'NONE',  ( 81.41200265251985968, 29.72307692307692051, 5.000000000000000000 ) ) ;
#145 = EDGE_CURVE ( 'NONE', #614, #862, #864, .T. ) ;
#146 = CARTESIAN_POINT ( 'NONE',  ( -96.58800094821914684, 10.72300095551155508, 2.000000000000000000 ) ) ;
#147 = CIRCLE ( 'NONE', #858, 2.000000000000001776 ) ;
#148 = UNCERTAINTY_MEASURE_WITH_UNIT (LENGTH_MEASURE( 1.000000000000000082E-05 ), #101, 'distance_accuracy_value', 'NONE');
#149 = DIRECTION ( 'NONE',  ( -0.000000000000000000, -1.000000000000000000, -0.000000000000000000 ) ) ;
#150 =( GEOMETRIC_REPRESENTATION_CONTEXT ( 3 ) GLOBAL_UNCERTAINTY_ASSIGNED_CONTEXT ( ( #148 ) ) GLOBAL_UNIT_ASSIGNED_CONTEXT ( ( #101, #775, #364 ) ) REPRESENTATION_CONTEXT ( 'NONE', 'WORKASPACE' ) );
#151 = ORIENTED_EDGE ( 'NONE', *, *, #463, .T. ) ;
#152 = DIRECTION ( 'NONE',  ( 1.000000000000000000, 0.000000000000000000, 0.000000000000000000 ) ) ;
#153 = CARTESIAN_POINT ( 'NONE',  ( 83.41200265251985968, -37.27692307692306883, 5.000000000000000000 ) ) ;
#154 = LINE ( 'NONE', #553, #238 ) ;
#155 = ORIENTED_EDGE ( 'NONE', *, *, #213, .F. ) ;
#156 = FACE_BOUND ( 'NONE', #71, .T. ) ;
#157 = CYLINDRICAL_SURFACE ( 'NONE', #174, 2.000000000000001776 ) ;
#158 = EDGE_CURVE ( 'NONE', #746, #400, #315, .T. ) ;
#159 = ORIENTED_EDGE ( 'NONE', *, *, #81, .F. ) ;
#160 = PLANE ( 'NONE',  #430 ) ;
#161 = LINE ( 'NONE', #307, #857 ) ;
#162 = VECTOR ( 'NONE', #478, 1000.000000000000000 ) ;
#163 = CIRCLE ( 'NONE', #535, 4.699999999999999289 ) ;
#164 = ADVANCED_FACE ( 'NONE', ( #504 ), #303, .T. ) ;
#165 = ORIENTED_EDGE ( 'NONE', *, *, #356, .T. ) ;
#166 = CARTESIAN_POINT ( 'NONE',  ( 81.41200265251985968, 29.72307692307692051, 0.000000000000000000 ) ) ;
#167 = CARTESIAN_POINT ( 'NONE',  ( 62.41207404723531482, -23.27692307702308128, 2.000000000000000000 ) ) ;
#168 = ORIENTED_EDGE ( 'NONE', *, *, #240, .T. ) ;
#169 = ADVANCED_FACE ( 'NONE', ( #712 ), #654, .T. ) ;
#170 = CARTESIAN_POINT ( 'NONE',  ( -97.58799734748012611, -39.27692307692307594, 5.000000000000000000 ) ) ;
#171 = ORIENTED_EDGE ( 'NONE', *, *, #262, .F. ) ;
#172 = DIRECTION ( 'NONE',  ( 1.000000000000000000, 1.046980590946524393E-16, -0.000000000000000000 ) ) ;
#173 = DIRECTION ( 'NONE',  ( 1.000000000000000000, 0.000000000000000000, 0.000000000000000000 ) ) ;
#174 = AXIS2_PLACEMENT_3D ( 'NONE', #21, #405, #293 ) ;
#175 = VECTOR ( 'NONE', #425, 1000.000000000000000 ) ;
#176 = CARTESIAN_POINT ( 'NONE',  ( 14.61200265251985542, -3.776923076923073275, 2.000000000000000000 ) ) ;
#177 = FACE_OUTER_BOUND ( 'NONE', #51, .T. ) ;
#178 = EDGE_CURVE ( 'NONE', #197, #739, #515, .T. ) ;
#179 = EDGE_LOOP ( 'NONE', ( #675, #699, #421, #186 ) ) ;
#180 = DIRECTION ( 'NONE',  ( -1.000000000000000000, 0.000000000000000000, 0.000000000000000000 ) ) ;
#181 = DIRECTION ( 'NONE',  ( 1.000000000000000000, 0.000000000000000000, 0.000000000000000000 ) ) ;
#182 = VERTEX_POINT ( 'NONE', #314 ) ;
#183 = ADVANCED_FACE ( 'NONE', ( #113 ), #646, .F. ) ;
#184 = LINE ( 'NONE', #598, #28 ) ;
#185 = CARTESIAN_POINT ( 'NONE',  ( -97.58799734748014032, 31.72307692307692406, 0.000000000000000000 ) ) ;
#186 = ORIENTED_EDGE ( 'NONE', *, *, #698, .T. ) ;
#187 = VECTOR ( 'NONE', #359, 1000.000000000000000 ) ;
#188 = AXIS2_PLACEMENT_3D ( 'NONE', #166, #790, #585 ) ;
#189 = VERTEX_POINT ( 'NONE', #310 ) ;
#190 = DIRECTION ( 'NONE',  ( 1.000000000000000000, 1.046980590946524393E-16, -0.000000000000000000 ) ) ;
#191 = EDGE_CURVE ( 'NONE', #739, #671, #115, .T. ) ;
#192 = DIRECTION ( 'NONE',  ( 0.000000000000000000, 0.000000000000000000, 1.000000000000000000 ) ) ;
#193 = EDGE_LOOP ( 'NONE', ( #482, #677, #792, #102 ) ) ;
#194 =( NAMED_UNIT ( * ) PLANE_ANGLE_UNIT ( ) SI_UNIT ( $, .RADIAN. ) );
#195 = ADVANCED_FACE ( 'NONE', ( #177 ), #571, .T. ) ;
#196 = CARTESIAN_POINT ( 'NONE',  ( 81.41200265251985968, 29.72307692307692051, 5.000000000000000000 ) ) ;
#197 = VERTEX_POINT ( 'NONE', #787 ) ;
#198 = CARTESIAN_POINT ( 'NONE',  ( 80.41199757582123198, 28.72307692307691696, 2.000000000000000000 ) ) ;
#199 = EDGE_LOOP ( 'NONE', ( #502, #333, #764, #151, #98, #168, #785, #530 ) ) ;
#200 = LINE ( 'NONE', #603, #548 ) ;
#201 = VERTEX_POINT ( 'NONE', #170 ) ;
#202 = DIRECTION ( 'NONE',  ( -1.779203616544987819E-16, 1.000000000000000000, 0.000000000000000000 ) ) ;
#203 = VECTOR ( 'NONE', #591, 1000.000000000000000 ) ;
#204 = PRODUCT ( 'z1', 'z1', '', ( #703 ) ) ;
#205 = CIRCLE ( 'NONE', #491, 2.699999999999987299 ) ;
#206 = CARTESIAN_POINT ( 'NONE',  ( 57.19978530192257438, 15.72307579550376744, 2.000000000000000000 ) ) ;
#207 = DIRECTION ( 'NONE',  ( -0.000000000000000000, 0.000000000000000000, -1.000000000000000000 ) ) ;
#208 = EDGE_LOOP ( 'NONE', ( #727, #798, #296, #406 ) ) ;
#209 = LINE ( 'NONE', #23, #721 ) ;
#210 = CARTESIAN_POINT ( 'NONE',  ( -78.58792593042323915, -23.27692307692309015, 2.000000000000000000 ) ) ;
#211 = DIRECTION ( 'NONE',  ( -0.000000000000000000, -0.000000000000000000, -1.000000000000000000 ) ) ;
#212 = ORIENTED_EDGE ( 'NONE', *, *, #408, .F. ) ;
#213 = EDGE_CURVE ( 'NONE', #182, #662, #32, .T. ) ;
#214 = DIRECTION ( 'NONE',  ( 1.907611189489472574E-16, -1.000000000000000000, 0.000000000000000000 ) ) ;
#215 = CARTESIAN_POINT ( 'NONE',  ( 81.41200265251985968, 31.72307692307691696, 5.000000000000000000 ) ) ;
#216 = DIRECTION ( 'NONE',  ( 1.000000000000000000, 0.000000000000000000, -0.000000000000000000 ) ) ;
#217 = ORIENTED_EDGE ( 'NONE', *, *, #473, .T. ) ;
#218 = DIRECTION ( 'NONE',  ( 1.000000000000000000, -3.876477041288954935E-17, 0.000000000000000000 ) ) ;
#219 = VECTOR ( 'NONE', #481, 1000.000000000000000 ) ;
#220 = ADVANCED_FACE ( 'NONE', ( #441 ), #849, .F. ) ;
#221 = DIRECTION ( 'NONE',  ( -1.000000000000000000, 0.000000000000000000, 0.000000000000000000 ) ) ;
#222 = VECTOR ( 'NONE', #264, 1000.000000000000227 ) ;
#223 = EDGE_LOOP ( 'NONE', ( #749, #212, #1, #37 ) ) ;
#224 = AXIS2_PLACEMENT_3D ( 'NONE', #540, #214, #357 ) ;
#225 = ORIENTED_EDGE ( 'NONE', *, *, #61, .T. ) ;
#226 = DIRECTION ( 'NONE',  ( 1.000000000000000000, 0.000000000000000000, 0.000000000000000000 ) ) ;
#227 = ORIENTED_EDGE ( 'NONE', *, *, #122, .T. ) ;
#228 = CARTESIAN_POINT ( 'NONE',  ( -28.08799734748012966, -3.776923076923073719, 2.000000000000000000 ) ) ;
#229 = EDGE_CURVE ( 'NONE', #662, #301, #778, .T. ) ;
#230 = CARTESIAN_POINT ( 'NONE',  ( 57.19978530192258859, -23.27692307702308128, 5.000000000000000000 ) ) ;
#231 = EDGE_LOOP ( 'NONE', ( #116, #655, #66, #369 ) ) ;
#232 = CARTESIAN_POINT ( 'NONE',  ( -97.58799734748012611, -39.27692307692307594, 0.000000000000000000 ) ) ;
#233 = DIRECTION ( 'NONE',  ( -1.000000000000000000, 0.000000000000000000, 0.000000000000000000 ) ) ;
#234 = ORIENTED_EDGE ( 'NONE', *, *, #438, .T. ) ;
#235 = EDGE_LOOP ( 'NONE', ( #381, #554, #776, #611 ) ) ;
#236 = CARTESIAN_POINT ( 'NONE',  ( 0.000000000000000000, 0.000000000000000000, 2.000000000000000000 ) ) ;
#237 = DIRECTION ( 'NONE',  ( 0.000000000000000000, -1.000000000000000000, -0.000000000000000000 ) ) ;
#238 = VECTOR ( 'NONE', #149, 1000.000000000000000 ) ;
#239 = MECHANICAL_DESIGN_GEOMETRIC_PRESENTATION_REPRESENTATION (  '', ( #134 ), #747 ) ;
#240 = EDGE_CURVE ( 'NONE', #201, #583, #161, .T. ) ;
#241 = VERTEX_POINT ( 'NONE', #722 ) ;
#242 = LINE ( 'NONE', #313, #298 ) ;
#243 = DIRECTION ( 'NONE',  ( -0.000000000000000000, -0.000000000000000000, -1.000000000000000000 ) ) ;
#244 = PRODUCT_RELATED_PRODUCT_CATEGORY ( 'part', '', ( #204 ) ) ;
#245 = ORIENTED_EDGE ( 'NONE', *, *, #331, .F. ) ;
#246 = DIRECTION ( 'NONE',  ( 1.000000000000000000, 1.907611189489472821E-16, -0.000000000000000000 ) ) ;
#247 = DIRECTION ( 'NONE',  ( -1.779203616544987819E-16, 1.000000000000000000, 0.000000000000000000 ) ) ;
#248 = ORIENTED_EDGE ( 'NONE', *, *, #606, .T. ) ;
#249 = FACE_OUTER_BOUND ( 'NONE', #774, .T. ) ;
#250 = EDGE_CURVE ( 'NONE', #544, #770, #431, .T. ) ;
#251 = CARTESIAN_POINT ( 'NONE',  ( 80.41199757582123198, 28.72307692307691696, 2.000000000000000000 ) ) ;
#252 = CIRCLE ( 'NONE', #131, 2.000000000000015543 ) ;
#253 = ORIENTED_EDGE ( 'NONE', *, *, #352, .F. ) ;
#254 = VECTOR ( 'NONE', #117, 999.9999999999998863 ) ;
#255 = ORIENTED_EDGE ( 'NONE', *, *, #67, .F. ) ;
#256 = DIRECTION ( 'NONE',  ( -0.000000000000000000, -0.000000000000000000, -1.000000000000000000 ) ) ;
#257 = DIRECTION ( 'NONE',  ( -3.750337688615642851E-05, 0.9999999992967483209, 0.000000000000000000 ) ) ;
#258 = ADVANCED_FACE ( 'NONE', ( #367 ), #574, .F. ) ;
#259 = ORIENTED_EDGE ( 'NONE', *, *, #108, .F. ) ;
#260 = DIRECTION ( 'NONE',  ( 3.750337688620765028E-05, -0.9999999992967484319, 0.000000000000000000 ) ) ;
#261 = ORIENTED_EDGE ( 'NONE', *, *, #3, .F. ) ;
#262 = EDGE_CURVE ( 'NONE', #265, #671, #129, .T. ) ;
#263 = VERTEX_POINT ( 'NONE', #733 ) ;
#264 = DIRECTION ( 'NONE',  ( 3.750337688548675071E-05, -0.9999999992967483209, 0.000000000000000000 ) ) ;
#265 = VERTEX_POINT ( 'NONE', #534 ) ;
#266 = VECTOR ( 'NONE', #755, 1000.000000000000114 ) ;
#267 = VECTOR ( 'NONE', #247, 1000.000000000000000 ) ;
#268 = VECTOR ( 'NONE', #287, 1000.000000000000000 ) ;
#269 = ADVANCED_FACE ( 'NONE', ( #669 ), #329, .F. ) ;
#270 = VECTOR ( 'NONE', #424, 1000.000000000000000 ) ;
#271 = FACE_OUTER_BOUND ( 'NONE', #208, .T. ) ;
#272 = ORIENTED_EDGE ( 'NONE', *, *, #122, .F. ) ;
#273 = EDGE_CURVE ( 'NONE', #136, #411, #386, .T. ) ;
#274 = ORIENTED_EDGE ( 'NONE', *, *, #473, .F. ) ;
#275 = LINE ( 'NONE', #48, #376 ) ;
#276 = EDGE_LOOP ( 'NONE', ( #227, #462, #532, #387 ) ) ;
#277 = FACE_OUTER_BOUND ( 'NONE', #280, .T. ) ;
#278 = DIRECTION ( 'NONE',  ( 0.9999999992967483209, 3.750337688624503493E-05, 0.000000000000000000 ) ) ;
#279 = CARTESIAN_POINT ( 'NONE',  ( 80.41199921542008155, 10.68775583959866182, 2.000000000000000000 ) ) ;
#280 = EDGE_LOOP ( 'NONE', ( #723, #783, #622, #43 ) ) ;
#281 = DIRECTION ( 'NONE',  ( 1.000000000000000000, 0.000000000000000000, 0.000000000000000000 ) ) ;
#282 = VECTOR ( 'NONE', #354, 1000.000000000000000 ) ;
#283 = DIRECTION ( 'NONE',  ( -1.000000000000000000, 0.000000000000000000, 0.000000000000000000 ) ) ;
#284 = CARTESIAN_POINT ( 'NONE',  ( 83.41200265251985968, -37.27692307692306883, 5.000000000000000000 ) ) ;
#285 = ADVANCED_FACE ( 'NONE', ( #745 ), #589, .F. ) ;
#286 = VERTEX_POINT ( 'NONE', #56 ) ;
#287 = DIRECTION ( 'NONE',  ( -0.000000000000000000, -0.000000000000000000, -1.000000000000000000 ) ) ;
#288 = DIRECTION ( 'NONE',  ( -0.000000000000000000, -0.000000000000000000, -1.000000000000000000 ) ) ;
#289 = VERTEX_POINT ( 'NONE', #881 ) ;
#290 = EDGE_CURVE ( 'NONE', #770, #286, #275, .T. ) ;
#291 = PLANE ( 'NONE',  #224 ) ;
#292 = DIRECTION ( 'NONE',  ( 0.7071067811865496822, 8.659560562354958743E-17, -0.7071067811865454633 ) ) ;
#293 = DIRECTION ( 'NONE',  ( -1.000000000000000000, 0.000000000000000000, 0.000000000000000000 ) ) ;
#294 = VERTEX_POINT ( 'NONE', #660 ) ;
#295 = EDGE_CURVE ( 'NONE', #4, #542, #543, .T. ) ;
#296 = ORIENTED_EDGE ( 'NONE', *, *, #789, .F. ) ;
#297 = CARTESIAN_POINT ( 'NONE',  ( -97.58799734748012611, -39.27692307692306883, 5.000000000000000000 ) ) ;
#298 = VECTOR ( 'NONE', #786, 1000.000000000000000 ) ;
#299 = CARTESIAN_POINT ( 'NONE',  ( -99.58799734748014032, -37.27692307692306883, 0.000000000000000000 ) ) ;
#300 = CIRCLE ( 'NONE', #880, 2.699999999999987299 ) ;
#301 = VERTEX_POINT ( 'NONE', #527 ) ;
#302 = DIRECTION ( 'NONE',  ( 0.000000000000000000, 0.000000000000000000, -1.000000000000000000 ) ) ;
#303 = CYLINDRICAL_SURFACE ( 'NONE', #779, 2.000000000000001776 ) ;
#304 = ORIENTED_EDGE ( 'NONE', *, *, #250, .F. ) ;
#305 = EDGE_LOOP ( 'NONE', ( #631, #741, #114, #33 ) ) ;
#306 = CARTESIAN_POINT ( 'NONE',  ( 80.41199921542008155, 10.68775583959866182, 2.000000000000000000 ) ) ;
#307 = CARTESIAN_POINT ( 'NONE',  ( -97.58799734748012611, -39.27692307692306883, 5.000000000000000000 ) ) ;
#308 = ORIENTED_EDGE ( 'NONE', *, *, #658, .T. ) ;
#309 = AXIS2_PLACEMENT_3D ( 'NONE', #383, #243, #445 ) ;
#310 = CARTESIAN_POINT ( 'NONE',  ( 16.61200265251986963, -3.776923076923073275, -1.734723475976807883E-15 ) ) ;
#311 = VECTOR ( 'NONE', #172, 1000.000000000000000 ) ;
#312 = EDGE_CURVE ( 'NONE', #411, #501, #800, .T. ) ;
#313 = CARTESIAN_POINT ( 'NONE',  ( 83.41200265251985968, 29.72307692307692051, 0.000000000000000000 ) ) ;
#314 = CARTESIAN_POINT ( 'NONE',  ( 20.82500441292884474, -23.27692307692307949, 2.000000000000000000 ) ) ;
#315 = LINE ( 'NONE', #725, #27 ) ;
#316 = VERTEX_POINT ( 'NONE', #60 ) ;
#317 = ORIENTED_EDGE ( 'NONE', *, *, #635, .F. ) ;
#318 = EDGE_CURVE ( 'NONE', #770, #241, #702, .T. ) ;
#319 = DIRECTION ( 'NONE',  ( -0.9999999999973701037, -2.293428648603675388E-06, 0.000000000000000000 ) ) ;
#320 = CARTESIAN_POINT ( 'NONE',  ( 62.41080028239893807, 10.68708073385019830, 2.000000000000000000 ) ) ;
#321 = ORIENTED_EDGE ( 'NONE', *, *, #818, .T. ) ;
#322 = AXIS2_PLACEMENT_3D ( 'NONE', #196, #52, #608 ) ;
#323 = AXIS2_PLACEMENT_3D ( 'NONE', #809, #192, #465 ) ;
#324 = EDGE_LOOP ( 'NONE', ( #735, #69, #845, #640 ) ) ;
#325 = CARTESIAN_POINT ( 'NONE',  ( 20.82500441292884474, -23.27692307692307949, 5.000000000000000000 ) ) ;
#326 = DIRECTION ( 'NONE',  ( 1.046980590946524270E-16, -1.000000000000000000, 0.000000000000000000 ) ) ;
#327 = EDGE_LOOP ( 'NONE', ( #557, #499 ) ) ;
#328 = PLANE ( 'NONE',  #524 ) ;
#329 = PLANE ( 'NONE',  #856 ) ;
#330 = ORIENTED_EDGE ( 'NONE', *, *, #145, .T. ) ;
#331 = EDGE_CURVE ( 'NONE', #583, #544, #823, .T. ) ;
#332 = PLANE ( 'NONE',  #49 ) ;
#333 = ORIENTED_EDGE ( 'NONE', *, *, #710, .T. ) ;
#334 = PRODUCT_DEFINITION_FORMATION_WITH_SPECIFIED_SOURCE ( 'ANY', '', #204, .NOT_KNOWN. ) ;
#335 = VECTOR ( 'NONE', #782, 1000.000000000000000 ) ;
#336 = VECTOR ( 'NONE', #190, 1000.000000000000000 ) ;
#337 = DIRECTION ( 'NONE',  ( 0.9999999999999958922, 9.091043281086633795E-08, 0.000000000000000000 ) ) ;
#338 = CARTESIAN_POINT ( 'NONE',  ( -97.58799734748012611, -37.27692307692306883, 0.000000000000000000 ) ) ;
#339 = EDGE_LOOP ( 'NONE', ( #657, #719, #816, #821 ) ) ;
#340 = DIRECTION ( 'NONE',  ( 0.000000000000000000, -1.000000000000000000, 0.000000000000000000 ) ) ;
#341 = ORIENTED_EDGE ( 'NONE', *, *, #57, .T. ) ;
#342 = ORIENTED_EDGE ( 'NONE', *, *, #229, .T. ) ;
#343 = FACE_OUTER_BOUND ( 'NONE', #439, .T. ) ;
#344 = ADVANCED_FACE ( 'NONE', ( #391 ), #332, .F. ) ;
#345 = LINE ( 'NONE', #86, #282 ) ;
#346 = VERTEX_POINT ( 'NONE', #871 ) ;
#347 = ORIENTED_EDGE ( 'NONE', *, *, #575, .T. ) ;
#348 = CARTESIAN_POINT ( 'NONE',  ( 20.82500441292883764, 15.72307579550376033, 2.000000000000000000 ) ) ;
#349 = VECTOR ( 'NONE', #246, 1000.000000000000000 ) ;
#350 = DIRECTION ( 'NONE',  ( -0.000000000000000000, -0.000000000000000000, -1.000000000000000000 ) ) ;
#351 = DIRECTION ( 'NONE',  ( -3.750337688615642851E-05, 0.9999999992967483209, 0.000000000000000000 ) ) ;
#352 = EDGE_CURVE ( 'NONE', #138, #265, #200, .T. ) ;
#353 = CARTESIAN_POINT ( 'NONE',  ( 57.19978530192258859, -23.27692307702308128, 2.000000000000000000 ) ) ;
#354 = DIRECTION ( 'NONE',  ( -0.000000000000000000, -0.000000000000000000, 1.000000000000000000 ) ) ;
#355 = ORIENTED_EDGE ( 'NONE', *, *, #440, .F. ) ;
#356 = EDGE_CURVE ( 'NONE', #593, #690, #9, .T. ) ;
#357 = DIRECTION ( 'NONE',  ( 1.000000000000000000, 1.907611189489472574E-16, 0.000000000000000000 ) ) ;
#358 = LINE ( 'NONE', #420, #718 ) ;
#359 = DIRECTION ( 'NONE',  ( 3.558407233080851476E-16, -1.000000000000000000, 0.000000000000000000 ) ) ;
#360 = VECTOR ( 'NONE', #82, 1000.000000000000227 ) ;
#361 = AXIS2_PLACEMENT_3D ( 'NONE', #480, #350, #630 ) ;
#362 = CARTESIAN_POINT ( 'NONE',  ( 83.41200265251985968, -37.27692307692306883, 0.000000000000000000 ) ) ;
#363 = ORIENTED_EDGE ( 'NONE', *, *, #590, .F. ) ;
#364 =( NAMED_UNIT ( * ) SI_UNIT ( $, .STERADIAN. ) SOLID_ANGLE_UNIT ( ) );
#365 = ORIENTED_EDGE ( 'NONE', *, *, #422, .T. ) ;
#366 = CARTESIAN_POINT ( 'NONE',  ( -78.58792593042323915, -23.27692307692309015, 2.000000000000000000 ) ) ;
#367 = FACE_OUTER_BOUND ( 'NONE', #558, .T. ) ;
#368 = EDGE_LOOP ( 'NONE', ( #423, #427, #304, #341 ) ) ;
#369 = ORIENTED_EDGE ( 'NONE', *, *, #158, .T. ) ;
#370 = DIRECTION ( 'NONE',  ( -0.000000000000000000, -0.000000000000000000, 1.000000000000000000 ) ) ;
#371 = ADVANCED_FACE ( 'NONE', ( #271 ), #875, .F. ) ;
#372 = DIRECTION ( 'NONE',  ( -0.9999999999973702147, -2.293428648603675811E-06, 0.000000000000000000 ) ) ;
#373 = ORIENTED_EDGE ( 'NONE', *, *, #30, .F. ) ;
#374 = VECTOR ( 'NONE', #141, 1000.000000000000114 ) ;
#375 = CARTESIAN_POINT ( 'NONE',  ( 57.19978530192257438, 15.72307579550376744, 2.000000000000000000 ) ) ;
#376 = VECTOR ( 'NONE', #453, 1000.000000000000000 ) ;
#377 = CARTESIAN_POINT ( 'NONE',  ( 20.82500441292884474, -23.27692307692307949, 5.000000000000000000 ) ) ;
#378 = LINE ( 'NONE', #653, #175 ) ;
#379 = CARTESIAN_POINT ( 'NONE',  ( 80.41199921542008155, 10.68775583959866182, 5.000000000000000000 ) ) ;
#380 = EDGE_CURVE ( 'NONE', #19, #418, #538, .T. ) ;
#381 = ORIENTED_EDGE ( 'NONE', *, *, #295, .F. ) ;
#382 = LINE ( 'NONE', #123, #50 ) ;
#383 = CARTESIAN_POINT ( 'NONE',  ( -97.58799734748012611, -37.27692307692306883, 5.000000000000000000 ) ) ;
#384 = ORIENTED_EDGE ( 'NONE', *, *, #178, .T. ) ;
#385 = DIRECTION ( 'NONE',  ( -0.000000000000000000, -0.000000000000000000, -1.000000000000000000 ) ) ;
#386 = LINE ( 'NONE', #666, #459 ) ;
#387 = ORIENTED_EDGE ( 'NONE', *, *, #407, .T. ) ;
#388 = AXIS2_PLACEMENT_3D ( 'NONE', #297, #567, #843 ) ;
#389 = ORIENTED_EDGE ( 'NONE', *, *, #17, .T. ) ;
#390 = CARTESIAN_POINT ( 'NONE',  ( -97.58799734748012611, -37.27692307692306883, 5.000000000000000000 ) ) ;
#391 = FACE_OUTER_BOUND ( 'NONE', #694, .T. ) ;
#392 = CARTESIAN_POINT ( 'NONE',  ( -78.58920106770457892, 10.72367597128744876, 5.000000000000000000 ) ) ;
#393 = CARTESIAN_POINT ( 'NONE',  ( -96.58800094821914684, 10.72300095551155508, 2.000000000000000000 ) ) ;
#394 = ORIENTED_EDGE ( 'NONE', *, *, #380, .T. ) ;
#395 = CARTESIAN_POINT ( 'NONE',  ( 81.41200265251985968, 29.72307692307692051, 0.000000000000000000 ) ) ;
#396 = DIRECTION ( 'NONE',  ( -1.000000000000000000, 0.000000000000000000, 0.000000000000000000 ) ) ;
#397 = CLOSED_SHELL ( 'NONE', ( #647, #582, #104, #784, #164, #42, #195, #566, #169, #220, #850, #570, #183, #861, #258, #505, #773, #811, #344, #12, #371, #512, #726, #269, #596, #285, #797 ) ) ;
#398 = DIRECTION ( 'NONE',  ( -1.000000000000000000, 0.000000000000000000, 0.000000000000000000 ) ) ;
#399 = CARTESIAN_POINT ( 'NONE',  ( 62.41080028239893807, 10.68708073385019830, 2.000000000000000000 ) ) ;
#400 = VERTEX_POINT ( 'NONE', #185 ) ;
#401 = EDGE_CURVE ( 'NONE', #746, #316, #446, .T. ) ;
#402 = FACE_OUTER_BOUND ( 'NONE', #324, .T. ) ;
#403 = ORIENTED_EDGE ( 'NONE', *, *, #518, .F. ) ;
#404 = DIRECTION ( 'NONE',  ( 0.000000000000000000, 0.000000000000000000, 1.000000000000000000 ) ) ;
#405 = DIRECTION ( 'NONE',  ( -0.000000000000000000, -0.000000000000000000, -1.000000000000000000 ) ) ;
#406 = ORIENTED_EDGE ( 'NONE', *, *, #408, .T. ) ;
#407 = EDGE_CURVE ( 'NONE', #201, #618, #738, .T. ) ;
#408 = EDGE_CURVE ( 'NONE', #6, #638, #485, .T. ) ;
#409 = LINE ( 'NONE', #5, #413 ) ;
#410 = LINE ( 'NONE', #16, #460 ) ;
#411 = VERTEX_POINT ( 'NONE', #399 ) ;
#412 = DIRECTION ( 'NONE',  ( 1.000000000000000000, 1.907611189489472821E-16, -0.000000000000000000 ) ) ;
#413 = VECTOR ( 'NONE', #278, 1000.000000000000227 ) ;
#414 = ORIENTED_EDGE ( 'NONE', *, *, #600, .T. ) ;
#415 = DIRECTION ( 'NONE',  ( -0.000000000000000000, -1.000000000000000000, -0.000000000000000000 ) ) ;
#416 = EDGE_CURVE ( 'NONE', #4, #289, #205, .T. ) ;
#417 = CARTESIAN_POINT ( 'NONE',  ( 20.82500441292884474, -23.27692307692307949, 2.000000000000000000 ) ) ;
#418 = VERTEX_POINT ( 'NONE', #210 ) ;
#419 = CARTESIAN_POINT ( 'NONE',  ( 83.41200265251985968, 29.72307692307692051, 5.000000000000000000 ) ) ;
#420 = CARTESIAN_POINT ( 'NONE',  ( 62.41207404723531482, -23.27692307702308128, 2.000000000000000000 ) ) ;
#421 = ORIENTED_EDGE ( 'NONE', *, *, #463, .F. ) ;
#422 = EDGE_CURVE ( 'NONE', #739, #6, #552, .T. ) ;
#423 = ORIENTED_EDGE ( 'NONE', *, *, #635, .T. ) ;
#424 = DIRECTION ( 'NONE',  ( -0.000000000000000000, -0.000000000000000000, -1.000000000000000000 ) ) ;
#425 = DIRECTION ( 'NONE',  ( 1.000000000000000000, -0.000000000000000000, -0.000000000000000000 ) ) ;
#426 = DIRECTION ( 'NONE',  ( -0.000000000000000000, -0.000000000000000000, 1.000000000000000000 ) ) ;
#427 = ORIENTED_EDGE ( 'NONE', *, *, #290, .F. ) ;
#428 = AXIS2_PLACEMENT_3D ( 'NONE', #817, #458, #181 ) ;
#429 = CARTESIAN_POINT ( 'NONE',  ( 81.41200265251985968, -39.27692307692306883, 5.000000000000000000 ) ) ;
#430 = AXIS2_PLACEMENT_3D ( 'NONE', #236, #302, #579 ) ;
#431 = LINE ( 'NONE', #707, #633 ) ;
#432 = APPLICATION_PROTOCOL_DEFINITION ( 'draft international standard', 'automotive_design', 1998, #455 ) ;
#433 = EDGE_CURVE ( 'NONE', #862, #136, #358, .T. ) ;
#434 = ORIENTED_EDGE ( 'NONE', *, *, #789, .T. ) ;
#435 = LINE ( 'NONE', #366, #111 ) ;
#436 = CARTESIAN_POINT ( 'NONE',  ( -97.58799734748014032, 29.72307692307692051, 5.000000000000000000 ) ) ;
#437 = ORIENTED_EDGE ( 'NONE', *, *, #229, .F. ) ;
#438 = EDGE_CURVE ( 'NONE', #136, #709, #142, .T. ) ;
#439 = EDGE_LOOP ( 'NONE', ( #342, #261, #472, #872 ) ) ;
#440 = EDGE_CURVE ( 'NONE', #189, #456, #475, .T. ) ;
#441 = FACE_OUTER_BOUND ( 'NONE', #368, .T. ) ;
#442 = ORIENTED_EDGE ( 'NONE', *, *, #3, .T. ) ;
#443 = FACE_BOUND ( 'NONE', #327, .T. ) ;
#444 = AXIS2_PLACEMENT_3D ( 'NONE', #584, #233, #853 ) ;
#445 = DIRECTION ( 'NONE',  ( -1.000000000000000000, 0.000000000000000000, 0.000000000000000000 ) ) ;
#446 = CIRCLE ( 'NONE', #323, 2.000000000000001776 ) ;
#447 = EDGE_CURVE ( 'NONE', #730, #263, #696, .T. ) ;
#448 = EDGE_LOOP ( 'NONE', ( #217, #454, #508, #873 ) ) ;
#449 = DIRECTION ( 'NONE',  ( -2.293428648603675388E-06, 0.9999999999973701037, 0.000000000000000000 ) ) ;
#450 = DIRECTION ( 'NONE',  ( 1.000000000000000000, 0.000000000000000000, 0.000000000000000000 ) ) ;
#451 = ORIENTED_EDGE ( 'NONE', *, *, #531, .T. ) ;
#452 = CARTESIAN_POINT ( 'NONE',  ( 80.41199921542008155, 10.68775583959866182, 2.000000000000000000 ) ) ;
#453 = DIRECTION ( 'NONE',  ( -0.000000000000000000, -0.000000000000000000, -1.000000000000000000 ) ) ;
#454 = ORIENTED_EDGE ( 'NONE', *, *, #606, .F. ) ;
#455 = APPLICATION_CONTEXT ( 'automotive_design' ) ;
#456 = VERTEX_POINT ( 'NONE', #621 ) ;
#457 = FACE_OUTER_BOUND ( 'NONE', #193, .T. ) ;
#458 = DIRECTION ( 'NONE',  ( 0.000000000000000000, 0.000000000000000000, 1.000000000000000000 ) ) ;
#459 = VECTOR ( 'NONE', #257, 1000.000000000000114 ) ;
#460 = VECTOR ( 'NONE', #426, 1000.000000000000000 ) ;
#461 = AXIS2_PLACEMENT_3D ( 'NONE', #668, #385, #180 ) ;
#462 = ORIENTED_EDGE ( 'NONE', *, *, #35, .F. ) ;
#463 = EDGE_CURVE ( 'NONE', #316, #346, #15, .T. ) ;
#464 = FILL_AREA_STYLE_COLOUR ( '', #661 ) ;
#465 = DIRECTION ( 'NONE',  ( 1.000000000000000000, 0.000000000000000000, 0.000000000000000000 ) ) ;
#466 = ORIENTED_EDGE ( 'NONE', *, *, #818, .F. ) ;
#467 = CARTESIAN_POINT ( 'NONE',  ( -97.58799734748012611, -39.27692307692307594, 5.000000000000000000 ) ) ;
#468 = ORIENTED_EDGE ( 'NONE', *, *, #854, .T. ) ;
#469 = CARTESIAN_POINT ( 'NONE',  ( 20.82500441292884474, -23.27692307692307949, 2.000000000000000000 ) ) ;
#470 = ORIENTED_EDGE ( 'NONE', *, *, #667, .F. ) ;
#471 = DIRECTION ( 'NONE',  ( -9.091043281086632472E-08, 0.9999999999999957812, 0.000000000000000000 ) ) ;
#472 = ORIENTED_EDGE ( 'NONE', *, *, #61, .F. ) ;
#473 = EDGE_CURVE ( 'NONE', #501, #138, #409, .T. ) ;
#474 = VECTOR ( 'NONE', #450, 1000.000000000000000 ) ;
#475 = CIRCLE ( 'NONE', #361, 4.699999999999999289 ) ;
#476 = FACE_OUTER_BOUND ( 'NONE', #629, .T. ) ;
#477 = PLANE ( 'NONE',  #734 ) ;
#478 = DIRECTION ( 'NONE',  ( -1.779203616544987819E-16, 1.000000000000000000, 0.000000000000000000 ) ) ;
#479 = DIRECTION ( 'NONE',  ( -3.876477041288954935E-17, -1.000000000000000000, 0.000000000000000000 ) ) ;
#480 = CARTESIAN_POINT ( 'NONE',  ( 11.91200265251986856, -3.776923076923073719, -1.734723475976807883E-15 ) ) ;
#481 = DIRECTION ( 'NONE',  ( 0.000000000000000000, -1.000000000000000000, 0.000000000000000000 ) ) ;
#482 = ORIENTED_EDGE ( 'NONE', *, *, #262, .T. ) ;
#483 = DIRECTION ( 'NONE',  ( -0.000000000000000000, 0.000000000000000000, -1.000000000000000000 ) ) ;
#484 = ORIENTED_EDGE ( 'NONE', *, *, #407, .F. ) ;
#485 = LINE ( 'NONE', #771, #672 ) ;
#486 = UNCERTAINTY_MEASURE_WITH_UNIT (LENGTH_MEASURE( 1.000000000000000082E-05 ), #602, 'distance_accuracy_value', 'NONE');
#487 = CARTESIAN_POINT ( 'NONE',  ( -32.78799734748012895, -3.776923076923073719, -1.734723475976807883E-15 ) ) ;
#488 = EDGE_LOOP ( 'NONE', ( #832, #804 ) ) ;
#489 = VECTOR ( 'NONE', #36, 1000.000000000000000 ) ;
#490 = PLANE ( 'NONE',  #522 ) ;
#491 = AXIS2_PLACEMENT_3D ( 'NONE', #228, #676, #283 ) ;
#492 = AXIS2_PLACEMENT_3D ( 'NONE', #842, #516, #226 ) ;
#493 = PRODUCT_DEFINITION ( 'UNKNOWN', '', #334, #692 ) ;
#494 = CARTESIAN_POINT ( 'NONE',  ( -23.38799734748013037, -3.776923076923073275, -1.734723475976807883E-15 ) ) ;
#495 = CARTESIAN_POINT ( 'NONE',  ( -25.38799734748014103, -3.776923076923073275, 2.000000000000000000 ) ) ;
#496 = SHAPE_DEFINITION_REPRESENTATION ( #597, #846 ) ;
#497 = ORIENTED_EDGE ( 'NONE', *, *, #312, .F. ) ;
#498 = DIRECTION ( 'NONE',  ( -0.000000000000000000, -0.000000000000000000, 1.000000000000000000 ) ) ;
#499 = ORIENTED_EDGE ( 'NONE', *, *, #658, .F. ) ;
#500 = EDGE_CURVE ( 'NONE', #241, #708, #833, .T. ) ;
#501 = VERTEX_POINT ( 'NONE', #756 ) ;
#502 = ORIENTED_EDGE ( 'NONE', *, *, #318, .T. ) ;
#503 = CARTESIAN_POINT ( 'NONE',  ( -78.58920106770457892, 10.72367597128744876, 2.000000000000000000 ) ) ;
#504 = FACE_OUTER_BOUND ( 'NONE', #231, .T. ) ;
#505 = ADVANCED_FACE ( 'NONE', ( #139 ), #616, .F. ) ;
#506 = EDGE_LOOP ( 'NONE', ( #468, #835, #245, #681 ) ) ;
#507 = CIRCLE ( 'NONE', #670, 2.699999999999985523 ) ;
#508 = ORIENTED_EDGE ( 'NONE', *, *, #97, .F. ) ;
#509 = CARTESIAN_POINT ( 'NONE',  ( -28.08799734748012966, -3.776923076923073719, -1.734723475976807883E-15 ) ) ;
#510 = PRESENTATION_LAYER_ASSIGNMENT (  '', '', ( #134 ) ) ;
#511 = DIRECTION ( 'NONE',  ( -1.000000000000000000, 0.000000000000000000, 0.000000000000000000 ) ) ;
#512 = ADVANCED_FACE ( 'NONE', ( #20 ), #477, .F. ) ;
#513 = EDGE_LOOP ( 'NONE', ( #165, #713 ) ) ;
#514 = DIRECTION ( 'NONE',  ( -0.000000000000000000, -0.000000000000000000, 1.000000000000000000 ) ) ;
#515 = LINE ( 'NONE', #251, #732 ) ;
#516 = DIRECTION ( 'NONE',  ( 0.000000000000000000, 0.000000000000000000, 1.000000000000000000 ) ) ;
#517 = ORIENTED_EDGE ( 'NONE', *, *, #667, .T. ) ;
#518 = EDGE_CURVE ( 'NONE', #400, #788, #580, .T. ) ;
#519 = FACE_OUTER_BOUND ( 'NONE', #644, .T. ) ;
#520 = DIRECTION ( 'NONE',  ( 0.000000000000000000, 0.000000000000000000, -1.000000000000000000 ) ) ;
#521 = ORIENTED_EDGE ( 'NONE', *, *, #768, .T. ) ;
#522 = AXIS2_PLACEMENT_3D ( 'NONE', #68, #479, #218 ) ;
#523 = DIRECTION ( 'NONE',  ( -0.000000000000000000, -0.000000000000000000, 1.000000000000000000 ) ) ;
#524 = AXIS2_PLACEMENT_3D ( 'NONE', #728, #449, #319 ) ;
#525 = AXIS2_PLACEMENT_3D ( 'NONE', #689, #14, #84 ) ;
#526 = DIRECTION ( 'NONE',  ( -1.000000000000000000, 0.000000000000000000, 0.000000000000000000 ) ) ;
#527 = CARTESIAN_POINT ( 'NONE',  ( 20.82500441292883764, 15.72307579550376033, 5.000000000000000000 ) ) ;
#528 = ORIENTED_EDGE ( 'NONE', *, *, #683, .F. ) ;
#529 = DIRECTION ( 'NONE',  ( 0.9999999992967483209, 3.750337688620764351E-05, 0.000000000000000000 ) ) ;
#530 = ORIENTED_EDGE ( 'NONE', *, *, #250, .T. ) ;
#531 = EDGE_CURVE ( 'NONE', #614, #841, #345, .T. ) ;
#532 = ORIENTED_EDGE ( 'NONE', *, *, #240, .F. ) ;
#533 = LINE ( 'NONE', #18, #266 ) ;
#534 = CARTESIAN_POINT ( 'NONE',  ( 80.41199757582123198, 28.72307692307691696, 5.000000000000000000 ) ) ;
#535 = AXIS2_PLACEMENT_3D ( 'NONE', #47, #870, #874 ) ;
#536 = AXIS2_PLACEMENT_3D ( 'NONE', #144, #483, #137 ) ;
#537 = EDGE_CURVE ( 'NONE', #690, #189, #8, .T. ) ;
#538 = LINE ( 'NONE', #803, #222 ) ;
#539 = ORIENTED_EDGE ( 'NONE', *, *, #30, .T. ) ;
#540 = CARTESIAN_POINT ( 'NONE',  ( 57.19978530192257438, 15.72307579550376744, 2.000000000000000000 ) ) ;
#541 = EDGE_CURVE ( 'NONE', #456, #189, #878, .T. ) ;
#542 = VERTEX_POINT ( 'NONE', #494 ) ;
#543 = LINE ( 'NONE', #869, #877 ) ;
#544 = VERTEX_POINT ( 'NONE', #153 ) ;
#545 = CARTESIAN_POINT ( 'NONE',  ( 57.19978530192257438, 15.72307579550376744, 5.000000000000000000 ) ) ;
#546 = CARTESIAN_POINT ( 'NONE',  ( -78.58920106770457892, 10.72367597128744876, 5.000000000000000000 ) ) ;
#547 = FACE_OUTER_BOUND ( 'NONE', #179, .T. ) ;
#548 = VECTOR ( 'NONE', #471, 1000.000000000000227 ) ;
#549 = ORIENTED_EDGE ( 'NONE', *, *, #805, .F. ) ;
#550 = CIRCLE ( 'NONE', #39, 2.000000000000015543 ) ;
#551 = FACE_OUTER_BOUND ( 'NONE', #569, .T. ) ;
#552 = LINE ( 'NONE', #684, #619 ) ;
#553 = CARTESIAN_POINT ( 'NONE',  ( -96.58800094821914684, 10.72300095551155508, 5.000000000000000000 ) ) ;
#554 = ORIENTED_EDGE ( 'NONE', *, *, #837, .F. ) ;
#555 = PLANE ( 'NONE',  #673 ) ;
#556 = CARTESIAN_POINT ( 'NONE',  ( -99.58799734748014032, 29.72307692307692051, 5.000000000000000000 ) ) ;
#557 = ORIENTED_EDGE ( 'NONE', *, *, #715, .F. ) ;
#558 = EDGE_LOOP ( 'NONE', ( #649, #73, #627, #521 ) ) ;
#559 = LINE ( 'NONE', #674, #29 ) ;
#560 = CARTESIAN_POINT ( 'NONE',  ( 11.91200265251986856, -3.776923076923073719, -1.734723475976807883E-15 ) ) ;
#561 = LINE ( 'NONE', #284, #110 ) ;
#562 = ORIENTED_EDGE ( 'NONE', *, *, #639, .T. ) ;
#563 = AXIS2_PLACEMENT_3D ( 'NONE', #693, #769, #834 ) ;
#564 = VECTOR ( 'NONE', #292, 1000.000000000000114 ) ;
#565 = ORIENTED_EDGE ( 'NONE', *, *, #768, .F. ) ;
#566 = ADVANCED_FACE ( 'NONE', ( #90 ), #25, .F. ) ;
#567 = DIRECTION ( 'NONE',  ( 0.000000000000000000, 1.000000000000000000, 0.000000000000000000 ) ) ;
#568 = PLANE ( 'NONE',  #563 ) ;
#569 = EDGE_LOOP ( 'NONE', ( #389, #497, #22, #234 ) ) ;
#570 = ADVANCED_FACE ( 'NONE', ( #156, #443, #519 ), #650, .T. ) ;
#571 = CYLINDRICAL_SURFACE ( 'NONE', #309, 2.000000000000015543 ) ;
#572 = ORIENTED_EDGE ( 'NONE', *, *, #531, .F. ) ;
#573 = FACE_OUTER_BOUND ( 'NONE', #85, .T. ) ;
#574 = PLANE ( 'NONE',  #604 ) ;
#575 = EDGE_CURVE ( 'NONE', #418, #263, #435, .T. ) ;
#576 = AXIS2_PLACEMENT_3D ( 'NONE', #813, #729, #396 ) ;
#577 = AXIS2_PLACEMENT_3D ( 'NONE', #663, #256, #526 ) ;
#578 = EDGE_LOOP ( 'NONE', ( #632, #549, #373, #248 ) ) ;
#579 = DIRECTION ( 'NONE',  ( -1.000000000000000000, 0.000000000000000000, -0.000000000000000000 ) ) ;
#580 = CIRCLE ( 'NONE', #592, 2.000000000000001776 ) ;
#581 = CARTESIAN_POINT ( 'NONE',  ( -96.58800094821914684, 28.72267098620949710, 2.000000000000000000 ) ) ;
#582 = ADVANCED_FACE ( 'NONE', ( #573 ), #704, .F. ) ;
#583 = VERTEX_POINT ( 'NONE', #429 ) ;
#584 = CARTESIAN_POINT ( 'NONE',  ( 83.41200265251985968, 29.72307692307692051, 5.000000000000000000 ) ) ;
#585 = DIRECTION ( 'NONE',  ( -1.000000000000000000, 0.000000000000000000, 0.000000000000000000 ) ) ;
#586 = CARTESIAN_POINT ( 'NONE',  ( 62.41080028239893807, 10.68708073385019830, 2.000000000000000000 ) ) ;
#587 = ORIENTED_EDGE ( 'NONE', *, *, #826, .F. ) ;
#588 = CARTESIAN_POINT ( 'NONE',  ( 20.82500441292884474, -23.27692307692307949, 5.000000000000000000 ) ) ;
#589 = CONICAL_SURFACE ( 'NONE', #576, 4.699999999999999289, 0.7853981633974509435 ) ;
#590 = EDGE_CURVE ( 'NONE', #118, #709, #378, .T. ) ;
#591 = DIRECTION ( 'NONE',  ( -0.000000000000000000, -0.000000000000000000, 1.000000000000000000 ) ) ;
#592 = AXIS2_PLACEMENT_3D ( 'NONE', #691, #404, #74 ) ;
#593 = VERTEX_POINT ( 'NONE', #700 ) ;
#594 = DIRECTION ( 'NONE',  ( 0.000000000000000000, 0.000000000000000000, 1.000000000000000000 ) ) ;
#595 = DIRECTION ( 'NONE',  ( 1.000000000000000000, 1.046980590946524270E-16, 0.000000000000000000 ) ) ;
#596 = ADVANCED_FACE ( 'NONE', ( #31, #711, #249 ), #160, .F. ) ;
#597 = PRODUCT_DEFINITION_SHAPE ( 'NONE', 'NONE',  #493 ) ;
#598 = CARTESIAN_POINT ( 'NONE',  ( -99.58799734748014032, 29.72307692307692051, 5.000000000000000000 ) ) ;
#599 = DIRECTION ( 'NONE',  ( 0.7071067811865493491, 8.659560562354955045E-17, -0.7071067811865456854 ) ) ;
#600 = EDGE_CURVE ( 'NONE', #19, #730, #99, .T. ) ;
#601 = EDGE_CURVE ( 'NONE', #418, #182, #714, .T. ) ;
#602 =( LENGTH_UNIT ( ) NAMED_UNIT ( * ) SI_UNIT ( .MILLI., .METRE. ) );
#603 = CARTESIAN_POINT ( 'NONE',  ( 80.41199921542008155, 10.68775583959866182, 5.000000000000000000 ) ) ;
#604 = AXIS2_PLACEMENT_3D ( 'NONE', #642, #237, #124 ) ;
#605 = CIRCLE ( 'NONE', #461, 4.699999999999999289 ) ;
#606 = EDGE_CURVE ( 'NONE', #705, #138, #641, .T. ) ;
#607 =( NAMED_UNIT ( * ) SI_UNIT ( $, .STERADIAN. ) SOLID_ANGLE_UNIT ( ) );
#608 = DIRECTION ( 'NONE',  ( -1.000000000000000000, 0.000000000000000000, 0.000000000000000000 ) ) ;
#609 = EDGE_CURVE ( 'NONE', #289, #46, #34, .T. ) ;
#610 = DIRECTION ( 'NONE',  ( -0.000000000000000000, -0.000000000000000000, 1.000000000000000000 ) ) ;
#611 = ORIENTED_EDGE ( 'NONE', *, *, #715, .T. ) ;
#612 = CARTESIAN_POINT ( 'NONE',  ( 62.41207404723531482, -23.27692307702308128, 2.000000000000000000 ) ) ;
#613 = EDGE_LOOP ( 'NONE', ( #253, #274, #121, #363, #259, #587, #437, #470, #96, #680, #255, #171 ) ) ;
#614 = VERTEX_POINT ( 'NONE', #848 ) ;
#615 = FACE_BOUND ( 'NONE', #613, .T. ) ;
#616 = PLANE ( 'NONE',  #11 ) ;
#617 = DIRECTION ( 'NONE',  ( -9.091043281086632472E-08, 0.9999999999999957812, 0.000000000000000000 ) ) ;
#618 = VERTEX_POINT ( 'NONE', #232 ) ;
#619 = VECTOR ( 'NONE', #415, 1000.000000000000000 ) ;
#620 = CARTESIAN_POINT ( 'NONE',  ( 81.41200265251985968, -37.27692307692306883, 0.000000000000000000 ) ) ;
#621 = CARTESIAN_POINT ( 'NONE',  ( 7.212002652519870161, -3.776923076923073719, -1.734723475976807883E-15 ) ) ;
#622 = ORIENTED_EDGE ( 'NONE', *, *, #760, .T. ) ;
#623 = EDGE_CURVE ( 'NONE', #708, #400, #44, .T. ) ;
#624 = LINE ( 'NONE', #643, #270 ) ;
#625 = CARTESIAN_POINT ( 'NONE',  ( 16.61200265251986963, -3.776923076923073275, -1.734723475976807883E-15 ) ) ;
#626 = CARTESIAN_POINT ( 'NONE',  ( 62.41080028239893807, 10.68708073385019830, 2.000000000000000000 ) ) ;
#627 = ORIENTED_EDGE ( 'NONE', *, *, #433, .F. ) ;
#628 = DIRECTION ( 'NONE',  ( 0.9999999992967483209, 3.750337688620764351E-05, 0.000000000000000000 ) ) ;
#629 = EDGE_LOOP ( 'NONE', ( #13, #572, #127, #442 ) ) ;
#630 = DIRECTION ( 'NONE',  ( -1.000000000000000000, 0.000000000000000000, 0.000000000000000000 ) ) ;
#631 = ORIENTED_EDGE ( 'NONE', *, *, #737, .T. ) ;
#632 = ORIENTED_EDGE ( 'NONE', *, *, #352, .T. ) ;
#633 = VECTOR ( 'NONE', #100, 1000.000000000000000 ) ;
#634 = VECTOR ( 'NONE', #514, 1000.000000000000000 ) ;
#635 = EDGE_CURVE ( 'NONE', #75, #286, #242, .T. ) ;
#636 = DIRECTION ( 'NONE',  ( -0.000000000000000000, -0.000000000000000000, -1.000000000000000000 ) ) ;
#637 = CARTESIAN_POINT ( 'NONE',  ( -97.58799734748012611, -39.27692307692306883, 0.000000000000000000 ) ) ;
#638 = VERTEX_POINT ( 'NONE', #106 ) ;
#639 = EDGE_CURVE ( 'NONE', #781, #614, #40, .T. ) ;
#640 = ORIENTED_EDGE ( 'NONE', *, *, #500, .T. ) ;
#641 = LINE ( 'NONE', #306, #634 ) ;
#642 = CARTESIAN_POINT ( 'NONE',  ( 62.41207404723531482, -23.27692307702308128, 2.000000000000000000 ) ) ;
#643 = CARTESIAN_POINT ( 'NONE',  ( -99.58799734748014032, -37.27692307692306883, 5.000000000000000000 ) ) ;
#644 = EDGE_LOOP ( 'NONE', ( #810, #317, #855, #272, #466, #159, #403, #759 ) ) ;
#645 = CARTESIAN_POINT ( 'NONE',  ( -97.58799734748014032, 31.72307692307692406, 0.000000000000000000 ) ) ;
#646 = PLANE ( 'NONE',  #133 ) ;
#647 = ADVANCED_FACE ( 'NONE', ( #852 ), #120, .F. ) ;
#648 = VECTOR ( 'NONE', #351, 1000.000000000000114 ) ;
#649 = ORIENTED_EDGE ( 'NONE', *, *, #590, .T. ) ;
#650 = PLANE ( 'NONE',  #188 ) ;
#651 = CARTESIAN_POINT ( 'NONE',  ( 57.19978530192257438, 15.72307579550376744, 2.000000000000000000 ) ) ;
#652 = ORIENTED_EDGE ( 'NONE', *, *, #108, .T. ) ;
#653 = CARTESIAN_POINT ( 'NONE',  ( 62.41207404723531482, -23.27692307702308128, 5.000000000000000000 ) ) ;
#654 = CYLINDRICAL_SURFACE ( 'NONE', #119, 2.000000000000001776 ) ;
#655 = ORIENTED_EDGE ( 'NONE', *, *, #698, .F. ) ;
#656 = CARTESIAN_POINT ( 'NONE',  ( 80.41199757582123198, 28.72307692307691696, 5.000000000000000000 ) ) ;
#657 = ORIENTED_EDGE ( 'NONE', *, *, #130, .F. ) ;
#658 = EDGE_CURVE ( 'NONE', #542, #46, #605, .T. ) ;
#659 = CARTESIAN_POINT ( 'NONE',  ( 62.41207404723531482, -23.27692307702308128, 5.000000000000000000 ) ) ;
#660 = CARTESIAN_POINT ( 'NONE',  ( 81.41200265251985968, -39.27692307692306883, 0.000000000000000000 ) ) ;
#661 = COLOUR_RGB ( '',0.7921568627450980005, 0.8196078431372548767, 0.9333333333333333481 ) ;
#662 = VERTEX_POINT ( 'NONE', #325 ) ;
#663 = CARTESIAN_POINT ( 'NONE',  ( 11.91200265251986856, -3.776923076923073719, -1.734723475976807883E-15 ) ) ;
#664 = CARTESIAN_POINT ( 'NONE',  ( 20.82500441292884474, -23.27692307692307949, 2.000000000000000000 ) ) ;
#665 = DIRECTION ( 'NONE',  ( 0.000000000000000000, 0.000000000000000000, 1.000000000000000000 ) ) ;
#666 = CARTESIAN_POINT ( 'NONE',  ( 62.41207404723531482, -23.27692307702308128, 2.000000000000000000 ) ) ;
#667 = EDGE_CURVE ( 'NONE', #263, #662, #724, .T. ) ;
#668 = CARTESIAN_POINT ( 'NONE',  ( -28.08799734748012966, -3.776923076923073719, -1.734723475976807883E-15 ) ) ;
#669 = FACE_OUTER_BOUND ( 'NONE', #578, .T. ) ;
#670 = AXIS2_PLACEMENT_3D ( 'NONE', #796, #520, #716 ) ;
#671 = VERTEX_POINT ( 'NONE', #812 ) ;
#672 = VECTOR ( 'NONE', #828, 1000.000000000000000 ) ;
#673 = AXIS2_PLACEMENT_3D ( 'NONE', #469, #766, #202 ) ;
#674 = CARTESIAN_POINT ( 'NONE',  ( -96.58800094821914684, 10.72300095551155508, 5.000000000000000000 ) ) ;
#675 = ORIENTED_EDGE ( 'NONE', *, *, #81, .T. ) ;
#676 = DIRECTION ( 'NONE',  ( 0.000000000000000000, 0.000000000000000000, -1.000000000000000000 ) ) ;
#677 = ORIENTED_EDGE ( 'NONE', *, *, #191, .F. ) ;
#678 = CARTESIAN_POINT ( 'NONE',  ( 11.91200265251986856, -3.776923076923073719, -1.734723475976807883E-15 ) ) ;
#679 = DIRECTION ( 'NONE',  ( -1.000000000000000000, -3.558407233080851476E-16, 0.000000000000000000 ) ) ;
#680 = ORIENTED_EDGE ( 'NONE', *, *, #754, .F. ) ;
#681 = ORIENTED_EDGE ( 'NONE', *, *, #35, .T. ) ;
#682 = CARTESIAN_POINT ( 'NONE',  ( -99.58799734748014032, 29.72307692307692051, 0.000000000000000000 ) ) ;
#683 = EDGE_CURVE ( 'NONE', #346, #201, #550, .T. ) ;
#684 = CARTESIAN_POINT ( 'NONE',  ( -96.58800094821914684, 10.72300095551155508, 2.000000000000000000 ) ) ;
#685 = LINE ( 'NONE', #417, #162 ) ;
#686 = AXIS2_PLACEMENT_3D ( 'NONE', #560, #838, #221 ) ;
#687 = ORIENTED_EDGE ( 'NONE', *, *, #541, .F. ) ;
#688 = VECTOR ( 'NONE', #412, 1000.000000000000000 ) ;
#689 = CARTESIAN_POINT ( 'NONE',  ( 62.41207404723531482, -23.27692307702308128, 2.000000000000000000 ) ) ;
#690 = VERTEX_POINT ( 'NONE', #176 ) ;
#691 = CARTESIAN_POINT ( 'NONE',  ( -97.58799734748014032, 29.72307692307692051, 0.000000000000000000 ) ) ;
#692 = PRODUCT_DEFINITION_CONTEXT ( 'detailed design', #455, 'design' ) ;
#693 = CARTESIAN_POINT ( 'NONE',  ( -78.58920106770457892, 10.72367597128744876, 2.000000000000000000 ) ) ;
#694 = EDGE_LOOP ( 'NONE', ( #517, #155, #24, #347 ) ) ;
#695 = CARTESIAN_POINT ( 'NONE',  ( 57.19978530192257438, 15.72307579550376744, 5.000000000000000000 ) ) ;
#696 = LINE ( 'NONE', #546, #794 ) ;
#697 = FACE_OUTER_BOUND ( 'NONE', #305, .T. ) ;
#698 = EDGE_CURVE ( 'NONE', #316, #788, #184, .T. ) ;
#699 = ORIENTED_EDGE ( 'NONE', *, *, #876, .F. ) ;
#700 = CARTESIAN_POINT ( 'NONE',  ( 9.212002652519883483, -3.776923076923073719, 2.000000000000000000 ) ) ;
#701 = LINE ( 'NONE', #637, #474 ) ;
#702 = CIRCLE ( 'NONE', #322, 2.000000000000001776 ) ;
#703 = PRODUCT_CONTEXT ( 'NONE', #830, 'mechanical' ) ;
#704 = CONICAL_SURFACE ( 'NONE', #840, 4.699999999999999289, 0.7853981633974509435 ) ;
#705 = VERTEX_POINT ( 'NONE', #452 ) ;
#706 = DIRECTION ( 'NONE',  ( -0.000000000000000000, -0.000000000000000000, 1.000000000000000000 ) ) ;
#707 = CARTESIAN_POINT ( 'NONE',  ( 83.41200265251985968, 29.72307692307692051, 5.000000000000000000 ) ) ;
#708 = VERTEX_POINT ( 'NONE', #731 ) ;
#709 = VERTEX_POINT ( 'NONE', #659 ) ;
#710 = EDGE_CURVE ( 'NONE', #241, #746, #382, .T. ) ;
#711 = FACE_BOUND ( 'NONE', #488, .T. ) ;
#712 = FACE_OUTER_BOUND ( 'NONE', #506, .T. ) ;
#713 = ORIENTED_EDGE ( 'NONE', *, *, #130, .T. ) ;
#714 = LINE ( 'NONE', #103, #311 ) ;
#715 = EDGE_CURVE ( 'NONE', #46, #542, #163, .T. ) ;
#716 = DIRECTION ( 'NONE',  ( -1.000000000000000000, 0.000000000000000000, 0.000000000000000000 ) ) ;
#717 = CIRCLE ( 'NONE', #109, 2.000000000000001776 ) ;
#718 = VECTOR ( 'NONE', #79, 1000.000000000000000 ) ;
#719 = ORIENTED_EDGE ( 'NONE', *, *, #537, .T. ) ;
#720 = CARTESIAN_POINT ( 'NONE',  ( -32.78799734748012895, -3.776923076923073719, -1.734723475976807883E-15 ) ) ;
#721 = VECTOR ( 'NONE', #836, 1000.000000000000000 ) ;
#722 = CARTESIAN_POINT ( 'NONE',  ( 81.41200265251985968, 31.72307692307691696, 5.000000000000000000 ) ) ;
#723 = ORIENTED_EDGE ( 'NONE', *, *, #537, .F. ) ;
#724 = LINE ( 'NONE', #588, #336 ) ;
#725 = CARTESIAN_POINT ( 'NONE',  ( -97.58799734748014032, 31.72307692307692406, 5.000000000000000000 ) ) ;
#726 = ADVANCED_FACE ( 'NONE', ( #457 ), #328, .F. ) ;
#727 = ORIENTED_EDGE ( 'NONE', *, *, #754, .T. ) ;
#728 = CARTESIAN_POINT ( 'NONE',  ( 80.41199757582123198, 28.72307692307691696, 2.000000000000000000 ) ) ;
#729 = DIRECTION ( 'NONE',  ( -0.000000000000000000, -0.000000000000000000, -1.000000000000000000 ) ) ;
#730 = VERTEX_POINT ( 'NONE', #392 ) ;
#731 = CARTESIAN_POINT ( 'NONE',  ( 81.41200265251985968, 31.72307692307691696, 0.000000000000000000 ) ) ;
#732 = VECTOR ( 'NONE', #372, 999.9999999999998863 ) ;
#733 = CARTESIAN_POINT ( 'NONE',  ( -78.58792593042323915, -23.27692307692309015, 5.000000000000000000 ) ) ;
#734 = AXIS2_PLACEMENT_3D ( 'NONE', #146, #750, #767 ) ;
#735 = ORIENTED_EDGE ( 'NONE', *, *, #623, .T. ) ;
#736 = FILL_AREA_STYLE ('',( #464 ) ) ;
#737 = EDGE_CURVE ( 'NONE', #286, #708, #147, .T. ) ;
#738 = LINE ( 'NONE', #467, #268 ) ;
#739 = VERTEX_POINT ( 'NONE', #806 ) ;
#740 = DIRECTION ( 'NONE',  ( -9.091043281086632472E-08, 0.9999999999999957812, 0.000000000000000000 ) ) ;
#741 = ORIENTED_EDGE ( 'NONE', *, *, #500, .F. ) ;
#742 = LINE ( 'NONE', #695, #688 ) ;
#743 = CONICAL_SURFACE ( 'NONE', #765, 4.699999999999999289, 0.7853981633974512766 ) ;
#744 = ORIENTED_EDGE ( 'NONE', *, *, #295, .T. ) ;
#745 = FACE_OUTER_BOUND ( 'NONE', #235, .T. ) ;
#746 = VERTEX_POINT ( 'NONE', #868 ) ;
#747 =( GEOMETRIC_REPRESENTATION_CONTEXT ( 3 ) GLOBAL_UNCERTAINTY_ASSIGNED_CONTEXT ( ( #486 ) ) GLOBAL_UNIT_ASSIGNED_CONTEXT ( ( #602, #194, #607 ) ) REPRESENTATION_CONTEXT ( 'NONE', 'WORKASPACE' ) );
#748 = PLANE ( 'NONE',  #536 ) ;
#749 = ORIENTED_EDGE ( 'NONE', *, *, #67, .T. ) ;
#750 = DIRECTION ( 'NONE',  ( -1.000000000000000000, 0.000000000000000000, 0.000000000000000000 ) ) ;
#751 = CARTESIAN_POINT ( 'NONE',  ( -96.58800094821914684, 10.72300095551155508, 2.000000000000000000 ) ) ;
#752 = ORIENTED_EDGE ( 'NONE', *, *, #380, .F. ) ;
#753 = MANIFOLD_SOLID_BREP ( '\X2\04170435043d043a043e0432043a0430\X0\ \X2\0434043b044f\X0\  \X2\04320438043d04420430\X0\ \X2\0441\X0\ \X2\043f043b043e0441043a043e0439\X0\ \X2\0433043e043b043e0432043a043e0439\X0\ M42', #397 ) ;
#754 = EDGE_CURVE ( 'NONE', #638, #730, #559, .T. ) ;
#755 = DIRECTION ( 'NONE',  ( -0.7071067811865496822, 0.000000000000000000, -0.7071067811865454633 ) ) ;
#756 = CARTESIAN_POINT ( 'NONE',  ( 62.41080028239893807, 10.68708073385019830, 5.000000000000000000 ) ) ;
#757 = CARTESIAN_POINT ( 'NONE',  ( 62.41207404723531482, -23.27692307702308128, 5.000000000000000000 ) ) ;
#758 = LINE ( 'NONE', #198, #65 ) ;
#759 = ORIENTED_EDGE ( 'NONE', *, *, #623, .F. ) ;
#760 = EDGE_CURVE ( 'NONE', #593, #456, #533, .T. ) ;
#761 = DIRECTION ( 'NONE',  ( 3.558407233080851476E-16, -1.000000000000000000, 0.000000000000000000 ) ) ;
#762 = FACE_OUTER_BOUND ( 'NONE', #88, .T. ) ;
#763 = VECTOR ( 'NONE', #859, 1000.000000000000000 ) ;
#764 = ORIENTED_EDGE ( 'NONE', *, *, #401, .T. ) ;
#765 = AXIS2_PLACEMENT_3D ( 'NONE', #678, #831, #72 ) ;
#766 = DIRECTION ( 'NONE',  ( 1.000000000000000000, 1.779203616544987819E-16, 0.000000000000000000 ) ) ;
#767 = DIRECTION ( 'NONE',  ( 0.000000000000000000, 0.000000000000000000, 1.000000000000000000 ) ) ;
#768 = EDGE_CURVE ( 'NONE', #862, #118, #209, .T. ) ;
#769 = DIRECTION ( 'NONE',  ( -0.9999999992967484319, -3.750337688548675748E-05, 0.000000000000000000 ) ) ;
#770 = VERTEX_POINT ( 'NONE', #419 ) ;
#771 = CARTESIAN_POINT ( 'NONE',  ( -96.58800094821914684, 10.72300095551155508, 2.000000000000000000 ) ) ;
#772 = CARTESIAN_POINT ( 'NONE',  ( -78.58920106770457892, 10.72367597128744876, 2.000000000000000000 ) ) ;
#773 = ADVANCED_FACE ( 'NONE', ( #476 ), #291, .F. ) ;
#774 = EDGE_LOOP ( 'NONE', ( #801, #539, #384, #365, #434, #394, #851, #225, #562, #330, #819, #867 ) ) ;
#775 =( NAMED_UNIT ( * ) PLANE_ANGLE_UNIT ( ) SI_UNIT ( $, .RADIAN. ) );
#776 = ORIENTED_EDGE ( 'NONE', *, *, #609, .T. ) ;
#777 = DIRECTION ( 'NONE',  ( -1.000000000000000000, 0.000000000000000000, 0.000000000000000000 ) ) ;
#778 = LINE ( 'NONE', #377, #267 ) ;
#779 = AXIS2_PLACEMENT_3D ( 'NONE', #436, #38, #511 ) ;
#780 = VECTOR ( 'NONE', #370, 1000.000000000000000 ) ;
#781 = VERTEX_POINT ( 'NONE', #348 ) ;
#782 = DIRECTION ( 'NONE',  ( 3.558407233080851476E-16, -1.000000000000000000, 0.000000000000000000 ) ) ;
#783 = ORIENTED_EDGE ( 'NONE', *, *, #356, .F. ) ;
#784 = ADVANCED_FACE ( 'NONE', ( #402 ), #490, .F. ) ;
#785 = ORIENTED_EDGE ( 'NONE', *, *, #331, .T. ) ;
#786 = DIRECTION ( 'NONE',  ( -0.000000000000000000, 1.000000000000000000, -0.000000000000000000 ) ) ;
#787 = CARTESIAN_POINT ( 'NONE',  ( 80.41199757582123198, 28.72307692307691696, 2.000000000000000000 ) ) ;
#788 = VERTEX_POINT ( 'NONE', #682 ) ;
#789 = EDGE_CURVE ( 'NONE', #6, #19, #815, .T. ) ;
#790 = DIRECTION ( 'NONE',  ( -0.000000000000000000, 0.000000000000000000, -1.000000000000000000 ) ) ;
#791 = DIRECTION ( 'NONE',  ( 0.9999999992967483209, 3.750337688624503493E-05, 0.000000000000000000 ) ) ;
#792 = ORIENTED_EDGE ( 'NONE', *, *, #178, .F. ) ;
#793 = VECTOR ( 'NONE', #617, 1000.000000000000227 ) ;
#794 = VECTOR ( 'NONE', #70, 1000.000000000000227 ) ;
#795 = DIRECTION ( 'NONE',  ( -1.000000000000000000, 3.876477041288954935E-17, -0.000000000000000000 ) ) ;
#796 = CARTESIAN_POINT ( 'NONE',  ( 11.91200265251986856, -3.776923076923073719, 2.000000000000000000 ) ) ;
#797 = ADVANCED_FACE ( 'NONE', ( #277 ), #743, .F. ) ;
#798 = ORIENTED_EDGE ( 'NONE', *, *, #600, .F. ) ;
#799 = DIRECTION ( 'NONE',  ( -0.000000000000000000, -0.000000000000000000, -1.000000000000000000 ) ) ;
#800 = LINE ( 'NONE', #320, #203 ) ;
#801 = ORIENTED_EDGE ( 'NONE', *, *, #97, .T. ) ;
#802 = DIRECTION ( 'NONE',  ( 1.000000000000000000, 0.000000000000000000, 0.000000000000000000 ) ) ;
#803 = CARTESIAN_POINT ( 'NONE',  ( -78.58920106770457892, 10.72367597128744876, 2.000000000000000000 ) ) ;
#804 = ORIENTED_EDGE ( 'NONE', *, *, #416, .T. ) ;
#805 = EDGE_CURVE ( 'NONE', #197, #265, #758, .T. ) ;
#806 = CARTESIAN_POINT ( 'NONE',  ( -96.58800094821914684, 28.72267098620949710, 2.000000000000000000 ) ) ;
#807 = AXIS2_PLACEMENT_3D ( 'NONE', #824, #216, #207 ) ;
#808 = VECTOR ( 'NONE', #498, 1000.000000000000000 ) ;
#809 = CARTESIAN_POINT ( 'NONE',  ( -97.58799734748014032, 29.72307692307692051, 5.000000000000000000 ) ) ;
#810 = ORIENTED_EDGE ( 'NONE', *, *, #737, .F. ) ;
#811 = ADVANCED_FACE ( 'NONE', ( #343 ), #555, .F. ) ;
#812 = CARTESIAN_POINT ( 'NONE',  ( -96.58800094821914684, 28.72267098620949710, 5.000000000000000000 ) ) ;
#813 = CARTESIAN_POINT ( 'NONE',  ( -28.08799734748012966, -3.776923076923073719, -1.734723475976807883E-15 ) ) ;
#814 = ORIENTED_EDGE ( 'NONE', *, *, #145, .F. ) ;
#815 = LINE ( 'NONE', #132, #374 ) ;
#816 = ORIENTED_EDGE ( 'NONE', *, *, #440, .T. ) ;
#817 = CARTESIAN_POINT ( 'NONE',  ( 81.41200265251985968, -37.27692307692306883, 5.000000000000000000 ) ) ;
#818 = EDGE_CURVE ( 'NONE', #112, #618, #252, .T. ) ;
#819 = ORIENTED_EDGE ( 'NONE', *, *, #433, .T. ) ;
#820 = FACE_OUTER_BOUND ( 'NONE', #199, .T. ) ;
#821 = ORIENTED_EDGE ( 'NONE', *, *, #760, .F. ) ;
#822 = DIRECTION ( 'NONE',  ( -0.000000000000000000, -0.000000000000000000, -1.000000000000000000 ) ) ;
#823 = CIRCLE ( 'NONE', #428, 2.000000000000001776 ) ;
#824 = CARTESIAN_POINT ( 'NONE',  ( -99.58799734748014032, 29.72307692307692051, 5.000000000000000000 ) ) ;
#825 = AXIS2_PLACEMENT_3D ( 'NONE', #393, #260, #529 ) ;
#826 = EDGE_CURVE ( 'NONE', #301, #841, #742, .T. ) ;
#827 = PLANE ( 'NONE',  #525 ) ;
#828 = DIRECTION ( 'NONE',  ( -0.000000000000000000, -0.000000000000000000, 1.000000000000000000 ) ) ;
#829 = LINE ( 'NONE', #140, #219 ) ;
#830 = APPLICATION_CONTEXT ( 'automotive_design' ) ;
#831 = DIRECTION ( 'NONE',  ( -0.000000000000000000, -0.000000000000000000, -1.000000000000000000 ) ) ;
#832 = ORIENTED_EDGE ( 'NONE', *, *, #837, .T. ) ;
#833 = LINE ( 'NONE', #215, #866 ) ;
#834 = DIRECTION ( 'NONE',  ( 3.750337688548675071E-05, -0.9999999992967483209, 0.000000000000000000 ) ) ;
#835 = ORIENTED_EDGE ( 'NONE', *, *, #57, .F. ) ;
#836 = DIRECTION ( 'NONE',  ( -0.000000000000000000, -0.000000000000000000, 1.000000000000000000 ) ) ;
#837 = EDGE_CURVE ( 'NONE', #289, #4, #300, .T. ) ;
#838 = DIRECTION ( 'NONE',  ( -0.000000000000000000, -0.000000000000000000, -1.000000000000000000 ) ) ;
#839 = LINE ( 'NONE', #91, #187 ) ;
#840 = AXIS2_PLACEMENT_3D ( 'NONE', #509, #636, #777 ) ;
#841 = VERTEX_POINT ( 'NONE', #545 ) ;
#842 = CARTESIAN_POINT ( 'NONE',  ( 0.000000000000000000, 0.000000000000000000, 0.000000000000000000 ) ) ;
#843 = DIRECTION ( 'NONE',  ( 0.000000000000000000, -0.000000000000000000, 1.000000000000000000 ) ) ;
#844 = CARTESIAN_POINT ( 'NONE',  ( 81.41200265251985968, -39.27692307692306883, 5.000000000000000000 ) ) ;
#845 = ORIENTED_EDGE ( 'NONE', *, *, #710, .F. ) ;
#846 = ADVANCED_BREP_SHAPE_REPRESENTATION ( 'z1', ( #753, #492 ), #150 ) ;
#847 = APPLICATION_PROTOCOL_DEFINITION ( 'draft international standard', 'automotive_design', 1998, #830 ) ;
#848 = CARTESIAN_POINT ( 'NONE',  ( 57.19978530192257438, 15.72307579550376744, 2.000000000000000000 ) ) ;
#849 = PLANE ( 'NONE',  #444 ) ;
#850 = ADVANCED_FACE ( 'NONE', ( #615, #820 ), #748, .F. ) ;
#851 = ORIENTED_EDGE ( 'NONE', *, *, #601, .T. ) ;
#852 = FACE_OUTER_BOUND ( 'NONE', #339, .T. ) ;
#853 = DIRECTION ( 'NONE',  ( 0.000000000000000000, 0.000000000000000000, 1.000000000000000000 ) ) ;
#854 = EDGE_CURVE ( 'NONE', #294, #75, #717, .T. ) ;
#855 = ORIENTED_EDGE ( 'NONE', *, *, #854, .F. ) ;
#856 = AXIS2_PLACEMENT_3D ( 'NONE', #64, #337, #740 ) ;
#857 = VECTOR ( 'NONE', #173, 1000.000000000000000 ) ;
#858 = AXIS2_PLACEMENT_3D ( 'NONE', #395, #665, #55 ) ;
#859 = DIRECTION ( 'NONE',  ( -1.000000000000000000, 3.876477041288954935E-17, -0.000000000000000000 ) ) ;
#860 = DIRECTION ( 'NONE',  ( 3.750337688624504171E-05, -0.9999999992967484319, 0.000000000000000000 ) ) ;
#861 = ADVANCED_FACE ( 'NONE', ( #551 ), #827, .F. ) ;
#862 = VERTEX_POINT ( 'NONE', #353 ) ;
#863 = DIRECTION ( 'NONE',  ( -0.7071067811865493491, 0.000000000000000000, -0.7071067811865456854 ) ) ;
#864 = LINE ( 'NONE', #651, #335 ) ;
#865 = DIRECTION ( 'NONE',  ( -0.000000000000000000, -0.000000000000000000, -1.000000000000000000 ) ) ;
#866 = VECTOR ( 'NONE', #822, 1000.000000000000000 ) ;
#867 = ORIENTED_EDGE ( 'NONE', *, *, #273, .T. ) ;
#868 = CARTESIAN_POINT ( 'NONE',  ( -97.58799734748014032, 31.72307692307692406, 5.000000000000000000 ) ) ;
#869 = CARTESIAN_POINT ( 'NONE',  ( -23.38799734748013037, -3.776923076923073275, -1.734723475976807883E-15 ) ) ;
#870 = DIRECTION ( 'NONE',  ( -0.000000000000000000, -0.000000000000000000, -1.000000000000000000 ) ) ;
#871 = CARTESIAN_POINT ( 'NONE',  ( -99.58799734748014032, -37.27692307692306883, 5.000000000000000000 ) ) ;
#872 = ORIENTED_EDGE ( 'NONE', *, *, #213, .T. ) ;
#873 = ORIENTED_EDGE ( 'NONE', *, *, #312, .T. ) ;
#874 = DIRECTION ( 'NONE',  ( -1.000000000000000000, 0.000000000000000000, 0.000000000000000000 ) ) ;
#875 = PLANE ( 'NONE',  #825 ) ;
#876 = EDGE_CURVE ( 'NONE', #346, #112, #624, .T. ) ;
#877 = VECTOR ( 'NONE', #599, 1000.000000000000000 ) ;
#878 = CIRCLE ( 'NONE', #686, 4.699999999999999289 ) ;
#879 = CARTESIAN_POINT ( 'NONE',  ( 11.91200265251986856, -3.776923076923073719, 2.000000000000000000 ) ) ;
#880 = AXIS2_PLACEMENT_3D ( 'NONE', #2, #89, #398 ) ;
#881 = CARTESIAN_POINT ( 'NONE',  ( -30.78799734748011474, -3.776923076923073719, 2.000000000000000000 ) ) ;
ENDSEC;
END-ISO-10303-21;
