ISO-10303-21;
HEADER;
FILE_DESCRIPTION (( 'STEP AP214' ),
    '1' );
FILE_NAME ('z2.STEP',
    '2026-01-21T22:12:32',
    ( '' ),
    ( '' ),
    'SwSTEP 2.0',
    'SolidWorks 2024',
    '' );
FILE_SCHEMA (( 'AUTOMOTIVE_DESIGN' ));
ENDSEC;

DATA;
#1 = DIRECTION ( 'NONE',  ( 1.000000000000000000, -0.000000000000000000, -0.000000000000000000 ) ) ;
#2 = CARTESIAN_POINT ( 'NONE',  ( 0.000000000000000000, 0.000000000000000000, 0.000000000000000000 ) ) ;
#3 = CARTESIAN_POINT ( 'NONE',  ( 85.95049815887381328, 10.75305895439379711, 0.000000000000000000 ) ) ;
#4 = LINE ( 'NONE', #231, #461 ) ;
#5 = ADVANCED_FACE ( 'NONE', ( #495 ), #743, .F. ) ;
#6 = CIRCLE ( 'NONE', #233, 4.699999999999999289 ) ;
#7 = CARTESIAN_POINT ( 'NONE',  ( -82.04950184112617251, 23.75305895439376158, 0.000000000000000000 ) ) ;
#8 = CARTESIAN_POINT ( 'NONE',  ( 101.9504981588738133, 0.7530589543937766805, 10.00000000000000000 ) ) ;
#9 = EDGE_LOOP ( 'NONE', ( #309, #254 ) ) ;
#10 = LINE ( 'NONE', #289, #581 ) ;
#11 = ORIENTED_EDGE ( 'NONE', *, *, #333, .T. ) ;
#12 = EDGE_CURVE ( 'NONE', #669, #422, #79, .T. ) ;
#13 = LINE ( 'NONE', #414, #247 ) ;
#14 = VERTEX_POINT ( 'NONE', #342 ) ;
#15 = FACE_OUTER_BOUND ( 'NONE', #480, .T. ) ;
#16 = CARTESIAN_POINT ( 'NONE',  ( 99.95049815887381328, 23.75305895439378290, 5.000000000000000000 ) ) ;
#17 = VERTEX_POINT ( 'NONE', #225 ) ;
#18 = EDGE_CURVE ( 'NONE', #20, #70, #315, .T. ) ;
#19 = VECTOR ( 'NONE', #270, 1000.000000000000000 ) ;
#20 = VERTEX_POINT ( 'NONE', #603 ) ;
#21 = FACE_OUTER_BOUND ( 'NONE', #328, .T. ) ;
#22 = EDGE_CURVE ( 'NONE', #168, #274, #188, .T. ) ;
#23 = EDGE_LOOP ( 'NONE', ( #257, #307 ) ) ;
#24 =( NAMED_UNIT ( * ) PLANE_ANGLE_UNIT ( ) SI_UNIT ( $, .RADIAN. ) );
#25 = EDGE_LOOP ( 'NONE', ( #661, #283, #357, #619 ) ) ;
#26 = CARTESIAN_POINT ( 'NONE',  ( 85.95049815887381328, -24.24694104560622776, 5.000000000000000000 ) ) ;
#27 = CARTESIAN_POINT ( 'NONE',  ( -80.04950184112615830, 25.75305895439378290, 0.000000000000000000 ) ) ;
#28 = ORIENTED_EDGE ( 'NONE', *, *, #18, .F. ) ;
#29 = LINE ( 'NONE', #739, #633 ) ;
#30 = AXIS2_PLACEMENT_3D ( 'NONE', #292, #58, #655 ) ;
#31 = ORIENTED_EDGE ( 'NONE', *, *, #621, .T. ) ;
#32 = SURFACE_STYLE_FILL_AREA ( #550 ) ;
#33 = AXIS2_PLACEMENT_3D ( 'NONE', #605, #202, #302 ) ;
#34 = FACE_OUTER_BOUND ( 'NONE', #512, .T. ) ;
#35 = VERTEX_POINT ( 'NONE', #709 ) ;
#36 = FACE_OUTER_BOUND ( 'NONE', #708, .T. ) ;
#37 = CARTESIAN_POINT ( 'NONE',  ( 96.95049815887381328, -24.24694104560622421, 5.000000000000000000 ) ) ;
#38 = CARTESIAN_POINT ( 'NONE',  ( -77.04950184112617251, -24.24694104560622421, 20.00000000000000000 ) ) ;
#39 = DIRECTION ( 'NONE',  ( -1.000000000000000000, -0.000000000000000000, -0.000000000000000000 ) ) ;
#40 = ADVANCED_FACE ( 'NONE', ( #15 ), #586, .F. ) ;
#41 = PLANE ( 'NONE',  #339 ) ;
#42 = AXIS2_PLACEMENT_3D ( 'NONE', #360, #421, #558 ) ;
#43 = CARTESIAN_POINT ( 'NONE',  ( 99.95049815887381328, 23.75305895439378290, 0.000000000000000000 ) ) ;
#44 = FACE_BOUND ( 'NONE', #740, .T. ) ;
#45 = ORIENTED_EDGE ( 'NONE', *, *, #204, .F. ) ;
#46 = ORIENTED_EDGE ( 'NONE', *, *, #718, .T. ) ;
#47 = EDGE_CURVE ( 'NONE', #484, #627, #458, .T. ) ;
#48 = CARTESIAN_POINT ( 'NONE',  ( -77.04950184112617251, 0.7530589543937766805, 10.00000000000000000 ) ) ;
#49 = DIRECTION ( 'NONE',  ( 1.000000000000000000, -0.000000000000000000, -0.000000000000000000 ) ) ;
#50 = ORIENTED_EDGE ( 'NONE', *, *, #271, .F. ) ;
#51 = ORIENTED_EDGE ( 'NONE', *, *, #729, .T. ) ;
#52 = AXIS2_PLACEMENT_3D ( 'NONE', #472, #662, #123 ) ;
#53 = CARTESIAN_POINT ( 'NONE',  ( 101.9504981588738133, 0.7530589543937772357, 14.69999999999999929 ) ) ;
#54 = EDGE_LOOP ( 'NONE', ( #347, #350, #221, #187 ) ) ;
#55 = VECTOR ( 'NONE', #726, 1000.000000000000000 ) ;
#56 = AXIS2_PLACEMENT_3D ( 'NONE', #377, #577, #628 ) ;
#57 = DIRECTION ( 'NONE',  ( -1.000000000000000000, 0.000000000000000000, 0.000000000000000000 ) ) ;
#58 = DIRECTION ( 'NONE',  ( -1.000000000000000000, -0.000000000000000000, -0.000000000000000000 ) ) ;
#59 = FACE_OUTER_BOUND ( 'NONE', #335, .T. ) ;
#60 = CARTESIAN_POINT ( 'NONE',  ( -82.04950184112617251, 0.7530589543937766805, 10.00000000000000000 ) ) ;
#61 = EDGE_CURVE ( 'NONE', #720, #415, #171, .T. ) ;
#62 = DIRECTION ( 'NONE',  ( -1.000000000000000000, -0.000000000000000000, -0.000000000000000000 ) ) ;
#63 = ORIENTED_EDGE ( 'NONE', *, *, #402, .F. ) ;
#64 = CARTESIAN_POINT ( 'NONE',  ( -80.04950184112615830, 25.75305895439377935, 5.000000000000000000 ) ) ;
#65 = EDGE_CURVE ( 'NONE', #471, #610, #416, .T. ) ;
#66 =( GEOMETRIC_REPRESENTATION_CONTEXT ( 3 ) GLOBAL_UNCERTAINTY_ASSIGNED_CONTEXT ( ( #185 ) ) GLOBAL_UNIT_ASSIGNED_CONTEXT ( ( #306, #24, #493 ) ) REPRESENTATION_CONTEXT ( 'NONE', 'WORKASPACE' ) );
#67 = ORIENTED_EDGE ( 'NONE', *, *, #141, .T. ) ;
#68 =( GEOMETRIC_REPRESENTATION_CONTEXT ( 3 ) GLOBAL_UNCERTAINTY_ASSIGNED_CONTEXT ( ( #232 ) ) GLOBAL_UNIT_ASSIGNED_CONTEXT ( ( #234, #390, #398 ) ) REPRESENTATION_CONTEXT ( 'NONE', 'WORKASPACE' ) );
#69 = DIRECTION ( 'NONE',  ( 0.000000000000000000, 0.000000000000000000, 1.000000000000000000 ) ) ;
#70 = VERTEX_POINT ( 'NONE', #297 ) ;
#71 = CARTESIAN_POINT ( 'NONE',  ( -66.04950184112617251, 10.75305895439377935, 5.000000000000000000 ) ) ;
#72 = EDGE_CURVE ( 'NONE', #14, #415, #401, .T. ) ;
#73 = LINE ( 'NONE', #140, #596 ) ;
#74 = ORIENTED_EDGE ( 'NONE', *, *, #683, .F. ) ;
#75 = DIRECTION ( 'NONE',  ( -1.255391989193742158E-16, 1.000000000000000000, 0.000000000000000000 ) ) ;
#76 = EDGE_CURVE ( 'NONE', #507, #484, #358, .T. ) ;
#77 = SURFACE_SIDE_STYLE ('',( #32 ) ) ;
#78 = ORIENTED_EDGE ( 'NONE', *, *, #146, .F. ) ;
#79 = CIRCLE ( 'NONE', #663, 4.699999999999999289 ) ;
#80 = CIRCLE ( 'NONE', #337, 2.399999999999982148 ) ;
#81 = ORIENTED_EDGE ( 'NONE', *, *, #410, .F. ) ;
#82 = CARTESIAN_POINT ( 'NONE',  ( 101.9504981588738133, 23.75305895439376513, 0.000000000000000000 ) ) ;
#83 = CARTESIAN_POINT ( 'NONE',  ( 101.9504981588738133, 0.7530589543937772357, 14.69999999999999929 ) ) ;
#84 = ADVANCED_FACE ( 'NONE', ( #460 ), #713, .F. ) ;
#85 = ORIENTED_EDGE ( 'NONE', *, *, #259, .T. ) ;
#86 = ORIENTED_EDGE ( 'NONE', *, *, #76, .F. ) ;
#87 = VECTOR ( 'NONE', #525, 1000.000000000000000 ) ;
#88 = LINE ( 'NONE', #318, #355 ) ;
#89 = AXIS2_PLACEMENT_3D ( 'NONE', #117, #346, #69 ) ;
#90 = FACE_BOUND ( 'NONE', #9, .T. ) ;
#91 = ADVANCED_BREP_SHAPE_REPRESENTATION ( 'z2', ( #534, #549 ), #68 ) ;
#92 = AXIS2_PLACEMENT_3D ( 'NONE', #624, #756, #326 ) ;
#93 = ORIENTED_EDGE ( 'NONE', *, *, #651, .T. ) ;
#94 = CARTESIAN_POINT ( 'NONE',  ( 99.65049815887381612, 0.7530589543937770136, 7.600000000000012967 ) ) ;
#95 = EDGE_CURVE ( 'NONE', #494, #174, #301, .T. ) ;
#96 = DIRECTION ( 'NONE',  ( 1.000000000000000000, 0.000000000000000000, 0.000000000000000000 ) ) ;
#97 = CARTESIAN_POINT ( 'NONE',  ( -66.04950184112617251, 10.75305895439377935, 5.000000000000000000 ) ) ;
#98 = CARTESIAN_POINT ( 'NONE',  ( 85.95049815887381328, -24.24694104560622776, 5.000000000000000000 ) ) ;
#99 = CARTESIAN_POINT ( 'NONE',  ( -82.04950184112617251, -24.24694104560622421, 5.000000000000000000 ) ) ;
#100 = ORIENTED_EDGE ( 'NONE', *, *, #718, .F. ) ;
#101 = STYLED_ITEM ( 'NONE', ( #199 ), #534 ) ;
#102 = ADVANCED_FACE ( 'NONE', ( #345 ), #766, .F. ) ;
#103 = DIRECTION ( 'NONE',  ( 0.000000000000000000, -0.000000000000000000, 1.000000000000000000 ) ) ;
#104 = DIRECTION ( 'NONE',  ( 0.000000000000000000, 0.000000000000000000, -1.000000000000000000 ) ) ;
#105 = ORIENTED_EDGE ( 'NONE', *, *, #151, .T. ) ;
#106 = CARTESIAN_POINT ( 'NONE',  ( -82.04950184112617251, 0.7530589543937766805, 12.39999999999998259 ) ) ;
#107 = ORIENTED_EDGE ( 'NONE', *, *, #447, .T. ) ;
#108 = EDGE_LOOP ( 'NONE', ( #136, #687, #543, #364 ) ) ;
#109 = CLOSED_SHELL ( 'NONE', ( #419, #214, #102, #389, #584, #686, #5, #84, #312, #40, #235, #253, #635, #183, #276, #696, #757, #536, #492, #487, #338, #324, #462, #523 ) ) ;
#110 = VECTOR ( 'NONE', #559, 1000.000000000000000 ) ;
#111 = LINE ( 'NONE', #106, #316 ) ;
#112 = CARTESIAN_POINT ( 'NONE',  ( 101.9504981588738133, 23.75305895439376513, 0.000000000000000000 ) ) ;
#113 = AXIS2_PLACEMENT_3D ( 'NONE', #506, #641, #210 ) ;
#114 = EDGE_CURVE ( 'NONE', #420, #494, #10, .T. ) ;
#115 = DIRECTION ( 'NONE',  ( -0.000000000000000000, -1.000000000000000000, -0.000000000000000000 ) ) ;
#116 = DIRECTION ( 'NONE',  ( -0.000000000000000000, 1.000000000000000000, -0.000000000000000000 ) ) ;
#117 = CARTESIAN_POINT ( 'NONE',  ( -82.04950184112617251, 0.7530589543937766805, 10.00000000000000000 ) ) ;
#118 = ORIENTED_EDGE ( 'NONE', *, *, #146, .T. ) ;
#119 = PRODUCT_RELATED_PRODUCT_CATEGORY ( 'part', '', ( #450 ) ) ;
#120 = DIRECTION ( 'NONE',  ( 1.000000000000000000, 0.000000000000000000, 0.000000000000000000 ) ) ;
#121 = CARTESIAN_POINT ( 'NONE',  ( -82.04950184112617251, -24.24694104560622421, 20.00000000000000000 ) ) ;
#122 = ORIENTED_EDGE ( 'NONE', *, *, #333, .F. ) ;
#123 = DIRECTION ( 'NONE',  ( -1.000000000000000000, 0.000000000000000000, 0.000000000000000000 ) ) ;
#124 = EDGE_CURVE ( 'NONE', #759, #404, #4, .T. ) ;
#125 = VECTOR ( 'NONE', #241, 1000.000000000000114 ) ;
#126 = CIRCLE ( 'NONE', #92, 2.000000000000001776 ) ;
#127 = DIRECTION ( 'NONE',  ( 1.000000000000000000, 1.255391989193742158E-16, -0.000000000000000000 ) ) ;
#128 = ORIENTED_EDGE ( 'NONE', *, *, #644, .T. ) ;
#129 = CARTESIAN_POINT ( 'NONE',  ( -80.04950184112615830, 25.75305895439378290, 5.000000000000000000 ) ) ;
#130 = EDGE_CURVE ( 'NONE', #712, #575, #80, .T. ) ;
#131 = ORIENTED_EDGE ( 'NONE', *, *, #304, .F. ) ;
#132 = CARTESIAN_POINT ( 'NONE',  ( 101.9504981588738133, -24.24694104560622065, 0.000000000000000000 ) ) ;
#133 = EDGE_LOOP ( 'NONE', ( #143, #74, #279, #336 ) ) ;
#134 = PLANE ( 'NONE',  #544 ) ;
#135 = DIRECTION ( 'NONE',  ( 1.000000000000000000, 0.000000000000000000, 0.000000000000000000 ) ) ;
#136 = ORIENTED_EDGE ( 'NONE', *, *, #294, .F. ) ;
#137 = CARTESIAN_POINT ( 'NONE',  ( -82.04950184112617251, 23.75305895439376158, 20.00000000000000000 ) ) ;
#138 = ORIENTED_EDGE ( 'NONE', *, *, #12, .T. ) ;
#139 = VECTOR ( 'NONE', #381, 1000.000000000000000 ) ;
#140 = CARTESIAN_POINT ( 'NONE',  ( 85.95049815887381328, 10.75305895439379711, 5.000000000000000000 ) ) ;
#141 = EDGE_CURVE ( 'NONE', #168, #579, #592, .T. ) ;
#142 = DIRECTION ( 'NONE',  ( -1.000000000000000000, 0.000000000000000000, 0.000000000000000000 ) ) ;
#143 = ORIENTED_EDGE ( 'NONE', *, *, #566, .T. ) ;
#144 = PLANE ( 'NONE',  #33 ) ;
#145 = ORIENTED_EDGE ( 'NONE', *, *, #593, .T. ) ;
#146 = EDGE_CURVE ( 'NONE', #174, #370, #725, .T. ) ;
#147 = VERTEX_POINT ( 'NONE', #742 ) ;
#148 = CARTESIAN_POINT ( 'NONE',  ( 85.95049815887381328, -24.24694104560622776, 5.000000000000000000 ) ) ;
#149 = ORIENTED_EDGE ( 'NONE', *, *, #729, .F. ) ;
#150 = DIRECTION ( 'NONE',  ( -0.000000000000000000, -1.000000000000000000, -0.000000000000000000 ) ) ;
#151 = EDGE_CURVE ( 'NONE', #731, #404, #482, .T. ) ;
#152 = EDGE_LOOP ( 'NONE', ( #392, #224, #606, #179 ) ) ;
#153 = DIRECTION ( 'NONE',  ( 1.000000000000000000, 4.336808689942017736E-16, -0.000000000000000000 ) ) ;
#154 = VECTOR ( 'NONE', #497, 1000.000000000000000 ) ;
#155 = DIRECTION ( 'NONE',  ( 0.000000000000000000, 0.000000000000000000, 1.000000000000000000 ) ) ;
#156 = DIRECTION ( 'NONE',  ( -0.000000000000000000, -0.000000000000000000, -1.000000000000000000 ) ) ;
#157 = FACE_OUTER_BOUND ( 'NONE', #200, .T. ) ;
#158 = DIRECTION ( 'NONE',  ( -1.000000000000000000, 0.000000000000000000, 0.000000000000000000 ) ) ;
#159 = CARTESIAN_POINT ( 'NONE',  ( -82.04950184112617251, -24.24694104560622421, 5.000000000000000000 ) ) ;
#160 = ORIENTED_EDGE ( 'NONE', *, *, #563, .T. ) ;
#161 = VECTOR ( 'NONE', #116, 1000.000000000000000 ) ;
#162 = DIRECTION ( 'NONE',  ( 1.000000000000000000, 1.927470528863119542E-17, 0.000000000000000000 ) ) ;
#163 = PLANE ( 'NONE',  #452 ) ;
#164 = EDGE_CURVE ( 'NONE', #557, #731, #682, .T. ) ;
#165 = VECTOR ( 'NONE', #191, 1000.000000000000000 ) ;
#166 = FACE_BOUND ( 'NONE', #262, .T. ) ;
#167 = DIRECTION ( 'NONE',  ( -1.000000000000000000, -0.000000000000000000, -0.000000000000000000 ) ) ;
#168 = VERTEX_POINT ( 'NONE', #678 ) ;
#169 = CARTESIAN_POINT ( 'NONE',  ( 99.95049815887379907, 25.75305895439378290, 20.00000000000000000 ) ) ;
#170 = ORIENTED_EDGE ( 'NONE', *, *, #710, .F. ) ;
#171 = LINE ( 'NONE', #533, #688 ) ;
#172 = EDGE_CURVE ( 'NONE', #484, #642, #261, .T. ) ;
#173 = CARTESIAN_POINT ( 'NONE',  ( -80.04950184112615830, 25.75305895439378290, 20.00000000000000000 ) ) ;
#174 = VERTEX_POINT ( 'NONE', #82 ) ;
#175 = CARTESIAN_POINT ( 'NONE',  ( 85.95049815887381328, 10.75305895439379711, 5.000000000000000000 ) ) ;
#176 = AXIS2_PLACEMENT_3D ( 'NONE', #585, #597, #57 ) ;
#177 = CIRCLE ( 'NONE', #56, 2.399999999999987033 ) ;
#178 = FACE_OUTER_BOUND ( 'NONE', #260, .T. ) ;
#179 = ORIENTED_EDGE ( 'NONE', *, *, #611, .F. ) ;
#180 = DIRECTION ( 'NONE',  ( -0.000000000000000000, -0.000000000000000000, -1.000000000000000000 ) ) ;
#181 = FACE_OUTER_BOUND ( 'NONE', #25, .T. ) ;
#182 = ORIENTED_EDGE ( 'NONE', *, *, #151, .F. ) ;
#183 = ADVANCED_FACE ( 'NONE', ( #21 ), #372, .T. ) ;
#184 = DIRECTION ( 'NONE',  ( 0.000000000000000000, 0.000000000000000000, 1.000000000000000000 ) ) ;
#185 = UNCERTAINTY_MEASURE_WITH_UNIT (LENGTH_MEASURE( 1.000000000000000082E-05 ), #306, 'distance_accuracy_value', 'NONE');
#186 = DIRECTION ( 'NONE',  ( -1.000000000000000000, -0.000000000000000000, -0.000000000000000000 ) ) ;
#187 = ORIENTED_EDGE ( 'NONE', *, *, #616, .T. ) ;
#188 = LINE ( 'NONE', #243, #451 ) ;
#189 = CIRCLE ( 'NONE', #547, 2.000000000000001776 ) ;
#190 = CIRCLE ( 'NONE', #571, 2.399999999999987033 ) ;
#191 = DIRECTION ( 'NONE',  ( -1.000000000000000000, -0.000000000000000000, -0.000000000000000000 ) ) ;
#192 = ORIENTED_EDGE ( 'NONE', *, *, #469, .F. ) ;
#193 = DIRECTION ( 'NONE',  ( 0.000000000000000000, 0.000000000000000000, 1.000000000000000000 ) ) ;
#194 = EDGE_LOOP ( 'NONE', ( #741, #296, #63, #454 ) ) ;
#195 = EDGE_CURVE ( 'NONE', #14, #147, #368, .T. ) ;
#196 = FACE_OUTER_BOUND ( 'NONE', #406, .T. ) ;
#197 = ORIENTED_EDGE ( 'NONE', *, *, #748, .T. ) ;
#198 = PRESENTATION_LAYER_ASSIGNMENT (  '', '', ( #101 ) ) ;
#199 = PRESENTATION_STYLE_ASSIGNMENT (( #488 ) ) ;
#200 = EDGE_LOOP ( 'NONE', ( #118, #45, #242, #197 ) ) ;
#201 = VERTEX_POINT ( 'NONE', #552 ) ;
#202 = DIRECTION ( 'NONE',  ( 0.000000000000000000, 0.000000000000000000, 1.000000000000000000 ) ) ;
#203 = ORIENTED_EDGE ( 'NONE', *, *, #621, .F. ) ;
#204 = EDGE_CURVE ( 'NONE', #654, #370, #311, .T. ) ;
#205 = CARTESIAN_POINT ( 'NONE',  ( -66.04950184112617251, 10.75305895439377935, 5.000000000000000000 ) ) ;
#206 = CARTESIAN_POINT ( 'NONE',  ( 101.9504981588738133, -24.24694104560622065, 5.000000000000000000 ) ) ;
#207 = FACE_OUTER_BOUND ( 'NONE', #291, .T. ) ;
#208 = LINE ( 'NONE', #206, #341 ) ;
#209 = VECTOR ( 'NONE', #115, 1000.000000000000000 ) ;
#210 = DIRECTION ( 'NONE',  ( 0.000000000000000000, 0.000000000000000000, 1.000000000000000000 ) ) ;
#211 = LINE ( 'NONE', #572, #532 ) ;
#212 = CARTESIAN_POINT ( 'NONE',  ( -82.04950184112617251, 0.7530589543937766805, 14.69999999999999929 ) ) ;
#213 = DIRECTION ( 'NONE',  ( 0.000000000000000000, 0.000000000000000000, 1.000000000000000000 ) ) ;
#214 = ADVANCED_FACE ( 'NONE', ( #486 ), #397, .F. ) ;
#215 = CYLINDRICAL_SURFACE ( 'NONE', #636, 2.000000000000001776 ) ;
#216 = ORIENTED_EDGE ( 'NONE', *, *, #710, .T. ) ;
#217 = ORIENTED_EDGE ( 'NONE', *, *, #664, .F. ) ;
#218 = AXIS2_PLACEMENT_3D ( 'NONE', #175, #75, #721 ) ;
#219 = DIRECTION ( 'NONE',  ( 0.000000000000000000, 0.000000000000000000, -1.000000000000000000 ) ) ;
#220 = VECTOR ( 'NONE', #517, 1000.000000000000000 ) ;
#221 = ORIENTED_EDGE ( 'NONE', *, *, #264, .F. ) ;
#222 = AXIS2_PLACEMENT_3D ( 'NONE', #48, #158, #213 ) ;
#223 = DIRECTION ( 'NONE',  ( 0.000000000000000000, 0.000000000000000000, 1.000000000000000000 ) ) ;
#224 = ORIENTED_EDGE ( 'NONE', *, *, #705, .T. ) ;
#225 = CARTESIAN_POINT ( 'NONE',  ( -77.04950184112617251, 0.7530589543937770136, 7.600000000000018296 ) ) ;
#226 = EDGE_CURVE ( 'NONE', #201, #274, #29, .T. ) ;
#227 = FACE_OUTER_BOUND ( 'NONE', #194, .T. ) ;
#228 = DIRECTION ( 'NONE',  ( -0.000000000000000000, -0.000000000000000000, -1.000000000000000000 ) ) ;
#229 = LINE ( 'NONE', #473, #612 ) ;
#230 = ORIENTED_EDGE ( 'NONE', *, *, #195, .T. ) ;
#231 = CARTESIAN_POINT ( 'NONE',  ( -82.04950184112617251, -24.24694104560622421, 0.000000000000000000 ) ) ;
#232 = UNCERTAINTY_MEASURE_WITH_UNIT (LENGTH_MEASURE( 1.000000000000000082E-05 ), #234, 'distance_accuracy_value', 'NONE');
#233 = AXIS2_PLACEMENT_3D ( 'NONE', #580, #530, #394 ) ;
#234 =( LENGTH_UNIT ( ) NAMED_UNIT ( * ) SI_UNIT ( .MILLI., .METRE. ) );
#235 = ADVANCED_FACE ( 'NONE', ( #90, #34 ), #134, .F. ) ;
#236 = DIRECTION ( 'NONE',  ( 1.000000000000000000, -0.000000000000000000, -0.000000000000000000 ) ) ;
#237 = ORIENTED_EDGE ( 'NONE', *, *, #683, .T. ) ;
#238 = DIRECTION ( 'NONE',  ( -1.000000000000000000, -1.927470528863119542E-17, -0.000000000000000000 ) ) ;
#239 = ORIENTED_EDGE ( 'NONE', *, *, #226, .T. ) ;
#240 = EDGE_CURVE ( 'NONE', #420, #723, #391, .T. ) ;
#241 = DIRECTION ( 'NONE',  ( -0.7071067811865451302, 8.659560562354961208E-17, -0.7071067811865499042 ) ) ;
#242 = ORIENTED_EDGE ( 'NONE', *, *, #439, .F. ) ;
#243 = CARTESIAN_POINT ( 'NONE',  ( 96.95049815887381328, -24.24694104560622421, 5.000000000000000000 ) ) ;
#244 = LINE ( 'NONE', #425, #165 ) ;
#245 = EDGE_LOOP ( 'NONE', ( #170, #393, #11, #50 ) ) ;
#246 = CARTESIAN_POINT ( 'NONE',  ( 99.95049815887379907, 25.75305895439378290, 5.000000000000000000 ) ) ;
#247 = VECTOR ( 'NONE', #707, 1000.000000000000000 ) ;
#248 = CIRCLE ( 'NONE', #222, 2.399999999999982148 ) ;
#249 = ORIENTED_EDGE ( 'NONE', *, *, #164, .T. ) ;
#250 = DIRECTION ( 'NONE',  ( 0.000000000000000000, 0.000000000000000000, -1.000000000000000000 ) ) ;
#251 = ORIENTED_EDGE ( 'NONE', *, *, #172, .F. ) ;
#252 = DIRECTION ( 'NONE',  ( -1.000000000000000000, 0.000000000000000000, 0.000000000000000000 ) ) ;
#253 = ADVANCED_FACE ( 'NONE', ( #157 ), #215, .T. ) ;
#254 = ORIENTED_EDGE ( 'NONE', *, *, #475, .F. ) ;
#255 = ORIENTED_EDGE ( 'NONE', *, *, #644, .F. ) ;
#256 = PRODUCT_DEFINITION ( 'UNKNOWN', '', #599, #760 ) ;
#257 = ORIENTED_EDGE ( 'NONE', *, *, #130, .T. ) ;
#258 = DIRECTION ( 'NONE',  ( 0.000000000000000000, 0.000000000000000000, -1.000000000000000000 ) ) ;
#259 = EDGE_CURVE ( 'NONE', #70, #20, #305, .T. ) ;
#260 = EDGE_LOOP ( 'NONE', ( #313, #769, #676, #435 ) ) ;
#261 = LINE ( 'NONE', #728, #478 ) ;
#262 = EDGE_LOOP ( 'NONE', ( #413, #216 ) ) ;
#263 = LINE ( 'NONE', #637, #652 ) ;
#264 = EDGE_CURVE ( 'NONE', #35, #275, #699, .T. ) ;
#265 = CARTESIAN_POINT ( 'NONE',  ( -77.04950184112617251, 25.75305895439377935, 20.00000000000000000 ) ) ;
#266 = LINE ( 'NONE', #446, #502 ) ;
#267 = LINE ( 'NONE', #499, #19 ) ;
#268 = DIRECTION ( 'NONE',  ( 1.000000000000000000, 0.000000000000000000, 0.000000000000000000 ) ) ;
#269 = AXIS2_PLACEMENT_3D ( 'NONE', #43, #508, #444 ) ;
#270 = DIRECTION ( 'NONE',  ( -0.000000000000000000, -0.000000000000000000, -1.000000000000000000 ) ) ;
#271 = EDGE_CURVE ( 'NONE', #737, #361, #697, .T. ) ;
#272 = PLANE ( 'NONE',  #269 ) ;
#273 = CARTESIAN_POINT ( 'NONE',  ( 99.95049815887381328, 23.75305895439378290, 5.000000000000000000 ) ) ;
#274 = VERTEX_POINT ( 'NONE', #37 ) ;
#275 = VERTEX_POINT ( 'NONE', #265 ) ;
#276 = ADVANCED_FACE ( 'NONE', ( #44, #378 ), #163, .F. ) ;
#277 = CARTESIAN_POINT ( 'NONE',  ( -66.04950184112617251, 10.75305895439377935, 0.000000000000000000 ) ) ;
#278 = DIRECTION ( 'NONE',  ( 0.000000000000000000, 0.000000000000000000, -1.000000000000000000 ) ) ;
#279 = ORIENTED_EDGE ( 'NONE', *, *, #47, .F. ) ;
#280 = EDGE_CURVE ( 'NONE', #727, #669, #631, .T. ) ;
#281 = CARTESIAN_POINT ( 'NONE',  ( -82.04950184112617251, 0.7530589543937766805, 10.00000000000000000 ) ) ;
#282 = ORIENTED_EDGE ( 'NONE', *, *, #65, .T. ) ;
#283 = ORIENTED_EDGE ( 'NONE', *, *, #593, .F. ) ;
#284 = CARTESIAN_POINT ( 'NONE',  ( 99.65049815887381612, 0.7530589543937766805, 12.39999999999998792 ) ) ;
#285 = EDGE_CURVE ( 'NONE', #370, #610, #386, .T. ) ;
#286 = DIRECTION ( 'NONE',  ( -0.000000000000000000, 1.000000000000000000, -0.000000000000000000 ) ) ;
#287 = DIRECTION ( 'NONE',  ( 1.000000000000000000, 0.000000000000000000, 0.000000000000000000 ) ) ;
#288 = CARTESIAN_POINT ( 'NONE',  ( -66.04950184112617251, -24.24694104560622421, 5.000000000000000000 ) ) ;
#289 = CARTESIAN_POINT ( 'NONE',  ( 101.9504981588738133, -24.24694104560622065, 5.000000000000000000 ) ) ;
#290 = LINE ( 'NONE', #169, #464 ) ;
#291 = EDGE_LOOP ( 'NONE', ( #449, #753, #734, #145 ) ) ;
#292 = CARTESIAN_POINT ( 'NONE',  ( -82.04950184112617251, 0.7530589543937766805, 10.00000000000000000 ) ) ;
#293 = VECTOR ( 'NONE', #268, 1000.000000000000000 ) ;
#294 = EDGE_CURVE ( 'NONE', #491, #727, #399, .T. ) ;
#295 = CARTESIAN_POINT ( 'NONE',  ( -79.74950184112618956, 0.7530589543937766805, 12.39999999999998792 ) ) ;
#296 = ORIENTED_EDGE ( 'NONE', *, *, #226, .F. ) ;
#297 = CARTESIAN_POINT ( 'NONE',  ( -82.04950184112617251, 0.7530589543937772357, 5.300000000000000711 ) ) ;
#298 = EDGE_LOOP ( 'NONE', ( #546, #388, #647, #237 ) ) ;
#299 = CARTESIAN_POINT ( 'NONE',  ( -66.04950184112617251, 10.75305895439377935, 0.000000000000000000 ) ) ;
#300 = ORIENTED_EDGE ( 'NONE', *, *, #526, .T. ) ;
#301 = LINE ( 'NONE', #112, #161 ) ;
#302 = DIRECTION ( 'NONE',  ( 1.000000000000000000, 0.000000000000000000, -0.000000000000000000 ) ) ;
#303 = ORIENTED_EDGE ( 'NONE', *, *, #349, .F. ) ;
#304 = EDGE_CURVE ( 'NONE', #361, #20, #745, .T. ) ;
#305 = CIRCLE ( 'NONE', #113, 4.699999999999999289 ) ;
#306 =( LENGTH_UNIT ( ) NAMED_UNIT ( * ) SI_UNIT ( .MILLI., .METRE. ) );
#307 = ORIENTED_EDGE ( 'NONE', *, *, #611, .T. ) ;
#308 = DIRECTION ( 'NONE',  ( -0.000000000000000000, -0.000000000000000000, -1.000000000000000000 ) ) ;
#309 = ORIENTED_EDGE ( 'NONE', *, *, #12, .F. ) ;
#310 = FACE_OUTER_BOUND ( 'NONE', #518, .T. ) ;
#311 = LINE ( 'NONE', #246, #110 ) ;
#312 = ADVANCED_FACE ( 'NONE', ( #330 ), #41, .F. ) ;
#313 = ORIENTED_EDGE ( 'NONE', *, *, #294, .T. ) ;
#314 = LINE ( 'NONE', #299, #665 ) ;
#315 = CIRCLE ( 'NONE', #30, 4.699999999999999289 ) ;
#316 = VECTOR ( 'NONE', #62, 1000.000000000000000 ) ;
#317 = VECTOR ( 'NONE', #656, 1000.000000000000000 ) ;
#318 = CARTESIAN_POINT ( 'NONE',  ( -82.04950184112617251, 0.7530589543937770136, 7.600000000000018296 ) ) ;
#319 = CARTESIAN_POINT ( 'NONE',  ( 101.9504981588738133, -24.24694104560622065, 20.00000000000000000 ) ) ;
#320 = DIRECTION ( 'NONE',  ( -0.000000000000000000, -0.000000000000000000, -1.000000000000000000 ) ) ;
#321 = DIRECTION ( 'NONE',  ( 0.000000000000000000, 0.000000000000000000, 1.000000000000000000 ) ) ;
#322 = FACE_OUTER_BOUND ( 'NONE', #457, .T. ) ;
#323 = CYLINDRICAL_SURFACE ( 'NONE', #489, 2.399999999999982148 ) ;
#324 = ADVANCED_FACE ( 'NONE', ( #207 ), #453, .F. ) ;
#325 = VECTOR ( 'NONE', #613, 1000.000000000000000 ) ;
#326 = DIRECTION ( 'NONE',  ( 1.000000000000000000, 0.000000000000000000, 0.000000000000000000 ) ) ;
#327 = AXIS2_PLACEMENT_3D ( 'NONE', #618, #732, #356 ) ;
#328 = EDGE_LOOP ( 'NONE', ( #93, #303, #100, #282 ) ) ;
#329 = PLANE ( 'NONE',  #762 ) ;
#330 = FACE_OUTER_BOUND ( 'NONE', #595, .T. ) ;
#331 = ORIENTED_EDGE ( 'NONE', *, *, #47, .T. ) ;
#332 = ORIENTED_EDGE ( 'NONE', *, *, #114, .F. ) ;
#333 = EDGE_CURVE ( 'NONE', #733, #361, #515, .T. ) ;
#334 = CARTESIAN_POINT ( 'NONE',  ( 99.95049815887381328, 23.75305895439378290, 20.00000000000000000 ) ) ;
#335 = EDGE_LOOP ( 'NONE', ( #700, #716, #107, #551, #31 ) ) ;
#336 = ORIENTED_EDGE ( 'NONE', *, *, #172, .T. ) ;
#337 = AXIS2_PLACEMENT_3D ( 'NONE', #717, #411, #405 ) ;
#338 = ADVANCED_FACE ( 'NONE', ( #693 ), #323, .F. ) ;
#339 = AXIS2_PLACEMENT_3D ( 'NONE', #98, #96, #219 ) ;
#340 = DIRECTION ( 'NONE',  ( -0.000000000000000000, 1.000000000000000000, -0.000000000000000000 ) ) ;
#341 = VECTOR ( 'NONE', #153, 1000.000000000000000 ) ;
#342 = CARTESIAN_POINT ( 'NONE',  ( 85.95049815887381328, 10.75305895439379711, 5.000000000000000000 ) ) ;
#343 = PRODUCT_CONTEXT ( 'NONE', #590, 'mechanical' ) ;
#344 = CYLINDRICAL_SURFACE ( 'NONE', #583, 2.399999999999982148 ) ;
#345 = FACE_OUTER_BOUND ( 'NONE', #245, .T. ) ;
#346 = DIRECTION ( 'NONE',  ( -1.000000000000000000, -0.000000000000000000, -0.000000000000000000 ) ) ;
#347 = ORIENTED_EDGE ( 'NONE', *, *, #383, .T. ) ;
#348 = DIRECTION ( 'NONE',  ( -1.000000000000000000, -0.000000000000000000, -0.000000000000000000 ) ) ;
#349 = EDGE_CURVE ( 'NONE', #557, #759, #267, .T. ) ;
#350 = ORIENTED_EDGE ( 'NONE', *, *, #369, .F. ) ;
#351 = APPLICATION_PROTOCOL_DEFINITION ( 'draft international standard', 'automotive_design', 1998, #590 ) ;
#352 = CARTESIAN_POINT ( 'NONE',  ( 101.9504981588738133, -24.24694104560622065, 0.000000000000000000 ) ) ;
#353 = ORIENTED_EDGE ( 'NONE', *, *, #141, .F. ) ;
#354 = CARTESIAN_POINT ( 'NONE',  ( 101.9504981588738133, -24.24694104560622065, 5.000000000000000000 ) ) ;
#355 = VECTOR ( 'NONE', #496, 1000.000000000000000 ) ;
#356 = DIRECTION ( 'NONE',  ( 0.000000000000000000, 0.000000000000000000, -1.000000000000000000 ) ) ;
#357 = ORIENTED_EDGE ( 'NONE', *, *, #304, .T. ) ;
#358 = LINE ( 'NONE', #649, #623 ) ;
#359 = EDGE_CURVE ( 'NONE', #733, #70, #504, .T. ) ;
#360 = CARTESIAN_POINT ( 'NONE',  ( -77.04950184112617251, 0.7530589543937766805, 10.00000000000000000 ) ) ;
#361 = VERTEX_POINT ( 'NONE', #295 ) ;
#362 = CARTESIAN_POINT ( 'NONE',  ( 101.9504981588738133, 23.75305895439376513, 5.000000000000000000 ) ) ;
#363 = LINE ( 'NONE', #668, #55 ) ;
#364 = ORIENTED_EDGE ( 'NONE', *, *, #280, .F. ) ;
#365 = CIRCLE ( 'NONE', #42, 2.399999999999982148 ) ;
#366 = DIRECTION ( 'NONE',  ( 0.7071067811865451302, 8.659560562354961208E-17, 0.7071067811865499042 ) ) ;
#367 = ORIENTED_EDGE ( 'NONE', *, *, #671, .T. ) ;
#368 = LINE ( 'NONE', #26, #438 ) ;
#369 = EDGE_CURVE ( 'NONE', #275, #579, #229, .T. ) ;
#370 = VERTEX_POINT ( 'NONE', #719 ) ;
#371 = DIRECTION ( 'NONE',  ( -1.000000000000000000, 0.000000000000000000, 0.000000000000000000 ) ) ;
#372 = CYLINDRICAL_SURFACE ( 'NONE', #528, 2.000000000000001776 ) ;
#373 = ORIENTED_EDGE ( 'NONE', *, *, #285, .T. ) ;
#374 = CARTESIAN_POINT ( 'NONE',  ( -82.04950184112617251, -24.24694104560622421, 20.00000000000000000 ) ) ;
#375 = CARTESIAN_POINT ( 'NONE',  ( -82.04950184112617251, 0.7530589543937766805, 10.00000000000000000 ) ) ;
#376 = ORIENTED_EDGE ( 'NONE', *, *, #671, .F. ) ;
#377 = CARTESIAN_POINT ( 'NONE',  ( 99.65049815887381612, 0.7530589543937766805, 10.00000000000000000 ) ) ;
#378 = FACE_OUTER_BOUND ( 'NONE', #433, .T. ) ;
#379 = CARTESIAN_POINT ( 'NONE',  ( 96.95049815887381328, 0.7530589543937766805, 12.39999999999998259 ) ) ;
#380 = EDGE_CURVE ( 'NONE', #491, #712, #111, .T. ) ;
#381 = DIRECTION ( 'NONE',  ( 0.000000000000000000, 1.000000000000000000, 0.000000000000000000 ) ) ;
#382 = CARTESIAN_POINT ( 'NONE',  ( -80.04950184112615830, 25.75305895439377935, 5.000000000000000000 ) ) ;
#383 = EDGE_CURVE ( 'NONE', #507, #579, #722, .T. ) ;
#384 = DIRECTION ( 'NONE',  ( -0.7071067811865451302, 0.000000000000000000, 0.7071067811865499042 ) ) ;
#385 = LINE ( 'NONE', #38, #626 ) ;
#386 = LINE ( 'NONE', #758, #154 ) ;
#387 = ORIENTED_EDGE ( 'NONE', *, *, #432, .T. ) ;
#388 = ORIENTED_EDGE ( 'NONE', *, *, #72, .F. ) ;
#389 = ADVANCED_FACE ( 'NONE', ( #178 ), #344, .F. ) ;
#390 =( NAMED_UNIT ( * ) PLANE_ANGLE_UNIT ( ) SI_UNIT ( $, .RADIAN. ) );
#391 = LINE ( 'NONE', #319, #139 ) ;
#392 = ORIENTED_EDGE ( 'NONE', *, *, #553, .F. ) ;
#393 = ORIENTED_EDGE ( 'NONE', *, *, #736, .T. ) ;
#394 = DIRECTION ( 'NONE',  ( 0.000000000000000000, 0.000000000000000000, -1.000000000000000000 ) ) ;
#395 = ORIENTED_EDGE ( 'NONE', *, *, #526, .F. ) ;
#396 = DIRECTION ( 'NONE',  ( 1.000000000000000000, 1.255391989193742158E-16, -0.000000000000000000 ) ) ;
#397 = CONICAL_SURFACE ( 'NONE', #608, 4.699999999999999289, 0.7853981633974517207 ) ;
#398 =( NAMED_UNIT ( * ) SI_UNIT ( $, .STERADIAN. ) SOLID_ANGLE_UNIT ( ) );
#399 = CIRCLE ( 'NONE', #513, 2.399999999999987033 ) ;
#400 = CARTESIAN_POINT ( 'NONE',  ( 96.95049815887381328, -24.24694104560622421, 20.00000000000000000 ) ) ;
#401 = LINE ( 'NONE', #539, #87 ) ;
#402 = EDGE_CURVE ( 'NONE', #614, #201, #13, .T. ) ;
#403 = CARTESIAN_POINT ( 'NONE',  ( -82.04950184112617251, -24.24694104560622421, 0.000000000000000000 ) ) ;
#404 = VERTEX_POINT ( 'NONE', #403 ) ;
#405 = DIRECTION ( 'NONE',  ( 0.000000000000000000, 0.000000000000000000, -1.000000000000000000 ) ) ;
#406 = EDGE_LOOP ( 'NONE', ( #670, #640, #703, #138 ) ) ;
#407 = LINE ( 'NONE', #514, #317 ) ;
#408 = LINE ( 'NONE', #520, #209 ) ;
#409 = ORIENTED_EDGE ( 'NONE', *, *, #432, .F. ) ;
#410 = EDGE_CURVE ( 'NONE', #731, #35, #715, .T. ) ;
#411 = DIRECTION ( 'NONE',  ( 1.000000000000000000, 0.000000000000000000, 0.000000000000000000 ) ) ;
#412 = VECTOR ( 'NONE', #286, 1000.000000000000000 ) ;
#413 = ORIENTED_EDGE ( 'NONE', *, *, #500, .T. ) ;
#414 = CARTESIAN_POINT ( 'NONE',  ( 96.95049815887381328, -24.24694104560622421, 20.00000000000000000 ) ) ;
#415 = VERTEX_POINT ( 'NONE', #3 ) ;
#416 = LINE ( 'NONE', #129, #648 ) ;
#417 = VECTOR ( 'NONE', #509, 1000.000000000000114 ) ;
#418 = AXIS2_PLACEMENT_3D ( 'NONE', #706, #455, #763 ) ;
#419 = ADVANCED_FACE ( 'NONE', ( #660 ), #761, .F. ) ;
#420 = VERTEX_POINT ( 'NONE', #465 ) ;
#421 = DIRECTION ( 'NONE',  ( -1.000000000000000000, 0.000000000000000000, 0.000000000000000000 ) ) ;
#422 = VERTEX_POINT ( 'NONE', #53 ) ;
#423 = CARTESIAN_POINT ( 'NONE',  ( 85.95049815887381328, -24.24694104560622776, 0.000000000000000000 ) ) ;
#424 = ORIENTED_EDGE ( 'NONE', *, *, #22, .F. ) ;
#425 = CARTESIAN_POINT ( 'NONE',  ( -82.04950184112617251, 0.7530589543937770136, 7.600000000000018296 ) ) ;
#426 = VECTOR ( 'NONE', #685, 1000.000000000000000 ) ;
#427 = CARTESIAN_POINT ( 'NONE',  ( -80.04950184112617251, 23.75305895439377935, 5.000000000000000000 ) ) ;
#428 = COLOUR_RGB ( '',0.7921568627450980005, 0.8196078431372548767, 0.9333333333333333481 ) ;
#429 = AXIS2_PLACEMENT_3D ( 'NONE', #684, #505, #632 ) ;
#430 = EDGE_LOOP ( 'NONE', ( #681, #300, #46, #249, #474 ) ) ;
#431 = CARTESIAN_POINT ( 'NONE',  ( 96.95049815887381328, 0.7530589543937770136, 7.600000000000018296 ) ) ;
#432 = EDGE_CURVE ( 'NONE', #604, #494, #459, .T. ) ;
#433 = EDGE_LOOP ( 'NONE', ( #617, #182, #582, #754 ) ) ;
#434 = LINE ( 'NONE', #148, #467 ) ;
#435 = ORIENTED_EDGE ( 'NONE', *, *, #380, .F. ) ;
#436 = CARTESIAN_POINT ( 'NONE',  ( 96.95049815887381328, 25.75305895439378290, 20.00000000000000000 ) ) ;
#437 = CARTESIAN_POINT ( 'NONE',  ( -79.74950184112618956, 0.7530589543937766805, 10.00000000000000000 ) ) ;
#438 = VECTOR ( 'NONE', #150, 1000.000000000000000 ) ;
#439 = EDGE_CURVE ( 'NONE', #723, #654, #189, .T. ) ;
#440 = VECTOR ( 'NONE', #456, 1000.000000000000000 ) ;
#441 = CIRCLE ( 'NONE', #429, 2.000000000000001776 ) ;
#442 = CARTESIAN_POINT ( 'NONE',  ( 101.9504981588738133, 0.7530589543937766805, 5.300000000000000711 ) ) ;
#443 = DIRECTION ( 'NONE',  ( 0.000000000000000000, 0.000000000000000000, 1.000000000000000000 ) ) ;
#444 = DIRECTION ( 'NONE',  ( -1.000000000000000000, 0.000000000000000000, 0.000000000000000000 ) ) ;
#445 = DIRECTION ( 'NONE',  ( -1.000000000000000000, -0.000000000000000000, -0.000000000000000000 ) ) ;
#446 = CARTESIAN_POINT ( 'NONE',  ( 101.9504981588738133, -24.24694104560622065, 20.00000000000000000 ) ) ;
#447 = EDGE_CURVE ( 'NONE', #654, #614, #290, .T. ) ;
#448 = DIRECTION ( 'NONE',  ( -0.000000000000000000, -0.000000000000000000, -1.000000000000000000 ) ) ;
#449 = ORIENTED_EDGE ( 'NONE', *, *, #736, .F. ) ;
#450 = PRODUCT ( 'z2', 'z2', '', ( #343 ) ) ;
#451 = VECTOR ( 'NONE', #659, 1000.000000000000000 ) ;
#452 = AXIS2_PLACEMENT_3D ( 'NONE', #159, #569, #278 ) ;
#453 = CYLINDRICAL_SURFACE ( 'NONE', #529, 2.399999999999982148 ) ;
#454 = ORIENTED_EDGE ( 'NONE', *, *, #664, .T. ) ;
#455 = DIRECTION ( 'NONE',  ( -1.000000000000000000, 0.000000000000000000, 0.000000000000000000 ) ) ;
#456 = DIRECTION ( 'NONE',  ( 1.000000000000000000, 0.000000000000000000, 0.000000000000000000 ) ) ;
#457 = EDGE_LOOP ( 'NONE', ( #373, #574, #395, #477, #353, #217, #541, #673 ) ) ;
#458 = LINE ( 'NONE', #71, #412 ) ;
#459 = LINE ( 'NONE', #352, #220 ) ;
#460 = FACE_OUTER_BOUND ( 'NONE', #298, .T. ) ;
#461 = VECTOR ( 'NONE', #468, 1000.000000000000000 ) ;
#462 = ADVANCED_FACE ( 'NONE', ( #181 ), #650, .F. ) ;
#463 = DIRECTION ( 'NONE',  ( 0.000000000000000000, 0.000000000000000000, 1.000000000000000000 ) ) ;
#464 = VECTOR ( 'NONE', #657, 1000.000000000000000 ) ;
#465 = CARTESIAN_POINT ( 'NONE',  ( 101.9504981588738133, -24.24694104560622065, 20.00000000000000000 ) ) ;
#466 = ORIENTED_EDGE ( 'NONE', *, *, #383, .F. ) ;
#467 = VECTOR ( 'NONE', #320, 1000.000000000000000 ) ;
#468 = DIRECTION ( 'NONE',  ( -0.000000000000000000, -1.000000000000000000, -0.000000000000000000 ) ) ;
#469 = EDGE_CURVE ( 'NONE', #415, #604, #408, .T. ) ;
#470 = DIRECTION ( 'NONE',  ( -0.000000000000000000, -0.000000000000000000, -1.000000000000000000 ) ) ;
#471 = VERTEX_POINT ( 'NONE', #173 ) ;
#472 = CARTESIAN_POINT ( 'NONE',  ( 99.95049815887381328, 23.75305895439378290, 0.000000000000000000 ) ) ;
#473 = CARTESIAN_POINT ( 'NONE',  ( -77.04950184112617251, 25.75305895439377935, 20.00000000000000000 ) ) ;
#474 = ORIENTED_EDGE ( 'NONE', *, *, #410, .T. ) ;
#475 = EDGE_CURVE ( 'NONE', #422, #669, #6, .T. ) ;
#476 = DIRECTION ( 'NONE',  ( 0.000000000000000000, 0.000000000000000000, 1.000000000000000000 ) ) ;
#477 = ORIENTED_EDGE ( 'NONE', *, *, #369, .T. ) ;
#478 = VECTOR ( 'NONE', #674, 1000.000000000000000 ) ;
#479 = DIRECTION ( 'NONE',  ( -0.000000000000000000, 0.000000000000000000, -1.000000000000000000 ) ) ;
#480 = EDGE_LOOP ( 'NONE', ( #387, #332, #203, #239, #376, #51 ) ) ;
#481 = VECTOR ( 'NONE', #167, 1000.000000000000000 ) ;
#482 = LINE ( 'NONE', #607, #325 ) ;
#483 = ORIENTED_EDGE ( 'NONE', *, *, #651, .F. ) ;
#484 = VERTEX_POINT ( 'NONE', #288 ) ;
#485 = FACE_OUTER_BOUND ( 'NONE', #430, .T. ) ;
#486 = FACE_OUTER_BOUND ( 'NONE', #765, .T. ) ;
#487 = ADVANCED_FACE ( 'NONE', ( #59 ), #589, .F. ) ;
#488 = SURFACE_STYLE_USAGE ( .BOTH. , #77 ) ;
#489 = AXIS2_PLACEMENT_3D ( 'NONE', #690, #445, #155 ) ;
#490 = VECTOR ( 'NONE', #366, 1000.000000000000114 ) ;
#491 = VERTEX_POINT ( 'NONE', #284 ) ;
#492 = ADVANCED_FACE ( 'NONE', ( #768, #227 ), #711, .F. ) ;
#493 =( NAMED_UNIT ( * ) SI_UNIT ( $, .STERADIAN. ) SOLID_ANGLE_UNIT ( ) );
#494 = VERTEX_POINT ( 'NONE', #132 ) ;
#495 = FACE_OUTER_BOUND ( 'NONE', #133, .T. ) ;
#496 = DIRECTION ( 'NONE',  ( -1.000000000000000000, -0.000000000000000000, -0.000000000000000000 ) ) ;
#497 = DIRECTION ( 'NONE',  ( -1.000000000000000000, -1.927470528863119542E-17, -0.000000000000000000 ) ) ;
#498 = DIRECTION ( 'NONE',  ( 1.000000000000000000, 6.938893903907222461E-16, -0.000000000000000000 ) ) ;
#499 = CARTESIAN_POINT ( 'NONE',  ( -82.04950184112617251, 23.75305895439376158, 5.000000000000000000 ) ) ;
#500 = EDGE_CURVE ( 'NONE', #737, #17, #365, .T. ) ;
#501 = AXIS2_PLACEMENT_3D ( 'NONE', #8, #236, #537 ) ;
#502 = VECTOR ( 'NONE', #498, 1000.000000000000000 ) ;
#503 = DIRECTION ( 'NONE',  ( -0.000000000000000000, -0.000000000000000000, -1.000000000000000000 ) ) ;
#504 = LINE ( 'NONE', #646, #125 ) ;
#505 = DIRECTION ( 'NONE',  ( 0.000000000000000000, 0.000000000000000000, 1.000000000000000000 ) ) ;
#506 = CARTESIAN_POINT ( 'NONE',  ( -82.04950184112617251, 0.7530589543937766805, 10.00000000000000000 ) ) ;
#507 = VERTEX_POINT ( 'NONE', #680 ) ;
#508 = DIRECTION ( 'NONE',  ( -0.000000000000000000, 0.000000000000000000, -1.000000000000000000 ) ) ;
#509 = DIRECTION ( 'NONE',  ( 0.7071067811865451302, 0.000000000000000000, -0.7071067811865499042 ) ) ;
#510 = ORIENTED_EDGE ( 'NONE', *, *, #72, .T. ) ;
#511 = VECTOR ( 'NONE', #238, 1000.000000000000000 ) ;
#512 = EDGE_LOOP ( 'NONE', ( #634, #601, #622, #643 ) ) ;
#513 = AXIS2_PLACEMENT_3D ( 'NONE', #638, #49, #104 ) ;
#514 = CARTESIAN_POINT ( 'NONE',  ( 101.9504981588738133, 23.75305895439376513, 5.000000000000000000 ) ) ;
#515 = CIRCLE ( 'NONE', #738, 2.399999999999987033 ) ;
#516 = AXIS2_PLACEMENT_3D ( 'NONE', #672, #135, #258 ) ;
#517 = DIRECTION ( 'NONE',  ( 1.000000000000000000, 4.336808689942017736E-16, -0.000000000000000000 ) ) ;
#518 = EDGE_LOOP ( 'NONE', ( #424, #67, #466, #602, #331, #160, #230, #367 ) ) ;
#519 = APPLICATION_PROTOCOL_DEFINITION ( 'draft international standard', 'automotive_design', 1998, #694 ) ;
#520 = CARTESIAN_POINT ( 'NONE',  ( 85.95049815887381328, -24.24694104560622776, 0.000000000000000000 ) ) ;
#521 = ORIENTED_EDGE ( 'NONE', *, *, #359, .T. ) ;
#522 = DIRECTION ( 'NONE',  ( -1.000000000000000000, 0.000000000000000000, 0.000000000000000000 ) ) ;
#523 = ADVANCED_FACE ( 'NONE', ( #196 ), #677, .F. ) ;
#524 = CARTESIAN_POINT ( 'NONE',  ( -77.04950184112617251, 25.75305895439377935, 5.000000000000000000 ) ) ;
#525 = DIRECTION ( 'NONE',  ( -0.000000000000000000, -0.000000000000000000, -1.000000000000000000 ) ) ;
#526 = EDGE_CURVE ( 'NONE', #275, #471, #363, .T. ) ;
#527 = PRODUCT_DEFINITION_SHAPE ( 'NONE', 'NONE',  #256 ) ;
#528 = AXIS2_PLACEMENT_3D ( 'NONE', #427, #308, #142 ) ;
#529 = AXIS2_PLACEMENT_3D ( 'NONE', #567, #578, #702 ) ;
#530 = DIRECTION ( 'NONE',  ( 1.000000000000000000, -0.000000000000000000, -0.000000000000000000 ) ) ;
#531 = ORIENTED_EDGE ( 'NONE', *, *, #95, .F. ) ;
#532 = VECTOR ( 'NONE', #156, 1000.000000000000000 ) ;
#533 = CARTESIAN_POINT ( 'NONE',  ( 85.95049815887381328, 10.75305895439379711, 0.000000000000000000 ) ) ;
#534 = MANIFOLD_SOLID_BREP ( '\X2\04170435043d043a043e0432043a0430\X0\ \X2\0434043b044f\X0\  \X2\04320438043d04420430\X0\ \X2\0441\X0\ \X2\043f043b043e0441043a043e0439\X0\ \X2\0433043e043b043e0432043a043e0439\X0\ M42', #109 ) ;
#535 = FACE_OUTER_BOUND ( 'NONE', #54, .T. ) ;
#536 = ADVANCED_FACE ( 'NONE', ( #485 ), #144, .T. ) ;
#537 = DIRECTION ( 'NONE',  ( 0.000000000000000000, 0.000000000000000000, -1.000000000000000000 ) ) ;
#538 = ORIENTED_EDGE ( 'NONE', *, *, #469, .T. ) ;
#539 = CARTESIAN_POINT ( 'NONE',  ( 85.95049815887381328, 10.75305895439379711, 5.000000000000000000 ) ) ;
#540 = PLANE ( 'NONE',  #747 ) ;
#541 = ORIENTED_EDGE ( 'NONE', *, *, #447, .F. ) ;
#542 = AXIS2_PLACEMENT_3D ( 'NONE', #205, #522, #476 ) ;
#543 = ORIENTED_EDGE ( 'NONE', *, *, #475, .T. ) ;
#544 = AXIS2_PLACEMENT_3D ( 'NONE', #362, #252, #321 ) ;
#545 = DIRECTION ( 'NONE',  ( -0.000000000000000000, 1.000000000000000000, -0.000000000000000000 ) ) ;
#546 = ORIENTED_EDGE ( 'NONE', *, *, #61, .T. ) ;
#547 = AXIS2_PLACEMENT_3D ( 'NONE', #334, #587, #764 ) ;
#548 = DIRECTION ( 'NONE',  ( 0.000000000000000000, 0.000000000000000000, 1.000000000000000000 ) ) ;
#549 = AXIS2_PLACEMENT_3D ( 'NONE', #2, #463, #287 ) ;
#550 = FILL_AREA_STYLE ('',( #609 ) ) ;
#551 = ORIENTED_EDGE ( 'NONE', *, *, #402, .T. ) ;
#552 = CARTESIAN_POINT ( 'NONE',  ( 96.95049815887381328, -24.24694104560622421, 20.00000000000000000 ) ) ;
#553 = EDGE_CURVE ( 'NONE', #727, #575, #244, .T. ) ;
#554 = DIRECTION ( 'NONE',  ( -1.000000000000000000, -0.000000000000000000, -0.000000000000000000 ) ) ;
#555 = EDGE_LOOP ( 'NONE', ( #255, #658, #483, #639, #78, #531, #409, #192, #591, #666 ) ) ;
#556 = DIRECTION ( 'NONE',  ( -1.000000000000000000, -0.000000000000000000, -0.000000000000000000 ) ) ;
#557 = VERTEX_POINT ( 'NONE', #675 ) ;
#558 = DIRECTION ( 'NONE',  ( 0.000000000000000000, 0.000000000000000000, 1.000000000000000000 ) ) ;
#559 = DIRECTION ( 'NONE',  ( -0.000000000000000000, -0.000000000000000000, -1.000000000000000000 ) ) ;
#560 = VECTOR ( 'NONE', #340, 1000.000000000000000 ) ;
#561 = AXIS2_PLACEMENT_3D ( 'NONE', #99, #692, #103 ) ;
#562 = CARTESIAN_POINT ( 'NONE',  ( -79.74950184112618956, 0.7530589543937770136, 7.600000000000012967 ) ) ;
#563 = EDGE_CURVE ( 'NONE', #627, #14, #73, .T. ) ;
#564 = CARTESIAN_POINT ( 'NONE',  ( 101.9504981588738133, 0.7530589543937766805, 5.300000000000000711 ) ) ;
#565 = DIRECTION ( 'NONE',  ( -0.000000000000000000, -0.000000000000000000, -1.000000000000000000 ) ) ;
#566 = EDGE_CURVE ( 'NONE', #642, #720, #314, .T. ) ;
#567 = CARTESIAN_POINT ( 'NONE',  ( -82.04950184112617251, 0.7530589543937766805, 10.00000000000000000 ) ) ;
#568 = LINE ( 'NONE', #746, #293 ) ;
#569 = DIRECTION ( 'NONE',  ( 1.000000000000000000, 0.000000000000000000, 0.000000000000000000 ) ) ;
#570 = VECTOR ( 'NONE', #629, 1000.000000000000000 ) ;
#571 = AXIS2_PLACEMENT_3D ( 'NONE', #730, #554, #193 ) ;
#572 = CARTESIAN_POINT ( 'NONE',  ( 96.95049815887381328, 25.75305895439378290, 20.00000000000000000 ) ) ;
#573 = CARTESIAN_POINT ( 'NONE',  ( -77.04950184112617251, 25.75305895439377935, 20.00000000000000000 ) ) ;
#574 = ORIENTED_EDGE ( 'NONE', *, *, #65, .F. ) ;
#575 = VERTEX_POINT ( 'NONE', #431 ) ;
#576 = EDGE_CURVE ( 'NONE', #491, #422, #615, .T. ) ;
#577 = DIRECTION ( 'NONE',  ( 1.000000000000000000, -0.000000000000000000, -0.000000000000000000 ) ) ;
#578 = DIRECTION ( 'NONE',  ( -1.000000000000000000, -0.000000000000000000, -0.000000000000000000 ) ) ;
#579 = VERTEX_POINT ( 'NONE', #735 ) ;
#580 = CARTESIAN_POINT ( 'NONE',  ( 101.9504981588738133, 0.7530589543937766805, 10.00000000000000000 ) ) ;
#581 = VECTOR ( 'NONE', #180, 1000.000000000000000 ) ;
#582 = ORIENTED_EDGE ( 'NONE', *, *, #164, .F. ) ;
#583 = AXIS2_PLACEMENT_3D ( 'NONE', #281, #186, #223 ) ;
#584 = ADVANCED_FACE ( 'NONE', ( #310 ), #540, .F. ) ;
#585 = CARTESIAN_POINT ( 'NONE',  ( 99.95049815887381328, 23.75305895439378290, 20.00000000000000000 ) ) ;
#586 = PLANE ( 'NONE',  #755 ) ;
#587 = DIRECTION ( 'NONE',  ( 0.000000000000000000, 0.000000000000000000, 1.000000000000000000 ) ) ;
#588 = DIRECTION ( 'NONE',  ( -1.000000000000000000, -4.336808689942017736E-16, 0.000000000000000000 ) ) ;
#589 = PLANE ( 'NONE',  #176 ) ;
#590 = APPLICATION_CONTEXT ( 'automotive_design' ) ;
#591 = ORIENTED_EDGE ( 'NONE', *, *, #61, .F. ) ;
#592 = LINE ( 'NONE', #64, #511 ) ;
#593 = EDGE_CURVE ( 'NONE', #361, #733, #190, .T. ) ;
#594 = AXIS2_PLACEMENT_3D ( 'NONE', #60, #348, #184 ) ;
#595 = EDGE_LOOP ( 'NONE', ( #538, #149, #598, #510 ) ) ;
#596 = VECTOR ( 'NONE', #127, 1000.000000000000000 ) ;
#597 = DIRECTION ( 'NONE',  ( -0.000000000000000000, 0.000000000000000000, -1.000000000000000000 ) ) ;
#598 = ORIENTED_EDGE ( 'NONE', *, *, #195, .F. ) ;
#599 = PRODUCT_DEFINITION_FORMATION_WITH_SPECIFIED_SOURCE ( 'ANY', '', #450, .NOT_KNOWN. ) ;
#600 = DIRECTION ( 'NONE',  ( -4.336808689942017736E-16, 1.000000000000000000, 0.000000000000000000 ) ) ;
#601 = ORIENTED_EDGE ( 'NONE', *, *, #748, .F. ) ;
#602 = ORIENTED_EDGE ( 'NONE', *, *, #76, .T. ) ;
#603 = CARTESIAN_POINT ( 'NONE',  ( -82.04950184112617251, 0.7530589543937766805, 14.69999999999999929 ) ) ;
#604 = VERTEX_POINT ( 'NONE', #423 ) ;
#605 = CARTESIAN_POINT ( 'NONE',  ( -80.04950184112617251, 23.75305895439377935, 20.00000000000000000 ) ) ;
#606 = ORIENTED_EDGE ( 'NONE', *, *, #380, .T. ) ;
#607 = CARTESIAN_POINT ( 'NONE',  ( -82.04950184112617251, -24.24694104560622421, 5.000000000000000000 ) ) ;
#608 = AXIS2_PLACEMENT_3D ( 'NONE', #375, #556, #548 ) ;
#609 = FILL_AREA_STYLE_COLOUR ( '', #428 ) ;
#610 = VERTEX_POINT ( 'NONE', #27 ) ;
#611 = EDGE_CURVE ( 'NONE', #575, #712, #691, .T. ) ;
#612 = VECTOR ( 'NONE', #470, 1000.000000000000000 ) ;
#613 = DIRECTION ( 'NONE',  ( -0.000000000000000000, -0.000000000000000000, -1.000000000000000000 ) ) ;
#614 = VERTEX_POINT ( 'NONE', #436 ) ;
#615 = LINE ( 'NONE', #83, #490 ) ;
#616 = EDGE_CURVE ( 'NONE', #35, #507, #385, .T. ) ;
#617 = ORIENTED_EDGE ( 'NONE', *, *, #124, .T. ) ;
#618 = CARTESIAN_POINT ( 'NONE',  ( 101.9504981588738133, 0.7530589543937766805, 10.00000000000000000 ) ) ;
#619 = ORIENTED_EDGE ( 'NONE', *, *, #18, .T. ) ;
#620 = DIRECTION ( 'NONE',  ( -0.000000000000000000, -0.000000000000000000, -1.000000000000000000 ) ) ;
#621 = EDGE_CURVE ( 'NONE', #201, #420, #266, .T. ) ;
#622 = ORIENTED_EDGE ( 'NONE', *, *, #240, .F. ) ;
#623 = VECTOR ( 'NONE', #120, 1000.000000000000000 ) ;
#624 = CARTESIAN_POINT ( 'NONE',  ( -80.04950184112617251, 23.75305895439377935, 20.00000000000000000 ) ) ;
#625 = VECTOR ( 'NONE', #384, 1000.000000000000114 ) ;
#626 = VECTOR ( 'NONE', #565, 1000.000000000000000 ) ;
#627 = VERTEX_POINT ( 'NONE', #97 ) ;
#628 = DIRECTION ( 'NONE',  ( 0.000000000000000000, 0.000000000000000000, -1.000000000000000000 ) ) ;
#629 = DIRECTION ( 'NONE',  ( -0.000000000000000000, 1.000000000000000000, -0.000000000000000000 ) ) ;
#630 = DIRECTION ( 'NONE',  ( 1.927470528863119542E-17, -1.000000000000000000, 0.000000000000000000 ) ) ;
#631 = LINE ( 'NONE', #564, #417 ) ;
#632 = DIRECTION ( 'NONE',  ( -1.000000000000000000, 0.000000000000000000, 0.000000000000000000 ) ) ;
#633 = VECTOR ( 'NONE', #620, 1000.000000000000000 ) ;
#634 = ORIENTED_EDGE ( 'NONE', *, *, #95, .T. ) ;
#635 = ADVANCED_FACE ( 'NONE', ( #322 ), #329, .F. ) ;
#636 = AXIS2_PLACEMENT_3D ( 'NONE', #273, #448, #750 ) ;
#637 = CARTESIAN_POINT ( 'NONE',  ( -66.04950184112617251, 10.75305895439377935, 5.000000000000000000 ) ) ;
#638 = CARTESIAN_POINT ( 'NONE',  ( 99.65049815887381612, 0.7530589543937766805, 10.00000000000000000 ) ) ;
#639 = ORIENTED_EDGE ( 'NONE', *, *, #285, .F. ) ;
#640 = ORIENTED_EDGE ( 'NONE', *, *, #705, .F. ) ;
#641 = DIRECTION ( 'NONE',  ( -1.000000000000000000, -0.000000000000000000, -0.000000000000000000 ) ) ;
#642 = VERTEX_POINT ( 'NONE', #749 ) ;
#643 = ORIENTED_EDGE ( 'NONE', *, *, #114, .T. ) ;
#644 = EDGE_CURVE ( 'NONE', #404, #642, #568, .T. ) ;
#645 = PLANE ( 'NONE',  #418 ) ;
#646 = CARTESIAN_POINT ( 'NONE',  ( -82.04950184112617251, 0.7530589543937772357, 5.300000000000000711 ) ) ;
#647 = ORIENTED_EDGE ( 'NONE', *, *, #563, .F. ) ;
#648 = VECTOR ( 'NONE', #228, 1000.000000000000000 ) ;
#649 = CARTESIAN_POINT ( 'NONE',  ( -82.04950184112617251, -24.24694104560622421, 5.000000000000000000 ) ) ;
#650 = CONICAL_SURFACE ( 'NONE', #89, 4.699999999999999289, 0.7853981633974517207 ) ;
#651 = EDGE_CURVE ( 'NONE', #610, #759, #441, .T. ) ;
#652 = VECTOR ( 'NONE', #503, 1000.000000000000000 ) ;
#653 = DIRECTION ( 'NONE',  ( 1.000000000000000000, 0.000000000000000000, 0.000000000000000000 ) ) ;
#654 = VERTEX_POINT ( 'NONE', #689 ) ;
#655 = DIRECTION ( 'NONE',  ( 0.000000000000000000, 0.000000000000000000, 1.000000000000000000 ) ) ;
#656 = DIRECTION ( 'NONE',  ( -0.000000000000000000, -0.000000000000000000, -1.000000000000000000 ) ) ;
#657 = DIRECTION ( 'NONE',  ( -1.000000000000000000, 0.000000000000000000, 0.000000000000000000 ) ) ;
#658 = ORIENTED_EDGE ( 'NONE', *, *, #124, .F. ) ;
#659 = DIRECTION ( 'NONE',  ( -0.000000000000000000, -1.000000000000000000, -0.000000000000000000 ) ) ;
#660 = FACE_OUTER_BOUND ( 'NONE', #108, .T. ) ;
#661 = ORIENTED_EDGE ( 'NONE', *, *, #359, .F. ) ;
#662 = DIRECTION ( 'NONE',  ( 0.000000000000000000, 0.000000000000000000, 1.000000000000000000 ) ) ;
#663 = AXIS2_PLACEMENT_3D ( 'NONE', #667, #1, #724 ) ;
#664 = EDGE_CURVE ( 'NONE', #614, #168, #211, .T. ) ;
#665 = VECTOR ( 'NONE', #545, 1000.000000000000000 ) ;
#666 = ORIENTED_EDGE ( 'NONE', *, *, #566, .F. ) ;
#667 = CARTESIAN_POINT ( 'NONE',  ( 101.9504981588738133, 0.7530589543937766805, 10.00000000000000000 ) ) ;
#668 = CARTESIAN_POINT ( 'NONE',  ( -80.04950184112615830, 25.75305895439377935, 20.00000000000000000 ) ) ;
#669 = VERTEX_POINT ( 'NONE', #442 ) ;
#670 = ORIENTED_EDGE ( 'NONE', *, *, #576, .F. ) ;
#671 = EDGE_CURVE ( 'NONE', #147, #274, #208, .T. ) ;
#672 = CARTESIAN_POINT ( 'NONE',  ( 96.95049815887381328, 0.7530589543937766805, 10.00000000000000000 ) ) ;
#673 = ORIENTED_EDGE ( 'NONE', *, *, #204, .T. ) ;
#674 = DIRECTION ( 'NONE',  ( -0.000000000000000000, -0.000000000000000000, -1.000000000000000000 ) ) ;
#675 = CARTESIAN_POINT ( 'NONE',  ( -82.04950184112617251, 23.75305895439376158, 20.00000000000000000 ) ) ;
#676 = ORIENTED_EDGE ( 'NONE', *, *, #130, .F. ) ;
#677 = CONICAL_SURFACE ( 'NONE', #327, 4.699999999999999289, 0.7853981633974517207 ) ;
#678 = CARTESIAN_POINT ( 'NONE',  ( 96.95049815887381328, 25.75305895439378290, 5.000000000000000000 ) ) ;
#679 = ORIENTED_EDGE ( 'NONE', *, *, #259, .F. ) ;
#680 = CARTESIAN_POINT ( 'NONE',  ( -77.04950184112617251, -24.24694104560622421, 5.000000000000000000 ) ) ;
#681 = ORIENTED_EDGE ( 'NONE', *, *, #264, .T. ) ;
#682 = LINE ( 'NONE', #137, #426 ) ;
#683 = EDGE_CURVE ( 'NONE', #627, #720, #263, .T. ) ;
#684 = CARTESIAN_POINT ( 'NONE',  ( -80.04950184112617251, 23.75305895439377935, 0.000000000000000000 ) ) ;
#685 = DIRECTION ( 'NONE',  ( 0.000000000000000000, -1.000000000000000000, 0.000000000000000000 ) ) ;
#686 = ADVANCED_FACE ( 'NONE', ( #36 ), #751, .F. ) ;
#687 = ORIENTED_EDGE ( 'NONE', *, *, #576, .T. ) ;
#688 = VECTOR ( 'NONE', #396, 1000.000000000000000 ) ;
#689 = CARTESIAN_POINT ( 'NONE',  ( 99.95049815887379907, 25.75305895439378290, 20.00000000000000000 ) ) ;
#690 = CARTESIAN_POINT ( 'NONE',  ( -82.04950184112617251, 0.7530589543937766805, 10.00000000000000000 ) ) ;
#691 = CIRCLE ( 'NONE', #516, 2.399999999999982148 ) ;
#692 = DIRECTION ( 'NONE',  ( 0.000000000000000000, 1.000000000000000000, 0.000000000000000000 ) ) ;
#693 = FACE_OUTER_BOUND ( 'NONE', #152, .T. ) ;
#694 = APPLICATION_CONTEXT ( 'automotive_design' ) ;
#695 = FACE_OUTER_BOUND ( 'NONE', #555, .T. ) ;
#696 = ADVANCED_FACE ( 'NONE', ( #695 ), #272, .T. ) ;
#697 = LINE ( 'NONE', #752, #481 ) ;
#698 = CARTESIAN_POINT ( 'NONE',  ( 101.9504981588738133, 23.75305895439376513, 20.00000000000000000 ) ) ;
#699 = LINE ( 'NONE', #573, #570 ) ;
#700 = ORIENTED_EDGE ( 'NONE', *, *, #240, .T. ) ;
#701 = MECHANICAL_DESIGN_GEOMETRIC_PRESENTATION_REPRESENTATION (  '', ( #101 ), #66 ) ;
#702 = DIRECTION ( 'NONE',  ( 0.000000000000000000, 0.000000000000000000, 1.000000000000000000 ) ) ;
#703 = ORIENTED_EDGE ( 'NONE', *, *, #280, .T. ) ;
#704 = ORIENTED_EDGE ( 'NONE', *, *, #616, .F. ) ;
#705 = EDGE_CURVE ( 'NONE', #727, #491, #177, .T. ) ;
#706 = CARTESIAN_POINT ( 'NONE',  ( -77.04950184112617251, 25.75305895439377935, 20.00000000000000000 ) ) ;
#707 = DIRECTION ( 'NONE',  ( -0.000000000000000000, -1.000000000000000000, -0.000000000000000000 ) ) ;
#708 = EDGE_LOOP ( 'NONE', ( #128, #251, #86, #704, #81, #105 ) ) ;
#709 = CARTESIAN_POINT ( 'NONE',  ( -77.04950184112617251, -24.24694104560622421, 20.00000000000000000 ) ) ;
#710 = EDGE_CURVE ( 'NONE', #17, #737, #248, .T. ) ;
#711 = PLANE ( 'NONE',  #714 ) ;
#712 = VERTEX_POINT ( 'NONE', #379 ) ;
#713 = PLANE ( 'NONE',  #218 ) ;
#714 = AXIS2_PLACEMENT_3D ( 'NONE', #400, #653, #250 ) ;
#715 = LINE ( 'NONE', #121, #440 ) ;
#716 = ORIENTED_EDGE ( 'NONE', *, *, #439, .T. ) ;
#717 = CARTESIAN_POINT ( 'NONE',  ( 96.95049815887381328, 0.7530589543937766805, 10.00000000000000000 ) ) ;
#718 = EDGE_CURVE ( 'NONE', #471, #557, #126, .T. ) ;
#719 = CARTESIAN_POINT ( 'NONE',  ( 99.95049815887379907, 25.75305895439378290, 0.000000000000000000 ) ) ;
#720 = VERTEX_POINT ( 'NONE', #277 ) ;
#721 = DIRECTION ( 'NONE',  ( -1.000000000000000000, -1.255391989193742158E-16, 0.000000000000000000 ) ) ;
#722 = LINE ( 'NONE', #524, #560 ) ;
#723 = VERTEX_POINT ( 'NONE', #698 ) ;
#724 = DIRECTION ( 'NONE',  ( 0.000000000000000000, 0.000000000000000000, -1.000000000000000000 ) ) ;
#725 = CIRCLE ( 'NONE', #52, 2.000000000000001776 ) ;
#726 = DIRECTION ( 'NONE',  ( -1.000000000000000000, -0.000000000000000000, -0.000000000000000000 ) ) ;
#727 = VERTEX_POINT ( 'NONE', #94 ) ;
#728 = CARTESIAN_POINT ( 'NONE',  ( -66.04950184112617251, -24.24694104560622421, 5.000000000000000000 ) ) ;
#729 = EDGE_CURVE ( 'NONE', #147, #604, #434, .T. ) ;
#730 = CARTESIAN_POINT ( 'NONE',  ( -79.74950184112618956, 0.7530589543937766805, 10.00000000000000000 ) ) ;
#731 = VERTEX_POINT ( 'NONE', #374 ) ;
#732 = DIRECTION ( 'NONE',  ( 1.000000000000000000, -0.000000000000000000, -0.000000000000000000 ) ) ;
#733 = VERTEX_POINT ( 'NONE', #562 ) ;
#734 = ORIENTED_EDGE ( 'NONE', *, *, #271, .T. ) ;
#735 = CARTESIAN_POINT ( 'NONE',  ( -77.04950184112617251, 25.75305895439377935, 5.000000000000000000 ) ) ;
#736 = EDGE_CURVE ( 'NONE', #17, #733, #88, .T. ) ;
#737 = VERTEX_POINT ( 'NONE', #744 ) ;
#738 = AXIS2_PLACEMENT_3D ( 'NONE', #437, #39, #443 ) ;
#739 = CARTESIAN_POINT ( 'NONE',  ( 96.95049815887381328, -24.24694104560622421, 20.00000000000000000 ) ) ;
#740 = EDGE_LOOP ( 'NONE', ( #28, #679 ) ) ;
#741 = ORIENTED_EDGE ( 'NONE', *, *, #22, .T. ) ;
#742 = CARTESIAN_POINT ( 'NONE',  ( 85.95049815887381328, -24.24694104560622776, 5.000000000000000000 ) ) ;
#743 = PLANE ( 'NONE',  #542 ) ;
#744 = CARTESIAN_POINT ( 'NONE',  ( -77.04950184112617251, 0.7530589543937766805, 12.39999999999998259 ) ) ;
#745 = LINE ( 'NONE', #212, #625 ) ;
#746 = CARTESIAN_POINT ( 'NONE',  ( -82.04950184112617251, -24.24694104560622421, 0.000000000000000000 ) ) ;
#747 = AXIS2_PLACEMENT_3D ( 'NONE', #16, #479, #371 ) ;
#748 = EDGE_CURVE ( 'NONE', #723, #174, #407, .T. ) ;
#749 = CARTESIAN_POINT ( 'NONE',  ( -66.04950184112617251, -24.24694104560622421, 0.000000000000000000 ) ) ;
#750 = DIRECTION ( 'NONE',  ( -1.000000000000000000, 0.000000000000000000, 0.000000000000000000 ) ) ;
#751 = PLANE ( 'NONE',  #561 ) ;
#752 = CARTESIAN_POINT ( 'NONE',  ( -82.04950184112617251, 0.7530589543937766805, 12.39999999999998259 ) ) ;
#753 = ORIENTED_EDGE ( 'NONE', *, *, #500, .F. ) ;
#754 = ORIENTED_EDGE ( 'NONE', *, *, #349, .T. ) ;
#755 = AXIS2_PLACEMENT_3D ( 'NONE', #354, #600, #588 ) ;
#756 = DIRECTION ( 'NONE',  ( 0.000000000000000000, 0.000000000000000000, 1.000000000000000000 ) ) ;
#757 = ADVANCED_FACE ( 'NONE', ( #166, #535 ), #645, .F. ) ;
#758 = CARTESIAN_POINT ( 'NONE',  ( -80.04950184112615830, 25.75305895439377935, 0.000000000000000000 ) ) ;
#759 = VERTEX_POINT ( 'NONE', #7 ) ;
#760 = PRODUCT_DEFINITION_CONTEXT ( 'detailed design', #694, 'design' ) ;
#761 = CONICAL_SURFACE ( 'NONE', #501, 4.699999999999999289, 0.7853981633974517207 ) ;
#762 = AXIS2_PLACEMENT_3D ( 'NONE', #382, #630, #162 ) ;
#763 = DIRECTION ( 'NONE',  ( 0.000000000000000000, 0.000000000000000000, 1.000000000000000000 ) ) ;
#764 = DIRECTION ( 'NONE',  ( -1.000000000000000000, 0.000000000000000000, 0.000000000000000000 ) ) ;
#765 = EDGE_LOOP ( 'NONE', ( #122, #521, #85, #131 ) ) ;
#766 = CYLINDRICAL_SURFACE ( 'NONE', #594, 2.399999999999982148 ) ;
#767 = SHAPE_DEFINITION_REPRESENTATION ( #527, #91 ) ;
#768 = FACE_BOUND ( 'NONE', #23, .T. ) ;
#769 = ORIENTED_EDGE ( 'NONE', *, *, #553, .T. ) ;
ENDSEC;
END-ISO-10303-21;
