ISO-10303-21;
HEADER;
FILE_DESCRIPTION (( 'STEP AP214' ),
    '1' );
FILE_NAME ('óË.STEP',
    '2026-01-21T22:14:06',
    ( '' ),
    ( '' ),
    'SwSTEP 2.0',
    'SolidWorks 2024',
    '' );
FILE_SCHEMA (( 'AUTOMOTIVE_DESIGN' ));
ENDSEC;

DATA;
#1 = ORIENTED_EDGE ( 'NONE', *, *, #391, .F. ) ;
#2 = CARTESIAN_POINT ( 'NONE',  ( -4.246064267725738084, 122.6389231632816035, 25.00000000000000000 ) ) ;
#3 = CARTESIAN_POINT ( 'NONE',  ( 20.75393573227426458, 119.8476404494381740, 0.000000000000000000 ) ) ;
#4 = CARTESIAN_POINT ( 'NONE',  ( -29.49606426772572121, 91.84764044943818817, 20.00000000000000000 ) ) ;
#5 = EDGE_CURVE ( 'NONE', #995, #330, #1161, .T. ) ;
#6 = ORIENTED_EDGE ( 'NONE', *, *, #916, .F. ) ;
#7 = ORIENTED_EDGE ( 'NONE', *, *, #383, .T. ) ;
#8 = VECTOR ( 'NONE', #1034, 1000.000000000000000 ) ;
#9 = LINE ( 'NONE', #175, #461 ) ;
#10 = VECTOR ( 'NONE', #493, 1000.000000000000000 ) ;
#11 = LINE ( 'NONE', #1231, #1184 ) ;
#12 = EDGE_CURVE ( 'NONE', #1074, #369, #1056, .T. ) ;
#13 = ORIENTED_EDGE ( 'NONE', *, *, #1201, .T. ) ;
#14 = PRODUCT_DEFINITION_CONTEXT ( 'detailed design', #341, 'design' ) ;
#15 = EDGE_LOOP ( 'NONE', ( #258, #1106, #279, #13 ) ) ;
#16 = DIRECTION ( 'NONE',  ( 0.000000000000000000, -0.000000000000000000, 1.000000000000000000 ) ) ;
#17 = DIRECTION ( 'NONE',  ( -0.000000000000000000, -0.000000000000000000, -1.000000000000000000 ) ) ;
#18 = ORIENTED_EDGE ( 'NONE', *, *, #723, .F. ) ;
#19 = ORIENTED_EDGE ( 'NONE', *, *, #891, .F. ) ;
#20 = CARTESIAN_POINT ( 'NONE',  ( -1.899221585621276631, 44.84764044943816685, -3.469446951953614189E-15 ) ) ;
#21 = DIRECTION ( 'NONE',  ( -1.000000000000000000, 0.000000000000000000, 0.000000000000000000 ) ) ;
#22 = DIRECTION ( 'NONE',  ( -0.000000000000000000, -0.000000000000000000, 1.000000000000000000 ) ) ;
#23 = CARTESIAN_POINT ( 'NONE',  ( -50.24606426772570700, -91.15235955056182604, 25.00000000000000000 ) ) ;
#24 = AXIS2_PLACEMENT_3D ( 'NONE', #252, #532, #331 ) ;
#25 = VERTEX_POINT ( 'NONE', #195 ) ;
#26 = EDGE_CURVE ( 'NONE', #943, #915, #1225, .T. ) ;
#27 = VECTOR ( 'NONE', #952, 1000.000000000000000 ) ;
#28 = CARTESIAN_POINT ( 'NONE',  ( -50.24606426772569279, -93.15235955056182604, 25.00000000000000000 ) ) ;
#29 = AXIS2_PLACEMENT_3D ( 'NONE', #794, #228, #1176 ) ;
#30 = DIRECTION ( 'NONE',  ( -0.000000000000000000, -0.000000000000000000, 1.000000000000000000 ) ) ;
#31 = VECTOR ( 'NONE', #733, 1000.000000000000000 ) ;
#32 = CARTESIAN_POINT ( 'NONE',  ( 14.75393573227428412, -65.15235955056182604, 20.00000000000000000 ) ) ;
#33 = EDGE_LOOP ( 'NONE', ( #844, #18, #672, #806 ) ) ;
#34 = DIRECTION ( 'NONE',  ( -0.000000000000000000, -0.000000000000000000, 1.000000000000000000 ) ) ;
#35 = LINE ( 'NONE', #412, #504 ) ;
#36 = DIRECTION ( 'NONE',  ( -0.000000000000000000, -0.000000000000000000, 1.000000000000000000 ) ) ;
#37 = ORIENTED_EDGE ( 'NONE', *, *, #1028, .T. ) ;
#38 = DIRECTION ( 'NONE',  ( -0.000000000000000000, -0.000000000000000000, -1.000000000000000000 ) ) ;
#39 = EDGE_CURVE ( 'NONE', #575, #276, #219, .T. ) ;
#40 = CARTESIAN_POINT ( 'NONE',  ( -47.24606426772573542, -88.15235955056181183, 20.00000000000000000 ) ) ;
#41 = VECTOR ( 'NONE', #34, 1000.000000000000000 ) ;
#42 = VERTEX_POINT ( 'NONE', #1185 ) ;
#43 = DIRECTION ( 'NONE',  ( -0.000000000000000000, 0.000000000000000000, 1.000000000000000000 ) ) ;
#44 = LINE ( 'NONE', #897, #1207 ) ;
#45 = DIRECTION ( 'NONE',  ( 1.049996067479329745E-16, -1.000000000000000000, 0.000000000000000000 ) ) ;
#46 = VECTOR ( 'NONE', #913, 1000.000000000000000 ) ;
#47 = EDGE_CURVE ( 'NONE', #915, #943, #683, .T. ) ;
#48 = ORIENTED_EDGE ( 'NONE', *, *, #554, .F. ) ;
#49 = DIRECTION ( 'NONE',  ( -1.000000000000000000, -0.000000000000000000, -0.000000000000000000 ) ) ;
#50 = CARTESIAN_POINT ( 'NONE',  ( 14.75393573227428412, -65.15235955056182604, 25.00000000000000000 ) ) ;
#51 = CARTESIAN_POINT ( 'NONE',  ( -52.24606426772573542, 119.8476404494381597, 25.00000000000000000 ) ) ;
#52 = CARTESIAN_POINT ( 'NONE',  ( 0.000000000000000000, 0.000000000000000000, 0.000000000000000000 ) ) ;
#53 = ORIENTED_EDGE ( 'NONE', *, *, #170, .T. ) ;
#54 = CARTESIAN_POINT ( 'NONE',  ( -47.24606426772573542, -88.15235955056181183, 20.00000000000000000 ) ) ;
#55 = CARTESIAN_POINT ( 'NONE',  ( -24.99606426772573897, -63.15235955056182604, 0.000000000000000000 ) ) ;
#56 = DIRECTION ( 'NONE',  ( -1.000000000000000000, 0.000000000000000000, 0.000000000000000000 ) ) ;
#57 = ORIENTED_EDGE ( 'NONE', *, *, #366, .F. ) ;
#58 = ORIENTED_EDGE ( 'NONE', *, *, #170, .F. ) ;
#59 = DIRECTION ( 'NONE',  ( -1.000000000000000000, 0.000000000000000000, 0.000000000000000000 ) ) ;
#60 = ADVANCED_FACE ( 'NONE', ( #409 ), #418, .F. ) ;
#61 = LINE ( 'NONE', #55, #103 ) ;
#62 = AXIS2_PLACEMENT_3D ( 'NONE', #3, #85, #261 ) ;
#63 = CARTESIAN_POINT ( 'NONE',  ( -4.246064267725734531, 93.63892316328160348, 25.00000000000000000 ) ) ;
#64 = AXIS2_PLACEMENT_3D ( 'NONE', #676, #1150, #470 ) ;
#65 = VERTEX_POINT ( 'NONE', #116 ) ;
#66 = AXIS2_PLACEMENT_3D ( 'NONE', #780, #698, #306 ) ;
#67 = EDGE_LOOP ( 'NONE', ( #1070, #668, #316, #857 ) ) ;
#68 = PLANE ( 'NONE',  #638 ) ;
#69 = DIRECTION ( 'NONE',  ( -0.000000000000000000, -0.000000000000000000, 1.000000000000000000 ) ) ;
#70 = DIRECTION ( 'NONE',  ( 1.000000000000000000, 0.000000000000000000, 0.000000000000000000 ) ) ;
#71 = ORIENTED_EDGE ( 'NONE', *, *, #516, .F. ) ;
#72 = ORIENTED_EDGE ( 'NONE', *, *, #111, .F. ) ;
#73 = PLANE ( 'NONE',  #557 ) ;
#74 = DIRECTION ( 'NONE',  ( -1.000000000000000000, 0.000000000000000000, 0.000000000000000000 ) ) ;
#75 = DIRECTION ( 'NONE',  ( -1.000000000000000000, 0.000000000000000000, 0.000000000000000000 ) ) ;
#76 = EDGE_CURVE ( 'NONE', #678, #457, #499, .T. ) ;
#77 = EDGE_LOOP ( 'NONE', ( #93, #601, #576, #955 ) ) ;
#78 = DIRECTION ( 'NONE',  ( 0.000000000000000000, -1.000000000000000000, 0.000000000000000000 ) ) ;
#79 = VECTOR ( 'NONE', #59, 1000.000000000000000 ) ;
#80 = CARTESIAN_POINT ( 'NONE',  ( 14.75393573227429300, -18.23731090247560616, 10.00000000000000000 ) ) ;
#81 = DIRECTION ( 'NONE',  ( 0.000000000000000000, 0.000000000000000000, 1.000000000000000000 ) ) ;
#82 = EDGE_LOOP ( 'NONE', ( #776, #53 ) ) ;
#83 = ADVANCED_FACE ( 'NONE', ( #994 ), #886, .F. ) ;
#84 = CARTESIAN_POINT ( 'NONE',  ( -1.899221585621297947, 47.84764044943817396, -3.469446951953614189E-15 ) ) ;
#85 = DIRECTION ( 'NONE',  ( 0.000000000000000000, 0.000000000000000000, 1.000000000000000000 ) ) ;
#86 = CARTESIAN_POINT ( 'NONE',  ( -47.24606426772573542, -88.15235955056181183, 20.00000000000000000 ) ) ;
#87 = ORIENTED_EDGE ( 'NONE', *, *, #829, .F. ) ;
#88 = ORIENTED_EDGE ( 'NONE', *, *, #289, .T. ) ;
#89 = DIRECTION ( 'NONE',  ( -1.000000000000000000, 0.000000000000000000, 0.000000000000000000 ) ) ;
#90 = EDGE_CURVE ( 'NONE', #369, #737, #510, .T. ) ;
#91 = CARTESIAN_POINT ( 'NONE',  ( -27.24606426772573187, -63.15235955056182604, 0.000000000000000000 ) ) ;
#92 = DIRECTION ( 'NONE',  ( -1.000000000000000000, 0.000000000000000000, 0.000000000000000000 ) ) ;
#93 = ORIENTED_EDGE ( 'NONE', *, *, #934, .T. ) ;
#94 = ORIENTED_EDGE ( 'NONE', *, *, #738, .T. ) ;
#95 = CARTESIAN_POINT ( 'NONE',  ( -30.24606426772571410, 47.84764044943818107, 10.00000000000000000 ) ) ;
#96 = EDGE_CURVE ( 'NONE', #392, #756, #887, .T. ) ;
#97 = VECTOR ( 'NONE', #1075, 1000.000000000000000 ) ;
#98 = DIRECTION ( 'NONE',  ( -1.000000000000000000, 0.000000000000000000, 0.000000000000000000 ) ) ;
#99 = VERTEX_POINT ( 'NONE', #789 ) ;
#100 = ORIENTED_EDGE ( 'NONE', *, *, #26, .T. ) ;
#101 = AXIS2_PLACEMENT_3D ( 'NONE', #353, #734, #1123 ) ;
#102 = FACE_BOUND ( 'NONE', #287, .T. ) ;
#103 = VECTOR ( 'NONE', #1200, 1000.000000000000000 ) ;
#104 = CARTESIAN_POINT ( 'NONE',  ( -30.24606426772570700, -18.23731090247560616, 20.00000000000000000 ) ) ;
#105 = ORIENTED_EDGE ( 'NONE', *, *, #898, .T. ) ;
#106 = ORIENTED_EDGE ( 'NONE', *, *, #448, .T. ) ;
#107 = ORIENTED_EDGE ( 'NONE', *, *, #315, .T. ) ;
#108 = FACE_BOUND ( 'NONE', #82, .T. ) ;
#109 = ORIENTED_EDGE ( 'NONE', *, *, #90, .T. ) ;
#110 = DIRECTION ( 'NONE',  ( -1.000000000000000000, 0.000000000000000000, 0.000000000000000000 ) ) ;
#111 = EDGE_CURVE ( 'NONE', #202, #915, #810, .T. ) ;
#112 = ORIENTED_EDGE ( 'NONE', *, *, #289, .F. ) ;
#113 =( NAMED_UNIT ( * ) PLANE_ANGLE_UNIT ( ) SI_UNIT ( $, .RADIAN. ) );
#114 = DIRECTION ( 'NONE',  ( -0.000000000000000000, -0.000000000000000000, 1.000000000000000000 ) ) ;
#115 = CIRCLE ( 'NONE', #819, 2.000000000000001776 ) ;
#116 = CARTESIAN_POINT ( 'NONE',  ( -50.24606426772571410, 121.8476404494381740, 0.000000000000000000 ) ) ;
#117 = APPLICATION_PROTOCOL_DEFINITION ( 'draft international standard', 'automotive_design', 1998, #297 ) ;
#118 = EDGE_LOOP ( 'NONE', ( #500, #787, #726, #555 ) ) ;
#119 = VECTOR ( 'NONE', #1141, 1000.000000000000000 ) ;
#120 = ADVANCED_FACE ( 'NONE', ( #136 ), #1092, .F. ) ;
#121 = CARTESIAN_POINT ( 'NONE',  ( -47.24606426772573542, 121.8476404494381740, 25.00000000000000000 ) ) ;
#122 = VECTOR ( 'NONE', #45, 1000.000000000000000 ) ;
#123 = AXIS2_PLACEMENT_3D ( 'NONE', #1211, #637, #717 ) ;
#124 = LINE ( 'NONE', #1183, #1068 ) ;
#125 = AXIS2_PLACEMENT_3D ( 'NONE', #540, #814, #453 ) ;
#126 = DIRECTION ( 'NONE',  ( -2.262682794752357637E-16, 1.000000000000000000, 0.000000000000000000 ) ) ;
#127 = ORIENTED_EDGE ( 'NONE', *, *, #516, .T. ) ;
#128 = FACE_OUTER_BOUND ( 'NONE', #1083, .T. ) ;
#129 = EDGE_CURVE ( 'NONE', #450, #445, #711, .T. ) ;
#130 = CARTESIAN_POINT ( 'NONE',  ( -27.24606426772573187, -63.15235955056182604, 20.00000000000000000 ) ) ;
#131 = DIRECTION ( 'NONE',  ( -0.000000000000000000, -0.000000000000000000, -1.000000000000000000 ) ) ;
#132 = VERTEX_POINT ( 'NONE', #302 ) ;
#133 = SURFACE_STYLE_USAGE ( .BOTH. , #604 ) ;
#134 = CARTESIAN_POINT ( 'NONE',  ( -14.38824637112142568, 25.84764044943817041, -3.469446951953614189E-15 ) ) ;
#135 = EDGE_CURVE ( 'NONE', #995, #490, #517, .T. ) ;
#136 = FACE_OUTER_BOUND ( 'NONE', #15, .T. ) ;
#137 = AXIS2_PLACEMENT_3D ( 'NONE', #1094, #226, #614 ) ;
#138 = VERTEX_POINT ( 'NONE', #1097 ) ;
#139 = CYLINDRICAL_SURFACE ( 'NONE', #229, 2.999999999999999112 ) ;
#140 = FACE_OUTER_BOUND ( 'NONE', #160, .T. ) ;
#141 = AXIS2_PLACEMENT_3D ( 'NONE', #1172, #22, #1004 ) ;
#142 = CARTESIAN_POINT ( 'NONE',  ( 1.100778414378725589, 25.84764044943817041, 10.00000000000000000 ) ) ;
#143 = ORIENTED_EDGE ( 'NONE', *, *, #1125, .T. ) ;
#144 = LINE ( 'NONE', #1099, #356 ) ;
#145 = FACE_OUTER_BOUND ( 'NONE', #704, .T. ) ;
#146 = DIRECTION ( 'NONE',  ( -1.000000000000000000, -0.000000000000000000, -0.000000000000000000 ) ) ;
#147 = ORIENTED_EDGE ( 'NONE', *, *, #164, .F. ) ;
#148 = EDGE_CURVE ( 'NONE', #451, #785, #308, .T. ) ;
#149 = EDGE_LOOP ( 'NONE', ( #1169, #839, #143, #1192, #477, #874, #471, #1218, #94, #404, #1124, #920, #631, #245, #375, #1049 ) ) ;
#150 = CARTESIAN_POINT ( 'NONE',  ( -14.38824637112140437, 22.84764044943817041, -3.469446951953614189E-15 ) ) ;
#151 = LINE ( 'NONE', #834, #1229 ) ;
#152 = CARTESIAN_POINT ( 'NONE',  ( -22.54606426772573258, 91.84764044943818817, -1.734723475976807883E-15 ) ) ;
#153 = ORIENTED_EDGE ( 'NONE', *, *, #539, .T. ) ;
#154 = VECTOR ( 'NONE', #298, 1000.000000000000000 ) ;
#155 = CARTESIAN_POINT ( 'NONE',  ( 20.75393573227428234, -91.15235955056182604, 25.00000000000000000 ) ) ;
#156 = EDGE_CURVE ( 'NONE', #801, #304, #1077, .T. ) ;
#157 = LINE ( 'NONE', #933, #781 ) ;
#158 = CYLINDRICAL_SURFACE ( 'NONE', #541, 2.249999999999991562 ) ;
#159 = CIRCLE ( 'NONE', #1066, 3.000000000000000888 ) ;
#160 = EDGE_LOOP ( 'NONE', ( #343, #71, #1063, #613 ) ) ;
#161 = ORIENTED_EDGE ( 'NONE', *, *, #845, .F. ) ;
#162 = DIRECTION ( 'NONE',  ( -0.000000000000000000, -0.000000000000000000, -1.000000000000000000 ) ) ;
#163 = LINE ( 'NONE', #642, #1166 ) ;
#164 = EDGE_CURVE ( 'NONE', #1212, #801, #1126, .T. ) ;
#165 = DIRECTION ( 'NONE',  ( -1.315430123963455640E-16, 1.000000000000000000, -0.000000000000000000 ) ) ;
#166 = ORIENTED_EDGE ( 'NONE', *, *, #156, .F. ) ;
#167 = ORIENTED_EDGE ( 'NONE', *, *, #391, .T. ) ;
#168 = LINE ( 'NONE', #551, #379 ) ;
#169 = CARTESIAN_POINT ( 'NONE',  ( -27.24606426772573187, 91.84764044943818817, 20.00000000000000000 ) ) ;
#170 = EDGE_CURVE ( 'NONE', #983, #466, #762, .T. ) ;
#171 = DIRECTION ( 'NONE',  ( -1.000000000000000000, 0.000000000000000000, 0.000000000000000000 ) ) ;
#172 = ORIENTED_EDGE ( 'NONE', *, *, #129, .F. ) ;
#173 = VERTEX_POINT ( 'NONE', #618 ) ;
#174 = CARTESIAN_POINT ( 'NONE',  ( 20.75393573227428234, -93.15235955056182604, 25.00000000000000000 ) ) ;
#175 = CARTESIAN_POINT ( 'NONE',  ( -50.24606426772571410, 121.8476404494381740, 0.000000000000000000 ) ) ;
#176 = LINE ( 'NONE', #475, #932 ) ;
#177 = ORIENTED_EDGE ( 'NONE', *, *, #299, .F. ) ;
#178 = EDGE_CURVE ( 'NONE', #295, #430, #494, .T. ) ;
#179 = CLOSED_SHELL ( 'NONE', ( #626, #373, #862, #688, #923, #60, #1052, #1095, #586, #327, #120, #764, #547, #467, #708, #1193, #1158, #893, #838, #937, #1058, #502, #355, #531, #702, #1065, #83, #560, #1003, #778, #1090, #221, #903, #674, #970, #632, #609 ) ) ;
#180 = ORIENTED_EDGE ( 'NONE', *, *, #1188, .F. ) ;
#181 = FACE_OUTER_BOUND ( 'NONE', #707, .T. ) ;
#182 = AXIS2_PLACEMENT_3D ( 'NONE', #1170, #223, #423 ) ;
#183 = LINE ( 'NONE', #469, #403 ) ;
#184 = LINE ( 'NONE', #282, #257 ) ;
#185 = DIRECTION ( 'NONE',  ( 1.000000000000000000, 0.000000000000000000, 0.000000000000000000 ) ) ;
#186 = ORIENTED_EDGE ( 'NONE', *, *, #244, .T. ) ;
#187 = EDGE_CURVE ( 'NONE', #204, #750, #1087, .T. ) ;
#188 = LINE ( 'NONE', #1235, #317 ) ;
#189 = CARTESIAN_POINT ( 'NONE',  ( 14.75393573227428412, -65.15235955056182604, 20.00000000000000000 ) ) ;
#190 = CARTESIAN_POINT ( 'NONE',  ( 14.75393573227428412, -65.15235955056182604, 20.00000000000000000 ) ) ;
#191 = ORIENTED_EDGE ( 'NONE', *, *, #12, .F. ) ;
#192 = LINE ( 'NONE', #959, #907 ) ;
#193 = AXIS2_PLACEMENT_3D ( 'NONE', #883, #779, #896 ) ;
#194 = DIRECTION ( 'NONE',  ( 1.000000000000000000, 0.000000000000000000, 0.000000000000000000 ) ) ;
#195 = CARTESIAN_POINT ( 'NONE',  ( -50.24606426772571410, 121.8476404494381740, 25.00000000000000000 ) ) ;
#196 = ORIENTED_EDGE ( 'NONE', *, *, #441, .F. ) ;
#197 = AXIS2_PLACEMENT_3D ( 'NONE', #1203, #449, #339 ) ;
#198 =( NAMED_UNIT ( * ) SI_UNIT ( $, .STERADIAN. ) SOLID_ANGLE_UNIT ( ) );
#199 = AXIS2_PLACEMENT_3D ( 'NONE', #1195, #1102, #333 ) ;
#200 = CARTESIAN_POINT ( 'NONE',  ( -9.246064267725717656, -65.15235955056182604, 20.00000000000000000 ) ) ;
#201 = EDGE_CURVE ( 'NONE', #466, #295, #242, .T. ) ;
#202 = VERTEX_POINT ( 'NONE', #1217 ) ;
#203 = DIRECTION ( 'NONE',  ( 0.000000000000000000, -0.000000000000000000, -1.000000000000000000 ) ) ;
#204 = VERTEX_POINT ( 'NONE', #1105 ) ;
#205 = DIRECTION ( 'NONE',  ( -1.000000000000000000, -1.315430123963455640E-16, 0.000000000000000000 ) ) ;
#206 = CARTESIAN_POINT ( 'NONE',  ( -50.24606426772571410, 121.8476404494381740, 25.00000000000000000 ) ) ;
#207 = DIRECTION ( 'NONE',  ( -1.000000000000000000, 0.000000000000000000, 0.000000000000000000 ) ) ;
#208 = ORIENTED_EDGE ( 'NONE', *, *, #235, .T. ) ;
#209 = CARTESIAN_POINT ( 'NONE',  ( -4.246064267725738084, 122.6389231632816035, 20.00000000000000000 ) ) ;
#210 = DIRECTION ( 'NONE',  ( -0.000000000000000000, -0.000000000000000000, 1.000000000000000000 ) ) ;
#211 = VECTOR ( 'NONE', #1007, 999.9999999999998863 ) ;
#212 = DIRECTION ( 'NONE',  ( 1.000000000000000000, -0.000000000000000000, -0.000000000000000000 ) ) ;
#213 = AXIS2_PLACEMENT_3D ( 'NONE', #23, #162, #559 ) ;
#214 = ORIENTED_EDGE ( 'NONE', *, *, #348, .T. ) ;
#215 = EDGE_CURVE ( 'NONE', #537, #1214, #159, .T. ) ;
#216 = DIRECTION ( 'NONE',  ( 0.000000000000000000, 0.000000000000000000, -1.000000000000000000 ) ) ;
#217 = AXIS2_PLACEMENT_3D ( 'NONE', #894, #224, #207 ) ;
#218 = CARTESIAN_POINT ( 'NONE',  ( -9.246064267725712327, -88.15235955056181183, 20.00000000000000000 ) ) ;
#219 = LINE ( 'NONE', #1191, #385 ) ;
#220 = EDGE_LOOP ( 'NONE', ( #250, #1145, #1163, #1043 ) ) ;
#221 = ADVANCED_FACE ( 'NONE', ( #724 ), #158, .F. ) ;
#222 = DIRECTION ( 'NONE',  ( -1.141265444721586223E-16, 1.000000000000000000, -0.000000000000000000 ) ) ;
#223 = DIRECTION ( 'NONE',  ( -0.000000000000000000, -0.000000000000000000, -1.000000000000000000 ) ) ;
#224 = DIRECTION ( 'NONE',  ( -0.000000000000000000, -0.000000000000000000, -1.000000000000000000 ) ) ;
#225 = ORIENTED_EDGE ( 'NONE', *, *, #90, .F. ) ;
#226 = DIRECTION ( 'NONE',  ( 0.000000000000000000, -1.000000000000000000, -0.000000000000000000 ) ) ;
#227 = CARTESIAN_POINT ( 'NONE',  ( -50.24606426772572831, 119.8476404494381740, 25.00000000000000000 ) ) ;
#228 = DIRECTION ( 'NONE',  ( -0.000000000000000000, -0.000000000000000000, -1.000000000000000000 ) ) ;
#229 = AXIS2_PLACEMENT_3D ( 'NONE', #1114, #833, #634 ) ;
#230 = EDGE_LOOP ( 'NONE', ( #659, #225, #191, #665 ) ) ;
#231 = CARTESIAN_POINT ( 'NONE',  ( -31.94606426772572760, -63.15235955056182604, -1.734723475976807883E-15 ) ) ;
#232 = AXIS2_PLACEMENT_3D ( 'NONE', #91, #474, #861 ) ;
#233 = CARTESIAN_POINT ( 'NONE',  ( -27.24606426772573187, -63.15235955056182604, 0.000000000000000000 ) ) ;
#234 = CIRCLE ( 'NONE', #987, 3.000000000000000888 ) ;
#235 = EDGE_CURVE ( 'NONE', #837, #543, #234, .T. ) ;
#236 = CARTESIAN_POINT ( 'NONE',  ( -30.24606426772571410, 47.84764044943818107, 10.00000000000000000 ) ) ;
#237 = UNCERTAINTY_MEASURE_WITH_UNIT (LENGTH_MEASURE( 1.000000000000000082E-05 ), #1089, 'distance_accuracy_value', 'NONE');
#238 = VERTEX_POINT ( 'NONE', #433 ) ;
#239 = ORIENTED_EDGE ( 'NONE', *, *, #1201, .F. ) ;
#240 = LINE ( 'NONE', #231, #211 ) ;
#241 = DIRECTION ( 'NONE',  ( 1.000000000000000000, 0.000000000000000000, 0.000000000000000000 ) ) ;
#242 = LINE ( 'NONE', #935, #1206 ) ;
#243 = ORIENTED_EDGE ( 'NONE', *, *, #47, .F. ) ;
#244 = EDGE_CURVE ( 'NONE', #943, #395, #815, .T. ) ;
#245 = ORIENTED_EDGE ( 'NONE', *, *, #1042, .F. ) ;
#246 = FACE_OUTER_BOUND ( 'NONE', #852, .T. ) ;
#247 = LINE ( 'NONE', #635, #46 ) ;
#248 = CARTESIAN_POINT ( 'NONE',  ( 14.75393573227428590, 47.84764044943817396, 20.00000000000000000 ) ) ;
#249 = UNCERTAINTY_MEASURE_WITH_UNIT (LENGTH_MEASURE( 1.000000000000000082E-05 ), #309, 'distance_accuracy_value', 'NONE');
#250 = ORIENTED_EDGE ( 'NONE', *, *, #332, .T. ) ;
#251 = EDGE_CURVE ( 'NONE', #445, #766, #443, .T. ) ;
#252 = CARTESIAN_POINT ( 'NONE',  ( 20.75393573227428234, -91.15235955056182604, 0.000000000000000000 ) ) ;
#253 = CARTESIAN_POINT ( 'NONE',  ( -22.54606426772573258, 91.84764044943818817, -1.734723475976807883E-15 ) ) ;
#254 = DIRECTION ( 'NONE',  ( 1.000000000000000000, 0.000000000000000000, 0.000000000000000000 ) ) ;
#255 = VECTOR ( 'NONE', #165, 1000.000000000000000 ) ;
#256 = ORIENTED_EDGE ( 'NONE', *, *, #1054, .F. ) ;
#257 = VECTOR ( 'NONE', #17, 1000.000000000000000 ) ;
#258 = ORIENTED_EDGE ( 'NONE', *, *, #235, .F. ) ;
#259 = CARTESIAN_POINT ( 'NONE',  ( -52.24606426772573542, 119.8476404494381597, 25.00000000000000000 ) ) ;
#260 = EDGE_CURVE ( 'NONE', #695, #464, #334, .T. ) ;
#261 = DIRECTION ( 'NONE',  ( 1.000000000000000000, 0.000000000000000000, -0.000000000000000000 ) ) ;
#262 = LINE ( 'NONE', #542, #255 ) ;
#263 = ORIENTED_EDGE ( 'NONE', *, *, #325, .T. ) ;
#264 = ORIENTED_EDGE ( 'NONE', *, *, #681, .F. ) ;
#265 = DIRECTION ( 'NONE',  ( -1.000000000000000000, 0.000000000000000000, 0.000000000000000000 ) ) ;
#266 = DIRECTION ( 'NONE',  ( -0.000000000000000000, -0.000000000000000000, -1.000000000000000000 ) ) ;
#267 = CARTESIAN_POINT ( 'NONE',  ( 22.75393573227426458, 119.8476404494381740, 25.00000000000000000 ) ) ;
#268 = VERTEX_POINT ( 'NONE', #1009 ) ;
#269 = ORIENTED_EDGE ( 'NONE', *, *, #1152, .T. ) ;
#270 = DIRECTION ( 'NONE',  ( 9.865725929725919765E-17, -1.000000000000000000, 0.000000000000000000 ) ) ;
#271 = VECTOR ( 'NONE', #880, 1000.000000000000000 ) ;
#272 = FILL_AREA_STYLE ('',( #848 ) ) ;
#273 = CARTESIAN_POINT ( 'NONE',  ( -9.246064267725717656, -65.15235955056182604, 25.00000000000000000 ) ) ;
#274 = EDGE_CURVE ( 'NONE', #853, #295, #953, .T. ) ;
#275 = AXIS2_PLACEMENT_3D ( 'NONE', #1033, #266, #380 ) ;
#276 = VERTEX_POINT ( 'NONE', #651 ) ;
#277 = AXIS2_PLACEMENT_3D ( 'NONE', #424, #414, #1073 ) ;
#278 = VECTOR ( 'NONE', #194, 1000.000000000000000 ) ;
#279 = ORIENTED_EDGE ( 'NONE', *, *, #539, .F. ) ;
#280 = DIRECTION ( 'NONE',  ( 1.000000000000000000, 0.000000000000000000, 0.000000000000000000 ) ) ;
#281 = DIRECTION ( 'NONE',  ( -0.000000000000000000, -0.000000000000000000, -1.000000000000000000 ) ) ;
#282 = CARTESIAN_POINT ( 'NONE',  ( -24.99606426772573897, 91.84764044943818817, 0.000000000000000000 ) ) ;
#283 = ORIENTED_EDGE ( 'NONE', *, *, #426, .F. ) ;
#284 = EDGE_LOOP ( 'NONE', ( #1057, #1139, #1069, #548, #956, #700, #300, #437, #357, #949, #349, #744 ) ) ;
#285 = DIRECTION ( 'NONE',  ( -0.000000000000000000, -0.000000000000000000, 1.000000000000000000 ) ) ;
#286 = CARTESIAN_POINT ( 'NONE',  ( 14.75393573227428590, 47.84764044943817396, 10.00000000000000000 ) ) ;
#287 = EDGE_LOOP ( 'NONE', ( #587, #640 ) ) ;
#288 = ORIENTED_EDGE ( 'NONE', *, *, #650, .F. ) ;
#289 = EDGE_CURVE ( 'NONE', #654, #766, #262, .T. ) ;
#290 = LINE ( 'NONE', #318, #843 ) ;
#291 = ORIENTED_EDGE ( 'NONE', *, *, #178, .T. ) ;
#292 = CARTESIAN_POINT ( 'NONE',  ( -4.246064267725738084, 121.8476404494381740, 25.00000000000000000 ) ) ;
#293 = EDGE_LOOP ( 'NONE', ( #37, #938, #811, #673 ) ) ;
#294 = AXIS2_PLACEMENT_3D ( 'NONE', #130, #417, #21 ) ;
#295 = VERTEX_POINT ( 'NONE', #942 ) ;
#296 = VECTOR ( 'NONE', #699, 999.9999999999998863 ) ;
#297 = APPLICATION_CONTEXT ( 'automotive_design' ) ;
#298 = DIRECTION ( 'NONE',  ( -2.262682794752357637E-16, 1.000000000000000000, -0.000000000000000000 ) ) ;
#299 = EDGE_CURVE ( 'NONE', #853, #652, #625, .T. ) ;
#300 = ORIENTED_EDGE ( 'NONE', *, *, #667, .T. ) ;
#301 = DIRECTION ( 'NONE',  ( -1.000000000000000000, 0.000000000000000000, 0.000000000000000000 ) ) ;
#302 = CARTESIAN_POINT ( 'NONE',  ( 20.75393573227428234, -93.15235955056182604, 0.000000000000000000 ) ) ;
#303 = DIRECTION ( 'NONE',  ( -0.000000000000000000, -0.000000000000000000, -1.000000000000000000 ) ) ;
#304 = VERTEX_POINT ( 'NONE', #142 ) ;
#305 = CYLINDRICAL_SURFACE ( 'NONE', #515, 3.000000000000001332 ) ;
#306 = DIRECTION ( 'NONE',  ( 1.000000000000000000, 0.000000000000000000, 0.000000000000000000 ) ) ;
#307 = EDGE_CURVE ( 'NONE', #490, #1117, #1014, .T. ) ;
#308 = LINE ( 'NONE', #40, #784 ) ;
#309 =( LENGTH_UNIT ( ) NAMED_UNIT ( * ) SI_UNIT ( .MILLI., .METRE. ) );
#310 = ORIENTED_EDGE ( 'NONE', *, *, #96, .F. ) ;
#311 = CARTESIAN_POINT ( 'NONE',  ( -17.38824637112142568, 25.84764044943818817, -3.469446951953614189E-15 ) ) ;
#312 = CARTESIAN_POINT ( 'NONE',  ( 1.100778414378723369, 44.84764044943814554, -3.469446951953614189E-15 ) ) ;
#313 = VECTOR ( 'NONE', #280, 1000.000000000000000 ) ;
#314 = CARTESIAN_POINT ( 'NONE',  ( -31.94606426772572760, 91.84764044943818817, -1.734723475976807883E-15 ) ) ;
#315 = EDGE_CURVE ( 'NONE', #1016, #872, #528, .T. ) ;
#316 = ORIENTED_EDGE ( 'NONE', *, *, #1171, .F. ) ;
#317 = VECTOR ( 'NONE', #675, 1000.000000000000000 ) ;
#318 = CARTESIAN_POINT ( 'NONE',  ( 1.100778414378723369, 44.84764044943814554, -3.469446951953614189E-15 ) ) ;
#319 = CIRCLE ( 'NONE', #1024, 2.249999999999988010 ) ;
#320 = ORIENTED_EDGE ( 'NONE', *, *, #5, .F. ) ;
#321 = AXIS2_PLACEMENT_3D ( 'NONE', #974, #892, #1091 ) ;
#322 = LINE ( 'NONE', #514, #888 ) ;
#323 = CARTESIAN_POINT ( 'NONE',  ( -27.24606426772573187, -63.15235955056182604, 2.450000000000007727 ) ) ;
#324 = VERTEX_POINT ( 'NONE', #828 ) ;
#325 = EDGE_CURVE ( 'NONE', #238, #966, #347, .T. ) ;
#326 = FACE_OUTER_BOUND ( 'NONE', #230, .T. ) ;
#327 = ADVANCED_FACE ( 'NONE', ( #1116 ), #842, .F. ) ;
#328 = PLANE ( 'NONE',  #721 ) ;
#329 = CARTESIAN_POINT ( 'NONE',  ( -9.246064267725717656, -65.15235955056182604, 20.00000000000000000 ) ) ;
#330 = VERTEX_POINT ( 'NONE', #248 ) ;
#331 = DIRECTION ( 'NONE',  ( 1.000000000000000000, 0.000000000000000000, 0.000000000000000000 ) ) ;
#332 = EDGE_CURVE ( 'NONE', #766, #324, #968, .T. ) ;
#333 = DIRECTION ( 'NONE',  ( 1.000000000000000000, 0.000000000000000000, 0.000000000000000000 ) ) ;
#334 = LINE ( 'NONE', #236, #501 ) ;
#335 = ORIENTED_EDGE ( 'NONE', *, *, #594, .T. ) ;
#336 = PLANE ( 'NONE',  #1062 ) ;
#337 = FACE_OUTER_BOUND ( 'NONE', #1157, .T. ) ;
#338 = VECTOR ( 'NONE', #131, 1000.000000000000000 ) ;
#339 = DIRECTION ( 'NONE',  ( 1.826024711554537858E-16, -1.000000000000000000, 0.000000000000000000 ) ) ;
#340 = EDGE_CURVE ( 'NONE', #1133, #775, #454, .T. ) ;
#341 = APPLICATION_CONTEXT ( 'automotive_design' ) ;
#342 = AXIS2_PLACEMENT_3D ( 'NONE', #233, #352, #1029 ) ;
#343 = ORIENTED_EDGE ( 'NONE', *, *, #135, .T. ) ;
#344 = ORIENTED_EDGE ( 'NONE', *, *, #985, .T. ) ;
#345 = FACE_OUTER_BOUND ( 'NONE', #1197, .T. ) ;
#346 = CYLINDRICAL_SURFACE ( 'NONE', #342, 2.249999999999991562 ) ;
#347 = LINE ( 'NONE', #821, #826 ) ;
#348 = EDGE_CURVE ( 'NONE', #202, #99, #1006, .T. ) ;
#349 = ORIENTED_EDGE ( 'NONE', *, *, #307, .F. ) ;
#350 = ORIENTED_EDGE ( 'NONE', *, *, #589, .T. ) ;
#351 = CARTESIAN_POINT ( 'NONE',  ( -30.24606426772571410, 47.84764044943818107, 20.00000000000000000 ) ) ;
#352 = DIRECTION ( 'NONE',  ( -0.000000000000000000, -0.000000000000000000, -1.000000000000000000 ) ) ;
#353 = CARTESIAN_POINT ( 'NONE',  ( 20.75393573227426458, 119.8476404494381740, 0.000000000000000000 ) ) ;
#354 = ORIENTED_EDGE ( 'NONE', *, *, #941, .F. ) ;
#355 = ADVANCED_FACE ( 'NONE', ( #671 ), #947, .F. ) ;
#356 = VECTOR ( 'NONE', #49, 1000.000000000000000 ) ;
#357 = ORIENTED_EDGE ( 'NONE', *, *, #12, .T. ) ;
#358 = CARTESIAN_POINT ( 'NONE',  ( -50.24606426772569279, -93.15235955056182604, 25.00000000000000000 ) ) ;
#359 = FACE_BOUND ( 'NONE', #824, .T. ) ;
#360 = DIRECTION ( 'NONE',  ( 0.000000000000000000, 0.000000000000000000, 1.000000000000000000 ) ) ;
#361 = VECTOR ( 'NONE', #1167, 1000.000000000000000 ) ;
#362 = VERTEX_POINT ( 'NONE', #368 ) ;
#363 = CIRCLE ( 'NONE', #666, 4.699999999999995737 ) ;
#364 = ORIENTED_EDGE ( 'NONE', *, *, #1036, .T. ) ;
#365 = FACE_OUTER_BOUND ( 'NONE', #647, .T. ) ;
#366 = EDGE_CURVE ( 'NONE', #846, #1117, #856, .T. ) ;
#367 = FACE_OUTER_BOUND ( 'NONE', #1031, .T. ) ;
#368 = CARTESIAN_POINT ( 'NONE',  ( -1.899221585621293951, 22.84764044943817041, 10.00000000000000000 ) ) ;
#369 = VERTEX_POINT ( 'NONE', #189 ) ;
#370 = ORIENTED_EDGE ( 'NONE', *, *, #340, .T. ) ;
#371 = FACE_OUTER_BOUND ( 'NONE', #1205, .T. ) ;
#372 = DIRECTION ( 'NONE',  ( -1.000000000000000000, 1.541976423090495387E-16, -0.000000000000000000 ) ) ;
#373 = ADVANCED_FACE ( 'NONE', ( #749 ), #1048, .F. ) ;
#374 = DIRECTION ( 'NONE',  ( 0.000000000000000000, -1.000000000000000000, 0.000000000000000000 ) ) ;
#375 = ORIENTED_EDGE ( 'NONE', *, *, #934, .F. ) ;
#376 = ORIENTED_EDGE ( 'NONE', *, *, #594, .F. ) ;
#377 = DIRECTION ( 'NONE',  ( 0.000000000000000000, 0.000000000000000000, 1.000000000000000000 ) ) ;
#378 = CIRCLE ( 'NONE', #556, 4.699999999999995737 ) ;
#379 = VECTOR ( 'NONE', #1134, 1000.000000000000000 ) ;
#380 = DIRECTION ( 'NONE',  ( -1.000000000000000000, 0.000000000000000000, 0.000000000000000000 ) ) ;
#381 = CARTESIAN_POINT ( 'NONE',  ( -27.24606426772573187, 91.84764044943818817, 2.450000000000007727 ) ) ;
#382 = CIRCLE ( 'NONE', #275, 4.699999999999995737 ) ;
#383 = EDGE_CURVE ( 'NONE', #962, #678, #1236, .T. ) ;
#384 = EDGE_LOOP ( 'NONE', ( #950, #48, #1035, #1025 ) ) ;
#385 = VECTOR ( 'NONE', #593, 1000.000000000000000 ) ;
#386 = VECTOR ( 'NONE', #904, 1000.000000000000000 ) ;
#387 = ORIENTED_EDGE ( 'NONE', *, *, #769, .F. ) ;
#388 = CARTESIAN_POINT ( 'NONE',  ( -52.24606426772571410, -91.15235955056182604, 0.000000000000000000 ) ) ;
#389 = CARTESIAN_POINT ( 'NONE',  ( -50.24606426772571410, 121.8476404494381740, 25.00000000000000000 ) ) ;
#390 = ORIENTED_EDGE ( 'NONE', *, *, #244, .F. ) ;
#391 = EDGE_CURVE ( 'NONE', #846, #695, #869, .T. ) ;
#392 = VERTEX_POINT ( 'NONE', #574 ) ;
#393 = EDGE_LOOP ( 'NONE', ( #1080, #507, #256, #1011 ) ) ;
#394 = PLANE ( 'NONE',  #850 ) ;
#395 = VERTEX_POINT ( 'NONE', #851 ) ;
#396 = ORIENTED_EDGE ( 'NONE', *, *, #187, .T. ) ;
#397 = EDGE_CURVE ( 'NONE', #775, #276, #483, .T. ) ;
#398 = LINE ( 'NONE', #503, #154 ) ;
#399 = CONICAL_SURFACE ( 'NONE', #1100, 4.699999999999995737, 0.7853981633974485010 ) ;
#400 = LINE ( 'NONE', #206, #10 ) ;
#401 = DIRECTION ( 'NONE',  ( -0.000000000000000000, -0.000000000000000000, -1.000000000000000000 ) ) ;
#402 = PLANE ( 'NONE',  #758 ) ;
#403 = VECTOR ( 'NONE', #1053, 1000.000000000000000 ) ;
#404 = ORIENTED_EDGE ( 'NONE', *, *, #984, .T. ) ;
#405 = VECTOR ( 'NONE', #546, 999.9999999999998863 ) ;
#406 = FACE_OUTER_BOUND ( 'NONE', #627, .T. ) ;
#407 = CIRCLE ( 'NONE', #1027, 2.999999999999999112 ) ;
#408 = LINE ( 'NONE', #993, #971 ) ;
#409 = FACE_OUTER_BOUND ( 'NONE', #525, .T. ) ;
#410 = ORIENTED_EDGE ( 'NONE', *, *, #1118, .F. ) ;
#411 = DIRECTION ( 'NONE',  ( -0.000000000000000000, -0.000000000000000000, 1.000000000000000000 ) ) ;
#412 = CARTESIAN_POINT ( 'NONE',  ( 20.75393573227426458, 121.8476404494381740, 25.00000000000000000 ) ) ;
#413 = EDGE_CURVE ( 'NONE', #369, #1117, #664, .T. ) ;
#414 = DIRECTION ( 'NONE',  ( 0.000000000000000000, 0.000000000000000000, 1.000000000000000000 ) ) ;
#415 = ORIENTED_EDGE ( 'NONE', *, *, #797, .T. ) ;
#416 = DIRECTION ( 'NONE',  ( 0.000000000000000000, 1.000000000000000000, 0.000000000000000000 ) ) ;
#417 = DIRECTION ( 'NONE',  ( -0.000000000000000000, -0.000000000000000000, -1.000000000000000000 ) ) ;
#418 = PLANE ( 'NONE',  #741 ) ;
#419 = ORIENTED_EDGE ( 'NONE', *, *, #325, .F. ) ;
#420 = FACE_OUTER_BOUND ( 'NONE', #1173, .T. ) ;
#421 = AXIS2_PLACEMENT_3D ( 'NONE', #803, #998, #599 ) ;
#422 = CIRCLE ( 'NONE', #66, 3.000000000000000888 ) ;
#423 = DIRECTION ( 'NONE',  ( -1.000000000000000000, 0.000000000000000000, 0.000000000000000000 ) ) ;
#424 = CARTESIAN_POINT ( 'NONE',  ( -1.899221585621273745, 25.84764044943817041, -3.469446951953614189E-15 ) ) ;
#425 = ORIENTED_EDGE ( 'NONE', *, *, #524, .F. ) ;
#426 = EDGE_CURVE ( 'NONE', #295, #853, #319, .T. ) ;
#427 = CARTESIAN_POINT ( 'NONE',  ( 14.75393573227428412, -65.15235955056182604, 25.00000000000000000 ) ) ;
#428 = CARTESIAN_POINT ( 'NONE',  ( -27.24606426772573187, 91.84764044943818817, -1.734723475976807883E-15 ) ) ;
#429 = CARTESIAN_POINT ( 'NONE',  ( -14.38824637112142923, 44.84764044943816685, 10.00000000000000000 ) ) ;
#430 = VERTEX_POINT ( 'NONE', #763 ) ;
#431 = CARTESIAN_POINT ( 'NONE',  ( 0.000000000000000000, 0.000000000000000000, 10.00000000000000000 ) ) ;
#432 = CARTESIAN_POINT ( 'NONE',  ( -14.38824637112142568, 25.84764044943817041, -3.469446951953614189E-15 ) ) ;
#433 = CARTESIAN_POINT ( 'NONE',  ( -17.38824637112142923, 44.84764044943814554, -3.469446951953614189E-15 ) ) ;
#434 = STYLED_ITEM ( 'NONE', ( #584 ), #858 ) ;
#435 = AXIS2_PLACEMENT_3D ( 'NONE', #669, #203, #1032 ) ;
#436 = ORIENTED_EDGE ( 'NONE', *, *, #340, .F. ) ;
#437 = ORIENTED_EDGE ( 'NONE', *, *, #572, .T. ) ;
#438 = CARTESIAN_POINT ( 'NONE',  ( -47.24606426772573542, 121.8476404494381740, 25.00000000000000000 ) ) ;
#439 = PLANE ( 'NONE',  #125 ) ;
#440 = VECTOR ( 'NONE', #1131, 1000.000000000000000 ) ;
#441 = EDGE_CURVE ( 'NONE', #1214, #1088, #11, .T. ) ;
#442 = AXIS2_PLACEMENT_3D ( 'NONE', #428, #545, #74 ) ;
#443 = LINE ( 'NONE', #1196, #520 ) ;
#444 = VERTEX_POINT ( 'NONE', #273 ) ;
#445 = VERTEX_POINT ( 'NONE', #267 ) ;
#446 = LINE ( 'NONE', #427, #679 ) ;
#447 = CYLINDRICAL_SURFACE ( 'NONE', #742, 2.000000000000001776 ) ;
#448 = EDGE_CURVE ( 'NONE', #983, #853, #184, .T. ) ;
#449 = DIRECTION ( 'NONE',  ( -1.000000000000000000, -1.826024711554537858E-16, 0.000000000000000000 ) ) ;
#450 = VERTEX_POINT ( 'NONE', #658 ) ;
#451 = VERTEX_POINT ( 'NONE', #569 ) ;
#452 = DIRECTION ( 'NONE',  ( 0.000000000000000000, -0.000000000000000000, -1.000000000000000000 ) ) ;
#453 = DIRECTION ( 'NONE',  ( 0.000000000000000000, -0.000000000000000000, 1.000000000000000000 ) ) ;
#454 = LINE ( 'NONE', #743, #440 ) ;
#455 = ORIENTED_EDGE ( 'NONE', *, *, #845, .T. ) ;
#456 = AXIS2_PLACEMENT_3D ( 'NONE', #28, #416, #16 ) ;
#457 = VERTEX_POINT ( 'NONE', #960 ) ;
#458 = CARTESIAN_POINT ( 'NONE',  ( -14.38824637112140259, 22.84764044943817041, -3.469446951953614189E-15 ) ) ;
#459 = EDGE_CURVE ( 'NONE', #962, #25, #176, .T. ) ;
#460 = CARTESIAN_POINT ( 'NONE',  ( -27.24606426772573187, -63.15235955056182604, -1.734723475976807883E-15 ) ) ;
#461 = VECTOR ( 'NONE', #663, 1000.000000000000000 ) ;
#462 = CARTESIAN_POINT ( 'NONE',  ( -47.24606426772574252, 119.8476404494381740, 25.00000000000000000 ) ) ;
#463 = VECTOR ( 'NONE', #70, 1000.000000000000000 ) ;
#464 = VERTEX_POINT ( 'NONE', #863 ) ;
#465 = AXIS2_PLACEMENT_3D ( 'NONE', #1122, #1008, #1013 ) ;
#466 = VERTEX_POINT ( 'NONE', #4 ) ;
#467 = ADVANCED_FACE ( 'NONE', ( #1055 ), #394, .F. ) ;
#468 = CARTESIAN_POINT ( 'NONE',  ( -31.94606426772572760, -63.15235955056182604, -1.734723475976807883E-15 ) ) ;
#469 = CARTESIAN_POINT ( 'NONE',  ( -4.246064267725738084, 121.8476404494381740, 25.00000000000000000 ) ) ;
#470 = DIRECTION ( 'NONE',  ( -1.000000000000000000, 0.000000000000000000, 0.000000000000000000 ) ) ;
#471 = ORIENTED_EDGE ( 'NONE', *, *, #1054, .T. ) ;
#472 = ORIENTED_EDGE ( 'NONE', *, *, #653, .F. ) ;
#473 = LINE ( 'NONE', #2, #1040 ) ;
#474 = DIRECTION ( 'NONE',  ( -0.000000000000000000, -0.000000000000000000, -1.000000000000000000 ) ) ;
#475 = CARTESIAN_POINT ( 'NONE',  ( -50.24606426772571410, 121.8476404494381740, 25.00000000000000000 ) ) ;
#476 = ORIENTED_EDGE ( 'NONE', *, *, #898, .F. ) ;
#477 = ORIENTED_EDGE ( 'NONE', *, *, #1188, .T. ) ;
#478 = CONICAL_SURFACE ( 'NONE', #982, 4.699999999999995737, 0.7853981633974485010 ) ;
#479 = FACE_BOUND ( 'NONE', #978, .T. ) ;
#480 = DIRECTION ( 'NONE',  ( -0.000000000000000000, -0.000000000000000000, -1.000000000000000000 ) ) ;
#481 = EDGE_CURVE ( 'NONE', #1015, #1212, #1060, .T. ) ;
#482 = ORIENTED_EDGE ( 'NONE', *, *, #47, .T. ) ;
#483 = CIRCLE ( 'NONE', #701, 2.000000000000001776 ) ;
#484 = CONICAL_SURFACE ( 'NONE', #442, 4.699999999999995737, 0.7853981633974485010 ) ;
#485 = VERTEX_POINT ( 'NONE', #292 ) ;
#486 = LINE ( 'NONE', #561, #119 ) ;
#487 = ORIENTED_EDGE ( 'NONE', *, *, #1036, .F. ) ;
#488 = CARTESIAN_POINT ( 'NONE',  ( -50.24606426772570700, -91.15235955056182604, 0.000000000000000000 ) ) ;
#489 = EDGE_CURVE ( 'NONE', #1219, #395, #363, .T. ) ;
#490 = VERTEX_POINT ( 'NONE', #104 ) ;
#491 = ORIENTED_EDGE ( 'NONE', *, *, #1021, .T. ) ;
#492 = CARTESIAN_POINT ( 'NONE',  ( -27.24606426772573187, 91.84764044943818817, -1.734723475976807883E-15 ) ) ;
#493 = DIRECTION ( 'NONE',  ( -0.000000000000000000, -0.000000000000000000, -1.000000000000000000 ) ) ;
#494 = LINE ( 'NONE', #314, #296 ) ;
#495 = DIRECTION ( 'NONE',  ( -9.865725929725919765E-17, 1.000000000000000000, 0.000000000000000000 ) ) ;
#496 = ORIENTED_EDGE ( 'NONE', *, *, #1028, .F. ) ;
#497 = VECTOR ( 'NONE', #648, 1000.000000000000000 ) ;
#498 = FACE_OUTER_BOUND ( 'NONE', #220, .T. ) ;
#499 = LINE ( 'NONE', #611, #643 ) ;
#500 = ORIENTED_EDGE ( 'NONE', *, *, #448, .F. ) ;
#501 = VECTOR ( 'NONE', #729, 1000.000000000000000 ) ;
#502 = ADVANCED_FACE ( 'NONE', ( #108, #598, #986 ), #1190, .F. ) ;
#503 = CARTESIAN_POINT ( 'NONE',  ( -9.246064267725717656, -65.15235955056182604, 25.00000000000000000 ) ) ;
#504 = VECTOR ( 'NONE', #997, 1000.000000000000000 ) ;
#505 = DIRECTION ( 'NONE',  ( 1.000000000000000000, 1.196361017915039486E-16, 0.000000000000000000 ) ) ;
#506 = CARTESIAN_POINT ( 'NONE',  ( 1.100778414378725589, 25.84764044943817041, -3.469446951953614189E-15 ) ) ;
#507 = ORIENTED_EDGE ( 'NONE', *, *, #603, .F. ) ;
#508 = DIRECTION ( 'NONE',  ( -1.000000000000000000, 0.000000000000000000, 0.000000000000000000 ) ) ;
#509 = CARTESIAN_POINT ( 'NONE',  ( -50.24606426772569279, -93.15235955056182604, 25.00000000000000000 ) ) ;
#510 = LINE ( 'NONE', #32, #910 ) ;
#511 = SHAPE_DEFINITION_REPRESENTATION ( #656, #1204 ) ;
#512 = EDGE_LOOP ( 'NONE', ( #633, #866, #1224, #871, #895, #350, #536, #425 ) ) ;
#513 = DIRECTION ( 'NONE',  ( 0.000000000000000000, 0.000000000000000000, 1.000000000000000000 ) ) ;
#514 = CARTESIAN_POINT ( 'NONE',  ( -9.246064267725717656, -65.15235955056182604, 20.00000000000000000 ) ) ;
#515 = AXIS2_PLACEMENT_3D ( 'NONE', #20, #411, #979 ) ;
#516 = EDGE_CURVE ( 'NONE', #173, #490, #124, .T. ) ;
#517 = LINE ( 'NONE', #905, #122 ) ;
#518 = ORIENTED_EDGE ( 'NONE', *, *, #1210, .F. ) ;
#519 = LINE ( 'NONE', #912, #924 ) ;
#520 = VECTOR ( 'NONE', #1110, 1000.000000000000000 ) ;
#521 = VECTOR ( 'NONE', #210, 1000.000000000000000 ) ;
#522 = CARTESIAN_POINT ( 'NONE',  ( -9.246064267725712327, -88.15235955056181183, 20.00000000000000000 ) ) ;
#523 = CARTESIAN_POINT ( 'NONE',  ( -27.24606426772573187, -63.15235955056182604, 20.00000000000000000 ) ) ;
#524 = EDGE_CURVE ( 'NONE', #25, #65, #400, .T. ) ;
#525 = EDGE_LOOP ( 'NONE', ( #487, #1119, #859, #930 ) ) ;
#526 = DIRECTION ( 'NONE',  ( 1.049996067479329745E-16, -1.000000000000000000, 0.000000000000000000 ) ) ;
#527 = CARTESIAN_POINT ( 'NONE',  ( 14.75393573227426458, 93.63892316328160348, 20.00000000000000000 ) ) ;
#528 = LINE ( 'NONE', #63, #929 ) ;
#529 = VERTEX_POINT ( 'NONE', #788 ) ;
#530 = EDGE_LOOP ( 'NONE', ( #1061, #354, #419, #712 ) ) ;
#531 = ADVANCED_FACE ( 'NONE', ( #1076 ), #705, .F. ) ;
#532 = DIRECTION ( 'NONE',  ( 0.000000000000000000, 0.000000000000000000, 1.000000000000000000 ) ) ;
#533 = LINE ( 'NONE', #522, #31 ) ;
#534 = CARTESIAN_POINT ( 'NONE',  ( -30.24606426772570700, -18.23731090247560616, 20.00000000000000000 ) ) ;
#535 =( GEOMETRIC_REPRESENTATION_CONTEXT ( 3 ) GLOBAL_UNCERTAINTY_ASSIGNED_CONTEXT ( ( #237 ) ) GLOBAL_UNIT_ASSIGNED_CONTEXT ( ( #1089, #113, #198 ) ) REPRESENTATION_CONTEXT ( 'NONE', 'WORKASPACE' ) );
#536 = ORIENTED_EDGE ( 'NONE', *, *, #759, .T. ) ;
#537 = VERTEX_POINT ( 'NONE', #312 ) ;
#538 = DIRECTION ( 'NONE',  ( 0.000000000000000000, 0.000000000000000000, 1.000000000000000000 ) ) ;
#539 = EDGE_CURVE ( 'NONE', #1088, #238, #422, .T. ) ;
#540 = CARTESIAN_POINT ( 'NONE',  ( -14.38824637112140614, 47.84764044943817396, -3.469446951953614189E-15 ) ) ;
#541 = AXIS2_PLACEMENT_3D ( 'NONE', #835, #630, #56 ) ;
#542 = CARTESIAN_POINT ( 'NONE',  ( 22.75393573227426458, 119.8476404494381740, 0.000000000000000000 ) ) ;
#543 = VERTEX_POINT ( 'NONE', #693 ) ;
#544 = CARTESIAN_POINT ( 'NONE',  ( 14.75393573227426458, 93.63892316328160348, 20.00000000000000000 ) ) ;
#545 = DIRECTION ( 'NONE',  ( -0.000000000000000000, -0.000000000000000000, -1.000000000000000000 ) ) ;
#546 = DIRECTION ( 'NONE',  ( 0.7071067811865477948, 8.659560562354936556E-17, -0.7071067811865473507 ) ) ;
#547 = ADVANCED_FACE ( 'NONE', ( #498 ), #980, .T. ) ;
#548 = ORIENTED_EDGE ( 'NONE', *, *, #916, .T. ) ;
#549 = EDGE_CURVE ( 'NONE', #756, #837, #408, .T. ) ;
#550 = ORIENTED_EDGE ( 'NONE', *, *, #397, .F. ) ;
#551 = CARTESIAN_POINT ( 'NONE',  ( -1.899221585621294839, 22.84764044943817041, -3.469446951953614189E-15 ) ) ;
#552 = CYLINDRICAL_SURFACE ( 'NONE', #1178, 2.000000000000005329 ) ;
#553 = CARTESIAN_POINT ( 'NONE',  ( 14.75393573227429300, -18.23731090247560616, 10.00000000000000000 ) ) ;
#554 = EDGE_CURVE ( 'NONE', #1232, #457, #1084, .T. ) ;
#555 = ORIENTED_EDGE ( 'NONE', *, *, #426, .T. ) ;
#556 = AXIS2_PLACEMENT_3D ( 'NONE', #1051, #303, #89 ) ;
#557 = AXIS2_PLACEMENT_3D ( 'NONE', #458, #78, #452 ) ;
#558 = ORIENTED_EDGE ( 'NONE', *, *, #1210, .T. ) ;
#559 = DIRECTION ( 'NONE',  ( -1.000000000000000000, 0.000000000000000000, 0.000000000000000000 ) ) ;
#560 = ADVANCED_FACE ( 'NONE', ( #878 ), #802, .F. ) ;
#561 = CARTESIAN_POINT ( 'NONE',  ( 20.75393573227428234, -93.15235955056182604, 25.00000000000000000 ) ) ;
#562 = VECTOR ( 'NONE', #285, 1000.000000000000000 ) ;
#563 = DIRECTION ( 'NONE',  ( -0.000000000000000000, -0.000000000000000000, 1.000000000000000000 ) ) ;
#564 = AXIS2_PLACEMENT_3D ( 'NONE', #523, #480, #98 ) ;
#565 = ORIENTED_EDGE ( 'NONE', *, *, #348, .F. ) ;
#566 = ORIENTED_EDGE ( 'NONE', *, *, #836, .T. ) ;
#567 = CARTESIAN_POINT ( 'NONE',  ( -14.38824637112140437, 47.84764044943816685, 0.000000000000000000 ) ) ;
#568 = CARTESIAN_POINT ( 'NONE',  ( -17.38824637112142568, 25.84764044943818817, 10.00000000000000000 ) ) ;
#569 = CARTESIAN_POINT ( 'NONE',  ( -47.24606426772573542, 121.8476404494381740, 20.00000000000000000 ) ) ;
#570 = ORIENTED_EDGE ( 'NONE', *, *, #941, .T. ) ;
#571 = ORIENTED_EDGE ( 'NONE', *, *, #366, .T. ) ;
#572 = EDGE_CURVE ( 'NONE', #1232, #1074, #592, .T. ) ;
#573 = DIRECTION ( 'NONE',  ( -1.000000000000000000, 0.000000000000000000, 0.000000000000000000 ) ) ;
#574 = CARTESIAN_POINT ( 'NONE',  ( -14.38824637112140437, 22.84764044943817041, 10.00000000000000000 ) ) ;
#575 = VERTEX_POINT ( 'NONE', #509 ) ;
#576 = ORIENTED_EDGE ( 'NONE', *, *, #572, .F. ) ;
#577 = AXIS2_PLACEMENT_3D ( 'NONE', #492, #1082, #772 ) ;
#578 = DIRECTION ( 'NONE',  ( -0.000000000000000000, -0.000000000000000000, 1.000000000000000000 ) ) ;
#579 = EDGE_CURVE ( 'NONE', #1074, #444, #322, .T. ) ;
#580 = CARTESIAN_POINT ( 'NONE',  ( -27.24606426772573187, -63.15235955056182604, -1.734723475976807883E-15 ) ) ;
#581 = ORIENTED_EDGE ( 'NONE', *, *, #332, .F. ) ;
#582 = VECTOR ( 'NONE', #36, 1000.000000000000000 ) ;
#583 = ORIENTED_EDGE ( 'NONE', *, *, #178, .F. ) ;
#584 = PRESENTATION_STYLE_ASSIGNMENT (( #133 ) ) ;
#585 = FACE_OUTER_BOUND ( 'NONE', #751, .T. ) ;
#586 = ADVANCED_FACE ( 'NONE', ( #585 ), #885, .F. ) ;
#587 = ORIENTED_EDGE ( 'NONE', *, *, #489, .F. ) ;
#588 = LINE ( 'NONE', #544, #271 ) ;
#589 = EDGE_CURVE ( 'NONE', #138, #324, #35, .T. ) ;
#590 = EDGE_LOOP ( 'NONE', ( #58, #106, #1182, #607 ) ) ;
#591 = DIRECTION ( 'NONE',  ( 1.315430123963455640E-16, -1.000000000000000000, 0.000000000000000000 ) ) ;
#592 = LINE ( 'NONE', #200, #386 ) ;
#593 = DIRECTION ( 'NONE',  ( -0.000000000000000000, -0.000000000000000000, -1.000000000000000000 ) ) ;
#594 = EDGE_CURVE ( 'NONE', #99, #202, #990, .T. ) ;
#595 = ORIENTED_EDGE ( 'NONE', *, *, #616, .F. ) ;
#596 = CARTESIAN_POINT ( 'NONE',  ( -24.99606426772574252, -63.15235955056182604, 2.450000000000007727 ) ) ;
#597 = VECTOR ( 'NONE', #216, 1000.000000000000000 ) ;
#598 = FACE_BOUND ( 'NONE', #1179, .T. ) ;
#599 = DIRECTION ( 'NONE',  ( 1.000000000000000000, 0.000000000000000000, 0.000000000000000000 ) ) ;
#600 =( NAMED_UNIT ( * ) SI_UNIT ( $, .STERADIAN. ) SOLID_ANGLE_UNIT ( ) );
#601 = ORIENTED_EDGE ( 'NONE', *, *, #579, .F. ) ;
#602 = VECTOR ( 'NONE', #374, 1000.000000000000000 ) ;
#603 = EDGE_CURVE ( 'NONE', #450, #654, #44, .T. ) ;
#604 = SURFACE_SIDE_STYLE ('',( #1230 ) ) ;
#605 = DIRECTION ( 'NONE',  ( 1.000000000000000000, 0.000000000000000000, 0.000000000000000000 ) ) ;
#606 = CARTESIAN_POINT ( 'NONE',  ( -29.49606426772572121, -63.15235955056182604, 0.000000000000000000 ) ) ;
#607 = ORIENTED_EDGE ( 'NONE', *, *, #201, .F. ) ;
#608 = LINE ( 'NONE', #1174, #697 ) ;
#609 = ADVANCED_FACE ( 'NONE', ( #809 ), #682, .F. ) ;
#610 = DIRECTION ( 'NONE',  ( -0.000000000000000000, 0.000000000000000000, -1.000000000000000000 ) ) ;
#611 = CARTESIAN_POINT ( 'NONE',  ( -9.246064267725712327, -88.15235955056181183, 25.00000000000000000 ) ) ;
#612 =( NAMED_UNIT ( * ) PLANE_ANGLE_UNIT ( ) SI_UNIT ( $, .RADIAN. ) );
#613 = ORIENTED_EDGE ( 'NONE', *, *, #1227, .T. ) ;
#614 = DIRECTION ( 'NONE',  ( 0.000000000000000000, 0.000000000000000000, -1.000000000000000000 ) ) ;
#615 = FACE_OUTER_BOUND ( 'NONE', #725, .T. ) ;
#616 = EDGE_CURVE ( 'NONE', #639, #872, #820, .T. ) ;
#617 = CONICAL_SURFACE ( 'NONE', #577, 4.699999999999995737, 0.7853981633974485010 ) ;
#618 = CARTESIAN_POINT ( 'NONE',  ( -30.24606426772570700, -18.23731090247560616, 10.00000000000000000 ) ) ;
#619 = VECTOR ( 'NONE', #655, 1000.000000000000000 ) ;
#620 = ORIENTED_EDGE ( 'NONE', *, *, #1177, .F. ) ;
#621 = CARTESIAN_POINT ( 'NONE',  ( -24.99606426772573897, 91.84764044943818817, 20.00000000000000000 ) ) ;
#622 = PRODUCT ( '\X2\0443041b\X0\', '\X2\0443041b\X0\', '', ( #1186 ) ) ;
#623 = AXIS2_PLACEMENT_3D ( 'NONE', #86, #954, #81 ) ;
#624 = CARTESIAN_POINT ( 'NONE',  ( -4.246064267725734531, 93.63892316328160348, 20.00000000000000000 ) ) ;
#625 = LINE ( 'NONE', #152, #1107 ) ;
#626 = ADVANCED_FACE ( 'NONE', ( #615 ), #484, .F. ) ;
#627 = EDGE_LOOP ( 'NONE', ( #177, #283, #291, #415 ) ) ;
#628 = CARTESIAN_POINT ( 'NONE',  ( -4.246064267725734531, 93.63892316328160348, 20.00000000000000000 ) ) ;
#629 = PLANE ( 'NONE',  #465 ) ;
#630 = DIRECTION ( 'NONE',  ( -0.000000000000000000, -0.000000000000000000, -1.000000000000000000 ) ) ;
#631 = ORIENTED_EDGE ( 'NONE', *, *, #836, .F. ) ;
#632 = ADVANCED_FACE ( 'NONE', ( #140 ), #629, .F. ) ;
#633 = ORIENTED_EDGE ( 'NONE', *, *, #459, .F. ) ;
#634 = DIRECTION ( 'NONE',  ( 1.000000000000000000, 0.000000000000000000, 0.000000000000000000 ) ) ;
#635 = CARTESIAN_POINT ( 'NONE',  ( -1.899221585621297947, 47.84764044943817396, -3.469446951953614189E-15 ) ) ;
#636 = EDGE_CURVE ( 'NONE', #276, #132, #151, .T. ) ;
#637 = DIRECTION ( 'NONE',  ( -0.000000000000000000, -0.000000000000000000, -1.000000000000000000 ) ) ;
#638 = AXIS2_PLACEMENT_3D ( 'NONE', #431, #43, #817 ) ;
#639 = VERTEX_POINT ( 'NONE', #624 ) ;
#640 = ORIENTED_EDGE ( 'NONE', *, *, #1103, .F. ) ;
#641 = LINE ( 'NONE', #1194, #777 ) ;
#642 = CARTESIAN_POINT ( 'NONE',  ( -30.24606426772570700, -18.23731090247560616, 10.00000000000000000 ) ) ;
#643 = VECTOR ( 'NONE', #212, 1000.000000000000000 ) ;
#644 = AXIS2_PLACEMENT_3D ( 'NONE', #687, #505, #1175 ) ;
#645 = DIRECTION ( 'NONE',  ( 0.000000000000000000, -0.000000000000000000, -1.000000000000000000 ) ) ;
#646 = ORIENTED_EDGE ( 'NONE', *, *, #1017, .F. ) ;
#647 = EDGE_LOOP ( 'NONE', ( #796, #965, #180, #370 ) ) ;
#648 = DIRECTION ( 'NONE',  ( -1.000000000000000000, -0.000000000000000000, -0.000000000000000000 ) ) ;
#649 = CARTESIAN_POINT ( 'NONE',  ( 14.75393573227426458, 93.63892316328160348, 20.00000000000000000 ) ) ;
#650 = EDGE_CURVE ( 'NONE', #99, #943, #61, .T. ) ;
#651 = CARTESIAN_POINT ( 'NONE',  ( -50.24606426772569279, -93.15235955056182604, 0.000000000000000000 ) ) ;
#652 = VERTEX_POINT ( 'NONE', #253 ) ;
#653 = EDGE_CURVE ( 'NONE', #173, #846, #163, .T. ) ;
#654 = VERTEX_POINT ( 'NONE', #1020 ) ;
#655 = DIRECTION ( 'NONE',  ( -0.000000000000000000, -0.000000000000000000, 1.000000000000000000 ) ) ;
#656 = PRODUCT_DEFINITION_SHAPE ( 'NONE', 'NONE',  #1213 ) ;
#657 = LINE ( 'NONE', #649, #562 ) ;
#658 = CARTESIAN_POINT ( 'NONE',  ( 22.75393573227429300, -91.15235955056182604, 25.00000000000000000 ) ) ;
#659 = ORIENTED_EDGE ( 'NONE', *, *, #1042, .T. ) ;
#660 = VECTOR ( 'NONE', #372, 1000.000000000000000 ) ;
#661 = ORIENTED_EDGE ( 'NONE', *, *, #26, .F. ) ;
#662 = DIRECTION ( 'NONE',  ( -1.196361017915039486E-16, 1.000000000000000000, -0.000000000000000000 ) ) ;
#663 = DIRECTION ( 'NONE',  ( -1.000000000000000000, -0.000000000000000000, -0.000000000000000000 ) ) ;
#664 = LINE ( 'NONE', #1143, #868 ) ;
#665 = ORIENTED_EDGE ( 'NONE', *, *, #579, .T. ) ;
#666 = AXIS2_PLACEMENT_3D ( 'NONE', #580, #969, #171 ) ;
#667 = EDGE_CURVE ( 'NONE', #785, #1232, #533, .T. ) ;
#668 = ORIENTED_EDGE ( 'NONE', *, *, #818, .F. ) ;
#669 = CARTESIAN_POINT ( 'NONE',  ( -1.899221585621273745, 25.84764044943817041, 10.00000000000000000 ) ) ;
#670 = CARTESIAN_POINT ( 'NONE',  ( -52.24606426772573542, 119.8476404494381597, 0.000000000000000000 ) ) ;
#671 = FACE_OUTER_BOUND ( 'NONE', #882, .T. ) ;
#672 = ORIENTED_EDGE ( 'NONE', *, *, #215, .F. ) ;
#673 = ORIENTED_EDGE ( 'NONE', *, *, #524, .T. ) ;
#674 = ADVANCED_FACE ( 'NONE', ( #925 ), #439, .F. ) ;
#675 = DIRECTION ( 'NONE',  ( -1.201700616659941647E-16, 1.000000000000000000, -0.000000000000000000 ) ) ;
#676 = CARTESIAN_POINT ( 'NONE',  ( -27.24606426772573187, 91.84764044943818817, 0.000000000000000000 ) ) ;
#677 = ORIENTED_EDGE ( 'NONE', *, *, #908, .T. ) ;
#678 = VERTEX_POINT ( 'NONE', #827 ) ;
#679 = VECTOR ( 'NONE', #727, 1000.000000000000000 ) ;
#680 = CARTESIAN_POINT ( 'NONE',  ( -29.49606426772571766, -63.15235955056182604, 2.450000000000007727 ) ) ;
#681 = EDGE_CURVE ( 'NONE', #966, #1015, #407, .T. ) ;
#682 = PLANE ( 'NONE',  #1129 ) ;
#683 = CIRCLE ( 'NONE', #1086, 2.249999999999988010 ) ;
#684 = VECTOR ( 'NONE', #1216, 1000.000000000000000 ) ;
#685 = ORIENTED_EDGE ( 'NONE', *, *, #1021, .F. ) ;
#686 = PLANE ( 'NONE',  #1162 ) ;
#687 = CARTESIAN_POINT ( 'NONE',  ( -4.246064267725738084, 122.6389231632816035, 20.00000000000000000 ) ) ;
#688 = ADVANCED_FACE ( 'NONE', ( #337 ), #346, .F. ) ;
#689 = DIRECTION ( 'NONE',  ( -0.000000000000000000, -1.000000000000000000, -0.000000000000000000 ) ) ;
#690 = DIRECTION ( 'NONE',  ( 1.000000000000000000, 0.000000000000000000, 0.000000000000000000 ) ) ;
#691 = ORIENTED_EDGE ( 'NONE', *, *, #299, .T. ) ;
#692 = FACE_OUTER_BOUND ( 'NONE', #1044, .T. ) ;
#693 = CARTESIAN_POINT ( 'NONE',  ( -14.38824637112141147, 47.84764044943818107, 10.00000000000000000 ) ) ;
#694 = DIRECTION ( 'NONE',  ( -1.000000000000000000, 0.000000000000000000, 0.000000000000000000 ) ) ;
#695 = VERTEX_POINT ( 'NONE', #722 ) ;
#696 = LINE ( 'NONE', #121, #597 ) ;
#697 = VECTOR ( 'NONE', #890, 1000.000000000000000 ) ;
#698 = DIRECTION ( 'NONE',  ( 0.000000000000000000, 0.000000000000000000, 1.000000000000000000 ) ) ;
#699 = DIRECTION ( 'NONE',  ( -0.7071067811865477948, 0.000000000000000000, -0.7071067811865473507 ) ) ;
#700 = ORIENTED_EDGE ( 'NONE', *, *, #148, .T. ) ;
#701 = AXIS2_PLACEMENT_3D ( 'NONE', #488, #754, #964 ) ;
#702 = ADVANCED_FACE ( 'NONE', ( #145 ), #328, .F. ) ;
#703 = CARTESIAN_POINT ( 'NONE',  ( -14.38824637112140437, 22.84764044943817041, -3.469446951953614189E-15 ) ) ;
#704 = EDGE_LOOP ( 'NONE', ( #566, #884, #1226, #387, #1, #571, #900, #109 ) ) ;
#705 = PLANE ( 'NONE',  #644 ) ;
#706 = CARTESIAN_POINT ( 'NONE',  ( 1.100778414378723369, 44.84764044943814554, -3.469446951953614189E-15 ) ) ;
#707 = EDGE_LOOP ( 'NONE', ( #685, #518, #1132, #105 ) ) ;
#708 = ADVANCED_FACE ( 'NONE', ( #1109 ), #447, .T. ) ;
#709 = PLANE ( 'NONE',  #137 ) ;
#710 = DIRECTION ( 'NONE',  ( 1.000000000000000000, 0.000000000000000000, 0.000000000000000000 ) ) ;
#711 = LINE ( 'NONE', #899, #361 ) ;
#712 = ORIENTED_EDGE ( 'NONE', *, *, #793, .T. ) ;
#713 = CARTESIAN_POINT ( 'NONE',  ( -17.38824637112142568, 25.84764044943818817, -3.469446951953614189E-15 ) ) ;
#714 = PRESENTATION_LAYER_ASSIGNMENT (  '', '', ( #434 ) ) ;
#715 = DIRECTION ( 'NONE',  ( 1.000000000000000000, 0.000000000000000000, 0.000000000000000000 ) ) ;
#716 = AXIS2_PLACEMENT_3D ( 'NONE', #977, #739, #110 ) ;
#717 = DIRECTION ( 'NONE',  ( -1.000000000000000000, 0.000000000000000000, 0.000000000000000000 ) ) ;
#718 = ORIENTED_EDGE ( 'NONE', *, *, #813, .T. ) ;
#719 = DIRECTION ( 'NONE',  ( -0.000000000000000000, 1.000000000000000000, 0.000000000000000000 ) ) ;
#720 = VECTOR ( 'NONE', #185, 1000.000000000000000 ) ;
#721 = AXIS2_PLACEMENT_3D ( 'NONE', #527, #1096, #728 ) ;
#722 = CARTESIAN_POINT ( 'NONE',  ( 14.75393573227428590, 47.84764044943817396, 10.00000000000000000 ) ) ;
#723 = EDGE_CURVE ( 'NONE', #1214, #464, #247, .T. ) ;
#724 = FACE_OUTER_BOUND ( 'NONE', #118, .T. ) ;
#725 = EDGE_LOOP ( 'NONE', ( #745, #691, #999, #583 ) ) ;
#726 = ORIENTED_EDGE ( 'NONE', *, *, #201, .T. ) ;
#727 = DIRECTION ( 'NONE',  ( 1.000000000000000000, -0.000000000000000000, -0.000000000000000000 ) ) ;
#728 = DIRECTION ( 'NONE',  ( -1.201700616659941647E-16, 1.000000000000000000, 0.000000000000000000 ) ) ;
#729 = DIRECTION ( 'NONE',  ( -1.000000000000000000, 1.541976423090495387E-16, -0.000000000000000000 ) ) ;
#730 = ORIENTED_EDGE ( 'NONE', *, *, #549, .T. ) ;
#731 = EDGE_LOOP ( 'NONE', ( #320, #976, #161, #239, #196, #889, #1050, #991 ) ) ;
#732 = PLANE ( 'NONE',  #948 ) ;
#733 = DIRECTION ( 'NONE',  ( 1.000000000000000000, -0.000000000000000000, -0.000000000000000000 ) ) ;
#734 = DIRECTION ( 'NONE',  ( 0.000000000000000000, 0.000000000000000000, 1.000000000000000000 ) ) ;
#735 = VECTOR ( 'NONE', #1108, 1000.000000000000000 ) ;
#736 = ORIENTED_EDGE ( 'NONE', *, *, #603, .T. ) ;
#737 = VERTEX_POINT ( 'NONE', #50 ) ;
#738 = EDGE_CURVE ( 'NONE', #445, #138, #911, .T. ) ;
#739 = DIRECTION ( 'NONE',  ( 0.000000000000000000, 0.000000000000000000, 1.000000000000000000 ) ) ;
#740 = CARTESIAN_POINT ( 'NONE',  ( -17.38824637112142923, 44.84764044943814554, -3.469446951953614189E-15 ) ) ;
#741 = AXIS2_PLACEMENT_3D ( 'NONE', #706, #981, #879 ) ;
#742 = AXIS2_PLACEMENT_3D ( 'NONE', #227, #1115, #1002 ) ;
#743 = CARTESIAN_POINT ( 'NONE',  ( -52.24606426772571410, -91.15235955056182604, 25.00000000000000000 ) ) ;
#744 = ORIENTED_EDGE ( 'NONE', *, *, #135, .F. ) ;
#745 = ORIENTED_EDGE ( 'NONE', *, *, #274, .F. ) ;
#746 = FACE_OUTER_BOUND ( 'NONE', #1023, .T. ) ;
#747 = EDGE_CURVE ( 'NONE', #537, #1098, #157, .T. ) ;
#748 = LINE ( 'NONE', #740, #1104 ) ;
#749 = FACE_OUTER_BOUND ( 'NONE', #590, .T. ) ;
#750 = VERTEX_POINT ( 'NONE', #670 ) ;
#751 = EDGE_LOOP ( 'NONE', ( #310, #476, #264, #570 ) ) ;
#752 = DIRECTION ( 'NONE',  ( -0.000000000000000000, -0.000000000000000000, 1.000000000000000000 ) ) ;
#753 = CARTESIAN_POINT ( 'NONE',  ( -24.99606426772574252, 91.84764044943818817, 2.450000000000007727 ) ) ;
#754 = DIRECTION ( 'NONE',  ( 0.000000000000000000, 0.000000000000000000, 1.000000000000000000 ) ) ;
#755 = EDGE_CURVE ( 'NONE', #268, #485, #183, .T. ) ;
#756 = VERTEX_POINT ( 'NONE', #568 ) ;
#757 = CIRCLE ( 'NONE', #24, 2.000000000000005329 ) ;
#758 = AXIS2_PLACEMENT_3D ( 'NONE', #259, #951, #495 ) ;
#759 = EDGE_CURVE ( 'NONE', #324, #65, #9, .T. ) ;
#760 = CARTESIAN_POINT ( 'NONE',  ( -52.24606426772571410, -91.15235955056182604, 25.00000000000000000 ) ) ;
#761 = CARTESIAN_POINT ( 'NONE',  ( 1.100778414378725589, 25.84764044943817041, -3.469446951953614189E-15 ) ) ;
#762 = CIRCLE ( 'NONE', #29, 2.249999999999991562 ) ;
#763 = CARTESIAN_POINT ( 'NONE',  ( -31.94606426772572760, 91.84764044943818817, -1.734723475976807883E-15 ) ) ;
#764 = ADVANCED_FACE ( 'NONE', ( #359, #867, #102, #479 ), #1046, .F. ) ;
#765 = EDGE_LOOP ( 'NONE', ( #1237, #57, #472, #127 ) ) ;
#766 = VERTEX_POINT ( 'NONE', #1135 ) ;
#767 = CYLINDRICAL_SURFACE ( 'NONE', #232, 2.249999999999991562 ) ;
#768 = DIRECTION ( 'NONE',  ( 0.000000000000000000, -1.000000000000000000, 0.000000000000000000 ) ) ;
#769 = EDGE_CURVE ( 'NONE', #695, #330, #192, .T. ) ;
#770 = ORIENTED_EDGE ( 'NONE', *, *, #1111, .T. ) ;
#771 = ORIENTED_EDGE ( 'NONE', *, *, #653, .T. ) ;
#772 = DIRECTION ( 'NONE',  ( -1.000000000000000000, 0.000000000000000000, 0.000000000000000000 ) ) ;
#773 = ORIENTED_EDGE ( 'NONE', *, *, #975, .F. ) ;
#774 = DIRECTION ( 'NONE',  ( -1.201700616659941647E-16, 1.000000000000000000, -0.000000000000000000 ) ) ;
#775 = VERTEX_POINT ( 'NONE', #388 ) ;
#776 = ORIENTED_EDGE ( 'NONE', *, *, #805, .T. ) ;
#777 = VECTOR ( 'NONE', #1208, 1000.000000000000000 ) ;
#778 = ADVANCED_FACE ( 'NONE', ( #367 ), #767, .F. ) ;
#779 = DIRECTION ( 'NONE',  ( -0.000000000000000000, -0.000000000000000000, -1.000000000000000000 ) ) ;
#780 = CARTESIAN_POINT ( 'NONE',  ( -14.38824637112142923, 44.84764044943816685, -3.469446951953614189E-15 ) ) ;
#781 = VECTOR ( 'NONE', #69, 1000.000000000000000 ) ;
#782 = DIRECTION ( 'NONE',  ( -0.000000000000000000, -0.000000000000000000, 1.000000000000000000 ) ) ;
#783 = LINE ( 'NONE', #1168, #619 ) ;
#784 = VECTOR ( 'NONE', #689, 1000.000000000000000 ) ;
#785 = VERTEX_POINT ( 'NONE', #855 ) ;
#786 = FACE_OUTER_BOUND ( 'NONE', #33, .T. ) ;
#787 = ORIENTED_EDGE ( 'NONE', *, *, #805, .F. ) ;
#788 = CARTESIAN_POINT ( 'NONE',  ( -30.24606426772571410, 47.84764044943818107, 10.00000000000000000 ) ) ;
#789 = CARTESIAN_POINT ( 'NONE',  ( -24.99606426772573897, -63.15235955056182604, 20.00000000000000000 ) ) ;
#790 = ORIENTED_EDGE ( 'NONE', *, *, #481, .T. ) ;
#791 = LINE ( 'NONE', #311, #97 ) ;
#792 = CARTESIAN_POINT ( 'NONE',  ( 0.000000000000000000, 0.000000000000000000, 20.00000000000000000 ) ) ;
#793 = EDGE_CURVE ( 'NONE', #238, #837, #748, .T. ) ;
#794 = CARTESIAN_POINT ( 'NONE',  ( -27.24606426772573187, 91.84764044943818817, 20.00000000000000000 ) ) ;
#795 = CARTESIAN_POINT ( 'NONE',  ( -9.246064267725712327, -88.15235955056181183, 20.00000000000000000 ) ) ;
#796 = ORIENTED_EDGE ( 'NONE', *, *, #397, .T. ) ;
#797 = EDGE_CURVE ( 'NONE', #430, #652, #382, .T. ) ;
#798 = LINE ( 'NONE', #703, #41 ) ;
#799 = MECHANICAL_DESIGN_GEOMETRIC_PRESENTATION_REPRESENTATION (  '', ( #434 ), #535 ) ;
#800 = AXIS2_PLACEMENT_3D ( 'NONE', #52, #906, #804 ) ;
#801 = VERTEX_POINT ( 'NONE', #761 ) ;
#802 = PLANE ( 'NONE',  #321 ) ;
#803 = CARTESIAN_POINT ( 'NONE',  ( -14.38824637112142568, 25.84764044943817041, 10.00000000000000000 ) ) ;
#804 = DIRECTION ( 'NONE',  ( 1.000000000000000000, 0.000000000000000000, 0.000000000000000000 ) ) ;
#805 = EDGE_CURVE ( 'NONE', #466, #983, #1202, .T. ) ;
#806 = ORIENTED_EDGE ( 'NONE', *, *, #747, .T. ) ;
#807 = VECTOR ( 'NONE', #1022, 1000.000000000000000 ) ;
#808 = DIRECTION ( 'NONE',  ( 0.000000000000000000, 0.000000000000000000, 1.000000000000000000 ) ) ;
#809 = FACE_OUTER_BOUND ( 'NONE', #765, .T. ) ;
#810 = LINE ( 'NONE', #606, #338 ) ;
#811 = ORIENTED_EDGE ( 'NONE', *, *, #1125, .F. ) ;
#812 = DIRECTION ( 'NONE',  ( 1.000000000000000000, 0.000000000000000000, -0.000000000000000000 ) ) ;
#813 = EDGE_CURVE ( 'NONE', #42, #1016, #657, .T. ) ;
#814 = DIRECTION ( 'NONE',  ( -0.000000000000000000, 1.000000000000000000, 0.000000000000000000 ) ) ;
#815 = LINE ( 'NONE', #1030, #405 ) ;
#816 = ORIENTED_EDGE ( 'NONE', *, *, #636, .F. ) ;
#817 = DIRECTION ( 'NONE',  ( 1.000000000000000000, 0.000000000000000000, 0.000000000000000000 ) ) ;
#818 = EDGE_CURVE ( 'NONE', #1138, #132, #486, .T. ) ;
#819 = AXIS2_PLACEMENT_3D ( 'NONE', #847, #377, #690 ) ;
#820 = LINE ( 'NONE', #841, #684 ) ;
#821 = CARTESIAN_POINT ( 'NONE',  ( -17.38824637112142923, 44.84764044943814554, -3.469446951953614189E-15 ) ) ;
#822 = ORIENTED_EDGE ( 'NONE', *, *, #148, .F. ) ;
#823 = VECTOR ( 'NONE', #1156, 1000.000000000000000 ) ;
#824 = EDGE_LOOP ( 'NONE', ( #677, #1113, #909, #153, #263, #1010, #790, #832 ) ) ;
#825 = CARTESIAN_POINT ( 'NONE',  ( -50.24606426772572831, 119.8476404494381740, 0.000000000000000000 ) ) ;
#826 = VECTOR ( 'NONE', #919, 1000.000000000000000 ) ;
#827 = CARTESIAN_POINT ( 'NONE',  ( -47.24606426772573542, -88.15235955056181183, 25.00000000000000000 ) ) ;
#828 = CARTESIAN_POINT ( 'NONE',  ( 20.75393573227426458, 121.8476404494381740, 0.000000000000000000 ) ) ;
#829 = EDGE_CURVE ( 'NONE', #204, #1133, #1130, .T. ) ;
#830 = ORIENTED_EDGE ( 'NONE', *, *, #957, .F. ) ;
#831 = PRODUCT_RELATED_PRODUCT_CATEGORY ( 'part', '', ( #622 ) ) ;
#832 = ORIENTED_EDGE ( 'NONE', *, *, #164, .T. ) ;
#833 = DIRECTION ( 'NONE',  ( -0.000000000000000000, -0.000000000000000000, 1.000000000000000000 ) ) ;
#834 = CARTESIAN_POINT ( 'NONE',  ( -50.24606426772569279, -93.15235955056182604, 0.000000000000000000 ) ) ;
#835 = CARTESIAN_POINT ( 'NONE',  ( -27.24606426772573187, 91.84764044943818817, 0.000000000000000000 ) ) ;
#836 = EDGE_CURVE ( 'NONE', #737, #1016, #188, .T. ) ;
#837 = VERTEX_POINT ( 'NONE', #1059 ) ;
#838 = ADVANCED_FACE ( 'NONE', ( #1222 ), #552, .T. ) ;
#839 = ORIENTED_EDGE ( 'NONE', *, *, #459, .T. ) ;
#840 = LINE ( 'NONE', #1140, #497 ) ;
#841 = CARTESIAN_POINT ( 'NONE',  ( -4.246064267725734531, 93.63892316328160348, 20.00000000000000000 ) ) ;
#842 = PLANE ( 'NONE',  #197 ) ;
#843 = VECTOR ( 'NONE', #222, 1000.000000000000000 ) ;
#844 = ORIENTED_EDGE ( 'NONE', *, *, #1152, .F. ) ;
#845 = EDGE_CURVE ( 'NONE', #543, #529, #963, .T. ) ;
#846 = VERTEX_POINT ( 'NONE', #80 ) ;
#847 = CARTESIAN_POINT ( 'NONE',  ( -50.24606426772572831, 119.8476404494381740, 25.00000000000000000 ) ) ;
#848 = FILL_AREA_STYLE_COLOUR ( '', #902 ) ;
#849 = AXIS2_PLACEMENT_3D ( 'NONE', #329, #988, #126 ) ;
#850 = AXIS2_PLACEMENT_3D ( 'NONE', #389, #768, #1155 ) ;
#851 = CARTESIAN_POINT ( 'NONE',  ( -22.54606426772573258, -63.15235955056182604, -1.734723475976807883E-15 ) ) ;
#852 = EDGE_LOOP ( 'NONE', ( #269, #364, #936, #491, #921, #730, #208, #455, #344, #771, #167, #876 ) ) ;
#853 = VERTEX_POINT ( 'NONE', #753 ) ;
#854 = LINE ( 'NONE', #1234, #1081 ) ;
#855 = CARTESIAN_POINT ( 'NONE',  ( -47.24606426772573542, -88.15235955056181183, 20.00000000000000000 ) ) ;
#856 = LINE ( 'NONE', #553, #1148 ) ;
#857 = ORIENTED_EDGE ( 'NONE', *, *, #39, .T. ) ;
#858 = MANIFOLD_SOLID_BREP ( '\X2\0412044b044004350437\X0\-\X2\0412044b0442044f043d04430442044c\X0\4', #179 ) ;
#859 = ORIENTED_EDGE ( 'NONE', *, *, #908, .F. ) ;
#860 = DIRECTION ( 'NONE',  ( -0.000000000000000000, -0.000000000000000000, -1.000000000000000000 ) ) ;
#861 = DIRECTION ( 'NONE',  ( -1.000000000000000000, 0.000000000000000000, 0.000000000000000000 ) ) ;
#862 = ADVANCED_FACE ( 'NONE', ( #128 ), #478, .F. ) ;
#863 = CARTESIAN_POINT ( 'NONE',  ( -1.899221585621304387, 47.84764044943817396, 10.00000000000000000 ) ) ;
#864 = ORIENTED_EDGE ( 'NONE', *, *, #992, .F. ) ;
#865 = AXIS2_PLACEMENT_3D ( 'NONE', #1128, #939, #1220 ) ;
#866 = ORIENTED_EDGE ( 'NONE', *, *, #957, .T. ) ;
#867 = FACE_OUTER_BOUND ( 'NONE', #973, .T. ) ;
#868 = VECTOR ( 'NONE', #774, 1000.000000000000000 ) ;
#869 = LINE ( 'NONE', #286, #8 ) ;
#870 = AXIS2_PLACEMENT_3D ( 'NONE', #134, #30, #605 ) ;
#871 = ORIENTED_EDGE ( 'NONE', *, *, #755, .T. ) ;
#872 = VERTEX_POINT ( 'NONE', #996 ) ;
#873 = DIRECTION ( 'NONE',  ( -1.000000000000000000, -0.000000000000000000, -0.000000000000000000 ) ) ;
#874 = ORIENTED_EDGE ( 'NONE', *, *, #1171, .T. ) ;
#875 = EDGE_CURVE ( 'NONE', #451, #268, #608, .T. ) ;
#876 = ORIENTED_EDGE ( 'NONE', *, *, #260, .T. ) ;
#877 = DIRECTION ( 'NONE',  ( -1.196361017915039486E-16, 1.000000000000000000, -0.000000000000000000 ) ) ;
#878 = FACE_OUTER_BOUND ( 'NONE', #384, .T. ) ;
#879 = DIRECTION ( 'NONE',  ( -1.141265444721586223E-16, 1.000000000000000000, 0.000000000000000000 ) ) ;
#880 = DIRECTION ( 'NONE',  ( -1.201700616659941647E-16, 1.000000000000000000, -0.000000000000000000 ) ) ;
#881 = AXIS2_PLACEMENT_3D ( 'NONE', #155, #538, #1215 ) ;
#882 = EDGE_LOOP ( 'NONE', ( #7, #864, #822, #830 ) ) ;
#883 = CARTESIAN_POINT ( 'NONE',  ( -27.24606426772573187, 91.84764044943818817, -1.734723475976807883E-15 ) ) ;
#884 = ORIENTED_EDGE ( 'NONE', *, *, #813, .F. ) ;
#885 = CYLINDRICAL_SURFACE ( 'NONE', #870, 2.999999999999999112 ) ;
#886 = PLANE ( 'NONE',  #849 ) ;
#887 = CIRCLE ( 'NONE', #421, 2.999999999999999112 ) ;
#888 = VECTOR ( 'NONE', #114, 1000.000000000000000 ) ;
#889 = ORIENTED_EDGE ( 'NONE', *, *, #723, .T. ) ;
#890 = DIRECTION ( 'NONE',  ( 1.000000000000000000, 0.000000000000000000, 0.000000000000000000 ) ) ;
#891 = EDGE_CURVE ( 'NONE', #652, #430, #1121, .T. ) ;
#892 = DIRECTION ( 'NONE',  ( 0.000000000000000000, -1.000000000000000000, -0.000000000000000000 ) ) ;
#893 = ADVANCED_FACE ( 'NONE', ( #1159 ), #1164, .F. ) ;
#894 = CARTESIAN_POINT ( 'NONE',  ( -27.24606426772573187, -63.15235955056182604, 2.450000000000007727 ) ) ;
#895 = ORIENTED_EDGE ( 'NONE', *, *, #984, .F. ) ;
#896 = DIRECTION ( 'NONE',  ( -1.000000000000000000, 0.000000000000000000, 0.000000000000000000 ) ) ;
#897 = CARTESIAN_POINT ( 'NONE',  ( 22.75393573227429300, -91.15235955056182604, 25.00000000000000000 ) ) ;
#898 = EDGE_CURVE ( 'NONE', #1015, #392, #798, .T. ) ;
#899 = CARTESIAN_POINT ( 'NONE',  ( 22.75393573227426458, 119.8476404494381740, 25.00000000000000000 ) ) ;
#900 = ORIENTED_EDGE ( 'NONE', *, *, #413, .F. ) ;
#901 = CARTESIAN_POINT ( 'NONE',  ( -30.24606426772571410, 47.84764044943818107, 10.00000000000000000 ) ) ;
#902 = COLOUR_RGB ( '',0.7921568627450980005, 0.8196078431372548767, 0.9333333333333333481 ) ;
#903 = ADVANCED_FACE ( 'NONE', ( #406 ), #617, .F. ) ;
#904 = DIRECTION ( 'NONE',  ( -2.262682794752357637E-16, 1.000000000000000000, -0.000000000000000000 ) ) ;
#905 = CARTESIAN_POINT ( 'NONE',  ( -30.24606426772571410, 47.84764044943818107, 20.00000000000000000 ) ) ;
#906 = DIRECTION ( 'NONE',  ( 0.000000000000000000, 0.000000000000000000, 1.000000000000000000 ) ) ;
#907 = VECTOR ( 'NONE', #1039, 1000.000000000000000 ) ;
#908 = EDGE_CURVE ( 'NONE', #801, #537, #290, .T. ) ;
#909 = ORIENTED_EDGE ( 'NONE', *, *, #441, .T. ) ;
#910 = VECTOR ( 'NONE', #782, 1000.000000000000000 ) ;
#911 = CIRCLE ( 'NONE', #199, 2.000000000000001776 ) ;
#912 = CARTESIAN_POINT ( 'NONE',  ( -52.24606426772573542, 119.8476404494381597, 0.000000000000000000 ) ) ;
#913 = DIRECTION ( 'NONE',  ( -0.000000000000000000, -0.000000000000000000, 1.000000000000000000 ) ) ;
#914 = CARTESIAN_POINT ( 'NONE',  ( -1.899221585621276631, 44.84764044943816685, -3.469446951953614189E-15 ) ) ;
#915 = VERTEX_POINT ( 'NONE', #680 ) ;
#916 = EDGE_CURVE ( 'NONE', #639, #268, #1064, .T. ) ;
#917 = LINE ( 'NONE', #54, #735 ) ;
#918 = DIRECTION ( 'NONE',  ( 0.000000000000000000, -0.000000000000000000, -1.000000000000000000 ) ) ;
#919 = DIRECTION ( 'NONE',  ( 1.826024711554537858E-16, -1.000000000000000000, 0.000000000000000000 ) ) ;
#920 = ORIENTED_EDGE ( 'NONE', *, *, #315, .F. ) ;
#921 = ORIENTED_EDGE ( 'NONE', *, *, #96, .T. ) ;
#922 = CARTESIAN_POINT ( 'NONE',  ( -14.38824637112140259, 22.84764044943817041, 10.00000000000000000 ) ) ;
#923 = ADVANCED_FACE ( 'NONE', ( #786 ), #305, .F. ) ;
#924 = VECTOR ( 'NONE', #270, 1000.000000000000000 ) ;
#925 = FACE_OUTER_BOUND ( 'NONE', #731, .T. ) ;
#926 = CIRCLE ( 'NONE', #716, 2.000000000000001776 ) ;
#927 = DIRECTION ( 'NONE',  ( -0.000000000000000000, -0.000000000000000000, -1.000000000000000000 ) ) ;
#928 = ORIENTED_EDGE ( 'NONE', *, *, #1103, .T. ) ;
#929 = VECTOR ( 'NONE', #146, 1000.000000000000000 ) ;
#930 = ORIENTED_EDGE ( 'NONE', *, *, #156, .T. ) ;
#931 = FACE_OUTER_BOUND ( 'NONE', #149, .T. ) ;
#932 = VECTOR ( 'NONE', #1041, 1000.000000000000000 ) ;
#933 = CARTESIAN_POINT ( 'NONE',  ( 1.100778414378723369, 44.84764044943814554, -3.469446951953614189E-15 ) ) ;
#934 = EDGE_CURVE ( 'NONE', #457, #444, #398, .T. ) ;
#935 = CARTESIAN_POINT ( 'NONE',  ( -29.49606426772572121, 91.84764044943818817, 0.000000000000000000 ) ) ;
#936 = ORIENTED_EDGE ( 'NONE', *, *, #1177, .T. ) ;
#937 = ADVANCED_FACE ( 'NONE', ( #692 ), #686, .F. ) ;
#938 = ORIENTED_EDGE ( 'NONE', *, *, #187, .F. ) ;
#939 = DIRECTION ( 'NONE',  ( 0.000000000000000000, -0.000000000000000000, -1.000000000000000000 ) ) ;
#940 = DIRECTION ( 'NONE',  ( 0.000000000000000000, -1.000000000000000000, 0.000000000000000000 ) ) ;
#941 = EDGE_CURVE ( 'NONE', #966, #756, #791, .T. ) ;
#942 = CARTESIAN_POINT ( 'NONE',  ( -29.49606426772571766, 91.84764044943818817, 2.450000000000007727 ) ) ;
#943 = VERTEX_POINT ( 'NONE', #596 ) ;
#944 = ORIENTED_EDGE ( 'NONE', *, *, #975, .T. ) ;
#945 = CARTESIAN_POINT ( 'NONE',  ( 14.75393573227429300, -18.23731090247560616, 20.00000000000000000 ) ) ;
#946 = CARTESIAN_POINT ( 'NONE',  ( 20.75393573227428234, -91.15235955056182604, 25.00000000000000000 ) ) ;
#947 = PLANE ( 'NONE',  #623 ) ;
#948 = AXIS2_PLACEMENT_3D ( 'NONE', #1120, #808, #812 ) ;
#949 = ORIENTED_EDGE ( 'NONE', *, *, #413, .T. ) ;
#950 = ORIENTED_EDGE ( 'NONE', *, *, #76, .T. ) ;
#951 = DIRECTION ( 'NONE',  ( 1.000000000000000000, 9.865725929725919765E-17, -0.000000000000000000 ) ) ;
#952 = DIRECTION ( 'NONE',  ( 9.865725929725919765E-17, -1.000000000000000000, 0.000000000000000000 ) ) ;
#953 = CIRCLE ( 'NONE', #123, 2.249999999999988010 ) ;
#954 = DIRECTION ( 'NONE',  ( -1.000000000000000000, 0.000000000000000000, 0.000000000000000000 ) ) ;
#955 = ORIENTED_EDGE ( 'NONE', *, *, #554, .T. ) ;
#956 = ORIENTED_EDGE ( 'NONE', *, *, #875, .F. ) ;
#957 = EDGE_CURVE ( 'NONE', #962, #451, #696, .T. ) ;
#958 = CARTESIAN_POINT ( 'NONE',  ( 1.100778414378723369, 44.84764044943814554, 10.00000000000000000 ) ) ;
#959 = CARTESIAN_POINT ( 'NONE',  ( 14.75393573227428590, 47.84764044943817396, 10.00000000000000000 ) ) ;
#960 = CARTESIAN_POINT ( 'NONE',  ( -9.246064267725712327, -88.15235955056181183, 25.00000000000000000 ) ) ;
#961 = ORIENTED_EDGE ( 'NONE', *, *, #650, .T. ) ;
#962 = VERTEX_POINT ( 'NONE', #438 ) ;
#963 = LINE ( 'NONE', #95, #660 ) ;
#964 = DIRECTION ( 'NONE',  ( -1.000000000000000000, 0.000000000000000000, 0.000000000000000000 ) ) ;
#965 = ORIENTED_EDGE ( 'NONE', *, *, #39, .F. ) ;
#966 = VERTEX_POINT ( 'NONE', #713 ) ;
#967 = DIRECTION ( 'NONE',  ( -0.000000000000000000, -0.000000000000000000, -1.000000000000000000 ) ) ;
#968 = CIRCLE ( 'NONE', #101, 2.000000000000001776 ) ;
#969 = DIRECTION ( 'NONE',  ( -0.000000000000000000, -0.000000000000000000, -1.000000000000000000 ) ) ;
#970 = ADVANCED_FACE ( 'NONE', ( #246 ), #68, .T. ) ;
#971 = VECTOR ( 'NONE', #1165, 1000.000000000000000 ) ;
#972 = ORIENTED_EDGE ( 'NONE', *, *, #489, .T. ) ;
#973 = EDGE_LOOP ( 'NONE', ( #581, #112, #646, #816, #550, #1037, #496, #1112 ) ) ;
#974 = CARTESIAN_POINT ( 'NONE',  ( -9.246064267725712327, -88.15235955056181183, 20.00000000000000000 ) ) ;
#975 = EDGE_CURVE ( 'NONE', #915, #1219, #240, .T. ) ;
#976 = ORIENTED_EDGE ( 'NONE', *, *, #1227, .F. ) ;
#977 = CARTESIAN_POINT ( 'NONE',  ( -50.24606426772570700, -91.15235955056182604, 25.00000000000000000 ) ) ;
#978 = EDGE_LOOP ( 'NONE', ( #1005, #19 ) ) ;
#979 = DIRECTION ( 'NONE',  ( 1.000000000000000000, 0.000000000000000000, 0.000000000000000000 ) ) ;
#980 = CYLINDRICAL_SURFACE ( 'NONE', #182, 2.000000000000001776 ) ;
#981 = DIRECTION ( 'NONE',  ( 1.000000000000000000, 1.141265444721586223E-16, 0.000000000000000000 ) ) ;
#982 = AXIS2_PLACEMENT_3D ( 'NONE', #460, #1181, #508 ) ;
#983 = VERTEX_POINT ( 'NONE', #621 ) ;
#984 = EDGE_CURVE ( 'NONE', #138, #485, #144, .T. ) ;
#985 = EDGE_CURVE ( 'NONE', #529, #173, #1199, .T. ) ;
#986 = FACE_OUTER_BOUND ( 'NONE', #284, .T. ) ;
#987 = AXIS2_PLACEMENT_3D ( 'NONE', #429, #645, #254 ) ;
#988 = DIRECTION ( 'NONE',  ( 1.000000000000000000, 2.262682794752357637E-16, 0.000000000000000000 ) ) ;
#989 = APPLICATION_PROTOCOL_DEFINITION ( 'draft international standard', 'automotive_design', 1998, #341 ) ;
#990 = CIRCLE ( 'NONE', #294, 2.249999999999991562 ) ;
#991 = ORIENTED_EDGE ( 'NONE', *, *, #769, .T. ) ;
#992 = EDGE_CURVE ( 'NONE', #785, #678, #917, .T. ) ;
#993 = CARTESIAN_POINT ( 'NONE',  ( -17.38824637112142923, 44.84764044943814554, 10.00000000000000000 ) ) ;
#994 = FACE_OUTER_BOUND ( 'NONE', #77, .T. ) ;
#995 = VERTEX_POINT ( 'NONE', #351 ) ;
#996 = CARTESIAN_POINT ( 'NONE',  ( -4.246064267725734531, 93.63892316328160348, 25.00000000000000000 ) ) ;
#997 = DIRECTION ( 'NONE',  ( -0.000000000000000000, -0.000000000000000000, -1.000000000000000000 ) ) ;
#998 = DIRECTION ( 'NONE',  ( 0.000000000000000000, -0.000000000000000000, -1.000000000000000000 ) ) ;
#999 = ORIENTED_EDGE ( 'NONE', *, *, #891, .T. ) ;
#1000 = CARTESIAN_POINT ( 'NONE',  ( -9.246064267725717656, -65.15235955056182604, 20.00000000000000000 ) ) ;
#1001 = AXIS2_PLACEMENT_3D ( 'NONE', #825, #513, #1018 ) ;
#1002 = DIRECTION ( 'NONE',  ( -1.000000000000000000, 0.000000000000000000, 0.000000000000000000 ) ) ;
#1003 = ADVANCED_FACE ( 'NONE', ( #345 ), #336, .F. ) ;
#1004 = DIRECTION ( 'NONE',  ( 1.000000000000000000, 0.000000000000000000, 0.000000000000000000 ) ) ;
#1005 = ORIENTED_EDGE ( 'NONE', *, *, #797, .F. ) ;
#1006 = CIRCLE ( 'NONE', #564, 2.249999999999991562 ) ;
#1007 = DIRECTION ( 'NONE',  ( -0.7071067811865477948, 0.000000000000000000, -0.7071067811865473507 ) ) ;
#1008 = DIRECTION ( 'NONE',  ( -1.000000000000000000, -1.049996067479329745E-16, 0.000000000000000000 ) ) ;
#1009 = CARTESIAN_POINT ( 'NONE',  ( -4.246064267725738084, 121.8476404494381740, 20.00000000000000000 ) ) ;
#1010 = ORIENTED_EDGE ( 'NONE', *, *, #681, .T. ) ;
#1011 = ORIENTED_EDGE ( 'NONE', *, *, #818, .T. ) ;
#1012 = DIRECTION ( 'NONE',  ( 0.000000000000000000, -0.000000000000000000, 1.000000000000000000 ) ) ;
#1013 = DIRECTION ( 'NONE',  ( 1.049996067479329745E-16, -1.000000000000000000, 0.000000000000000000 ) ) ;
#1014 = LINE ( 'NONE', #534, #463 ) ;
#1015 = VERTEX_POINT ( 'NONE', #150 ) ;
#1016 = VERTEX_POINT ( 'NONE', #1026 ) ;
#1017 = EDGE_CURVE ( 'NONE', #132, #654, #757, .T. ) ;
#1018 = DIRECTION ( 'NONE',  ( 1.000000000000000000, 0.000000000000000000, 0.000000000000000000 ) ) ;
#1019 = CIRCLE ( 'NONE', #881, 2.000000000000005329 ) ;
#1020 = CARTESIAN_POINT ( 'NONE',  ( 22.75393573227429300, -91.15235955056182604, 0.000000000000000000 ) ) ;
#1021 = EDGE_CURVE ( 'NONE', #362, #392, #1189, .T. ) ;
#1022 = DIRECTION ( 'NONE',  ( -0.000000000000000000, -0.000000000000000000, -1.000000000000000000 ) ) ;
#1023 = EDGE_LOOP ( 'NONE', ( #1127, #436, #87, #396 ) ) ;
#1024 = AXIS2_PLACEMENT_3D ( 'NONE', #381, #1137, #92 ) ;
#1025 = ORIENTED_EDGE ( 'NONE', *, *, #992, .T. ) ;
#1026 = CARTESIAN_POINT ( 'NONE',  ( 14.75393573227426458, 93.63892316328160348, 25.00000000000000000 ) ) ;
#1027 = AXIS2_PLACEMENT_3D ( 'NONE', #432, #1209, #710 ) ;
#1028 = EDGE_CURVE ( 'NONE', #65, #750, #1221, .T. ) ;
#1029 = DIRECTION ( 'NONE',  ( -1.000000000000000000, 0.000000000000000000, 0.000000000000000000 ) ) ;
#1030 = CARTESIAN_POINT ( 'NONE',  ( -22.54606426772573258, -63.15235955056182604, -1.734723475976807883E-15 ) ) ;
#1031 = EDGE_LOOP ( 'NONE', ( #288, #565, #1146, #482 ) ) ;
#1032 = DIRECTION ( 'NONE',  ( 1.000000000000000000, 0.000000000000000000, 0.000000000000000000 ) ) ;
#1033 = CARTESIAN_POINT ( 'NONE',  ( -27.24606426772573187, 91.84764044943818817, -1.734723475976807883E-15 ) ) ;
#1034 = DIRECTION ( 'NONE',  ( -1.049996067479329745E-16, 1.000000000000000000, -0.000000000000000000 ) ) ;
#1035 = ORIENTED_EDGE ( 'NONE', *, *, #667, .F. ) ;
#1036 = EDGE_CURVE ( 'NONE', #1098, #304, #641, .T. ) ;
#1037 = ORIENTED_EDGE ( 'NONE', *, *, #1078, .F. ) ;
#1038 = CARTESIAN_POINT ( 'NONE',  ( -1.899221585621294839, 22.84764044943817041, -3.469446951953614189E-15 ) ) ;
#1039 = DIRECTION ( 'NONE',  ( -0.000000000000000000, -0.000000000000000000, 1.000000000000000000 ) ) ;
#1040 = VECTOR ( 'NONE', #662, 1000.000000000000000 ) ;
#1041 = DIRECTION ( 'NONE',  ( -1.000000000000000000, -0.000000000000000000, -0.000000000000000000 ) ) ;
#1042 = EDGE_CURVE ( 'NONE', #444, #737, #446, .T. ) ;
#1043 = ORIENTED_EDGE ( 'NONE', *, *, #251, .T. ) ;
#1044 = EDGE_LOOP ( 'NONE', ( #88, #1187, #172, #736 ) ) ;
#1045 = CARTESIAN_POINT ( 'NONE',  ( -27.24606426772573187, -63.15235955056182604, -1.734723475976807883E-15 ) ) ;
#1046 = PLANE ( 'NONE',  #62 ) ;
#1047 = AXIS2_PLACEMENT_3D ( 'NONE', #792, #610, #301 ) ;
#1048 = CYLINDRICAL_SURFACE ( 'NONE', #64, 2.249999999999991562 ) ;
#1049 = ORIENTED_EDGE ( 'NONE', *, *, #76, .F. ) ;
#1050 = ORIENTED_EDGE ( 'NONE', *, *, #260, .F. ) ;
#1051 = CARTESIAN_POINT ( 'NONE',  ( -27.24606426772573187, -63.15235955056182604, -1.734723475976807883E-15 ) ) ;
#1052 = ADVANCED_FACE ( 'NONE', ( #420 ), #139, .F. ) ;
#1053 = DIRECTION ( 'NONE',  ( -0.000000000000000000, 0.000000000000000000, 1.000000000000000000 ) ) ;
#1054 = EDGE_CURVE ( 'NONE', #1138, #450, #1019, .T. ) ;
#1055 = FACE_OUTER_BOUND ( 'NONE', #512, .T. ) ;
#1056 = LINE ( 'NONE', #190, #823 ) ;
#1057 = ORIENTED_EDGE ( 'NONE', *, *, #5, .T. ) ;
#1058 = ADVANCED_FACE ( 'NONE', ( #931 ), #732, .T. ) ;
#1059 = CARTESIAN_POINT ( 'NONE',  ( -17.38824637112142923, 44.84764044943814554, 10.00000000000000000 ) ) ;
#1060 = LINE ( 'NONE', #1160, #278 ) ;
#1061 = ORIENTED_EDGE ( 'NONE', *, *, #549, .F. ) ;
#1062 = AXIS2_PLACEMENT_3D ( 'NONE', #628, #719, #1012 ) ;
#1063 = ORIENTED_EDGE ( 'NONE', *, *, #985, .F. ) ;
#1064 = LINE ( 'NONE', #209, #1198 ) ;
#1065 = ADVANCED_FACE ( 'NONE', ( #326 ), #709, .F. ) ;
#1066 = AXIS2_PLACEMENT_3D ( 'NONE', #914, #360, #75 ) ;
#1067 = CARTESIAN_POINT ( 'NONE',  ( -30.24606426772570700, -18.23731090247560616, 10.00000000000000000 ) ) ;
#1068 = VECTOR ( 'NONE', #1072, 1000.000000000000000 ) ;
#1069 = ORIENTED_EDGE ( 'NONE', *, *, #1118, .T. ) ;
#1070 = ORIENTED_EDGE ( 'NONE', *, *, #636, .T. ) ;
#1071 = CARTESIAN_POINT ( 'NONE',  ( 22.75393573227426458, 119.8476404494381740, 25.00000000000000000 ) ) ;
#1072 = DIRECTION ( 'NONE',  ( -0.000000000000000000, -0.000000000000000000, 1.000000000000000000 ) ) ;
#1073 = DIRECTION ( 'NONE',  ( 1.000000000000000000, 0.000000000000000000, 0.000000000000000000 ) ) ;
#1074 = VERTEX_POINT ( 'NONE', #1000 ) ;
#1075 = DIRECTION ( 'NONE',  ( -0.000000000000000000, -0.000000000000000000, 1.000000000000000000 ) ) ;
#1076 = FACE_OUTER_BOUND ( 'NONE', #1153, .T. ) ;
#1077 = LINE ( 'NONE', #506, #582 ) ;
#1078 = EDGE_CURVE ( 'NONE', #750, #775, #519, .T. ) ;
#1079 = CIRCLE ( 'NONE', #865, 3.000000000000001332 ) ;
#1080 = ORIENTED_EDGE ( 'NONE', *, *, #1017, .T. ) ;
#1081 = VECTOR ( 'NONE', #752, 1000.000000000000000 ) ;
#1082 = DIRECTION ( 'NONE',  ( -0.000000000000000000, -0.000000000000000000, -1.000000000000000000 ) ) ;
#1083 = EDGE_LOOP ( 'NONE', ( #661, #186, #928, #773 ) ) ;
#1084 = LINE ( 'NONE', #218, #521 ) ;
#1085 = AXIS2_PLACEMENT_3D ( 'NONE', #169, #967, #1154 ) ;
#1086 = AXIS2_PLACEMENT_3D ( 'NONE', #323, #401, #694 ) ;
#1087 = LINE ( 'NONE', #51, #807 ) ;
#1088 = VERTEX_POINT ( 'NONE', #567 ) ;
#1089 =( LENGTH_UNIT ( ) NAMED_UNIT ( * ) SI_UNIT ( .MILLI., .METRE. ) );
#1090 = ADVANCED_FACE ( 'NONE', ( #371 ), #399, .F. ) ;
#1091 = DIRECTION ( 'NONE',  ( 0.000000000000000000, 0.000000000000000000, -1.000000000000000000 ) ) ;
#1092 = CYLINDRICAL_SURFACE ( 'NONE', #141, 3.000000000000000888 ) ;
#1093 = ORIENTED_EDGE ( 'NONE', *, *, #616, .T. ) ;
#1094 = CARTESIAN_POINT ( 'NONE',  ( 14.75393573227428412, -65.15235955056182604, 20.00000000000000000 ) ) ;
#1095 = ADVANCED_FACE ( 'NONE', ( #181 ), #73, .F. ) ;
#1096 = DIRECTION ( 'NONE',  ( 1.000000000000000000, 1.201700616659941647E-16, 0.000000000000000000 ) ) ;
#1097 = CARTESIAN_POINT ( 'NONE',  ( 20.75393573227426458, 121.8476404494381740, 25.00000000000000000 ) ) ;
#1098 = VERTEX_POINT ( 'NONE', #958 ) ;
#1099 = CARTESIAN_POINT ( 'NONE',  ( -50.24606426772571410, 121.8476404494381740, 25.00000000000000000 ) ) ;
#1100 = AXIS2_PLACEMENT_3D ( 'NONE', #1045, #860, #265 ) ;
#1101 = PRODUCT_DEFINITION_FORMATION_WITH_SPECIFIED_SOURCE ( 'ANY', '', #622, .NOT_KNOWN. ) ;
#1102 = DIRECTION ( 'NONE',  ( 0.000000000000000000, 0.000000000000000000, 1.000000000000000000 ) ) ;
#1103 = EDGE_CURVE ( 'NONE', #395, #1219, #378, .T. ) ;
#1104 = VECTOR ( 'NONE', #578, 1000.000000000000000 ) ;
#1105 = CARTESIAN_POINT ( 'NONE',  ( -52.24606426772573542, 119.8476404494381597, 25.00000000000000000 ) ) ;
#1106 = ORIENTED_EDGE ( 'NONE', *, *, #793, .F. ) ;
#1107 = VECTOR ( 'NONE', #1223, 999.9999999999998863 ) ;
#1108 = DIRECTION ( 'NONE',  ( -0.000000000000000000, -0.000000000000000000, 1.000000000000000000 ) ) ;
#1109 = FACE_OUTER_BOUND ( 'NONE', #293, .T. ) ;
#1110 = DIRECTION ( 'NONE',  ( -0.000000000000000000, -0.000000000000000000, -1.000000000000000000 ) ) ;
#1111 = EDGE_CURVE ( 'NONE', #872, #485, #473, .T. ) ;
#1112 = ORIENTED_EDGE ( 'NONE', *, *, #759, .F. ) ;
#1113 = ORIENTED_EDGE ( 'NONE', *, *, #215, .T. ) ;
#1114 = CARTESIAN_POINT ( 'NONE',  ( -1.899221585621273745, 25.84764044943817041, -3.469446951953614189E-15 ) ) ;
#1115 = DIRECTION ( 'NONE',  ( -0.000000000000000000, -0.000000000000000000, -1.000000000000000000 ) ) ;
#1116 = FACE_OUTER_BOUND ( 'NONE', #530, .T. ) ;
#1117 = VERTEX_POINT ( 'NONE', #945 ) ;
#1118 = EDGE_CURVE ( 'NONE', #42, #639, #840, .T. ) ;
#1119 = ORIENTED_EDGE ( 'NONE', *, *, #747, .F. ) ;
#1120 = CARTESIAN_POINT ( 'NONE',  ( 20.75393573227426458, 119.8476404494381740, 25.00000000000000000 ) ) ;
#1121 = CIRCLE ( 'NONE', #193, 4.699999999999995737 ) ;
#1122 = CARTESIAN_POINT ( 'NONE',  ( -30.24606426772571410, 47.84764044943818107, 10.00000000000000000 ) ) ;
#1123 = DIRECTION ( 'NONE',  ( 1.000000000000000000, 0.000000000000000000, 0.000000000000000000 ) ) ;
#1124 = ORIENTED_EDGE ( 'NONE', *, *, #1111, .F. ) ;
#1125 = EDGE_CURVE ( 'NONE', #25, #204, #115, .T. ) ;
#1126 = CIRCLE ( 'NONE', #277, 2.999999999999999112 ) ;
#1127 = ORIENTED_EDGE ( 'NONE', *, *, #1078, .T. ) ;
#1128 = CARTESIAN_POINT ( 'NONE',  ( -1.899221585621276631, 44.84764044943816685, 10.00000000000000000 ) ) ;
#1129 = AXIS2_PLACEMENT_3D ( 'NONE', #1067, #940, #918 ) ;
#1130 = LINE ( 'NONE', #1149, #27 ) ;
#1131 = DIRECTION ( 'NONE',  ( -0.000000000000000000, -0.000000000000000000, -1.000000000000000000 ) ) ;
#1132 = ORIENTED_EDGE ( 'NONE', *, *, #481, .F. ) ;
#1133 = VERTEX_POINT ( 'NONE', #760 ) ;
#1134 = DIRECTION ( 'NONE',  ( -0.000000000000000000, -0.000000000000000000, 1.000000000000000000 ) ) ;
#1135 = CARTESIAN_POINT ( 'NONE',  ( 22.75393573227426458, 119.8476404494381740, 0.000000000000000000 ) ) ;
#1136 = EDGE_CURVE ( 'NONE', #330, #42, #588, .T. ) ;
#1137 = DIRECTION ( 'NONE',  ( -0.000000000000000000, -0.000000000000000000, -1.000000000000000000 ) ) ;
#1138 = VERTEX_POINT ( 'NONE', #174 ) ;
#1139 = ORIENTED_EDGE ( 'NONE', *, *, #1136, .T. ) ;
#1140 = CARTESIAN_POINT ( 'NONE',  ( -4.246064267725734531, 93.63892316328160348, 20.00000000000000000 ) ) ;
#1141 = DIRECTION ( 'NONE',  ( -0.000000000000000000, -0.000000000000000000, -1.000000000000000000 ) ) ;
#1142 = VECTOR ( 'NONE', #526, 1000.000000000000000 ) ;
#1143 = CARTESIAN_POINT ( 'NONE',  ( 14.75393573227426458, 93.63892316328160348, 20.00000000000000000 ) ) ;
#1144 =( GEOMETRIC_REPRESENTATION_CONTEXT ( 3 ) GLOBAL_UNCERTAINTY_ASSIGNED_CONTEXT ( ( #249 ) ) GLOBAL_UNIT_ASSIGNED_CONTEXT ( ( #309, #612, #600 ) ) REPRESENTATION_CONTEXT ( 'NONE', 'WORKASPACE' ) );
#1145 = ORIENTED_EDGE ( 'NONE', *, *, #589, .F. ) ;
#1146 = ORIENTED_EDGE ( 'NONE', *, *, #111, .T. ) ;
#1147 = CYLINDRICAL_SURFACE ( 'NONE', #213, 2.000000000000001776 ) ;
#1148 = VECTOR ( 'NONE', #563, 1000.000000000000000 ) ;
#1149 = CARTESIAN_POINT ( 'NONE',  ( -52.24606426772573542, 119.8476404494381597, 25.00000000000000000 ) ) ;
#1150 = DIRECTION ( 'NONE',  ( -0.000000000000000000, -0.000000000000000000, -1.000000000000000000 ) ) ;
#1151 = CARTESIAN_POINT ( 'NONE',  ( 0.000000000000000000, 47.84764044943817396, 20.00000000000000000 ) ) ;
#1152 = EDGE_CURVE ( 'NONE', #464, #1098, #1079, .T. ) ;
#1153 = EDGE_LOOP ( 'NONE', ( #6, #1093, #770, #1233 ) ) ;
#1154 = DIRECTION ( 'NONE',  ( -1.000000000000000000, 0.000000000000000000, 0.000000000000000000 ) ) ;
#1155 = DIRECTION ( 'NONE',  ( 0.000000000000000000, -0.000000000000000000, -1.000000000000000000 ) ) ;
#1156 = DIRECTION ( 'NONE',  ( 1.000000000000000000, -0.000000000000000000, -0.000000000000000000 ) ) ;
#1157 = EDGE_LOOP ( 'NONE', ( #376, #961, #100, #72 ) ) ;
#1158 = ADVANCED_FACE ( 'NONE', ( #365 ), #1147, .T. ) ;
#1159 = FACE_OUTER_BOUND ( 'NONE', #67, .T. ) ;
#1160 = CARTESIAN_POINT ( 'NONE',  ( -14.38824637112140259, 22.84764044943817041, -3.469446951953614189E-15 ) ) ;
#1161 = LINE ( 'NONE', #1151, #720 ) ;
#1162 = AXIS2_PLACEMENT_3D ( 'NONE', #1071, #205, #591 ) ;
#1163 = ORIENTED_EDGE ( 'NONE', *, *, #738, .F. ) ;
#1164 = PLANE ( 'NONE',  #456 ) ;
#1165 = DIRECTION ( 'NONE',  ( -1.826024711554537858E-16, 1.000000000000000000, 0.000000000000000000 ) ) ;
#1166 = VECTOR ( 'NONE', #241, 1000.000000000000000 ) ;
#1167 = DIRECTION ( 'NONE',  ( -1.315430123963455640E-16, 1.000000000000000000, -0.000000000000000000 ) ) ;
#1168 = CARTESIAN_POINT ( 'NONE',  ( -14.38824637112140614, 47.84764044943817396, -3.469446951953614189E-15 ) ) ;
#1169 = ORIENTED_EDGE ( 'NONE', *, *, #383, .F. ) ;
#1170 = CARTESIAN_POINT ( 'NONE',  ( 20.75393573227426458, 119.8476404494381740, 25.00000000000000000 ) ) ;
#1171 = EDGE_CURVE ( 'NONE', #575, #1138, #1228, .T. ) ;
#1172 = CARTESIAN_POINT ( 'NONE',  ( -14.38824637112142923, 44.84764044943816685, -3.469446951953614189E-15 ) ) ;
#1173 = EDGE_LOOP ( 'NONE', ( #620, #166, #147, #558 ) ) ;
#1174 = CARTESIAN_POINT ( 'NONE',  ( -50.24606426772571410, 121.8476404494381740, 20.00000000000000000 ) ) ;
#1175 = DIRECTION ( 'NONE',  ( -1.196361017915039486E-16, 1.000000000000000000, 0.000000000000000000 ) ) ;
#1176 = DIRECTION ( 'NONE',  ( -1.000000000000000000, 0.000000000000000000, 0.000000000000000000 ) ) ;
#1177 = EDGE_CURVE ( 'NONE', #304, #362, #1180, .T. ) ;
#1178 = AXIS2_PLACEMENT_3D ( 'NONE', #946, #281, #573 ) ;
#1179 = EDGE_LOOP ( 'NONE', ( #214, #335 ) ) ;
#1180 = CIRCLE ( 'NONE', #435, 2.999999999999999112 ) ;
#1181 = DIRECTION ( 'NONE',  ( -0.000000000000000000, -0.000000000000000000, -1.000000000000000000 ) ) ;
#1182 = ORIENTED_EDGE ( 'NONE', *, *, #274, .T. ) ;
#1183 = CARTESIAN_POINT ( 'NONE',  ( -30.24606426772570700, -18.23731090247560616, 10.00000000000000000 ) ) ;
#1184 = VECTOR ( 'NONE', #873, 1000.000000000000000 ) ;
#1185 = CARTESIAN_POINT ( 'NONE',  ( 14.75393573227426458, 93.63892316328160348, 20.00000000000000000 ) ) ;
#1186 = PRODUCT_CONTEXT ( 'NONE', #297, 'mechanical' ) ;
#1187 = ORIENTED_EDGE ( 'NONE', *, *, #251, .F. ) ;
#1188 = EDGE_CURVE ( 'NONE', #1133, #575, #926, .T. ) ;
#1189 = LINE ( 'NONE', #922, #79 ) ;
#1190 = PLANE ( 'NONE',  #1047 ) ;
#1191 = CARTESIAN_POINT ( 'NONE',  ( -50.24606426772569279, -93.15235955056182604, 25.00000000000000000 ) ) ;
#1192 = ORIENTED_EDGE ( 'NONE', *, *, #829, .T. ) ;
#1193 = ADVANCED_FACE ( 'NONE', ( #746 ), #402, .F. ) ;
#1194 = CARTESIAN_POINT ( 'NONE',  ( 1.100778414378723369, 44.84764044943814554, 10.00000000000000000 ) ) ;
#1195 = CARTESIAN_POINT ( 'NONE',  ( 20.75393573227426458, 119.8476404494381740, 25.00000000000000000 ) ) ;
#1196 = CARTESIAN_POINT ( 'NONE',  ( 22.75393573227426458, 119.8476404494381740, 25.00000000000000000 ) ) ;
#1197 = EDGE_LOOP ( 'NONE', ( #107, #595, #410, #718 ) ) ;
#1198 = VECTOR ( 'NONE', #877, 1000.000000000000000 ) ;
#1199 = LINE ( 'NONE', #901, #1142 ) ;
#1200 = DIRECTION ( 'NONE',  ( -0.000000000000000000, -0.000000000000000000, -1.000000000000000000 ) ) ;
#1201 = EDGE_CURVE ( 'NONE', #1088, #543, #783, .T. ) ;
#1202 = CIRCLE ( 'NONE', #1085, 2.249999999999991562 ) ;
#1203 = CARTESIAN_POINT ( 'NONE',  ( -17.38824637112142923, 44.84764044943814554, -3.469446951953614189E-15 ) ) ;
#1204 = ADVANCED_BREP_SHAPE_REPRESENTATION ( '\X2\0443041b\X0\', ( #858, #800 ), #1144 ) ;
#1205 = EDGE_LOOP ( 'NONE', ( #390, #243, #944, #972 ) ) ;
#1206 = VECTOR ( 'NONE', #927, 1000.000000000000000 ) ;
#1207 = VECTOR ( 'NONE', #38, 1000.000000000000000 ) ;
#1208 = DIRECTION ( 'NONE',  ( 1.141265444721586223E-16, -1.000000000000000000, 0.000000000000000000 ) ) ;
#1209 = DIRECTION ( 'NONE',  ( 0.000000000000000000, 0.000000000000000000, 1.000000000000000000 ) ) ;
#1210 = EDGE_CURVE ( 'NONE', #1212, #362, #168, .T. ) ;
#1211 = CARTESIAN_POINT ( 'NONE',  ( -27.24606426772573187, 91.84764044943818817, 2.450000000000007727 ) ) ;
#1212 = VERTEX_POINT ( 'NONE', #1038 ) ;
#1213 = PRODUCT_DEFINITION ( 'UNKNOWN', '', #1101, #14 ) ;
#1214 = VERTEX_POINT ( 'NONE', #84 ) ;
#1215 = DIRECTION ( 'NONE',  ( 1.000000000000000000, 0.000000000000000000, 0.000000000000000000 ) ) ;
#1216 = DIRECTION ( 'NONE',  ( -0.000000000000000000, -0.000000000000000000, 1.000000000000000000 ) ) ;
#1217 = CARTESIAN_POINT ( 'NONE',  ( -29.49606426772572121, -63.15235955056182604, 20.00000000000000000 ) ) ;
#1218 = ORIENTED_EDGE ( 'NONE', *, *, #129, .T. ) ;
#1219 = VERTEX_POINT ( 'NONE', #468 ) ;
#1220 = DIRECTION ( 'NONE',  ( 1.000000000000000000, 2.312964634635741636E-14, 0.000000000000000000 ) ) ;
#1221 = CIRCLE ( 'NONE', #1001, 2.000000000000001776 ) ;
#1222 = FACE_OUTER_BOUND ( 'NONE', #393, .T. ) ;
#1223 = DIRECTION ( 'NONE',  ( 0.7071067811865477948, 8.659560562354936556E-17, -0.7071067811865473507 ) ) ;
#1224 = ORIENTED_EDGE ( 'NONE', *, *, #875, .T. ) ;
#1225 = CIRCLE ( 'NONE', #217, 2.249999999999988010 ) ;
#1226 = ORIENTED_EDGE ( 'NONE', *, *, #1136, .F. ) ;
#1227 = EDGE_CURVE ( 'NONE', #529, #995, #854, .T. ) ;
#1228 = LINE ( 'NONE', #358, #313 ) ;
#1229 = VECTOR ( 'NONE', #715, 1000.000000000000000 ) ;
#1230 = SURFACE_STYLE_FILL_AREA ( #272 ) ;
#1231 = CARTESIAN_POINT ( 'NONE',  ( -14.38824637112140614, 47.84764044943817396, -3.469446951953614189E-15 ) ) ;
#1232 = VERTEX_POINT ( 'NONE', #795 ) ;
#1233 = ORIENTED_EDGE ( 'NONE', *, *, #755, .F. ) ;
#1234 = CARTESIAN_POINT ( 'NONE',  ( -30.24606426772571410, 47.84764044943818107, 10.00000000000000000 ) ) ;
#1235 = CARTESIAN_POINT ( 'NONE',  ( 14.75393573227426458, 93.63892316328160348, 25.00000000000000000 ) ) ;
#1236 = LINE ( 'NONE', #462, #602 ) ;
#1237 = ORIENTED_EDGE ( 'NONE', *, *, #307, .T. ) ;
ENDSEC;
END-ISO-10303-21;
