ISO-10303-21;
HEADER;
FILE_DESCRIPTION (( 'STEP AP214' ),
    '1' );
FILE_NAME ('óÏ.STEP',
    '2026-01-21T22:15:39',
    ( '' ),
    ( '' ),
    'SwSTEP 2.0',
    'SolidWorks 2024',
    '' );
FILE_SCHEMA (( 'AUTOMOTIVE_DESIGN' ));
ENDSEC;

DATA;
#1 = CARTESIAN_POINT ( 'NONE',  ( -12.24606426772574963, 7.347640449438194388, 2.000000000000000000 ) ) ;
#2 = EDGE_CURVE ( 'NONE', #977, #451, #21, .T. ) ;
#3 = ORIENTED_EDGE ( 'NONE', *, *, #633, .F. ) ;
#4 = CARTESIAN_POINT ( 'NONE',  ( -19.10067103158761981, -63.15235955056182604, 25.00000000000000000 ) ) ;
#5 = DIRECTION ( 'NONE',  ( -0.000000000000000000, -0.000000000000000000, -1.000000000000000000 ) ) ;
#6 = ORIENTED_EDGE ( 'NONE', *, *, #20, .T. ) ;
#7 = ADVANCED_FACE ( 'NONE', ( #410 ), #641, .T. ) ;
#8 = AXIS2_PLACEMENT_3D ( 'NONE', #880, #1019, #617 ) ;
#9 = CIRCLE ( 'NONE', #752, 2.399999999999986589 ) ;
#10 = CARTESIAN_POINT ( 'NONE',  ( -3.246064267725760288, -13.95289138068775081, 12.00000000000000000 ) ) ;
#11 = EDGE_LOOP ( 'NONE', ( #974, #805, #370, #280 ) ) ;
#12 = ORIENTED_EDGE ( 'NONE', *, *, #124, .T. ) ;
#13 = EDGE_CURVE ( 'NONE', #754, #727, #901, .T. ) ;
#14 = CARTESIAN_POINT ( 'NONE',  ( 17.75393573227429300, 121.8476404494381171, 20.00000000000000000 ) ) ;
#15 = EDGE_CURVE ( 'NONE', #48, #45, #744, .T. ) ;
#16 = DIRECTION ( 'NONE',  ( 0.000000000000000000, -1.000000000000000000, -0.000000000000000000 ) ) ;
#17 = ORIENTED_EDGE ( 'NONE', *, *, #219, .F. ) ;
#18 = ORIENTED_EDGE ( 'NONE', *, *, #197, .F. ) ;
#19 = LINE ( 'NONE', #932, #783 ) ;
#20 = EDGE_CURVE ( 'NONE', #87, #705, #889, .T. ) ;
#21 = LINE ( 'NONE', #1, #869 ) ;
#22 = ORIENTED_EDGE ( 'NONE', *, *, #1033, .F. ) ;
#23 = CARTESIAN_POINT ( 'NONE',  ( -52.24606426772573542, 119.8476404494381597, 25.00000000000000000 ) ) ;
#24 = VECTOR ( 'NONE', #81, 1000.000000000000000 ) ;
#25 = VECTOR ( 'NONE', #897, 1000.000000000000000 ) ;
#26 = CARTESIAN_POINT ( 'NONE',  ( 20.75393573227428234, -93.15235955056182604, 0.000000000000000000 ) ) ;
#27 = LINE ( 'NONE', #266, #126 ) ;
#28 = DIRECTION ( 'NONE',  ( 1.000000000000000000, -0.000000000000000000, -0.000000000000000000 ) ) ;
#29 = VERTEX_POINT ( 'NONE', #804 ) ;
#30 = CARTESIAN_POINT ( 'NONE',  ( -19.10067103158761981, -88.15235955056181183, 20.00000000000000000 ) ) ;
#31 = FACE_OUTER_BOUND ( 'NONE', #826, .T. ) ;
#32 = CARTESIAN_POINT ( 'NONE',  ( -26.24606426772573187, 121.8476404494381740, 20.00000000000000000 ) ) ;
#33 = ORIENTED_EDGE ( 'NONE', *, *, #682, .F. ) ;
#34 = ADVANCED_FACE ( 'NONE', ( #987 ), #103, .F. ) ;
#35 = DIRECTION ( 'NONE',  ( 0.000000000000000000, 0.000000000000000000, 1.000000000000000000 ) ) ;
#36 = LINE ( 'NONE', #508, #256 ) ;
#37 = CARTESIAN_POINT ( 'NONE',  ( -3.246064267725760288, -13.95289138068775081, 12.00000000000000000 ) ) ;
#38 = VERTEX_POINT ( 'NONE', #173 ) ;
#39 = AXIS2_PLACEMENT_3D ( 'NONE', #725, #398, #478 ) ;
#40 = CARTESIAN_POINT ( 'NONE',  ( -2.246064267725715435, 91.84764044943817396, 2.300000000000024247 ) ) ;
#41 = CARTESIAN_POINT ( 'NONE',  ( -50.24606426772569279, -93.15235955056182604, 25.00000000000000000 ) ) ;
#42 = CIRCLE ( 'NONE', #512, 2.000000000000005329 ) ;
#43 = PRESENTATION_STYLE_ASSIGNMENT (( #420 ) ) ;
#44 = CIRCLE ( 'NONE', #442, 2.000000000000001776 ) ;
#45 = VERTEX_POINT ( 'NONE', #321 ) ;
#46 = CARTESIAN_POINT ( 'NONE',  ( -47.24606426772573542, 91.84764044943815975, 20.00000000000000000 ) ) ;
#47 = DIRECTION ( 'NONE',  ( -0.000000000000000000, -0.000000000000000000, -1.000000000000000000 ) ) ;
#48 = VERTEX_POINT ( 'NONE', #647 ) ;
#49 = LINE ( 'NONE', #301, #341 ) ;
#50 = CARTESIAN_POINT ( 'NONE',  ( -47.24606426772573542, -63.15235955056182604, 25.00000000000000000 ) ) ;
#51 = LINE ( 'NONE', #221, #58 ) ;
#52 = ADVANCED_FACE ( 'NONE', ( #981, #246, #565 ), #491, .F. ) ;
#53 = ORIENTED_EDGE ( 'NONE', *, *, #493, .F. ) ;
#54 = ORIENTED_EDGE ( 'NONE', *, *, #813, .F. ) ;
#55 = CARTESIAN_POINT ( 'NONE',  ( -3.246064267725760288, 28.64817227956413959, 20.00000000000000000 ) ) ;
#56 = FACE_OUTER_BOUND ( 'NONE', #243, .T. ) ;
#57 = LINE ( 'NONE', #691, #945 ) ;
#58 = VECTOR ( 'NONE', #143, 1000.000000000000000 ) ;
#59 = EDGE_CURVE ( 'NONE', #1032, #319, #115, .T. ) ;
#60 = ORIENTED_EDGE ( 'NONE', *, *, #1015, .T. ) ;
#61 = VECTOR ( 'NONE', #736, 1000.000000000000000 ) ;
#62 = DIRECTION ( 'NONE',  ( 0.000000000000000000, -1.000000000000000000, 0.000000000000000000 ) ) ;
#63 = CARTESIAN_POINT ( 'NONE',  ( -47.24606426772573542, -63.15235955056182604, 20.00000000000000000 ) ) ;
#64 = DIRECTION ( 'NONE',  ( 1.000000000000000000, 0.000000000000000000, 0.000000000000000000 ) ) ;
#65 = ORIENTED_EDGE ( 'NONE', *, *, #682, .T. ) ;
#66 = ADVANCED_FACE ( 'NONE', ( #185 ), #839, .F. ) ;
#67 = CARTESIAN_POINT ( 'NONE',  ( 20.75393573227426458, 119.8476404494381740, 25.00000000000000000 ) ) ;
#68 = PLANE ( 'NONE',  #272 ) ;
#69 = LINE ( 'NONE', #469, #357 ) ;
#70 = EDGE_CURVE ( 'NONE', #451, #466, #121, .T. ) ;
#71 = DIRECTION ( 'NONE',  ( -0.000000000000000000, -0.000000000000000000, -1.000000000000000000 ) ) ;
#72 = VECTOR ( 'NONE', #271, 999.9999999999998863 ) ;
#73 = DIRECTION ( 'NONE',  ( -0.000000000000000000, -0.000000000000000000, -1.000000000000000000 ) ) ;
#74 = VECTOR ( 'NONE', #998, 1000.000000000000000 ) ;
#75 = CIRCLE ( 'NONE', #840, 2.399999999999986589 ) ;
#76 = EDGE_LOOP ( 'NONE', ( #267, #653, #770, #12 ) ) ;
#77 = DIRECTION ( 'NONE',  ( -1.315430123963455640E-16, 1.000000000000000000, -0.000000000000000000 ) ) ;
#78 = CARTESIAN_POINT ( 'NONE',  ( -2.246064267725736308, -63.15235955056182604, -1.734723475976807883E-15 ) ) ;
#79 = ORIENTED_EDGE ( 'NONE', *, *, #110, .F. ) ;
#80 = DIRECTION ( 'NONE',  ( -1.000000000000000000, 0.000000000000000000, 0.000000000000000000 ) ) ;
#81 = DIRECTION ( 'NONE',  ( -0.000000000000000000, 0.000000000000000000, 1.000000000000000000 ) ) ;
#82 = ORIENTED_EDGE ( 'NONE', *, *, #164, .T. ) ;
#83 = ORIENTED_EDGE ( 'NONE', *, *, #364, .F. ) ;
#84 = CARTESIAN_POINT ( 'NONE',  ( -26.24606426772573187, 91.84764044943815975, 25.00000000000000000 ) ) ;
#85 = EDGE_LOOP ( 'NONE', ( #1037, #618, #775, #346 ) ) ;
#86 = EDGE_CURVE ( 'NONE', #607, #156, #517, .T. ) ;
#87 = VERTEX_POINT ( 'NONE', #438 ) ;
#88 = VECTOR ( 'NONE', #622, 1000.000000000000000 ) ;
#89 = AXIS2_PLACEMENT_3D ( 'NONE', #864, #1018, #286 ) ;
#90 = DIRECTION ( 'NONE',  ( 7.885106708985491499E-17, 1.000000000000000000, 0.000000000000000000 ) ) ;
#91 = DIRECTION ( 'NONE',  ( -0.000000000000000000, -0.000000000000000000, 1.000000000000000000 ) ) ;
#92 = ORIENTED_EDGE ( 'NONE', *, *, #860, .T. ) ;
#93 = FACE_OUTER_BOUND ( 'NONE', #810, .T. ) ;
#94 = ADVANCED_FACE ( 'NONE', ( #855 ), #109, .F. ) ;
#95 = CARTESIAN_POINT ( 'NONE',  ( 17.75393573227429656, -88.15235955056181183, 20.00000000000000000 ) ) ;
#96 = VERTEX_POINT ( 'NONE', #763 ) ;
#97 = ORIENTED_EDGE ( 'NONE', *, *, #680, .F. ) ;
#98 = DIRECTION ( 'NONE',  ( 1.000000000000000000, 9.865725929725919765E-17, -0.000000000000000000 ) ) ;
#99 = MANIFOLD_SOLID_BREP ( '\X2\0412044b044004350437\X0\-\X2\0412044b0442044f043d04430442044c\X0\4', #470 ) ;
#100 = EDGE_CURVE ( 'NONE', #678, #249, #1005, .T. ) ;
#101 = DIRECTION ( 'NONE',  ( -0.000000000000000000, -0.000000000000000000, -1.000000000000000000 ) ) ;
#102 =( LENGTH_UNIT ( ) NAMED_UNIT ( * ) SI_UNIT ( .MILLI., .METRE. ) );
#103 = CONICAL_SURFACE ( 'NONE', #1038, 4.699999999999999289, 0.7853981633974473908 ) ;
#104 = VECTOR ( 'NONE', #28, 1000.000000000000000 ) ;
#105 = ORIENTED_EDGE ( 'NONE', *, *, #487, .T. ) ;
#106 = CARTESIAN_POINT ( 'NONE',  ( -47.24606426772573542, 91.84764044943815975, 20.00000000000000000 ) ) ;
#107 = CARTESIAN_POINT ( 'NONE',  ( -50.24606426772569279, -93.15235955056182604, 25.00000000000000000 ) ) ;
#108 = PLANE ( 'NONE',  #146 ) ;
#109 = PLANE ( 'NONE',  #305 ) ;
#110 = EDGE_CURVE ( 'NONE', #421, #1050, #751, .T. ) ;
#111 = ORIENTED_EDGE ( 'NONE', *, *, #680, .T. ) ;
#112 = FACE_OUTER_BOUND ( 'NONE', #366, .T. ) ;
#113 = LINE ( 'NONE', #265, #227 ) ;
#114 = FACE_OUTER_BOUND ( 'NONE', #857, .T. ) ;
#115 = LINE ( 'NONE', #929, #942 ) ;
#116 = UNCERTAINTY_MEASURE_WITH_UNIT (LENGTH_MEASURE( 1.000000000000000082E-05 ), #603, 'distance_accuracy_value', 'NONE');
#117 = ORIENTED_EDGE ( 'NONE', *, *, #584, .T. ) ;
#118 = PLANE ( 'NONE',  #925 ) ;
#119 = CARTESIAN_POINT ( 'NONE',  ( -47.24606426772573542, 28.64817227956414314, 12.00000000000000000 ) ) ;
#120 = DIRECTION ( 'NONE',  ( 1.000000000000000000, 0.000000000000000000, 0.000000000000000000 ) ) ;
#121 = CIRCLE ( 'NONE', #661, 13.00000000000000178 ) ;
#122 = ORIENTED_EDGE ( 'NONE', *, *, #460, .F. ) ;
#123 = EDGE_CURVE ( 'NONE', #522, #293, #206, .T. ) ;
#124 = EDGE_CURVE ( 'NONE', #571, #319, #433, .T. ) ;
#125 = FACE_OUTER_BOUND ( 'NONE', #814, .T. ) ;
#126 = VECTOR ( 'NONE', #749, 1000.000000000000000 ) ;
#127 = DIRECTION ( 'NONE',  ( -1.315430123963455640E-16, 1.000000000000000000, -0.000000000000000000 ) ) ;
#128 = AXIS2_PLACEMENT_3D ( 'NONE', #132, #776, #796 ) ;
#129 = ORIENTED_EDGE ( 'NONE', *, *, #150, .T. ) ;
#130 = DIRECTION ( 'NONE',  ( 0.000000000000000000, 0.000000000000000000, 1.000000000000000000 ) ) ;
#131 = EDGE_CURVE ( 'NONE', #613, #235, #1016, .T. ) ;
#132 = CARTESIAN_POINT ( 'NONE',  ( -47.24606426772573542, -63.15235955056182604, 20.00000000000000000 ) ) ;
#133 = ORIENTED_EDGE ( 'NONE', *, *, #136, .T. ) ;
#134 = CARTESIAN_POINT ( 'NONE',  ( -26.24606426772573187, 121.8476404494381740, 25.00000000000000000 ) ) ;
#135 = ADVANCED_BREP_SHAPE_REPRESENTATION ( '\X2\0443041f\X0\', ( #99, #454 ), #595 ) ;
#136 = EDGE_CURVE ( 'NONE', #312, #785, #934, .T. ) ;
#137 = CARTESIAN_POINT ( 'NONE',  ( 20.75393573227426458, 119.8476404494381740, 25.00000000000000000 ) ) ;
#138 = DIRECTION ( 'NONE',  ( -0.000000000000000000, -0.000000000000000000, 1.000000000000000000 ) ) ;
#139 = ORIENTED_EDGE ( 'NONE', *, *, #124, .F. ) ;
#140 = SHAPE_DEFINITION_REPRESENTATION ( #825, #135 ) ;
#141 = DIRECTION ( 'NONE',  ( -1.000000000000000000, 0.000000000000000000, 0.000000000000000000 ) ) ;
#142 = FACE_BOUND ( 'NONE', #314, .T. ) ;
#143 = DIRECTION ( 'NONE',  ( 9.865725929725919765E-17, -1.000000000000000000, 0.000000000000000000 ) ) ;
#144 = AXIS2_PLACEMENT_3D ( 'NONE', #40, #359, #580 ) ;
#145 = EDGE_LOOP ( 'NONE', ( #154, #377, #379, #627 ) ) ;
#146 = AXIS2_PLACEMENT_3D ( 'NONE', #41, #938, #426 ) ;
#147 = CARTESIAN_POINT ( 'NONE',  ( -6.946064267725735597, -63.15235955056182604, -1.734723475976807883E-15 ) ) ;
#148 = CARTESIAN_POINT ( 'NONE',  ( -2.246064267725736308, -63.15235955056182604, -1.734723475976807883E-15 ) ) ;
#149 = VERTEX_POINT ( 'NONE', #520 ) ;
#150 = EDGE_CURVE ( 'NONE', #989, #642, #999, .T. ) ;
#151 = EDGE_LOOP ( 'NONE', ( #884, #217, #332, #391 ) ) ;
#152 = DIRECTION ( 'NONE',  ( -1.000000000000000000, 0.000000000000000000, -0.000000000000000000 ) ) ;
#153 = CARTESIAN_POINT ( 'NONE',  ( 0.000000000000000000, 0.000000000000000000, 20.00000000000000000 ) ) ;
#154 = ORIENTED_EDGE ( 'NONE', *, *, #330, .F. ) ;
#155 = VECTOR ( 'NONE', #253, 1000.000000000000000 ) ;
#156 = VERTEX_POINT ( 'NONE', #444 ) ;
#157 = FACE_OUTER_BOUND ( 'NONE', #151, .T. ) ;
#158 = VECTOR ( 'NONE', #296, 1000.000000000000000 ) ;
#159 = VERTEX_POINT ( 'NONE', #529 ) ;
#160 = VECTOR ( 'NONE', #482, 1000.000000000000000 ) ;
#161 = VECTOR ( 'NONE', #412, 1000.000000000000000 ) ;
#162 = ORIENTED_EDGE ( 'NONE', *, *, #345, .F. ) ;
#163 = DIRECTION ( 'NONE',  ( -0.000000000000000000, -0.000000000000000000, -1.000000000000000000 ) ) ;
#164 = EDGE_CURVE ( 'NONE', #794, #989, #704, .T. ) ;
#165 = LINE ( 'NONE', #490, #160 ) ;
#166 = CARTESIAN_POINT ( 'NONE',  ( -50.24606426772572831, 119.8476404494381740, 0.000000000000000000 ) ) ;
#167 = ORIENTED_EDGE ( 'NONE', *, *, #620, .F. ) ;
#168 = DIRECTION ( 'NONE',  ( 1.000000000000000000, 0.000000000000000000, 0.000000000000000000 ) ) ;
#169 = EDGE_CURVE ( 'NONE', #785, #705, #302, .T. ) ;
#170 = VERTEX_POINT ( 'NONE', #953 ) ;
#171 = ORIENTED_EDGE ( 'NONE', *, *, #620, .T. ) ;
#172 = DIRECTION ( 'NONE',  ( -0.000000000000000000, -0.000000000000000000, -1.000000000000000000 ) ) ;
#173 = CARTESIAN_POINT ( 'NONE',  ( 0.1539357322742408163, -63.15235955056182604, 2.300000000000024247 ) ) ;
#174 = ADVANCED_FACE ( 'NONE', ( #777 ), #68, .F. ) ;
#175 = ORIENTED_EDGE ( 'NONE', *, *, #740, .T. ) ;
#176 = VECTOR ( 'NONE', #767, 1000.000000000000000 ) ;
#177 = VECTOR ( 'NONE', #80, 1000.000000000000000 ) ;
#178 = DIRECTION ( 'NONE',  ( -1.000000000000000000, 0.000000000000000000, 0.000000000000000000 ) ) ;
#179 = ORIENTED_EDGE ( 'NONE', *, *, #822, .T. ) ;
#180 = EDGE_LOOP ( 'NONE', ( #852, #734, #985, #162 ) ) ;
#181 = EDGE_CURVE ( 'NONE', #984, #466, #447, .T. ) ;
#182 = CARTESIAN_POINT ( 'NONE',  ( -25.24606426772574963, 7.347640449438194388, 2.000000000000000000 ) ) ;
#183 = CARTESIAN_POINT ( 'NONE',  ( -2.246064267725715435, 91.84764044943817396, 2.300000000000024247 ) ) ;
#184 = CARTESIAN_POINT ( 'NONE',  ( -19.10067103158761981, -63.15235955056182604, 20.00000000000000000 ) ) ;
#185 = FACE_OUTER_BOUND ( 'NONE', #236, .T. ) ;
#186 = ORIENTED_EDGE ( 'NONE', *, *, #706, .T. ) ;
#187 = CARTESIAN_POINT ( 'NONE',  ( -50.24606426772569279, -93.15235955056182604, 0.000000000000000000 ) ) ;
#188 = EDGE_CURVE ( 'NONE', #293, #799, #543, .T. ) ;
#189 = LINE ( 'NONE', #756, #176 ) ;
#190 = DIRECTION ( 'NONE',  ( -1.000000000000000000, 7.885106708985491499E-17, 0.000000000000000000 ) ) ;
#191 = DIRECTION ( 'NONE',  ( -1.000000000000000000, 0.000000000000000000, 0.000000000000000000 ) ) ;
#192 = EDGE_LOOP ( 'NONE', ( #896, #1017, #79, #778, #511, #550, #552, #310, #921, #671, #589, #556 ) ) ;
#193 = CARTESIAN_POINT ( 'NONE',  ( -38.24606426772575674, 7.347640449438196164, 2.000000000000000000 ) ) ;
#194 = CIRCLE ( 'NONE', #441, 13.00000000000000178 ) ;
#195 = DIRECTION ( 'NONE',  ( -1.000000000000000000, 0.000000000000000000, 0.000000000000000000 ) ) ;
#196 = DIRECTION ( 'NONE',  ( 0.000000000000000000, 1.000000000000000000, 0.000000000000000000 ) ) ;
#197 = EDGE_CURVE ( 'NONE', #411, #571, #686, .T. ) ;
#198 = FILL_AREA_STYLE_COLOUR ( '', #239 ) ;
#199 = ORIENTED_EDGE ( 'NONE', *, *, #13, .T. ) ;
#200 = DIRECTION ( 'NONE',  ( 1.000000000000000000, 0.000000000000000000, 0.000000000000000000 ) ) ;
#201 = CARTESIAN_POINT ( 'NONE',  ( -4.646064267725723340, -63.15235955056182604, 0.000000000000000000 ) ) ;
#202 = VERTEX_POINT ( 'NONE', #610 ) ;
#203 = EDGE_CURVE ( 'NONE', #327, #841, #708, .T. ) ;
#204 =( NAMED_UNIT ( * ) PLANE_ANGLE_UNIT ( ) SI_UNIT ( $, .RADIAN. ) );
#205 = DIRECTION ( 'NONE',  ( 0.000000000000000000, -1.000000000000000000, 0.000000000000000000 ) ) ;
#206 = LINE ( 'NONE', #832, #452 ) ;
#207 = ORIENTED_EDGE ( 'NONE', *, *, #237, .T. ) ;
#208 = ADVANCED_FACE ( 'NONE', ( #871, #56 ), #1023, .T. ) ;
#209 = AXIS2_PLACEMENT_3D ( 'NONE', #183, #414, #269 ) ;
#210 = CARTESIAN_POINT ( 'NONE',  ( -19.10067103158761981, -63.15235955056182604, 25.00000000000000000 ) ) ;
#211 = AXIS2_PLACEMENT_3D ( 'NONE', #900, #172, #251 ) ;
#212 = ORIENTED_EDGE ( 'NONE', *, *, #948, .F. ) ;
#213 = APPLICATION_PROTOCOL_DEFINITION ( 'draft international standard', 'automotive_design', 1998, #480 ) ;
#214 = LINE ( 'NONE', #528, #257 ) ;
#215 = CARTESIAN_POINT ( 'NONE',  ( -2.246064267725715435, 91.84764044943817396, -1.734723475976807883E-15 ) ) ;
#216 = ORIENTED_EDGE ( 'NONE', *, *, #70, .T. ) ;
#217 = ORIENTED_EDGE ( 'NONE', *, *, #860, .F. ) ;
#218 = CARTESIAN_POINT ( 'NONE',  ( -50.24606426772570700, -91.15235955056182604, 25.00000000000000000 ) ) ;
#219 = EDGE_CURVE ( 'NONE', #705, #87, #242, .T. ) ;
#220 = DIRECTION ( 'NONE',  ( -0.000000000000000000, -0.000000000000000000, 1.000000000000000000 ) ) ;
#221 = CARTESIAN_POINT ( 'NONE',  ( -52.24606426772573542, 119.8476404494381597, 25.00000000000000000 ) ) ;
#222 = ORIENTED_EDGE ( 'NONE', *, *, #473, .F. ) ;
#223 = PLANE ( 'NONE',  #128 ) ;
#224 = DIRECTION ( 'NONE',  ( -1.000000000000000000, -1.315430123963455640E-16, 0.000000000000000000 ) ) ;
#225 = LINE ( 'NONE', #793, #476 ) ;
#226 = ADVANCED_FACE ( 'NONE', ( #142, #458, #690 ), #1030, .T. ) ;
#227 = VECTOR ( 'NONE', #843, 1000.000000000000000 ) ;
#228 = ORIENTED_EDGE ( 'NONE', *, *, #521, .T. ) ;
#229 = VECTOR ( 'NONE', #885, 1000.000000000000000 ) ;
#230 = PLANE ( 'NONE',  #947 ) ;
#231 = DIRECTION ( 'NONE',  ( 1.315430123963455640E-16, -1.000000000000000000, 0.000000000000000000 ) ) ;
#232 = ORIENTED_EDGE ( 'NONE', *, *, #244, .F. ) ;
#233 = ORIENTED_EDGE ( 'NONE', *, *, #917, .F. ) ;
#234 = DIRECTION ( 'NONE',  ( -0.000000000000000000, -0.000000000000000000, 1.000000000000000000 ) ) ;
#235 = VERTEX_POINT ( 'NONE', #307 ) ;
#236 = EDGE_LOOP ( 'NONE', ( #951, #833, #445, #1043 ) ) ;
#237 = EDGE_CURVE ( 'NONE', #466, #451, #750, .T. ) ;
#238 = LINE ( 'NONE', #811, #858 ) ;
#239 = COLOUR_RGB ( '',0.7921568627450980005, 0.8196078431372548767, 0.9333333333333333481 ) ;
#240 = CARTESIAN_POINT ( 'NONE',  ( -47.24606426772573542, -63.15235955056182604, 25.00000000000000000 ) ) ;
#241 = DIRECTION ( 'NONE',  ( 0.000000000000000000, 0.000000000000000000, 1.000000000000000000 ) ) ;
#242 = CIRCLE ( 'NONE', #597, 4.699999999999999289 ) ;
#243 = EDGE_LOOP ( 'NONE', ( #317, #544, #765, #961 ) ) ;
#244 = EDGE_CURVE ( 'NONE', #96, #293, #386, .T. ) ;
#245 = CARTESIAN_POINT ( 'NONE',  ( -3.246064267725760288, 28.64817227956413959, 12.00000000000000000 ) ) ;
#246 = FACE_BOUND ( 'NONE', #369, .T. ) ;
#247 = ORIENTED_EDGE ( 'NONE', *, *, #237, .F. ) ;
#248 = LINE ( 'NONE', #245, #61 ) ;
#249 = VERTEX_POINT ( 'NONE', #959 ) ;
#250 = ORIENTED_EDGE ( 'NONE', *, *, #462, .T. ) ;
#251 = DIRECTION ( 'NONE',  ( -1.000000000000000000, 0.000000000000000000, 0.000000000000000000 ) ) ;
#252 = DIRECTION ( 'NONE',  ( 0.000000000000000000, -0.000000000000000000, 1.000000000000000000 ) ) ;
#253 = DIRECTION ( 'NONE',  ( -1.000000000000000000, -0.000000000000000000, -0.000000000000000000 ) ) ;
#254 = ADVANCED_FACE ( 'NONE', ( #1041 ), #856, .F. ) ;
#255 = ORIENTED_EDGE ( 'NONE', *, *, #651, .T. ) ;
#256 = VECTOR ( 'NONE', #836, 1000.000000000000000 ) ;
#257 = VECTOR ( 'NONE', #625, 1000.000000000000000 ) ;
#258 = VECTOR ( 'NONE', #77, 1000.000000000000000 ) ;
#259 = DIRECTION ( 'NONE',  ( -1.610315182225156617E-17, 1.000000000000000000, 0.000000000000000000 ) ) ;
#260 = FACE_OUTER_BOUND ( 'NONE', #448, .T. ) ;
#261 = CARTESIAN_POINT ( 'NONE',  ( 22.75393573227426458, 119.8476404494381740, 0.000000000000000000 ) ) ;
#262 = ORIENTED_EDGE ( 'NONE', *, *, #136, .F. ) ;
#263 = DIRECTION ( 'NONE',  ( 0.000000000000000000, 0.000000000000000000, 1.000000000000000000 ) ) ;
#264 = PRODUCT ( '\X2\0443041f\X0\', '\X2\0443041f\X0\', '', ( #371 ) ) ;
#265 = CARTESIAN_POINT ( 'NONE',  ( -19.10067103158761981, -88.15235955056181183, 20.00000000000000000 ) ) ;
#266 = CARTESIAN_POINT ( 'NONE',  ( -52.24606426772573542, 119.8476404494381597, 0.000000000000000000 ) ) ;
#267 = ORIENTED_EDGE ( 'NONE', *, *, #608, .T. ) ;
#268 = CARTESIAN_POINT ( 'NONE',  ( 22.75393573227426458, 119.8476404494381740, 25.00000000000000000 ) ) ;
#269 = DIRECTION ( 'NONE',  ( -1.000000000000000000, 0.000000000000000000, 0.000000000000000000 ) ) ;
#270 = DIRECTION ( 'NONE',  ( 1.000000000000000000, 0.000000000000000000, 0.000000000000000000 ) ) ;
#271 = DIRECTION ( 'NONE',  ( -0.7071067811865469066, 0.000000000000000000, -0.7071067811865482389 ) ) ;
#272 = AXIS2_PLACEMENT_3D ( 'NONE', #287, #224, #231 ) ;
#273 = ORIENTED_EDGE ( 'NONE', *, *, #923, .F. ) ;
#274 = CARTESIAN_POINT ( 'NONE',  ( 20.75393573227426458, 119.8476404494381740, 0.000000000000000000 ) ) ;
#275 = ADVANCED_FACE ( 'NONE', ( #532 ), #865, .T. ) ;
#276 = AXIS2_PLACEMENT_3D ( 'NONE', #218, #1029, #141 ) ;
#277 = DIRECTION ( 'NONE',  ( -0.000000000000000000, -0.000000000000000000, -1.000000000000000000 ) ) ;
#278 = CARTESIAN_POINT ( 'NONE',  ( -50.24606426772571410, 121.8476404494381740, 25.00000000000000000 ) ) ;
#279 =( NAMED_UNIT ( * ) SI_UNIT ( $, .STERADIAN. ) SOLID_ANGLE_UNIT ( ) );
#280 = ORIENTED_EDGE ( 'NONE', *, *, #881, .T. ) ;
#281 = DIRECTION ( 'NONE',  ( -1.000000000000000000, 0.000000000000000000, -0.000000000000000000 ) ) ;
#282 = DIRECTION ( 'NONE',  ( -0.000000000000000000, -0.000000000000000000, 1.000000000000000000 ) ) ;
#283 = CARTESIAN_POINT ( 'NONE',  ( 20.75393573227426458, 119.8476404494381740, 25.00000000000000000 ) ) ;
#284 = DIRECTION ( 'NONE',  ( 1.000000000000000000, 0.000000000000000000, 0.000000000000000000 ) ) ;
#285 = ORIENTED_EDGE ( 'NONE', *, *, #384, .F. ) ;
#286 = DIRECTION ( 'NONE',  ( -1.000000000000000000, 0.000000000000000000, 0.000000000000000000 ) ) ;
#287 = CARTESIAN_POINT ( 'NONE',  ( 22.75393573227426458, 119.8476404494381740, 25.00000000000000000 ) ) ;
#288 = ADVANCED_FACE ( 'NONE', ( #818 ), #718, .F. ) ;
#289 = EDGE_LOOP ( 'NONE', ( #904, #212 ) ) ;
#290 = DIRECTION ( 'NONE',  ( 1.000000000000000000, 0.000000000000000000, 0.000000000000000000 ) ) ;
#291 = CONICAL_SURFACE ( 'NONE', #930, 4.699999999999999289, 0.7853981633974473908 ) ;
#292 = DIRECTION ( 'NONE',  ( 1.000000000000000000, 0.000000000000000000, 0.000000000000000000 ) ) ;
#293 = VERTEX_POINT ( 'NONE', #240 ) ;
#294 = EDGE_LOOP ( 'NONE', ( #950, #232, #538, #812, #53, #660, #1028, #526 ) ) ;
#295 = LINE ( 'NONE', #541, #311 ) ;
#296 = DIRECTION ( 'NONE',  ( -0.000000000000000000, -0.000000000000000000, -1.000000000000000000 ) ) ;
#297 = DIRECTION ( 'NONE',  ( -0.000000000000000000, -1.000000000000000000, -0.000000000000000000 ) ) ;
#298 = ORIENTED_EDGE ( 'NONE', *, *, #219, .T. ) ;
#299 = EDGE_LOOP ( 'NONE', ( #867, #738, #624, #969 ) ) ;
#300 = EDGE_CURVE ( 'NONE', #841, #156, #402, .T. ) ;
#301 = CARTESIAN_POINT ( 'NONE',  ( -52.24606426772571410, -91.15235955056182604, 25.00000000000000000 ) ) ;
#302 = LINE ( 'NONE', #792, #593 ) ;
#303 = ORIENTED_EDGE ( 'NONE', *, *, #577, .T. ) ;
#304 = ORIENTED_EDGE ( 'NONE', *, *, #702, .F. ) ;
#305 = AXIS2_PLACEMENT_3D ( 'NONE', #427, #920, #774 ) ;
#306 = FACE_OUTER_BOUND ( 'NONE', #400, .T. ) ;
#307 = CARTESIAN_POINT ( 'NONE',  ( -19.10067103158761981, -88.15235955056181183, 20.00000000000000000 ) ) ;
#308 = AXIS2_PLACEMENT_3D ( 'NONE', #335, #101, #937 ) ;
#309 = ADVANCED_FACE ( 'NONE', ( #723 ), #652, .F. ) ;
#310 = ORIENTED_EDGE ( 'NONE', *, *, #203, .T. ) ;
#311 = VECTOR ( 'NONE', #71, 1000.000000000000000 ) ;
#312 = VERTEX_POINT ( 'NONE', #573 ) ;
#313 = DIRECTION ( 'NONE',  ( -0.000000000000000000, -0.000000000000000000, 1.000000000000000000 ) ) ;
#314 = EDGE_LOOP ( 'NONE', ( #635, #83 ) ) ;
#315 = ORIENTED_EDGE ( 'NONE', *, *, #790, .F. ) ;
#316 = CARTESIAN_POINT ( 'NONE',  ( -47.24606426772573542, 28.64817227956414314, 12.00000000000000000 ) ) ;
#317 = ORIENTED_EDGE ( 'NONE', *, *, #493, .T. ) ;
#318 = ADVANCED_FACE ( 'NONE', ( #850 ), #1008, .F. ) ;
#319 = VERTEX_POINT ( 'NONE', #26 ) ;
#320 = DIRECTION ( 'NONE',  ( 0.000000000000000000, 0.000000000000000000, 1.000000000000000000 ) ) ;
#321 = CARTESIAN_POINT ( 'NONE',  ( -52.24606426772573542, 119.8476404494381597, 0.000000000000000000 ) ) ;
#322 = VECTOR ( 'NONE', #739, 1000.000000000000000 ) ;
#323 = ORIENTED_EDGE ( 'NONE', *, *, #197, .T. ) ;
#324 = LINE ( 'NONE', #572, #258 ) ;
#325 = EDGE_CURVE ( 'NONE', #821, #362, #189, .T. ) ;
#326 = ORIENTED_EDGE ( 'NONE', *, *, #59, .F. ) ;
#327 = VERTEX_POINT ( 'NONE', #95 ) ;
#328 = APPLICATION_CONTEXT ( 'automotive_design' ) ;
#329 = LINE ( 'NONE', #806, #177 ) ;
#330 = EDGE_CURVE ( 'NONE', #362, #678, #527, .T. ) ;
#331 = DIRECTION ( 'NONE',  ( 1.000000000000000000, 0.000000000000000000, 0.000000000000000000 ) ) ;
#332 = ORIENTED_EDGE ( 'NONE', *, *, #393, .F. ) ;
#333 = VERTEX_POINT ( 'NONE', #830 ) ;
#334 = LINE ( 'NONE', #599, #693 ) ;
#335 = CARTESIAN_POINT ( 'NONE',  ( -2.246064267725715435, 91.84764044943817396, 0.000000000000000000 ) ) ;
#336 = CARTESIAN_POINT ( 'NONE',  ( -47.24606426772573542, 91.84764044943815975, 20.00000000000000000 ) ) ;
#337 = SURFACE_STYLE_FILL_AREA ( #361 ) ;
#338 = ADVANCED_FACE ( 'NONE', ( #604 ), #993, .F. ) ;
#339 = ORIENTED_EDGE ( 'NONE', *, *, #181, .F. ) ;
#340 = VECTOR ( 'NONE', #381, 1000.000000000000000 ) ;
#341 = VECTOR ( 'NONE', #385, 1000.000000000000000 ) ;
#342 = FACE_OUTER_BOUND ( 'NONE', #85, .T. ) ;
#343 = LINE ( 'NONE', #663, #991 ) ;
#344 = DIRECTION ( 'NONE',  ( -0.000000000000000000, -0.000000000000000000, -1.000000000000000000 ) ) ;
#345 = EDGE_CURVE ( 'NONE', #754, #619, #498, .T. ) ;
#346 = ORIENTED_EDGE ( 'NONE', *, *, #300, .F. ) ;
#347 = CARTESIAN_POINT ( 'NONE',  ( -2.246064267725736308, -63.15235955056182604, 0.000000000000000000 ) ) ;
#348 = CARTESIAN_POINT ( 'NONE',  ( -2.246064267725736308, -63.15235955056182604, 2.300000000000024247 ) ) ;
#349 = ORIENTED_EDGE ( 'NONE', *, *, #2, .F. ) ;
#350 = ADVANCED_FACE ( 'NONE', ( #260 ), #502, .F. ) ;
#351 = CARTESIAN_POINT ( 'NONE',  ( 22.75393573227429300, -91.15235955056182604, 0.000000000000000000 ) ) ;
#352 = EDGE_CURVE ( 'NONE', #678, #362, #784, .T. ) ;
#353 = CARTESIAN_POINT ( 'NONE',  ( -47.24606426772573542, -13.95289138068775081, 12.00000000000000000 ) ) ;
#354 = CARTESIAN_POINT ( 'NONE',  ( 20.75393573227428234, -93.15235955056182604, 25.00000000000000000 ) ) ;
#355 = ORIENTED_EDGE ( 'NONE', *, *, #1015, .F. ) ;
#356 = CARTESIAN_POINT ( 'NONE',  ( -2.246064267725715435, 91.84764044943817396, -1.734723475976807883E-15 ) ) ;
#357 = VECTOR ( 'NONE', #73, 1000.000000000000000 ) ;
#358 = AXIS2_PLACEMENT_3D ( 'NONE', #674, #667, #579 ) ;
#359 = DIRECTION ( 'NONE',  ( -0.000000000000000000, -0.000000000000000000, -1.000000000000000000 ) ) ;
#360 = PLANE ( 'NONE',  #492 ) ;
#361 = FILL_AREA_STYLE ('',( #198 ) ) ;
#362 = VERTEX_POINT ( 'NONE', #741 ) ;
#363 = DIRECTION ( 'NONE',  ( 1.000000000000000000, 0.000000000000000000, -0.000000000000000000 ) ) ;
#364 = EDGE_CURVE ( 'NONE', #821, #700, #389, .T. ) ;
#365 = DIRECTION ( 'NONE',  ( -1.000000000000000000, 0.000000000000000000, 0.000000000000000000 ) ) ;
#366 = EDGE_LOOP ( 'NONE', ( #634, #233, #304, #1036 ) ) ;
#367 = LINE ( 'NONE', #210, #979 ) ;
#368 = DIRECTION ( 'NONE',  ( 1.000000000000000000, 0.000000000000000000, -0.000000000000000000 ) ) ;
#369 = EDGE_LOOP ( 'NONE', ( #17, #453 ) ) ;
#370 = ORIENTED_EDGE ( 'NONE', *, *, #100, .T. ) ;
#371 = PRODUCT_CONTEXT ( 'NONE', #480, 'mechanical' ) ;
#372 = VECTOR ( 'NONE', #190, 1000.000000000000000 ) ;
#373 = CARTESIAN_POINT ( 'NONE',  ( -26.24606426772573187, 91.84764044943815975, 20.00000000000000000 ) ) ;
#374 = AXIS2_PLACEMENT_3D ( 'NONE', #37, #676, #1009 ) ;
#375 = DIRECTION ( 'NONE',  ( 0.000000000000000000, 0.000000000000000000, 1.000000000000000000 ) ) ;
#376 = LINE ( 'NONE', #699, #906 ) ;
#377 = ORIENTED_EDGE ( 'NONE', *, *, #759, .T. ) ;
#378 = EDGE_CURVE ( 'NONE', #403, #915, #343, .T. ) ;
#379 = ORIENTED_EDGE ( 'NONE', *, *, #948, .T. ) ;
#380 = CARTESIAN_POINT ( 'NONE',  ( -4.646064267725702912, 91.84764044943817396, 20.00000000000000000 ) ) ;
#381 = DIRECTION ( 'NONE',  ( 1.000000000000000000, 0.000000000000000000, 0.000000000000000000 ) ) ;
#382 = EDGE_LOOP ( 'NONE', ( #488, #139, #18, #175 ) ) ;
#383 = ORIENTED_EDGE ( 'NONE', *, *, #345, .T. ) ;
#384 = EDGE_CURVE ( 'NONE', #235, #170, #113, .T. ) ;
#385 = DIRECTION ( 'NONE',  ( -0.000000000000000000, -0.000000000000000000, -1.000000000000000000 ) ) ;
#386 = LINE ( 'NONE', #63, #455 ) ;
#387 = ORIENTED_EDGE ( 'NONE', *, *, #86, .F. ) ;
#388 = CARTESIAN_POINT ( 'NONE',  ( 20.75393573227426458, 121.8476404494381740, 25.00000000000000000 ) ) ;
#389 = CIRCLE ( 'NONE', #404, 2.399999999999986589 ) ;
#390 = CIRCLE ( 'NONE', #561, 13.00000000000000178 ) ;
#391 = ORIENTED_EDGE ( 'NONE', *, *, #473, .T. ) ;
#392 = FACE_OUTER_BOUND ( 'NONE', #809, .T. ) ;
#393 = EDGE_CURVE ( 'NONE', #727, #333, #540, .T. ) ;
#394 = DIRECTION ( 'NONE',  ( -1.000000000000000000, 0.000000000000000000, 0.000000000000000000 ) ) ;
#395 = PRODUCT_DEFINITION_CONTEXT ( 'detailed design', #328, 'design' ) ;
#396 = ORIENTED_EDGE ( 'NONE', *, *, #1021, .T. ) ;
#397 = PLANE ( 'NONE',  #859 ) ;
#398 = DIRECTION ( 'NONE',  ( -0.000000000000000000, -0.000000000000000000, -1.000000000000000000 ) ) ;
#399 = AXIS2_PLACEMENT_3D ( 'NONE', #976, #659, #820 ) ;
#400 = EDGE_LOOP ( 'NONE', ( #566, #963, #207, #349 ) ) ;
#401 = LINE ( 'NONE', #474, #457 ) ;
#402 = LINE ( 'NONE', #732, #24 ) ;
#403 = VERTEX_POINT ( 'NONE', #431 ) ;
#404 = AXIS2_PLACEMENT_3D ( 'NONE', #912, #1003, #425 ) ;
#405 = AXIS2_PLACEMENT_3D ( 'NONE', #791, #1034, #290 ) ;
#406 = EDGE_LOOP ( 'NONE', ( #171, #33, #710, #92 ) ) ;
#407 = EDGE_CURVE ( 'NONE', #754, #915, #36, .T. ) ;
#408 = DIRECTION ( 'NONE',  ( -0.000000000000000000, -0.000000000000000000, -1.000000000000000000 ) ) ;
#409 = CARTESIAN_POINT ( 'NONE',  ( -25.24606426772574963, 7.347640449438194388, 2.000000000000000000 ) ) ;
#410 = FACE_OUTER_BOUND ( 'NONE', #76, .T. ) ;
#411 = VERTEX_POINT ( 'NONE', #107 ) ;
#412 = DIRECTION ( 'NONE',  ( -1.000000000000000000, -0.000000000000000000, -0.000000000000000000 ) ) ;
#413 = ADVANCED_FACE ( 'NONE', ( #31 ), #591, .F. ) ;
#414 = DIRECTION ( 'NONE',  ( -0.000000000000000000, -0.000000000000000000, -1.000000000000000000 ) ) ;
#415 = ORIENTED_EDGE ( 'NONE', *, *, #70, .F. ) ;
#416 = ORIENTED_EDGE ( 'NONE', *, *, #883, .T. ) ;
#417 = CARTESIAN_POINT ( 'NONE',  ( -12.24606426772574963, 7.347640449438194388, 2.000000000000000000 ) ) ;
#418 = CARTESIAN_POINT ( 'NONE',  ( -2.246064267725736308, -63.15235955056182604, 0.000000000000000000 ) ) ;
#419 = CARTESIAN_POINT ( 'NONE',  ( 2.453935732274283854, 91.84764044943817396, -1.734723475976807883E-15 ) ) ;
#420 = SURFACE_STYLE_USAGE ( .BOTH. , #758 ) ;
#421 = VERTEX_POINT ( 'NONE', #612 ) ;
#422 = AXIS2_PLACEMENT_3D ( 'NONE', #586, #918, #672 ) ;
#423 = VECTOR ( 'NONE', #449, 999.9999999999998863 ) ;
#424 = CARTESIAN_POINT ( 'NONE',  ( -3.246064267725760288, -13.95289138068775081, 20.00000000000000000 ) ) ;
#425 = DIRECTION ( 'NONE',  ( 1.000000000000000000, 0.000000000000000000, 0.000000000000000000 ) ) ;
#426 = DIRECTION ( 'NONE',  ( 0.000000000000000000, -0.000000000000000000, 1.000000000000000000 ) ) ;
#427 = CARTESIAN_POINT ( 'NONE',  ( -19.10067103158761981, -63.15235955056182604, 20.00000000000000000 ) ) ;
#428 = EDGE_CURVE ( 'NONE', #333, #149, #51, .T. ) ;
#429 = ORIENTED_EDGE ( 'NONE', *, *, #15, .F. ) ;
#430 = DIRECTION ( 'NONE',  ( -1.000000000000000000, 0.000000000000000000, 0.000000000000000000 ) ) ;
#431 = CARTESIAN_POINT ( 'NONE',  ( -26.24606426772573187, 91.84764044943815975, 20.00000000000000000 ) ) ;
#432 = PLANE ( 'NONE',  #374 ) ;
#433 = LINE ( 'NONE', #354, #746 ) ;
#434 = ORIENTED_EDGE ( 'NONE', *, *, #766, .T. ) ;
#435 = DIRECTION ( 'NONE',  ( -0.000000000000000000, 0.000000000000000000, 1.000000000000000000 ) ) ;
#436 = FACE_OUTER_BOUND ( 'NONE', #382, .T. ) ;
#437 = AXIS2_PLACEMENT_3D ( 'NONE', #486, #588, #664 ) ;
#438 = CARTESIAN_POINT ( 'NONE',  ( 2.453935732274262982, -63.15235955056182604, -1.734723475976807883E-15 ) ) ;
#439 = EDGE_LOOP ( 'NONE', ( #518, #574, #6, #1006 ) ) ;
#440 = EDGE_CURVE ( 'NONE', #170, #607, #459, .T. ) ;
#441 = AXIS2_PLACEMENT_3D ( 'NONE', #409, #807, #331 ) ;
#442 = AXIS2_PLACEMENT_3D ( 'NONE', #274, #263, #200 ) ;
#443 = DIRECTION ( 'NONE',  ( 0.000000000000000000, -0.000000000000000000, -1.000000000000000000 ) ) ;
#444 = CARTESIAN_POINT ( 'NONE',  ( 17.75393573227429300, 121.8476404494381171, 25.00000000000000000 ) ) ;
#445 = ORIENTED_EDGE ( 'NONE', *, *, #545, .T. ) ;
#446 = LINE ( 'NONE', #707, #786 ) ;
#447 = LINE ( 'NONE', #548, #728 ) ;
#448 = EDGE_LOOP ( 'NONE', ( #60, #471, #931, #262 ) ) ;
#449 = DIRECTION ( 'NONE',  ( 0.7071067811865469066, 8.659560562354926695E-17, -0.7071067811865482389 ) ) ;
#450 = DIRECTION ( 'NONE',  ( -0.000000000000000000, -0.000000000000000000, -1.000000000000000000 ) ) ;
#451 = VERTEX_POINT ( 'NONE', #960 ) ;
#452 = VECTOR ( 'NONE', #594, 1000.000000000000000 ) ;
#453 = ORIENTED_EDGE ( 'NONE', *, *, #20, .F. ) ;
#454 = AXIS2_PLACEMENT_3D ( 'NONE', #684, #130, #956 ) ;
#455 = VECTOR ( 'NONE', #626, 1000.000000000000000 ) ;
#456 = CARTESIAN_POINT ( 'NONE',  ( 22.75393573227426458, 119.8476404494381740, 25.00000000000000000 ) ) ;
#457 = VECTOR ( 'NONE', #489, 1000.000000000000000 ) ;
#458 = FACE_BOUND ( 'NONE', #666, .T. ) ;
#459 = LINE ( 'NONE', #789, #800 ) ;
#460 = EDGE_CURVE ( 'NONE', #895, #495, #57, .T. ) ;
#461 = VERTEX_POINT ( 'NONE', #866 ) ;
#462 = EDGE_CURVE ( 'NONE', #760, #29, #225, .T. ) ;
#463 = CARTESIAN_POINT ( 'NONE',  ( -26.24606426772573187, 127.2990620251500076, 20.00000000000000000 ) ) ;
#464 = CARTESIAN_POINT ( 'NONE',  ( 22.75393573227429300, -91.15235955056182604, 25.00000000000000000 ) ) ;
#465 = DIRECTION ( 'NONE',  ( -0.000000000000000000, -0.000000000000000000, -1.000000000000000000 ) ) ;
#466 = VERTEX_POINT ( 'NONE', #549 ) ;
#467 = DIRECTION ( 'NONE',  ( -0.000000000000000000, 0.000000000000000000, 1.000000000000000000 ) ) ;
#468 = CARTESIAN_POINT ( 'NONE',  ( -50.24606426772569279, -93.15235955056182604, 25.00000000000000000 ) ) ;
#469 = CARTESIAN_POINT ( 'NONE',  ( -50.24606426772571410, 121.8476404494381740, 25.00000000000000000 ) ) ;
#470 = CLOSED_SHELL ( 'NONE', ( #675, #254, #338, #829, #350, #52, #275, #559, #803, #958, #753, #649, #7, #174, #537, #226, #726, #935, #309, #1001, #94, #729, #1048, #873, #665, #288, #208, #413, #34, #66, #940, #318, #1027 ) ) ;
#471 = ORIENTED_EDGE ( 'NONE', *, *, #1033, .T. ) ;
#472 = VECTOR ( 'NONE', #606, 1000.000000000000000 ) ;
#473 = EDGE_CURVE ( 'NONE', #727, #48, #69, .T. ) ;
#474 = CARTESIAN_POINT ( 'NONE',  ( -47.24606426772573542, -63.15235955056182604, 20.00000000000000000 ) ) ;
#475 = AXIS2_PLACEMENT_3D ( 'NONE', #182, #585, #916 ) ;
#476 = VECTOR ( 'NONE', #714, 1000.000000000000000 ) ;
#477 = VECTOR ( 'NONE', #986, 999.9999999999998863 ) ;
#478 = DIRECTION ( 'NONE',  ( -1.000000000000000000, 0.000000000000000000, 0.000000000000000000 ) ) ;
#479 = EDGE_LOOP ( 'NONE', ( #339, #701, #735, #216 ) ) ;
#480 = APPLICATION_CONTEXT ( 'automotive_design' ) ;
#481 = DIRECTION ( 'NONE',  ( 0.000000000000000000, 0.000000000000000000, 1.000000000000000000 ) ) ;
#482 = DIRECTION ( 'NONE',  ( 0.000000000000000000, -1.000000000000000000, 0.000000000000000000 ) ) ;
#483 = DIRECTION ( 'NONE',  ( 1.000000000000000000, 0.000000000000000000, 0.000000000000000000 ) ) ;
#484 = VERTEX_POINT ( 'NONE', #1042 ) ;
#485 = DIRECTION ( 'NONE',  ( -1.000000000000000000, 7.885106708985491499E-17, 0.000000000000000000 ) ) ;
#486 = CARTESIAN_POINT ( 'NONE',  ( 20.75393573227426458, 119.8476404494381740, 0.000000000000000000 ) ) ;
#487 = EDGE_CURVE ( 'NONE', #613, #799, #637, .T. ) ;
#488 = ORIENTED_EDGE ( 'NONE', *, *, #59, .T. ) ;
#489 = DIRECTION ( 'NONE',  ( 1.000000000000000000, 0.000000000000000000, 0.000000000000000000 ) ) ;
#490 = CARTESIAN_POINT ( 'NONE',  ( -26.24606426772573187, 127.2990620251500076, 20.00000000000000000 ) ) ;
#491 = PLANE ( 'NONE',  #437 ) ;
#492 = AXIS2_PLACEMENT_3D ( 'NONE', #600, #205, #443 ) ;
#493 = EDGE_CURVE ( 'NONE', #533, #202, #376, .T. ) ;
#494 = AXIS2_PLACEMENT_3D ( 'NONE', #514, #35, #1007 ) ;
#495 = VERTEX_POINT ( 'NONE', #724 ) ;
#496 = EDGE_CURVE ( 'NONE', #421, #96, #742, .T. ) ;
#497 = CARTESIAN_POINT ( 'NONE',  ( -25.24606426772574963, 7.347640449438194388, 2.000000000000000000 ) ) ;
#498 = LINE ( 'NONE', #748, #74 ) ;
#499 = ORIENTED_EDGE ( 'NONE', *, *, #428, .T. ) ;
#500 = ORIENTED_EDGE ( 'NONE', *, *, #131, .F. ) ;
#501 = FACE_OUTER_BOUND ( 'NONE', #406, .T. ) ;
#502 = CYLINDRICAL_SURFACE ( 'NONE', #876, 2.399999999999987033 ) ;
#503 = CARTESIAN_POINT ( 'NONE',  ( 17.75393573227429656, -88.15235955056181183, 25.00000000000000000 ) ) ;
#504 = CARTESIAN_POINT ( 'NONE',  ( 17.75393573227429656, -88.15235955056181183, 25.00000000000000000 ) ) ;
#505 = ORIENTED_EDGE ( 'NONE', *, *, #608, .F. ) ;
#506 = DIRECTION ( 'NONE',  ( -0.000000000000000000, -0.000000000000000000, -1.000000000000000000 ) ) ;
#507 = EDGE_CURVE ( 'NONE', #619, #403, #165, .T. ) ;
#508 = CARTESIAN_POINT ( 'NONE',  ( -26.24606426772573542, 119.8476404494381740, 25.00000000000000000 ) ) ;
#509 = DIRECTION ( 'NONE',  ( -1.000000000000000000, -0.000000000000000000, -0.000000000000000000 ) ) ;
#510 = DIRECTION ( 'NONE',  ( -0.000000000000000000, -0.000000000000000000, -1.000000000000000000 ) ) ;
#511 = ORIENTED_EDGE ( 'NONE', *, *, #813, .T. ) ;
#512 = AXIS2_PLACEMENT_3D ( 'NONE', #926, #773, #270 ) ;
#513 = CONICAL_SURFACE ( 'NONE', #358, 4.699999999999999289, 0.7853981633974473908 ) ;
#514 = CARTESIAN_POINT ( 'NONE',  ( -2.246064267725736308, -63.15235955056182604, 20.00000000000000000 ) ) ;
#515 = DIRECTION ( 'NONE',  ( -0.000000000000000000, -0.000000000000000000, 1.000000000000000000 ) ) ;
#516 = DIRECTION ( 'NONE',  ( 0.000000000000000000, 0.000000000000000000, 1.000000000000000000 ) ) ;
#517 = LINE ( 'NONE', #504, #611 ) ;
#518 = ORIENTED_EDGE ( 'NONE', *, *, #808, .F. ) ;
#519 = DIRECTION ( 'NONE',  ( 0.000000000000000000, -0.000000000000000000, -1.000000000000000000 ) ) ;
#520 = CARTESIAN_POINT ( 'NONE',  ( -52.24606426772571410, -91.15235955056182604, 25.00000000000000000 ) ) ;
#521 = EDGE_CURVE ( 'NONE', #984, #977, #194, .T. ) ;
#522 = VERTEX_POINT ( 'NONE', #657 ) ;
#523 = LINE ( 'NONE', #990, #161 ) ;
#524 = FACE_OUTER_BOUND ( 'NONE', #955, .T. ) ;
#525 = DIRECTION ( 'NONE',  ( -0.000000000000000000, -0.000000000000000000, -1.000000000000000000 ) ) ;
#526 = ORIENTED_EDGE ( 'NONE', *, *, #658, .T. ) ;
#527 = CIRCLE ( 'NONE', #144, 2.399999999999976819 ) ;
#528 = CARTESIAN_POINT ( 'NONE',  ( -3.246064267725760288, -13.95289138068775081, 12.00000000000000000 ) ) ;
#529 = CARTESIAN_POINT ( 'NONE',  ( 0.1539357322742503642, -63.15235955056182604, 20.00000000000000000 ) ) ;
#530 = ORIENTED_EDGE ( 'NONE', *, *, #928, .F. ) ;
#531 = FACE_OUTER_BOUND ( 'NONE', #180, .T. ) ;
#532 = FACE_OUTER_BOUND ( 'NONE', #941, .T. ) ;
#533 = VERTEX_POINT ( 'NONE', #119 ) ;
#534 = EDGE_LOOP ( 'NONE', ( #415, #247 ) ) ;
#535 = APPLICATION_PROTOCOL_DEFINITION ( 'draft international standard', 'automotive_design', 1998, #328 ) ;
#536 = CARTESIAN_POINT ( 'NONE',  ( 2.453935732274262982, -63.15235955056182604, -1.734723475976807883E-15 ) ) ;
#537 = ADVANCED_FACE ( 'NONE', ( #125 ), #581, .T. ) ;
#538 = ORIENTED_EDGE ( 'NONE', *, *, #496, .F. ) ;
#539 = ORIENTED_EDGE ( 'NONE', *, *, #968, .F. ) ;
#540 = CIRCLE ( 'NONE', #422, 2.000000000000001776 ) ;
#541 = CARTESIAN_POINT ( 'NONE',  ( -50.24606426772569279, -93.15235955056182604, 25.00000000000000000 ) ) ;
#542 = CIRCLE ( 'NONE', #772, 4.699999999999999289 ) ;
#543 = LINE ( 'NONE', #50, #872 ) ;
#544 = ORIENTED_EDGE ( 'NONE', *, *, #720, .T. ) ;
#545 = EDGE_CURVE ( 'NONE', #700, #678, #1004, .T. ) ;
#546 = EDGE_LOOP ( 'NONE', ( #996, #874, #505, #326, #877, #167, #429, #539 ) ) ;
#547 = CARTESIAN_POINT ( 'NONE',  ( -3.246064267725760288, -13.95289138068775081, 12.00000000000000000 ) ) ;
#548 = CARTESIAN_POINT ( 'NONE',  ( -38.24606426772575674, 7.347640449438196164, 2.000000000000000000 ) ) ;
#549 = CARTESIAN_POINT ( 'NONE',  ( -38.24606426772575674, 7.347640449438196164, 12.00000000000000000 ) ) ;
#550 = ORIENTED_EDGE ( 'NONE', *, *, #131, .T. ) ;
#551 = EDGE_CURVE ( 'NONE', #895, #156, #768, .T. ) ;
#552 = ORIENTED_EDGE ( 'NONE', *, *, #702, .T. ) ;
#553 = DIRECTION ( 'NONE',  ( -0.000000000000000000, -0.000000000000000000, -1.000000000000000000 ) ) ;
#554 = DIRECTION ( 'NONE',  ( 0.000000000000000000, -1.000000000000000000, 0.000000000000000000 ) ) ;
#555 = CARTESIAN_POINT ( 'NONE',  ( -50.24606426772571410, 121.8476404494381740, 25.00000000000000000 ) ) ;
#556 = ORIENTED_EDGE ( 'NONE', *, *, #1035, .T. ) ;
#557 = STYLED_ITEM ( 'NONE', ( #43 ), #99 ) ;
#558 = DIRECTION ( 'NONE',  ( -1.000000000000000000, 0.000000000000000000, 0.000000000000000000 ) ) ;
#559 = ADVANCED_FACE ( 'NONE', ( #524 ), #360, .F. ) ;
#560 = VECTOR ( 'NONE', #509, 1000.000000000000000 ) ;
#561 = AXIS2_PLACEMENT_3D ( 'NONE', #497, #643, #816 ) ;
#562 = ORIENTED_EDGE ( 'NONE', *, *, #638, .F. ) ;
#563 = ORIENTED_EDGE ( 'NONE', *, *, #687, .F. ) ;
#564 = LINE ( 'NONE', #316, #598 ) ;
#565 = FACE_BOUND ( 'NONE', #289, .T. ) ;
#566 = ORIENTED_EDGE ( 'NONE', *, *, #521, .F. ) ;
#567 = CARTESIAN_POINT ( 'NONE',  ( -2.246064267725715435, 91.84764044943817396, 20.00000000000000000 ) ) ;
#568 = DIRECTION ( 'NONE',  ( 0.000000000000000000, 1.000000000000000000, 0.000000000000000000 ) ) ;
#569 = PRODUCT_RELATED_PRODUCT_CATEGORY ( 'part', '', ( #264 ) ) ;
#570 = EDGE_LOOP ( 'NONE', ( #416, #1045, #782, #65 ) ) ;
#571 = VERTEX_POINT ( 'NONE', #831 ) ;
#572 = CARTESIAN_POINT ( 'NONE',  ( 22.75393573227426458, 119.8476404494381740, 25.00000000000000000 ) ) ;
#573 = CARTESIAN_POINT ( 'NONE',  ( -4.646064267725723340, -63.15235955056182604, 20.00000000000000000 ) ) ;
#574 = ORIENTED_EDGE ( 'NONE', *, *, #790, .T. ) ;
#575 = CIRCLE ( 'NONE', #694, 2.000000000000005329 ) ;
#576 = CIRCLE ( 'NONE', #801, 2.000000000000001776 ) ;
#577 = EDGE_CURVE ( 'NONE', #571, #794, #42, .T. ) ;
#578 = VERTEX_POINT ( 'NONE', #419 ) ;
#579 = DIRECTION ( 'NONE',  ( -1.000000000000000000, 0.000000000000000000, 0.000000000000000000 ) ) ;
#580 = DIRECTION ( 'NONE',  ( -1.000000000000000000, 0.000000000000000000, 0.000000000000000000 ) ) ;
#581 = PLANE ( 'NONE',  #1044 ) ;
#582 =( NAMED_UNIT ( * ) PLANE_ANGLE_UNIT ( ) SI_UNIT ( $, .RADIAN. ) );
#583 = ORIENTED_EDGE ( 'NONE', *, *, #487, .F. ) ;
#584 = EDGE_CURVE ( 'NONE', #202, #421, #919, .T. ) ;
#585 = DIRECTION ( 'NONE',  ( 0.000000000000000000, 0.000000000000000000, 1.000000000000000000 ) ) ;
#586 = CARTESIAN_POINT ( 'NONE',  ( -50.24606426772572831, 119.8476404494381740, 25.00000000000000000 ) ) ;
#587 = CARTESIAN_POINT ( 'NONE',  ( -3.246064267725760288, 28.64817227956413959, 12.00000000000000000 ) ) ;
#588 = DIRECTION ( 'NONE',  ( 0.000000000000000000, 0.000000000000000000, 1.000000000000000000 ) ) ;
#589 = ORIENTED_EDGE ( 'NONE', *, *, #715, .T. ) ;
#590 = PLANE ( 'NONE',  #646 ) ;
#591 = CYLINDRICAL_SURFACE ( 'NONE', #817, 2.399999999999987033 ) ;
#592 = CARTESIAN_POINT ( 'NONE',  ( -3.246064267725760288, -13.95289138068775081, 20.00000000000000000 ) ) ;
#593 = VECTOR ( 'NONE', #632, 999.9999999999998863 ) ;
#594 = DIRECTION ( 'NONE',  ( 0.000000000000000000, -1.000000000000000000, 0.000000000000000000 ) ) ;
#595 =( GEOMETRIC_REPRESENTATION_CONTEXT ( 3 ) GLOBAL_UNCERTAINTY_ASSIGNED_CONTEXT ( ( #116 ) ) GLOBAL_UNIT_ASSIGNED_CONTEXT ( ( #603, #204, #1002 ) ) REPRESENTATION_CONTEXT ( 'NONE', 'WORKASPACE' ) );
#596 = ORIENTED_EDGE ( 'NONE', *, *, #169, .T. ) ;
#597 = AXIS2_PLACEMENT_3D ( 'NONE', #148, #886, #862 ) ;
#598 = VECTOR ( 'NONE', #970, 1000.000000000000000 ) ;
#599 = CARTESIAN_POINT ( 'NONE',  ( 0.1539357322742503642, -63.15235955056182604, 0.000000000000000000 ) ) ;
#600 = CARTESIAN_POINT ( 'NONE',  ( -50.24606426772571410, 121.8476404494381740, 25.00000000000000000 ) ) ;
#601 = CARTESIAN_POINT ( 'NONE',  ( -2.246064267725715435, 91.84764044943817396, 0.000000000000000000 ) ) ;
#602 = ORIENTED_EDGE ( 'NONE', *, *, #706, .F. ) ;
#603 =( LENGTH_UNIT ( ) NAMED_UNIT ( * ) SI_UNIT ( .MILLI., .METRE. ) );
#604 = FACE_OUTER_BOUND ( 'NONE', #890, .T. ) ;
#605 = DIRECTION ( 'NONE',  ( 0.000000000000000000, 0.000000000000000000, 1.000000000000000000 ) ) ;
#606 = DIRECTION ( 'NONE',  ( 0.000000000000000000, -1.000000000000000000, 0.000000000000000000 ) ) ;
#607 = VERTEX_POINT ( 'NONE', #503 ) ;
#608 = EDGE_CURVE ( 'NONE', #319, #989, #575, .T. ) ;
#609 = LINE ( 'NONE', #780, #423 ) ;
#610 = CARTESIAN_POINT ( 'NONE',  ( -47.24606426772573542, -13.95289138068775081, 12.00000000000000000 ) ) ;
#611 = VECTOR ( 'NONE', #769, 1000.000000000000000 ) ;
#612 = CARTESIAN_POINT ( 'NONE',  ( -47.24606426772573542, -13.95289138068775081, 20.00000000000000000 ) ) ;
#613 = VERTEX_POINT ( 'NONE', #184 ) ;
#614 = VECTOR ( 'NONE', #138, 1000.000000000000000 ) ;
#615 = CIRCLE ( 'NONE', #276, 2.000000000000001776 ) ;
#616 = FACE_OUTER_BOUND ( 'NONE', #623, .T. ) ;
#617 = DIRECTION ( 'NONE',  ( 1.000000000000000000, 0.000000000000000000, -0.000000000000000000 ) ) ;
#618 = ORIENTED_EDGE ( 'NONE', *, *, #917, .T. ) ;
#619 = VERTEX_POINT ( 'NONE', #32 ) ;
#620 = EDGE_CURVE ( 'NONE', #45, #891, #27, .T. ) ;
#621 = CARTESIAN_POINT ( 'NONE',  ( -4.646064267725713570, -63.15235955056182604, 2.300000000000024247 ) ) ;
#622 = DIRECTION ( 'NONE',  ( -1.610315182225156617E-17, 1.000000000000000000, 0.000000000000000000 ) ) ;
#623 = EDGE_LOOP ( 'NONE', ( #868, #583, #54, #954 ) ) ;
#624 = ORIENTED_EDGE ( 'NONE', *, *, #715, .F. ) ;
#625 = DIRECTION ( 'NONE',  ( 0.000000000000000000, 1.000000000000000000, 0.000000000000000000 ) ) ;
#626 = DIRECTION ( 'NONE',  ( -0.000000000000000000, -0.000000000000000000, 1.000000000000000000 ) ) ;
#627 = ORIENTED_EDGE ( 'NONE', *, *, #100, .F. ) ;
#628 = ORIENTED_EDGE ( 'NONE', *, *, #910, .T. ) ;
#629 = VECTOR ( 'NONE', #913, 1000.000000000000000 ) ;
#630 = DIRECTION ( 'NONE',  ( 1.000000000000000000, -0.000000000000000000, -0.000000000000000000 ) ) ;
#631 = AXIS2_PLACEMENT_3D ( 'NONE', #980, #408, #558 ) ;
#632 = DIRECTION ( 'NONE',  ( -0.7071067811865469066, 0.000000000000000000, -0.7071067811865482389 ) ) ;
#633 = EDGE_CURVE ( 'NONE', #721, #533, #933, .T. ) ;
#634 = ORIENTED_EDGE ( 'NONE', *, *, #440, .T. ) ;
#635 = ORIENTED_EDGE ( 'NONE', *, *, #797, .F. ) ;
#636 = LINE ( 'NONE', #10, #679 ) ;
#637 = LINE ( 'NONE', #971, #614 ) ;
#638 = EDGE_CURVE ( 'NONE', #785, #38, #978, .T. ) ;
#639 = CARTESIAN_POINT ( 'NONE',  ( -50.24606426772572831, 119.8476404494381740, 25.00000000000000000 ) ) ;
#640 = CARTESIAN_POINT ( 'NONE',  ( -3.246064267725760288, -13.95289138068775081, 12.00000000000000000 ) ) ;
#641 = CYLINDRICAL_SURFACE ( 'NONE', #399, 2.000000000000005329 ) ;
#642 = VERTEX_POINT ( 'NONE', #261 ) ;
#643 = DIRECTION ( 'NONE',  ( 0.000000000000000000, 0.000000000000000000, 1.000000000000000000 ) ) ;
#644 = VECTOR ( 'NONE', #554, 1000.000000000000000 ) ;
#645 = DIRECTION ( 'NONE',  ( 0.000000000000000000, 0.000000000000000000, -1.000000000000000000 ) ) ;
#646 = AXIS2_PLACEMENT_3D ( 'NONE', #23, #98, #922 ) ;
#647 = CARTESIAN_POINT ( 'NONE',  ( -50.24606426772571410, 121.8476404494381740, 0.000000000000000000 ) ) ;
#648 = ORIENTED_EDGE ( 'NONE', *, *, #440, .F. ) ;
#649 = ADVANCED_FACE ( 'NONE', ( #436 ), #108, .F. ) ;
#650 = CARTESIAN_POINT ( 'NONE',  ( -52.24606426772573542, 119.8476404494381597, 25.00000000000000000 ) ) ;
#651 = EDGE_CURVE ( 'NONE', #1050, #760, #757, .T. ) ;
#652 = PLANE ( 'NONE',  #927 ) ;
#653 = ORIENTED_EDGE ( 'NONE', *, *, #164, .F. ) ;
#654 = ORIENTED_EDGE ( 'NONE', *, *, #797, .T. ) ;
#655 = CARTESIAN_POINT ( 'NONE',  ( 22.75393573227429300, -91.15235955056182604, 25.00000000000000000 ) ) ;
#656 = CARTESIAN_POINT ( 'NONE',  ( -26.24606426772573187, 91.84764044943815975, 20.00000000000000000 ) ) ;
#657 = CARTESIAN_POINT ( 'NONE',  ( -47.24606426772574252, 91.84764044943815975, 25.00000000000000000 ) ) ;
#658 = EDGE_CURVE ( 'NONE', #461, #522, #851, .T. ) ;
#659 = DIRECTION ( 'NONE',  ( -0.000000000000000000, -0.000000000000000000, -1.000000000000000000 ) ) ;
#660 = ORIENTED_EDGE ( 'NONE', *, *, #923, .T. ) ;
#661 = AXIS2_PLACEMENT_3D ( 'NONE', #677, #845, #284 ) ;
#662 = DIRECTION ( 'NONE',  ( 0.000000000000000000, -1.000000000000000000, 0.000000000000000000 ) ) ;
#663 = CARTESIAN_POINT ( 'NONE',  ( -26.24606426772573187, 91.84764044943815975, 20.00000000000000000 ) ) ;
#664 = DIRECTION ( 'NONE',  ( 1.000000000000000000, 0.000000000000000000, -0.000000000000000000 ) ) ;
#665 = ADVANCED_FACE ( 'NONE', ( #114 ), #432, .F. ) ;
#666 = EDGE_LOOP ( 'NONE', ( #355, #602 ) ) ;
#667 = DIRECTION ( 'NONE',  ( -0.000000000000000000, -0.000000000000000000, -1.000000000000000000 ) ) ;
#668 = DIRECTION ( 'NONE',  ( 1.000000000000000000, 0.000000000000000000, 0.000000000000000000 ) ) ;
#669 = CARTESIAN_POINT ( 'NONE',  ( 20.75393573227428234, -91.15235955056182604, 0.000000000000000000 ) ) ;
#670 = CARTESIAN_POINT ( 'NONE',  ( -19.10067103158761981, -63.15235955056182604, 20.00000000000000000 ) ) ;
#671 = ORIENTED_EDGE ( 'NONE', *, *, #507, .T. ) ;
#672 = DIRECTION ( 'NONE',  ( 1.000000000000000000, 0.000000000000000000, 0.000000000000000000 ) ) ;
#673 = VERTEX_POINT ( 'NONE', #456 ) ;
#674 = CARTESIAN_POINT ( 'NONE',  ( -2.246064267725715435, 91.84764044943817396, -1.734723475976807883E-15 ) ) ;
#675 = ADVANCED_FACE ( 'NONE', ( #306 ), #1022, .F. ) ;
#676 = DIRECTION ( 'NONE',  ( 1.000000000000000000, -0.000000000000000000, 0.000000000000000000 ) ) ;
#677 = CARTESIAN_POINT ( 'NONE',  ( -25.24606426772574963, 7.347640449438194388, 12.00000000000000000 ) ) ;
#678 = VERTEX_POINT ( 'NONE', #957 ) ;
#679 = VECTOR ( 'NONE', #234, 1000.000000000000000 ) ;
#680 = EDGE_CURVE ( 'NONE', #673, #895, #576, .T. ) ;
#681 = DIRECTION ( 'NONE',  ( -0.000000000000000000, -0.000000000000000000, -1.000000000000000000 ) ) ;
#682 = EDGE_CURVE ( 'NONE', #149, #891, #49, .T. ) ;
#683 = ORIENTED_EDGE ( 'NONE', *, *, #123, .F. ) ;
#684 = CARTESIAN_POINT ( 'NONE',  ( 0.000000000000000000, 0.000000000000000000, 0.000000000000000000 ) ) ;
#685 = FACE_OUTER_BOUND ( 'NONE', #570, .T. ) ;
#686 = LINE ( 'NONE', #468, #340 ) ;
#687 = EDGE_CURVE ( 'NONE', #484, #721, #214, .T. ) ;
#688 = ORIENTED_EDGE ( 'NONE', *, *, #928, .T. ) ;
#689 = CARTESIAN_POINT ( 'NONE',  ( -2.246064267725736308, -63.15235955056182604, 20.00000000000000000 ) ) ;
#690 = FACE_OUTER_BOUND ( 'NONE', #192, .T. ) ;
#691 = CARTESIAN_POINT ( 'NONE',  ( 20.75393573227426458, 121.8476404494381740, 25.00000000000000000 ) ) ;
#692 = EDGE_CURVE ( 'NONE', #799, #170, #367, .T. ) ;
#693 = VECTOR ( 'NONE', #506, 1000.000000000000000 ) ;
#694 = AXIS2_PLACEMENT_3D ( 'NONE', #669, #605, #762 ) ;
#695 = EDGE_LOOP ( 'NONE', ( #315, #562, #596, #298 ) ) ;
#696 = AXIS2_PLACEMENT_3D ( 'NONE', #1013, #761, #259 ) ;
#697 = LINE ( 'NONE', #547, #1011 ) ;
#698 = DIRECTION ( 'NONE',  ( -1.000000000000000000, 0.000000000000000000, 0.000000000000000000 ) ) ;
#699 = CARTESIAN_POINT ( 'NONE',  ( -47.24606426772573542, -13.95289138068775081, 12.00000000000000000 ) ) ;
#700 = VERTEX_POINT ( 'NONE', #380 ) ;
#701 = ORIENTED_EDGE ( 'NONE', *, *, #910, .F. ) ;
#702 = EDGE_CURVE ( 'NONE', #235, #327, #446, .T. ) ;
#703 = CARTESIAN_POINT ( 'NONE',  ( -50.24606426772571410, 121.8476404494381740, 25.00000000000000000 ) ) ;
#704 = LINE ( 'NONE', #464, #158 ) ;
#705 = VERTEX_POINT ( 'NONE', #147 ) ;
#706 = EDGE_CURVE ( 'NONE', #159, #312, #9, .T. ) ;
#707 = CARTESIAN_POINT ( 'NONE',  ( -19.10067103158761981, -88.15235955056181183, 20.00000000000000000 ) ) ;
#708 = LINE ( 'NONE', #944, #88 ) ;
#709 = MECHANICAL_DESIGN_GEOMETRIC_PRESENTATION_REPRESENTATION (  '', ( #557 ), #988 ) ;
#710 = ORIENTED_EDGE ( 'NONE', *, *, #428, .F. ) ;
#711 = AXIS2_PLACEMENT_3D ( 'NONE', #348, #837, #994 ) ;
#712 = LINE ( 'NONE', #1047, #819 ) ;
#713 = AXIS2_PLACEMENT_3D ( 'NONE', #639, #553, #1051 ) ;
#714 = DIRECTION ( 'NONE',  ( -1.000000000000000000, 7.885106708985491499E-17, 0.000000000000000000 ) ) ;
#715 = EDGE_CURVE ( 'NONE', #403, #461, #1039, .T. ) ;
#716 = ORIENTED_EDGE ( 'NONE', *, *, #393, .T. ) ;
#717 = CARTESIAN_POINT ( 'NONE',  ( -3.246064267725760288, 28.64817227956413959, 12.00000000000000000 ) ) ;
#718 = PLANE ( 'NONE',  #731 ) ;
#719 = ORIENTED_EDGE ( 'NONE', *, *, #692, .F. ) ;
#720 = EDGE_CURVE ( 'NONE', #202, #484, #697, .T. ) ;
#721 = VERTEX_POINT ( 'NONE', #870 ) ;
#722 = CARTESIAN_POINT ( 'NONE',  ( -50.24606426772570700, -91.15235955056182604, 0.000000000000000000 ) ) ;
#723 = FACE_OUTER_BOUND ( 'NONE', #299, .T. ) ;
#724 = CARTESIAN_POINT ( 'NONE',  ( 20.75393573227426458, 121.8476404494381740, 0.000000000000000000 ) ) ;
#725 = CARTESIAN_POINT ( 'NONE',  ( -2.246064267725736308, -63.15235955056182604, -1.734723475976807883E-15 ) ) ;
#726 = ADVANCED_FACE ( 'NONE', ( #531 ), #230, .F. ) ;
#727 = VERTEX_POINT ( 'NONE', #703 ) ;
#728 = VECTOR ( 'NONE', #220, 1000.000000000000000 ) ;
#729 = ADVANCED_FACE ( 'NONE', ( #616 ), #223, .F. ) ;
#730 = FACE_OUTER_BOUND ( 'NONE', #439, .T. ) ;
#731 = AXIS2_PLACEMENT_3D ( 'NONE', #640, #16, #645 ) ;
#732 = CARTESIAN_POINT ( 'NONE',  ( 17.75393573227428945, 121.8476404494381740, 25.00000000000000000 ) ) ;
#733 = CIRCLE ( 'NONE', #893, 2.000000000000001776 ) ;
#734 = ORIENTED_EDGE ( 'NONE', *, *, #378, .F. ) ;
#735 = ORIENTED_EDGE ( 'NONE', *, *, #2, .T. ) ;
#736 = DIRECTION ( 'NONE',  ( -0.000000000000000000, -0.000000000000000000, 1.000000000000000000 ) ) ;
#737 = ORIENTED_EDGE ( 'NONE', *, *, #407, .F. ) ;
#738 = ORIENTED_EDGE ( 'NONE', *, *, #658, .F. ) ;
#739 = DIRECTION ( 'NONE',  ( -0.000000000000000000, -0.000000000000000000, -1.000000000000000000 ) ) ;
#740 = EDGE_CURVE ( 'NONE', #411, #1032, #295, .T. ) ;
#741 = CARTESIAN_POINT ( 'NONE',  ( 0.1539357322742616330, 91.84764044943817396, 2.300000000000024247 ) ) ;
#742 = LINE ( 'NONE', #336, #644 ) ;
#743 = ORIENTED_EDGE ( 'NONE', *, *, #188, .F. ) ;
#744 = CIRCLE ( 'NONE', #902, 2.000000000000001776 ) ;
#745 = ORIENTED_EDGE ( 'NONE', *, *, #846, .F. ) ;
#746 = VECTOR ( 'NONE', #344, 1000.000000000000000 ) ;
#747 = PLANE ( 'NONE',  #475 ) ;
#748 = CARTESIAN_POINT ( 'NONE',  ( -26.24606426772573187, 121.8476404494381740, 25.00000000000000000 ) ) ;
#749 = DIRECTION ( 'NONE',  ( 9.865725929725919765E-17, -1.000000000000000000, 0.000000000000000000 ) ) ;
#750 = CIRCLE ( 'NONE', #1024, 13.00000000000000178 ) ;
#751 = LINE ( 'NONE', #995, #104 ) ;
#752 = AXIS2_PLACEMENT_3D ( 'NONE', #689, #943, #861 ) ;
#753 = ADVANCED_FACE ( 'NONE', ( #685 ), #879, .T. ) ;
#754 = VERTEX_POINT ( 'NONE', #134 ) ;
#755 = FACE_OUTER_BOUND ( 'NONE', #11, .T. ) ;
#756 = CARTESIAN_POINT ( 'NONE',  ( 0.1539357322742711809, 91.84764044943817396, 0.000000000000000000 ) ) ;
#757 = LINE ( 'NONE', #592, #1046 ) ;
#758 = SURFACE_SIDE_STYLE ('',( #337 ) ) ;
#759 = EDGE_CURVE ( 'NONE', #362, #578, #609, .T. ) ;
#760 = VERTEX_POINT ( 'NONE', #55 ) ;
#761 = DIRECTION ( 'NONE',  ( 1.000000000000000000, 1.610315182225156617E-17, 0.000000000000000000 ) ) ;
#762 = DIRECTION ( 'NONE',  ( 1.000000000000000000, 0.000000000000000000, 0.000000000000000000 ) ) ;
#763 = CARTESIAN_POINT ( 'NONE',  ( -47.24606426772573542, -63.15235955056182604, 20.00000000000000000 ) ) ;
#764 = UNCERTAINTY_MEASURE_WITH_UNIT (LENGTH_MEASURE( 1.000000000000000082E-05 ), #102, 'distance_accuracy_value', 'NONE');
#765 = ORIENTED_EDGE ( 'NONE', *, *, #687, .T. ) ;
#766 = EDGE_CURVE ( 'NONE', #149, #411, #615, .T. ) ;
#767 = DIRECTION ( 'NONE',  ( -0.000000000000000000, -0.000000000000000000, -1.000000000000000000 ) ) ;
#768 = LINE ( 'NONE', #278, #560 ) ;
#769 = DIRECTION ( 'NONE',  ( -1.610315182225156617E-17, 1.000000000000000000, 0.000000000000000000 ) ) ;
#770 = ORIENTED_EDGE ( 'NONE', *, *, #577, .F. ) ;
#771 = AXIS2_PLACEMENT_3D ( 'NONE', #137, #450, #698 ) ;
#772 = AXIS2_PLACEMENT_3D ( 'NONE', #356, #842, #430 ) ;
#773 = DIRECTION ( 'NONE',  ( 0.000000000000000000, 0.000000000000000000, 1.000000000000000000 ) ) ;
#774 = DIRECTION ( 'NONE',  ( -0.000000000000000000, 0.000000000000000000, 1.000000000000000000 ) ) ;
#775 = ORIENTED_EDGE ( 'NONE', *, *, #86, .T. ) ;
#776 = DIRECTION ( 'NONE',  ( 0.000000000000000000, -1.000000000000000000, 0.000000000000000000 ) ) ;
#777 = FACE_OUTER_BOUND ( 'NONE', #967, .T. ) ;
#778 = ORIENTED_EDGE ( 'NONE', *, *, #496, .T. ) ;
#779 = ORIENTED_EDGE ( 'NONE', *, *, #903, .F. ) ;
#780 = CARTESIAN_POINT ( 'NONE',  ( 2.453935732274283854, 91.84764044943817396, -1.734723475976807883E-15 ) ) ;
#781 = DIRECTION ( 'NONE',  ( 1.000000000000000000, 0.000000000000000000, 0.000000000000000000 ) ) ;
#782 = ORIENTED_EDGE ( 'NONE', *, *, #766, .F. ) ;
#783 = VECTOR ( 'NONE', #662, 1000.000000000000000 ) ;
#784 = CIRCLE ( 'NONE', #209, 2.399999999999976819 ) ;
#785 = VERTEX_POINT ( 'NONE', #621 ) ;
#786 = VECTOR ( 'NONE', #787, 1000.000000000000000 ) ;
#787 = DIRECTION ( 'NONE',  ( 1.000000000000000000, 0.000000000000000000, 0.000000000000000000 ) ) ;
#788 = DIRECTION ( 'NONE',  ( 0.000000000000000000, 0.000000000000000000, 1.000000000000000000 ) ) ;
#789 = CARTESIAN_POINT ( 'NONE',  ( -19.10067103158761981, -88.15235955056181183, 25.00000000000000000 ) ) ;
#790 = EDGE_CURVE ( 'NONE', #38, #87, #952, .T. ) ;
#791 = CARTESIAN_POINT ( 'NONE',  ( -25.24606426772574963, 7.347640449438194388, 2.000000000000000000 ) ) ;
#792 = CARTESIAN_POINT ( 'NONE',  ( -6.946064267725735597, -63.15235955056182604, -1.734723475976807883E-15 ) ) ;
#793 = CARTESIAN_POINT ( 'NONE',  ( -3.246064267725760288, 28.64817227956413959, 20.00000000000000000 ) ) ;
#794 = VERTEX_POINT ( 'NONE', #655 ) ;
#795 = ORIENTED_EDGE ( 'NONE', *, *, #853, .T. ) ;
#796 = DIRECTION ( 'NONE',  ( 0.000000000000000000, -0.000000000000000000, -1.000000000000000000 ) ) ;
#797 = EDGE_CURVE ( 'NONE', #700, #821, #75, .T. ) ;
#798 = PRESENTATION_LAYER_ASSIGNMENT (  '', '', ( #557 ) ) ;
#799 = VERTEX_POINT ( 'NONE', #4 ) ;
#800 = VECTOR ( 'NONE', #64, 1000.000000000000000 ) ;
#801 = AXIS2_PLACEMENT_3D ( 'NONE', #67, #949, #965 ) ;
#802 = DIRECTION ( 'NONE',  ( -1.000000000000000000, 0.000000000000000000, 0.000000000000000000 ) ) ;
#803 = ADVANCED_FACE ( 'NONE', ( #157 ), #983, .T. ) ;
#804 = CARTESIAN_POINT ( 'NONE',  ( -47.24606426772573542, 28.64817227956415024, 20.00000000000000000 ) ) ;
#805 = ORIENTED_EDGE ( 'NONE', *, *, #352, .F. ) ;
#806 = CARTESIAN_POINT ( 'NONE',  ( -26.24606426772573187, 91.84764044943815975, 25.00000000000000000 ) ) ;
#807 = DIRECTION ( 'NONE',  ( 0.000000000000000000, 0.000000000000000000, 1.000000000000000000 ) ) ;
#808 = EDGE_CURVE ( 'NONE', #38, #785, #907, .T. ) ;
#809 = EDGE_LOOP ( 'NONE', ( #250, #273, #3, #179 ) ) ;
#810 = EDGE_LOOP ( 'NONE', ( #628, #228 ) ) ;
#811 = CARTESIAN_POINT ( 'NONE',  ( -50.24606426772571410, 121.8476404494381740, 20.00000000000000000 ) ) ;
#812 = ORIENTED_EDGE ( 'NONE', *, *, #584, .F. ) ;
#813 = EDGE_CURVE ( 'NONE', #96, #613, #401, .T. ) ;
#814 = EDGE_LOOP ( 'NONE', ( #737, #199, #716, #499, #434, #323, #303, #795, #111, #887, #387, #648, #719, #743, #683, #972 ) ) ;
#815 = VECTOR ( 'NONE', #127, 1000.000000000000000 ) ;
#816 = DIRECTION ( 'NONE',  ( 1.000000000000000000, 0.000000000000000000, 0.000000000000000000 ) ) ;
#817 = AXIS2_PLACEMENT_3D ( 'NONE', #347, #924, #195 ) ;
#818 = FACE_OUTER_BOUND ( 'NONE', #1031, .T. ) ;
#819 = VECTOR ( 'NONE', #313, 1000.000000000000000 ) ;
#820 = DIRECTION ( 'NONE',  ( -1.000000000000000000, 0.000000000000000000, 0.000000000000000000 ) ) ;
#821 = VERTEX_POINT ( 'NONE', #894 ) ;
#822 = EDGE_CURVE ( 'NONE', #721, #760, #248, .T. ) ;
#823 = CARTESIAN_POINT ( 'NONE',  ( -52.24606426772571410, -91.15235955056182604, 0.000000000000000000 ) ) ;
#824 = DIRECTION ( 'NONE',  ( -1.000000000000000000, 0.000000000000000000, 0.000000000000000000 ) ) ;
#825 = PRODUCT_DEFINITION_SHAPE ( 'NONE', 'NONE',  #973 ) ;
#826 = EDGE_LOOP ( 'NONE', ( #22, #186, #133, #1012 ) ) ;
#827 = EDGE_LOOP ( 'NONE', ( #1000, #285, #500, #105 ) ) ;
#828 = PLANE ( 'NONE',  #696 ) ;
#829 = ADVANCED_FACE ( 'NONE', ( #730 ), #291, .F. ) ;
#830 = CARTESIAN_POINT ( 'NONE',  ( -52.24606426772573542, 119.8476404494381597, 25.00000000000000000 ) ) ;
#831 = CARTESIAN_POINT ( 'NONE',  ( 20.75393573227428234, -93.15235955056182604, 25.00000000000000000 ) ) ;
#832 = CARTESIAN_POINT ( 'NONE',  ( -47.24606426772573542, 91.84764044943815975, 25.00000000000000000 ) ) ;
#833 = ORIENTED_EDGE ( 'NONE', *, *, #364, .T. ) ;
#834 = VECTOR ( 'NONE', #525, 1000.000000000000000 ) ;
#835 = FACE_OUTER_BOUND ( 'NONE', #294, .T. ) ;
#836 = DIRECTION ( 'NONE',  ( 0.000000000000000000, -1.000000000000000000, 0.000000000000000000 ) ) ;
#837 = DIRECTION ( 'NONE',  ( -0.000000000000000000, -0.000000000000000000, -1.000000000000000000 ) ) ;
#838 = AXIS2_PLACEMENT_3D ( 'NONE', #153, #375, #368 ) ;
#839 = CYLINDRICAL_SURFACE ( 'NONE', #1040, 2.399999999999987033 ) ;
#840 = AXIS2_PLACEMENT_3D ( 'NONE', #567, #481, #168 ) ;
#841 = VERTEX_POINT ( 'NONE', #14 ) ;
#842 = DIRECTION ( 'NONE',  ( -0.000000000000000000, -0.000000000000000000, -1.000000000000000000 ) ) ;
#843 = DIRECTION ( 'NONE',  ( -0.000000000000000000, -0.000000000000000000, 1.000000000000000000 ) ) ;
#844 = DIRECTION ( 'NONE',  ( -0.000000000000000000, -0.000000000000000000, 1.000000000000000000 ) ) ;
#845 = DIRECTION ( 'NONE',  ( 0.000000000000000000, 0.000000000000000000, 1.000000000000000000 ) ) ;
#846 = EDGE_CURVE ( 'NONE', #484, #1050, #636, .T. ) ;
#847 = ORIENTED_EDGE ( 'NONE', *, *, #110, .T. ) ;
#848 = EDGE_CURVE ( 'NONE', #915, #522, #329, .T. ) ;
#849 = PLANE ( 'NONE',  #964 ) ;
#850 = FACE_OUTER_BOUND ( 'NONE', #479, .T. ) ;
#851 = LINE ( 'NONE', #46, #878 ) ;
#852 = ORIENTED_EDGE ( 'NONE', *, *, #407, .T. ) ;
#853 = EDGE_CURVE ( 'NONE', #794, #673, #324, .T. ) ;
#854 = CARTESIAN_POINT ( 'NONE',  ( -4.646064267725702912, 91.84764044943817396, 0.000000000000000000 ) ) ;
#855 = FACE_OUTER_BOUND ( 'NONE', #827, .T. ) ;
#856 = CONICAL_SURFACE ( 'NONE', #892, 4.699999999999999289, 0.7853981633974473908 ) ;
#857 = EDGE_LOOP ( 'NONE', ( #255, #899, #563, #882 ) ) ;
#858 = VECTOR ( 'NONE', #178, 1000.000000000000000 ) ;
#859 = AXIS2_PLACEMENT_3D ( 'NONE', #717, #90, #485 ) ;
#860 = EDGE_CURVE ( 'NONE', #333, #45, #905, .T. ) ;
#861 = DIRECTION ( 'NONE',  ( 1.000000000000000000, 0.000000000000000000, 0.000000000000000000 ) ) ;
#862 = DIRECTION ( 'NONE',  ( -1.000000000000000000, 0.000000000000000000, 0.000000000000000000 ) ) ;
#863 = ORIENTED_EDGE ( 'NONE', *, *, #325, .T. ) ;
#864 = CARTESIAN_POINT ( 'NONE',  ( -50.24606426772570700, -91.15235955056182604, 25.00000000000000000 ) ) ;
#865 = CYLINDRICAL_SURFACE ( 'NONE', #771, 2.000000000000001776 ) ;
#866 = CARTESIAN_POINT ( 'NONE',  ( -47.24606426772573542, 91.84764044943815975, 20.00000000000000000 ) ) ;
#867 = ORIENTED_EDGE ( 'NONE', *, *, #848, .T. ) ;
#868 = ORIENTED_EDGE ( 'NONE', *, *, #188, .T. ) ;
#869 = VECTOR ( 'NONE', #91, 1000.000000000000000 ) ;
#870 = CARTESIAN_POINT ( 'NONE',  ( -3.246064267725760288, 28.64817227956413959, 12.00000000000000000 ) ) ;
#871 = FACE_BOUND ( 'NONE', #534, .T. ) ;
#872 = VECTOR ( 'NONE', #781, 1000.000000000000000 ) ;
#873 = ADVANCED_FACE ( 'NONE', ( #392 ), #397, .F. ) ;
#874 = ORIENTED_EDGE ( 'NONE', *, *, #150, .F. ) ;
#875 = PRODUCT_DEFINITION_FORMATION_WITH_SPECIFIED_SOURCE ( 'ANY', '', #264, .NOT_KNOWN. ) ;
#876 = AXIS2_PLACEMENT_3D ( 'NONE', #418, #277, #824 ) ;
#877 = ORIENTED_EDGE ( 'NONE', *, *, #883, .F. ) ;
#878 = VECTOR ( 'NONE', #844, 1000.000000000000000 ) ;
#879 = CYLINDRICAL_SURFACE ( 'NONE', #89, 2.000000000000001776 ) ;
#880 = CARTESIAN_POINT ( 'NONE',  ( 0.000000000000000000, 0.000000000000000000, 12.00000000000000000 ) ) ;
#881 = EDGE_CURVE ( 'NONE', #249, #578, #1026, .T. ) ;
#882 = ORIENTED_EDGE ( 'NONE', *, *, #846, .T. ) ;
#883 = EDGE_CURVE ( 'NONE', #891, #1032, #733, .T. ) ;
#884 = ORIENTED_EDGE ( 'NONE', *, *, #15, .T. ) ;
#885 = DIRECTION ( 'NONE',  ( -1.000000000000000000, 0.000000000000000000, 0.000000000000000000 ) ) ;
#886 = DIRECTION ( 'NONE',  ( -0.000000000000000000, -0.000000000000000000, -1.000000000000000000 ) ) ;
#887 = ORIENTED_EDGE ( 'NONE', *, *, #551, .T. ) ;
#888 = CARTESIAN_POINT ( 'NONE',  ( -2.246064267725736308, -63.15235955056182604, -1.734723475976807883E-15 ) ) ;
#889 = CIRCLE ( 'NONE', #39, 4.699999999999999289 ) ;
#890 = EDGE_LOOP ( 'NONE', ( #654, #863, #898, #982 ) ) ;
#891 = VERTEX_POINT ( 'NONE', #823 ) ;
#892 = AXIS2_PLACEMENT_3D ( 'NONE', #215, #47, #365 ) ;
#893 = AXIS2_PLACEMENT_3D ( 'NONE', #722, #320, #975 ) ;
#894 = CARTESIAN_POINT ( 'NONE',  ( 0.1539357322742711809, 91.84764044943817396, 20.00000000000000000 ) ) ;
#895 = VERTEX_POINT ( 'NONE', #388 ) ;
#896 = ORIENTED_EDGE ( 'NONE', *, *, #462, .F. ) ;
#897 = DIRECTION ( 'NONE',  ( -0.000000000000000000, -0.000000000000000000, -1.000000000000000000 ) ) ;
#898 = ORIENTED_EDGE ( 'NONE', *, *, #330, .T. ) ;
#899 = ORIENTED_EDGE ( 'NONE', *, *, #822, .F. ) ;
#900 = CARTESIAN_POINT ( 'NONE',  ( -2.246064267725715435, 91.84764044943817396, -1.734723475976807883E-15 ) ) ;
#901 = LINE ( 'NONE', #555, #155 ) ;
#902 = AXIS2_PLACEMENT_3D ( 'NONE', #166, #241, #483 ) ;
#903 = EDGE_CURVE ( 'NONE', #841, #619, #238, .T. ) ;
#904 = ORIENTED_EDGE ( 'NONE', *, *, #881, .F. ) ;
#905 = LINE ( 'NONE', #650, #25 ) ;
#906 = VECTOR ( 'NONE', #297, 1000.000000000000000 ) ;
#907 = CIRCLE ( 'NONE', #631, 2.399999999999976819 ) ;
#908 = ORIENTED_EDGE ( 'NONE', *, *, #720, .F. ) ;
#909 = ORIENTED_EDGE ( 'NONE', *, *, #551, .F. ) ;
#910 = EDGE_CURVE ( 'NONE', #977, #984, #390, .T. ) ;
#911 = LINE ( 'NONE', #268, #322 ) ;
#912 = CARTESIAN_POINT ( 'NONE',  ( -2.246064267725715435, 91.84764044943817396, 20.00000000000000000 ) ) ;
#913 = DIRECTION ( 'NONE',  ( -0.000000000000000000, -0.000000000000000000, 1.000000000000000000 ) ) ;
#914 = CARTESIAN_POINT ( 'NONE',  ( -6.946064267725715169, 91.84764044943817396, -1.734723475976807883E-15 ) ) ;
#915 = VERTEX_POINT ( 'NONE', #84 ) ;
#916 = DIRECTION ( 'NONE',  ( 1.000000000000000000, 0.000000000000000000, -0.000000000000000000 ) ) ;
#917 = EDGE_CURVE ( 'NONE', #327, #607, #712, .T. ) ;
#918 = DIRECTION ( 'NONE',  ( 0.000000000000000000, 0.000000000000000000, 1.000000000000000000 ) ) ;
#919 = LINE ( 'NONE', #353, #629 ) ;
#920 = DIRECTION ( 'NONE',  ( -1.000000000000000000, 0.000000000000000000, -0.000000000000000000 ) ) ;
#921 = ORIENTED_EDGE ( 'NONE', *, *, #903, .T. ) ;
#922 = DIRECTION ( 'NONE',  ( -9.865725929725919765E-17, 1.000000000000000000, 0.000000000000000000 ) ) ;
#923 = EDGE_CURVE ( 'NONE', #533, #29, #564, .T. ) ;
#924 = DIRECTION ( 'NONE',  ( -0.000000000000000000, -0.000000000000000000, -1.000000000000000000 ) ) ;
#925 = AXIS2_PLACEMENT_3D ( 'NONE', #106, #281, #435 ) ;
#926 = CARTESIAN_POINT ( 'NONE',  ( 20.75393573227428234, -91.15235955056182604, 25.00000000000000000 ) ) ;
#927 = AXIS2_PLACEMENT_3D ( 'NONE', #656, #568, #252 ) ;
#928 = EDGE_CURVE ( 'NONE', #673, #642, #911, .T. ) ;
#929 = CARTESIAN_POINT ( 'NONE',  ( -50.24606426772569279, -93.15235955056182604, 0.000000000000000000 ) ) ;
#930 = AXIS2_PLACEMENT_3D ( 'NONE', #888, #163, #802 ) ;
#931 = ORIENTED_EDGE ( 'NONE', *, *, #808, .T. ) ;
#932 = CARTESIAN_POINT ( 'NONE',  ( -47.24606426772573542, 91.84764044943815975, 20.00000000000000000 ) ) ;
#933 = LINE ( 'NONE', #587, #372 ) ;
#934 = LINE ( 'NONE', #201, #834 ) ;
#935 = ADVANCED_FACE ( 'NONE', ( #342 ), #828, .F. ) ;
#936 = ORIENTED_EDGE ( 'NONE', *, *, #460, .T. ) ;
#937 = DIRECTION ( 'NONE',  ( -1.000000000000000000, 0.000000000000000000, 0.000000000000000000 ) ) ;
#938 = DIRECTION ( 'NONE',  ( 0.000000000000000000, 1.000000000000000000, 0.000000000000000000 ) ) ;
#939 = CARTESIAN_POINT ( 'NONE',  ( 22.75393573227426458, 119.8476404494381740, 0.000000000000000000 ) ) ;
#940 = ADVANCED_FACE ( 'NONE', ( #755 ), #513, .F. ) ;
#941 = EDGE_LOOP ( 'NONE', ( #396, #122, #97, #688 ) ) ;
#942 = VECTOR ( 'NONE', #120, 1000.000000000000000 ) ;
#943 = DIRECTION ( 'NONE',  ( 0.000000000000000000, 0.000000000000000000, 1.000000000000000000 ) ) ;
#944 = CARTESIAN_POINT ( 'NONE',  ( 17.75393573227429656, -88.15235955056181183, 20.00000000000000000 ) ) ;
#945 = VECTOR ( 'NONE', #465, 1000.000000000000000 ) ;
#946 = ORIENTED_EDGE ( 'NONE', *, *, #13, .F. ) ;
#947 = AXIS2_PLACEMENT_3D ( 'NONE', #463, #152, #467 ) ;
#948 = EDGE_CURVE ( 'NONE', #578, #249, #542, .T. ) ;
#949 = DIRECTION ( 'NONE',  ( 0.000000000000000000, 0.000000000000000000, 1.000000000000000000 ) ) ;
#950 = ORIENTED_EDGE ( 'NONE', *, *, #123, .T. ) ;
#951 = ORIENTED_EDGE ( 'NONE', *, *, #325, .F. ) ;
#952 = LINE ( 'NONE', #536, #477 ) ;
#953 = CARTESIAN_POINT ( 'NONE',  ( -19.10067103158761981, -88.15235955056181183, 25.00000000000000000 ) ) ;
#954 = ORIENTED_EDGE ( 'NONE', *, *, #244, .T. ) ;
#955 = EDGE_LOOP ( 'NONE', ( #946, #383, #779, #1020, #909, #936, #1049, #222 ) ) ;
#956 = DIRECTION ( 'NONE',  ( 1.000000000000000000, 0.000000000000000000, 0.000000000000000000 ) ) ;
#957 = CARTESIAN_POINT ( 'NONE',  ( -4.646064267725692254, 91.84764044943817396, 2.300000000000024247 ) ) ;
#958 = ADVANCED_FACE ( 'NONE', ( #501 ), #590, .F. ) ;
#959 = CARTESIAN_POINT ( 'NONE',  ( -6.946064267725715169, 91.84764044943817396, -1.734723475976807883E-15 ) ) ;
#960 = CARTESIAN_POINT ( 'NONE',  ( -12.24606426772574963, 7.347640449438194388, 12.00000000000000000 ) ) ;
#961 = ORIENTED_EDGE ( 'NONE', *, *, #633, .T. ) ;
#962 = VECTOR ( 'NONE', #681, 1000.000000000000000 ) ;
#963 = ORIENTED_EDGE ( 'NONE', *, *, #181, .T. ) ;
#964 = AXIS2_PLACEMENT_3D ( 'NONE', #30, #997, #519 ) ;
#965 = DIRECTION ( 'NONE',  ( 1.000000000000000000, 0.000000000000000000, 0.000000000000000000 ) ) ;
#966 = CARTESIAN_POINT ( 'NONE',  ( -25.24606426772574963, 7.347640449438194388, 12.00000000000000000 ) ) ;
#967 = EDGE_LOOP ( 'NONE', ( #129, #530, #1025, #82 ) ) ;
#968 = EDGE_CURVE ( 'NONE', #495, #48, #523, .T. ) ;
#969 = ORIENTED_EDGE ( 'NONE', *, *, #378, .T. ) ;
#970 = DIRECTION ( 'NONE',  ( -0.000000000000000000, -0.000000000000000000, 1.000000000000000000 ) ) ;
#971 = CARTESIAN_POINT ( 'NONE',  ( -19.10067103158761981, -63.15235955056182604, 20.00000000000000000 ) ) ;
#972 = ORIENTED_EDGE ( 'NONE', *, *, #848, .F. ) ;
#973 = PRODUCT_DEFINITION ( 'UNKNOWN', '', #875, #395 ) ;
#974 = ORIENTED_EDGE ( 'NONE', *, *, #759, .F. ) ;
#975 = DIRECTION ( 'NONE',  ( -1.000000000000000000, 0.000000000000000000, 0.000000000000000000 ) ) ;
#976 = CARTESIAN_POINT ( 'NONE',  ( 20.75393573227428234, -91.15235955056182604, 25.00000000000000000 ) ) ;
#977 = VERTEX_POINT ( 'NONE', #417 ) ;
#978 = CIRCLE ( 'NONE', #711, 2.399999999999976819 ) ;
#979 = VECTOR ( 'NONE', #62, 1000.000000000000000 ) ;
#980 = CARTESIAN_POINT ( 'NONE',  ( -2.246064267725736308, -63.15235955056182604, 2.300000000000024247 ) ) ;
#981 = FACE_OUTER_BOUND ( 'NONE', #546, .T. ) ;
#982 = ORIENTED_EDGE ( 'NONE', *, *, #545, .F. ) ;
#983 = CYLINDRICAL_SURFACE ( 'NONE', #713, 2.000000000000001776 ) ;
#984 = VERTEX_POINT ( 'NONE', #193 ) ;
#985 = ORIENTED_EDGE ( 'NONE', *, *, #507, .F. ) ;
#986 = DIRECTION ( 'NONE',  ( 0.7071067811865469066, 8.659560562354926695E-17, -0.7071067811865482389 ) ) ;
#987 = FACE_OUTER_BOUND ( 'NONE', #695, .T. ) ;
#988 =( GEOMETRIC_REPRESENTATION_CONTEXT ( 3 ) GLOBAL_UNCERTAINTY_ASSIGNED_CONTEXT ( ( #764 ) ) GLOBAL_UNIT_ASSIGNED_CONTEXT ( ( #102, #582, #279 ) ) REPRESENTATION_CONTEXT ( 'NONE', 'WORKASPACE' ) );
#989 = VERTEX_POINT ( 'NONE', #351 ) ;
#990 = CARTESIAN_POINT ( 'NONE',  ( -50.24606426772571410, 121.8476404494381740, 0.000000000000000000 ) ) ;
#991 = VECTOR ( 'NONE', #515, 1000.000000000000000 ) ;
#992 = CIRCLE ( 'NONE', #494, 2.399999999999986589 ) ;
#993 = CYLINDRICAL_SURFACE ( 'NONE', #308, 2.399999999999987033 ) ;
#994 = DIRECTION ( 'NONE',  ( -1.000000000000000000, 0.000000000000000000, 0.000000000000000000 ) ) ;
#995 = CARTESIAN_POINT ( 'NONE',  ( -3.246064267725760288, -13.95289138068775081, 20.00000000000000000 ) ) ;
#996 = ORIENTED_EDGE ( 'NONE', *, *, #1021, .F. ) ;
#997 = DIRECTION ( 'NONE',  ( 0.000000000000000000, -1.000000000000000000, 0.000000000000000000 ) ) ;
#998 = DIRECTION ( 'NONE',  ( 0.000000000000000000, 0.000000000000000000, -1.000000000000000000 ) ) ;
#999 = LINE ( 'NONE', #939, #815 ) ;
#1000 = ORIENTED_EDGE ( 'NONE', *, *, #692, .T. ) ;
#1001 = ADVANCED_FACE ( 'NONE', ( #112 ), #849, .F. ) ;
#1002 =( NAMED_UNIT ( * ) SI_UNIT ( $, .STERADIAN. ) SOLID_ANGLE_UNIT ( ) );
#1003 = DIRECTION ( 'NONE',  ( 0.000000000000000000, 0.000000000000000000, 1.000000000000000000 ) ) ;
#1004 = LINE ( 'NONE', #854, #962 ) ;
#1005 = LINE ( 'NONE', #914, #72 ) ;
#1006 = ORIENTED_EDGE ( 'NONE', *, *, #169, .F. ) ;
#1007 = DIRECTION ( 'NONE',  ( 1.000000000000000000, 0.000000000000000000, 0.000000000000000000 ) ) ;
#1008 = CYLINDRICAL_SURFACE ( 'NONE', #1010, 13.00000000000000178 ) ;
#1009 = DIRECTION ( 'NONE',  ( 0.000000000000000000, 0.000000000000000000, -1.000000000000000000 ) ) ;
#1010 = AXIS2_PLACEMENT_3D ( 'NONE', #1014, #282, #668 ) ;
#1011 = VECTOR ( 'NONE', #630, 1000.000000000000000 ) ;
#1012 = ORIENTED_EDGE ( 'NONE', *, *, #638, .T. ) ;
#1013 = CARTESIAN_POINT ( 'NONE',  ( 17.75393573227429656, -88.15235955056181183, 20.00000000000000000 ) ) ;
#1014 = CARTESIAN_POINT ( 'NONE',  ( -25.24606426772574963, 7.347640449438194388, 2.000000000000000000 ) ) ;
#1015 = EDGE_CURVE ( 'NONE', #312, #159, #992, .T. ) ;
#1016 = LINE ( 'NONE', #670, #472 ) ;
#1017 = ORIENTED_EDGE ( 'NONE', *, *, #651, .F. ) ;
#1018 = DIRECTION ( 'NONE',  ( -0.000000000000000000, -0.000000000000000000, -1.000000000000000000 ) ) ;
#1019 = DIRECTION ( 'NONE',  ( 0.000000000000000000, -0.000000000000000000, 1.000000000000000000 ) ) ;
#1020 = ORIENTED_EDGE ( 'NONE', *, *, #300, .T. ) ;
#1021 = EDGE_CURVE ( 'NONE', #642, #495, #44, .T. ) ;
#1022 = CYLINDRICAL_SURFACE ( 'NONE', #405, 13.00000000000000178 ) ;
#1023 = PLANE ( 'NONE',  #8 ) ;
#1024 = AXIS2_PLACEMENT_3D ( 'NONE', #966, #788, #292 ) ;
#1025 = ORIENTED_EDGE ( 'NONE', *, *, #853, .F. ) ;
#1026 = CIRCLE ( 'NONE', #211, 4.699999999999999289 ) ;
#1027 = ADVANCED_FACE ( 'NONE', ( #93 ), #747, .T. ) ;
#1028 = ORIENTED_EDGE ( 'NONE', *, *, #1035, .F. ) ;
#1029 = DIRECTION ( 'NONE',  ( 0.000000000000000000, 0.000000000000000000, 1.000000000000000000 ) ) ;
#1030 = PLANE ( 'NONE',  #838 ) ;
#1031 = EDGE_LOOP ( 'NONE', ( #847, #745, #908, #117 ) ) ;
#1032 = VERTEX_POINT ( 'NONE', #187 ) ;
#1033 = EDGE_CURVE ( 'NONE', #159, #38, #334, .T. ) ;
#1034 = DIRECTION ( 'NONE',  ( -0.000000000000000000, -0.000000000000000000, 1.000000000000000000 ) ) ;
#1035 = EDGE_CURVE ( 'NONE', #461, #29, #19, .T. ) ;
#1036 = ORIENTED_EDGE ( 'NONE', *, *, #384, .T. ) ;
#1037 = ORIENTED_EDGE ( 'NONE', *, *, #203, .F. ) ;
#1038 = AXIS2_PLACEMENT_3D ( 'NONE', #78, #5, #394 ) ;
#1039 = LINE ( 'NONE', #373, #229 ) ;
#1040 = AXIS2_PLACEMENT_3D ( 'NONE', #601, #510, #191 ) ;
#1041 = FACE_OUTER_BOUND ( 'NONE', #145, .T. ) ;
#1042 = CARTESIAN_POINT ( 'NONE',  ( -3.246064267725760288, -13.95289138068775081, 12.00000000000000000 ) ) ;
#1043 = ORIENTED_EDGE ( 'NONE', *, *, #352, .T. ) ;
#1044 = AXIS2_PLACEMENT_3D ( 'NONE', #283, #516, #363 ) ;
#1045 = ORIENTED_EDGE ( 'NONE', *, *, #740, .F. ) ;
#1046 = VECTOR ( 'NONE', #196, 1000.000000000000000 ) ;
#1047 = CARTESIAN_POINT ( 'NONE',  ( 17.75393573227429656, -88.15235955056181183, 20.00000000000000000 ) ) ;
#1048 = ADVANCED_FACE ( 'NONE', ( #835 ), #118, .F. ) ;
#1049 = ORIENTED_EDGE ( 'NONE', *, *, #968, .T. ) ;
#1050 = VERTEX_POINT ( 'NONE', #424 ) ;
#1051 = DIRECTION ( 'NONE',  ( -1.000000000000000000, 0.000000000000000000, 0.000000000000000000 ) ) ;
ENDSEC;
END-ISO-10303-21;
