ISO-10303-21;
HEADER;
FILE_DESCRIPTION (( 'STEP AP214' ),
    '1' );
FILE_NAME ('õ1.STEP',
    '2026-01-21T22:01:32',
    ( '' ),
    ( '' ),
    'SwSTEP 2.0',
    'SolidWorks 2024',
    '' );
FILE_SCHEMA (( 'AUTOMOTIVE_DESIGN' ));
ENDSEC;

DATA;
#1 = FACE_OUTER_BOUND ( 'NONE', #1074, .T. ) ;
#2 = ADVANCED_FACE ( 'NONE', ( #150 ), #594, .F. ) ;
#3 = ORIENTED_EDGE ( 'NONE', *, *, #576, .F. ) ;
#4 = VECTOR ( 'NONE', #563, 1000.000000000000000 ) ;
#5 = CARTESIAN_POINT ( 'NONE',  ( -129.2328529726005968, 0.000000000000000000, 57.65837776191825981 ) ) ;
#6 = CIRCLE ( 'NONE', #120, 2.399999999999999467 ) ;
#7 = ORIENTED_EDGE ( 'NONE', *, *, #1103, .T. ) ;
#8 = SURFACE_SIDE_STYLE ('',( #164 ) ) ;
#9 = CIRCLE ( 'NONE', #447, 2.000000000000000888 ) ;
#10 = ORIENTED_EDGE ( 'NONE', *, *, #994, .T. ) ;
#11 = PRODUCT_DEFINITION_FORMATION_WITH_SPECIFIED_SOURCE ( 'ANY', '', #223, .NOT_KNOWN. ) ;
#12 = CARTESIAN_POINT ( 'NONE',  ( -98.23285297260059679, 10.00000000000000000, 31.05837776191829391 ) ) ;
#13 = ORIENTED_EDGE ( 'NONE', *, *, #978, .F. ) ;
#14 = LINE ( 'NONE', #1013, #801 ) ;
#15 = VERTEX_POINT ( 'NONE', #851 ) ;
#16 = ADVANCED_FACE ( 'NONE', ( #575 ), #141, .F. ) ;
#17 = LINE ( 'NONE', #12, #662 ) ;
#18 = EDGE_CURVE ( 'NONE', #107, #337, #673, .T. ) ;
#19 = ORIENTED_EDGE ( 'NONE', *, *, #488, .T. ) ;
#20 = ORIENTED_EDGE ( 'NONE', *, *, #257, .T. ) ;
#21 = CARTESIAN_POINT ( 'NONE',  ( 170.7671470273993748, 10.00000000000000000, 59.65837776191822428 ) ) ;
#22 = AXIS2_PLACEMENT_3D ( 'NONE', #430, #1151, #613 ) ;
#23 = EDGE_CURVE ( 'NONE', #442, #354, #771, .T. ) ;
#24 = ORIENTED_EDGE ( 'NONE', *, *, #336, .T. ) ;
#25 = AXIS2_PLACEMENT_3D ( 'NONE', #954, #593, #315 ) ;
#26 =( NAMED_UNIT ( * ) PLANE_ANGLE_UNIT ( ) SI_UNIT ( $, .RADIAN. ) );
#27 = EDGE_LOOP ( 'NONE', ( #694, #96, #224, #361 ) ) ;
#28 = LINE ( 'NONE', #117, #723 ) ;
#29 = ORIENTED_EDGE ( 'NONE', *, *, #1089, .T. ) ;
#30 = DIRECTION ( 'NONE',  ( -1.000000000000000000, 0.000000000000000000, 2.323290369611795744E-17 ) ) ;
#31 = ORIENTED_EDGE ( 'NONE', *, *, #766, .T. ) ;
#32 = PLANE ( 'NONE',  #758 ) ;
#33 = VERTEX_POINT ( 'NONE', #955 ) ;
#34 = DIRECTION ( 'NONE',  ( 1.000000000000000000, 0.000000000000000000, -0.000000000000000000 ) ) ;
#35 = FACE_BOUND ( 'NONE', #111, .T. ) ;
#36 = EDGE_CURVE ( 'NONE', #499, #391, #762, .T. ) ;
#37 = ORIENTED_EDGE ( 'NONE', *, *, #643, .T. ) ;
#38 = CARTESIAN_POINT ( 'NONE',  ( 141.7671470273994032, 10.00000000000000178, 28.65837776191829533 ) ) ;
#39 = CARTESIAN_POINT ( 'NONE',  ( 21.76714702739940321, 10.00000000000000000, 7.057086116669628595 ) ) ;
#40 = LINE ( 'NONE', #48, #184 ) ;
#41 = CIRCLE ( 'NONE', #287, 2.000000000000015543 ) ;
#42 = AXIS2_PLACEMENT_3D ( 'NONE', #753, #1132, #320 ) ;
#43 = CARTESIAN_POINT ( 'NONE',  ( -98.23285297260059679, 10.00000000000000178, 28.65837776191829533 ) ) ;
#44 = DIRECTION ( 'NONE',  ( -4.785444071660161888E-16, -0.000000000000000000, 1.000000000000000000 ) ) ;
#45 = EDGE_CURVE ( 'NONE', #1000, #1004, #910, .T. ) ;
#46 = CARTESIAN_POINT ( 'NONE',  ( 172.7671470273993748, 10.00000000000000000, -0.3416222380817088844 ) ) ;
#47 = CIRCLE ( 'NONE', #392, 4.699999999999992184 ) ;
#48 = CARTESIAN_POINT ( 'NONE',  ( -98.23285297260059679, 10.00000000000000000, 26.25837776191829676 ) ) ;
#49 = DIRECTION ( 'NONE',  ( 0.000000000000000000, 1.000000000000000000, 0.000000000000000000 ) ) ;
#50 = PLANE ( 'NONE',  #912 ) ;
#51 = EDGE_CURVE ( 'NONE', #15, #962, #1063, .T. ) ;
#52 = DIRECTION ( 'NONE',  ( 1.000000000000000000, 0.000000000000000000, 4.969259957225228450E-17 ) ) ;
#53 = CARTESIAN_POINT ( 'NONE',  ( -127.2328529726005968, 0.000000000000000000, -2.341622238081695784 ) ) ;
#54 = DIRECTION ( 'NONE',  ( 0.000000000000000000, 0.000000000000000000, -1.000000000000000000 ) ) ;
#55 = ORIENTED_EDGE ( 'NONE', *, *, #576, .T. ) ;
#56 = DIRECTION ( 'NONE',  ( 0.000000000000000000, 0.000000000000000000, -1.000000000000000000 ) ) ;
#57 = ORIENTED_EDGE ( 'NONE', *, *, #176, .F. ) ;
#58 = LINE ( 'NONE', #679, #296 ) ;
#59 = ORIENTED_EDGE ( 'NONE', *, *, #830, .T. ) ;
#60 = CARTESIAN_POINT ( 'NONE',  ( -98.23285297260059679, 10.00000000000000178, 33.35837776191828397 ) ) ;
#61 = AXIS2_PLACEMENT_3D ( 'NONE', #729, #1098, #113 ) ;
#62 = VECTOR ( 'NONE', #219, 1000.000000000000000 ) ;
#63 = DIRECTION ( 'NONE',  ( 0.000000000000000000, 0.000000000000000000, -1.000000000000000000 ) ) ;
#64 = CIRCLE ( 'NONE', #836, 4.700000000000000178 ) ;
#65 = DIRECTION ( 'NONE',  ( 0.000000000000000000, 0.000000000000000000, 1.000000000000000000 ) ) ;
#66 = LINE ( 'NONE', #961, #861 ) ;
#67 = ORIENTED_EDGE ( 'NONE', *, *, #228, .T. ) ;
#68 = CYLINDRICAL_SURFACE ( 'NONE', #610, 2.000000000000001776 ) ;
#69 = VERTEX_POINT ( 'NONE', #581 ) ;
#70 = LINE ( 'NONE', #222, #725 ) ;
#71 = DIRECTION ( 'NONE',  ( 0.000000000000000000, 1.000000000000000000, -0.000000000000000000 ) ) ;
#72 = ORIENTED_EDGE ( 'NONE', *, *, #652, .F. ) ;
#73 = CARTESIAN_POINT ( 'NONE',  ( 111.7671470273993464, 2.000000000000000000, -7.341622238081675356 ) ) ;
#74 = EDGE_CURVE ( 'NONE', #920, #123, #856, .T. ) ;
#75 = CARTESIAN_POINT ( 'NONE',  ( 132.7671470273993748, 0.000000000000000000, -24.34162223808173309 ) ) ;
#76 = ORIENTED_EDGE ( 'NONE', *, *, #947, .F. ) ;
#77 = FACE_BOUND ( 'NONE', #92, .T. ) ;
#78 = ORIENTED_EDGE ( 'NONE', *, *, #528, .F. ) ;
#79 = LINE ( 'NONE', #255, #366 ) ;
#80 = AXIS2_PLACEMENT_3D ( 'NONE', #344, #350, #791 ) ;
#81 = VECTOR ( 'NONE', #171, 1000.000000000000000 ) ;
#82 = FACE_OUTER_BOUND ( 'NONE', #793, .T. ) ;
#83 = EDGE_CURVE ( 'NONE', #871, #465, #332, .T. ) ;
#84 = SHAPE_DEFINITION_REPRESENTATION ( #1099, #356 ) ;
#85 = VECTOR ( 'NONE', #941, 1000.000000000000000 ) ;
#86 = ORIENTED_EDGE ( 'NONE', *, *, #36, .T. ) ;
#87 = CARTESIAN_POINT ( 'NONE',  ( -98.23285297260059679, 7.699999999999997513, 28.65837776191829533 ) ) ;
#88 = VECTOR ( 'NONE', #1001, 1000.000000000000000 ) ;
#89 = ORIENTED_EDGE ( 'NONE', *, *, #379, .F. ) ;
#90 = EDGE_CURVE ( 'NONE', #354, #382, #412, .T. ) ;
#91 = CARTESIAN_POINT ( 'NONE',  ( -49.23285297260063231, 10.00000000000000000, -2.341622238081753959 ) ) ;
#92 = EDGE_LOOP ( 'NONE', ( #815, #346 ) ) ;
#93 = DIRECTION ( 'NONE',  ( 0.000000000000000000, 0.000000000000000000, 1.000000000000000000 ) ) ;
#94 = ORIENTED_EDGE ( 'NONE', *, *, #1161, .T. ) ;
#95 = DIRECTION ( 'NONE',  ( -1.000000000000000000, 0.000000000000000000, 1.397092732330314826E-16 ) ) ;
#96 = ORIENTED_EDGE ( 'NONE', *, *, #680, .T. ) ;
#97 = FACE_OUTER_BOUND ( 'NONE', #1146, .T. ) ;
#98 = ORIENTED_EDGE ( 'NONE', *, *, #249, .F. ) ;
#99 = CLOSED_SHELL ( 'NONE', ( #916, #16, #112, #235, #364, #999, #838, #636, #583, #377, #2, #905, #969, #1124, #877, #411, #417, #345, #458, #495, #294, #869, #622, #788, #363, #841, #1131, #193, #863, #959, #750, #1110, #283, #509, #696, #466, #1033 ) ) ;
#100 = CIRCLE ( 'NONE', #444, 2.399999999999999467 ) ;
#101 = CARTESIAN_POINT ( 'NONE',  ( 170.7671470273993748, 10.00000000000000000, -0.3416222380817086068 ) ) ;
#102 = EDGE_LOOP ( 'NONE', ( #10, #148, #526, #1030 ) ) ;
#103 = CIRCLE ( 'NONE', #1068, 2.399999999999985256 ) ;
#104 = DIRECTION ( 'NONE',  ( -0.000000000000000000, 1.000000000000000000, -0.000000000000000000 ) ) ;
#105 = PRESENTATION_LAYER_ASSIGNMENT (  '', '', ( #1009 ) ) ;
#106 = VECTOR ( 'NONE', #852, 1000.000000000000000 ) ;
#107 = VERTEX_POINT ( 'NONE', #692 ) ;
#108 = CARTESIAN_POINT ( 'NONE',  ( -127.2328529726005684, 10.00000000000000000, 59.65837776191827402 ) ) ;
#109 = ORIENTED_EDGE ( 'NONE', *, *, #652, .T. ) ;
#110 = CARTESIAN_POINT ( 'NONE',  ( 172.7671470273993748, 10.00000000000000000, -0.3416222380817088844 ) ) ;
#111 = EDGE_LOOP ( 'NONE', ( #485, #751 ) ) ;
#112 = ADVANCED_FACE ( 'NONE', ( #767 ), #310, .F. ) ;
#113 = DIRECTION ( 'NONE',  ( 0.000000000000000000, 0.000000000000000000, 1.000000000000000000 ) ) ;
#114 = EDGE_LOOP ( 'NONE', ( #201, #156, #600, #720 ) ) ;
#115 = ORIENTED_EDGE ( 'NONE', *, *, #329, .T. ) ;
#116 = EDGE_CURVE ( 'NONE', #33, #992, #539, .T. ) ;
#117 = CARTESIAN_POINT ( 'NONE',  ( 172.7671470273993748, 0.000000000000000000, -0.3416222380817088844 ) ) ;
#118 = CIRCLE ( 'NONE', #475, 2.399999999999999467 ) ;
#119 = ORIENTED_EDGE ( 'NONE', *, *, #978, .T. ) ;
#120 = AXIS2_PLACEMENT_3D ( 'NONE', #891, #1072, #1077 ) ;
#121 = FACE_OUTER_BOUND ( 'NONE', #1113, .T. ) ;
#122 = AXIS2_PLACEMENT_3D ( 'NONE', #207, #735, #395 ) ;
#123 = VERTEX_POINT ( 'NONE', #950 ) ;
#124 = FACE_OUTER_BOUND ( 'NONE', #901, .T. ) ;
#125 = ORIENTED_EDGE ( 'NONE', *, *, #198, .T. ) ;
#126 = EDGE_CURVE ( 'NONE', #1152, #354, #677, .T. ) ;
#127 = DIRECTION ( 'NONE',  ( 0.000000000000000000, 0.000000000000000000, 1.000000000000000000 ) ) ;
#128 = VERTEX_POINT ( 'NONE', #130 ) ;
#129 = DIRECTION ( 'NONE',  ( 1.000000000000000000, -0.000000000000000000, 4.785444071660161888E-16 ) ) ;
#130 = CARTESIAN_POINT ( 'NONE',  ( -124.2328529726005542, 2.000000000000000000, 54.65837776191828112 ) ) ;
#131 = CARTESIAN_POINT ( 'NONE',  ( 132.7671470273993748, 10.00000000000000000, -2.341622238081750407 ) ) ;
#132 = DIRECTION ( 'NONE',  ( 0.000000000000000000, 0.000000000000000000, -1.000000000000000000 ) ) ;
#133 = ORIENTED_EDGE ( 'NONE', *, *, #892, .F. ) ;
#134 = CARTESIAN_POINT ( 'NONE',  ( -98.23285297260059679, 10.00000000000000000, 28.65837776191829533 ) ) ;
#135 = ORIENTED_EDGE ( 'NONE', *, *, #1161, .F. ) ;
#136 = DIRECTION ( 'NONE',  ( -0.000000000000000000, 1.000000000000000000, -0.000000000000000000 ) ) ;
#137 = VECTOR ( 'NONE', #939, 1000.000000000000000 ) ;
#138 = DIRECTION ( 'NONE',  ( 0.000000000000000000, 0.000000000000000000, 1.000000000000000000 ) ) ;
#139 = DIRECTION ( 'NONE',  ( -0.000000000000000000, -1.000000000000000000, -0.000000000000000000 ) ) ;
#140 = VECTOR ( 'NONE', #651, 1000.000000000000000 ) ;
#141 = CYLINDRICAL_SURFACE ( 'NONE', #326, 2.399999999999999467 ) ;
#142 = DIRECTION ( 'NONE',  ( 0.000000000000000000, 0.000000000000000000, -1.000000000000000000 ) ) ;
#143 = CARTESIAN_POINT ( 'NONE',  ( -47.23285297260063231, 10.00000000000000000, -24.34162223808174730 ) ) ;
#144 = LINE ( 'NONE', #242, #1119 ) ;
#145 = CARTESIAN_POINT ( 'NONE',  ( 111.7671470273993464, 0.000000000000000000, -7.341622238081675356 ) ) ;
#146 = LINE ( 'NONE', #763, #106 ) ;
#147 = CARTESIAN_POINT ( 'NONE',  ( 0.000000000000000000, 2.000000000000000000, 0.000000000000000000 ) ) ;
#148 = ORIENTED_EDGE ( 'NONE', *, *, #713, .F. ) ;
#149 = DIRECTION ( 'NONE',  ( -4.785444071660163860E-16, 0.000000000000000000, 1.000000000000000000 ) ) ;
#150 = FACE_OUTER_BOUND ( 'NONE', #635, .T. ) ;
#151 = DIRECTION ( 'NONE',  ( 0.000000000000000000, 0.000000000000000000, 1.000000000000000000 ) ) ;
#152 = PRODUCT_DEFINITION_CONTEXT ( 'detailed design', #845, 'design' ) ;
#153 = ORIENTED_EDGE ( 'NONE', *, *, #1025, .T. ) ;
#154 = FACE_OUTER_BOUND ( 'NONE', #640, .T. ) ;
#155 = VECTOR ( 'NONE', #747, 1000.000000000000000 ) ;
#156 = ORIENTED_EDGE ( 'NONE', *, *, #18, .T. ) ;
#157 = DIRECTION ( 'NONE',  ( 0.000000000000000000, 0.000000000000000000, -1.000000000000000000 ) ) ;
#158 = AXIS2_PLACEMENT_3D ( 'NONE', #1040, #419, #241 ) ;
#159 = CARTESIAN_POINT ( 'NONE',  ( -127.2328529726005968, 10.00000000000000000, -2.341622238081695784 ) ) ;
#160 = CIRCLE ( 'NONE', #313, 4.699999999999992184 ) ;
#161 = ORIENTED_EDGE ( 'NONE', *, *, #688, .T. ) ;
#162 = VECTOR ( 'NONE', #435, 1000.000000000000000 ) ;
#163 = EDGE_CURVE ( 'NONE', #579, #690, #64, .T. ) ;
#164 = SURFACE_STYLE_FILL_AREA ( #972 ) ;
#165 = CYLINDRICAL_SURFACE ( 'NONE', #686, 1.999999999999988010 ) ;
#166 = DIRECTION ( 'NONE',  ( 0.000000000000000000, 0.000000000000000000, 1.000000000000000000 ) ) ;
#167 = CARTESIAN_POINT ( 'NONE',  ( -28.23285297260055771, 0.000000000000000000, 2.658377761918328197 ) ) ;
#168 = ORIENTED_EDGE ( 'NONE', *, *, #953, .T. ) ;
#169 = DIRECTION ( 'NONE',  ( -0.000000000000000000, -1.000000000000000000, -0.000000000000000000 ) ) ;
#170 = EDGE_CURVE ( 'NONE', #69, #309, #619, .T. ) ;
#171 = DIRECTION ( 'NONE',  ( 1.000000000000000000, 0.000000000000000000, 4.969259957225228450E-17 ) ) ;
#172 = DIRECTION ( 'NONE',  ( 1.000000000000000000, 0.000000000000000000, 1.425800117241211709E-16 ) ) ;
#173 =( NAMED_UNIT ( * ) SI_UNIT ( $, .STERADIAN. ) SOLID_ANGLE_UNIT ( ) );
#174 = EDGE_LOOP ( 'NONE', ( #937, #284, #94, #59, #262, #269, #19, #911 ) ) ;
#175 = DIRECTION ( 'NONE',  ( 0.000000000000000000, -0.000000000000000000, -1.000000000000000000 ) ) ;
#176 = EDGE_CURVE ( 'NONE', #1004, #1000, #517, .T. ) ;
#177 = CONICAL_SURFACE ( 'NONE', #832, 4.700000000000006395, 0.7853981633974526089 ) ;
#178 = EDGE_CURVE ( 'NONE', #371, #736, #608, .T. ) ;
#179 = DIRECTION ( 'NONE',  ( -0.000000000000000000, 1.000000000000000000, 0.000000000000000000 ) ) ;
#180 = CARTESIAN_POINT ( 'NONE',  ( 111.7671470273993464, 2.000000000000000000, -7.341622238081675356 ) ) ;
#181 = ORIENTED_EDGE ( 'NONE', *, *, #711, .T. ) ;
#182 = CIRCLE ( 'NONE', #707, 2.399999999999999467 ) ;
#183 = LINE ( 'NONE', #889, #990 ) ;
#184 = VECTOR ( 'NONE', #1133, 1000.000000000000000 ) ;
#185 = VERTEX_POINT ( 'NONE', #721 ) ;
#186 = EDGE_CURVE ( 'NONE', #15, #1064, #980, .T. ) ;
#187 = CARTESIAN_POINT ( 'NONE',  ( -127.2328529726005684, 10.00000000000000000, 57.65837776191825981 ) ) ;
#188 = ORIENTED_EDGE ( 'NONE', *, *, #209, .T. ) ;
#189 = CARTESIAN_POINT ( 'NONE',  ( -124.2328529726005542, 0.000000000000000000, 2.658377761918323756 ) ) ;
#190 = ORIENTED_EDGE ( 'NONE', *, *, #533, .T. ) ;
#191 = DIRECTION ( 'NONE',  ( -0.000000000000000000, 1.000000000000000000, -0.000000000000000000 ) ) ;
#192 = VERTEX_POINT ( 'NONE', #704 ) ;
#193 = ADVANCED_FACE ( 'NONE', ( #82 ), #440, .F. ) ;
#194 = CARTESIAN_POINT ( 'NONE',  ( 21.76714702739940321, 7.699999999999997513, 2.257086116669629661 ) ) ;
#195 = ORIENTED_EDGE ( 'NONE', *, *, #321, .T. ) ;
#196 = DIRECTION ( 'NONE',  ( 0.000000000000000000, 1.000000000000000000, 0.000000000000000000 ) ) ;
#197 = ORIENTED_EDGE ( 'NONE', *, *, #953, .F. ) ;
#198 = EDGE_CURVE ( 'NONE', #192, #69, #261, .T. ) ;
#199 = ORIENTED_EDGE ( 'NONE', *, *, #402, .F. ) ;
#200 = DIRECTION ( 'NONE',  ( 4.785444071660163860E-16, -0.000000000000000000, -1.000000000000000000 ) ) ;
#201 = ORIENTED_EDGE ( 'NONE', *, *, #811, .F. ) ;
#202 = CARTESIAN_POINT ( 'NONE',  ( 111.7671470273993464, 2.000000000000000000, 2.658377761918324644 ) ) ;
#203 = EDGE_CURVE ( 'NONE', #903, #550, #271, .T. ) ;
#204 = ORIENTED_EDGE ( 'NONE', *, *, #23, .F. ) ;
#205 = DIRECTION ( 'NONE',  ( 0.000000000000000000, 0.000000000000000000, 1.000000000000000000 ) ) ;
#206 = ORIENTED_EDGE ( 'NONE', *, *, #719, .T. ) ;
#207 = CARTESIAN_POINT ( 'NONE',  ( 130.7671470273993748, 10.00000000000000000, -24.34162223808174730 ) ) ;
#208 = ORIENTED_EDGE ( 'NONE', *, *, #178, .F. ) ;
#209 = EDGE_CURVE ( 'NONE', #1064, #1105, #854, .T. ) ;
#210 = CARTESIAN_POINT ( 'NONE',  ( 21.76714702739940321, 7.699999999999997513, 4.657086116669629128 ) ) ;
#211 = EDGE_CURVE ( 'NONE', #657, #620, #41, .T. ) ;
#212 = AXIS2_PLACEMENT_3D ( 'NONE', #226, #504, #316 ) ;
#213 = AXIS2_PLACEMENT_3D ( 'NONE', #665, #71, #993 ) ;
#214 = EDGE_LOOP ( 'NONE', ( #544, #1121, #478, #24 ) ) ;
#215 = VECTOR ( 'NONE', #598, 1000.000000000000000 ) ;
#216 = CARTESIAN_POINT ( 'NONE',  ( 141.7671470273994032, 10.00000000000000000, 28.65837776191829533 ) ) ;
#217 = EDGE_LOOP ( 'NONE', ( #712, #204, #906, #3, #1173, #1018, #746, #976 ) ) ;
#218 = CIRCLE ( 'NONE', #819, 4.700000000000000178 ) ;
#219 = DIRECTION ( 'NONE',  ( 1.000000000000000000, -0.000000000000000000, -2.478176394252583236E-17 ) ) ;
#220 = ORIENTED_EDGE ( 'NONE', *, *, #678, .T. ) ;
#221 = CARTESIAN_POINT ( 'NONE',  ( -49.23285297260063231, 0.000000000000000000, -2.341622238081753959 ) ) ;
#222 = CARTESIAN_POINT ( 'NONE',  ( -98.23285297260059679, 10.00000000000000178, 33.35837776191828397 ) ) ;
#223 = PRODUCT ( '\X2\0445\X0\1', '\X2\0445\X0\1', '', ( #333 ) ) ;
#224 = ORIENTED_EDGE ( 'NONE', *, *, #726, .T. ) ;
#225 = CARTESIAN_POINT ( 'NONE',  ( -129.2328529726005968, 10.00000000000000000, 57.65837776191825981 ) ) ;
#226 = CARTESIAN_POINT ( 'NONE',  ( 132.7671470273993748, 10.00000000000000000, -2.341622238081750407 ) ) ;
#227 = CARTESIAN_POINT ( 'NONE',  ( 21.76714702739940321, 10.00000000000000178, 4.657086116669629128 ) ) ;
#228 = EDGE_CURVE ( 'NONE', #705, #1008, #874, .T. ) ;
#229 = FACE_OUTER_BOUND ( 'NONE', #510, .T. ) ;
#230 = FACE_OUTER_BOUND ( 'NONE', #840, .T. ) ;
#231 = ORIENTED_EDGE ( 'NONE', *, *, #1170, .F. ) ;
#232 = CARTESIAN_POINT ( 'NONE',  ( -124.2328529726005542, 2.000000000000000000, 2.658377761918323756 ) ) ;
#233 = VECTOR ( 'NONE', #522, 1000.000000000000000 ) ;
#234 = FACE_OUTER_BOUND ( 'NONE', #174, .T. ) ;
#235 = ADVANCED_FACE ( 'NONE', ( #434 ), #1078, .F. ) ;
#236 = DIRECTION ( 'NONE',  ( 4.785444071660161888E-16, 0.000000000000000000, -1.000000000000000000 ) ) ;
#237 = VECTOR ( 'NONE', #547, 1000.000000000000000 ) ;
#238 = CARTESIAN_POINT ( 'NONE',  ( 111.7671470273993464, 0.000000000000000000, -7.341622238081675356 ) ) ;
#239 = AXIS2_PLACEMENT_3D ( 'NONE', #232, #754, #311 ) ;
#240 = DIRECTION ( 'NONE',  ( -0.000000000000000000, 1.000000000000000000, -0.000000000000000000 ) ) ;
#241 = DIRECTION ( 'NONE',  ( 0.000000000000000000, 0.000000000000000000, 1.000000000000000000 ) ) ;
#242 = CARTESIAN_POINT ( 'NONE',  ( 132.7671470273993748, 10.00000000000000000, -24.34162223808173309 ) ) ;
#243 = EDGE_CURVE ( 'NONE', #468, #970, #741, .T. ) ;
#244 = DIRECTION ( 'NONE',  ( -0.000000000000000000, -1.000000000000000000, -0.000000000000000000 ) ) ;
#245 = ORIENTED_EDGE ( 'NONE', *, *, #1051, .F. ) ;
#246 = CARTESIAN_POINT ( 'NONE',  ( 21.76714702739940321, 10.00000000000000000, 2.257086116669629661 ) ) ;
#247 = VERTEX_POINT ( 'NONE', #887 ) ;
#248 = DIRECTION ( 'NONE',  ( -0.000000000000000000, -1.000000000000000000, -0.000000000000000000 ) ) ;
#249 = EDGE_CURVE ( 'NONE', #465, #1167, #1059, .T. ) ;
#250 = DIRECTION ( 'NONE',  ( -0.000000000000000000, -1.000000000000000000, -0.000000000000000000 ) ) ;
#251 = LINE ( 'NONE', #353, #162 ) ;
#252 = ORIENTED_EDGE ( 'NONE', *, *, #300, .T. ) ;
#253 = FILL_AREA_STYLE_COLOUR ( '', #1070 ) ;
#254 = CIRCLE ( 'NONE', #948, 2.399999999999999467 ) ;
#255 = CARTESIAN_POINT ( 'NONE',  ( -49.23285297260063231, 10.00000000000000000, -24.34162223808173309 ) ) ;
#256 = DIRECTION ( 'NONE',  ( 0.000000000000000000, 1.000000000000000000, 0.000000000000000000 ) ) ;
#257 = EDGE_CURVE ( 'NONE', #185, #1008, #605, .T. ) ;
#258 = ORIENTED_EDGE ( 'NONE', *, *, #74, .T. ) ;
#259 = CARTESIAN_POINT ( 'NONE',  ( 170.7671470273993748, 10.00000000000000000, 59.65837776191822428 ) ) ;
#260 = DIRECTION ( 'NONE',  ( -1.000000000000000000, -0.000000000000000000, -0.000000000000000000 ) ) ;
#261 = LINE ( 'NONE', #904, #587 ) ;
#262 = ORIENTED_EDGE ( 'NONE', *, *, #1139, .T. ) ;
#263 = FACE_BOUND ( 'NONE', #217, .T. ) ;
#264 = EDGE_CURVE ( 'NONE', #1000, #659, #17, .T. ) ;
#265 = ORIENTED_EDGE ( 'NONE', *, *, #1100, .F. ) ;
#266 = CARTESIAN_POINT ( 'NONE',  ( -127.2328529726005684, 10.00000000000000000, 59.65837776191827402 ) ) ;
#267 = DIRECTION ( 'NONE',  ( -1.425800117241211709E-16, 0.000000000000000000, 1.000000000000000000 ) ) ;
#268 = CARTESIAN_POINT ( 'NONE',  ( 0.000000000000000000, 0.000000000000000000, 0.000000000000000000 ) ) ;
#269 = ORIENTED_EDGE ( 'NONE', *, *, #83, .T. ) ;
#270 = DIRECTION ( 'NONE',  ( -0.000000000000000000, -1.000000000000000000, -0.000000000000000000 ) ) ;
#271 = CIRCLE ( 'NONE', #1043, 2.000000000000001776 ) ;
#272 = EDGE_CURVE ( 'NONE', #1002, #846, #627, .T. ) ;
#273 = ORIENTED_EDGE ( 'NONE', *, *, #372, .T. ) ;
#274 = CARTESIAN_POINT ( 'NONE',  ( -47.23285297260063231, 0.000000000000000000, -24.34162223808174730 ) ) ;
#275 = ORIENTED_EDGE ( 'NONE', *, *, #352, .T. ) ;
#276 = CARTESIAN_POINT ( 'NONE',  ( 167.7671470273993464, 2.000000000000000000, 2.658377761918323756 ) ) ;
#277 = ORIENTED_EDGE ( 'NONE', *, *, #1005, .F. ) ;
#278 = DIRECTION ( 'NONE',  ( 0.000000000000000000, 0.000000000000000000, 1.000000000000000000 ) ) ;
#279 = VERTEX_POINT ( 'NONE', #5 ) ;
#280 = LINE ( 'NONE', #639, #88 ) ;
#281 = ORIENTED_EDGE ( 'NONE', *, *, #557, .F. ) ;
#282 = DIRECTION ( 'NONE',  ( 0.000000000000000000, 0.000000000000000000, 1.000000000000000000 ) ) ;
#283 = ADVANCED_FACE ( 'NONE', ( #297 ), #816, .F. ) ;
#284 = ORIENTED_EDGE ( 'NONE', *, *, #892, .T. ) ;
#285 = CARTESIAN_POINT ( 'NONE',  ( 170.7671470273993748, 10.00000000000000000, 59.65837776191822428 ) ) ;
#286 = ORIENTED_EDGE ( 'NONE', *, *, #1081, .F. ) ;
#287 = AXIS2_PLACEMENT_3D ( 'NONE', #187, #256, #1067 ) ;
#288 = CARTESIAN_POINT ( 'NONE',  ( 167.7671470273993464, 0.000000000000000000, 54.65837776191832376 ) ) ;
#289 = AXIS2_PLACEMENT_3D ( 'NONE', #1044, #129, #236 ) ;
#290 = ORIENTED_EDGE ( 'NONE', *, *, #243, .F. ) ;
#291 = EDGE_CURVE ( 'NONE', #736, #970, #470, .T. ) ;
#292 =( LENGTH_UNIT ( ) NAMED_UNIT ( * ) SI_UNIT ( .MILLI., .METRE. ) );
#293 = AXIS2_PLACEMENT_3D ( 'NONE', #202, #656, #30 ) ;
#294 = ADVANCED_FACE ( 'NONE', ( #1090 ), #367, .F. ) ;
#295 = ORIENTED_EDGE ( 'NONE', *, *, #717, .F. ) ;
#296 = VECTOR ( 'NONE', #425, 1000.000000000000000 ) ;
#297 = FACE_OUTER_BOUND ( 'NONE', #369, .T. ) ;
#298 = ORIENTED_EDGE ( 'NONE', *, *, #1005, .T. ) ;
#299 = CARTESIAN_POINT ( 'NONE',  ( -47.23285297260061810, 0.000000000000000000, -26.34162223808174730 ) ) ;
#300 = EDGE_CURVE ( 'NONE', #309, #697, #386, .T. ) ;
#301 = ORIENTED_EDGE ( 'NONE', *, *, #1051, .T. ) ;
#302 = CARTESIAN_POINT ( 'NONE',  ( 141.7671470273994032, 10.00000000000000178, 28.65837776191829533 ) ) ;
#303 = ORIENTED_EDGE ( 'NONE', *, *, #631, .T. ) ;
#304 = LINE ( 'NONE', #285, #237 ) ;
#305 = ORIENTED_EDGE ( 'NONE', *, *, #615, .F. ) ;
#306 = DIRECTION ( 'NONE',  ( 0.000000000000000000, 0.000000000000000000, -1.000000000000000000 ) ) ;
#307 = AXIS2_PLACEMENT_3D ( 'NONE', #101, #139, #56 ) ;
#308 = VECTOR ( 'NONE', #244, 1000.000000000000000 ) ;
#309 = VERTEX_POINT ( 'NONE', #837 ) ;
#310 = CONICAL_SURFACE ( 'NONE', #967, 4.699999999999992184, 0.7853981633974466137 ) ;
#311 = DIRECTION ( 'NONE',  ( 0.000000000000000000, 0.000000000000000000, 1.000000000000000000 ) ) ;
#312 = CARTESIAN_POINT ( 'NONE',  ( 141.7671470273994032, 2.000000000000000000, 31.05837776191827970 ) ) ;
#313 = AXIS2_PLACEMENT_3D ( 'NONE', #43, #318, #681 ) ;
#314 = EDGE_LOOP ( 'NONE', ( #360, #168, #1069, #29, #1097, #115, #606, #206, #153, #817, #398, #727, #894, #119 ) ) ;
#315 = DIRECTION ( 'NONE',  ( 0.000000000000000000, 0.000000000000000000, 1.000000000000000000 ) ) ;
#316 = DIRECTION ( 'NONE',  ( 1.000000000000000000, 0.000000000000000000, 1.095614826932720052E-15 ) ) ;
#317 = FACE_OUTER_BOUND ( 'NONE', #805, .T. ) ;
#318 = DIRECTION ( 'NONE',  ( -0.000000000000000000, 1.000000000000000000, -0.000000000000000000 ) ) ;
#319 = CARTESIAN_POINT ( 'NONE',  ( 21.76714702739940321, 10.00000000000000178, -0.04291388333037011310 ) ) ;
#320 = DIRECTION ( 'NONE',  ( 0.000000000000000000, 0.000000000000000000, -1.000000000000000000 ) ) ;
#321 = EDGE_CURVE ( 'NONE', #620, #786, #1010, .T. ) ;
#322 = CARTESIAN_POINT ( 'NONE',  ( 170.7671470273993748, 0.000000000000000000, 59.65837776191822428 ) ) ;
#323 = DIRECTION ( 'NONE',  ( -0.000000000000000000, 1.000000000000000000, -0.000000000000000000 ) ) ;
#324 = PLANE ( 'NONE',  #289 ) ;
#325 = DIRECTION ( 'NONE',  ( -0.000000000000000000, 1.000000000000000000, -0.000000000000000000 ) ) ;
#326 = AXIS2_PLACEMENT_3D ( 'NONE', #416, #423, #514 ) ;
#327 = DIRECTION ( 'NONE',  ( 1.000000000000000000, -0.000000000000000000, -1.397092732330314826E-16 ) ) ;
#328 = LINE ( 'NONE', #501, #1141 ) ;
#329 = EDGE_CURVE ( 'NONE', #339, #185, #567, .T. ) ;
#330 = ORIENTED_EDGE ( 'NONE', *, *, #1039, .T. ) ;
#331 = CARTESIAN_POINT ( 'NONE',  ( -28.23285297260055771, 0.000000000000000000, -7.341622238081671803 ) ) ;
#332 = LINE ( 'NONE', #868, #913 ) ;
#333 = PRODUCT_CONTEXT ( 'NONE', #1011, 'mechanical' ) ;
#334 = ORIENTED_EDGE ( 'NONE', *, *, #828, .T. ) ;
#335 = CARTESIAN_POINT ( 'NONE',  ( 170.7671470273993748, 10.00000000000000000, -0.3416222380817086068 ) ) ;
#336 = EDGE_CURVE ( 'NONE', #1021, #1101, #737, .T. ) ;
#337 = VERTEX_POINT ( 'NONE', #1094 ) ;
#338 = LINE ( 'NONE', #357, #646 ) ;
#339 = VERTEX_POINT ( 'NONE', #927 ) ;
#340 = DIRECTION ( 'NONE',  ( 0.000000000000000000, 0.000000000000000000, -1.000000000000000000 ) ) ;
#341 = ORIENTED_EDGE ( 'NONE', *, *, #471, .F. ) ;
#342 = PLANE ( 'NONE',  #476 ) ;
#343 = EDGE_CURVE ( 'NONE', #659, #107, #118, .T. ) ;
#344 = CARTESIAN_POINT ( 'NONE',  ( -98.23285297260059679, 10.00000000000000000, 28.65837776191829533 ) ) ;
#345 = ADVANCED_FACE ( 'NONE', ( #654 ), #554, .T. ) ;
#346 = ORIENTED_EDGE ( 'NONE', *, *, #427, .F. ) ;
#347 = DIRECTION ( 'NONE',  ( -2.478176394252583236E-17, 0.000000000000000000, -1.000000000000000000 ) ) ;
#348 = VECTOR ( 'NONE', #1049, 1000.000000000000000 ) ;
#349 = LINE ( 'NONE', #534, #215 ) ;
#350 = DIRECTION ( 'NONE',  ( -0.000000000000000000, 1.000000000000000000, -0.000000000000000000 ) ) ;
#351 = AXIS2_PLACEMENT_3D ( 'NONE', #143, #49, #1134 ) ;
#352 = EDGE_CURVE ( 'NONE', #1156, #123, #28, .T. ) ;
#353 = CARTESIAN_POINT ( 'NONE',  ( 21.76714702739940321, 10.00000000000000178, 9.357086116669629305 ) ) ;
#354 = VERTEX_POINT ( 'NONE', #1015 ) ;
#355 = DIRECTION ( 'NONE',  ( -1.000000000000000000, 0.000000000000000000, 2.478176394252583236E-17 ) ) ;
#356 = ADVANCED_BREP_SHAPE_REPRESENTATION ( '\X2\0445\X0\1', ( #885, #1148 ), #483 ) ;
#357 = CARTESIAN_POINT ( 'NONE',  ( -49.23285297260063231, 10.00000000000000000, -2.341622238081753959 ) ) ;
#358 = ORIENTED_EDGE ( 'NONE', *, *, #797, .T. ) ;
#359 = FACE_OUTER_BOUND ( 'NONE', #1016, .T. ) ;
#360 = ORIENTED_EDGE ( 'NONE', *, *, #116, .T. ) ;
#361 = ORIENTED_EDGE ( 'NONE', *, *, #36, .F. ) ;
#362 = DIRECTION ( 'NONE',  ( -1.000000000000000000, 0.000000000000000000, -4.969259957225228450E-17 ) ) ;
#363 = ADVANCED_FACE ( 'NONE', ( #477 ), #393, .F. ) ;
#364 = ADVANCED_FACE ( 'NONE', ( #559 ), #177, .F. ) ;
#365 = ORIENTED_EDGE ( 'NONE', *, *, #272, .T. ) ;
#366 = VECTOR ( 'NONE', #979, 1000.000000000000000 ) ;
#367 = PLANE ( 'NONE',  #683 ) ;
#368 = AXIS2_PLACEMENT_3D ( 'NONE', #1075, #453, #884 ) ;
#369 = EDGE_LOOP ( 'NONE', ( #924, #942, #190, #365 ) ) ;
#370 = PLANE ( 'NONE',  #293 ) ;
#371 = VERTEX_POINT ( 'NONE', #1020 ) ;
#372 = EDGE_CURVE ( 'NONE', #391, #997, #254, .T. ) ;
#373 = DIRECTION ( 'NONE',  ( -1.000000000000000000, 0.000000000000000000, -1.425800117241211709E-16 ) ) ;
#374 = ORIENTED_EDGE ( 'NONE', *, *, #343, .T. ) ;
#375 =( NAMED_UNIT ( * ) SI_UNIT ( $, .STERADIAN. ) SOLID_ANGLE_UNIT ( ) );
#376 = VERTEX_POINT ( 'NONE', #814 ) ;
#377 = ADVANCED_FACE ( 'NONE', ( #549 ), #909, .T. ) ;
#378 = DIRECTION ( 'NONE',  ( -0.000000000000000000, 1.000000000000000000, -0.000000000000000000 ) ) ;
#379 = EDGE_CURVE ( 'NONE', #1105, #279, #586, .T. ) ;
#380 = ORIENTED_EDGE ( 'NONE', *, *, #928, .T. ) ;
#381 = PLANE ( 'NONE',  #918 ) ;
#382 = VERTEX_POINT ( 'NONE', #421 ) ;
#383 = AXIS2_PLACEMENT_3D ( 'NONE', #530, #267, #172 ) ;
#384 = AXIS2_PLACEMENT_3D ( 'NONE', #38, #1036, #949 ) ;
#385 = VECTOR ( 'NONE', #778, 1000.000000000000000 ) ;
#386 = LINE ( 'NONE', #288, #1083 ) ;
#387 = ORIENTED_EDGE ( 'NONE', *, *, #427, .T. ) ;
#388 = EDGE_CURVE ( 'NONE', #1021, #339, #144, .T. ) ;
#389 = DIRECTION ( 'NONE',  ( -1.000000000000000000, 0.000000000000000000, 0.000000000000000000 ) ) ;
#390 = AXIS2_PLACEMENT_3D ( 'NONE', #443, #812, #362 ) ;
#391 = VERTEX_POINT ( 'NONE', #844 ) ;
#392 = AXIS2_PLACEMENT_3D ( 'NONE', #668, #987, #625 ) ;
#393 = PLANE ( 'NONE',  #61 ) ;
#394 = ORIENTED_EDGE ( 'NONE', *, *, #703, .F. ) ;
#395 = DIRECTION ( 'NONE',  ( 0.000000000000000000, 0.000000000000000000, -1.000000000000000000 ) ) ;
#396 = ORIENTED_EDGE ( 'NONE', *, *, #486, .F. ) ;
#397 = DIRECTION ( 'NONE',  ( 0.000000000000000000, 0.000000000000000000, 1.000000000000000000 ) ) ;
#398 = ORIENTED_EDGE ( 'NONE', *, *, #51, .T. ) ;
#399 = FACE_OUTER_BOUND ( 'NONE', #1024, .T. ) ;
#400 = CARTESIAN_POINT ( 'NONE',  ( -28.23285297260055771, 2.000000000000000000, -7.341622238081671803 ) ) ;
#401 = ORIENTED_EDGE ( 'NONE', *, *, #18, .F. ) ;
#402 = EDGE_CURVE ( 'NONE', #499, #614, #100, .T. ) ;
#403 = CARTESIAN_POINT ( 'NONE',  ( -28.23285297260055771, 2.000000000000000000, 2.658377761918328197 ) ) ;
#404 = AXIS2_PLACEMENT_3D ( 'NONE', #492, #588, #1136 ) ;
#405 = CARTESIAN_POINT ( 'NONE',  ( 21.76714702739940321, 10.00000000000000178, 4.657086116669629128 ) ) ;
#406 = AXIS2_PLACEMENT_3D ( 'NONE', #708, #715, #149 ) ;
#407 = FACE_OUTER_BOUND ( 'NONE', #849, .T. ) ;
#408 = CARTESIAN_POINT ( 'NONE',  ( -98.23285297260059679, 7.699999999999997513, 31.05837776191829391 ) ) ;
#409 = AXIS2_PLACEMENT_3D ( 'NONE', #1140, #323, #872 ) ;
#410 = CARTESIAN_POINT ( 'NONE',  ( -49.23285297260063231, 10.00000000000000000, -2.341622238081753959 ) ) ;
#411 = ADVANCED_FACE ( 'NONE', ( #855 ), #50, .F. ) ;
#412 = LINE ( 'NONE', #145, #385 ) ;
#413 = DIRECTION ( 'NONE',  ( 0.000000000000000000, 1.000000000000000000, -0.000000000000000000 ) ) ;
#414 = CARTESIAN_POINT ( 'NONE',  ( 141.7671470273994032, 2.000000000000000000, 28.65837776191829533 ) ) ;
#415 = FACE_OUTER_BOUND ( 'NONE', #454, .T. ) ;
#416 = CARTESIAN_POINT ( 'NONE',  ( 21.76714702739940321, 10.00000000000000000, 4.657086116669629128 ) ) ;
#417 = ADVANCED_FACE ( 'NONE', ( #230 ), #32, .F. ) ;
#418 = LINE ( 'NONE', #768, #650 ) ;
#419 = DIRECTION ( 'NONE',  ( 0.000000000000000000, 1.000000000000000000, 0.000000000000000000 ) ) ;
#420 = ORIENTED_EDGE ( 'NONE', *, *, #528, .T. ) ;
#421 = CARTESIAN_POINT ( 'NONE',  ( 111.7671470273993464, 0.000000000000000000, 2.658377761918324644 ) ) ;
#422 = VECTOR ( 'NONE', #1143, 1000.000000000000000 ) ;
#423 = DIRECTION ( 'NONE',  ( -0.000000000000000000, 1.000000000000000000, -0.000000000000000000 ) ) ;
#424 = VECTOR ( 'NONE', #250, 1000.000000000000000 ) ;
#425 = DIRECTION ( 'NONE',  ( 8.659560562354969836E-17, 0.7071067811865444641, -0.7071067811865505703 ) ) ;
#426 = ORIENTED_EDGE ( 'NONE', *, *, #45, .T. ) ;
#427 = EDGE_CURVE ( 'NONE', #846, #1002, #1102, .T. ) ;
#428 = LINE ( 'NONE', #952, #85 ) ;
#429 = CARTESIAN_POINT ( 'NONE',  ( -129.2328529726005684, 10.00000000000000000, -0.3416222380816946735 ) ) ;
#430 = CARTESIAN_POINT ( 'NONE',  ( 130.7671470273993748, 0.000000000000000000, -24.34162223808174730 ) ) ;
#431 = ORIENTED_EDGE ( 'NONE', *, *, #717, .T. ) ;
#432 = FACE_BOUND ( 'NONE', #456, .T. ) ;
#433 = LINE ( 'NONE', #513, #895 ) ;
#434 = FACE_OUTER_BOUND ( 'NONE', #1158, .T. ) ;
#435 = DIRECTION ( 'NONE',  ( 0.000000000000000000, 0.7071067811865482389, 0.7071067811865469066 ) ) ;
#436 = ORIENTED_EDGE ( 'NONE', *, *, #713, .T. ) ;
#437 = CARTESIAN_POINT ( 'NONE',  ( -127.2328529726005684, 0.000000000000000000, 59.65837776191827402 ) ) ;
#438 = ORIENTED_EDGE ( 'NONE', *, *, #90, .T. ) ;
#439 = LINE ( 'NONE', #75, #833 ) ;
#440 = PLANE ( 'NONE',  #383 ) ;
#441 = LINE ( 'NONE', #525, #1050 ) ;
#442 = VERTEX_POINT ( 'NONE', #331 ) ;
#443 = CARTESIAN_POINT ( 'NONE',  ( -124.2328529726005542, 2.000000000000000000, 2.658377761918323756 ) ) ;
#444 = AXIS2_PLACEMENT_3D ( 'NONE', #1031, #508, #397 ) ;
#445 = VECTOR ( 'NONE', #932, 1000.000000000000000 ) ;
#446 = CARTESIAN_POINT ( 'NONE',  ( -47.23285297260061810, 0.000000000000000000, -26.34162223808174730 ) ) ;
#447 = AXIS2_PLACEMENT_3D ( 'NONE', #335, #603, #54 ) ;
#448 = EDGE_LOOP ( 'NONE', ( #181, #908, #931, #258 ) ) ;
#449 = DIRECTION ( 'NONE',  ( -0.000000000000000000, 1.000000000000000000, -0.000000000000000000 ) ) ;
#450 = ORIENTED_EDGE ( 'NONE', *, *, #811, .T. ) ;
#451 = CARTESIAN_POINT ( 'NONE',  ( 172.7671470273993464, 0.000000000000000000, 57.65837776191821717 ) ) ;
#452 = ORIENTED_EDGE ( 'NONE', *, *, #126, .F. ) ;
#453 = DIRECTION ( 'NONE',  ( 0.000000000000000000, -1.000000000000000000, 0.000000000000000000 ) ) ;
#454 = EDGE_LOOP ( 'NONE', ( #633, #199, #86, #273 ) ) ;
#455 = DIRECTION ( 'NONE',  ( 0.000000000000000000, 0.000000000000000000, 1.000000000000000000 ) ) ;
#456 = EDGE_LOOP ( 'NONE', ( #564, #245 ) ) ;
#457 = SURFACE_STYLE_USAGE ( .BOTH. , #8 ) ;
#458 = ADVANCED_FACE ( 'NONE', ( #502 ), #324, .F. ) ;
#459 = VECTOR ( 'NONE', #1084, 1000.000000000000000 ) ;
#460 = ORIENTED_EDGE ( 'NONE', *, *, #623, .F. ) ;
#461 = DIRECTION ( 'NONE',  ( 0.000000000000000000, 0.000000000000000000, 1.000000000000000000 ) ) ;
#462 = ORIENTED_EDGE ( 'NONE', *, *, #592, .T. ) ;
#463 = CARTESIAN_POINT ( 'NONE',  ( 132.7671470273993748, 10.00000000000000000, -24.34162223808173309 ) ) ;
#464 = AXIS2_PLACEMENT_3D ( 'NONE', #487, #847, #34 ) ;
#465 = VERTEX_POINT ( 'NONE', #943 ) ;
#466 = ADVANCED_FACE ( 'NONE', ( #415 ), #691, .F. ) ;
#467 = DIRECTION ( 'NONE',  ( -1.397092732330314826E-16, 0.000000000000000000, -1.000000000000000000 ) ) ;
#468 = VERTEX_POINT ( 'NONE', #770 ) ;
#469 = ORIENTED_EDGE ( 'NONE', *, *, #1019, .F. ) ;
#470 = LINE ( 'NONE', #998, #498 ) ;
#471 = EDGE_CURVE ( 'NONE', #962, #657, #850, .T. ) ;
#472 = ORIENTED_EDGE ( 'NONE', *, *, #211, .F. ) ;
#473 = PRESENTATION_STYLE_ASSIGNMENT (( #457 ) ) ;
#474 = EDGE_LOOP ( 'NONE', ( #208, #825, #482, #722 ) ) ;
#475 = AXIS2_PLACEMENT_3D ( 'NONE', #829, #1003, #282 ) ;
#476 = AXIS2_PLACEMENT_3D ( 'NONE', #984, #802, #63 ) ;
#477 = FACE_OUTER_BOUND ( 'NONE', #102, .T. ) ;
#478 = ORIENTED_EDGE ( 'NONE', *, *, #388, .F. ) ;
#479 = AXIS2_PLACEMENT_3D ( 'NONE', #518, #982, #175 ) ;
#480 = DIRECTION ( 'NONE',  ( 0.000000000000000000, 0.000000000000000000, 1.000000000000000000 ) ) ;
#481 =( GEOMETRIC_REPRESENTATION_CONTEXT ( 3 ) GLOBAL_UNCERTAINTY_ASSIGNED_CONTEXT ( ( #1054 ) ) GLOBAL_UNIT_ASSIGNED_CONTEXT ( ( #292, #26, #375 ) ) REPRESENTATION_CONTEXT ( 'NONE', 'WORKASPACE' ) );
#482 = ORIENTED_EDGE ( 'NONE', *, *, #243, .T. ) ;
#483 =( GEOMETRIC_REPRESENTATION_CONTEXT ( 3 ) GLOBAL_UNCERTAINTY_ASSIGNED_CONTEXT ( ( #601 ) ) GLOBAL_UNIT_ASSIGNED_CONTEXT ( ( #1162, #792, #173 ) ) REPRESENTATION_CONTEXT ( 'NONE', 'WORKASPACE' ) );
#484 = CYLINDRICAL_SURFACE ( 'NONE', #1160, 2.000000000000015543 ) ;
#485 = ORIENTED_EDGE ( 'NONE', *, *, #672, .T. ) ;
#486 = EDGE_CURVE ( 'NONE', #883, #309, #752, .T. ) ;
#487 = CARTESIAN_POINT ( 'NONE',  ( -47.23285297260061810, 10.00000000000000000, -26.34162223808174730 ) ) ;
#488 = EDGE_CURVE ( 'NONE', #465, #376, #1052, .T. ) ;
#489 = CARTESIAN_POINT ( 'NONE',  ( -124.2328529726005542, 0.000000000000000000, 54.65837776191828112 ) ) ;
#490 = ORIENTED_EDGE ( 'NONE', *, *, #688, .F. ) ;
#491 = DIRECTION ( 'NONE',  ( -4.785444071660161888E-16, -0.000000000000000000, 1.000000000000000000 ) ) ;
#492 = CARTESIAN_POINT ( 'NONE',  ( -98.23285297260059679, 2.000000000000000000, 28.65837776191829533 ) ) ;
#493 = LINE ( 'NONE', #1128, #1166 ) ;
#494 = CARTESIAN_POINT ( 'NONE',  ( -129.2328529726005968, 10.00000000000000000, 57.65837776191825981 ) ) ;
#495 = ADVANCED_FACE ( 'NONE', ( #124 ), #484, .T. ) ;
#496 = ORIENTED_EDGE ( 'NONE', *, *, #711, .F. ) ;
#497 = DIRECTION ( 'NONE',  ( -0.000000000000000000, 1.000000000000000000, -0.000000000000000000 ) ) ;
#498 = VECTOR ( 'NONE', #191, 1000.000000000000000 ) ;
#499 = VERTEX_POINT ( 'NONE', #663 ) ;
#500 = CARTESIAN_POINT ( 'NONE',  ( 141.7671470273994032, 10.00000000000000178, 33.35837776191829818 ) ) ;
#501 = CARTESIAN_POINT ( 'NONE',  ( 111.7671470273993464, 2.000000000000000000, 2.658377761918324644 ) ) ;
#502 = FACE_OUTER_BOUND ( 'NONE', #1014, .T. ) ;
#503 = EDGE_CURVE ( 'NONE', #376, #1152, #1026, .T. ) ;
#504 = DIRECTION ( 'NONE',  ( -1.095614826932720052E-15, 0.000000000000000000, 1.000000000000000000 ) ) ;
#505 = DIRECTION ( 'NONE',  ( -0.000000000000000000, -0.000000000000000000, 1.000000000000000000 ) ) ;
#506 = DIRECTION ( 'NONE',  ( 0.000000000000000000, 0.000000000000000000, 1.000000000000000000 ) ) ;
#507 = PRODUCT_RELATED_PRODUCT_CATEGORY ( 'part', '', ( #223 ) ) ;
#508 = DIRECTION ( 'NONE',  ( -0.000000000000000000, 1.000000000000000000, 0.000000000000000000 ) ) ;
#509 = ADVANCED_FACE ( 'NONE', ( #574 ), #580, .F. ) ;
#510 = EDGE_LOOP ( 'NONE', ( #401, #1088, #37, #1082 ) ) ;
#511 = CARTESIAN_POINT ( 'NONE',  ( 21.76714702739940321, 10.00000000000000178, 4.657086116669629128 ) ) ;
#512 = DIRECTION ( 'NONE',  ( -0.000000000000000000, 1.000000000000000000, 0.000000000000000000 ) ) ;
#513 = CARTESIAN_POINT ( 'NONE',  ( -47.23285297260061810, 10.00000000000000000, -26.34162223808174730 ) ) ;
#514 = DIRECTION ( 'NONE',  ( 0.000000000000000000, 0.000000000000000000, 1.000000000000000000 ) ) ;
#515 = VECTOR ( 'NONE', #647, 1000.000000000000000 ) ;
#516 = ORIENTED_EDGE ( 'NONE', *, *, #83, .F. ) ;
#517 = CIRCLE ( 'NONE', #1122, 2.399999999999999467 ) ;
#518 = CARTESIAN_POINT ( 'NONE',  ( 170.7671470273993748, 0.000000000000000000, 57.65837776191821717 ) ) ;
#519 = VECTOR ( 'NONE', #578, 1000.000000000000000 ) ;
#520 = VECTOR ( 'NONE', #1165, 1000.000000000000000 ) ;
#521 = ORIENTED_EDGE ( 'NONE', *, *, #631, .F. ) ;
#522 = DIRECTION ( 'NONE',  ( -1.000000000000000000, -0.000000000000000000, -0.000000000000000000 ) ) ;
#523 = AXIS2_PLACEMENT_3D ( 'NONE', #511, #779, #940 ) ;
#524 = DIRECTION ( 'NONE',  ( 0.000000000000000000, 0.000000000000000000, 1.000000000000000000 ) ) ;
#525 = CARTESIAN_POINT ( 'NONE',  ( 167.7671470273993464, 2.000000000000000000, 2.658377761918323756 ) ) ;
#526 = ORIENTED_EDGE ( 'NONE', *, *, #488, .F. ) ;
#527 = DIRECTION ( 'NONE',  ( -0.000000000000000000, -1.000000000000000000, -0.000000000000000000 ) ) ;
#528 = EDGE_CURVE ( 'NONE', #997, #690, #1130, .T. ) ;
#529 = CARTESIAN_POINT ( 'NONE',  ( 21.76714702739940321, 10.00000000000000178, 9.357086116669629305 ) ) ;
#530 = CARTESIAN_POINT ( 'NONE',  ( 167.7671470273993464, 2.000000000000000000, 54.65837776191832376 ) ) ;
#531 = ORIENTED_EDGE ( 'NONE', *, *, #402, .T. ) ;
#532 = CARTESIAN_POINT ( 'NONE',  ( -47.23285297260061810, 10.00000000000000000, -26.34162223808174730 ) ) ;
#533 = EDGE_CURVE ( 'NONE', #970, #1002, #349, .T. ) ;
#534 = CARTESIAN_POINT ( 'NONE',  ( 141.7671470273994032, 10.00000000000000178, 33.35837776191829818 ) ) ;
#535 = DIRECTION ( 'NONE',  ( 0.000000000000000000, 0.000000000000000000, 1.000000000000000000 ) ) ;
#536 = ORIENTED_EDGE ( 'NONE', *, *, #1007, .F. ) ;
#537 = AXIS2_PLACEMENT_3D ( 'NONE', #733, #378, #205 ) ;
#538 = LINE ( 'NONE', #532, #520 ) ;
#539 = CIRCLE ( 'NONE', #42, 1.999999999999988010 ) ;
#540 = VERTEX_POINT ( 'NONE', #702 ) ;
#541 = CIRCLE ( 'NONE', #351, 2.000000000000001776 ) ;
#542 = EDGE_LOOP ( 'NONE', ( #531, #462 ) ) ;
#543 = DIRECTION ( 'NONE',  ( -1.000000000000000000, -0.000000000000000000, 7.450414928874752641E-16 ) ) ;
#544 = ORIENTED_EDGE ( 'NONE', *, *, #545, .T. ) ;
#545 = EDGE_CURVE ( 'NONE', #1101, #705, #439, .T. ) ;
#546 = ORIENTED_EDGE ( 'NONE', *, *, #557, .T. ) ;
#547 = DIRECTION ( 'NONE',  ( 1.000000000000000000, -0.000000000000000000, -1.397092732330314826E-16 ) ) ;
#548 = EDGE_LOOP ( 'NONE', ( #275, #597, #197, #926 ) ) ;
#549 = FACE_OUTER_BOUND ( 'NONE', #448, .T. ) ;
#550 = VERTEX_POINT ( 'NONE', #790 ) ;
#551 = AXIS2_PLACEMENT_3D ( 'NONE', #1032, #864, #1027 ) ;
#552 = AXIS2_PLACEMENT_3D ( 'NONE', #1112, #196, #278 ) ;
#553 = ORIENTED_EDGE ( 'NONE', *, *, #533, .F. ) ;
#554 = CYLINDRICAL_SURFACE ( 'NONE', #893, 1.999999999999987121 ) ;
#555 = ORIENTED_EDGE ( 'NONE', *, *, #615, .T. ) ;
#556 = FACE_OUTER_BOUND ( 'NONE', #474, .T. ) ;
#557 = EDGE_CURVE ( 'NONE', #1171, #1095, #338, .T. ) ;
#558 = ORIENTED_EDGE ( 'NONE', *, *, #264, .F. ) ;
#559 = FACE_OUTER_BOUND ( 'NONE', #879, .T. ) ;
#560 = ORIENTED_EDGE ( 'NONE', *, *, #45, .F. ) ;
#561 = CYLINDRICAL_SURFACE ( 'NONE', #122, 2.000000000000001776 ) ;
#562 = ORIENTED_EDGE ( 'NONE', *, *, #1025, .F. ) ;
#563 = DIRECTION ( 'NONE',  ( -0.000000000000000000, -1.000000000000000000, -0.000000000000000000 ) ) ;
#564 = ORIENTED_EDGE ( 'NONE', *, *, #163, .F. ) ;
#565 = FACE_OUTER_BOUND ( 'NONE', #214, .T. ) ;
#566 = VERTEX_POINT ( 'NONE', #1065 ) ;
#567 = CIRCLE ( 'NONE', #552, 2.000000000000001776 ) ;
#568 = DIRECTION ( 'NONE',  ( -0.000000000000000000, 1.000000000000000000, -0.000000000000000000 ) ) ;
#569 = ORIENTED_EDGE ( 'NONE', *, *, #1137, .F. ) ;
#570 = VECTOR ( 'NONE', #787, 1000.000000000000000 ) ;
#571 = PLANE ( 'NONE',  #464 ) ;
#572 = VECTOR ( 'NONE', #327, 1000.000000000000000 ) ;
#573 = ORIENTED_EDGE ( 'NONE', *, *, #983, .T. ) ;
#574 = FACE_OUTER_BOUND ( 'NONE', #732, .T. ) ;
#575 = FACE_OUTER_BOUND ( 'NONE', #27, .T. ) ;
#576 = EDGE_CURVE ( 'NONE', #935, #1167, #1154, .T. ) ;
#577 = LINE ( 'NONE', #322, #572 ) ;
#578 = DIRECTION ( 'NONE',  ( -0.000000000000000000, 1.000000000000000000, -0.000000000000000000 ) ) ;
#579 = VERTEX_POINT ( 'NONE', #529 ) ;
#580 = CYLINDRICAL_SURFACE ( 'NONE', #1104, 2.399999999999999467 ) ;
#581 = CARTESIAN_POINT ( 'NONE',  ( 167.7671470273993464, 0.000000000000000000, 2.658377761918323756 ) ) ;
#582 = DIRECTION ( 'NONE',  ( 0.000000000000000000, 0.000000000000000000, 1.000000000000000000 ) ) ;
#583 = ADVANCED_FACE ( 'NONE', ( #1159 ), #796, .F. ) ;
#584 = DIRECTION ( 'NONE',  ( -0.000000000000000000, 1.000000000000000000, -0.000000000000000000 ) ) ;
#585 = EDGE_CURVE ( 'NONE', #1008, #903, #886, .T. ) ;
#586 = LINE ( 'NONE', #862, #966 ) ;
#587 = VECTOR ( 'NONE', #968, 1000.000000000000000 ) ;
#588 = DIRECTION ( 'NONE',  ( -0.000000000000000000, 1.000000000000000000, 0.000000000000000000 ) ) ;
#589 = DIRECTION ( 'NONE',  ( -1.000000000000000000, -0.000000000000000000, 7.450414928874752641E-16 ) ) ;
#590 = AXIS2_PLACEMENT_3D ( 'NONE', #1120, #584, #506 ) ;
#591 = CARTESIAN_POINT ( 'NONE',  ( -124.2328529726005542, 2.000000000000000000, 2.658377761918323756 ) ) ;
#592 = EDGE_CURVE ( 'NONE', #614, #499, #6, .T. ) ;
#593 = DIRECTION ( 'NONE',  ( -0.000000000000000000, 1.000000000000000000, -0.000000000000000000 ) ) ;
#594 = PLANE ( 'NONE',  #212 ) ;
#595 = CARTESIAN_POINT ( 'NONE',  ( -98.23285297260059679, 2.000000000000000000, 31.05837776191829391 ) ) ;
#596 = CARTESIAN_POINT ( 'NONE',  ( -124.2328529726005542, 2.000000000000000000, 54.65837776191828112 ) ) ;
#597 = ORIENTED_EDGE ( 'NONE', *, *, #74, .F. ) ;
#598 = DIRECTION ( 'NONE',  ( 0.000000000000000000, 0.7071067811865444641, 0.7071067811865505703 ) ) ;
#599 = EDGE_CURVE ( 'NONE', #185, #566, #433, .T. ) ;
#600 = ORIENTED_EDGE ( 'NONE', *, *, #1137, .T. ) ;
#601 = UNCERTAINTY_MEASURE_WITH_UNIT (LENGTH_MEASURE( 1.000000000000000082E-05 ), #1162, 'distance_accuracy_value', 'NONE');
#602 = EDGE_LOOP ( 'NONE', ( #426, #642 ) ) ;
#603 = DIRECTION ( 'NONE',  ( 0.000000000000000000, 1.000000000000000000, -0.000000000000000000 ) ) ;
#604 = DIRECTION ( 'NONE',  ( -0.000000000000000000, -1.000000000000000000, -0.000000000000000000 ) ) ;
#605 = LINE ( 'NONE', #1073, #515 ) ;
#606 = ORIENTED_EDGE ( 'NONE', *, *, #599, .T. ) ;
#607 = VECTOR ( 'NONE', #687, 1000.000000000000000 ) ;
#608 = CIRCLE ( 'NONE', #776, 2.399999999999985256 ) ;
#609 = FACE_BOUND ( 'NONE', #774, .T. ) ;
#610 = AXIS2_PLACEMENT_3D ( 'NONE', #1153, #270, #340 ) ;
#611 = FACE_OUTER_BOUND ( 'NONE', #780, .T. ) ;
#612 = AXIS2_PLACEMENT_3D ( 'NONE', #956, #413, #142 ) ;
#613 = DIRECTION ( 'NONE',  ( 0.000000000000000000, 0.000000000000000000, 1.000000000000000000 ) ) ;
#614 = VERTEX_POINT ( 'NONE', #618 ) ;
#615 = EDGE_CURVE ( 'NONE', #540, #550, #79, .T. ) ;
#616 = LINE ( 'NONE', #896, #570 ) ;
#617 = VERTEX_POINT ( 'NONE', #873 ) ;
#618 = CARTESIAN_POINT ( 'NONE',  ( 21.76714702739940321, 2.000000000000000000, 2.257086116669629661 ) ) ;
#619 = LINE ( 'NONE', #985, #728 ) ;
#620 = VERTEX_POINT ( 'NONE', #266 ) ;
#621 = PLANE ( 'NONE',  #479 ) ;
#622 = ADVANCED_FACE ( 'NONE', ( #880 ), #342, .F. ) ;
#623 = EDGE_CURVE ( 'NONE', #962, #1105, #965, .T. ) ;
#624 = CARTESIAN_POINT ( 'NONE',  ( -124.2328529726005542, 0.000000000000000000, 2.658377761918323756 ) ) ;
#625 = DIRECTION ( 'NONE',  ( 0.000000000000000000, 0.000000000000000000, 1.000000000000000000 ) ) ;
#626 = ORIENTED_EDGE ( 'NONE', *, *, #947, .T. ) ;
#627 = CIRCLE ( 'NONE', #537, 4.700000000000006395 ) ;
#628 = VECTOR ( 'NONE', #1127, 1000.000000000000000 ) ;
#629 = LINE ( 'NONE', #706, #689 ) ;
#630 = ORIENTED_EDGE ( 'NONE', *, *, #1042, .F. ) ;
#631 = EDGE_CURVE ( 'NONE', #657, #279, #1150, .T. ) ;
#632 = AXIS2_PLACEMENT_3D ( 'NONE', #826, #240, #685 ) ;
#633 = ORIENTED_EDGE ( 'NONE', *, *, #680, .F. ) ;
#634 = DIRECTION ( 'NONE',  ( 0.000000000000000000, 0.000000000000000000, -1.000000000000000000 ) ) ;
#635 = EDGE_LOOP ( 'NONE', ( #626, #1057, #638, #358 ) ) ;
#636 = ADVANCED_FACE ( 'NONE', ( #611 ), #165, .T. ) ;
#637 = CARTESIAN_POINT ( 'NONE',  ( 132.7671470273993748, 10.00000000000000000, -2.341622238081750407 ) ) ;
#638 = ORIENTED_EDGE ( 'NONE', *, *, #1089, .F. ) ;
#639 = CARTESIAN_POINT ( 'NONE',  ( -28.23285297260055771, 0.000000000000000000, 2.658377761918328197 ) ) ;
#640 = EDGE_LOOP ( 'NONE', ( #286, #630, #490, #89, #734, #1079, #469, #1111, #670, #745, #716, #76, #496, #748 ) ) ;
#641 = DIRECTION ( 'NONE',  ( 0.000000000000000000, 0.000000000000000000, 1.000000000000000000 ) ) ;
#642 = ORIENTED_EDGE ( 'NONE', *, *, #176, .T. ) ;
#643 = EDGE_CURVE ( 'NONE', #659, #700, #70, .T. ) ;
#644 = LINE ( 'NONE', #907, #782 ) ;
#645 = ORIENTED_EDGE ( 'NONE', *, *, #599, .F. ) ;
#646 = VECTOR ( 'NONE', #604, 1000.000000000000000 ) ;
#647 = DIRECTION ( 'NONE',  ( -0.000000000000000000, -1.000000000000000000, -0.000000000000000000 ) ) ;
#648 = AXIS2_PLACEMENT_3D ( 'NONE', #749, #104, #480 ) ;
#649 = ORIENTED_EDGE ( 'NONE', *, *, #678, .F. ) ;
#650 = VECTOR ( 'NONE', #1034, 1000.000000000000000 ) ;
#651 = DIRECTION ( 'NONE',  ( -0.000000000000000000, -1.000000000000000000, -0.000000000000000000 ) ) ;
#652 = EDGE_CURVE ( 'NONE', #655, #382, #328, .T. ) ;
#653 = ORIENTED_EDGE ( 'NONE', *, *, #198, .F. ) ;
#654 = FACE_OUTER_BOUND ( 'NONE', #1163, .T. ) ;
#655 = VERTEX_POINT ( 'NONE', #769 ) ;
#656 = DIRECTION ( 'NONE',  ( -2.323290369611795744E-17, 0.000000000000000000, -1.000000000000000000 ) ) ;
#657 = VERTEX_POINT ( 'NONE', #494 ) ;
#658 = CARTESIAN_POINT ( 'NONE',  ( 141.7671470273994032, 10.00000000000000178, 28.65837776191829533 ) ) ;
#659 = VERTEX_POINT ( 'NONE', #408 ) ;
#660 = LINE ( 'NONE', #1048, #1087 ) ;
#661 = EDGE_LOOP ( 'NONE', ( #813, #281, #562, #555 ) ) ;
#662 = VECTOR ( 'NONE', #818, 1000.000000000000000 ) ;
#663 = CARTESIAN_POINT ( 'NONE',  ( 21.76714702739940321, 2.000000000000000000, 7.057086116669628595 ) ) ;
#664 = EDGE_CURVE ( 'NONE', #697, #935, #675, .T. ) ;
#665 = CARTESIAN_POINT ( 'NONE',  ( -127.2328529726005968, 0.000000000000000000, -0.3416222380816950621 ) ) ;
#666 = AXIS2_PLACEMENT_3D ( 'NONE', #1147, #848, #132 ) ;
#667 = AXIS2_PLACEMENT_3D ( 'NONE', #73, #347, #355 ) ;
#668 = CARTESIAN_POINT ( 'NONE',  ( -98.23285297260059679, 10.00000000000000178, 28.65837776191829533 ) ) ;
#669 = FACE_BOUND ( 'NONE', #542, .T. ) ;
#670 = ORIENTED_EDGE ( 'NONE', *, *, #585, .F. ) ;
#671 = DIRECTION ( 'NONE',  ( -0.000000000000000000, -1.000000000000000000, -0.000000000000000000 ) ) ;
#672 = EDGE_CURVE ( 'NONE', #736, #371, #103, .T. ) ;
#673 = LINE ( 'NONE', #1045, #628 ) ;
#674 = DIRECTION ( 'NONE',  ( 0.000000000000000000, 0.000000000000000000, 1.000000000000000000 ) ) ;
#675 = LINE ( 'NONE', #1056, #607 ) ;
#676 = CARTESIAN_POINT ( 'NONE',  ( 111.7671470273993464, 2.000000000000000000, -7.341622238081675356 ) ) ;
#677 = LINE ( 'NONE', #1117, #137 ) ;
#678 = EDGE_CURVE ( 'NONE', #871, #935, #946, .T. ) ;
#679 = CARTESIAN_POINT ( 'NONE',  ( 141.7671470273994032, 10.00000000000000178, 23.95837776191828539 ) ) ;
#680 = EDGE_CURVE ( 'NONE', #614, #997, #764, .T. ) ;
#681 = DIRECTION ( 'NONE',  ( 0.000000000000000000, 0.000000000000000000, 1.000000000000000000 ) ) ;
#682 = CARTESIAN_POINT ( 'NONE',  ( -127.2328529726005968, 10.00000000000000000, -2.341622238081695784 ) ) ;
#683 = AXIS2_PLACEMENT_3D ( 'NONE', #21, #467, #95 ) ;
#684 = ORIENTED_EDGE ( 'NONE', *, *, #1170, .T. ) ;
#685 = DIRECTION ( 'NONE',  ( 0.000000000000000000, 0.000000000000000000, 1.000000000000000000 ) ) ;
#686 = AXIS2_PLACEMENT_3D ( 'NONE', #974, #248, #157 ) ;
#687 = DIRECTION ( 'NONE',  ( -0.000000000000000000, -0.000000000000000000, -1.000000000000000000 ) ) ;
#688 = EDGE_CURVE ( 'NONE', #279, #786, #897, .T. ) ;
#689 = VECTOR ( 'NONE', #169, 1000.000000000000000 ) ;
#690 = VERTEX_POINT ( 'NONE', #783 ) ;
#691 = CYLINDRICAL_SURFACE ( 'NONE', #25, 2.399999999999999467 ) ;
#692 = CARTESIAN_POINT ( 'NONE',  ( -98.23285297260059679, 7.699999999999997513, 26.25837776191829676 ) ) ;
#693 = APPLICATION_PROTOCOL_DEFINITION ( 'draft international standard', 'automotive_design', 1998, #845 ) ;
#694 = ORIENTED_EDGE ( 'NONE', *, *, #592, .F. ) ;
#695 = DIRECTION ( 'NONE',  ( -0.000000000000000000, 1.000000000000000000, 0.000000000000000000 ) ) ;
#696 = ADVANCED_FACE ( 'NONE', ( #229 ), #1046, .F. ) ;
#697 = VERTEX_POINT ( 'NONE', #489 ) ;
#698 = CARTESIAN_POINT ( 'NONE',  ( -129.2328529726005968, 10.00000000000000000, 57.65837776191825981 ) ) ;
#699 = DIRECTION ( 'NONE',  ( -0.000000000000000000, 1.000000000000000000, -0.000000000000000000 ) ) ;
#700 = VERTEX_POINT ( 'NONE', #60 ) ;
#701 = CARTESIAN_POINT ( 'NONE',  ( 167.7671470273993464, 2.000000000000000000, 54.65837776191832376 ) ) ;
#702 = CARTESIAN_POINT ( 'NONE',  ( -49.23285297260063231, 10.00000000000000000, -24.34162223808173309 ) ) ;
#703 = EDGE_CURVE ( 'NONE', #992, #1156, #428, .T. ) ;
#704 = CARTESIAN_POINT ( 'NONE',  ( 167.7671470273993464, 2.000000000000000000, 2.658377761918323756 ) ) ;
#705 = VERTEX_POINT ( 'NONE', #773 ) ;
#706 = CARTESIAN_POINT ( 'NONE',  ( 170.7671470273993748, 10.00000000000000000, -2.341622238081709551 ) ) ;
#707 = AXIS2_PLACEMENT_3D ( 'NONE', #87, #800, #1071 ) ;
#708 = CARTESIAN_POINT ( 'NONE',  ( 172.7671470273993748, 10.00000000000000000, -0.3416222380817088844 ) ) ;
#709 = AXIS2_PLACEMENT_3D ( 'NONE', #216, #1038, #674 ) ;
#710 = CARTESIAN_POINT ( 'NONE',  ( -28.23285297260055771, 2.000000000000000000, 2.658377761918328197 ) ) ;
#711 = EDGE_CURVE ( 'NONE', #123, #807, #835, .T. ) ;
#712 = ORIENTED_EDGE ( 'NONE', *, *, #90, .F. ) ;
#713 = EDGE_CURVE ( 'NONE', #376, #442, #755, .T. ) ;
#714 = CARTESIAN_POINT ( 'NONE',  ( 141.7671470273994032, 10.00000000000000178, 23.95837776191828539 ) ) ;
#715 = DIRECTION ( 'NONE',  ( -1.000000000000000000, 0.000000000000000000, -4.785444071660163860E-16 ) ) ;
#716 = ORIENTED_EDGE ( 'NONE', *, *, #545, .F. ) ;
#717 = EDGE_CURVE ( 'NONE', #128, #697, #853, .T. ) ;
#718 = PLANE ( 'NONE',  #839 ) ;
#719 = EDGE_CURVE ( 'NONE', #566, #540, #541, .T. ) ;
#720 = ORIENTED_EDGE ( 'NONE', *, *, #643, .F. ) ;
#721 = CARTESIAN_POINT ( 'NONE',  ( 130.7671470273993748, 10.00000000000000000, -26.34162223808175085 ) ) ;
#722 = ORIENTED_EDGE ( 'NONE', *, *, #291, .F. ) ;
#723 = VECTOR ( 'NONE', #200, 1000.000000000000000 ) ;
#724 = CARTESIAN_POINT ( 'NONE',  ( 141.7671470273994032, 7.699999999999997513, 28.65837776191829533 ) ) ;
#725 = VECTOR ( 'NONE', #1035, 1000.000000000000000 ) ;
#726 = EDGE_CURVE ( 'NONE', #997, #391, #1125, .T. ) ;
#727 = ORIENTED_EDGE ( 'NONE', *, *, #471, .T. ) ;
#728 = VECTOR ( 'NONE', #1174, 1000.000000000000000 ) ;
#729 = CARTESIAN_POINT ( 'NONE',  ( -28.23285297260055771, 2.000000000000000000, 2.658377761918328197 ) ) ;
#730 = ORIENTED_EDGE ( 'NONE', *, *, #672, .F. ) ;
#731 = FACE_OUTER_BOUND ( 'NONE', #1085, .T. ) ;
#732 = EDGE_LOOP ( 'NONE', ( #277, #560, #843, #374 ) ) ;
#733 = CARTESIAN_POINT ( 'NONE',  ( 141.7671470273994032, 10.00000000000000178, 28.65837776191829533 ) ) ;
#734 = ORIENTED_EDGE ( 'NONE', *, *, #209, .F. ) ;
#735 = DIRECTION ( 'NONE',  ( -0.000000000000000000, -1.000000000000000000, -0.000000000000000000 ) ) ;
#736 = VERTEX_POINT ( 'NONE', #312 ) ;
#737 = LINE ( 'NONE', #637, #155 ) ;
#738 = EDGE_CURVE ( 'NONE', #920, #617, #9, .T. ) ;
#739 = ORIENTED_EDGE ( 'NONE', *, *, #804, .F. ) ;
#740 = CARTESIAN_POINT ( 'NONE',  ( 111.7671470273993464, 2.000000000000000000, 2.658377761918324644 ) ) ;
#741 = CIRCLE ( 'NONE', #1023, 2.399999999999985256 ) ;
#742 = ORIENTED_EDGE ( 'NONE', *, *, #726, .F. ) ;
#743 = DIRECTION ( 'NONE',  ( -0.000000000000000000, -1.000000000000000000, -0.000000000000000000 ) ) ;
#744 = VECTOR ( 'NONE', #860, 1000.000000000000000 ) ;
#745 = ORIENTED_EDGE ( 'NONE', *, *, #228, .F. ) ;
#746 = ORIENTED_EDGE ( 'NONE', *, *, #170, .F. ) ;
#747 = DIRECTION ( 'NONE',  ( -0.000000000000000000, -1.000000000000000000, -0.000000000000000000 ) ) ;
#748 = ORIENTED_EDGE ( 'NONE', *, *, #352, .F. ) ;
#749 = CARTESIAN_POINT ( 'NONE',  ( 21.76714702739940321, 10.00000000000000178, 4.657086116669629128 ) ) ;
#750 = ADVANCED_FACE ( 'NONE', ( #669, #963, #35, #234 ), #1129, .F. ) ;
#751 = ORIENTED_EDGE ( 'NONE', *, *, #178, .T. ) ;
#752 = LINE ( 'NONE', #1135, #760 ) ;
#753 = CARTESIAN_POINT ( 'NONE',  ( 170.7671470273993748, 10.00000000000000000, 57.65837776191821717 ) ) ;
#754 = DIRECTION ( 'NONE',  ( -1.000000000000000000, 0.000000000000000000, 0.000000000000000000 ) ) ;
#755 = LINE ( 'NONE', #400, #744 ) ;
#756 = VECTOR ( 'NONE', #1037, 1000.000000000000000 ) ;
#757 = ORIENTED_EDGE ( 'NONE', *, *, #585, .T. ) ;
#758 = AXIS2_PLACEMENT_3D ( 'NONE', #682, #1142, #938 ) ;
#759 = EDGE_CURVE ( 'NONE', #700, #337, #160, .T. ) ;
#760 = VECTOR ( 'NONE', #761, 1000.000000000000000 ) ;
#761 = DIRECTION ( 'NONE',  ( -0.000000000000000000, -1.000000000000000000, -0.000000000000000000 ) ) ;
#762 = LINE ( 'NONE', #39, #422 ) ;
#763 = CARTESIAN_POINT ( 'NONE',  ( 132.7671470273993748, 10.00000000000000000, -2.341622238081750407 ) ) ;
#764 = LINE ( 'NONE', #246, #519 ) ;
#765 = DIRECTION ( 'NONE',  ( 0.000000000000000000, 0.000000000000000000, 1.000000000000000000 ) ) ;
#766 = EDGE_CURVE ( 'NONE', #566, #903, #538, .T. ) ;
#767 = FACE_OUTER_BOUND ( 'NONE', #114, .T. ) ;
#768 = CARTESIAN_POINT ( 'NONE',  ( 141.7671470273994032, 10.00000000000000000, 26.25837776191830741 ) ) ;
#769 = CARTESIAN_POINT ( 'NONE',  ( 111.7671470273993464, 2.000000000000000000, 2.658377761918324644 ) ) ;
#770 = CARTESIAN_POINT ( 'NONE',  ( 141.7671470273994032, 7.699999999999997513, 26.25837776191830741 ) ) ;
#771 = LINE ( 'NONE', #238, #756 ) ;
#772 = CARTESIAN_POINT ( 'NONE',  ( -49.23285297260063231, 10.00000000000000000, -2.341622238081753959 ) ) ;
#773 = CARTESIAN_POINT ( 'NONE',  ( 132.7671470273993748, 0.000000000000000000, -24.34162223808173309 ) ) ;
#774 = EDGE_LOOP ( 'NONE', ( #1175, #569 ) ) ;
#775 = DIRECTION ( 'NONE',  ( -0.000000000000000000, -0.000000000000000000, -1.000000000000000000 ) ) ;
#776 = AXIS2_PLACEMENT_3D ( 'NONE', #881, #1169, #166 ) ;
#777 = VECTOR ( 'NONE', #1058, 1000.000000000000000 ) ;
#778 = DIRECTION ( 'NONE',  ( 0.000000000000000000, 0.000000000000000000, 1.000000000000000000 ) ) ;
#779 = DIRECTION ( 'NONE',  ( -0.000000000000000000, 1.000000000000000000, -0.000000000000000000 ) ) ;
#780 = EDGE_LOOP ( 'NONE', ( #917, #394, #973, #1061 ) ) ;
#781 = PRODUCT_DEFINITION ( 'UNKNOWN', '', #11, #152 ) ;
#782 = VECTOR ( 'NONE', #1006, 1000.000000000000000 ) ;
#783 = CARTESIAN_POINT ( 'NONE',  ( 21.76714702739940321, 10.00000000000000178, -0.04291388333037011310 ) ) ;
#784 = DIRECTION ( 'NONE',  ( -0.000000000000000000, -1.000000000000000000, -0.000000000000000000 ) ) ;
#785 = DIRECTION ( 'NONE',  ( 0.000000000000000000, 0.000000000000000000, 1.000000000000000000 ) ) ;
#786 = VERTEX_POINT ( 'NONE', #437 ) ;
#787 = DIRECTION ( 'NONE',  ( -1.000000000000000000, 0.000000000000000000, -1.425800117241211709E-16 ) ) ;
#788 = ADVANCED_FACE ( 'NONE', ( #902 ), #989, .F. ) ;
#789 = ORIENTED_EDGE ( 'NONE', *, *, #719, .F. ) ;
#790 = CARTESIAN_POINT ( 'NONE',  ( -49.23285297260063231, 0.000000000000000000, -24.34162223808173309 ) ) ;
#791 = DIRECTION ( 'NONE',  ( 0.000000000000000000, 0.000000000000000000, 1.000000000000000000 ) ) ;
#792 =( NAMED_UNIT ( * ) PLANE_ANGLE_UNIT ( ) SI_UNIT ( $, .RADIAN. ) );
#793 = EDGE_LOOP ( 'NONE', ( #252, #295, #1012, #822 ) ) ;
#794 = LINE ( 'NONE', #259, #933 ) ;
#795 = EDGE_LOOP ( 'NONE', ( #834, #739, #13, #195 ) ) ;
#796 = PLANE ( 'NONE',  #406 ) ;
#797 = EDGE_CURVE ( 'NONE', #617, #807, #629, .T. ) ;
#798 = CARTESIAN_POINT ( 'NONE',  ( -98.23285297260059679, 2.000000000000000000, 28.65837776191829533 ) ) ;
#799 = ORIENTED_EDGE ( 'NONE', *, *, #503, .F. ) ;
#800 = DIRECTION ( 'NONE',  ( -0.000000000000000000, 1.000000000000000000, -0.000000000000000000 ) ) ;
#801 = VECTOR ( 'NONE', #1096, 1000.000000000000000 ) ;
#802 = DIRECTION ( 'NONE',  ( 1.000000000000000000, 0.000000000000000000, 0.000000000000000000 ) ) ;
#803 = DIRECTION ( 'NONE',  ( 0.000000000000000000, 1.000000000000000000, 0.000000000000000000 ) ) ;
#804 = EDGE_CURVE ( 'NONE', #33, #247, #794, .T. ) ;
#805 = EDGE_LOOP ( 'NONE', ( #536, #730, #831, #334 ) ) ;
#806 = PLANE ( 'NONE',  #390 ) ;
#807 = VERTEX_POINT ( 'NONE', #1157 ) ;
#808 = DIRECTION ( 'NONE',  ( 0.000000000000000000, 0.000000000000000000, 1.000000000000000000 ) ) ;
#809 = APPLICATION_PROTOCOL_DEFINITION ( 'draft international standard', 'automotive_design', 1998, #1011 ) ;
#810 = ORIENTED_EDGE ( 'NONE', *, *, #186, .T. ) ;
#811 = EDGE_CURVE ( 'NONE', #107, #659, #182, .T. ) ;
#812 = DIRECTION ( 'NONE',  ( 4.969259957225228450E-17, 0.000000000000000000, -1.000000000000000000 ) ) ;
#813 = ORIENTED_EDGE ( 'NONE', *, *, #1019, .T. ) ;
#814 = CARTESIAN_POINT ( 'NONE',  ( -28.23285297260055771, 2.000000000000000000, -7.341622238081671803 ) ) ;
#815 = ORIENTED_EDGE ( 'NONE', *, *, #272, .F. ) ;
#816 = CONICAL_SURFACE ( 'NONE', #1041, 4.700000000000006395, 0.7853981633974526089 ) ;
#817 = ORIENTED_EDGE ( 'NONE', *, *, #823, .T. ) ;
#818 = DIRECTION ( 'NONE',  ( -0.000000000000000000, 1.000000000000000000, -0.000000000000000000 ) ) ;
#819 = AXIS2_PLACEMENT_3D ( 'NONE', #227, #136, #582 ) ;
#820 = ORIENTED_EDGE ( 'NONE', *, *, #823, .F. ) ;
#821 = LINE ( 'NONE', #463, #140 ) ;
#822 = ORIENTED_EDGE ( 'NONE', *, *, #486, .T. ) ;
#823 = EDGE_CURVE ( 'NONE', #1171, #15, #183, .T. ) ;
#824 = CARTESIAN_POINT ( 'NONE',  ( -127.2328529726005968, 10.00000000000000000, -0.3416222380816950621 ) ) ;
#825 = ORIENTED_EDGE ( 'NONE', *, *, #1007, .T. ) ;
#826 = CARTESIAN_POINT ( 'NONE',  ( 141.7671470273994032, 10.00000000000000000, 28.65837776191829533 ) ) ;
#827 = ORIENTED_EDGE ( 'NONE', *, *, #664, .T. ) ;
#828 = EDGE_CURVE ( 'NONE', #970, #468, #1106, .T. ) ;
#829 = CARTESIAN_POINT ( 'NONE',  ( -98.23285297260059679, 7.699999999999997513, 28.65837776191829533 ) ) ;
#830 = EDGE_CURVE ( 'NONE', #883, #128, #616, .T. ) ;
#831 = ORIENTED_EDGE ( 'NONE', *, *, #291, .T. ) ;
#832 = AXIS2_PLACEMENT_3D ( 'NONE', #658, #923, #455 ) ;
#833 = VECTOR ( 'NONE', #958, 1000.000000000000000 ) ;
#834 = ORIENTED_EDGE ( 'NONE', *, *, #1042, .T. ) ;
#835 = CIRCLE ( 'NONE', #666, 2.000000000000000888 ) ;
#836 = AXIS2_PLACEMENT_3D ( 'NONE', #405, #325, #785 ) ;
#837 = CARTESIAN_POINT ( 'NONE',  ( 167.7671470273993464, 0.000000000000000000, 54.65837776191832376 ) ) ;
#838 = ADVANCED_FACE ( 'NONE', ( #977, #77, #609, #432 ), #1172, .F. ) ;
#839 = AXIS2_PLACEMENT_3D ( 'NONE', #276, #1086, #634 ) ;
#840 = EDGE_LOOP ( 'NONE', ( #330, #1115, #820, #546 ) ) ;
#841 = ADVANCED_FACE ( 'NONE', ( #1 ), #806, .F. ) ;
#842 = LINE ( 'NONE', #930, #1144 ) ;
#843 = ORIENTED_EDGE ( 'NONE', *, *, #264, .T. ) ;
#844 = CARTESIAN_POINT ( 'NONE',  ( 21.76714702739940321, 7.699999999999997513, 7.057086116669628595 ) ) ;
#845 = APPLICATION_CONTEXT ( 'automotive_design' ) ;
#846 = VERTEX_POINT ( 'NONE', #714 ) ;
#847 = DIRECTION ( 'NONE',  ( 0.000000000000000000, 0.000000000000000000, 1.000000000000000000 ) ) ;
#848 = DIRECTION ( 'NONE',  ( 0.000000000000000000, 1.000000000000000000, -0.000000000000000000 ) ) ;
#849 = EDGE_LOOP ( 'NONE', ( #78, #876, #684, #964 ) ) ;
#850 = LINE ( 'NONE', #225, #986 ) ;
#851 = CARTESIAN_POINT ( 'NONE',  ( -127.2328529726005968, 10.00000000000000000, -2.341622238081695784 ) ) ;
#852 = DIRECTION ( 'NONE',  ( -1.000000000000000000, -0.000000000000000000, -1.095614826932720052E-15 ) ) ;
#853 = LINE ( 'NONE', #596, #857 ) ;
#854 = CIRCLE ( 'NONE', #213, 1.999999999999987121 ) ;
#855 = FACE_OUTER_BOUND ( 'NONE', #661, .T. ) ;
#856 = LINE ( 'NONE', #46, #308 ) ;
#857 = VECTOR ( 'NONE', #957, 1000.000000000000000 ) ;
#858 = PLANE ( 'NONE',  #239 ) ;
#859 = CONICAL_SURFACE ( 'NONE', #523, 4.700000000000000178, 0.7853981633974473908 ) ;
#860 = DIRECTION ( 'NONE',  ( -0.000000000000000000, -1.000000000000000000, -0.000000000000000000 ) ) ;
#861 = VECTOR ( 'NONE', #1060, 1000.000000000000000 ) ;
#862 = CARTESIAN_POINT ( 'NONE',  ( -129.2328529726005968, 0.000000000000000000, 57.65837776191825981 ) ) ;
#863 = ADVANCED_FACE ( 'NONE', ( #359 ), #718, .F. ) ;
#864 = DIRECTION ( 'NONE',  ( 0.000000000000000000, 1.000000000000000000, -0.000000000000000000 ) ) ;
#865 = LINE ( 'NONE', #936, #900 ) ;
#866 = DIRECTION ( 'NONE',  ( -0.000000000000000000, -1.000000000000000000, -0.000000000000000000 ) ) ;
#867 = DIRECTION ( 'NONE',  ( 0.000000000000000000, 0.000000000000000000, -1.000000000000000000 ) ) ;
#868 = CARTESIAN_POINT ( 'NONE',  ( -124.2328529726005542, 2.000000000000000000, 2.658377761918323756 ) ) ;
#869 = ADVANCED_FACE ( 'NONE', ( #263, #154 ), #621, .T. ) ;
#870 = CARTESIAN_POINT ( 'NONE',  ( 132.7671470273993748, 0.000000000000000000, -2.341622238081750407 ) ) ;
#871 = VERTEX_POINT ( 'NONE', #1080 ) ;
#872 = DIRECTION ( 'NONE',  ( 0.000000000000000000, 0.000000000000000000, 1.000000000000000000 ) ) ;
#873 = CARTESIAN_POINT ( 'NONE',  ( 170.7671470273993748, 10.00000000000000000, -2.341622238081709551 ) ) ;
#874 = CIRCLE ( 'NONE', #22, 2.000000000000001776 ) ;
#875 = DIRECTION ( 'NONE',  ( -0.000000000000000000, 1.000000000000000000, -0.000000000000000000 ) ) ;
#876 = ORIENTED_EDGE ( 'NONE', *, *, #372, .F. ) ;
#877 = ADVANCED_FACE ( 'NONE', ( #878 ), #68, .T. ) ;
#878 = FACE_OUTER_BOUND ( 'NONE', #995, .T. ) ;
#879 = EDGE_LOOP ( 'NONE', ( #290, #7, #387, #553 ) ) ;
#880 = FACE_OUTER_BOUND ( 'NONE', #1108, .T. ) ;
#881 = CARTESIAN_POINT ( 'NONE',  ( 141.7671470273994032, 2.000000000000000000, 28.65837776191829533 ) ) ;
#882 = DIRECTION ( 'NONE',  ( 1.000000000000000000, 0.000000000000000000, 0.000000000000000000 ) ) ;
#883 = VERTEX_POINT ( 'NONE', #701 ) ;
#884 = DIRECTION ( 'NONE',  ( 0.000000000000000000, -0.000000000000000000, -1.000000000000000000 ) ) ;
#885 = MANIFOLD_SOLID_BREP ( '\X2\04170435043d043a043e0432043a0430\X0\ \X2\0434043b044f\X0\  \X2\04320438043d04420430\X0\ \X2\0441\X0\ \X2\043f043b043e0441043a043e0439\X0\ \X2\0433043e043b043e0432043a043e0439\X0\ M42', #99 ) ;
#886 = LINE ( 'NONE', #446, #233 ) ;
#887 = CARTESIAN_POINT ( 'NONE',  ( 170.7671470273993748, 0.000000000000000000, 59.65837776191822428 ) ) ;
#888 = ORIENTED_EDGE ( 'NONE', *, *, #170, .T. ) ;
#889 = CARTESIAN_POINT ( 'NONE',  ( -127.2328529726005968, 10.00000000000000000, -2.341622238081695784 ) ) ;
#890 = ORIENTED_EDGE ( 'NONE', *, *, #379, .T. ) ;
#891 = CARTESIAN_POINT ( 'NONE',  ( 21.76714702739940321, 2.000000000000000000, 4.657086116669629128 ) ) ;
#892 = EDGE_CURVE ( 'NONE', #655, #192, #1062, .T. ) ;
#893 = AXIS2_PLACEMENT_3D ( 'NONE', #824, #743, #1107 ) ;
#894 = ORIENTED_EDGE ( 'NONE', *, *, #211, .T. ) ;
#895 = VECTOR ( 'NONE', #260, 1000.000000000000000 ) ;
#896 = CARTESIAN_POINT ( 'NONE',  ( 167.7671470273993464, 2.000000000000000000, 54.65837776191832376 ) ) ;
#897 = CIRCLE ( 'NONE', #158, 2.000000000000015543 ) ;
#898 = AXIS2_PLACEMENT_3D ( 'NONE', #147, #512, #1029 ) ;
#899 = ORIENTED_EDGE ( 'NONE', *, *, #51, .F. ) ;
#900 = VECTOR ( 'NONE', #1138, 1000.000000000000000 ) ;
#901 = EDGE_LOOP ( 'NONE', ( #161, #1076, #472, #303 ) ) ;
#902 = FACE_OUTER_BOUND ( 'NONE', #944, .T. ) ;
#903 = VERTEX_POINT ( 'NONE', #299 ) ;
#904 = CARTESIAN_POINT ( 'NONE',  ( 167.7671470273993464, 2.000000000000000000, 2.658377761918323756 ) ) ;
#905 = ADVANCED_FACE ( 'NONE', ( #565 ), #381, .F. ) ;
#906 = ORIENTED_EDGE ( 'NONE', *, *, #994, .F. ) ;
#907 = CARTESIAN_POINT ( 'NONE',  ( 111.7671470273993464, 0.000000000000000000, 2.658377761918324644 ) ) ;
#908 = ORIENTED_EDGE ( 'NONE', *, *, #797, .F. ) ;
#909 = CYLINDRICAL_SURFACE ( 'NONE', #307, 2.000000000000000888 ) ;
#910 = CIRCLE ( 'NONE', #404, 2.399999999999999467 ) ;
#911 = ORIENTED_EDGE ( 'NONE', *, *, #503, .T. ) ;
#912 = AXIS2_PLACEMENT_3D ( 'NONE', #410, #1123, #867 ) ;
#913 = VECTOR ( 'NONE', #52, 1000.000000000000000 ) ;
#914 = DIRECTION ( 'NONE',  ( 0.000000000000000000, 0.000000000000000000, 1.000000000000000000 ) ) ;
#915 = VECTOR ( 'NONE', #1168, 1000.000000000000000 ) ;
#916 = ADVANCED_FACE ( 'NONE', ( #121 ), #1164, .F. ) ;
#917 = ORIENTED_EDGE ( 'NONE', *, *, #1081, .T. ) ;
#918 = AXIS2_PLACEMENT_3D ( 'NONE', #925, #389, #914 ) ;
#919 = DIRECTION ( 'NONE',  ( -0.000000000000000000, 1.000000000000000000, -0.000000000000000000 ) ) ;
#920 = VERTEX_POINT ( 'NONE', #110 ) ;
#921 = CYLINDRICAL_SURFACE ( 'NONE', #632, 2.399999999999985256 ) ;
#922 = ORIENTED_EDGE ( 'NONE', *, *, #126, .T. ) ;
#923 = DIRECTION ( 'NONE',  ( -0.000000000000000000, 1.000000000000000000, -0.000000000000000000 ) ) ;
#924 = ORIENTED_EDGE ( 'NONE', *, *, #1103, .F. ) ;
#925 = CARTESIAN_POINT ( 'NONE',  ( 132.7671470273993748, 10.00000000000000000, -24.34162223808173309 ) ) ;
#926 = ORIENTED_EDGE ( 'NONE', *, *, #703, .T. ) ;
#927 = CARTESIAN_POINT ( 'NONE',  ( 132.7671470273993748, 10.00000000000000000, -24.34162223808173309 ) ) ;
#928 = EDGE_CURVE ( 'NONE', #339, #705, #821, .T. ) ;
#929 = ORIENTED_EDGE ( 'NONE', *, *, #203, .T. ) ;
#930 = CARTESIAN_POINT ( 'NONE',  ( 132.7671470273993748, 0.000000000000000000, -2.341622238081750407 ) ) ;
#931 = ORIENTED_EDGE ( 'NONE', *, *, #738, .F. ) ;
#932 = DIRECTION ( 'NONE',  ( 0.000000000000000000, 0.000000000000000000, -1.000000000000000000 ) ) ;
#933 = VECTOR ( 'NONE', #527, 1000.000000000000000 ) ;
#934 = VECTOR ( 'NONE', #505, 1000.000000000000000 ) ;
#935 = VERTEX_POINT ( 'NONE', #189 ) ;
#936 = CARTESIAN_POINT ( 'NONE',  ( -49.23285297260063231, 0.000000000000000000, -2.341622238081753959 ) ) ;
#937 = ORIENTED_EDGE ( 'NONE', *, *, #1100, .T. ) ;
#938 = DIRECTION ( 'NONE',  ( 1.000000000000000000, 0.000000000000000000, -7.450414928874752641E-16 ) ) ;
#939 = DIRECTION ( 'NONE',  ( -0.000000000000000000, -1.000000000000000000, -0.000000000000000000 ) ) ;
#940 = DIRECTION ( 'NONE',  ( 0.000000000000000000, 0.000000000000000000, 1.000000000000000000 ) ) ;
#941 = DIRECTION ( 'NONE',  ( -0.000000000000000000, -1.000000000000000000, -0.000000000000000000 ) ) ;
#942 = ORIENTED_EDGE ( 'NONE', *, *, #828, .F. ) ;
#943 = CARTESIAN_POINT ( 'NONE',  ( -28.23285297260055771, 2.000000000000000000, 2.658377761918328197 ) ) ;
#944 = EDGE_LOOP ( 'NONE', ( #1053, #452, #799, #436 ) ) ;
#945 = FACE_OUTER_BOUND ( 'NONE', #1055, .T. ) ;
#946 = LINE ( 'NONE', #591, #348 ) ;
#947 = EDGE_CURVE ( 'NONE', #807, #1101, #842, .T. ) ;
#948 = AXIS2_PLACEMENT_3D ( 'NONE', #210, #568, #461 ) ;
#949 = DIRECTION ( 'NONE',  ( 0.000000000000000000, 0.000000000000000000, 1.000000000000000000 ) ) ;
#950 = CARTESIAN_POINT ( 'NONE',  ( 172.7671470273993748, 0.000000000000000000, -0.3416222380817088844 ) ) ;
#951 = CARTESIAN_POINT ( 'NONE',  ( -98.23285297260059679, 2.000000000000000000, 26.25837776191829676 ) ) ;
#952 = CARTESIAN_POINT ( 'NONE',  ( 172.7671470273993464, 10.00000000000000000, 57.65837776191821717 ) ) ;
#953 = EDGE_CURVE ( 'NONE', #992, #920, #14, .T. ) ;
#954 = CARTESIAN_POINT ( 'NONE',  ( 21.76714702739940321, 10.00000000000000000, 4.657086116669629128 ) ) ;
#955 = CARTESIAN_POINT ( 'NONE',  ( 170.7671470273993748, 10.00000000000000000, 59.65837776191822428 ) ) ;
#956 = CARTESIAN_POINT ( 'NONE',  ( 170.7671470273993748, 0.000000000000000000, 57.65837776191821717 ) ) ;
#957 = DIRECTION ( 'NONE',  ( -0.000000000000000000, -1.000000000000000000, -0.000000000000000000 ) ) ;
#958 = DIRECTION ( 'NONE',  ( -0.000000000000000000, -0.000000000000000000, -1.000000000000000000 ) ) ;
#959 = ADVANCED_FACE ( 'NONE', ( #97 ), #370, .F. ) ;
#960 = CARTESIAN_POINT ( 'NONE',  ( -98.23285297260059679, 10.00000000000000178, 28.65837776191829533 ) ) ;
#961 = CARTESIAN_POINT ( 'NONE',  ( -124.2328529726005542, 2.000000000000000000, 2.658377761918323756 ) ) ;
#962 = VERTEX_POINT ( 'NONE', #1017 ) ;
#963 = FACE_BOUND ( 'NONE', #602, .T. ) ;
#964 = ORIENTED_EDGE ( 'NONE', *, *, #163, .T. ) ;
#965 = LINE ( 'NONE', #429, #1066 ) ;
#966 = VECTOR ( 'NONE', #44, 1000.000000000000000 ) ;
#967 = AXIS2_PLACEMENT_3D ( 'NONE', #960, #875, #65 ) ;
#968 = DIRECTION ( 'NONE',  ( -0.000000000000000000, -1.000000000000000000, -0.000000000000000000 ) ) ;
#969 = ADVANCED_FACE ( 'NONE', ( #731 ), #561, .T. ) ;
#970 = VERTEX_POINT ( 'NONE', #1114 ) ;
#971 = AXIS2_PLACEMENT_3D ( 'NONE', #724, #449, #93 ) ;
#972 = FILL_AREA_STYLE ('',( #253 ) ) ;
#973 = ORIENTED_EDGE ( 'NONE', *, *, #116, .F. ) ;
#974 = CARTESIAN_POINT ( 'NONE',  ( 170.7671470273993748, 10.00000000000000000, 57.65837776191821717 ) ) ;
#975 = DIRECTION ( 'NONE',  ( 0.000000000000000000, 0.000000000000000000, 1.000000000000000000 ) ) ;
#976 = ORIENTED_EDGE ( 'NONE', *, *, #983, .F. ) ;
#977 = FACE_OUTER_BOUND ( 'NONE', #314, .T. ) ;
#978 = EDGE_CURVE ( 'NONE', #620, #33, #304, .T. ) ;
#979 = DIRECTION ( 'NONE',  ( -0.000000000000000000, -1.000000000000000000, -0.000000000000000000 ) ) ;
#980 = LINE ( 'NONE', #159, #459 ) ;
#981 = ORIENTED_EDGE ( 'NONE', *, *, #623, .T. ) ;
#982 = DIRECTION ( 'NONE',  ( 0.000000000000000000, -1.000000000000000000, 0.000000000000000000 ) ) ;
#983 = EDGE_CURVE ( 'NONE', #382, #69, #644, .T. ) ;
#984 = CARTESIAN_POINT ( 'NONE',  ( 111.7671470273993464, 2.000000000000000000, -7.341622238081675356 ) ) ;
#985 = CARTESIAN_POINT ( 'NONE',  ( 167.7671470273993464, 0.000000000000000000, 2.658377761918323756 ) ) ;
#986 = VECTOR ( 'NONE', #491, 1000.000000000000000 ) ;
#987 = DIRECTION ( 'NONE',  ( -0.000000000000000000, 1.000000000000000000, -0.000000000000000000 ) ) ;
#988 = ORIENTED_EDGE ( 'NONE', *, *, #766, .F. ) ;
#989 = PLANE ( 'NONE',  #667 ) ;
#990 = VECTOR ( 'NONE', #543, 1000.000000000000000 ) ;
#991 = MECHANICAL_DESIGN_GEOMETRIC_PRESENTATION_REPRESENTATION (  '', ( #1009 ), #481 ) ;
#992 = VERTEX_POINT ( 'NONE', #1092 ) ;
#993 = DIRECTION ( 'NONE',  ( 0.000000000000000000, 0.000000000000000000, -1.000000000000000000 ) ) ;
#994 = EDGE_CURVE ( 'NONE', #1167, #442, #280, .T. ) ;
#995 = EDGE_LOOP ( 'NONE', ( #929, #305, #789, #31 ) ) ;
#996 = DIRECTION ( 'NONE',  ( -1.000000000000000000, -0.000000000000000000, -1.095614826932720052E-15 ) ) ;
#997 = VERTEX_POINT ( 'NONE', #194 ) ;
#998 = CARTESIAN_POINT ( 'NONE',  ( 141.7671470273994032, 10.00000000000000000, 31.05837776191827970 ) ) ;
#999 = ADVANCED_FACE ( 'NONE', ( #556 ), #921, .F. ) ;
#1000 = VERTEX_POINT ( 'NONE', #595 ) ;
#1001 = DIRECTION ( 'NONE',  ( 0.000000000000000000, 0.000000000000000000, -1.000000000000000000 ) ) ;
#1002 = VERTEX_POINT ( 'NONE', #500 ) ;
#1003 = DIRECTION ( 'NONE',  ( -0.000000000000000000, 1.000000000000000000, -0.000000000000000000 ) ) ;
#1004 = VERTEX_POINT ( 'NONE', #951 ) ;
#1005 = EDGE_CURVE ( 'NONE', #1004, #107, #40, .T. ) ;
#1006 = DIRECTION ( 'NONE',  ( 1.000000000000000000, 0.000000000000000000, -2.323290369611795744E-17 ) ) ;
#1007 = EDGE_CURVE ( 'NONE', #371, #468, #418, .T. ) ;
#1008 = VERTEX_POINT ( 'NONE', #1028 ) ;
#1009 = STYLED_ITEM ( 'NONE', ( #473 ), #885 ) ;
#1010 = LINE ( 'NONE', #108, #4 ) ;
#1011 = APPLICATION_CONTEXT ( 'automotive_design' ) ;
#1012 = ORIENTED_EDGE ( 'NONE', *, *, #830, .F. ) ;
#1013 = CARTESIAN_POINT ( 'NONE',  ( 172.7671470273993748, 10.00000000000000000, -0.3416222380817088844 ) ) ;
#1014 = EDGE_LOOP ( 'NONE', ( #890, #521, #341, #981 ) ) ;
#1015 = CARTESIAN_POINT ( 'NONE',  ( 111.7671470273993464, 0.000000000000000000, -7.341622238081675356 ) ) ;
#1016 = EDGE_LOOP ( 'NONE', ( #888, #396, #135, #125 ) ) ;
#1017 = CARTESIAN_POINT ( 'NONE',  ( -129.2328529726005684, 10.00000000000000000, -0.3416222380816946735 ) ) ;
#1018 = ORIENTED_EDGE ( 'NONE', *, *, #300, .F. ) ;
#1019 = EDGE_CURVE ( 'NONE', #550, #1095, #865, .T. ) ;
#1020 = CARTESIAN_POINT ( 'NONE',  ( 141.7671470273994032, 2.000000000000000000, 26.25837776191830741 ) ) ;
#1021 = VERTEX_POINT ( 'NONE', #131 ) ;
#1022 = CYLINDRICAL_SURFACE ( 'NONE', #709, 2.399999999999985256 ) ;
#1023 = AXIS2_PLACEMENT_3D ( 'NONE', #1155, #699, #975 ) ;
#1024 = EDGE_LOOP ( 'NONE', ( #827, #649, #1091, #431 ) ) ;
#1025 = EDGE_CURVE ( 'NONE', #540, #1171, #1118, .T. ) ;
#1026 = LINE ( 'NONE', #676, #62 ) ;
#1027 = DIRECTION ( 'NONE',  ( 0.000000000000000000, 0.000000000000000000, -1.000000000000000000 ) ) ;
#1028 = CARTESIAN_POINT ( 'NONE',  ( 130.7671470273993748, 0.000000000000000000, -26.34162223808175085 ) ) ;
#1029 = DIRECTION ( 'NONE',  ( 0.000000000000000000, -0.000000000000000000, 1.000000000000000000 ) ) ;
#1030 = ORIENTED_EDGE ( 'NONE', *, *, #249, .T. ) ;
#1031 = CARTESIAN_POINT ( 'NONE',  ( 21.76714702739940321, 2.000000000000000000, 4.657086116669629128 ) ) ;
#1032 = CARTESIAN_POINT ( 'NONE',  ( -127.2328529726005968, 10.00000000000000000, -0.3416222380816950621 ) ) ;
#1033 = ADVANCED_FACE ( 'NONE', ( #407 ), #859, .F. ) ;
#1034 = DIRECTION ( 'NONE',  ( -0.000000000000000000, 1.000000000000000000, -0.000000000000000000 ) ) ;
#1035 = DIRECTION ( 'NONE',  ( 0.000000000000000000, 0.7071067811865487940, 0.7071067811865463515 ) ) ;
#1036 = DIRECTION ( 'NONE',  ( -0.000000000000000000, 1.000000000000000000, -0.000000000000000000 ) ) ;
#1037 = DIRECTION ( 'NONE',  ( 1.000000000000000000, -0.000000000000000000, -2.478176394252583236E-17 ) ) ;
#1038 = DIRECTION ( 'NONE',  ( -0.000000000000000000, 1.000000000000000000, -0.000000000000000000 ) ) ;
#1039 = EDGE_CURVE ( 'NONE', #1095, #1064, #660, .T. ) ;
#1040 = CARTESIAN_POINT ( 'NONE',  ( -127.2328529726005684, 0.000000000000000000, 57.65837776191825981 ) ) ;
#1041 = AXIS2_PLACEMENT_3D ( 'NONE', #302, #919, #641 ) ;
#1042 = EDGE_CURVE ( 'NONE', #786, #247, #577, .T. ) ;
#1043 = AXIS2_PLACEMENT_3D ( 'NONE', #274, #803, #524 ) ;
#1044 = CARTESIAN_POINT ( 'NONE',  ( -129.2328529726005968, 10.00000000000000000, 57.65837776191825981 ) ) ;
#1045 = CARTESIAN_POINT ( 'NONE',  ( -98.23285297260059679, 10.00000000000000178, 23.95837776191829960 ) ) ;
#1046 = CONICAL_SURFACE ( 'NONE', #590, 4.699999999999992184, 0.7853981633974466137 ) ;
#1047 = VECTOR ( 'NONE', #1109, 1000.000000000000000 ) ;
#1048 = CARTESIAN_POINT ( 'NONE',  ( -127.2328529726005968, 0.000000000000000000, -2.341622238081695784 ) ) ;
#1049 = DIRECTION ( 'NONE',  ( -0.000000000000000000, -1.000000000000000000, -0.000000000000000000 ) ) ;
#1050 = VECTOR ( 'NONE', #535, 1000.000000000000000 ) ;
#1051 = EDGE_CURVE ( 'NONE', #690, #579, #218, .T. ) ;
#1052 = LINE ( 'NONE', #403, #445 ) ;
#1053 = ORIENTED_EDGE ( 'NONE', *, *, #23, .T. ) ;
#1054 = UNCERTAINTY_MEASURE_WITH_UNIT (LENGTH_MEASURE( 1.000000000000000082E-05 ), #292, 'distance_accuracy_value', 'NONE');
#1055 = EDGE_LOOP ( 'NONE', ( #757, #988, #645, #20 ) ) ;
#1056 = CARTESIAN_POINT ( 'NONE',  ( -124.2328529726005542, 0.000000000000000000, 2.658377761918323756 ) ) ;
#1057 = ORIENTED_EDGE ( 'NONE', *, *, #336, .F. ) ;
#1058 = DIRECTION ( 'NONE',  ( -0.000000000000000000, -1.000000000000000000, -0.000000000000000000 ) ) ;
#1059 = LINE ( 'NONE', #710, #424 ) ;
#1060 = DIRECTION ( 'NONE',  ( -0.000000000000000000, -0.000000000000000000, -1.000000000000000000 ) ) ;
#1061 = ORIENTED_EDGE ( 'NONE', *, *, #804, .T. ) ;
#1062 = LINE ( 'NONE', #740, #1047 ) ;
#1063 = CIRCLE ( 'NONE', #551, 1.999999999999987121 ) ;
#1064 = VERTEX_POINT ( 'NONE', #53 ) ;
#1065 = CARTESIAN_POINT ( 'NONE',  ( -47.23285297260061810, 10.00000000000000000, -26.34162223808174730 ) ) ;
#1066 = VECTOR ( 'NONE', #784, 1000.000000000000000 ) ;
#1067 = DIRECTION ( 'NONE',  ( 0.000000000000000000, 0.000000000000000000, 1.000000000000000000 ) ) ;
#1068 = AXIS2_PLACEMENT_3D ( 'NONE', #414, #695, #138 ) ;
#1069 = ORIENTED_EDGE ( 'NONE', *, *, #738, .T. ) ;
#1070 = COLOUR_RGB ( '',0.7921568627450980005, 0.8196078431372548767, 0.9333333333333333481 ) ;
#1071 = DIRECTION ( 'NONE',  ( 0.000000000000000000, 0.000000000000000000, 1.000000000000000000 ) ) ;
#1072 = DIRECTION ( 'NONE',  ( -0.000000000000000000, 1.000000000000000000, 0.000000000000000000 ) ) ;
#1073 = CARTESIAN_POINT ( 'NONE',  ( 130.7671470273993748, 10.00000000000000000, -26.34162223808175085 ) ) ;
#1074 = EDGE_LOOP ( 'NONE', ( #55, #98, #516, #220 ) ) ;
#1075 = CARTESIAN_POINT ( 'NONE',  ( 170.7671470273993748, 10.00000000000000000, 57.65837776191821717 ) ) ;
#1076 = ORIENTED_EDGE ( 'NONE', *, *, #321, .F. ) ;
#1077 = DIRECTION ( 'NONE',  ( 0.000000000000000000, 0.000000000000000000, 1.000000000000000000 ) ) ;
#1078 = CYLINDRICAL_SURFACE ( 'NONE', #80, 2.399999999999999467 ) ;
#1079 = ORIENTED_EDGE ( 'NONE', *, *, #1039, .F. ) ;
#1080 = CARTESIAN_POINT ( 'NONE',  ( -124.2328529726005542, 2.000000000000000000, 2.658377761918323756 ) ) ;
#1081 = EDGE_CURVE ( 'NONE', #247, #1156, #1126, .T. ) ;
#1082 = ORIENTED_EDGE ( 'NONE', *, *, #759, .T. ) ;
#1083 = VECTOR ( 'NONE', #373, 1000.000000000000000 ) ;
#1084 = DIRECTION ( 'NONE',  ( -0.000000000000000000, -1.000000000000000000, -0.000000000000000000 ) ) ;
#1085 = EDGE_LOOP ( 'NONE', ( #67, #1149, #1093, #380 ) ) ;
#1086 = DIRECTION ( 'NONE',  ( 1.000000000000000000, 0.000000000000000000, 0.000000000000000000 ) ) ;
#1087 = VECTOR ( 'NONE', #589, 1000.000000000000000 ) ;
#1088 = ORIENTED_EDGE ( 'NONE', *, *, #343, .F. ) ;
#1089 = EDGE_CURVE ( 'NONE', #617, #1021, #146, .T. ) ;
#1090 = FACE_OUTER_BOUND ( 'NONE', #795, .T. ) ;
#1091 = ORIENTED_EDGE ( 'NONE', *, *, #1139, .F. ) ;
#1092 = CARTESIAN_POINT ( 'NONE',  ( 172.7671470273993464, 10.00000000000000000, 57.65837776191821717 ) ) ;
#1093 = ORIENTED_EDGE ( 'NONE', *, *, #329, .F. ) ;
#1094 = CARTESIAN_POINT ( 'NONE',  ( -98.23285297260059679, 10.00000000000000178, 23.95837776191829960 ) ) ;
#1095 = VERTEX_POINT ( 'NONE', #221 ) ;
#1096 = DIRECTION ( 'NONE',  ( 4.785444071660163860E-16, -0.000000000000000000, -1.000000000000000000 ) ) ;
#1097 = ORIENTED_EDGE ( 'NONE', *, *, #388, .T. ) ;
#1098 = DIRECTION ( 'NONE',  ( -1.000000000000000000, 0.000000000000000000, 0.000000000000000000 ) ) ;
#1099 = PRODUCT_DEFINITION_SHAPE ( 'NONE', 'NONE',  #781 ) ;
#1100 = EDGE_CURVE ( 'NONE', #1152, #655, #493, .T. ) ;
#1101 = VERTEX_POINT ( 'NONE', #870 ) ;
#1102 = CIRCLE ( 'NONE', #384, 4.700000000000006395 ) ;
#1103 = EDGE_CURVE ( 'NONE', #468, #846, #58, .T. ) ;
#1104 = AXIS2_PLACEMENT_3D ( 'NONE', #134, #497, #765 ) ;
#1105 = VERTEX_POINT ( 'NONE', #1145 ) ;
#1106 = CIRCLE ( 'NONE', #971, 2.399999999999985256 ) ;
#1107 = DIRECTION ( 'NONE',  ( 0.000000000000000000, 0.000000000000000000, -1.000000000000000000 ) ) ;
#1108 = EDGE_LOOP ( 'NONE', ( #438, #72, #265, #922 ) ) ;
#1109 = DIRECTION ( 'NONE',  ( 1.000000000000000000, 0.000000000000000000, -2.323290369611795744E-17 ) ) ;
#1110 = ADVANCED_FACE ( 'NONE', ( #317 ), #1022, .F. ) ;
#1111 = ORIENTED_EDGE ( 'NONE', *, *, #203, .F. ) ;
#1112 = CARTESIAN_POINT ( 'NONE',  ( 130.7671470273993748, 10.00000000000000000, -24.34162223808174730 ) ) ;
#1113 = EDGE_LOOP ( 'NONE', ( #742, #420, #301, #231 ) ) ;
#1114 = CARTESIAN_POINT ( 'NONE',  ( 141.7671470273994032, 7.699999999999997513, 31.05837776191827970 ) ) ;
#1115 = ORIENTED_EDGE ( 'NONE', *, *, #186, .F. ) ;
#1116 = CARTESIAN_POINT ( 'NONE',  ( -127.2328529726005684, 10.00000000000000000, 57.65837776191825981 ) ) ;
#1117 = CARTESIAN_POINT ( 'NONE',  ( 111.7671470273993464, 2.000000000000000000, -7.341622238081675356 ) ) ;
#1118 = LINE ( 'NONE', #772, #934 ) ;
#1119 = VECTOR ( 'NONE', #775, 1000.000000000000000 ) ;
#1120 = CARTESIAN_POINT ( 'NONE',  ( -98.23285297260059679, 10.00000000000000178, 28.65837776191829533 ) ) ;
#1121 = ORIENTED_EDGE ( 'NONE', *, *, #928, .F. ) ;
#1122 = AXIS2_PLACEMENT_3D ( 'NONE', #798, #179, #808 ) ;
#1123 = DIRECTION ( 'NONE',  ( 1.000000000000000000, -0.000000000000000000, 0.000000000000000000 ) ) ;
#1124 = ADVANCED_FACE ( 'NONE', ( #945 ), #571, .F. ) ;
#1125 = CIRCLE ( 'NONE', #409, 2.399999999999999467 ) ;
#1126 = CIRCLE ( 'NONE', #612, 1.999999999999988010 ) ;
#1127 = DIRECTION ( 'NONE',  ( 8.659560562354918067E-17, 0.7071067811865487940, -0.7071067811865463515 ) ) ;
#1128 = CARTESIAN_POINT ( 'NONE',  ( 111.7671470273993464, 2.000000000000000000, -7.341622238081675356 ) ) ;
#1129 = PLANE ( 'NONE',  #898 ) ;
#1130 = LINE ( 'NONE', #319, #915 ) ;
#1131 = ADVANCED_FACE ( 'NONE', ( #399 ), #858, .F. ) ;
#1132 = DIRECTION ( 'NONE',  ( 0.000000000000000000, 1.000000000000000000, -0.000000000000000000 ) ) ;
#1133 = DIRECTION ( 'NONE',  ( -0.000000000000000000, 1.000000000000000000, -0.000000000000000000 ) ) ;
#1134 = DIRECTION ( 'NONE',  ( 0.000000000000000000, 0.000000000000000000, 1.000000000000000000 ) ) ;
#1135 = CARTESIAN_POINT ( 'NONE',  ( 167.7671470273993464, 2.000000000000000000, 54.65837776191832376 ) ) ;
#1136 = DIRECTION ( 'NONE',  ( 0.000000000000000000, 0.000000000000000000, 1.000000000000000000 ) ) ;
#1137 = EDGE_CURVE ( 'NONE', #337, #700, #47, .T. ) ;
#1138 = DIRECTION ( 'NONE',  ( -0.000000000000000000, -0.000000000000000000, 1.000000000000000000 ) ) ;
#1139 = EDGE_CURVE ( 'NONE', #128, #871, #66, .T. ) ;
#1140 = CARTESIAN_POINT ( 'NONE',  ( 21.76714702739940321, 7.699999999999997513, 4.657086116669629128 ) ) ;
#1141 = VECTOR ( 'NONE', #866, 1000.000000000000000 ) ;
#1142 = DIRECTION ( 'NONE',  ( 7.450414928874752641E-16, -0.000000000000000000, 1.000000000000000000 ) ) ;
#1143 = DIRECTION ( 'NONE',  ( -0.000000000000000000, 1.000000000000000000, -0.000000000000000000 ) ) ;
#1144 = VECTOR ( 'NONE', #996, 1000.000000000000000 ) ;
#1145 = CARTESIAN_POINT ( 'NONE',  ( -129.2328529726005684, 0.000000000000000000, -0.3416222380816946735 ) ) ;
#1146 = EDGE_LOOP ( 'NONE', ( #573, #653, #133, #109 ) ) ;
#1147 = CARTESIAN_POINT ( 'NONE',  ( 170.7671470273993748, 0.000000000000000000, -0.3416222380817086068 ) ) ;
#1148 = AXIS2_PLACEMENT_3D ( 'NONE', #268, #151, #882 ) ;
#1149 = ORIENTED_EDGE ( 'NONE', *, *, #257, .F. ) ;
#1150 = LINE ( 'NONE', #698, #777 ) ;
#1151 = DIRECTION ( 'NONE',  ( 0.000000000000000000, 1.000000000000000000, 0.000000000000000000 ) ) ;
#1152 = VERTEX_POINT ( 'NONE', #180 ) ;
#1153 = CARTESIAN_POINT ( 'NONE',  ( -47.23285297260063231, 10.00000000000000000, -24.34162223808174730 ) ) ;
#1154 = LINE ( 'NONE', #624, #81 ) ;
#1155 = CARTESIAN_POINT ( 'NONE',  ( 141.7671470273994032, 7.699999999999997513, 28.65837776191829533 ) ) ;
#1156 = VERTEX_POINT ( 'NONE', #451 ) ;
#1157 = CARTESIAN_POINT ( 'NONE',  ( 170.7671470273993748, 0.000000000000000000, -2.341622238081709551 ) ) ;
#1158 = EDGE_LOOP ( 'NONE', ( #57, #298, #450, #558 ) ) ;
#1159 = FACE_OUTER_BOUND ( 'NONE', #548, .T. ) ;
#1160 = AXIS2_PLACEMENT_3D ( 'NONE', #1116, #671, #306 ) ;
#1161 = EDGE_CURVE ( 'NONE', #192, #883, #441, .T. ) ;
#1162 =( LENGTH_UNIT ( ) NAMED_UNIT ( * ) SI_UNIT ( .MILLI., .METRE. ) );
#1163 = EDGE_LOOP ( 'NONE', ( #188, #460, #899, #810 ) ) ;
#1164 = CONICAL_SURFACE ( 'NONE', #648, 4.700000000000000178, 0.7853981633974473908 ) ;
#1165 = DIRECTION ( 'NONE',  ( -0.000000000000000000, -1.000000000000000000, -0.000000000000000000 ) ) ;
#1166 = VECTOR ( 'NONE', #127, 1000.000000000000000 ) ;
#1167 = VERTEX_POINT ( 'NONE', #167 ) ;
#1168 = DIRECTION ( 'NONE',  ( 8.659560562354925463E-17, 0.7071067811865482389, -0.7071067811865469066 ) ) ;
#1169 = DIRECTION ( 'NONE',  ( -0.000000000000000000, 1.000000000000000000, 0.000000000000000000 ) ) ;
#1170 = EDGE_CURVE ( 'NONE', #391, #579, #251, .T. ) ;
#1171 = VERTEX_POINT ( 'NONE', #91 ) ;
#1172 = PLANE ( 'NONE',  #368 ) ;
#1173 = ORIENTED_EDGE ( 'NONE', *, *, #664, .F. ) ;
#1174 = DIRECTION ( 'NONE',  ( 0.000000000000000000, 0.000000000000000000, 1.000000000000000000 ) ) ;
#1175 = ORIENTED_EDGE ( 'NONE', *, *, #759, .F. ) ;
ENDSEC;
END-ISO-10303-21;
