ISO-10303-21;
HEADER;
FILE_DESCRIPTION (( 'STEP AP214' ),
    '1' );
FILE_NAME ('õ2.STEP',
    '2026-01-21T22:09:06',
    ( '' ),
    ( '' ),
    'SwSTEP 2.0',
    'SolidWorks 2024',
    '' );
FILE_SCHEMA (( 'AUTOMOTIVE_DESIGN' ));
ENDSEC;

DATA;
#1 = DIRECTION ( 'NONE',  ( -0.000000000000000000, -0.000000000000000000, -1.000000000000000000 ) ) ;
#2 = EDGE_LOOP ( 'NONE', ( #320, #428, #593, #404 ) ) ;
#3 = VECTOR ( 'NONE', #441, 1000.000000000000000 ) ;
#4 = VECTOR ( 'NONE', #616, 1000.000000000000000 ) ;
#5 = APPLICATION_PROTOCOL_DEFINITION ( 'draft international standard', 'automotive_design', 1998, #126 ) ;
#6 = VECTOR ( 'NONE', #323, 1000.000000000000000 ) ;
#7 = LINE ( 'NONE', #161, #265 ) ;
#8 = ADVANCED_FACE ( 'NONE', ( #132 ), #24, .F. ) ;
#9 = ORIENTED_EDGE ( 'NONE', *, *, #270, .T. ) ;
#10 = DIRECTION ( 'NONE',  ( -1.000000000000000000, -0.000000000000000000, -0.000000000000000000 ) ) ;
#11 = DIRECTION ( 'NONE',  ( -0.7071067811865465735, 8.659560562354921765E-17, 0.7071067811865484609 ) ) ;
#12 = EDGE_CURVE ( 'NONE', #606, #555, #531, .T. ) ;
#13 = EDGE_LOOP ( 'NONE', ( #477, #50, #159, #342 ) ) ;
#14 = CARTESIAN_POINT ( 'NONE',  ( -102.9372268244814990, -33.72263016300046701, 5.000000000000000000 ) ) ;
#15 = DIRECTION ( 'NONE',  ( -0.000000000000000000, -0.000000000000000000, -1.000000000000000000 ) ) ;
#16 = ORIENTED_EDGE ( 'NONE', *, *, #567, .F. ) ;
#17 = DIRECTION ( 'NONE',  ( 1.000000000000000000, -0.000000000000000000, -0.000000000000000000 ) ) ;
#18 = CIRCLE ( 'NONE', #232, 4.699999999999995737 ) ;
#19 = ORIENTED_EDGE ( 'NONE', *, *, #117, .T. ) ;
#20 = EDGE_CURVE ( 'NONE', #206, #135, #434, .T. ) ;
#21 = FILL_AREA_STYLE_COLOUR ( '', #203 ) ;
#22 = ORIENTED_EDGE ( 'NONE', *, *, #147, .T. ) ;
#23 = CARTESIAN_POINT ( 'NONE',  ( -102.9372268244814990, -33.72263016300046701, 5.000000000000000000 ) ) ;
#24 = CYLINDRICAL_SURFACE ( 'NONE', #481, 2.250000000000001776 ) ;
#25 = AXIS2_PLACEMENT_3D ( 'NONE', #447, #400, #200 ) ;
#26 = DIRECTION ( 'NONE',  ( 1.000000000000000000, 0.000000000000000000, -0.000000000000000000 ) ) ;
#27 = AXIS2_PLACEMENT_3D ( 'NONE', #464, #68, #252 ) ;
#28 = ORIENTED_EDGE ( 'NONE', *, *, #552, .T. ) ;
#29 = ADVANCED_FACE ( 'NONE', ( #487 ), #193, .T. ) ;
#30 = CARTESIAN_POINT ( 'NONE',  ( -102.9372268244814990, -5.722630163000457237, 5.000000000000000000 ) ) ;
#31 = UNCERTAINTY_MEASURE_WITH_UNIT (LENGTH_MEASURE( 1.000000000000000082E-05 ), #212, 'distance_accuracy_value', 'NONE');
#32 = ORIENTED_EDGE ( 'NONE', *, *, #295, .F. ) ;
#33 = EDGE_CURVE ( 'NONE', #273, #550, #522, .T. ) ;
#34 = CARTESIAN_POINT ( 'NONE',  ( 80.81277317551845840, -19.72263016300045990, 5.000000000000000000 ) ) ;
#35 = ORIENTED_EDGE ( 'NONE', *, *, #316, .T. ) ;
#36 = DIRECTION ( 'NONE',  ( -1.000000000000000000, -2.775557561562891844E-16, 0.000000000000000000 ) ) ;
#37 = ORIENTED_EDGE ( 'NONE', *, *, #424, .F. ) ;
#38 = CIRCLE ( 'NONE', #402, 2.000000000000001776 ) ;
#39 = CIRCLE ( 'NONE', #566, 4.699999999999995737 ) ;
#40 = EDGE_CURVE ( 'NONE', #348, #339, #250, .T. ) ;
#41 = DIRECTION ( 'NONE',  ( -0.000000000000000000, -0.000000000000000000, 1.000000000000000000 ) ) ;
#42 = DIRECTION ( 'NONE',  ( -0.000000000000000000, -0.000000000000000000, 1.000000000000000000 ) ) ;
#43 = LINE ( 'NONE', #337, #3 ) ;
#44 = CARTESIAN_POINT ( 'NONE',  ( 86.06277317551847261, -5.722630163000443915, 0.000000000000000000 ) ) ;
#45 = VERTEX_POINT ( 'NONE', #493 ) ;
#46 = CARTESIAN_POINT ( 'NONE',  ( 83.06277317551847261, -19.72263016300045990, 5.000000000000000000 ) ) ;
#47 = LINE ( 'NONE', #585, #605 ) ;
#48 = VECTOR ( 'NONE', #489, 1000.000000000000000 ) ;
#49 = EDGE_CURVE ( 'NONE', #45, #206, #237, .T. ) ;
#50 = ORIENTED_EDGE ( 'NONE', *, *, #509, .T. ) ;
#51 = CIRCLE ( 'NONE', #451, 2.000000000000001776 ) ;
#52 = DIRECTION ( 'NONE',  ( -0.000000000000000000, -0.000000000000000000, 1.000000000000000000 ) ) ;
#53 = CARTESIAN_POINT ( 'NONE',  ( -77.93722682448151318, -33.72263016300045990, 5.000000000000000000 ) ) ;
#54 = ORIENTED_EDGE ( 'NONE', *, *, #285, .T. ) ;
#55 = LINE ( 'NONE', #633, #71 ) ;
#56 = DIRECTION ( 'NONE',  ( 1.000000000000000000, 0.000000000000000000, 0.000000000000000000 ) ) ;
#57 = PRODUCT_CONTEXT ( 'NONE', #110, 'mechanical' ) ;
#58 = FACE_OUTER_BOUND ( 'NONE', #2, .T. ) ;
#59 = EDGE_LOOP ( 'NONE', ( #380, #330, #69, #407 ) ) ;
#60 = CIRCLE ( 'NONE', #581, 2.250000000000001776 ) ;
#61 = DIRECTION ( 'NONE',  ( 0.000000000000000000, 0.000000000000000000, 1.000000000000000000 ) ) ;
#62 = ADVANCED_FACE ( 'NONE', ( #448 ), #538, .F. ) ;
#63 = LINE ( 'NONE', #256, #462 ) ;
#64 = ORIENTED_EDGE ( 'NONE', *, *, #107, .T. ) ;
#65 = CARTESIAN_POINT ( 'NONE',  ( 87.76277317551846124, -19.72263016300045990, 5.000000000000000000 ) ) ;
#66 = VERTEX_POINT ( 'NONE', #534 ) ;
#67 = CARTESIAN_POINT ( 'NONE',  ( -102.9372268244814990, -33.72263016300046701, 0.000000000000000000 ) ) ;
#68 = DIRECTION ( 'NONE',  ( -0.000000000000000000, -0.000000000000000000, 1.000000000000000000 ) ) ;
#69 = ORIENTED_EDGE ( 'NONE', *, *, #12, .F. ) ;
#70 = EDGE_CURVE ( 'NONE', #234, #461, #18, .T. ) ;
#71 = VECTOR ( 'NONE', #93, 1000.000000000000000 ) ;
#72 = DIRECTION ( 'NONE',  ( -0.000000000000000000, -0.000000000000000000, -1.000000000000000000 ) ) ;
#73 = SURFACE_SIDE_STYLE ('',( #266 ) ) ;
#74 = VECTOR ( 'NONE', #158, 1000.000000000000000 ) ;
#75 = ORIENTED_EDGE ( 'NONE', *, *, #240, .F. ) ;
#76 = LINE ( 'NONE', #269, #204 ) ;
#77 = ORIENTED_EDGE ( 'NONE', *, *, #40, .T. ) ;
#78 = EDGE_CURVE ( 'NONE', #45, #303, #97, .T. ) ;
#79 = DIRECTION ( 'NONE',  ( -0.000000000000000000, -0.000000000000000000, 1.000000000000000000 ) ) ;
#80 = ORIENTED_EDGE ( 'NONE', *, *, #363, .F. ) ;
#81 = FACE_OUTER_BOUND ( 'NONE', #13, .T. ) ;
#82 = AXIS2_PLACEMENT_3D ( 'NONE', #313, #169, #501 ) ;
#83 = ORIENTED_EDGE ( 'NONE', *, *, #406, .F. ) ;
#84 = DIRECTION ( 'NONE',  ( 1.000000000000000000, 0.000000000000000000, 0.000000000000000000 ) ) ;
#85 = DIRECTION ( 'NONE',  ( 0.000000000000000000, 0.000000000000000000, 1.000000000000000000 ) ) ;
#86 = CARTESIAN_POINT ( 'NONE',  ( -100.9372268244814990, -5.722630163000443915, 0.000000000000000000 ) ) ;
#87 = EDGE_LOOP ( 'NONE', ( #475, #37 ) ) ;
#88 = ADVANCED_FACE ( 'NONE', ( #144 ), #288, .F. ) ;
#89 = DIRECTION ( 'NONE',  ( 1.000000000000000000, 0.000000000000000000, 0.000000000000000000 ) ) ;
#90 = AXIS2_PLACEMENT_3D ( 'NONE', #444, #636, #195 ) ;
#91 = CARTESIAN_POINT ( 'NONE',  ( -100.1872268244814990, -19.72263016300045990, -8.673617379884035472E-16 ) ) ;
#92 = AXIS2_PLACEMENT_3D ( 'NONE', #86, #568, #26 ) ;
#93 = DIRECTION ( 'NONE',  ( -0.000000000000000000, -0.000000000000000000, -1.000000000000000000 ) ) ;
#94 = CARTESIAN_POINT ( 'NONE',  ( 83.06277317551847261, -19.72263016300045990, 5.000000000000000000 ) ) ;
#95 = CARTESIAN_POINT ( 'NONE',  ( 78.36277317551846977, -19.72263016300045990, 5.000000000000000000 ) ) ;
#96 = EDGE_CURVE ( 'NONE', #550, #273, #492, .T. ) ;
#97 = LINE ( 'NONE', #53, #614 ) ;
#98 = VERTEX_POINT ( 'NONE', #152 ) ;
#99 = CARTESIAN_POINT ( 'NONE',  ( 86.06277317551845840, -3.722630163000443027, 0.000000000000000000 ) ) ;
#100 = DIRECTION ( 'NONE',  ( -1.000000000000000000, 0.000000000000000000, 0.000000000000000000 ) ) ;
#101 = AXIS2_PLACEMENT_3D ( 'NONE', #324, #85, #188 ) ;
#102 = CARTESIAN_POINT ( 'NONE',  ( -97.93722682448149897, -19.72263016300045990, -8.673617379884035472E-16 ) ) ;
#103 = CARTESIAN_POINT ( 'NONE',  ( 83.06277317551847261, -19.72263016300045990, 2.549999999999999378 ) ) ;
#104 = LINE ( 'NONE', #507, #143 ) ;
#105 = ORIENTED_EDGE ( 'NONE', *, *, #373, .T. ) ;
#106 = DIRECTION ( 'NONE',  ( -0.000000000000000000, -0.000000000000000000, 1.000000000000000000 ) ) ;
#107 = EDGE_CURVE ( 'NONE', #356, #186, #47, .T. ) ;
#108 = DIRECTION ( 'NONE',  ( -0.000000000000000000, -0.000000000000000000, 1.000000000000000000 ) ) ;
#109 = ORIENTED_EDGE ( 'NONE', *, *, #582, .T. ) ;
#110 = APPLICATION_CONTEXT ( 'automotive_design' ) ;
#111 = VECTOR ( 'NONE', #484, 1000.000000000000000 ) ;
#112 = DIRECTION ( 'NONE',  ( -0.000000000000000000, -1.000000000000000000, -0.000000000000000000 ) ) ;
#113 = DIRECTION ( 'NONE',  ( 0.000000000000000000, 0.000000000000000000, 1.000000000000000000 ) ) ;
#114 = ORIENTED_EDGE ( 'NONE', *, *, #406, .T. ) ;
#115 = CARTESIAN_POINT ( 'NONE',  ( 88.06277317551847261, -33.72263016300044569, 5.000000000000000000 ) ) ;
#116 = CARTESIAN_POINT ( 'NONE',  ( -77.93722682448151318, -19.72263016300045990, 5.000000000000000000 ) ) ;
#117 = EDGE_CURVE ( 'NONE', #303, #377, #592, .T. ) ;
#118 = ORIENTED_EDGE ( 'NONE', *, *, #12, .T. ) ;
#119 = FACE_OUTER_BOUND ( 'NONE', #574, .T. ) ;
#120 = VERTEX_POINT ( 'NONE', #157 ) ;
#121 = CONICAL_SURFACE ( 'NONE', #551, 4.699999999999995737, 0.7853981633974469467 ) ;
#122 = VECTOR ( 'NONE', #260, 1000.000000000000000 ) ;
#123 = DIRECTION ( 'NONE',  ( -0.000000000000000000, -0.000000000000000000, 1.000000000000000000 ) ) ;
#124 = AXIS2_PLACEMENT_3D ( 'NONE', #168, #61, #361 ) ;
#125 = VERTEX_POINT ( 'NONE', #91 ) ;
#126 = APPLICATION_CONTEXT ( 'automotive_design' ) ;
#127 = CARTESIAN_POINT ( 'NONE',  ( -100.9372268244814848, -3.722630163000443915, 0.000000000000000000 ) ) ;
#128 = EDGE_LOOP ( 'NONE', ( #565, #506, #609, #254, #114, #299, #247, #118, #28, #22 ) ) ;
#129 = EDGE_CURVE ( 'NONE', #339, #494, #51, .T. ) ;
#130 = DIRECTION ( 'NONE',  ( -0.000000000000000000, -0.000000000000000000, -1.000000000000000000 ) ) ;
#131 = ADVANCED_FACE ( 'NONE', ( #284 ), #294, .F. ) ;
#132 = FACE_OUTER_BOUND ( 'NONE', #314, .T. ) ;
#133 = CARTESIAN_POINT ( 'NONE',  ( 86.06277317551845840, -3.722630163000443027, 5.000000000000000000 ) ) ;
#134 = AXIS2_PLACEMENT_3D ( 'NONE', #526, #370, #36 ) ;
#135 = VERTEX_POINT ( 'NONE', #243 ) ;
#136 = DIRECTION ( 'NONE',  ( -0.000000000000000000, -0.000000000000000000, 1.000000000000000000 ) ) ;
#137 = ORIENTED_EDGE ( 'NONE', *, *, #189, .F. ) ;
#138 = ADVANCED_FACE ( 'NONE', ( #239 ), #149, .F. ) ;
#139 = DIRECTION ( 'NONE',  ( 0.000000000000000000, 0.000000000000000000, -1.000000000000000000 ) ) ;
#140 = ADVANCED_BREP_SHAPE_REPRESENTATION ( '\X2\0445\X0\2', ( #177, #25 ), #472 ) ;
#141 = VERTEX_POINT ( 'NONE', #446 ) ;
#142 = PLANE ( 'NONE',  #530 ) ;
#143 = VECTOR ( 'NONE', #72, 1000.000000000000000 ) ;
#144 = FACE_OUTER_BOUND ( 'NONE', #576, .T. ) ;
#145 = VECTOR ( 'NONE', #108, 1000.000000000000000 ) ;
#146 = EDGE_LOOP ( 'NONE', ( #518, #390 ) ) ;
#147 = EDGE_CURVE ( 'NONE', #410, #45, #588, .T. ) ;
#148 = DIRECTION ( 'NONE',  ( 1.000000000000000000, 0.000000000000000000, 0.000000000000000000 ) ) ;
#149 = CYLINDRICAL_SURFACE ( 'NONE', #357, 2.250000000000001776 ) ;
#150 = ORIENTED_EDGE ( 'NONE', *, *, #49, .F. ) ;
#151 = DIRECTION ( 'NONE',  ( -0.000000000000000000, -0.000000000000000000, 1.000000000000000000 ) ) ;
#152 = CARTESIAN_POINT ( 'NONE',  ( -102.9372268244814990, -33.72263016300046701, 0.000000000000000000 ) ) ;
#153 = FACE_OUTER_BOUND ( 'NONE', #267, .T. ) ;
#154 = DIRECTION ( 'NONE',  ( 0.000000000000000000, 0.000000000000000000, 1.000000000000000000 ) ) ;
#155 = STYLED_ITEM ( 'NONE', ( #417 ), #177 ) ;
#156 = CARTESIAN_POINT ( 'NONE',  ( -77.93722682448151318, -33.72263016300045990, 0.000000000000000000 ) ) ;
#157 = CARTESIAN_POINT ( 'NONE',  ( 85.31277317551847261, -19.72263016300045990, -8.673617379884035472E-16 ) ) ;
#158 = DIRECTION ( 'NONE',  ( -1.000000000000000000, -0.000000000000000000, -0.000000000000000000 ) ) ;
#159 = ORIENTED_EDGE ( 'NONE', *, *, #463, .T. ) ;
#160 = LINE ( 'NONE', #67, #612 ) ;
#161 = CARTESIAN_POINT ( 'NONE',  ( 88.06277317551847261, -33.72263016300044569, 0.000000000000000000 ) ) ;
#162 = ORIENTED_EDGE ( 'NONE', *, *, #248, .F. ) ;
#163 = VECTOR ( 'NONE', #338, 1000.000000000000000 ) ;
#164 = EDGE_CURVE ( 'NONE', #120, #273, #359, .T. ) ;
#165 = DIRECTION ( 'NONE',  ( 0.000000000000000000, 0.000000000000000000, -1.000000000000000000 ) ) ;
#166 = PLANE ( 'NONE',  #233 ) ;
#167 = EDGE_LOOP ( 'NONE', ( #261, #398, #452, #258 ) ) ;
#168 = CARTESIAN_POINT ( 'NONE',  ( -100.9372268244814990, -5.722630163000443915, 0.000000000000000000 ) ) ;
#169 = DIRECTION ( 'NONE',  ( -0.000000000000000000, -0.000000000000000000, 1.000000000000000000 ) ) ;
#170 = ORIENTED_EDGE ( 'NONE', *, *, #285, .F. ) ;
#171 = CARTESIAN_POINT ( 'NONE',  ( 63.06277317551847972, -19.72263016300044214, 5.000000000000000000 ) ) ;
#172 = ORIENTED_EDGE ( 'NONE', *, *, #268, .T. ) ;
#173 = CIRCLE ( 'NONE', #124, 2.000000000000001776 ) ;
#174 = CARTESIAN_POINT ( 'NONE',  ( -100.9372268244814990, -5.722630163000443915, 5.000000000000000000 ) ) ;
#175 = CARTESIAN_POINT ( 'NONE',  ( -97.93722682448149897, -19.72263016300045990, 5.000000000000000000 ) ) ;
#176 = ADVANCED_FACE ( 'NONE', ( #58 ), #368, .F. ) ;
#177 = MANIFOLD_SOLID_BREP ( '\X2\04170435043d043a043e0432043a0430\X0\ \X2\0434043b044f\X0\  \X2\04320438043d04420430\X0\ \X2\0441\X0\ \X2\043f043b043e0441043a043e0439\X0\ \X2\0433043e043b043e0432043a043e0439\X0\ M43', #388 ) ;
#178 = DIRECTION ( 'NONE',  ( 0.000000000000000000, 0.000000000000000000, 1.000000000000000000 ) ) ;
#179 = ORIENTED_EDGE ( 'NONE', *, *, #287, .F. ) ;
#180 = CYLINDRICAL_SURFACE ( 'NONE', #367, 2.000000000000001776 ) ;
#181 = ORIENTED_EDGE ( 'NONE', *, *, #117, .F. ) ;
#182 = ADVANCED_FACE ( 'NONE', ( #454 ), #166, .F. ) ;
#183 = DIRECTION ( 'NONE',  ( -0.000000000000000000, -0.000000000000000000, -1.000000000000000000 ) ) ;
#184 = EDGE_LOOP ( 'NONE', ( #109, #75, #217, #271 ) ) ;
#185 = DIRECTION ( 'NONE',  ( 1.000000000000000000, 0.000000000000000000, 0.000000000000000000 ) ) ;
#186 = VERTEX_POINT ( 'NONE', #560 ) ;
#187 = DIRECTION ( 'NONE',  ( 1.000000000000000000, 1.230300337572203632E-16, -0.000000000000000000 ) ) ;
#188 = DIRECTION ( 'NONE',  ( 1.000000000000000000, 0.000000000000000000, 0.000000000000000000 ) ) ;
#189 = EDGE_CURVE ( 'NONE', #420, #348, #7, .T. ) ;
#190 = EDGE_LOOP ( 'NONE', ( #263, #516, #32, #468 ) ) ;
#191 = DIRECTION ( 'NONE',  ( 0.000000000000000000, 0.000000000000000000, 1.000000000000000000 ) ) ;
#192 = VECTOR ( 'NONE', #79, 1000.000000000000000 ) ;
#193 = CYLINDRICAL_SURFACE ( 'NONE', #194, 2.000000000000001776 ) ;
#194 = AXIS2_PLACEMENT_3D ( 'NONE', #580, #1, #100 ) ;
#195 = DIRECTION ( 'NONE',  ( 1.000000000000000000, 0.000000000000000000, 0.000000000000000000 ) ) ;
#196 = CARTESIAN_POINT ( 'NONE',  ( 83.06277317551847261, -19.72263016300045990, 5.000000000000000000 ) ) ;
#197 = ORIENTED_EDGE ( 'NONE', *, *, #70, .F. ) ;
#198 = LINE ( 'NONE', #491, #440 ) ;
#199 = DIRECTION ( 'NONE',  ( 1.000000000000000000, 0.000000000000000000, 0.000000000000000000 ) ) ;
#200 = DIRECTION ( 'NONE',  ( 1.000000000000000000, 0.000000000000000000, 0.000000000000000000 ) ) ;
#201 = DIRECTION ( 'NONE',  ( -0.000000000000000000, -0.000000000000000000, -1.000000000000000000 ) ) ;
#202 = AXIS2_PLACEMENT_3D ( 'NONE', #528, #151, #89 ) ;
#203 = COLOUR_RGB ( '',0.7921568627450980005, 0.8196078431372548767, 0.9333333333333333481 ) ;
#204 = VECTOR ( 'NONE', #469, 1000.000000000000000 ) ;
#205 = SHAPE_DEFINITION_REPRESENTATION ( #372, #140 ) ;
#206 = VERTEX_POINT ( 'NONE', #116 ) ;
#207 =( NAMED_UNIT ( * ) SI_UNIT ( $, .STERADIAN. ) SOLID_ANGLE_UNIT ( ) );
#208 = FACE_OUTER_BOUND ( 'NONE', #503, .T. ) ;
#209 = VERTEX_POINT ( 'NONE', #362 ) ;
#210 = EDGE_CURVE ( 'NONE', #494, #332, #405, .T. ) ;
#211 = LINE ( 'NONE', #309, #429 ) ;
#212 =( LENGTH_UNIT ( ) NAMED_UNIT ( * ) SI_UNIT ( .MILLI., .METRE. ) );
#213 = EDGE_LOOP ( 'NONE', ( #222, #276, #311, #623 ) ) ;
#214 = AXIS2_PLACEMENT_3D ( 'NONE', #602, #354, #113 ) ;
#215 = CARTESIAN_POINT ( 'NONE',  ( 63.06277317551847972, -33.72263016300044569, 0.000000000000000000 ) ) ;
#216 = DIRECTION ( 'NONE',  ( -1.000000000000000000, 0.000000000000000000, 0.000000000000000000 ) ) ;
#217 = ORIENTED_EDGE ( 'NONE', *, *, #438, .F. ) ;
#218 = SURFACE_STYLE_USAGE ( .BOTH. , #73 ) ;
#219 = ORIENTED_EDGE ( 'NONE', *, *, #629, .T. ) ;
#220 = DIRECTION ( 'NONE',  ( -1.000000000000000000, 0.000000000000000000, 0.000000000000000000 ) ) ;
#221 = EDGE_CURVE ( 'NONE', #206, #377, #415, .T. ) ;
#222 = ORIENTED_EDGE ( 'NONE', *, *, #572, .T. ) ;
#223 = CIRCLE ( 'NONE', #90, 4.699999999999995737 ) ;
#224 = VECTOR ( 'NONE', #504, 1000.000000000000000 ) ;
#225 = CARTESIAN_POINT ( 'NONE',  ( 85.31277317551847261, -19.72263016300045990, 2.549999999999999378 ) ) ;
#226 = VERTEX_POINT ( 'NONE', #350 ) ;
#227 = DIRECTION ( 'NONE',  ( -0.000000000000000000, -0.000000000000000000, 1.000000000000000000 ) ) ;
#228 = ORIENTED_EDGE ( 'NONE', *, *, #458, .T. ) ;
#229 = CARTESIAN_POINT ( 'NONE',  ( 88.06277317551847261, -5.722630163000458126, 0.000000000000000000 ) ) ;
#230 = ORIENTED_EDGE ( 'NONE', *, *, #236, .F. ) ;
#231 = LINE ( 'NONE', #34, #317 ) ;
#232 = AXIS2_PLACEMENT_3D ( 'NONE', #94, #442, #199 ) ;
#233 = AXIS2_PLACEMENT_3D ( 'NONE', #499, #216, #557 ) ;
#234 = VERTEX_POINT ( 'NONE', #608 ) ;
#235 = DIRECTION ( 'NONE',  ( 1.000000000000000000, 0.000000000000000000, 0.000000000000000000 ) ) ;
#236 = EDGE_CURVE ( 'NONE', #66, #125, #583, .T. ) ;
#237 = LINE ( 'NONE', #437, #244 ) ;
#238 = FACE_OUTER_BOUND ( 'NONE', #615, .T. ) ;
#239 = FACE_OUTER_BOUND ( 'NONE', #382, .T. ) ;
#240 = EDGE_CURVE ( 'NONE', #589, #420, #549, .T. ) ;
#241 = DIRECTION ( 'NONE',  ( -1.000000000000000000, 0.000000000000000000, 0.000000000000000000 ) ) ;
#242 = AXIS2_PLACEMENT_3D ( 'NONE', #577, #148, #139 ) ;
#243 = CARTESIAN_POINT ( 'NONE',  ( 63.06277317551847972, -19.72263016300044214, 5.000000000000000000 ) ) ;
#244 = VECTOR ( 'NONE', #596, 1000.000000000000000 ) ;
#245 = DIRECTION ( 'NONE',  ( -0.7071067811865465735, 8.659560562354921765E-17, 0.7071067811865484609 ) ) ;
#246 = DIRECTION ( 'NONE',  ( -0.000000000000000000, -0.000000000000000000, 1.000000000000000000 ) ) ;
#247 = ORIENTED_EDGE ( 'NONE', *, *, #604, .T. ) ;
#248 = EDGE_CURVE ( 'NONE', #279, #226, #63, .T. ) ;
#249 = DIRECTION ( 'NONE',  ( -1.000000000000000000, -1.230300337572203632E-16, 0.000000000000000000 ) ) ;
#250 = LINE ( 'NONE', #637, #111 ) ;
#251 = LINE ( 'NONE', #510, #421 ) ;
#252 = DIRECTION ( 'NONE',  ( 1.000000000000000000, 0.000000000000000000, 0.000000000000000000 ) ) ;
#253 = AXIS2_PLACEMENT_3D ( 'NONE', #290, #241, #191 ) ;
#254 = ORIENTED_EDGE ( 'NONE', *, *, #610, .T. ) ;
#255 = CARTESIAN_POINT ( 'NONE',  ( -102.9372268244814990, -5.722630163000457237, 5.000000000000000000 ) ) ;
#256 = CARTESIAN_POINT ( 'NONE',  ( -102.6372268244815018, -19.72263016300045990, 5.000000000000000000 ) ) ;
#257 = ADVANCED_FACE ( 'NONE', ( #208 ), #409, .F. ) ;
#258 = ORIENTED_EDGE ( 'NONE', *, *, #221, .T. ) ;
#259 = CARTESIAN_POINT ( 'NONE',  ( -97.93722682448149897, -19.72263016300045990, 2.549999999999999378 ) ) ;
#260 = DIRECTION ( 'NONE',  ( 0.7071067811865465735, 0.000000000000000000, 0.7071067811865484609 ) ) ;
#261 = ORIENTED_EDGE ( 'NONE', *, *, #532, .T. ) ;
#262 = CARTESIAN_POINT ( 'NONE',  ( 85.31277317551847261, -19.72263016300045990, 5.000000000000000000 ) ) ;
#263 = ORIENTED_EDGE ( 'NONE', *, *, #129, .T. ) ;
#264 = AXIS2_PLACEMENT_3D ( 'NONE', #46, #52, #235 ) ;
#265 = VECTOR ( 'NONE', #17, 1000.000000000000000 ) ;
#266 = SURFACE_STYLE_FILL_AREA ( #460 ) ;
#267 = EDGE_LOOP ( 'NONE', ( #162, #170, #64, #292 ) ) ;
#268 = EDGE_CURVE ( 'NONE', #273, #234, #307, .T. ) ;
#269 = CARTESIAN_POINT ( 'NONE',  ( 88.06277317551847261, -5.722630163000458126, 5.000000000000000000 ) ) ;
#270 = EDGE_CURVE ( 'NONE', #555, #455, #456, .T. ) ;
#271 = ORIENTED_EDGE ( 'NONE', *, *, #352, .T. ) ;
#272 = LINE ( 'NONE', #133, #622 ) ;
#273 = VERTEX_POINT ( 'NONE', #225 ) ;
#274 = CONICAL_SURFACE ( 'NONE', #325, 4.699999999999995737, 0.7853981633974469467 ) ;
#275 = FACE_OUTER_BOUND ( 'NONE', #635, .T. ) ;
#276 = ORIENTED_EDGE ( 'NONE', *, *, #78, .F. ) ;
#277 = ADVANCED_FACE ( 'NONE', ( #327 ), #523, .F. ) ;
#278 = LINE ( 'NONE', #613, #500 ) ;
#279 = VERTEX_POINT ( 'NONE', #467 ) ;
#280 = FACE_OUTER_BOUND ( 'NONE', #59, .T. ) ;
#281 = ORIENTED_EDGE ( 'NONE', *, *, #591, .T. ) ;
#282 = LINE ( 'NONE', #537, #315 ) ;
#283 = VECTOR ( 'NONE', #300, 1000.000000000000000 ) ;
#284 = FACE_OUTER_BOUND ( 'NONE', #328, .T. ) ;
#285 = EDGE_CURVE ( 'NONE', #356, #279, #514, .T. ) ;
#286 = DIRECTION ( 'NONE',  ( 1.000000000000000000, 0.000000000000000000, -0.000000000000000000 ) ) ;
#287 = EDGE_CURVE ( 'NONE', #141, #550, #231, .T. ) ;
#288 = PLANE ( 'NONE',  #624 ) ;
#289 = ORIENTED_EDGE ( 'NONE', *, *, #33, .T. ) ;
#290 = CARTESIAN_POINT ( 'NONE',  ( -77.93722682448151318, -19.72263016300045990, 5.000000000000000000 ) ) ;
#291 = CARTESIAN_POINT ( 'NONE',  ( -100.9372268244814848, -3.722630163000443915, 5.000000000000000000 ) ) ;
#292 = ORIENTED_EDGE ( 'NONE', *, *, #383, .T. ) ;
#293 = CARTESIAN_POINT ( 'NONE',  ( -102.9372268244814990, -5.722630163000457237, 0.000000000000000000 ) ) ;
#294 = CYLINDRICAL_SURFACE ( 'NONE', #554, 2.250000000000001776 ) ;
#295 = EDGE_CURVE ( 'NONE', #364, #480, #38, .T. ) ;
#296 = ORIENTED_EDGE ( 'NONE', *, *, #509, .F. ) ;
#297 = CARTESIAN_POINT ( 'NONE',  ( 63.06277317551847972, -19.72263016300044214, 5.000000000000000000 ) ) ;
#298 = DIRECTION ( 'NONE',  ( 1.000000000000000000, 0.000000000000000000, 0.000000000000000000 ) ) ;
#299 = ORIENTED_EDGE ( 'NONE', *, *, #295, .T. ) ;
#300 = DIRECTION ( 'NONE',  ( 1.000000000000000000, 2.775557561562891844E-16, -0.000000000000000000 ) ) ;
#301 = CARTESIAN_POINT ( 'NONE',  ( 63.06277317551847972, -33.72263016300044569, 5.000000000000000000 ) ) ;
#302 = AXIS2_PLACEMENT_3D ( 'NONE', #297, #381, #249 ) ;
#303 = VERTEX_POINT ( 'NONE', #570 ) ;
#304 = AXIS2_PLACEMENT_3D ( 'NONE', #545, #529, #389 ) ;
#305 =( LENGTH_UNIT ( ) NAMED_UNIT ( * ) SI_UNIT ( .MILLI., .METRE. ) );
#306 = ADVANCED_FACE ( 'NONE', ( #329, #519, #275 ), #425, .F. ) ;
#307 = LINE ( 'NONE', #65, #122 ) ;
#308 = ORIENTED_EDGE ( 'NONE', *, *, #164, .T. ) ;
#309 = CARTESIAN_POINT ( 'NONE',  ( -102.9372268244814990, -33.72263016300046701, 5.000000000000000000 ) ) ;
#310 = DIRECTION ( 'NONE',  ( -0.000000000000000000, -0.000000000000000000, -1.000000000000000000 ) ) ;
#311 = ORIENTED_EDGE ( 'NONE', *, *, #147, .F. ) ;
#312 = DIRECTION ( 'NONE',  ( 1.000000000000000000, 0.000000000000000000, 0.000000000000000000 ) ) ;
#313 = CARTESIAN_POINT ( 'NONE',  ( -97.93722682448149897, -19.72263016300045990, -8.673617379884035472E-16 ) ) ;
#314 = EDGE_LOOP ( 'NONE', ( #586, #230, #524, #54 ) ) ;
#315 = VECTOR ( 'NONE', #187, 1000.000000000000000 ) ;
#316 = EDGE_CURVE ( 'NONE', #125, #279, #278, .T. ) ;
#317 = VECTOR ( 'NONE', #227, 1000.000000000000000 ) ;
#318 = CIRCLE ( 'NONE', #264, 4.699999999999995737 ) ;
#319 = DIRECTION ( 'NONE',  ( 1.000000000000000000, 0.000000000000000000, 0.000000000000000000 ) ) ;
#320 = ORIENTED_EDGE ( 'NONE', *, *, #591, .F. ) ;
#321 = DIRECTION ( 'NONE',  ( -0.000000000000000000, -0.000000000000000000, 1.000000000000000000 ) ) ;
#322 = ORIENTED_EDGE ( 'NONE', *, *, #532, .F. ) ;
#323 = DIRECTION ( 'NONE',  ( -0.000000000000000000, -0.000000000000000000, -1.000000000000000000 ) ) ;
#324 = CARTESIAN_POINT ( 'NONE',  ( -100.9372268244814990, -5.722630163000443915, 5.000000000000000000 ) ) ;
#325 = AXIS2_PLACEMENT_3D ( 'NONE', #376, #321, #517 ) ;
#326 =( GEOMETRIC_REPRESENTATION_CONTEXT ( 3 ) GLOBAL_UNCERTAINTY_ASSIGNED_CONTEXT ( ( #31 ) ) GLOBAL_UNIT_ASSIGNED_CONTEXT ( ( #212, #548, #598 ) ) REPRESENTATION_CONTEXT ( 'NONE', 'WORKASPACE' ) );
#327 = FACE_OUTER_BOUND ( 'NONE', #213, .T. ) ;
#328 = EDGE_LOOP ( 'NONE', ( #179, #617, #308, #289 ) ) ;
#329 = FACE_BOUND ( 'NONE', #146, .T. ) ;
#330 = ORIENTED_EDGE ( 'NONE', *, *, #270, .F. ) ;
#331 = CARTESIAN_POINT ( 'NONE',  ( 63.06277317551847972, -33.72263016300044569, 5.000000000000000000 ) ) ;
#332 = VERTEX_POINT ( 'NONE', #127 ) ;
#333 = CARTESIAN_POINT ( 'NONE',  ( -100.9372268244814990, -5.722630163000443915, 5.000000000000000000 ) ) ;
#334 = AXIS2_PLACEMENT_3D ( 'NONE', #632, #490, #298 ) ;
#335 = DIRECTION ( 'NONE',  ( 1.000000000000000000, 0.000000000000000000, 0.000000000000000000 ) ) ;
#336 = ORIENTED_EDGE ( 'NONE', *, *, #430, .F. ) ;
#337 = CARTESIAN_POINT ( 'NONE',  ( -100.9372268244814848, -3.722630163000443915, 5.000000000000000000 ) ) ;
#338 = DIRECTION ( 'NONE',  ( 1.000000000000000000, 1.230300337572203632E-16, -0.000000000000000000 ) ) ;
#339 = VERTEX_POINT ( 'NONE', #229 ) ;
#340 = DIRECTION ( 'NONE',  ( -0.000000000000000000, -0.000000000000000000, -1.000000000000000000 ) ) ;
#341 = CARTESIAN_POINT ( 'NONE',  ( -77.93722682448151318, -19.72263016300045990, 0.000000000000000000 ) ) ;
#342 = ORIENTED_EDGE ( 'NONE', *, *, #268, .F. ) ;
#343 = AXIS2_PLACEMENT_3D ( 'NONE', #584, #344, #185 ) ;
#344 = DIRECTION ( 'NONE',  ( -0.000000000000000000, -0.000000000000000000, 1.000000000000000000 ) ) ;
#345 = DIRECTION ( 'NONE',  ( 1.000000000000000000, 0.000000000000000000, 0.000000000000000000 ) ) ;
#346 = ADVANCED_FACE ( 'NONE', ( #280 ), #180, .T. ) ;
#347 = DIRECTION ( 'NONE',  ( -0.000000000000000000, -1.000000000000000000, -0.000000000000000000 ) ) ;
#348 = VERTEX_POINT ( 'NONE', #419 ) ;
#349 = DIRECTION ( 'NONE',  ( 1.000000000000000000, -0.000000000000000000, -0.000000000000000000 ) ) ;
#350 = CARTESIAN_POINT ( 'NONE',  ( -102.6372268244815018, -19.72263016300045990, 5.000000000000000000 ) ) ;
#351 = ORIENTED_EDGE ( 'NONE', *, *, #287, .T. ) ;
#352 = EDGE_CURVE ( 'NONE', #135, #209, #431, .T. ) ;
#353 = ADVANCED_FACE ( 'NONE', ( #621 ), #274, .F. ) ;
#354 = DIRECTION ( 'NONE',  ( 0.000000000000000000, 1.000000000000000000, -0.000000000000000000 ) ) ;
#355 = AXIS2_PLACEMENT_3D ( 'NONE', #102, #544, #495 ) ;
#356 = VERTEX_POINT ( 'NONE', #575 ) ;
#357 = AXIS2_PLACEMENT_3D ( 'NONE', #196, #246, #394 ) ;
#358 = CARTESIAN_POINT ( 'NONE',  ( -100.9372268244814848, -3.722630163000443915, 5.000000000000000000 ) ) ;
#359 = LINE ( 'NONE', #262, #145 ) ;
#360 = ORIENTED_EDGE ( 'NONE', *, *, #572, .F. ) ;
#361 = DIRECTION ( 'NONE',  ( 1.000000000000000000, 0.000000000000000000, 0.000000000000000000 ) ) ;
#362 = CARTESIAN_POINT ( 'NONE',  ( 63.06277317551847972, -19.72263016300044214, 0.000000000000000000 ) ) ;
#363 = EDGE_CURVE ( 'NONE', #66, #356, #365, .T. ) ;
#364 = VERTEX_POINT ( 'NONE', #474 ) ;
#365 = LINE ( 'NONE', #476, #192 ) ;
#366 = ORIENTED_EDGE ( 'NONE', *, *, #221, .F. ) ;
#367 = AXIS2_PLACEMENT_3D ( 'NONE', #174, #130, #220 ) ;
#368 = CONICAL_SURFACE ( 'NONE', #27, 4.699999999999995737, 0.7853981633974469467 ) ;
#369 = VECTOR ( 'NONE', #349, 1000.000000000000000 ) ;
#370 = DIRECTION ( 'NONE',  ( -2.775557561562891844E-16, 1.000000000000000000, 0.000000000000000000 ) ) ;
#371 = DIRECTION ( 'NONE',  ( -0.000000000000000000, -0.000000000000000000, 1.000000000000000000 ) ) ;
#372 = PRODUCT_DEFINITION_SHAPE ( 'NONE', 'NONE',  #443 ) ;
#373 = EDGE_CURVE ( 'NONE', #480, #494, #272, .T. ) ;
#374 = CARTESIAN_POINT ( 'NONE',  ( 86.06277317551847261, -5.722630163000443915, 5.000000000000000000 ) ) ;
#375 = ORIENTED_EDGE ( 'NONE', *, *, #552, .F. ) ;
#376 = CARTESIAN_POINT ( 'NONE',  ( 83.06277317551847261, -19.72263016300045990, 5.000000000000000000 ) ) ;
#377 = VERTEX_POINT ( 'NONE', #573 ) ;
#378 = VECTOR ( 'NONE', #541, 1000.000000000000000 ) ;
#379 = DIRECTION ( 'NONE',  ( -0.000000000000000000, -0.000000000000000000, 1.000000000000000000 ) ) ;
#380 = ORIENTED_EDGE ( 'NONE', *, *, #567, .T. ) ;
#381 = DIRECTION ( 'NONE',  ( -1.230300337572203632E-16, 1.000000000000000000, 0.000000000000000000 ) ) ;
#382 = EDGE_LOOP ( 'NONE', ( #423, #351, #611, #620 ) ) ;
#383 = EDGE_CURVE ( 'NONE', #186, #226, #39, .T. ) ;
#384 = FACE_BOUND ( 'NONE', #571, .T. ) ;
#385 = DIRECTION ( 'NONE',  ( 0.000000000000000000, -1.000000000000000000, 0.000000000000000000 ) ) ;
#386 = PRODUCT_DEFINITION_FORMATION_WITH_SPECIFIED_SOURCE ( 'ANY', '', #465, .NOT_KNOWN. ) ;
#387 = PLANE ( 'NONE',  #302 ) ;
#388 = CLOSED_SHELL ( 'NONE', ( #176, #62, #391, #138, #470, #486, #525, #257, #182, #29, #88, #346, #600, #277, #546, #306, #131, #353, #8, #497 ) ) ;
#389 = DIRECTION ( 'NONE',  ( 1.000000000000000000, 0.000000000000000000, 0.000000000000000000 ) ) ;
#390 = ORIENTED_EDGE ( 'NONE', *, *, #430, .T. ) ;
#391 = ADVANCED_FACE ( 'NONE', ( #81 ), #121, .F. ) ;
#392 = PLANE ( 'NONE',  #242 ) ;
#393 = UNCERTAINTY_MEASURE_WITH_UNIT (LENGTH_MEASURE( 1.000000000000000082E-05 ), #305, 'distance_accuracy_value', 'NONE');
#394 = DIRECTION ( 'NONE',  ( 1.000000000000000000, 0.000000000000000000, 0.000000000000000000 ) ) ;
#395 = LINE ( 'NONE', #331, #48 ) ;
#396 = PRODUCT_RELATED_PRODUCT_CATEGORY ( 'part', '', ( #465 ) ) ;
#397 = CARTESIAN_POINT ( 'NONE',  ( 63.06277317551847972, -19.72263016300044214, 5.000000000000000000 ) ) ;
#398 = ORIENTED_EDGE ( 'NONE', *, *, #352, .F. ) ;
#399 = AXIS2_PLACEMENT_3D ( 'NONE', #14, #312, #165 ) ;
#400 = DIRECTION ( 'NONE',  ( 0.000000000000000000, 0.000000000000000000, 1.000000000000000000 ) ) ;
#401 = DIRECTION ( 'NONE',  ( 0.000000000000000000, -0.000000000000000000, -1.000000000000000000 ) ) ;
#402 = AXIS2_PLACEMENT_3D ( 'NONE', #374, #178, #84 ) ;
#403 = AXIS2_PLACEMENT_3D ( 'NONE', #436, #41, #485 ) ;
#404 = ORIENTED_EDGE ( 'NONE', *, *, #107, .F. ) ;
#405 = LINE ( 'NONE', #411, #74 ) ;
#406 = EDGE_CURVE ( 'NONE', #561, #364, #76, .T. ) ;
#407 = ORIENTED_EDGE ( 'NONE', *, *, #505, .T. ) ;
#408 = LINE ( 'NONE', #215, #482 ) ;
#409 = PLANE ( 'NONE',  #214 ) ;
#410 = VERTEX_POINT ( 'NONE', #23 ) ;
#411 = CARTESIAN_POINT ( 'NONE',  ( -100.9372268244814848, -3.722630163000443915, 0.000000000000000000 ) ) ;
#412 = ORIENTED_EDGE ( 'NONE', *, *, #463, .F. ) ;
#413 = VECTOR ( 'NONE', #15, 1000.000000000000000 ) ;
#414 = DIRECTION ( 'NONE',  ( -0.000000000000000000, -1.000000000000000000, -0.000000000000000000 ) ) ;
#415 = LINE ( 'NONE', #553, #502 ) ;
#416 = ORIENTED_EDGE ( 'NONE', *, *, #536, .T. ) ;
#417 = PRESENTATION_STYLE_ASSIGNMENT (( #218 ) ) ;
#418 = EDGE_LOOP ( 'NONE', ( #336, #35, #281, #80 ) ) ;
#419 = CARTESIAN_POINT ( 'NONE',  ( 88.06277317551847261, -33.72263016300044569, 0.000000000000000000 ) ) ;
#420 = VERTEX_POINT ( 'NONE', #625 ) ;
#421 = VECTOR ( 'NONE', #10, 1000.000000000000000 ) ;
#422 = CARTESIAN_POINT ( 'NONE',  ( 83.06277317551847261, -19.72263016300045990, 5.000000000000000000 ) ) ;
#423 = ORIENTED_EDGE ( 'NONE', *, *, #536, .F. ) ;
#424 = EDGE_CURVE ( 'NONE', #226, #186, #223, .T. ) ;
#425 = PLANE ( 'NONE',  #92 ) ;
#426 = ORIENTED_EDGE ( 'NONE', *, *, #629, .F. ) ;
#427 = CARTESIAN_POINT ( 'NONE',  ( -97.93722682448149897, -19.72263016300045990, 5.000000000000000000 ) ) ;
#428 = ORIENTED_EDGE ( 'NONE', *, *, #248, .T. ) ;
#429 = VECTOR ( 'NONE', #414, 1000.000000000000000 ) ;
#430 = EDGE_CURVE ( 'NONE', #125, #66, #449, .T. ) ;
#431 = LINE ( 'NONE', #171, #6 ) ;
#432 = ORIENTED_EDGE ( 'NONE', *, *, #618, .F. ) ;
#433 = FACE_OUTER_BOUND ( 'NONE', #184, .T. ) ;
#434 = LINE ( 'NONE', #397, #163 ) ;
#435 = ORIENTED_EDGE ( 'NONE', *, *, #70, .T. ) ;
#436 = CARTESIAN_POINT ( 'NONE',  ( 83.06277317551847261, -19.72263016300045990, -8.673617379884035472E-16 ) ) ;
#437 = CARTESIAN_POINT ( 'NONE',  ( -77.93722682448151318, -19.72263016300045990, 5.000000000000000000 ) ) ;
#438 = EDGE_CURVE ( 'NONE', #135, #589, #395, .T. ) ;
#439 = ORIENTED_EDGE ( 'NONE', *, *, #210, .T. ) ;
#440 = VECTOR ( 'NONE', #340, 1000.000000000000000 ) ;
#441 = DIRECTION ( 'NONE',  ( -0.000000000000000000, -0.000000000000000000, -1.000000000000000000 ) ) ;
#442 = DIRECTION ( 'NONE',  ( -0.000000000000000000, -0.000000000000000000, 1.000000000000000000 ) ) ;
#443 = PRODUCT_DEFINITION ( 'UNKNOWN', '', #386, #445 ) ;
#444 = CARTESIAN_POINT ( 'NONE',  ( -97.93722682448149897, -19.72263016300045990, 5.000000000000000000 ) ) ;
#445 = PRODUCT_DEFINITION_CONTEXT ( 'detailed design', #126, 'design' ) ;
#446 = CARTESIAN_POINT ( 'NONE',  ( 80.81277317551845840, -19.72263016300045990, -8.673617379884035472E-16 ) ) ;
#447 = CARTESIAN_POINT ( 'NONE',  ( 0.000000000000000000, 0.000000000000000000, 0.000000000000000000 ) ) ;
#448 = FACE_OUTER_BOUND ( 'NONE', #418, .T. ) ;
#449 = CIRCLE ( 'NONE', #355, 2.250000000000001776 ) ;
#450 = EDGE_CURVE ( 'NONE', #561, #348, #55, .T. ) ;
#451 = AXIS2_PLACEMENT_3D ( 'NONE', #44, #154, #345 ) ;
#452 = ORIENTED_EDGE ( 'NONE', *, *, #20, .F. ) ;
#453 = LINE ( 'NONE', #115, #369 ) ;
#454 = FACE_OUTER_BOUND ( 'NONE', #539, .T. ) ;
#455 = VERTEX_POINT ( 'NONE', #293 ) ;
#456 = LINE ( 'NONE', #30, #4 ) ;
#457 = ORIENTED_EDGE ( 'NONE', *, *, #40, .F. ) ;
#458 = EDGE_CURVE ( 'NONE', #120, #141, #543, .T. ) ;
#459 =( NAMED_UNIT ( * ) PLANE_ANGLE_UNIT ( ) SI_UNIT ( $, .RADIAN. ) );
#460 = FILL_AREA_STYLE ('',( #21 ) ) ;
#461 = VERTEX_POINT ( 'NONE', #95 ) ;
#462 = VECTOR ( 'NONE', #11, 1000.000000000000000 ) ;
#463 = EDGE_CURVE ( 'NONE', #461, #234, #318, .T. ) ;
#464 = CARTESIAN_POINT ( 'NONE',  ( -97.93722682448149897, -19.72263016300045990, 5.000000000000000000 ) ) ;
#465 = PRODUCT ( '\X2\0445\X0\2', '\X2\0445\X0\2', '', ( #57 ) ) ;
#466 = ORIENTED_EDGE ( 'NONE', *, *, #450, .T. ) ;
#467 = CARTESIAN_POINT ( 'NONE',  ( -100.1872268244814990, -19.72263016300045990, 2.549999999999999378 ) ) ;
#468 = ORIENTED_EDGE ( 'NONE', *, *, #478, .T. ) ;
#469 = DIRECTION ( 'NONE',  ( -0.000000000000000000, 1.000000000000000000, -0.000000000000000000 ) ) ;
#470 = ADVANCED_FACE ( 'NONE', ( #238 ), #631, .F. ) ;
#471 = ORIENTED_EDGE ( 'NONE', *, *, #189, .T. ) ;
#472 =( GEOMETRIC_REPRESENTATION_CONTEXT ( 3 ) GLOBAL_UNCERTAINTY_ASSIGNED_CONTEXT ( ( #393 ) ) GLOBAL_UNIT_ASSIGNED_CONTEXT ( ( #305, #459, #207 ) ) REPRESENTATION_CONTEXT ( 'NONE', 'WORKASPACE' ) );
#473 = AXIS2_PLACEMENT_3D ( 'NONE', #103, #42, #56 ) ;
#474 = CARTESIAN_POINT ( 'NONE',  ( 88.06277317551847261, -5.722630163000458126, 5.000000000000000000 ) ) ;
#475 = ORIENTED_EDGE ( 'NONE', *, *, #383, .F. ) ;
#476 = CARTESIAN_POINT ( 'NONE',  ( -95.68722682448149897, -19.72263016300045990, 5.000000000000000000 ) ) ;
#477 = ORIENTED_EDGE ( 'NONE', *, *, #96, .F. ) ;
#478 = EDGE_CURVE ( 'NONE', #364, #339, #198, .T. ) ;
#479 = CARTESIAN_POINT ( 'NONE',  ( -97.93722682448149897, -19.72263016300045990, 2.549999999999999378 ) ) ;
#480 = VERTEX_POINT ( 'NONE', #590 ) ;
#481 = AXIS2_PLACEMENT_3D ( 'NONE', #175, #371, #569 ) ;
#482 = VECTOR ( 'NONE', #347, 1000.000000000000000 ) ;
#483 = FACE_BOUND ( 'NONE', #87, .T. ) ;
#484 = DIRECTION ( 'NONE',  ( -0.000000000000000000, 1.000000000000000000, -0.000000000000000000 ) ) ;
#485 = DIRECTION ( 'NONE',  ( 1.000000000000000000, 0.000000000000000000, 0.000000000000000000 ) ) ;
#486 = ADVANCED_FACE ( 'NONE', ( #540 ), #387, .F. ) ;
#487 = FACE_OUTER_BOUND ( 'NONE', #190, .T. ) ;
#488 = EDGE_LOOP ( 'NONE', ( #296, #535, #172, #435 ) ) ;
#489 = DIRECTION ( 'NONE',  ( -0.000000000000000000, -1.000000000000000000, -0.000000000000000000 ) ) ;
#490 = DIRECTION ( 'NONE',  ( -0.000000000000000000, -0.000000000000000000, 1.000000000000000000 ) ) ;
#491 = CARTESIAN_POINT ( 'NONE',  ( 88.06277317551847261, -5.722630163000458126, 5.000000000000000000 ) ) ;
#492 = CIRCLE ( 'NONE', #334, 2.250000000000001776 ) ;
#493 = CARTESIAN_POINT ( 'NONE',  ( -77.93722682448151318, -33.72263016300045990, 5.000000000000000000 ) ) ;
#494 = VERTEX_POINT ( 'NONE', #99 ) ;
#495 = DIRECTION ( 'NONE',  ( 1.000000000000000000, 0.000000000000000000, 0.000000000000000000 ) ) ;
#496 = CARTESIAN_POINT ( 'NONE',  ( 83.06277317551847261, -19.72263016300045990, 5.000000000000000000 ) ) ;
#497 = ADVANCED_FACE ( 'NONE', ( #153 ), #511, .F. ) ;
#498 = APPLICATION_PROTOCOL_DEFINITION ( 'draft international standard', 'automotive_design', 1998, #110 ) ;
#499 = CARTESIAN_POINT ( 'NONE',  ( 88.06277317551847261, -5.722630163000458126, 5.000000000000000000 ) ) ;
#500 = VECTOR ( 'NONE', #619, 1000.000000000000000 ) ;
#501 = DIRECTION ( 'NONE',  ( 1.000000000000000000, 0.000000000000000000, 0.000000000000000000 ) ) ;
#502 = VECTOR ( 'NONE', #310, 1000.000000000000000 ) ;
#503 = EDGE_LOOP ( 'NONE', ( #471, #508, #520, #513 ) ) ;
#504 = DIRECTION ( 'NONE',  ( 1.000000000000000000, 2.775557561562891844E-16, -0.000000000000000000 ) ) ;
#505 = EDGE_CURVE ( 'NONE', #606, #332, #43, .T. ) ;
#506 = ORIENTED_EDGE ( 'NONE', *, *, #20, .T. ) ;
#507 = CARTESIAN_POINT ( 'NONE',  ( -102.9372268244814990, -33.72263016300046701, 5.000000000000000000 ) ) ;
#508 = ORIENTED_EDGE ( 'NONE', *, *, #450, .F. ) ;
#509 = EDGE_CURVE ( 'NONE', #550, #461, #587, .T. ) ;
#510 = CARTESIAN_POINT ( 'NONE',  ( -100.9372268244814848, -3.722630163000443915, 5.000000000000000000 ) ) ;
#511 = CONICAL_SURFACE ( 'NONE', #343, 4.699999999999995737, 0.7853981633974469467 ) ;
#512 = CARTESIAN_POINT ( 'NONE',  ( -77.93722682448151318, -33.72263016300045990, 5.000000000000000000 ) ) ;
#513 = ORIENTED_EDGE ( 'NONE', *, *, #240, .T. ) ;
#514 = CIRCLE ( 'NONE', #595, 2.250000000000001776 ) ;
#515 = DIRECTION ( 'NONE',  ( 1.000000000000000000, 0.000000000000000000, 0.000000000000000000 ) ) ;
#516 = ORIENTED_EDGE ( 'NONE', *, *, #373, .F. ) ;
#517 = DIRECTION ( 'NONE',  ( 1.000000000000000000, 0.000000000000000000, 0.000000000000000000 ) ) ;
#518 = ORIENTED_EDGE ( 'NONE', *, *, #236, .T. ) ;
#519 = FACE_BOUND ( 'NONE', #630, .T. ) ;
#520 = ORIENTED_EDGE ( 'NONE', *, *, #610, .F. ) ;
#521 = VECTOR ( 'NONE', #245, 1000.000000000000000 ) ;
#522 = CIRCLE ( 'NONE', #473, 2.250000000000001776 ) ;
#523 = PLANE ( 'NONE',  #134 ) ;
#524 = ORIENTED_EDGE ( 'NONE', *, *, #363, .T. ) ;
#525 = ADVANCED_FACE ( 'NONE', ( #433 ), #392, .F. ) ;
#526 = CARTESIAN_POINT ( 'NONE',  ( -77.93722682448151318, -33.72263016300045990, 5.000000000000000000 ) ) ;
#527 = ORIENTED_EDGE ( 'NONE', *, *, #129, .F. ) ;
#528 = CARTESIAN_POINT ( 'NONE',  ( 83.06277317551847261, -19.72263016300045990, -8.673617379884035472E-16 ) ) ;
#529 = DIRECTION ( 'NONE',  ( -0.000000000000000000, -0.000000000000000000, 1.000000000000000000 ) ) ;
#530 = AXIS2_PLACEMENT_3D ( 'NONE', #333, #533, #286 ) ;
#531 = CIRCLE ( 'NONE', #101, 2.000000000000001776 ) ;
#532 = EDGE_CURVE ( 'NONE', #377, #209, #282, .T. ) ;
#533 = DIRECTION ( 'NONE',  ( 0.000000000000000000, 0.000000000000000000, 1.000000000000000000 ) ) ;
#534 = CARTESIAN_POINT ( 'NONE',  ( -95.68722682448149897, -19.72263016300045990, -8.673617379884035472E-16 ) ) ;
#535 = ORIENTED_EDGE ( 'NONE', *, *, #33, .F. ) ;
#536 = EDGE_CURVE ( 'NONE', #141, #120, #562, .T. ) ;
#537 = CARTESIAN_POINT ( 'NONE',  ( 63.06277317551847972, -19.72263016300044214, 0.000000000000000000 ) ) ;
#538 = CYLINDRICAL_SURFACE ( 'NONE', #304, 2.250000000000001776 ) ;
#539 = EDGE_LOOP ( 'NONE', ( #77, #603, #83, #466 ) ) ;
#540 = FACE_OUTER_BOUND ( 'NONE', #167, .T. ) ;
#541 = DIRECTION ( 'NONE',  ( -0.000000000000000000, 1.000000000000000000, -0.000000000000000000 ) ) ;
#542 = ORIENTED_EDGE ( 'NONE', *, *, #604, .F. ) ;
#543 = CIRCLE ( 'NONE', #403, 2.250000000000001776 ) ;
#544 = DIRECTION ( 'NONE',  ( -0.000000000000000000, -0.000000000000000000, 1.000000000000000000 ) ) ;
#545 = CARTESIAN_POINT ( 'NONE',  ( -97.93722682448149897, -19.72263016300045990, 5.000000000000000000 ) ) ;
#546 = ADVANCED_FACE ( 'NONE', ( #483, #384, #579 ), #142, .T. ) ;
#547 = PLANE ( 'NONE',  #399 ) ;
#548 =( NAMED_UNIT ( * ) PLANE_ANGLE_UNIT ( ) SI_UNIT ( $, .RADIAN. ) );
#549 = LINE ( 'NONE', #301, #413 ) ;
#550 = VERTEX_POINT ( 'NONE', #556 ) ;
#551 = AXIS2_PLACEMENT_3D ( 'NONE', #422, #123, #319 ) ;
#552 = EDGE_CURVE ( 'NONE', #555, #410, #211, .T. ) ;
#553 = CARTESIAN_POINT ( 'NONE',  ( -77.93722682448151318, -19.72263016300045990, 5.000000000000000000 ) ) ;
#554 = AXIS2_PLACEMENT_3D ( 'NONE', #496, #628, #335 ) ;
#555 = VERTEX_POINT ( 'NONE', #255 ) ;
#556 = CARTESIAN_POINT ( 'NONE',  ( 80.81277317551845840, -19.72263016300045990, 2.549999999999999378 ) ) ;
#557 = DIRECTION ( 'NONE',  ( 0.000000000000000000, 0.000000000000000000, 1.000000000000000000 ) ) ;
#558 = ORIENTED_EDGE ( 'NONE', *, *, #582, .F. ) ;
#559 = LINE ( 'NONE', #156, #283 ) ;
#560 = CARTESIAN_POINT ( 'NONE',  ( -93.23722682448151033, -19.72263016300045990, 5.000000000000000000 ) ) ;
#561 = VERTEX_POINT ( 'NONE', #607 ) ;
#562 = CIRCLE ( 'NONE', #202, 2.250000000000001776 ) ;
#563 = DIRECTION ( 'NONE',  ( 1.000000000000000000, 0.000000000000000000, 0.000000000000000000 ) ) ;
#564 = MECHANICAL_DESIGN_GEOMETRIC_PRESENTATION_REPRESENTATION (  '', ( #155 ), #326 ) ;
#565 = ORIENTED_EDGE ( 'NONE', *, *, #49, .T. ) ;
#566 = AXIS2_PLACEMENT_3D ( 'NONE', #427, #379, #563 ) ;
#567 = EDGE_CURVE ( 'NONE', #332, #455, #173, .T. ) ;
#568 = DIRECTION ( 'NONE',  ( 0.000000000000000000, 0.000000000000000000, 1.000000000000000000 ) ) ;
#569 = DIRECTION ( 'NONE',  ( 1.000000000000000000, 0.000000000000000000, 0.000000000000000000 ) ) ;
#570 = CARTESIAN_POINT ( 'NONE',  ( -77.93722682448151318, -33.72263016300045990, 0.000000000000000000 ) ) ;
#571 = EDGE_LOOP ( 'NONE', ( #197, #412 ) ) ;
#572 = EDGE_CURVE ( 'NONE', #98, #303, #559, .T. ) ;
#573 = CARTESIAN_POINT ( 'NONE',  ( -77.93722682448151318, -19.72263016300045990, 0.000000000000000000 ) ) ;
#574 = EDGE_LOOP ( 'NONE', ( #219, #432, #375, #9 ) ) ;
#575 = CARTESIAN_POINT ( 'NONE',  ( -95.68722682448149897, -19.72263016300045990, 2.549999999999999378 ) ) ;
#576 = EDGE_LOOP ( 'NONE', ( #439, #626, #542, #105 ) ) ;
#577 = CARTESIAN_POINT ( 'NONE',  ( 63.06277317551847972, -33.72263016300044569, 5.000000000000000000 ) ) ;
#578 = ORIENTED_EDGE ( 'NONE', *, *, #210, .F. ) ;
#579 = FACE_OUTER_BOUND ( 'NONE', #128, .T. ) ;
#580 = CARTESIAN_POINT ( 'NONE',  ( 86.06277317551847261, -5.722630163000443915, 5.000000000000000000 ) ) ;
#581 = AXIS2_PLACEMENT_3D ( 'NONE', #259, #106, #601 ) ;
#582 = EDGE_CURVE ( 'NONE', #209, #420, #408, .T. ) ;
#583 = CIRCLE ( 'NONE', #82, 2.250000000000001776 ) ;
#584 = CARTESIAN_POINT ( 'NONE',  ( -97.93722682448149897, -19.72263016300045990, 5.000000000000000000 ) ) ;
#585 = CARTESIAN_POINT ( 'NONE',  ( -93.23722682448151033, -19.72263016300045990, 5.000000000000000000 ) ) ;
#586 = ORIENTED_EDGE ( 'NONE', *, *, #316, .F. ) ;
#587 = LINE ( 'NONE', #627, #521 ) ;
#588 = LINE ( 'NONE', #512, #224 ) ;
#589 = VERTEX_POINT ( 'NONE', #597 ) ;
#590 = CARTESIAN_POINT ( 'NONE',  ( 86.06277317551845840, -3.722630163000443027, 5.000000000000000000 ) ) ;
#591 = EDGE_CURVE ( 'NONE', #279, #356, #60, .T. ) ;
#592 = LINE ( 'NONE', #341, #378 ) ;
#593 = ORIENTED_EDGE ( 'NONE', *, *, #424, .T. ) ;
#594 = PRESENTATION_LAYER_ASSIGNMENT (  '', '', ( #155 ) ) ;
#595 = AXIS2_PLACEMENT_3D ( 'NONE', #479, #136, #515 ) ;
#596 = DIRECTION ( 'NONE',  ( -0.000000000000000000, 1.000000000000000000, -0.000000000000000000 ) ) ;
#597 = CARTESIAN_POINT ( 'NONE',  ( 63.06277317551847972, -33.72263016300044569, 5.000000000000000000 ) ) ;
#598 =( NAMED_UNIT ( * ) SI_UNIT ( $, .STERADIAN. ) SOLID_ANGLE_UNIT ( ) );
#599 = ORIENTED_EDGE ( 'NONE', *, *, #78, .T. ) ;
#600 = ADVANCED_FACE ( 'NONE', ( #119 ), #547, .F. ) ;
#601 = DIRECTION ( 'NONE',  ( 1.000000000000000000, 0.000000000000000000, 0.000000000000000000 ) ) ;
#602 = CARTESIAN_POINT ( 'NONE',  ( 88.06277317551847261, -33.72263016300044569, 5.000000000000000000 ) ) ;
#603 = ORIENTED_EDGE ( 'NONE', *, *, #478, .F. ) ;
#604 = EDGE_CURVE ( 'NONE', #480, #606, #251, .T. ) ;
#605 = VECTOR ( 'NONE', #634, 1000.000000000000000 ) ;
#606 = VERTEX_POINT ( 'NONE', #358 ) ;
#607 = CARTESIAN_POINT ( 'NONE',  ( 88.06277317551847261, -33.72263016300044569, 5.000000000000000000 ) ) ;
#608 = CARTESIAN_POINT ( 'NONE',  ( 87.76277317551846124, -19.72263016300045990, 5.000000000000000000 ) ) ;
#609 = ORIENTED_EDGE ( 'NONE', *, *, #438, .T. ) ;
#610 = EDGE_CURVE ( 'NONE', #589, #561, #453, .T. ) ;
#611 = ORIENTED_EDGE ( 'NONE', *, *, #96, .T. ) ;
#612 = VECTOR ( 'NONE', #112, 1000.000000000000000 ) ;
#613 = CARTESIAN_POINT ( 'NONE',  ( -100.1872268244814990, -19.72263016300045990, 5.000000000000000000 ) ) ;
#614 = VECTOR ( 'NONE', #201, 1000.000000000000000 ) ;
#615 = EDGE_LOOP ( 'NONE', ( #19, #366, #150, #599 ) ) ;
#616 = DIRECTION ( 'NONE',  ( -0.000000000000000000, -0.000000000000000000, -1.000000000000000000 ) ) ;
#617 = ORIENTED_EDGE ( 'NONE', *, *, #458, .F. ) ;
#618 = EDGE_CURVE ( 'NONE', #410, #98, #104, .T. ) ;
#619 = DIRECTION ( 'NONE',  ( -0.000000000000000000, -0.000000000000000000, 1.000000000000000000 ) ) ;
#620 = ORIENTED_EDGE ( 'NONE', *, *, #164, .F. ) ;
#621 = FACE_OUTER_BOUND ( 'NONE', #488, .T. ) ;
#622 = VECTOR ( 'NONE', #183, 1000.000000000000000 ) ;
#623 = ORIENTED_EDGE ( 'NONE', *, *, #618, .T. ) ;
#624 = AXIS2_PLACEMENT_3D ( 'NONE', #291, #385, #401 ) ;
#625 = CARTESIAN_POINT ( 'NONE',  ( 63.06277317551847972, -33.72263016300044569, 0.000000000000000000 ) ) ;
#626 = ORIENTED_EDGE ( 'NONE', *, *, #505, .F. ) ;
#627 = CARTESIAN_POINT ( 'NONE',  ( 78.36277317551846977, -19.72263016300045990, 5.000000000000000000 ) ) ;
#628 = DIRECTION ( 'NONE',  ( -0.000000000000000000, -0.000000000000000000, 1.000000000000000000 ) ) ;
#629 = EDGE_CURVE ( 'NONE', #455, #98, #160, .T. ) ;
#630 = EDGE_LOOP ( 'NONE', ( #228, #416 ) ) ;
#631 = PLANE ( 'NONE',  #253 ) ;
#632 = CARTESIAN_POINT ( 'NONE',  ( 83.06277317551847261, -19.72263016300045990, 2.549999999999999378 ) ) ;
#633 = CARTESIAN_POINT ( 'NONE',  ( 88.06277317551847261, -33.72263016300044569, 5.000000000000000000 ) ) ;
#634 = DIRECTION ( 'NONE',  ( 0.7071067811865465735, 0.000000000000000000, 0.7071067811865484609 ) ) ;
#635 = EDGE_LOOP ( 'NONE', ( #181, #360, #426, #16, #578, #527, #457, #137, #558, #322 ) ) ;
#636 = DIRECTION ( 'NONE',  ( -0.000000000000000000, -0.000000000000000000, 1.000000000000000000 ) ) ;
#637 = CARTESIAN_POINT ( 'NONE',  ( 88.06277317551847261, -5.722630163000458126, 0.000000000000000000 ) ) ;
ENDSEC;
END-ISO-10303-21;
