ISO-10303-21;
HEADER;
FILE_DESCRIPTION (( 'STEP AP214' ),
    '1' );
FILE_NAME ('õ3.STEP',
    '2026-01-21T22:07:01',
    ( '' ),
    ( '' ),
    'SwSTEP 2.0',
    'SolidWorks 2024',
    '' );
FILE_SCHEMA (( 'AUTOMOTIVE_DESIGN' ));
ENDSEC;

DATA;
#1 = VERTEX_POINT ( 'NONE', #3 ) ;
#2 = LINE ( 'NONE', #708, #713 ) ;
#3 = CARTESIAN_POINT ( 'NONE',  ( -85.89676806291900846, 24.95806861499363549, 15.00000000000000000 ) ) ;
#4 =( NAMED_UNIT ( * ) SI_UNIT ( $, .STERADIAN. ) SOLID_ANGLE_UNIT ( ) );
#5 = ORIENTED_EDGE ( 'NONE', *, *, #179, .T. ) ;
#6 = ORIENTED_EDGE ( 'NONE', *, *, #403, .T. ) ;
#7 = VECTOR ( 'NONE', #677, 1000.000000000000000 ) ;
#8 =( LENGTH_UNIT ( ) NAMED_UNIT ( * ) SI_UNIT ( .MILLI., .METRE. ) );
#9 = EDGE_CURVE ( 'NONE', #230, #146, #127, .T. ) ;
#10 = DIRECTION ( 'NONE',  ( -1.000000000000000000, -0.000000000000000000, -0.000000000000000000 ) ) ;
#11 = ORIENTED_EDGE ( 'NONE', *, *, #211, .F. ) ;
#12 = ORIENTED_EDGE ( 'NONE', *, *, #764, .T. ) ;
#13 = DIRECTION ( 'NONE',  ( -1.000000000000000000, -0.000000000000000000, -0.000000000000000000 ) ) ;
#14 = EDGE_CURVE ( 'NONE', #75, #108, #649, .T. ) ;
#15 = FACE_BOUND ( 'NONE', #675, .T. ) ;
#16 = VERTEX_POINT ( 'NONE', #251 ) ;
#17 = ORIENTED_EDGE ( 'NONE', *, *, #531, .F. ) ;
#18 = DIRECTION ( 'NONE',  ( 0.000000000000000000, 0.000000000000000000, 1.000000000000000000 ) ) ;
#19 = PLANE ( 'NONE',  #290 ) ;
#20 = EDGE_CURVE ( 'NONE', #387, #141, #352, .T. ) ;
#21 = ORIENTED_EDGE ( 'NONE', *, *, #531, .T. ) ;
#22 = ORIENTED_EDGE ( 'NONE', *, *, #380, .F. ) ;
#23 = CARTESIAN_POINT ( 'NONE',  ( 91.10323193708099154, 22.95806861499362483, 15.00000000000000000 ) ) ;
#24 = DIRECTION ( 'NONE',  ( 0.000000000000000000, 0.000000000000000000, 1.000000000000000000 ) ) ;
#25 = AXIS2_PLACEMENT_3D ( 'NONE', #67, #130, #647 ) ;
#26 = VERTEX_POINT ( 'NONE', #601 ) ;
#27 = ORIENTED_EDGE ( 'NONE', *, *, #42, .F. ) ;
#28 = LINE ( 'NONE', #443, #301 ) ;
#29 = DIRECTION ( 'NONE',  ( 0.000000000000000000, 0.000000000000000000, 1.000000000000000000 ) ) ;
#30 = ORIENTED_EDGE ( 'NONE', *, *, #124, .T. ) ;
#31 = DIRECTION ( 'NONE',  ( 1.000000000000000000, 1.156482317317871478E-16, -0.000000000000000000 ) ) ;
#32 = ADVANCED_FACE ( 'NONE', ( #554 ), #313, .T. ) ;
#33 = FACE_OUTER_BOUND ( 'NONE', #656, .T. ) ;
#34 = EDGE_LOOP ( 'NONE', ( #715, #449, #599, #12 ) ) ;
#35 = VECTOR ( 'NONE', #740, 1000.000000000000000 ) ;
#36 = CARTESIAN_POINT ( 'NONE',  ( 76.10323193708099154, -3.041931385006363175, 0.000000000000000000 ) ) ;
#37 = AXIS2_PLACEMENT_3D ( 'NONE', #96, #365, #447 ) ;
#38 = VECTOR ( 'NONE', #118, 1000.000000000000000 ) ;
#39 = ORIENTED_EDGE ( 'NONE', *, *, #516, .F. ) ;
#40 = CARTESIAN_POINT ( 'NONE',  ( -90.89676806291900846, 9.958068614993628387, 7.750000000000000888 ) ) ;
#41 = CARTESIAN_POINT ( 'NONE',  ( 88.65323193708097449, 9.958068614993631940, 12.24999999999999112 ) ) ;
#42 = EDGE_CURVE ( 'NONE', #340, #551, #299, .T. ) ;
#43 = VERTEX_POINT ( 'NONE', #139 ) ;
#44 = LINE ( 'NONE', #285, #38 ) ;
#45 = DIRECTION ( 'NONE',  ( 0.000000000000000000, -1.000000000000000000, 0.000000000000000000 ) ) ;
#46 = ORIENTED_EDGE ( 'NONE', *, *, #639, .F. ) ;
#47 = DIRECTION ( 'NONE',  ( -0.7071067811865470176, 0.000000000000000000, 0.7071067811865481278 ) ) ;
#48 = DIRECTION ( 'NONE',  ( -1.000000000000000000, -0.000000000000000000, -0.000000000000000000 ) ) ;
#49 = AXIS2_PLACEMENT_3D ( 'NONE', #721, #557, #441 ) ;
#50 = CIRCLE ( 'NONE', #689, 2.249999999999995115 ) ;
#51 = EDGE_CURVE ( 'NONE', #368, #507, #664, .T. ) ;
#52 = ADVANCED_BREP_SHAPE_REPRESENTATION ( '\X2\0445\X0\3', ( #417, #654 ), #94 ) ;
#53 = VERTEX_POINT ( 'NONE', #768 ) ;
#54 = DIRECTION ( 'NONE',  ( 0.000000000000000000, 0.000000000000000000, -1.000000000000000000 ) ) ;
#55 = DIRECTION ( 'NONE',  ( 1.000000000000000000, 1.548860246407863829E-16, -0.000000000000000000 ) ) ;
#56 = FACE_OUTER_BOUND ( 'NONE', #559, .T. ) ;
#57 = EDGE_CURVE ( 'NONE', #108, #166, #595, .T. ) ;
#58 = CARTESIAN_POINT ( 'NONE',  ( 91.10323193708099154, 9.958068614993631940, 10.00000000000000355 ) ) ;
#59 = ADVANCED_FACE ( 'NONE', ( #65 ), #539, .F. ) ;
#60 = LINE ( 'NONE', #659, #724 ) ;
#61 = AXIS2_PLACEMENT_3D ( 'NONE', #737, #633, #617 ) ;
#62 = AXIS2_PLACEMENT_3D ( 'NONE', #375, #731, #560 ) ;
#63 = FACE_OUTER_BOUND ( 'NONE', #486, .T. ) ;
#64 = DIRECTION ( 'NONE',  ( 1.000000000000000000, -0.000000000000000000, -0.000000000000000000 ) ) ;
#65 = FACE_OUTER_BOUND ( 'NONE', #126, .T. ) ;
#66 = EDGE_CURVE ( 'NONE', #166, #230, #60, .T. ) ;
#67 = CARTESIAN_POINT ( 'NONE',  ( -88.89676806291900846, 22.95806861499363904, 5.000000000000000000 ) ) ;
#68 = CARTESIAN_POINT ( 'NONE',  ( 86.10323193708099154, -3.041931385006363175, 15.00000000000000000 ) ) ;
#69 = EDGE_CURVE ( 'NONE', #43, #762, #135, .T. ) ;
#70 = EDGE_LOOP ( 'NONE', ( #318, #344, #281, #400, #564, #690 ) ) ;
#71 = DIRECTION ( 'NONE',  ( 0.000000000000000000, 0.000000000000000000, 1.000000000000000000 ) ) ;
#72 = LINE ( 'NONE', #543, #421 ) ;
#73 = ORIENTED_EDGE ( 'NONE', *, *, #438, .T. ) ;
#74 = CLOSED_SHELL ( 'NONE', ( #425, #488, #741, #112, #669, #116, #187, #748, #524, #148, #59, #444, #343, #765, #769, #295, #547, #32, #563, #174, #82, #620, #571, #231 ) ) ;
#75 = VERTEX_POINT ( 'NONE', #68 ) ;
#76 = CIRCLE ( 'NONE', #450, 2.249999999999988010 ) ;
#77 = EDGE_CURVE ( 'NONE', #734, #570, #306, .T. ) ;
#78 = AXIS2_PLACEMENT_3D ( 'NONE', #423, #481, #714 ) ;
#79 = CARTESIAN_POINT ( 'NONE',  ( 86.10323193708099154, -3.041931385006363175, 15.00000000000000000 ) ) ;
#80 = CARTESIAN_POINT ( 'NONE',  ( -90.89676806291900846, 9.958068614993628387, 9.999999999999994671 ) ) ;
#81 = ORIENTED_EDGE ( 'NONE', *, *, #499, .T. ) ;
#82 = ADVANCED_FACE ( 'NONE', ( #234 ), #464, .F. ) ;
#83 = LINE ( 'NONE', #87, #337 ) ;
#84 = CARTESIAN_POINT ( 'NONE',  ( 89.10323193708097733, 24.95806861499363904, 0.000000000000000000 ) ) ;
#85 = PRODUCT_DEFINITION_SHAPE ( 'NONE', 'NONE',  #121 ) ;
#86 = ORIENTED_EDGE ( 'NONE', *, *, #722, .T. ) ;
#87 = CARTESIAN_POINT ( 'NONE',  ( 91.10323193708099154, 9.958068614993631940, 7.750000000000009770 ) ) ;
#88 = LINE ( 'NONE', #445, #140 ) ;
#89 = EDGE_CURVE ( 'NONE', #16, #370, #240, .T. ) ;
#90 = ORIENTED_EDGE ( 'NONE', *, *, #246, .T. ) ;
#91 = FACE_BOUND ( 'NONE', #414, .T. ) ;
#92 = VECTOR ( 'NONE', #529, 1000.000000000000000 ) ;
#93 = CARTESIAN_POINT ( 'NONE',  ( 89.10323193708099154, 22.95806861499364260, 15.00000000000000000 ) ) ;
#94 =( GEOMETRIC_REPRESENTATION_CONTEXT ( 3 ) GLOBAL_UNCERTAINTY_ASSIGNED_CONTEXT ( ( #287 ) ) GLOBAL_UNIT_ASSIGNED_CONTEXT ( ( #305, #361, #4 ) ) REPRESENTATION_CONTEXT ( 'NONE', 'WORKASPACE' ) );
#95 = EDGE_LOOP ( 'NONE', ( #458, #575, #311, #626 ) ) ;
#96 = CARTESIAN_POINT ( 'NONE',  ( 86.10323193708099154, 24.95806861499363904, 15.00000000000000000 ) ) ;
#97 = DIRECTION ( 'NONE',  ( -0.000000000000000000, -0.000000000000000000, -1.000000000000000000 ) ) ;
#98 = ORIENTED_EDGE ( 'NONE', *, *, #162, .F. ) ;
#99 = FACE_OUTER_BOUND ( 'NONE', #242, .T. ) ;
#100 = DIRECTION ( 'NONE',  ( 1.000000000000000000, 0.000000000000000000, 0.000000000000000000 ) ) ;
#101 = ORIENTED_EDGE ( 'NONE', *, *, #764, .F. ) ;
#102 = DIRECTION ( 'NONE',  ( -1.000000000000000000, -1.949127501097536508E-17, -0.000000000000000000 ) ) ;
#103 = EDGE_CURVE ( 'NONE', #522, #53, #394, .T. ) ;
#104 = VECTOR ( 'NONE', #519, 1000.000000000000000 ) ;
#105 = DIRECTION ( 'NONE',  ( 1.000000000000000000, -0.000000000000000000, -0.000000000000000000 ) ) ;
#106 = CIRCLE ( 'NONE', #497, 2.000000000000001776 ) ;
#107 = AXIS2_PLACEMENT_3D ( 'NONE', #133, #412, #302 ) ;
#108 = VERTEX_POINT ( 'NONE', #149 ) ;
#109 = DIRECTION ( 'NONE',  ( -1.000000000000000000, 0.000000000000000000, 0.000000000000000000 ) ) ;
#110 = VERTEX_POINT ( 'NONE', #376 ) ;
#111 = CARTESIAN_POINT ( 'NONE',  ( -90.89676806291900846, 22.95806861499362128, 15.00000000000000000 ) ) ;
#112 = ADVANCED_FACE ( 'NONE', ( #33 ), #624, .F. ) ;
#113 = CARTESIAN_POINT ( 'NONE',  ( -88.89676806291900846, 22.95806861499363904, 0.000000000000000000 ) ) ;
#114 = VECTOR ( 'NONE', #355, 1000.000000000000000 ) ;
#115 = AXIS2_PLACEMENT_3D ( 'NONE', #378, #673, #18 ) ;
#116 = ADVANCED_FACE ( 'NONE', ( #221, #15 ), #213, .F. ) ;
#117 = VERTEX_POINT ( 'NONE', #621 ) ;
#118 = DIRECTION ( 'NONE',  ( -0.000000000000000000, -0.000000000000000000, -1.000000000000000000 ) ) ;
#119 = DIRECTION ( 'NONE',  ( -1.000000000000000000, -0.000000000000000000, -0.000000000000000000 ) ) ;
#120 = ORIENTED_EDGE ( 'NONE', *, *, #162, .T. ) ;
#121 = PRODUCT_DEFINITION ( 'UNKNOWN', '', #129, #381 ) ;
#122 = CARTESIAN_POINT ( 'NONE',  ( 88.65323193708097449, 9.958068614993631940, 7.750000000000015987 ) ) ;
#123 = DIRECTION ( 'NONE',  ( 1.000000000000000000, 0.000000000000000000, 0.000000000000000000 ) ) ;
#124 = EDGE_CURVE ( 'NONE', #570, #236, #372, .T. ) ;
#125 = LINE ( 'NONE', #594, #562 ) ;
#126 = EDGE_LOOP ( 'NONE', ( #258, #743, #377, #270 ) ) ;
#127 = CIRCLE ( 'NONE', #407, 2.000000000000001776 ) ;
#128 = AXIS2_PLACEMENT_3D ( 'NONE', #58, #64, #653 ) ;
#129 = PRODUCT_DEFINITION_FORMATION_WITH_SPECIFIED_SOURCE ( 'ANY', '', #636, .NOT_KNOWN. ) ;
#130 = DIRECTION ( 'NONE',  ( -0.000000000000000000, -0.000000000000000000, -1.000000000000000000 ) ) ;
#131 = ORIENTED_EDGE ( 'NONE', *, *, #702, .F. ) ;
#132 = EDGE_LOOP ( 'NONE', ( #207, #541, #351, #483 ) ) ;
#133 = CARTESIAN_POINT ( 'NONE',  ( -88.89676806291899425, 24.95806861499363549, 5.000000000000000000 ) ) ;
#134 =( NAMED_UNIT ( * ) PLANE_ANGLE_UNIT ( ) SI_UNIT ( $, .RADIAN. ) );
#135 = LINE ( 'NONE', #363, #321 ) ;
#136 = EDGE_CURVE ( 'NONE', #613, #325, #192, .T. ) ;
#137 = ORIENTED_EDGE ( 'NONE', *, *, #760, .T. ) ;
#138 = DIRECTION ( 'NONE',  ( 0.000000000000000000, 0.000000000000000000, -1.000000000000000000 ) ) ;
#139 = CARTESIAN_POINT ( 'NONE',  ( -90.89676806291900846, -3.041931385006364064, 15.00000000000000000 ) ) ;
#140 = VECTOR ( 'NONE', #97, 1000.000000000000000 ) ;
#141 = VERTEX_POINT ( 'NONE', #433 ) ;
#142 = VECTOR ( 'NONE', #330, 1000.000000000000000 ) ;
#143 = FACE_OUTER_BOUND ( 'NONE', #603, .T. ) ;
#144 = DIRECTION ( 'NONE',  ( 0.000000000000000000, 0.000000000000000000, 1.000000000000000000 ) ) ;
#145 = ORIENTED_EDGE ( 'NONE', *, *, #583, .F. ) ;
#146 = VERTEX_POINT ( 'NONE', #84 ) ;
#147 = DIRECTION ( 'NONE',  ( 0.000000000000000000, 0.000000000000000000, 1.000000000000000000 ) ) ;
#148 = ADVANCED_FACE ( 'NONE', ( #263 ), #503, .F. ) ;
#149 = CARTESIAN_POINT ( 'NONE',  ( 91.10323193708099154, -3.041931385006363175, 15.00000000000000000 ) ) ;
#150 = VERTEX_POINT ( 'NONE', #327 ) ;
#151 = ORIENTED_EDGE ( 'NONE', *, *, #66, .F. ) ;
#152 = DIRECTION ( 'NONE',  ( -0.000000000000000000, -0.000000000000000000, -1.000000000000000000 ) ) ;
#153 = DIRECTION ( 'NONE',  ( 0.000000000000000000, 1.000000000000000000, -0.000000000000000000 ) ) ;
#154 = ORIENTED_EDGE ( 'NONE', *, *, #103, .F. ) ;
#155 = AXIS2_PLACEMENT_3D ( 'NONE', #268, #732, #678 ) ;
#156 = FACE_OUTER_BOUND ( 'NONE', #254, .T. ) ;
#157 = VECTOR ( 'NONE', #745, 1000.000000000000000 ) ;
#158 = CARTESIAN_POINT ( 'NONE',  ( -88.89676806291899425, 24.95806861499363549, 15.00000000000000000 ) ) ;
#159 = ORIENTED_EDGE ( 'NONE', *, *, #540, .F. ) ;
#160 = DIRECTION ( 'NONE',  ( 0.000000000000000000, 0.000000000000000000, -1.000000000000000000 ) ) ;
#161 = CARTESIAN_POINT ( 'NONE',  ( 86.10323193708099154, 24.95806861499363904, 15.00000000000000000 ) ) ;
#162 = EDGE_CURVE ( 'NONE', #668, #730, #168, .T. ) ;
#163 = ORIENTED_EDGE ( 'NONE', *, *, #211, .T. ) ;
#164 = CARTESIAN_POINT ( 'NONE',  ( -76.89676806291900846, -3.041931385006362731, 5.000000000000000000 ) ) ;
#165 = CARTESIAN_POINT ( 'NONE',  ( -85.89676806291900846, -3.041931385006364952, 15.00000000000000000 ) ) ;
#166 = VERTEX_POINT ( 'NONE', #509 ) ;
#167 = PLANE ( 'NONE',  #753 ) ;
#168 = CIRCLE ( 'NONE', #752, 2.249999999999994227 ) ;
#169 = DIRECTION ( 'NONE',  ( 0.000000000000000000, -1.000000000000000000, 0.000000000000000000 ) ) ;
#170 = CIRCLE ( 'NONE', #597, 2.249999999999994227 ) ;
#171 = VECTOR ( 'NONE', #102, 1000.000000000000000 ) ;
#172 = EDGE_LOOP ( 'NONE', ( #120, #686 ) ) ;
#173 = CARTESIAN_POINT ( 'NONE',  ( -90.89676806291900846, 22.95806861499362128, 15.00000000000000000 ) ) ;
#174 = ADVANCED_FACE ( 'NONE', ( #217 ), #19, .T. ) ;
#175 = DIRECTION ( 'NONE',  ( 0.000000000000000000, 0.000000000000000000, 1.000000000000000000 ) ) ;
#176 = ORIENTED_EDGE ( 'NONE', *, *, #136, .T. ) ;
#177 = DIRECTION ( 'NONE',  ( 0.000000000000000000, -1.000000000000000000, 0.000000000000000000 ) ) ;
#178 = CARTESIAN_POINT ( 'NONE',  ( -90.89676806291900846, 22.95806861499362128, 0.000000000000000000 ) ) ;
#179 = EDGE_CURVE ( 'NONE', #551, #340, #472, .T. ) ;
#180 = EDGE_CURVE ( 'NONE', #387, #307, #88, .T. ) ;
#181 = ORIENTED_EDGE ( 'NONE', *, *, #457, .F. ) ;
#182 = DIRECTION ( 'NONE',  ( -0.000000000000000000, -0.000000000000000000, -1.000000000000000000 ) ) ;
#183 = AXIS2_PLACEMENT_3D ( 'NONE', #245, #477, #188 ) ;
#184 = ORIENTED_EDGE ( 'NONE', *, *, #630, .T. ) ;
#185 = DIRECTION ( 'NONE',  ( -0.000000000000000000, -0.000000000000000000, -1.000000000000000000 ) ) ;
#186 = DIRECTION ( 'NONE',  ( -1.000000000000000000, -0.000000000000000000, -0.000000000000000000 ) ) ;
#187 = ADVANCED_FACE ( 'NONE', ( #448 ), #561, .F. ) ;
#188 = DIRECTION ( 'NONE',  ( 0.000000000000000000, 0.000000000000000000, -1.000000000000000000 ) ) ;
#189 = ORIENTED_EDGE ( 'NONE', *, *, #51, .F. ) ;
#190 = DIRECTION ( 'NONE',  ( -0.000000000000000000, 1.000000000000000000, -0.000000000000000000 ) ) ;
#191 = CARTESIAN_POINT ( 'NONE',  ( -88.89676806291900846, 22.95806861499363904, 15.00000000000000000 ) ) ;
#192 = CIRCLE ( 'NONE', #49, 2.249999999999995115 ) ;
#193 = AXIS2_PLACEMENT_3D ( 'NONE', #687, #396, #341 ) ;
#194 = LINE ( 'NONE', #296, #666 ) ;
#195 = EDGE_CURVE ( 'NONE', #1, #16, #674, .T. ) ;
#196 = DIRECTION ( 'NONE',  ( 0.000000000000000000, 0.000000000000000000, 1.000000000000000000 ) ) ;
#197 = ORIENTED_EDGE ( 'NONE', *, *, #430, .T. ) ;
#198 = DIRECTION ( 'NONE',  ( -0.000000000000000000, 1.000000000000000000, -0.000000000000000000 ) ) ;
#199 = APPLICATION_CONTEXT ( 'automotive_design' ) ;
#200 = DIRECTION ( 'NONE',  ( 1.000000000000000000, 1.156482317317871478E-16, -0.000000000000000000 ) ) ;
#201 = ORIENTED_EDGE ( 'NONE', *, *, #349, .F. ) ;
#202 = PLANE ( 'NONE',  #115 ) ;
#203 = CARTESIAN_POINT ( 'NONE',  ( -88.44676806291899140, 9.958068614993628387, 9.999999999999994671 ) ) ;
#204 = ORIENTED_EDGE ( 'NONE', *, *, #124, .F. ) ;
#205 = VECTOR ( 'NONE', #31, 1000.000000000000000 ) ;
#206 = AXIS2_PLACEMENT_3D ( 'NONE', #282, #577, #160 ) ;
#207 = ORIENTED_EDGE ( 'NONE', *, *, #707, .F. ) ;
#208 = LINE ( 'NONE', #735, #142 ) ;
#209 = DIRECTION ( 'NONE',  ( 0.000000000000000000, 0.000000000000000000, 1.000000000000000000 ) ) ;
#210 = ORIENTED_EDGE ( 'NONE', *, *, #14, .T. ) ;
#211 = EDGE_CURVE ( 'NONE', #606, #230, #379, .T. ) ;
#212 = DIRECTION ( 'NONE',  ( 1.000000000000000000, -0.000000000000000000, -0.000000000000000000 ) ) ;
#213 = PLANE ( 'NONE',  #510 ) ;
#214 = ORIENTED_EDGE ( 'NONE', *, *, #583, .T. ) ;
#215 = DIRECTION ( 'NONE',  ( -0.000000000000000000, -1.000000000000000000, -0.000000000000000000 ) ) ;
#216 = EDGE_CURVE ( 'NONE', #16, #26, #566, .T. ) ;
#217 = FACE_OUTER_BOUND ( 'NONE', #622, .T. ) ;
#218 = ORIENTED_EDGE ( 'NONE', *, *, #457, .T. ) ;
#219 = AXIS2_PLACEMENT_3D ( 'NONE', #635, #48, #585 ) ;
#220 = FACE_OUTER_BOUND ( 'NONE', #470, .T. ) ;
#221 = FACE_OUTER_BOUND ( 'NONE', #314, .T. ) ;
#222 = EDGE_CURVE ( 'NONE', #150, #110, #569, .T. ) ;
#223 = ORIENTED_EDGE ( 'NONE', *, *, #536, .T. ) ;
#224 = LINE ( 'NONE', #40, #451 ) ;
#225 = LINE ( 'NONE', #521, #742 ) ;
#226 = EDGE_CURVE ( 'NONE', #570, #359, #459, .T. ) ;
#227 = ORIENTED_EDGE ( 'NONE', *, *, #639, .T. ) ;
#228 = CARTESIAN_POINT ( 'NONE',  ( -90.89676806291900846, 9.958068614993628387, 14.69999999999999396 ) ) ;
#229 = CARTESIAN_POINT ( 'NONE',  ( -76.89676806291900846, 6.958068614993637269, 5.000000000000000000 ) ) ;
#230 = VERTEX_POINT ( 'NONE', #345 ) ;
#231 = ADVANCED_FACE ( 'NONE', ( #232 ), #252, .F. ) ;
#232 = FACE_OUTER_BOUND ( 'NONE', #284, .T. ) ;
#233 = VECTOR ( 'NONE', #312, 1000.000000000000000 ) ;
#234 = FACE_OUTER_BOUND ( 'NONE', #672, .T. ) ;
#235 = FACE_OUTER_BOUND ( 'NONE', #638, .T. ) ;
#236 = VERTEX_POINT ( 'NONE', #342 ) ;
#237 = FACE_OUTER_BOUND ( 'NONE', #383, .T. ) ;
#238 = CARTESIAN_POINT ( 'NONE',  ( -88.89676806291900846, 22.95806861499363904, 0.000000000000000000 ) ) ;
#239 = FACE_OUTER_BOUND ( 'NONE', #70, .T. ) ;
#240 = CIRCLE ( 'NONE', #346, 2.000000000000001776 ) ;
#241 = EDGE_CURVE ( 'NONE', #110, #693, #688, .T. ) ;
#242 = EDGE_LOOP ( 'NONE', ( #749, #422, #333, #584, #427, #364 ) ) ;
#243 = DIRECTION ( 'NONE',  ( 0.000000000000000000, -1.000000000000000000, 0.000000000000000000 ) ) ;
#244 = DIRECTION ( 'NONE',  ( 0.000000000000000000, 0.000000000000000000, 1.000000000000000000 ) ) ;
#245 = CARTESIAN_POINT ( 'NONE',  ( 91.10323193708099154, 9.958068614993631940, 10.00000000000000355 ) ) ;
#246 = EDGE_CURVE ( 'NONE', #43, #374, #225, .T. ) ;
#247 = DIRECTION ( 'NONE',  ( 0.000000000000000000, 0.000000000000000000, 1.000000000000000000 ) ) ;
#248 = ORIENTED_EDGE ( 'NONE', *, *, #722, .F. ) ;
#249 = EDGE_CURVE ( 'NONE', #110, #141, #291, .T. ) ;
#250 = DIRECTION ( 'NONE',  ( -0.000000000000000000, 1.000000000000000000, -0.000000000000000000 ) ) ;
#251 = CARTESIAN_POINT ( 'NONE',  ( -88.89676806291899425, 24.95806861499363904, 15.00000000000000000 ) ) ;
#252 = CONICAL_SURFACE ( 'NONE', #219, 4.699999999999999289, 0.7853981633974490562 ) ;
#253 = VECTOR ( 'NONE', #119, 1000.000000000000000 ) ;
#254 = EDGE_LOOP ( 'NONE', ( #618, #758, #81, #614 ) ) ;
#255 = LINE ( 'NONE', #476, #266 ) ;
#256 = DIRECTION ( 'NONE',  ( -0.000000000000000000, 1.000000000000000000, -0.000000000000000000 ) ) ;
#257 = ORIENTED_EDGE ( 'NONE', *, *, #403, .F. ) ;
#258 = ORIENTED_EDGE ( 'NONE', *, *, #698, .T. ) ;
#259 = CARTESIAN_POINT ( 'NONE',  ( 91.10323193708099154, 9.958068614993631940, 14.70000000000000284 ) ) ;
#260 = CARTESIAN_POINT ( 'NONE',  ( 91.10323193708099154, 22.95806861499362483, 5.000000000000000000 ) ) ;
#261 = EDGE_LOOP ( 'NONE', ( #17, #683, #558, #201 ) ) ;
#262 = CARTESIAN_POINT ( 'NONE',  ( -76.89676806291900846, -3.041931385006362731, 0.000000000000000000 ) ) ;
#263 = FACE_OUTER_BOUND ( 'NONE', #426, .T. ) ;
#264 = EDGE_CURVE ( 'NONE', #507, #368, #76, .T. ) ;
#265 = ORIENTED_EDGE ( 'NONE', *, *, #195, .T. ) ;
#266 = VECTOR ( 'NONE', #190, 1000.000000000000000 ) ;
#267 = DIRECTION ( 'NONE',  ( 0.000000000000000000, 0.000000000000000000, 1.000000000000000000 ) ) ;
#268 = CARTESIAN_POINT ( 'NONE',  ( -88.89676806291900846, 22.95806861499363904, 5.000000000000000000 ) ) ;
#269 = ORIENTED_EDGE ( 'NONE', *, *, #702, .T. ) ;
#270 = ORIENTED_EDGE ( 'NONE', *, *, #380, .T. ) ;
#271 = CARTESIAN_POINT ( 'NONE',  ( 86.10323193708099154, 9.958068614993631940, 10.00000000000000355 ) ) ;
#272 = CARTESIAN_POINT ( 'NONE',  ( 86.10323193708099154, 9.958068614993631940, 10.00000000000000355 ) ) ;
#273 = VERTEX_POINT ( 'NONE', #578 ) ;
#274 = DIRECTION ( 'NONE',  ( 1.000000000000000000, 0.000000000000000000, -0.000000000000000000 ) ) ;
#275 = EDGE_CURVE ( 'NONE', #606, #520, #106, .T. ) ;
#276 = DIRECTION ( 'NONE',  ( -1.000000000000000000, -0.000000000000000000, -0.000000000000000000 ) ) ;
#277 = ORIENTED_EDGE ( 'NONE', *, *, #9, .T. ) ;
#278 = AXIS2_PLACEMENT_3D ( 'NONE', #320, #153, #671 ) ;
#279 = VECTOR ( 'NONE', #604, 1000.000000000000000 ) ;
#280 = LINE ( 'NONE', #515, #157 ) ;
#281 = ORIENTED_EDGE ( 'NONE', *, *, #14, .F. ) ;
#282 = CARTESIAN_POINT ( 'NONE',  ( 91.10323193708099154, 9.958068614993631940, 10.00000000000000355 ) ) ;
#283 = CARTESIAN_POINT ( 'NONE',  ( -76.89676806291900846, 6.958068614993637269, 0.000000000000000000 ) ) ;
#284 = EDGE_LOOP ( 'NONE', ( #145, #393, #269, #431 ) ) ;
#285 = CARTESIAN_POINT ( 'NONE',  ( -85.89676806291900846, 24.95806861499363549, 15.00000000000000000 ) ) ;
#286 = CARTESIAN_POINT ( 'NONE',  ( -90.89676806291900846, 9.958068614993628387, 14.69999999999999396 ) ) ;
#287 = UNCERTAINTY_MEASURE_WITH_UNIT (LENGTH_MEASURE( 1.000000000000000082E-05 ), #305, 'distance_accuracy_value', 'NONE');
#288 = ORIENTED_EDGE ( 'NONE', *, *, #698, .F. ) ;
#289 = CARTESIAN_POINT ( 'NONE',  ( 76.10323193708099154, -3.041931385006363175, 0.000000000000000000 ) ) ;
#290 = AXIS2_PLACEMENT_3D ( 'NONE', #93, #24, #496 ) ;
#291 = LINE ( 'NONE', #757, #292 ) ;
#292 = VECTOR ( 'NONE', #169, 1000.000000000000000 ) ;
#293 = CARTESIAN_POINT ( 'NONE',  ( 86.10323193708099154, 9.958068614993631940, 12.24999999999999645 ) ) ;
#294 = CARTESIAN_POINT ( 'NONE',  ( 89.10323193708099154, 22.95806861499364260, 15.00000000000000000 ) ) ;
#295 = ADVANCED_FACE ( 'NONE', ( #235 ), #467, .T. ) ;
#296 = CARTESIAN_POINT ( 'NONE',  ( 89.10323193708097733, 24.95806861499363904, 15.00000000000000000 ) ) ;
#297 = SHAPE_DEFINITION_REPRESENTATION ( #85, #52 ) ;
#298 = SURFACE_SIDE_STYLE ('',( #703 ) ) ;
#299 = CIRCLE ( 'NONE', #766, 4.699999999999999289 ) ;
#300 = CARTESIAN_POINT ( 'NONE',  ( -76.89676806291900846, 6.958068614993637269, 5.000000000000000000 ) ) ;
#301 = VECTOR ( 'NONE', #152, 1000.000000000000000 ) ;
#302 = DIRECTION ( 'NONE',  ( 1.000000000000000000, 1.949127501097536508E-17, 0.000000000000000000 ) ) ;
#303 = LINE ( 'NONE', #648, #484 ) ;
#304 = CARTESIAN_POINT ( 'NONE',  ( 88.65323193708097449, 9.958068614993631940, 10.00000000000000355 ) ) ;
#305 =( LENGTH_UNIT ( ) NAMED_UNIT ( * ) SI_UNIT ( .MILLI., .METRE. ) );
#306 = LINE ( 'NONE', #300, #532 ) ;
#307 = VERTEX_POINT ( 'NONE', #36 ) ;
#308 = CARTESIAN_POINT ( 'NONE',  ( -88.44676806291899140, 9.958068614993628387, 9.999999999999994671 ) ) ;
#309 = CARTESIAN_POINT ( 'NONE',  ( 89.10323193708099154, 22.95806861499363904, 0.000000000000000000 ) ) ;
#310 = CIRCLE ( 'NONE', #128, 4.699999999999999289 ) ;
#311 = ORIENTED_EDGE ( 'NONE', *, *, #77, .F. ) ;
#312 = DIRECTION ( 'NONE',  ( -0.000000000000000000, -0.000000000000000000, -1.000000000000000000 ) ) ;
#313 = PLANE ( 'NONE',  #608 ) ;
#314 = EDGE_LOOP ( 'NONE', ( #754, #11, #181, #660 ) ) ;
#315 = DIRECTION ( 'NONE',  ( -1.000000000000000000, 0.000000000000000000, 0.000000000000000000 ) ) ;
#316 = EDGE_CURVE ( 'NONE', #26, #696, #511, .T. ) ;
#317 = DIRECTION ( 'NONE',  ( 1.000000000000000000, 0.000000000000000000, -0.000000000000000000 ) ) ;
#318 = ORIENTED_EDGE ( 'NONE', *, *, #616, .T. ) ;
#319 = CARTESIAN_POINT ( 'NONE',  ( 91.10323193708099154, -3.041931385006361399, 0.000000000000000000 ) ) ;
#320 = CARTESIAN_POINT ( 'NONE',  ( 76.10323193708099154, 6.958068614993637269, 5.000000000000000000 ) ) ;
#321 = VECTOR ( 'NONE', #420, 1000.000000000000000 ) ;
#322 = ORIENTED_EDGE ( 'NONE', *, *, #438, .F. ) ;
#323 = AXIS2_PLACEMENT_3D ( 'NONE', #428, #661, #479 ) ;
#324 = AXIS2_PLACEMENT_3D ( 'NONE', #338, #462, #54 ) ;
#325 = VERTEX_POINT ( 'NONE', #399 ) ;
#326 = FACE_OUTER_BOUND ( 'NONE', #132, .T. ) ;
#327 = CARTESIAN_POINT ( 'NONE',  ( 86.10323193708099154, 24.95806861499363904, 15.00000000000000000 ) ) ;
#328 = EDGE_CURVE ( 'NONE', #696, #762, #646, .T. ) ;
#329 = ORIENTED_EDGE ( 'NONE', *, *, #499, .F. ) ;
#330 = DIRECTION ( 'NONE',  ( -0.7071067811865470176, 8.659560562354940254E-17, -0.7071067811865481278 ) ) ;
#331 = CARTESIAN_POINT ( 'NONE',  ( 91.10323193708099154, 22.95806861499362483, 5.000000000000000000 ) ) ;
#332 = UNCERTAINTY_MEASURE_WITH_UNIT (LENGTH_MEASURE( 1.000000000000000082E-05 ), #8, 'distance_accuracy_value', 'NONE');
#333 = ORIENTED_EDGE ( 'NONE', *, *, #369, .F. ) ;
#334 = DIRECTION ( 'NONE',  ( -1.000000000000000000, -0.000000000000000000, -0.000000000000000000 ) ) ;
#335 = ORIENTED_EDGE ( 'NONE', *, *, #226, .T. ) ;
#336 = AXIS2_PLACEMENT_3D ( 'NONE', #480, #123, #709 ) ;
#337 = VECTOR ( 'NONE', #568, 1000.000000000000000 ) ;
#338 = CARTESIAN_POINT ( 'NONE',  ( 91.10323193708099154, 9.958068614993631940, 10.00000000000000355 ) ) ;
#339 = LINE ( 'NONE', #697, #253 ) ;
#340 = VERTEX_POINT ( 'NONE', #286 ) ;
#341 = DIRECTION ( 'NONE',  ( -1.000000000000000000, -1.548860246407863829E-16, 0.000000000000000000 ) ) ;
#342 = CARTESIAN_POINT ( 'NONE',  ( 76.10323193708099154, 6.958068614993637269, 5.000000000000000000 ) ) ;
#343 = ADVANCED_FACE ( 'NONE', ( #643 ), #685, .T. ) ;
#344 = ORIENTED_EDGE ( 'NONE', *, *, #57, .F. ) ;
#345 = CARTESIAN_POINT ( 'NONE',  ( 91.10323193708099154, 22.95806861499362483, 0.000000000000000000 ) ) ;
#346 = AXIS2_PLACEMENT_3D ( 'NONE', #416, #667, #100 ) ;
#347 = DIRECTION ( 'NONE',  ( 1.000000000000000000, 0.000000000000000000, 0.000000000000000000 ) ) ;
#348 = STYLED_ITEM ( 'NONE', ( #358 ), #417 ) ;
#349 = EDGE_CURVE ( 'NONE', #613, #53, #339, .T. ) ;
#350 = LINE ( 'NONE', #548, #279 ) ;
#351 = ORIENTED_EDGE ( 'NONE', *, *, #349, .T. ) ;
#352 = LINE ( 'NONE', #550, #699 ) ;
#353 = PLANE ( 'NONE',  #107 ) ;
#354 = CARTESIAN_POINT ( 'NONE',  ( 89.10323193708097733, 24.95806861499363904, 15.00000000000000000 ) ) ;
#355 = DIRECTION ( 'NONE',  ( -0.000000000000000000, -0.000000000000000000, -1.000000000000000000 ) ) ;
#356 = VECTOR ( 'NONE', #538, 1000.000000000000000 ) ;
#357 = CIRCLE ( 'NONE', #324, 4.699999999999999289 ) ;
#358 = PRESENTATION_STYLE_ASSIGNMENT (( #717 ) ) ;
#359 = VERTEX_POINT ( 'NONE', #283 ) ;
#360 = ORIENTED_EDGE ( 'NONE', *, *, #216, .F. ) ;
#361 =( NAMED_UNIT ( * ) PLANE_ANGLE_UNIT ( ) SI_UNIT ( $, .RADIAN. ) );
#362 = DIRECTION ( 'NONE',  ( -0.000000000000000000, 1.000000000000000000, -0.000000000000000000 ) ) ;
#363 = CARTESIAN_POINT ( 'NONE',  ( -90.89676806291900846, -3.041931385006364952, 5.000000000000000000 ) ) ;
#364 = ORIENTED_EDGE ( 'NONE', *, *, #69, .T. ) ;
#365 = DIRECTION ( 'NONE',  ( 1.000000000000000000, 0.000000000000000000, -0.000000000000000000 ) ) ;
#366 = DIRECTION ( 'NONE',  ( -0.000000000000000000, 1.000000000000000000, -0.000000000000000000 ) ) ;
#367 = AXIS2_PLACEMENT_3D ( 'NONE', #452, #315, #508 ) ;
#368 = VERTEX_POINT ( 'NONE', #41 ) ;
#369 = EDGE_CURVE ( 'NONE', #718, #734, #751, .T. ) ;
#370 = VERTEX_POINT ( 'NONE', #111 ) ;
#371 = CARTESIAN_POINT ( 'NONE',  ( -76.89676806291900846, 6.958068614993637269, 5.000000000000000000 ) ) ;
#372 = LINE ( 'NONE', #629, #35 ) ;
#373 = ORIENTED_EDGE ( 'NONE', *, *, #736, .T. ) ;
#374 = VERTEX_POINT ( 'NONE', #165 ) ;
#375 = CARTESIAN_POINT ( 'NONE',  ( 91.10323193708099154, 9.958068614993631940, 10.00000000000000355 ) ) ;
#376 = CARTESIAN_POINT ( 'NONE',  ( 86.10323193708099154, 24.95806861499363904, 5.000000000000000000 ) ) ;
#377 = ORIENTED_EDGE ( 'NONE', *, *, #602, .F. ) ;
#378 = CARTESIAN_POINT ( 'NONE',  ( -76.89676806291900846, 6.958068614993637269, 5.000000000000000000 ) ) ;
#379 = LINE ( 'NONE', #331, #434 ) ;
#380 = EDGE_CURVE ( 'NONE', #236, #273, #463, .T. ) ;
#381 = PRODUCT_DEFINITION_CONTEXT ( 'detailed design', #580, 'design' ) ;
#382 = VECTOR ( 'NONE', #682, 1000.000000000000000 ) ;
#383 = EDGE_LOOP ( 'NONE', ( #189, #223, #86, #329 ) ) ;
#384 = AXIS2_PLACEMENT_3D ( 'NONE', #473, #650, #701 ) ;
#385 = LINE ( 'NONE', #628, #637 ) ;
#386 = CARTESIAN_POINT ( 'NONE',  ( -88.89676806291899425, 24.95806861499363549, 5.000000000000000000 ) ) ;
#387 = VERTEX_POINT ( 'NONE', #761 ) ;
#388 = LINE ( 'NONE', #173, #612 ) ;
#389 = DIRECTION ( 'NONE',  ( -1.000000000000000000, -0.000000000000000000, -0.000000000000000000 ) ) ;
#390 = ORIENTED_EDGE ( 'NONE', *, *, #736, .F. ) ;
#391 = CARTESIAN_POINT ( 'NONE',  ( -90.89676806291900846, 22.95806861499362128, 0.000000000000000000 ) ) ;
#392 = LINE ( 'NONE', #692, #356 ) ;
#393 = ORIENTED_EDGE ( 'NONE', *, *, #469, .F. ) ;
#394 = CIRCLE ( 'NONE', #549, 2.249999999999988010 ) ;
#395 = MECHANICAL_DESIGN_GEOMETRIC_PRESENTATION_REPRESENTATION (  '', ( #348 ), #625 ) ;
#396 = DIRECTION ( 'NONE',  ( -1.548860246407863829E-16, 1.000000000000000000, 0.000000000000000000 ) ) ;
#397 = DIRECTION ( 'NONE',  ( 0.000000000000000000, 0.000000000000000000, 1.000000000000000000 ) ) ;
#398 = ORIENTED_EDGE ( 'NONE', *, *, #195, .F. ) ;
#399 = CARTESIAN_POINT ( 'NONE',  ( -85.89676806291900846, 9.958068614993628387, 7.750000000000000888 ) ) ;
#400 = ORIENTED_EDGE ( 'NONE', *, *, #655, .T. ) ;
#401 = ORIENTED_EDGE ( 'NONE', *, *, #89, .T. ) ;
#402 = CARTESIAN_POINT ( 'NONE',  ( 88.65323193708097449, 9.958068614993631940, 10.00000000000000355 ) ) ;
#403 = EDGE_CURVE ( 'NONE', #359, #273, #280, .T. ) ;
#404 = ORIENTED_EDGE ( 'NONE', *, *, #540, .T. ) ;
#405 = DIRECTION ( 'NONE',  ( 1.000000000000000000, 0.000000000000000000, 0.000000000000000000 ) ) ;
#406 = VECTOR ( 'NONE', #535, 1000.000000000000000 ) ;
#407 = AXIS2_PLACEMENT_3D ( 'NONE', #309, #196, #605 ) ;
#408 = CARTESIAN_POINT ( 'NONE',  ( -88.89676806291899425, 24.95806861499363549, 5.000000000000000000 ) ) ;
#409 = VECTOR ( 'NONE', #55, 1000.000000000000000 ) ;
#410 = EDGE_CURVE ( 'NONE', #734, #504, #392, .T. ) ;
#411 = ORIENTED_EDGE ( 'NONE', *, *, #616, .F. ) ;
#412 = DIRECTION ( 'NONE',  ( 1.949127501097536508E-17, -1.000000000000000000, 0.000000000000000000 ) ) ;
#413 = CARTESIAN_POINT ( 'NONE',  ( -76.89676806291900846, -3.041931385006362731, 0.000000000000000000 ) ) ;
#414 = EDGE_LOOP ( 'NONE', ( #176, #21 ) ) ;
#415 = FACE_OUTER_BOUND ( 'NONE', #261, .T. ) ;
#416 = CARTESIAN_POINT ( 'NONE',  ( -88.89676806291900846, 22.95806861499363904, 15.00000000000000000 ) ) ;
#417 = MANIFOLD_SOLID_BREP ( '\X2\04170435043d043a043e0432043a0430\X0\ \X2\0434043b044f\X0\  \X2\04320438043d04420430\X0\ \X2\0441\X0\ \X2\043f043b043e0441043a043e0439\X0\ \X2\0433043e043b043e0432043a043e0439\X0\ M43', #74 ) ;
#418 = EDGE_CURVE ( 'NONE', #504, #359, #72, .T. ) ;
#419 = DIRECTION ( 'NONE',  ( 0.7071067811865470176, 0.000000000000000000, -0.7071067811865481278 ) ) ;
#420 = DIRECTION ( 'NONE',  ( -0.000000000000000000, -0.000000000000000000, -1.000000000000000000 ) ) ;
#421 = VECTOR ( 'NONE', #250, 1000.000000000000000 ) ;
#422 = ORIENTED_EDGE ( 'NONE', *, *, #410, .F. ) ;
#423 = CARTESIAN_POINT ( 'NONE',  ( -90.89676806291900846, 9.958068614993628387, 9.999999999999994671 ) ) ;
#424 = DIRECTION ( 'NONE',  ( 0.000000000000000000, 0.000000000000000000, -1.000000000000000000 ) ) ;
#425 = ADVANCED_FACE ( 'NONE', ( #56 ), #461, .F. ) ;
#426 = EDGE_LOOP ( 'NONE', ( #6, #22, #204, #335 ) ) ;
#427 = ORIENTED_EDGE ( 'NONE', *, *, #246, .F. ) ;
#428 = CARTESIAN_POINT ( 'NONE',  ( 91.10323193708099154, -3.041931385006361399, 5.000000000000000000 ) ) ;
#429 = DIRECTION ( 'NONE',  ( 1.000000000000000000, -0.000000000000000000, -0.000000000000000000 ) ) ;
#430 = EDGE_CURVE ( 'NONE', #520, #150, #194, .T. ) ;
#431 = ORIENTED_EDGE ( 'NONE', *, *, #42, .T. ) ;
#432 = CARTESIAN_POINT ( 'NONE',  ( -90.89676806291900846, 9.958068614993628387, 5.299999999999995381 ) ) ;
#433 = CARTESIAN_POINT ( 'NONE',  ( 86.10323193708099154, -3.041931385006361843, 5.000000000000000000 ) ) ;
#434 = VECTOR ( 'NONE', #453, 1000.000000000000000 ) ;
#435 = AXIS2_PLACEMENT_3D ( 'NONE', #615, #13, #267 ) ;
#436 = VECTOR ( 'NONE', #243, 1000.000000000000000 ) ;
#437 = ORIENTED_EDGE ( 'NONE', *, *, #51, .T. ) ;
#438 = EDGE_CURVE ( 'NONE', #718, #693, #303, .T. ) ;
#439 = EDGE_LOOP ( 'NONE', ( #27, #545 ) ) ;
#440 = LINE ( 'NONE', #565, #513 ) ;
#441 = DIRECTION ( 'NONE',  ( 0.000000000000000000, 0.000000000000000000, 1.000000000000000000 ) ) ;
#442 = ORIENTED_EDGE ( 'NONE', *, *, #249, .F. ) ;
#443 = CARTESIAN_POINT ( 'NONE',  ( 89.10323193708097733, 24.95806861499363904, 5.000000000000000000 ) ) ;
#444 = ADVANCED_FACE ( 'NONE', ( #239 ), #534, .F. ) ;
#445 = CARTESIAN_POINT ( 'NONE',  ( 76.10323193708099154, -3.041931385006363175, 5.000000000000000000 ) ) ;
#446 = ORIENTED_EDGE ( 'NONE', *, *, #241, .T. ) ;
#447 = DIRECTION ( 'NONE',  ( -0.000000000000000000, 0.000000000000000000, -1.000000000000000000 ) ) ;
#448 = FACE_OUTER_BOUND ( 'NONE', #634, .T. ) ;
#449 = ORIENTED_EDGE ( 'NONE', *, *, #69, .F. ) ;
#450 = AXIS2_PLACEMENT_3D ( 'NONE', #402, #105, #456 ) ;
#451 = VECTOR ( 'NONE', #632, 1000.000000000000000 ) ;
#452 = CARTESIAN_POINT ( 'NONE',  ( -85.89676806291900846, 24.95806861499363549, 15.00000000000000000 ) ) ;
#453 = DIRECTION ( 'NONE',  ( -0.000000000000000000, -0.000000000000000000, -1.000000000000000000 ) ) ;
#454 = ORIENTED_EDGE ( 'NONE', *, *, #77, .T. ) ;
#455 = DIRECTION ( 'NONE',  ( -0.000000000000000000, -1.000000000000000000, -0.000000000000000000 ) ) ;
#456 = DIRECTION ( 'NONE',  ( 0.000000000000000000, 0.000000000000000000, -1.000000000000000000 ) ) ;
#457 = EDGE_CURVE ( 'NONE', #108, #606, #2, .T. ) ;
#458 = ORIENTED_EDGE ( 'NONE', *, *, #418, .T. ) ;
#459 = LINE ( 'NONE', #229, #104 ) ;
#460 = EDGE_LOOP ( 'NONE', ( #373, #360, #398, #512, #663, #676, #627, #227 ) ) ;
#461 = CONICAL_SURFACE ( 'NONE', #78, 4.699999999999999289, 0.7853981633974490562 ) ;
#462 = DIRECTION ( 'NONE',  ( 1.000000000000000000, -0.000000000000000000, -0.000000000000000000 ) ) ;
#463 = LINE ( 'NONE', #572, #92 ) ;
#464 = CYLINDRICAL_SURFACE ( 'NONE', #183, 2.249999999999994227 ) ;
#465 = FACE_BOUND ( 'NONE', #439, .T. ) ;
#466 = EDGE_CURVE ( 'NONE', #374, #1, #255, .T. ) ;
#467 = PLANE ( 'NONE',  #679 ) ;
#468 = DIRECTION ( 'NONE',  ( -1.000000000000000000, 0.000000000000000000, 0.000000000000000000 ) ) ;
#469 = EDGE_CURVE ( 'NONE', #53, #522, #587, .T. ) ;
#470 = EDGE_LOOP ( 'NONE', ( #73, #581, #490, #631 ) ) ;
#471 = CARTESIAN_POINT ( 'NONE',  ( -90.89676806291900846, 22.95806861499362128, 5.000000000000000000 ) ) ;
#472 = CIRCLE ( 'NONE', #712, 4.699999999999999289 ) ;
#473 = CARTESIAN_POINT ( 'NONE',  ( -90.89676806291900846, 9.958068614993628387, 9.999999999999994671 ) ) ;
#474 = ORIENTED_EDGE ( 'NONE', *, *, #369, .T. ) ;
#475 = CARTESIAN_POINT ( 'NONE',  ( -90.89676806291900846, -3.041931385006364952, 0.000000000000000000 ) ) ;
#476 = CARTESIAN_POINT ( 'NONE',  ( -85.89676806291900846, 24.95806861499363549, 15.00000000000000000 ) ) ;
#477 = DIRECTION ( 'NONE',  ( 1.000000000000000000, -0.000000000000000000, -0.000000000000000000 ) ) ;
#478 = EDGE_CURVE ( 'NONE', #374, #718, #350, .T. ) ;
#479 = DIRECTION ( 'NONE',  ( -1.000000000000000000, -1.156482317317871478E-16, 0.000000000000000000 ) ) ;
#480 = CARTESIAN_POINT ( 'NONE',  ( 76.10323193708099154, -3.041931385006363175, 5.000000000000000000 ) ) ;
#481 = DIRECTION ( 'NONE',  ( -1.000000000000000000, -0.000000000000000000, -0.000000000000000000 ) ) ;
#482 = VECTOR ( 'NONE', #182, 1000.000000000000000 ) ;
#483 = ORIENTED_EDGE ( 'NONE', *, *, #469, .T. ) ;
#484 = VECTOR ( 'NONE', #198, 1000.000000000000000 ) ;
#485 = ORIENTED_EDGE ( 'NONE', *, *, #316, .T. ) ;
#486 = EDGE_LOOP ( 'NONE', ( #485, #101, #733, #738 ) ) ;
#487 = CYLINDRICAL_SURFACE ( 'NONE', #384, 2.249999999999995115 ) ;
#488 = ADVANCED_FACE ( 'NONE', ( #415 ), #487, .F. ) ;
#489 = ORIENTED_EDGE ( 'NONE', *, *, #275, .T. ) ;
#490 = ORIENTED_EDGE ( 'NONE', *, *, #466, .F. ) ;
#491 = DIRECTION ( 'NONE',  ( 0.7071067811865470176, 8.659560562354940254E-17, 0.7071067811865481278 ) ) ;
#492 = DIRECTION ( 'NONE',  ( -1.000000000000000000, 0.000000000000000000, 0.000000000000000000 ) ) ;
#493 = ORIENTED_EDGE ( 'NONE', *, *, #651, .F. ) ;
#494 = ORIENTED_EDGE ( 'NONE', *, *, #222, .T. ) ;
#495 = PLANE ( 'NONE',  #37 ) ;
#496 = DIRECTION ( 'NONE',  ( 1.000000000000000000, 0.000000000000000000, -0.000000000000000000 ) ) ;
#497 = AXIS2_PLACEMENT_3D ( 'NONE', #294, #397, #347 ) ;
#498 = VECTOR ( 'NONE', #47, 1000.000000000000000 ) ;
#499 = EDGE_CURVE ( 'NONE', #507, #555, #125, .T. ) ;
#500 = ORIENTED_EDGE ( 'NONE', *, *, #249, .T. ) ;
#501 = ORIENTED_EDGE ( 'NONE', *, *, #20, .T. ) ;
#502 = FACE_OUTER_BOUND ( 'NONE', #95, .T. ) ;
#503 = PLANE ( 'NONE',  #278 ) ;
#504 = VERTEX_POINT ( 'NONE', #413 ) ;
#505 = CYLINDRICAL_SURFACE ( 'NONE', #435, 2.249999999999995115 ) ;
#506 = DIRECTION ( 'NONE',  ( 0.000000000000000000, 0.000000000000000000, -1.000000000000000000 ) ) ;
#507 = VERTEX_POINT ( 'NONE', #122 ) ;
#508 = DIRECTION ( 'NONE',  ( 0.000000000000000000, 0.000000000000000000, 1.000000000000000000 ) ) ;
#509 = CARTESIAN_POINT ( 'NONE',  ( 91.10323193708099154, -3.041931385006361399, 0.000000000000000000 ) ) ;
#510 = AXIS2_PLACEMENT_3D ( 'NONE', #260, #492, #29 ) ;
#511 = CIRCLE ( 'NONE', #525, 2.000000000000001776 ) ;
#512 = ORIENTED_EDGE ( 'NONE', *, *, #756, .T. ) ;
#513 = VECTOR ( 'NONE', #215, 1000.000000000000000 ) ;
#514 = DIRECTION ( 'NONE',  ( -0.000000000000000000, 0.000000000000000000, -1.000000000000000000 ) ) ;
#515 = CARTESIAN_POINT ( 'NONE',  ( 76.10323193708099154, 6.958068614993637269, 0.000000000000000000 ) ) ;
#516 = EDGE_CURVE ( 'NONE', #555, #117, #310, .T. ) ;
#517 = ORIENTED_EDGE ( 'NONE', *, *, #630, .F. ) ;
#518 = PLANE ( 'NONE',  #193 ) ;
#519 = DIRECTION ( 'NONE',  ( -0.000000000000000000, -0.000000000000000000, -1.000000000000000000 ) ) ;
#520 = VERTEX_POINT ( 'NONE', #354 ) ;
#521 = CARTESIAN_POINT ( 'NONE',  ( -90.89676806291900846, -3.041931385006364064, 15.00000000000000000 ) ) ;
#522 = VERTEX_POINT ( 'NONE', #598 ) ;
#523 = AXIS2_PLACEMENT_3D ( 'NONE', #304, #429, #424 ) ;
#524 = ADVANCED_FACE ( 'NONE', ( #502 ), #202, .F. ) ;
#525 = AXIS2_PLACEMENT_3D ( 'NONE', #113, #175, #582 ) ;
#526 = DIRECTION ( 'NONE',  ( 1.000000000000000000, 0.000000000000000000, -0.000000000000000000 ) ) ;
#527 = DIRECTION ( 'NONE',  ( -1.000000000000000000, -1.949127501097536508E-17, -0.000000000000000000 ) ) ;
#528 = LINE ( 'NONE', #759, #171 ) ;
#529 = DIRECTION ( 'NONE',  ( -0.000000000000000000, -0.000000000000000000, -1.000000000000000000 ) ) ;
#530 = DIRECTION ( 'NONE',  ( -1.000000000000000000, 0.000000000000000000, 0.000000000000000000 ) ) ;
#531 = EDGE_CURVE ( 'NONE', #325, #613, #50, .T. ) ;
#532 = VECTOR ( 'NONE', #256, 1000.000000000000000 ) ;
#533 = VECTOR ( 'NONE', #45, 1000.000000000000000 ) ;
#534 = PLANE ( 'NONE',  #323 ) ;
#535 = DIRECTION ( 'NONE',  ( 1.000000000000000000, -0.000000000000000000, -0.000000000000000000 ) ) ;
#536 = EDGE_CURVE ( 'NONE', #368, #117, #623, .T. ) ;
#537 = CARTESIAN_POINT ( 'NONE',  ( 86.10323193708099154, 24.95806861499363904, 15.00000000000000000 ) ) ;
#538 = DIRECTION ( 'NONE',  ( -0.000000000000000000, -0.000000000000000000, -1.000000000000000000 ) ) ;
#539 = PLANE ( 'NONE',  #336 ) ;
#540 = EDGE_CURVE ( 'NONE', #668, #507, #83, .T. ) ;
#541 = ORIENTED_EDGE ( 'NONE', *, *, #136, .F. ) ;
#542 = CYLINDRICAL_SURFACE ( 'NONE', #25, 2.000000000000001776 ) ;
#543 = CARTESIAN_POINT ( 'NONE',  ( -76.89676806291900846, 6.958068614993637269, 0.000000000000000000 ) ) ;
#544 = ORIENTED_EDGE ( 'NONE', *, *, #328, .F. ) ;
#545 = ORIENTED_EDGE ( 'NONE', *, *, #179, .F. ) ;
#546 = APPLICATION_PROTOCOL_DEFINITION ( 'draft international standard', 'automotive_design', 1998, #199 ) ;
#547 = ADVANCED_FACE ( 'NONE', ( #91, #220 ), #665, .F. ) ;
#548 = CARTESIAN_POINT ( 'NONE',  ( -85.89676806291900846, -3.041931385006364952, 15.00000000000000000 ) ) ;
#549 = AXIS2_PLACEMENT_3D ( 'NONE', #203, #334, #144 ) ;
#550 = CARTESIAN_POINT ( 'NONE',  ( 91.10323193708099154, -3.041931385006361399, 5.000000000000000000 ) ) ;
#551 = VERTEX_POINT ( 'NONE', #432 ) ;
#552 = ORIENTED_EDGE ( 'NONE', *, *, #691, .T. ) ;
#553 = CARTESIAN_POINT ( 'NONE',  ( 91.10323193708099154, 9.958068614993631940, 5.300000000000004263 ) ) ;
#554 = FACE_OUTER_BOUND ( 'NONE', #657, .T. ) ;
#555 = VERTEX_POINT ( 'NONE', #553 ) ;
#556 = FACE_BOUND ( 'NONE', #172, .T. ) ;
#557 = DIRECTION ( 'NONE',  ( -1.000000000000000000, 0.000000000000000000, 0.000000000000000000 ) ) ;
#558 = ORIENTED_EDGE ( 'NONE', *, *, #103, .T. ) ;
#559 = EDGE_LOOP ( 'NONE', ( #154, #214, #5, #131 ) ) ;
#560 = DIRECTION ( 'NONE',  ( 0.000000000000000000, 0.000000000000000000, -1.000000000000000000 ) ) ;
#561 = PLANE ( 'NONE',  #155 ) ;
#562 = VECTOR ( 'NONE', #419, 1000.000000000000000 ) ;
#563 = ADVANCED_FACE ( 'NONE', ( #556, #143 ), #495, .F. ) ;
#564 = ORIENTED_EDGE ( 'NONE', *, *, #20, .F. ) ;
#565 = CARTESIAN_POINT ( 'NONE',  ( 76.10323193708099154, -3.041931385006363175, 5.000000000000000000 ) ) ;
#566 = LINE ( 'NONE', #386, #382 ) ;
#567 = ORIENTED_EDGE ( 'NONE', *, *, #579, .F. ) ;
#568 = DIRECTION ( 'NONE',  ( 1.000000000000000000, -0.000000000000000000, -0.000000000000000000 ) ) ;
#569 = LINE ( 'NONE', #161, #482 ) ;
#570 = VERTEX_POINT ( 'NONE', #371 ) ;
#571 = ADVANCED_FACE ( 'NONE', ( #326 ), #505, .F. ) ;
#572 = CARTESIAN_POINT ( 'NONE',  ( 76.10323193708099154, 6.958068614993637269, 5.000000000000000000 ) ) ;
#573 = VECTOR ( 'NONE', #276, 1000.000000000000000 ) ;
#574 = CONICAL_SURFACE ( 'NONE', #62, 4.699999999999999289, 0.7853981633974490562 ) ;
#575 = ORIENTED_EDGE ( 'NONE', *, *, #226, .F. ) ;
#576 = VECTOR ( 'NONE', #455, 1000.000000000000000 ) ;
#577 = DIRECTION ( 'NONE',  ( 1.000000000000000000, -0.000000000000000000, -0.000000000000000000 ) ) ;
#578 = CARTESIAN_POINT ( 'NONE',  ( 76.10323193708099154, 6.958068614993637269, 0.000000000000000000 ) ) ;
#579 = EDGE_CURVE ( 'NONE', #762, #504, #725, .T. ) ;
#580 = APPLICATION_CONTEXT ( 'automotive_design' ) ;
#581 = ORIENTED_EDGE ( 'NONE', *, *, #756, .F. ) ;
#582 = DIRECTION ( 'NONE',  ( -1.000000000000000000, 0.000000000000000000, 0.000000000000000000 ) ) ;
#583 = EDGE_CURVE ( 'NONE', #522, #551, #208, .T. ) ;
#584 = ORIENTED_EDGE ( 'NONE', *, *, #478, .F. ) ;
#585 = DIRECTION ( 'NONE',  ( 0.000000000000000000, 0.000000000000000000, 1.000000000000000000 ) ) ;
#586 = VECTOR ( 'NONE', #527, 1000.000000000000000 ) ;
#587 = CIRCLE ( 'NONE', #610, 2.249999999999988010 ) ;
#588 = CARTESIAN_POINT ( 'NONE',  ( -85.89676806291900846, -3.041931385006364064, 5.000000000000000000 ) ) ;
#589 = VECTOR ( 'NONE', #185, 1000.000000000000000 ) ;
#590 = CARTESIAN_POINT ( 'NONE',  ( -76.89676806291900846, -3.041931385006362731, 5.000000000000000000 ) ) ;
#591 = APPLICATION_PROTOCOL_DEFINITION ( 'draft international standard', 'automotive_design', 1998, #580 ) ;
#592 =( NAMED_UNIT ( * ) SI_UNIT ( $, .STERADIAN. ) SOLID_ANGLE_UNIT ( ) );
#593 = CARTESIAN_POINT ( 'NONE',  ( 0.000000000000000000, 0.000000000000000000, 0.000000000000000000 ) ) ;
#594 = CARTESIAN_POINT ( 'NONE',  ( 91.10323193708099154, 9.958068614993631940, 5.300000000000004263 ) ) ;
#595 = LINE ( 'NONE', #662, #114 ) ;
#596 = FACE_OUTER_BOUND ( 'NONE', #460, .T. ) ;
#597 = AXIS2_PLACEMENT_3D ( 'NONE', #271, #274, #138 ) ;
#598 = CARTESIAN_POINT ( 'NONE',  ( -88.44676806291899140, 9.958068614993628387, 7.750000000000007105 ) ) ;
#599 = ORIENTED_EDGE ( 'NONE', *, *, #691, .F. ) ;
#600 = LINE ( 'NONE', #471, #589 ) ;
#601 = CARTESIAN_POINT ( 'NONE',  ( -88.89676806291899425, 24.95806861499363549, 0.000000000000000000 ) ) ;
#602 = EDGE_CURVE ( 'NONE', #236, #387, #440, .T. ) ;
#603 = EDGE_LOOP ( 'NONE', ( #500, #607, #705, #494 ) ) ;
#604 = DIRECTION ( 'NONE',  ( -0.000000000000000000, -0.000000000000000000, -1.000000000000000000 ) ) ;
#605 = DIRECTION ( 'NONE',  ( -1.000000000000000000, 0.000000000000000000, 0.000000000000000000 ) ) ;
#606 = VERTEX_POINT ( 'NONE', #23 ) ;
#607 = ORIENTED_EDGE ( 'NONE', *, *, #655, .F. ) ;
#608 = AXIS2_PLACEMENT_3D ( 'NONE', #191, #611, #704 ) ;
#609 = LINE ( 'NONE', #79, #233 ) ;
#610 = AXIS2_PLACEMENT_3D ( 'NONE', #308, #186, #244 ) ;
#611 = DIRECTION ( 'NONE',  ( 0.000000000000000000, 0.000000000000000000, 1.000000000000000000 ) ) ;
#612 = VECTOR ( 'NONE', #177, 1000.000000000000000 ) ;
#613 = VERTEX_POINT ( 'NONE', #619 ) ;
#614 = ORIENTED_EDGE ( 'NONE', *, *, #516, .T. ) ;
#615 = CARTESIAN_POINT ( 'NONE',  ( -90.89676806291900846, 9.958068614993628387, 9.999999999999994671 ) ) ;
#616 = EDGE_CURVE ( 'NONE', #307, #166, #670, .T. ) ;
#617 = DIRECTION ( 'NONE',  ( 0.000000000000000000, 0.000000000000000000, -1.000000000000000000 ) ) ;
#618 = ORIENTED_EDGE ( 'NONE', *, *, #536, .F. ) ;
#619 = CARTESIAN_POINT ( 'NONE',  ( -85.89676806291900846, 9.958068614993628387, 12.24999999999998934 ) ) ;
#620 = ADVANCED_FACE ( 'NONE', ( #156 ), #574, .F. ) ;
#621 = CARTESIAN_POINT ( 'NONE',  ( 91.10323193708099154, 9.958068614993631940, 14.70000000000000284 ) ) ;
#622 = EDGE_LOOP ( 'NONE', ( #137, #210, #218, #489, #197 ) ) ;
#623 = LINE ( 'NONE', #259, #767 ) ;
#624 = CYLINDRICAL_SURFACE ( 'NONE', #61, 2.249999999999994227 ) ;
#625 =( GEOMETRIC_REPRESENTATION_CONTEXT ( 3 ) GLOBAL_UNCERTAINTY_ASSIGNED_CONTEXT ( ( #332 ) ) GLOBAL_UNIT_ASSIGNED_CONTEXT ( ( #8, #134, #592 ) ) REPRESENTATION_CONTEXT ( 'NONE', 'WORKASPACE' ) );
#626 = ORIENTED_EDGE ( 'NONE', *, *, #410, .T. ) ;
#627 = ORIENTED_EDGE ( 'NONE', *, *, #430, .F. ) ;
#628 = CARTESIAN_POINT ( 'NONE',  ( 91.10323193708099154, 9.958068614993631940, 12.24999999999999645 ) ) ;
#629 = CARTESIAN_POINT ( 'NONE',  ( 76.10323193708099154, 6.958068614993637269, 5.000000000000000000 ) ) ;
#630 = EDGE_CURVE ( 'NONE', #730, #368, #385, .T. ) ;
#631 = ORIENTED_EDGE ( 'NONE', *, *, #478, .T. ) ;
#632 = DIRECTION ( 'NONE',  ( -1.000000000000000000, -0.000000000000000000, -0.000000000000000000 ) ) ;
#633 = DIRECTION ( 'NONE',  ( 1.000000000000000000, -0.000000000000000000, -0.000000000000000000 ) ) ;
#634 = EDGE_LOOP ( 'NONE', ( #442, #446, #322, #474, #454, #30, #723, #501 ) ) ;
#635 = CARTESIAN_POINT ( 'NONE',  ( -90.89676806291900846, 9.958068614993628387, 9.999999999999994671 ) ) ;
#636 = PRODUCT ( '\X2\0445\X0\3', '\X2\0445\X0\3', '', ( #706 ) ) ;
#637 = VECTOR ( 'NONE', #212, 1000.000000000000000 ) ;
#638 = EDGE_LOOP ( 'NONE', ( #567, #544, #719, #390, #641, #151, #411, #288, #257, #716 ) ) ;
#639 = EDGE_CURVE ( 'NONE', #520, #146, #28, .T. ) ;
#640 = DIRECTION ( 'NONE',  ( -0.000000000000000000, 0.000000000000000000, -1.000000000000000000 ) ) ;
#641 = ORIENTED_EDGE ( 'NONE', *, *, #9, .F. ) ;
#642 = LINE ( 'NONE', #228, #498 ) ;
#643 = FACE_OUTER_BOUND ( 'NONE', #746, .T. ) ;
#644 = DIRECTION ( 'NONE',  ( 1.000000000000000000, -1.734723475976805615E-16, 0.000000000000000000 ) ) ;
#645 = PRESENTATION_LAYER_ASSIGNMENT (  '', '', ( #348 ) ) ;
#646 = LINE ( 'NONE', #178, #533 ) ;
#647 = DIRECTION ( 'NONE',  ( -1.000000000000000000, 0.000000000000000000, 0.000000000000000000 ) ) ;
#648 = CARTESIAN_POINT ( 'NONE',  ( -85.89676806291900846, 24.95806861499363549, 5.000000000000000000 ) ) ;
#649 = LINE ( 'NONE', #652, #406 ) ;
#650 = DIRECTION ( 'NONE',  ( -1.000000000000000000, -0.000000000000000000, -0.000000000000000000 ) ) ;
#651 = EDGE_CURVE ( 'NONE', #730, #668, #170, .T. ) ;
#652 = CARTESIAN_POINT ( 'NONE',  ( 91.10323193708099154, -3.041931385006363175, 15.00000000000000000 ) ) ;
#653 = DIRECTION ( 'NONE',  ( 0.000000000000000000, 0.000000000000000000, -1.000000000000000000 ) ) ;
#654 = AXIS2_PLACEMENT_3D ( 'NONE', #593, #71, #405 ) ;
#655 = EDGE_CURVE ( 'NONE', #75, #141, #609, .T. ) ;
#656 = EDGE_LOOP ( 'NONE', ( #493, #184, #437, #159 ) ) ;
#657 = EDGE_LOOP ( 'NONE', ( #710, #265, #401, #552, #90 ) ) ;
#658 = FILL_AREA_STYLE_COLOUR ( '', #700 ) ;
#659 = CARTESIAN_POINT ( 'NONE',  ( 91.10323193708099154, 22.95806861499362483, 0.000000000000000000 ) ) ;
#660 = ORIENTED_EDGE ( 'NONE', *, *, #57, .T. ) ;
#661 = DIRECTION ( 'NONE',  ( -1.156482317317871478E-16, 1.000000000000000000, 0.000000000000000000 ) ) ;
#662 = CARTESIAN_POINT ( 'NONE',  ( 91.10323193708099154, -3.041931385006361399, 5.000000000000000000 ) ) ;
#663 = ORIENTED_EDGE ( 'NONE', *, *, #241, .F. ) ;
#664 = CIRCLE ( 'NONE', #523, 2.249999999999988010 ) ;
#665 = PLANE ( 'NONE',  #367 ) ;
#666 = VECTOR ( 'NONE', #530, 1000.000000000000000 ) ;
#667 = DIRECTION ( 'NONE',  ( 0.000000000000000000, 0.000000000000000000, 1.000000000000000000 ) ) ;
#668 = VERTEX_POINT ( 'NONE', #684 ) ;
#669 = ADVANCED_FACE ( 'NONE', ( #750, #465 ), #167, .F. ) ;
#670 = LINE ( 'NONE', #319, #205 ) ;
#671 = DIRECTION ( 'NONE',  ( 0.000000000000000000, 0.000000000000000000, 1.000000000000000000 ) ) ;
#672 = EDGE_LOOP ( 'NONE', ( #517, #98, #404, #728 ) ) ;
#673 = DIRECTION ( 'NONE',  ( -1.000000000000000000, 0.000000000000000000, 0.000000000000000000 ) ) ;
#674 = LINE ( 'NONE', #158, #573 ) ;
#675 = EDGE_LOOP ( 'NONE', ( #39, #248 ) ) ;
#676 = ORIENTED_EDGE ( 'NONE', *, *, #222, .F. ) ;
#677 = DIRECTION ( 'NONE',  ( 1.000000000000000000, 1.548860246407863829E-16, -0.000000000000000000 ) ) ;
#678 = DIRECTION ( 'NONE',  ( -1.000000000000000000, 0.000000000000000000, 0.000000000000000000 ) ) ;
#679 = AXIS2_PLACEMENT_3D ( 'NONE', #238, #640, #109 ) ;
#680 = ORIENTED_EDGE ( 'NONE', *, *, #275, .F. ) ;
#681 = CARTESIAN_POINT ( 'NONE',  ( -90.89676806291900846, 22.95806861499362128, 5.000000000000000000 ) ) ;
#682 = DIRECTION ( 'NONE',  ( -0.000000000000000000, -0.000000000000000000, -1.000000000000000000 ) ) ;
#683 = ORIENTED_EDGE ( 'NONE', *, *, #707, .T. ) ;
#684 = CARTESIAN_POINT ( 'NONE',  ( 86.10323193708099154, 9.958068614993631940, 7.750000000000009770 ) ) ;
#685 = CYLINDRICAL_SURFACE ( 'NONE', #726, 2.000000000000001776 ) ;
#686 = ORIENTED_EDGE ( 'NONE', *, *, #651, .T. ) ;
#687 = CARTESIAN_POINT ( 'NONE',  ( -76.89676806291900846, -3.041931385006362731, 5.000000000000000000 ) ) ;
#688 = LINE ( 'NONE', #408, #586 ) ;
#689 = AXIS2_PLACEMENT_3D ( 'NONE', #739, #720, #147 ) ;
#690 = ORIENTED_EDGE ( 'NONE', *, *, #180, .T. ) ;
#691 = EDGE_CURVE ( 'NONE', #370, #43, #388, .T. ) ;
#692 = CARTESIAN_POINT ( 'NONE',  ( -76.89676806291900846, -3.041931385006362731, 5.000000000000000000 ) ) ;
#693 = VERTEX_POINT ( 'NONE', #694 ) ;
#694 = CARTESIAN_POINT ( 'NONE',  ( -85.89676806291900846, 24.95806861499363549, 5.000000000000000000 ) ) ;
#695 = DIRECTION ( 'NONE',  ( -0.000000000000000000, -0.000000000000000000, -1.000000000000000000 ) ) ;
#696 = VERTEX_POINT ( 'NONE', #391 ) ;
#697 = CARTESIAN_POINT ( 'NONE',  ( -90.89676806291900846, 9.958068614993628387, 12.24999999999998934 ) ) ;
#698 = EDGE_CURVE ( 'NONE', #273, #307, #744, .T. ) ;
#699 = VECTOR ( 'NONE', #200, 1000.000000000000000 ) ;
#700 = COLOUR_RGB ( '',0.7921568627450980005, 0.8196078431372548767, 0.9333333333333333481 ) ;
#701 = DIRECTION ( 'NONE',  ( 0.000000000000000000, 0.000000000000000000, 1.000000000000000000 ) ) ;
#702 = EDGE_CURVE ( 'NONE', #53, #340, #642, .T. ) ;
#703 = SURFACE_STYLE_FILL_AREA ( #763 ) ;
#704 = DIRECTION ( 'NONE',  ( 1.000000000000000000, 0.000000000000000000, -0.000000000000000000 ) ) ;
#705 = ORIENTED_EDGE ( 'NONE', *, *, #760, .F. ) ;
#706 = PRODUCT_CONTEXT ( 'NONE', #199, 'mechanical' ) ;
#707 = EDGE_CURVE ( 'NONE', #325, #522, #224, .T. ) ;
#708 = CARTESIAN_POINT ( 'NONE',  ( 91.10323193708099154, 22.95806861499362483, 15.00000000000000000 ) ) ;
#709 = DIRECTION ( 'NONE',  ( 0.000000000000000000, 0.000000000000000000, -1.000000000000000000 ) ) ;
#710 = ORIENTED_EDGE ( 'NONE', *, *, #466, .T. ) ;
#711 = LINE ( 'NONE', #537, #436 ) ;
#712 = AXIS2_PLACEMENT_3D ( 'NONE', #727, #389, #209 ) ;
#713 = VECTOR ( 'NONE', #362, 1000.000000000000000 ) ;
#714 = DIRECTION ( 'NONE',  ( 0.000000000000000000, 0.000000000000000000, 1.000000000000000000 ) ) ;
#715 = ORIENTED_EDGE ( 'NONE', *, *, #328, .T. ) ;
#716 = ORIENTED_EDGE ( 'NONE', *, *, #418, .F. ) ;
#717 = SURFACE_STYLE_USAGE ( .BOTH. , #298 ) ;
#718 = VERTEX_POINT ( 'NONE', #588 ) ;
#719 = ORIENTED_EDGE ( 'NONE', *, *, #316, .F. ) ;
#720 = DIRECTION ( 'NONE',  ( -1.000000000000000000, 0.000000000000000000, 0.000000000000000000 ) ) ;
#721 = CARTESIAN_POINT ( 'NONE',  ( -85.89676806291900846, 9.958068614993628387, 9.999999999999994671 ) ) ;
#722 = EDGE_CURVE ( 'NONE', #117, #555, #357, .T. ) ;
#723 = ORIENTED_EDGE ( 'NONE', *, *, #602, .T. ) ;
#724 = VECTOR ( 'NONE', #366, 1000.000000000000000 ) ;
#725 = LINE ( 'NONE', #262, #7 ) ;
#726 = AXIS2_PLACEMENT_3D ( 'NONE', #747, #695, #468 ) ;
#727 = CARTESIAN_POINT ( 'NONE',  ( -90.89676806291900846, 9.958068614993628387, 9.999999999999994671 ) ) ;
#728 = ORIENTED_EDGE ( 'NONE', *, *, #264, .T. ) ;
#729 = PRODUCT_RELATED_PRODUCT_CATEGORY ( 'part', '', ( #636 ) ) ;
#730 = VERTEX_POINT ( 'NONE', #293 ) ;
#731 = DIRECTION ( 'NONE',  ( 1.000000000000000000, -0.000000000000000000, -0.000000000000000000 ) ) ;
#732 = DIRECTION ( 'NONE',  ( -0.000000000000000000, 0.000000000000000000, -1.000000000000000000 ) ) ;
#733 = ORIENTED_EDGE ( 'NONE', *, *, #89, .F. ) ;
#734 = VERTEX_POINT ( 'NONE', #164 ) ;
#735 = CARTESIAN_POINT ( 'NONE',  ( -90.89676806291900846, 9.958068614993628387, 5.299999999999995381 ) ) ;
#736 = EDGE_CURVE ( 'NONE', #146, #26, #528, .T. ) ;
#737 = CARTESIAN_POINT ( 'NONE',  ( 91.10323193708099154, 9.958068614993631940, 10.00000000000000355 ) ) ;
#738 = ORIENTED_EDGE ( 'NONE', *, *, #216, .T. ) ;
#739 = CARTESIAN_POINT ( 'NONE',  ( -85.89676806291900846, 9.958068614993628387, 9.999999999999994671 ) ) ;
#740 = DIRECTION ( 'NONE',  ( 1.000000000000000000, -0.000000000000000000, -0.000000000000000000 ) ) ;
#741 = ADVANCED_FACE ( 'NONE', ( #237 ), #755, .F. ) ;
#742 = VECTOR ( 'NONE', #644, 1000.000000000000000 ) ;
#743 = ORIENTED_EDGE ( 'NONE', *, *, #180, .F. ) ;
#744 = LINE ( 'NONE', #289, #576 ) ;
#745 = DIRECTION ( 'NONE',  ( 1.000000000000000000, -0.000000000000000000, -0.000000000000000000 ) ) ;
#746 = EDGE_LOOP ( 'NONE', ( #277, #46, #680, #163 ) ) ;
#747 = CARTESIAN_POINT ( 'NONE',  ( 89.10323193708099154, 22.95806861499363904, 5.000000000000000000 ) ) ;
#748 = ADVANCED_FACE ( 'NONE', ( #99 ), #518, .F. ) ;
#749 = ORIENTED_EDGE ( 'NONE', *, *, #579, .T. ) ;
#750 = FACE_OUTER_BOUND ( 'NONE', #34, .T. ) ;
#751 = LINE ( 'NONE', #590, #409 ) ;
#752 = AXIS2_PLACEMENT_3D ( 'NONE', #272, #317, #506 ) ;
#753 = AXIS2_PLACEMENT_3D ( 'NONE', #681, #526, #514 ) ;
#754 = ORIENTED_EDGE ( 'NONE', *, *, #66, .T. ) ;
#755 = CONICAL_SURFACE ( 'NONE', #206, 4.699999999999999289, 0.7853981633974490562 ) ;
#756 = EDGE_CURVE ( 'NONE', #1, #693, #44, .T. ) ;
#757 = CARTESIAN_POINT ( 'NONE',  ( 86.10323193708099154, 24.95806861499363904, 5.000000000000000000 ) ) ;
#758 = ORIENTED_EDGE ( 'NONE', *, *, #264, .F. ) ;
#759 = CARTESIAN_POINT ( 'NONE',  ( -88.89676806291899425, 24.95806861499363549, 0.000000000000000000 ) ) ;
#760 = EDGE_CURVE ( 'NONE', #150, #75, #711, .T. ) ;
#761 = CARTESIAN_POINT ( 'NONE',  ( 76.10323193708099154, -3.041931385006363175, 5.000000000000000000 ) ) ;
#762 = VERTEX_POINT ( 'NONE', #475 ) ;
#763 = FILL_AREA_STYLE ('',( #658 ) ) ;
#764 = EDGE_CURVE ( 'NONE', #370, #696, #600, .T. ) ;
#765 = ADVANCED_FACE ( 'NONE', ( #596 ), #353, .F. ) ;
#766 = AXIS2_PLACEMENT_3D ( 'NONE', #80, #10, #247 ) ;
#767 = VECTOR ( 'NONE', #491, 1000.000000000000000 ) ;
#768 = CARTESIAN_POINT ( 'NONE',  ( -88.44676806291899140, 9.958068614993628387, 12.24999999999998224 ) ) ;
#769 = ADVANCED_FACE ( 'NONE', ( #63 ), #542, .T. ) ;
ENDSEC;
END-ISO-10303-21;
