ISO-10303-21;
HEADER;
FILE_DESCRIPTION (( 'STEP AP214' ),
    '1' );
FILE_NAME ('õ4.STEP',
    '2026-01-21T22:04:48',
    ( '' ),
    ( '' ),
    'SwSTEP 2.0',
    'SolidWorks 2024',
    '' );
FILE_SCHEMA (( 'AUTOMOTIVE_DESIGN' ));
ENDSEC;

DATA;
#1 = VERTEX_POINT ( 'NONE', #335 ) ;
#2 = DIRECTION ( 'NONE',  ( 0.000000000000000000, 0.000000000000000000, 1.000000000000000000 ) ) ;
#3 = LINE ( 'NONE', #715, #53 ) ;
#4 = EDGE_CURVE ( 'NONE', #532, #129, #89, .T. ) ;
#5 = AXIS2_PLACEMENT_3D ( 'NONE', #288, #632, #693 ) ;
#6 = EDGE_LOOP ( 'NONE', ( #124, #525, #579, #469, #484, #622, #552, #245 ) ) ;
#7 = VECTOR ( 'NONE', #540, 1000.000000000000000 ) ;
#8 = PLANE ( 'NONE',  #400 ) ;
#9 = FACE_OUTER_BOUND ( 'NONE', #6, .T. ) ;
#10 = DIRECTION ( 'NONE',  ( -0.000000000000000000, 0.000000000000000000, -1.000000000000000000 ) ) ;
#11 = ADVANCED_FACE ( 'NONE', ( #397, #166 ), #226, .F. ) ;
#12 = VERTEX_POINT ( 'NONE', #519 ) ;
#13 = DIRECTION ( 'NONE',  ( 1.000000000000000000, 0.000000000000000000, -0.000000000000000000 ) ) ;
#14 = CARTESIAN_POINT ( 'NONE',  ( -88.89676806291899425, 24.95806861499363549, 5.000000000000000000 ) ) ;
#15 = CARTESIAN_POINT ( 'NONE',  ( -90.89676806291900846, -3.041931385006364064, -9.999999999999998224 ) ) ;
#16 = VERTEX_POINT ( 'NONE', #457 ) ;
#17 = CARTESIAN_POINT ( 'NONE',  ( 76.10323193708099154, -3.041931385006363175, 5.000000000000000000 ) ) ;
#18 = CARTESIAN_POINT ( 'NONE',  ( -90.89676806291900846, 10.95806861499363549, -4.999999999999998224 ) ) ;
#19 = CARTESIAN_POINT ( 'NONE',  ( 91.10323193708099154, 22.95806861499362483, 5.000000000000000000 ) ) ;
#20 = ORIENTED_EDGE ( 'NONE', *, *, #42, .F. ) ;
#21 = VECTOR ( 'NONE', #625, 1000.000000000000000 ) ;
#22 = EDGE_CURVE ( 'NONE', #702, #129, #565, .T. ) ;
#23 = DIRECTION ( 'NONE',  ( 1.949127501097536508E-17, -1.000000000000000000, 0.000000000000000000 ) ) ;
#24 = DIRECTION ( 'NONE',  ( 1.000000000000000000, 0.000000000000000000, 0.000000000000000000 ) ) ;
#25 = DIRECTION ( 'NONE',  ( -0.000000000000000000, -0.000000000000000000, -1.000000000000000000 ) ) ;
#26 = LINE ( 'NONE', #82, #294 ) ;
#27 = ORIENTED_EDGE ( 'NONE', *, *, #213, .T. ) ;
#28 = DIRECTION ( 'NONE',  ( -0.000000000000000000, 1.000000000000000000, -0.000000000000000000 ) ) ;
#29 = EDGE_CURVE ( 'NONE', #211, #51, #711, .T. ) ;
#30 = ORIENTED_EDGE ( 'NONE', *, *, #22, .F. ) ;
#31 = VECTOR ( 'NONE', #444, 1000.000000000000000 ) ;
#32 = CIRCLE ( 'NONE', #216, 2.000000000000001776 ) ;
#33 = AXIS2_PLACEMENT_3D ( 'NONE', #195, #378, #684 ) ;
#34 = DIRECTION ( 'NONE',  ( -1.000000000000000000, -0.000000000000000000, -0.000000000000000000 ) ) ;
#35 = CARTESIAN_POINT ( 'NONE',  ( 91.10323193708099154, 10.95806861499363372, -9.699999999999997513 ) ) ;
#36 = ORIENTED_EDGE ( 'NONE', *, *, #547, .F. ) ;
#37 = DIRECTION ( 'NONE',  ( 0.000000000000000000, 0.000000000000000000, 1.000000000000000000 ) ) ;
#38 = LINE ( 'NONE', #516, #600 ) ;
#39 = EDGE_LOOP ( 'NONE', ( #281, #639 ) ) ;
#40 =( LENGTH_UNIT ( ) NAMED_UNIT ( * ) SI_UNIT ( .MILLI., .METRE. ) );
#41 = EDGE_CURVE ( 'NONE', #692, #760, #682, .T. ) ;
#42 = EDGE_CURVE ( 'NONE', #198, #350, #206, .T. ) ;
#43 = CARTESIAN_POINT ( 'NONE',  ( -90.89676806291900846, 22.95806861499362128, 5.000000000000000000 ) ) ;
#44 = EDGE_LOOP ( 'NONE', ( #291, #115 ) ) ;
#45 = EDGE_LOOP ( 'NONE', ( #423, #303, #86, #652, #328, #623 ) ) ;
#46 = DIRECTION ( 'NONE',  ( 1.000000000000000000, 1.548860246407863829E-16, -0.000000000000000000 ) ) ;
#47 = DIRECTION ( 'NONE',  ( -1.000000000000000000, -1.949127501097536508E-17, -0.000000000000000000 ) ) ;
#48 = VERTEX_POINT ( 'NONE', #345 ) ;
#49 = EDGE_CURVE ( 'NONE', #361, #110, #742, .T. ) ;
#50 = AXIS2_PLACEMENT_3D ( 'NONE', #465, #383, #701 ) ;
#51 = VERTEX_POINT ( 'NONE', #642 ) ;
#52 = CARTESIAN_POINT ( 'NONE',  ( 76.10323193708099154, -3.041931385006363175, 5.000000000000000000 ) ) ;
#53 = VECTOR ( 'NONE', #233, 1000.000000000000000 ) ;
#54 = CARTESIAN_POINT ( 'NONE',  ( -88.44676806291899140, 10.95806861499363549, -4.999999999999998224 ) ) ;
#55 = VECTOR ( 'NONE', #504, 1000.000000000000000 ) ;
#56 = EDGE_LOOP ( 'NONE', ( #315, #101, #238, #59, #601, #366 ) ) ;
#57 = LINE ( 'NONE', #300, #514 ) ;
#58 = CARTESIAN_POINT ( 'NONE',  ( -90.89676806291900846, 22.95806861499362128, 5.000000000000000000 ) ) ;
#59 = ORIENTED_EDGE ( 'NONE', *, *, #348, .F. ) ;
#60 = LINE ( 'NONE', #412, #260 ) ;
#61 = ADVANCED_FACE ( 'NONE', ( #635 ), #163, .F. ) ;
#62 = CARTESIAN_POINT ( 'NONE',  ( -85.89676806291900846, -3.041931385006364952, -9.999999999999998224 ) ) ;
#63 = ORIENTED_EDGE ( 'NONE', *, *, #658, .F. ) ;
#64 = CARTESIAN_POINT ( 'NONE',  ( -76.89676806291900846, -3.041931385006362731, 0.000000000000000000 ) ) ;
#65 = CARTESIAN_POINT ( 'NONE',  ( 76.10323193708099154, 6.958068614993637269, 0.000000000000000000 ) ) ;
#66 = AXIS2_PLACEMENT_3D ( 'NONE', #700, #523, #574 ) ;
#67 = ORIENTED_EDGE ( 'NONE', *, *, #590, .T. ) ;
#68 = DIRECTION ( 'NONE',  ( -0.000000000000000000, -0.000000000000000000, -1.000000000000000000 ) ) ;
#69 =( NAMED_UNIT ( * ) SI_UNIT ( $, .STERADIAN. ) SOLID_ANGLE_UNIT ( ) );
#70 = PLANE ( 'NONE',  #486 ) ;
#71 = ORIENTED_EDGE ( 'NONE', *, *, #255, .T. ) ;
#72 = CARTESIAN_POINT ( 'NONE',  ( 89.10323193708097733, 24.95806861499363904, 5.000000000000000000 ) ) ;
#73 = CYLINDRICAL_SURFACE ( 'NONE', #204, 2.000000000000001776 ) ;
#74 = DIRECTION ( 'NONE',  ( -1.000000000000000000, -0.000000000000000000, -0.000000000000000000 ) ) ;
#75 = EDGE_LOOP ( 'NONE', ( #289, #515, #71, #292 ) ) ;
#76 = ADVANCED_FACE ( 'NONE', ( #144 ), #241, .F. ) ;
#77 =( LENGTH_UNIT ( ) NAMED_UNIT ( * ) SI_UNIT ( .MILLI., .METRE. ) );
#78 = FACE_OUTER_BOUND ( 'NONE', #136, .T. ) ;
#79 = CIRCLE ( 'NONE', #190, 2.000000000000001776 ) ;
#80 = ADVANCED_FACE ( 'NONE', ( #271, #502 ), #70, .T. ) ;
#81 = VECTOR ( 'NONE', #108, 1000.000000000000000 ) ;
#82 = CARTESIAN_POINT ( 'NONE',  ( 91.10323193708099154, 22.95806861499362483, -9.999999999999998224 ) ) ;
#83 = VERTEX_POINT ( 'NONE', #177 ) ;
#84 = PLANE ( 'NONE',  #450 ) ;
#85 = ADVANCED_FACE ( 'NONE', ( #531 ), #415, .F. ) ;
#86 = ORIENTED_EDGE ( 'NONE', *, *, #236, .T. ) ;
#87 = APPLICATION_CONTEXT ( 'automotive_design' ) ;
#88 = DIRECTION ( 'NONE',  ( -1.000000000000000000, -1.156482317317871478E-16, 0.000000000000000000 ) ) ;
#89 = CIRCLE ( 'NONE', #50, 4.699999999999998401 ) ;
#90 = ORIENTED_EDGE ( 'NONE', *, *, #753, .F. ) ;
#91 = AXIS2_PLACEMENT_3D ( 'NONE', #690, #344, #396 ) ;
#92 = DIRECTION ( 'NONE',  ( -1.000000000000000000, 0.000000000000000000, 0.000000000000000000 ) ) ;
#93 = CIRCLE ( 'NONE', #587, 2.000000000000001776 ) ;
#94 = CARTESIAN_POINT ( 'NONE',  ( -88.89676806291900846, 22.95806861499363904, -9.999999999999998224 ) ) ;
#95 = CYLINDRICAL_SURFACE ( 'NONE', #66, 2.249999999999993339 ) ;
#96 = EDGE_CURVE ( 'NONE', #402, #458, #237, .T. ) ;
#97 = DIRECTION ( 'NONE',  ( -1.000000000000000000, -0.000000000000000000, -0.000000000000000000 ) ) ;
#98 =( NAMED_UNIT ( * ) PLANE_ANGLE_UNIT ( ) SI_UNIT ( $, .RADIAN. ) );
#99 = AXIS2_PLACEMENT_3D ( 'NONE', #331, #349, #561 ) ;
#100 = CIRCLE ( 'NONE', #91, 4.699999999999998401 ) ;
#101 = ORIENTED_EDGE ( 'NONE', *, *, #680, .F. ) ;
#102 = AXIS2_PLACEMENT_3D ( 'NONE', #538, #125, #232 ) ;
#103 = PRODUCT_DEFINITION_FORMATION_WITH_SPECIFIED_SOURCE ( 'ANY', '', #594, .NOT_KNOWN. ) ;
#104 = PRESENTATION_STYLE_ASSIGNMENT (( #634 ) ) ;
#105 = EDGE_CURVE ( 'NONE', #717, #221, #735, .T. ) ;
#106 = CARTESIAN_POINT ( 'NONE',  ( -76.89676806291900846, -3.041931385006362731, 5.000000000000000000 ) ) ;
#107 = ORIENTED_EDGE ( 'NONE', *, *, #740, .T. ) ;
#108 = DIRECTION ( 'NONE',  ( -1.000000000000000000, 0.000000000000000000, 0.000000000000000000 ) ) ;
#109 = ORIENTED_EDGE ( 'NONE', *, *, #42, .T. ) ;
#110 = VERTEX_POINT ( 'NONE', #425 ) ;
#111 = DIRECTION ( 'NONE',  ( 1.000000000000000000, 1.548860246407863829E-16, -0.000000000000000000 ) ) ;
#112 = VECTOR ( 'NONE', #385, 1000.000000000000000 ) ;
#113 = CARTESIAN_POINT ( 'NONE',  ( 91.10323193708099154, 10.95806861499363372, -9.699999999999997513 ) ) ;
#114 = CIRCLE ( 'NONE', #736, 4.700000000000001066 ) ;
#115 = ORIENTED_EDGE ( 'NONE', *, *, #4, .F. ) ;
#116 = DIRECTION ( 'NONE',  ( -1.000000000000000000, 0.000000000000000000, 0.000000000000000000 ) ) ;
#117 = DIRECTION ( 'NONE',  ( 1.000000000000000000, 0.000000000000000000, -0.000000000000000000 ) ) ;
#118 = ADVANCED_BREP_SHAPE_REPRESENTATION ( '\X2\0445\X0\4', ( #451, #761 ), #142 ) ;
#119 = EDGE_CURVE ( 'NONE', #110, #48, #32, .T. ) ;
#120 = ORIENTED_EDGE ( 'NONE', *, *, #325, .F. ) ;
#121 = LINE ( 'NONE', #474, #564 ) ;
#122 = FACE_OUTER_BOUND ( 'NONE', #75, .T. ) ;
#123 = VERTEX_POINT ( 'NONE', #722 ) ;
#124 = ORIENTED_EDGE ( 'NONE', *, *, #704, .F. ) ;
#125 = DIRECTION ( 'NONE',  ( 1.000000000000000000, 0.000000000000000000, 0.000000000000000000 ) ) ;
#126 = DIRECTION ( 'NONE',  ( -1.000000000000000000, 0.000000000000000000, 0.000000000000000000 ) ) ;
#127 = DIRECTION ( 'NONE',  ( -0.000000000000000000, -0.000000000000000000, -1.000000000000000000 ) ) ;
#128 = PRESENTATION_LAYER_ASSIGNMENT (  '', '', ( #618 ) ) ;
#129 = VERTEX_POINT ( 'NONE', #113 ) ;
#130 = DIRECTION ( 'NONE',  ( -0.000000000000000000, -1.000000000000000000, -0.000000000000000000 ) ) ;
#131 = DIRECTION ( 'NONE',  ( 1.000000000000000000, 0.000000000000000000, 0.000000000000000000 ) ) ;
#132 = CARTESIAN_POINT ( 'NONE',  ( 86.10323193708099154, 24.95806861499363904, 0.000000000000000000 ) ) ;
#133 = ADVANCED_FACE ( 'NONE', ( #122 ), #610, .F. ) ;
#134 = CARTESIAN_POINT ( 'NONE',  ( -88.89676806291899425, 24.95806861499363549, 5.000000000000000000 ) ) ;
#135 = CARTESIAN_POINT ( 'NONE',  ( 76.10323193708099154, 6.958068614993637269, 5.000000000000000000 ) ) ;
#136 = EDGE_LOOP ( 'NONE', ( #63, #109, #674, #191, #440, #724, #287, #431 ) ) ;
#137 = CARTESIAN_POINT ( 'NONE',  ( -85.89676806291900846, 24.95806861499363549, -9.999999999999998224 ) ) ;
#138 = PLANE ( 'NONE',  #398 ) ;
#139 = VERTEX_POINT ( 'NONE', #593 ) ;
#140 = VECTOR ( 'NONE', #499, 1000.000000000000000 ) ;
#141 = EDGE_CURVE ( 'NONE', #211, #170, #188, .T. ) ;
#142 =( GEOMETRIC_REPRESENTATION_CONTEXT ( 3 ) GLOBAL_UNCERTAINTY_ASSIGNED_CONTEXT ( ( #421 ) ) GLOBAL_UNIT_ASSIGNED_CONTEXT ( ( #77, #478, #69 ) ) REPRESENTATION_CONTEXT ( 'NONE', 'WORKASPACE' ) );
#143 = CARTESIAN_POINT ( 'NONE',  ( 91.10323193708099154, 10.95806861499363372, -7.249999999999992006 ) ) ;
#144 = FACE_OUTER_BOUND ( 'NONE', #495, .T. ) ;
#145 = APPLICATION_PROTOCOL_DEFINITION ( 'draft international standard', 'automotive_design', 1998, #161 ) ;
#146 = DIRECTION ( 'NONE',  ( -0.000000000000000000, -0.000000000000000000, -1.000000000000000000 ) ) ;
#147 = ORIENTED_EDGE ( 'NONE', *, *, #534, .T. ) ;
#148 = CARTESIAN_POINT ( 'NONE',  ( -85.89676806291900846, -3.041931385006364952, -9.999999999999998224 ) ) ;
#149 = AXIS2_PLACEMENT_3D ( 'NONE', #459, #747, #511 ) ;
#150 = ORIENTED_EDGE ( 'NONE', *, *, #236, .F. ) ;
#151 = CARTESIAN_POINT ( 'NONE',  ( -90.89676806291900846, 10.95806861499363549, -4.999999999999998224 ) ) ;
#152 = EDGE_CURVE ( 'NONE', #611, #692, #296, .T. ) ;
#153 = PLANE ( 'NONE',  #439 ) ;
#154 = PRODUCT_RELATED_PRODUCT_CATEGORY ( 'part', '', ( #594 ) ) ;
#155 = PRODUCT_DEFINITION_SHAPE ( 'NONE', 'NONE',  #517 ) ;
#156 = CARTESIAN_POINT ( 'NONE',  ( 86.10323193708099154, 24.95806861499363904, -9.999999999999998224 ) ) ;
#157 = DIRECTION ( 'NONE',  ( 0.7071067811865470176, 0.000000000000000000, -0.7071067811865481278 ) ) ;
#158 = EDGE_CURVE ( 'NONE', #760, #184, #528, .T. ) ;
#159 = EDGE_LOOP ( 'NONE', ( #299, #669, #265, #751 ) ) ;
#160 = FACE_OUTER_BOUND ( 'NONE', #661, .T. ) ;
#161 = APPLICATION_CONTEXT ( 'automotive_design' ) ;
#162 = MECHANICAL_DESIGN_GEOMETRIC_PRESENTATION_REPRESENTATION (  '', ( #618 ), #712 ) ;
#163 = PLANE ( 'NONE',  #389 ) ;
#164 = ORIENTED_EDGE ( 'NONE', *, *, #298, .F. ) ;
#165 = PLANE ( 'NONE',  #272 ) ;
#166 = FACE_BOUND ( 'NONE', #522, .T. ) ;
#167 = ORIENTED_EDGE ( 'NONE', *, *, #434, .T. ) ;
#168 = LINE ( 'NONE', #644, #192 ) ;
#169 = CARTESIAN_POINT ( 'NONE',  ( -88.44676806291899140, 10.95806861499363549, -2.750000000000010214 ) ) ;
#170 = VERTEX_POINT ( 'NONE', #311 ) ;
#171 = DIRECTION ( 'NONE',  ( -1.000000000000000000, -0.000000000000000000, -0.000000000000000000 ) ) ;
#172 = CARTESIAN_POINT ( 'NONE',  ( -90.89676806291900846, 10.95806861499363549, -4.999999999999998224 ) ) ;
#173 = VECTOR ( 'NONE', #696, 1000.000000000000000 ) ;
#174 = EDGE_CURVE ( 'NONE', #16, #643, #301, .T. ) ;
#175 = ORIENTED_EDGE ( 'NONE', *, *, #96, .F. ) ;
#176 = DIRECTION ( 'NONE',  ( -1.000000000000000000, -0.000000000000000000, -0.000000000000000000 ) ) ;
#177 = CARTESIAN_POINT ( 'NONE',  ( -88.89676806291899425, 24.95806861499363904, -9.999999999999998224 ) ) ;
#178 = EDGE_LOOP ( 'NONE', ( #20, #655, #640, #314 ) ) ;
#179 = VERTEX_POINT ( 'NONE', #471 ) ;
#180 = DIRECTION ( 'NONE',  ( -1.000000000000000000, 0.000000000000000000, 0.000000000000000000 ) ) ;
#181 = CARTESIAN_POINT ( 'NONE',  ( 86.10323193708099154, 10.95806861499363372, -4.999999999999998224 ) ) ;
#182 = DIRECTION ( 'NONE',  ( 0.000000000000000000, 0.000000000000000000, -1.000000000000000000 ) ) ;
#183 = VERTEX_POINT ( 'NONE', #597 ) ;
#184 = VERTEX_POINT ( 'NONE', #62 ) ;
#185 = DIRECTION ( 'NONE',  ( -1.000000000000000000, 0.000000000000000000, 0.000000000000000000 ) ) ;
#186 = ADVANCED_FACE ( 'NONE', ( #483 ), #766, .F. ) ;
#187 = DIRECTION ( 'NONE',  ( -1.000000000000000000, -0.000000000000000000, -0.000000000000000000 ) ) ;
#188 = LINE ( 'NONE', #356, #189 ) ;
#189 = VECTOR ( 'NONE', #317, 999.9999999999998863 ) ;
#190 = AXIS2_PLACEMENT_3D ( 'NONE', #193, #320, #24 ) ;
#191 = ORIENTED_EDGE ( 'NONE', *, *, #207, .F. ) ;
#192 = VECTOR ( 'NONE', #111, 1000.000000000000000 ) ;
#193 = CARTESIAN_POINT ( 'NONE',  ( 89.10323193708099154, 22.95806861499364260, 5.000000000000000000 ) ) ;
#194 = CARTESIAN_POINT ( 'NONE',  ( -90.89676806291900846, 22.95806861499362128, -9.999999999999998224 ) ) ;
#195 = CARTESIAN_POINT ( 'NONE',  ( 86.10323193708099154, 10.95806861499363372, -4.999999999999998224 ) ) ;
#196 = EDGE_CURVE ( 'NONE', #377, #198, #430, .T. ) ;
#197 = VERTEX_POINT ( 'NONE', #535 ) ;
#198 = VERTEX_POINT ( 'NONE', #132 ) ;
#199 = DIRECTION ( 'NONE',  ( -0.000000000000000000, 1.000000000000000000, -0.000000000000000000 ) ) ;
#200 = CARTESIAN_POINT ( 'NONE',  ( -90.89676806291900846, 10.95806861499363549, -7.249999999999992895 ) ) ;
#201 = CLOSED_SHELL ( 'NONE', ( #76, #380, #710, #186, #462, #11, #61, #85, #395, #556, #250, #633, #763, #729, #472, #369, #80, #646, #575, #520, #376, #363, #133, #506 ) ) ;
#202 = DIRECTION ( 'NONE',  ( -1.548860246407863829E-16, 1.000000000000000000, 0.000000000000000000 ) ) ;
#203 = VECTOR ( 'NONE', #551, 1000.000000000000000 ) ;
#204 = AXIS2_PLACEMENT_3D ( 'NONE', #670, #25, #126 ) ;
#205 = DIRECTION ( 'NONE',  ( 0.000000000000000000, 0.000000000000000000, -1.000000000000000000 ) ) ;
#206 = LINE ( 'NONE', #505, #629 ) ;
#207 = EDGE_CURVE ( 'NONE', #666, #12, #3, .T. ) ;
#208 = ORIENTED_EDGE ( 'NONE', *, *, #41, .F. ) ;
#209 = CARTESIAN_POINT ( 'NONE',  ( -85.89676806291900846, 24.95806861499363549, -9.999999999999998224 ) ) ;
#210 = ORIENTED_EDGE ( 'NONE', *, *, #334, .T. ) ;
#211 = VERTEX_POINT ( 'NONE', #169 ) ;
#212 = DIRECTION ( 'NONE',  ( 0.000000000000000000, 0.000000000000000000, 1.000000000000000000 ) ) ;
#213 = EDGE_CURVE ( 'NONE', #643, #666, #375, .T. ) ;
#214 = FACE_OUTER_BOUND ( 'NONE', #733, .T. ) ;
#215 = AXIS2_PLACEMENT_3D ( 'NONE', #43, #460, #583 ) ;
#216 = AXIS2_PLACEMENT_3D ( 'NONE', #604, #660, #589 ) ;
#217 = VECTOR ( 'NONE', #494, 1000.000000000000000 ) ;
#218 = CARTESIAN_POINT ( 'NONE',  ( -85.89676806291900846, 10.95806861499363549, -4.999999999999998224 ) ) ;
#219 = VECTOR ( 'NONE', #550, 1000.000000000000000 ) ;
#220 = CARTESIAN_POINT ( 'NONE',  ( 76.10323193708099154, 6.958068614993637269, 0.000000000000000000 ) ) ;
#221 = VERTEX_POINT ( 'NONE', #705 ) ;
#222 = DIRECTION ( 'NONE',  ( 0.000000000000000000, 0.000000000000000000, 1.000000000000000000 ) ) ;
#223 = EDGE_CURVE ( 'NONE', #365, #666, #409, .T. ) ;
#224 = ORIENTED_EDGE ( 'NONE', *, *, #685, .F. ) ;
#225 = DIRECTION ( 'NONE',  ( 0.000000000000000000, 0.000000000000000000, 1.000000000000000000 ) ) ;
#226 = PLANE ( 'NONE',  #215 ) ;
#227 = ORIENTED_EDGE ( 'NONE', *, *, #497, .T. ) ;
#228 =( NAMED_UNIT ( * ) SI_UNIT ( $, .STERADIAN. ) SOLID_ANGLE_UNIT ( ) );
#229 = AXIS2_PLACEMENT_3D ( 'NONE', #392, #222, #13 ) ;
#230 = ORIENTED_EDGE ( 'NONE', *, *, #141, .F. ) ;
#231 = EDGE_LOOP ( 'NONE', ( #418, #656, #599, #90 ) ) ;
#232 = DIRECTION ( 'NONE',  ( 0.000000000000000000, 0.000000000000000000, -1.000000000000000000 ) ) ;
#233 = DIRECTION ( 'NONE',  ( -0.000000000000000000, -1.000000000000000000, -0.000000000000000000 ) ) ;
#234 = ORIENTED_EDGE ( 'NONE', *, *, #41, .T. ) ;
#235 = DIRECTION ( 'NONE',  ( -0.7071067811865467956, 8.659560562354942719E-17, -0.7071067811865483499 ) ) ;
#236 = EDGE_CURVE ( 'NONE', #403, #760, #560, .T. ) ;
#237 = LINE ( 'NONE', #665, #725 ) ;
#238 = ORIENTED_EDGE ( 'NONE', *, *, #685, .T. ) ;
#239 = ORIENTED_EDGE ( 'NONE', *, *, #284, .T. ) ;
#240 = LINE ( 'NONE', #641, #501 ) ;
#241 = CONICAL_SURFACE ( 'NONE', #99, 4.699999999999998401, 0.7853981633974490562 ) ;
#242 = DIRECTION ( 'NONE',  ( 0.000000000000000000, 0.000000000000000000, 1.000000000000000000 ) ) ;
#243 = AXIS2_PLACEMENT_3D ( 'NONE', #728, #671, #205 ) ;
#244 = CONICAL_SURFACE ( 'NONE', #605, 4.700000000000001066, 0.7853981633974492782 ) ;
#245 = ORIENTED_EDGE ( 'NONE', *, *, #559, .T. ) ;
#246 = CARTESIAN_POINT ( 'NONE',  ( -85.89676806291900846, 24.95806861499363549, -9.999999999999998224 ) ) ;
#247 = DIRECTION ( 'NONE',  ( 1.000000000000000000, 1.949127501097536508E-17, 0.000000000000000000 ) ) ;
#248 = CARTESIAN_POINT ( 'NONE',  ( -85.89676806291900846, 10.95806861499363549, -4.999999999999998224 ) ) ;
#249 = EDGE_LOOP ( 'NONE', ( #269, #411, #455, #699 ) ) ;
#250 = ADVANCED_FACE ( 'NONE', ( #727 ), #84, .F. ) ;
#251 = CARTESIAN_POINT ( 'NONE',  ( 91.10323193708099154, 10.95806861499363372, -4.999999999999998224 ) ) ;
#252 = DIRECTION ( 'NONE',  ( 0.000000000000000000, 0.000000000000000000, 1.000000000000000000 ) ) ;
#253 = DIRECTION ( 'NONE',  ( 1.000000000000000000, -1.734723475976805615E-16, 0.000000000000000000 ) ) ;
#254 = ORIENTED_EDGE ( 'NONE', *, *, #268, .T. ) ;
#255 = EDGE_CURVE ( 'NONE', #123, #702, #676, .T. ) ;
#256 = FACE_OUTER_BOUND ( 'NONE', #321, .T. ) ;
#257 = CARTESIAN_POINT ( 'NONE',  ( -90.89676806291900846, -3.041931385006364064, -9.999999999999998224 ) ) ;
#258 = FACE_OUTER_BOUND ( 'NONE', #581, .T. ) ;
#259 = CIRCLE ( 'NONE', #243, 2.249999999999988010 ) ;
#260 = VECTOR ( 'NONE', #362, 1000.000000000000000 ) ;
#261 = EDGE_LOOP ( 'NONE', ( #422, #445, #615, #542, #224 ) ) ;
#262 = VECTOR ( 'NONE', #527, 1000.000000000000000 ) ;
#263 = LINE ( 'NONE', #266, #283 ) ;
#264 = CARTESIAN_POINT ( 'NONE',  ( 91.10323193708099154, -3.041931385006361399, 0.000000000000000000 ) ) ;
#265 = ORIENTED_EDGE ( 'NONE', *, *, #152, .F. ) ;
#266 = CARTESIAN_POINT ( 'NONE',  ( 91.10323193708099154, -3.041931385006363175, -9.999999999999998224 ) ) ;
#267 = CARTESIAN_POINT ( 'NONE',  ( -88.44676806291899140, 10.95806861499363549, -4.999999999999998224 ) ) ;
#268 = EDGE_CURVE ( 'NONE', #170, #537, #114, .T. ) ;
#269 = ORIENTED_EDGE ( 'NONE', *, *, #606, .T. ) ;
#270 = LINE ( 'NONE', #200, #140 ) ;
#271 = FACE_BOUND ( 'NONE', #39, .T. ) ;
#272 = AXIS2_PLACEMENT_3D ( 'NONE', #508, #92, #212 ) ;
#273 = EDGE_LOOP ( 'NONE', ( #354, #372, #607, #277 ) ) ;
#274 = LINE ( 'NONE', #327, #55 ) ;
#275 = DIRECTION ( 'NONE',  ( -1.000000000000000000, -0.000000000000000000, -0.000000000000000000 ) ) ;
#276 = EDGE_CURVE ( 'NONE', #197, #110, #26, .T. ) ;
#277 = ORIENTED_EDGE ( 'NONE', *, *, #405, .T. ) ;
#278 = ORIENTED_EDGE ( 'NONE', *, *, #534, .F. ) ;
#279 = FACE_BOUND ( 'NONE', #44, .T. ) ;
#280 = CARTESIAN_POINT ( 'NONE',  ( 91.10323193708099154, -3.041931385006361399, 5.000000000000000000 ) ) ;
#281 = ORIENTED_EDGE ( 'NONE', *, *, #442, .F. ) ;
#282 = VECTOR ( 'NONE', #171, 1000.000000000000000 ) ;
#283 = VECTOR ( 'NONE', #482, 1000.000000000000000 ) ;
#284 = EDGE_CURVE ( 'NONE', #361, #183, #79, .T. ) ;
#285 = LINE ( 'NONE', #280, #173 ) ;
#286 = CARTESIAN_POINT ( 'NONE',  ( 91.10323193708099154, 22.95806861499362483, 5.000000000000000000 ) ) ;
#287 = ORIENTED_EDGE ( 'NONE', *, *, #454, .F. ) ;
#288 = CARTESIAN_POINT ( 'NONE',  ( -90.89676806291900846, 10.95806861499363549, -4.999999999999998224 ) ) ;
#289 = ORIENTED_EDGE ( 'NONE', *, *, #353, .F. ) ;
#290 = EDGE_CURVE ( 'NONE', #329, #702, #259, .T. ) ;
#291 = ORIENTED_EDGE ( 'NONE', *, *, #405, .F. ) ;
#292 = ORIENTED_EDGE ( 'NONE', *, *, #673, .T. ) ;
#293 = LINE ( 'NONE', #602, #295 ) ;
#294 = VECTOR ( 'NONE', #28, 1000.000000000000000 ) ;
#295 = VECTOR ( 'NONE', #588, 1000.000000000000000 ) ;
#296 = LINE ( 'NONE', #58, #759 ) ;
#297 = VECTOR ( 'NONE', #553, 1000.000000000000000 ) ;
#298 = EDGE_CURVE ( 'NONE', #123, #466, #688, .T. ) ;
#299 = ORIENTED_EDGE ( 'NONE', *, *, #704, .T. ) ;
#300 = CARTESIAN_POINT ( 'NONE',  ( 76.10323193708099154, 6.958068614993637269, 5.000000000000000000 ) ) ;
#301 = LINE ( 'NONE', #654, #536 ) ;
#302 = UNCERTAINTY_MEASURE_WITH_UNIT (LENGTH_MEASURE( 1.000000000000000082E-05 ), #40, 'distance_accuracy_value', 'NONE');
#303 = ORIENTED_EDGE ( 'NONE', *, *, #614, .F. ) ;
#304 = DIRECTION ( 'NONE',  ( 1.000000000000000000, -0.000000000000000000, -0.000000000000000000 ) ) ;
#305 = EDGE_CURVE ( 'NONE', #184, #402, #332, .T. ) ;
#306 = DIRECTION ( 'NONE',  ( 0.000000000000000000, 0.000000000000000000, 1.000000000000000000 ) ) ;
#307 = ORIENTED_EDGE ( 'NONE', *, *, #753, .T. ) ;
#308 = DIRECTION ( 'NONE',  ( -0.000000000000000000, 0.000000000000000000, -1.000000000000000000 ) ) ;
#309 = AXIS2_PLACEMENT_3D ( 'NONE', #709, #719, #359 ) ;
#310 = CARTESIAN_POINT ( 'NONE',  ( -88.89676806291900846, 22.95806861499363904, 5.000000000000000000 ) ) ;
#311 = CARTESIAN_POINT ( 'NONE',  ( -90.89676806291900846, 10.95806861499363549, -0.2999999999999973244 ) ) ;
#312 = EDGE_CURVE ( 'NONE', #717, #51, #270, .T. ) ;
#313 = AXIS2_PLACEMENT_3D ( 'NONE', #662, #487, #185 ) ;
#314 = ORIENTED_EDGE ( 'NONE', *, *, #680, .T. ) ;
#315 = ORIENTED_EDGE ( 'NONE', *, *, #340, .T. ) ;
#316 = CARTESIAN_POINT ( 'NONE',  ( -76.89676806291900846, 6.958068614993637269, 0.000000000000000000 ) ) ;
#317 = DIRECTION ( 'NONE',  ( -0.7071067811865467956, 0.000000000000000000, 0.7071067811865483499 ) ) ;
#318 = LINE ( 'NONE', #17, #573 ) ;
#319 = DIRECTION ( 'NONE',  ( 0.000000000000000000, 0.000000000000000000, 1.000000000000000000 ) ) ;
#320 = DIRECTION ( 'NONE',  ( 0.000000000000000000, 0.000000000000000000, 1.000000000000000000 ) ) ;
#321 = EDGE_LOOP ( 'NONE', ( #352, #337, #346, #617 ) ) ;
#322 = CARTESIAN_POINT ( 'NONE',  ( 91.10323193708099154, 22.95806861499362483, 5.000000000000000000 ) ) ;
#323 = CARTESIAN_POINT ( 'NONE',  ( -88.89676806291900846, 22.95806861499363904, 0.000000000000000000 ) ) ;
#324 = ORIENTED_EDGE ( 'NONE', *, *, #442, .T. ) ;
#325 = EDGE_CURVE ( 'NONE', #51, #211, #571, .T. ) ;
#326 = CARTESIAN_POINT ( 'NONE',  ( 88.65323193708097449, 10.95806861499363372, -7.249999999999986677 ) ) ;
#327 = CARTESIAN_POINT ( 'NONE',  ( 91.10323193708099154, 10.95806861499363372, -2.750000000000004885 ) ) ;
#328 = ORIENTED_EDGE ( 'NONE', *, *, #305, .T. ) ;
#329 = VERTEX_POINT ( 'NONE', #737 ) ;
#330 = DIRECTION ( 'NONE',  ( 0.000000000000000000, 0.000000000000000000, 1.000000000000000000 ) ) ;
#331 = CARTESIAN_POINT ( 'NONE',  ( 91.10323193708099154, 10.95806861499363372, -4.999999999999998224 ) ) ;
#332 = LINE ( 'NONE', #148, #217 ) ;
#333 = AXIS2_PLACEMENT_3D ( 'NONE', #54, #275, #739 ) ;
#334 = EDGE_CURVE ( 'NONE', #179, #16, #443, .T. ) ;
#335 = CARTESIAN_POINT ( 'NONE',  ( -88.89676806291899425, 24.95806861499363549, 5.000000000000000000 ) ) ;
#336 = VECTOR ( 'NONE', #681, 1000.000000000000000 ) ;
#337 = ORIENTED_EDGE ( 'NONE', *, *, #119, .T. ) ;
#338 = FACE_OUTER_BOUND ( 'NONE', #754, .T. ) ;
#339 = SURFACE_SIDE_STYLE ('',( #341 ) ) ;
#340 = EDGE_CURVE ( 'NONE', #12, #350, #627, .T. ) ;
#341 = SURFACE_STYLE_FILL_AREA ( #566 ) ;
#342 = CONICAL_SURFACE ( 'NONE', #647, 4.700000000000001066, 0.7853981633974492782 ) ;
#343 = VECTOR ( 'NONE', #596, 1000.000000000000000 ) ;
#344 = DIRECTION ( 'NONE',  ( 1.000000000000000000, -0.000000000000000000, -0.000000000000000000 ) ) ;
#345 = CARTESIAN_POINT ( 'NONE',  ( 89.10323193708097733, 24.95806861499363904, -9.999999999999998224 ) ) ;
#346 = ORIENTED_EDGE ( 'NONE', *, *, #630, .F. ) ;
#347 = ORIENTED_EDGE ( 'NONE', *, *, #312, .T. ) ;
#348 = EDGE_CURVE ( 'NONE', #695, #197, #613, .T. ) ;
#349 = DIRECTION ( 'NONE',  ( 1.000000000000000000, -0.000000000000000000, -0.000000000000000000 ) ) ;
#350 = VERTEX_POINT ( 'NONE', #496 ) ;
#351 = LINE ( 'NONE', #52, #738 ) ;
#352 = ORIENTED_EDGE ( 'NONE', *, *, #49, .T. ) ;
#353 = EDGE_CURVE ( 'NONE', #466, #329, #274, .T. ) ;
#354 = ORIENTED_EDGE ( 'NONE', *, *, #489, .F. ) ;
#355 = CARTESIAN_POINT ( 'NONE',  ( -88.89676806291899425, 24.95806861499363549, 5.000000000000000000 ) ) ;
#356 = CARTESIAN_POINT ( 'NONE',  ( -90.89676806291900846, 10.95806861499363549, -0.2999999999999973244 ) ) ;
#357 = ORIENTED_EDGE ( 'NONE', *, *, #207, .T. ) ;
#358 = DIRECTION ( 'NONE',  ( 0.000000000000000000, 0.000000000000000000, -1.000000000000000000 ) ) ;
#359 = DIRECTION ( 'NONE',  ( 0.000000000000000000, 0.000000000000000000, 1.000000000000000000 ) ) ;
#360 = VERTEX_POINT ( 'NONE', #209 ) ;
#361 = VERTEX_POINT ( 'NONE', #19 ) ;
#362 = DIRECTION ( 'NONE',  ( 0.000000000000000000, -1.000000000000000000, 0.000000000000000000 ) ) ;
#363 = ADVANCED_FACE ( 'NONE', ( #258 ), #342, .F. ) ;
#364 = DIRECTION ( 'NONE',  ( -0.000000000000000000, -0.000000000000000000, -1.000000000000000000 ) ) ;
#365 = VERTEX_POINT ( 'NONE', #135 ) ;
#366 = ORIENTED_EDGE ( 'NONE', *, *, #570, .T. ) ;
#367 = LINE ( 'NONE', #316, #262 ) ;
#368 = LINE ( 'NONE', #137, #219 ) ;
#369 = ADVANCED_FACE ( 'NONE', ( #78 ), #138, .F. ) ;
#370 = CARTESIAN_POINT ( 'NONE',  ( -85.89676806291900846, 24.95806861499363549, -9.999999999999998224 ) ) ;
#371 = VECTOR ( 'NONE', #47, 1000.000000000000000 ) ;
#372 = ORIENTED_EDGE ( 'NONE', *, *, #673, .F. ) ;
#373 = CARTESIAN_POINT ( 'NONE',  ( -76.89676806291900846, 6.958068614993637269, 0.000000000000000000 ) ) ;
#374 = FACE_OUTER_BOUND ( 'NONE', #159, .T. ) ;
#375 = LINE ( 'NONE', #65, #488 ) ;
#376 = ADVANCED_FACE ( 'NONE', ( #620 ), #558, .F. ) ;
#377 = VERTEX_POINT ( 'NONE', #156 ) ;
#378 = DIRECTION ( 'NONE',  ( -1.000000000000000000, 0.000000000000000000, 0.000000000000000000 ) ) ;
#379 = ORIENTED_EDGE ( 'NONE', *, *, #614, .T. ) ;
#380 = ADVANCED_FACE ( 'NONE', ( #338 ), #95, .F. ) ;
#381 = DIRECTION ( 'NONE',  ( 0.000000000000000000, 0.000000000000000000, 1.000000000000000000 ) ) ;
#382 = CARTESIAN_POINT ( 'NONE',  ( -90.89676806291900846, 10.95806861499363549, -4.999999999999998224 ) ) ;
#383 = DIRECTION ( 'NONE',  ( 1.000000000000000000, -0.000000000000000000, -0.000000000000000000 ) ) ;
#384 = DIRECTION ( 'NONE',  ( 1.000000000000000000, 0.000000000000000000, 0.000000000000000000 ) ) ;
#385 = DIRECTION ( 'NONE',  ( 1.000000000000000000, -0.000000000000000000, -0.000000000000000000 ) ) ;
#386 = EDGE_CURVE ( 'NONE', #139, #695, #285, .T. ) ;
#387 = ORIENTED_EDGE ( 'NONE', *, *, #105, .T. ) ;
#388 = CARTESIAN_POINT ( 'NONE',  ( -76.89676806291900846, 6.958068614993637269, 5.000000000000000000 ) ) ;
#389 = AXIS2_PLACEMENT_3D ( 'NONE', #106, #202, #679 ) ;
#390 = AXIS2_PLACEMENT_3D ( 'NONE', #172, #475, #242 ) ;
#391 = VECTOR ( 'NONE', #176, 1000.000000000000000 ) ;
#392 = CARTESIAN_POINT ( 'NONE',  ( -88.89676806291900846, 22.95806861499363904, 5.000000000000000000 ) ) ;
#393 = DIRECTION ( 'NONE',  ( 1.000000000000000000, 0.000000000000000000, -0.000000000000000000 ) ) ;
#394 = DIRECTION ( 'NONE',  ( 1.000000000000000000, -0.000000000000000000, -0.000000000000000000 ) ) ;
#395 = ADVANCED_FACE ( 'NONE', ( #160 ), #153, .F. ) ;
#396 = DIRECTION ( 'NONE',  ( 0.000000000000000000, 0.000000000000000000, -1.000000000000000000 ) ) ;
#397 = FACE_OUTER_BOUND ( 'NONE', #767, .T. ) ;
#398 = AXIS2_PLACEMENT_3D ( 'NONE', #323, #381, #554 ) ;
#399 = ORIENTED_EDGE ( 'NONE', *, *, #268, .F. ) ;
#400 = AXIS2_PLACEMENT_3D ( 'NONE', #404, #116, #2 ) ;
#401 = DIRECTION ( 'NONE',  ( 0.000000000000000000, 0.000000000000000000, -1.000000000000000000 ) ) ;
#402 = VERTEX_POINT ( 'NONE', #449 ) ;
#403 = VERTEX_POINT ( 'NONE', #568 ) ;
#404 = CARTESIAN_POINT ( 'NONE',  ( 86.10323193708099154, 24.95806861499363904, -9.999999999999998224 ) ) ;
#405 = EDGE_CURVE ( 'NONE', #129, #532, #100, .T. ) ;
#406 = EDGE_LOOP ( 'NONE', ( #120, #227, #167, #230 ) ) ;
#407 = ORIENTED_EDGE ( 'NONE', *, *, #4, .T. ) ;
#408 = PLANE ( 'NONE',  #677 ) ;
#409 = LINE ( 'NONE', #645, #687 ) ;
#410 = AXIS2_PLACEMENT_3D ( 'NONE', #248, #769, #182 ) ;
#411 = ORIENTED_EDGE ( 'NONE', *, *, #174, .F. ) ;
#412 = CARTESIAN_POINT ( 'NONE',  ( -90.89676806291900846, 22.95806861499362128, 5.000000000000000000 ) ) ;
#413 = CIRCLE ( 'NONE', #636, 2.249999999999994227 ) ;
#414 = CONICAL_SURFACE ( 'NONE', #572, 4.699999999999998401, 0.7853981633974490562 ) ;
#415 = PLANE ( 'NONE',  #309 ) ;
#416 = AXIS2_PLACEMENT_3D ( 'NONE', #181, #429, #252 ) ;
#417 = EDGE_CURVE ( 'NONE', #83, #692, #539, .T. ) ;
#418 = ORIENTED_EDGE ( 'NONE', *, *, #348, .T. ) ;
#419 = CARTESIAN_POINT ( 'NONE',  ( -88.89676806291899425, 24.95806861499363549, -9.999999999999998224 ) ) ;
#420 = DIRECTION ( 'NONE',  ( 0.000000000000000000, 0.000000000000000000, -1.000000000000000000 ) ) ;
#421 = UNCERTAINTY_MEASURE_WITH_UNIT (LENGTH_MEASURE( 1.000000000000000082E-05 ), #77, 'distance_accuracy_value', 'NONE');
#422 = ORIENTED_EDGE ( 'NONE', *, *, #749, .F. ) ;
#423 = ORIENTED_EDGE ( 'NONE', *, *, #580, .F. ) ;
#424 = LINE ( 'NONE', #592, #81 ) ;
#425 = CARTESIAN_POINT ( 'NONE',  ( 91.10323193708099154, 22.95806861499362483, -9.999999999999998224 ) ) ;
#426 = ORIENTED_EDGE ( 'NONE', *, *, #223, .T. ) ;
#427 = LINE ( 'NONE', #72, #678 ) ;
#428 = VECTOR ( 'NONE', #306, 1000.000000000000000 ) ;
#429 = DIRECTION ( 'NONE',  ( -1.000000000000000000, 0.000000000000000000, 0.000000000000000000 ) ) ;
#430 = LINE ( 'NONE', #541, #428 ) ;
#431 = ORIENTED_EDGE ( 'NONE', *, *, #96, .T. ) ;
#432 = LINE ( 'NONE', #557, #297 ) ;
#433 = DIRECTION ( 'NONE',  ( -1.000000000000000000, -0.000000000000000000, -0.000000000000000000 ) ) ;
#434 = EDGE_CURVE ( 'NONE', #537, #170, #585, .T. ) ;
#435 = DIRECTION ( 'NONE',  ( -0.000000000000000000, -0.000000000000000000, -1.000000000000000000 ) ) ;
#436 = CARTESIAN_POINT ( 'NONE',  ( 91.10323193708099154, -3.041931385006361399, 5.000000000000000000 ) ) ;
#437 = EDGE_LOOP ( 'NONE', ( #357, #706, #480, #426 ) ) ;
#438 = DIRECTION ( 'NONE',  ( 0.000000000000000000, 0.000000000000000000, 1.000000000000000000 ) ) ;
#439 = AXIS2_PLACEMENT_3D ( 'NONE', #518, #452, #755 ) ;
#440 = ORIENTED_EDGE ( 'NONE', *, *, #213, .F. ) ;
#441 = VECTOR ( 'NONE', #199, 1000.000000000000000 ) ;
#442 = EDGE_CURVE ( 'NONE', #221, #717, #413, .T. ) ;
#443 = LINE ( 'NONE', #388, #336 ) ;
#444 = DIRECTION ( 'NONE',  ( -0.000000000000000000, -0.000000000000000000, -1.000000000000000000 ) ) ;
#445 = ORIENTED_EDGE ( 'NONE', *, *, #521, .F. ) ;
#446 = DIRECTION ( 'NONE',  ( -1.156482317317871478E-16, 1.000000000000000000, 0.000000000000000000 ) ) ;
#447 = ORIENTED_EDGE ( 'NONE', *, *, #489, .T. ) ;
#448 = ORIENTED_EDGE ( 'NONE', *, *, #616, .T. ) ;
#449 = CARTESIAN_POINT ( 'NONE',  ( -85.89676806291900846, -3.041931385006364952, 0.000000000000000000 ) ) ;
#450 = AXIS2_PLACEMENT_3D ( 'NONE', #741, #446, #88 ) ;
#451 = MANIFOLD_SOLID_BREP ( '\X2\04170435043d043a043e0432043a0430\X0\ \X2\0434043b044f\X0\  \X2\04320438043d04420430\X0\ \X2\0441\X0\ \X2\043f043b043e0441043a043e0439\X0\ \X2\0433043e043b043e0432043a043e0439\X0\ M44', #201 ) ;
#452 = DIRECTION ( 'NONE',  ( 0.000000000000000000, 1.000000000000000000, -0.000000000000000000 ) ) ;
#453 = CARTESIAN_POINT ( 'NONE',  ( 88.65323193708097449, 10.95806861499363372, -4.999999999999998224 ) ) ;
#454 = EDGE_CURVE ( 'NONE', #402, #493, #38, .T. ) ;
#455 = ORIENTED_EDGE ( 'NONE', *, *, #334, .F. ) ;
#456 = SHAPE_DEFINITION_REPRESENTATION ( #155, #118 ) ;
#457 = CARTESIAN_POINT ( 'NONE',  ( -76.89676806291900846, 6.958068614993637269, 5.000000000000000000 ) ) ;
#458 = VERTEX_POINT ( 'NONE', #638 ) ;
#459 = CARTESIAN_POINT ( 'NONE',  ( -88.89676806291900846, 22.95806861499363904, -9.999999999999998224 ) ) ;
#460 = DIRECTION ( 'NONE',  ( 1.000000000000000000, 0.000000000000000000, -0.000000000000000000 ) ) ;
#461 = AXIS2_PLACEMENT_3D ( 'NONE', #151, #97, #225 ) ;
#462 = ADVANCED_FACE ( 'NONE', ( #752, #279 ), #165, .F. ) ;
#463 = EDGE_LOOP ( 'NONE', ( #762, #307, #239, #764, #526, #147, #379, #210, #628, #448 ) ) ;
#464 = PLANE ( 'NONE',  #750 ) ;
#465 = CARTESIAN_POINT ( 'NONE',  ( 91.10323193708099154, 10.95806861499363372, -4.999999999999998224 ) ) ;
#466 = VERTEX_POINT ( 'NONE', #745 ) ;
#467 = LINE ( 'NONE', #419, #282 ) ;
#468 = DIRECTION ( 'NONE',  ( 1.000000000000000000, -0.000000000000000000, -0.000000000000000000 ) ) ;
#469 = ORIENTED_EDGE ( 'NONE', *, *, #521, .T. ) ;
#470 = FACE_OUTER_BOUND ( 'NONE', #273, .T. ) ;
#471 = CARTESIAN_POINT ( 'NONE',  ( -76.89676806291900846, -3.041931385006362731, 5.000000000000000000 ) ) ;
#472 = ADVANCED_FACE ( 'NONE', ( #631 ), #686, .T. ) ;
#473 = ORIENTED_EDGE ( 'NONE', *, *, #434, .F. ) ;
#474 = CARTESIAN_POINT ( 'NONE',  ( -90.89676806291900846, 10.95806861499363549, -9.700000000000001066 ) ) ;
#475 = DIRECTION ( 'NONE',  ( -1.000000000000000000, -0.000000000000000000, -0.000000000000000000 ) ) ;
#476 = ORIENTED_EDGE ( 'NONE', *, *, #559, .F. ) ;
#477 = CARTESIAN_POINT ( 'NONE',  ( -90.89676806291900846, 10.95806861499363549, -2.750000000000003997 ) ) ;
#478 =( NAMED_UNIT ( * ) PLANE_ANGLE_UNIT ( ) SI_UNIT ( $, .RADIAN. ) );
#479 = DIRECTION ( 'NONE',  ( 1.000000000000000000, -0.000000000000000000, -0.000000000000000000 ) ) ;
#480 = ORIENTED_EDGE ( 'NONE', *, *, #616, .F. ) ;
#481 = LINE ( 'NONE', #355, #343 ) ;
#482 = DIRECTION ( 'NONE',  ( 1.000000000000000000, -0.000000000000000000, -0.000000000000000000 ) ) ;
#483 = FACE_OUTER_BOUND ( 'NONE', #507, .T. ) ;
#484 = ORIENTED_EDGE ( 'NONE', *, *, #196, .T. ) ;
#485 = VECTOR ( 'NONE', #157, 1000.000000000000000 ) ;
#486 = AXIS2_PLACEMENT_3D ( 'NONE', #370, #117, #10 ) ;
#487 = DIRECTION ( 'NONE',  ( -0.000000000000000000, -0.000000000000000000, -1.000000000000000000 ) ) ;
#488 = VECTOR ( 'NONE', #468, 1000.000000000000000 ) ;
#489 = EDGE_CURVE ( 'NONE', #329, #532, #293, .T. ) ;
#490 = PLANE ( 'NONE',  #637 ) ;
#491 = CARTESIAN_POINT ( 'NONE',  ( -90.89676806291900846, 10.95806861499363549, -4.999999999999998224 ) ) ;
#492 = EDGE_LOOP ( 'NONE', ( #743, #387, #707, #730 ) ) ;
#493 = VERTEX_POINT ( 'NONE', #64 ) ;
#494 = DIRECTION ( 'NONE',  ( 0.000000000000000000, 0.000000000000000000, 1.000000000000000000 ) ) ;
#495 = EDGE_LOOP ( 'NONE', ( #498, #447, #407, #30 ) ) ;
#496 = CARTESIAN_POINT ( 'NONE',  ( 86.10323193708099154, -3.041931385006363175, 0.000000000000000000 ) ) ;
#497 = EDGE_CURVE ( 'NONE', #51, #537, #121, .T. ) ;
#498 = ORIENTED_EDGE ( 'NONE', *, *, #290, .F. ) ;
#499 = DIRECTION ( 'NONE',  ( -1.000000000000000000, -0.000000000000000000, -0.000000000000000000 ) ) ;
#500 = COLOUR_RGB ( '',0.7921568627450980005, 0.8196078431372548767, 0.9333333333333333481 ) ;
#501 = VECTOR ( 'NONE', #703, 1000.000000000000000 ) ;
#502 = FACE_OUTER_BOUND ( 'NONE', #555, .T. ) ;
#503 = ORIENTED_EDGE ( 'NONE', *, *, #691, .F. ) ;
#504 = DIRECTION ( 'NONE',  ( 1.000000000000000000, -0.000000000000000000, -0.000000000000000000 ) ) ;
#505 = CARTESIAN_POINT ( 'NONE',  ( 86.10323193708099154, 22.95806861499363904, 0.000000000000000000 ) ) ;
#506 = ADVANCED_FACE ( 'NONE', ( #470 ), #414, .F. ) ;
#507 = EDGE_LOOP ( 'NONE', ( #324, #347, #576, #734 ) ) ;
#508 = CARTESIAN_POINT ( 'NONE',  ( 91.10323193708099154, 22.95806861499362483, 5.000000000000000000 ) ) ;
#509 = LINE ( 'NONE', #748, #371 ) ;
#510 = PRODUCT_CONTEXT ( 'NONE', #87, 'mechanical' ) ;
#511 = DIRECTION ( 'NONE',  ( -1.000000000000000000, 0.000000000000000000, 0.000000000000000000 ) ) ;
#512 = EDGE_CURVE ( 'NONE', #221, #211, #708, .T. ) ;
#513 = DIRECTION ( 'NONE',  ( -0.000000000000000000, 0.000000000000000000, -1.000000000000000000 ) ) ;
#514 = VECTOR ( 'NONE', #304, 1000.000000000000000 ) ;
#515 = ORIENTED_EDGE ( 'NONE', *, *, #691, .T. ) ;
#516 = CARTESIAN_POINT ( 'NONE',  ( -76.89676806291900846, -3.041931385006362731, 0.000000000000000000 ) ) ;
#517 = PRODUCT_DEFINITION ( 'UNKNOWN', '', #103, #723 ) ;
#518 = CARTESIAN_POINT ( 'NONE',  ( 76.10323193708099154, 6.958068614993637269, 5.000000000000000000 ) ) ;
#519 = CARTESIAN_POINT ( 'NONE',  ( 76.10323193708099154, -3.041931385006363175, 0.000000000000000000 ) ) ;
#520 = ADVANCED_FACE ( 'NONE', ( #543 ), #408, .T. ) ;
#521 = EDGE_CURVE ( 'NONE', #48, #377, #424, .T. ) ;
#522 = EDGE_LOOP ( 'NONE', ( #399, #473 ) ) ;
#523 = DIRECTION ( 'NONE',  ( 1.000000000000000000, -0.000000000000000000, -0.000000000000000000 ) ) ;
#524 = ORIENTED_EDGE ( 'NONE', *, *, #305, .F. ) ;
#525 = ORIENTED_EDGE ( 'NONE', *, *, #567, .F. ) ;
#526 = ORIENTED_EDGE ( 'NONE', *, *, #716, .T. ) ;
#527 = DIRECTION ( 'NONE',  ( -0.000000000000000000, 1.000000000000000000, -0.000000000000000000 ) ) ;
#528 = LINE ( 'NONE', #15, #584 ) ;
#529 = ORIENTED_EDGE ( 'NONE', *, *, #298, .T. ) ;
#530 = PLANE ( 'NONE',  #102 ) ;
#531 = FACE_OUTER_BOUND ( 'NONE', #249, .T. ) ;
#532 = VERTEX_POINT ( 'NONE', #582 ) ;
#533 = FACE_BOUND ( 'NONE', #648, .T. ) ;
#534 = EDGE_CURVE ( 'NONE', #611, #403, #60, .T. ) ;
#535 = CARTESIAN_POINT ( 'NONE',  ( 91.10323193708099154, -3.041931385006363175, -9.999999999999998224 ) ) ;
#536 = VECTOR ( 'NONE', #364, 1000.000000000000000 ) ;
#537 = VERTEX_POINT ( 'NONE', #720 ) ;
#538 = CARTESIAN_POINT ( 'NONE',  ( 76.10323193708099154, -3.041931385006363175, 5.000000000000000000 ) ) ;
#539 = CIRCLE ( 'NONE', #149, 2.000000000000001776 ) ;
#540 = DIRECTION ( 'NONE',  ( 0.000000000000000000, -1.000000000000000000, 0.000000000000000000 ) ) ;
#541 = CARTESIAN_POINT ( 'NONE',  ( 86.10323193708099154, 24.95806861499363904, -9.999999999999998224 ) ) ;
#542 = ORIENTED_EDGE ( 'NONE', *, *, #276, .F. ) ;
#543 = FACE_OUTER_BOUND ( 'NONE', #261, .T. ) ;
#544 = CARTESIAN_POINT ( 'NONE',  ( 86.10323193708099154, -3.041931385006363175, -9.999999999999998224 ) ) ;
#545 = DIRECTION ( 'NONE',  ( -0.000000000000000000, 1.000000000000000000, 0.000000000000000000 ) ) ;
#546 = ORIENTED_EDGE ( 'NONE', *, *, #174, .T. ) ;
#547 = EDGE_CURVE ( 'NONE', #16, #365, #57, .T. ) ;
#548 = ORIENTED_EDGE ( 'NONE', *, *, #290, .T. ) ;
#549 = CYLINDRICAL_SURFACE ( 'NONE', #313, 2.000000000000001776 ) ;
#550 = DIRECTION ( 'NONE',  ( 0.000000000000000000, 0.000000000000000000, 1.000000000000000000 ) ) ;
#551 = DIRECTION ( 'NONE',  ( 1.000000000000000000, 1.156482317317871478E-16, -0.000000000000000000 ) ) ;
#552 = ORIENTED_EDGE ( 'NONE', *, *, #740, .F. ) ;
#553 = DIRECTION ( 'NONE',  ( 0.000000000000000000, 0.000000000000000000, 1.000000000000000000 ) ) ;
#554 = DIRECTION ( 'NONE',  ( 1.000000000000000000, 0.000000000000000000, -0.000000000000000000 ) ) ;
#555 = EDGE_LOOP ( 'NONE', ( #175, #524, #67, #107 ) ) ;
#556 = ADVANCED_FACE ( 'NONE', ( #653 ), #530, .F. ) ;
#557 = CARTESIAN_POINT ( 'NONE',  ( 86.10323193708099154, -3.041931385006363175, -9.999999999999998224 ) ) ;
#558 = CYLINDRICAL_SURFACE ( 'NONE', #5, 2.249999999999994227 ) ;
#559 = EDGE_CURVE ( 'NONE', #360, #83, #467, .T. ) ;
#560 = LINE ( 'NONE', #732, #21 ) ;
#561 = DIRECTION ( 'NONE',  ( 0.000000000000000000, 0.000000000000000000, -1.000000000000000000 ) ) ;
#562 = DIRECTION ( 'NONE',  ( -0.000000000000000000, -0.000000000000000000, -1.000000000000000000 ) ) ;
#563 = AXIS2_PLACEMENT_3D ( 'NONE', #651, #479, #420 ) ;
#564 = VECTOR ( 'NONE', #235, 999.9999999999998863 ) ;
#565 = LINE ( 'NONE', #35, #485 ) ;
#566 = FILL_AREA_STYLE ('',( #758 ) ) ;
#567 = EDGE_CURVE ( 'NONE', #183, #1, #481, .T. ) ;
#568 = CARTESIAN_POINT ( 'NONE',  ( -90.89676806291900846, -3.041931385006364952, 5.000000000000000000 ) ) ;
#569 = ORIENTED_EDGE ( 'NONE', *, *, #590, .F. ) ;
#570 = EDGE_CURVE ( 'NONE', #139, #12, #351, .T. ) ;
#571 = CIRCLE ( 'NONE', #726, 2.249999999999988010 ) ;
#572 = AXIS2_PLACEMENT_3D ( 'NONE', #251, #768, #358 ) ;
#573 = VECTOR ( 'NONE', #130, 1000.000000000000000 ) ;
#574 = DIRECTION ( 'NONE',  ( 0.000000000000000000, 0.000000000000000000, -1.000000000000000000 ) ) ;
#575 = ADVANCED_FACE ( 'NONE', ( #533, #650 ), #8, .T. ) ;
#576 = ORIENTED_EDGE ( 'NONE', *, *, #325, .T. ) ;
#577 = ORIENTED_EDGE ( 'NONE', *, *, #353, .T. ) ;
#578 = DIRECTION ( 'NONE',  ( -1.000000000000000000, 0.000000000000000000, 0.000000000000000000 ) ) ;
#579 = ORIENTED_EDGE ( 'NONE', *, *, #630, .T. ) ;
#580 = EDGE_CURVE ( 'NONE', #179, #493, #240, .T. ) ;
#581 = EDGE_LOOP ( 'NONE', ( #713, #694, #683, #254 ) ) ;
#582 = CARTESIAN_POINT ( 'NONE',  ( 91.10323193708099154, 10.95806861499363372, -0.2999999999999990452 ) ) ;
#583 = DIRECTION ( 'NONE',  ( -0.000000000000000000, 0.000000000000000000, -1.000000000000000000 ) ) ;
#584 = VECTOR ( 'NONE', #253, 1000.000000000000000 ) ;
#585 = CIRCLE ( 'NONE', #461, 4.700000000000001066 ) ;
#586 = ORIENTED_EDGE ( 'NONE', *, *, #255, .F. ) ;
#587 = AXIS2_PLACEMENT_3D ( 'NONE', #310, #319, #131 ) ;
#588 = DIRECTION ( 'NONE',  ( 0.7071067811865470176, 8.659560562354940254E-17, 0.7071067811865481278 ) ) ;
#589 = DIRECTION ( 'NONE',  ( -1.000000000000000000, 0.000000000000000000, 0.000000000000000000 ) ) ;
#590 = EDGE_CURVE ( 'NONE', #184, #360, #714, .T. ) ;
#591 = ORIENTED_EDGE ( 'NONE', *, *, #158, .F. ) ;
#592 = CARTESIAN_POINT ( 'NONE',  ( 89.10323193708097733, 24.95806861499363904, -9.999999999999998224 ) ) ;
#593 = CARTESIAN_POINT ( 'NONE',  ( 76.10323193708099154, -3.041931385006363175, 5.000000000000000000 ) ) ;
#594 = PRODUCT ( '\X2\0445\X0\4', '\X2\0445\X0\4', '', ( #510 ) ) ;
#595 = ORIENTED_EDGE ( 'NONE', *, *, #417, .F. ) ;
#596 = DIRECTION ( 'NONE',  ( -1.000000000000000000, -1.949127501097536508E-17, -0.000000000000000000 ) ) ;
#597 = CARTESIAN_POINT ( 'NONE',  ( 89.10323193708097733, 24.95806861499363904, 5.000000000000000000 ) ) ;
#598 = VECTOR ( 'NONE', #697, 1000.000000000000000 ) ;
#599 = ORIENTED_EDGE ( 'NONE', *, *, #49, .F. ) ;
#600 = VECTOR ( 'NONE', #46, 1000.000000000000000 ) ;
#601 = ORIENTED_EDGE ( 'NONE', *, *, #386, .F. ) ;
#602 = CARTESIAN_POINT ( 'NONE',  ( 91.10323193708099154, 10.95806861499363372, -0.2999999999999990452 ) ) ;
#603 = CARTESIAN_POINT ( 'NONE',  ( 86.10323193708099154, 24.95806861499363904, -9.999999999999998224 ) ) ;
#604 = CARTESIAN_POINT ( 'NONE',  ( 89.10323193708099154, 22.95806861499364260, -9.999999999999998224 ) ) ;
#605 = AXIS2_PLACEMENT_3D ( 'NONE', #18, #187, #664 ) ;
#606 = EDGE_CURVE ( 'NONE', #493, #643, #367, .T. ) ;
#607 = ORIENTED_EDGE ( 'NONE', *, *, #22, .T. ) ;
#608 = DIRECTION ( 'NONE',  ( -0.000000000000000000, -0.000000000000000000, -1.000000000000000000 ) ) ;
#609 = DIRECTION ( 'NONE',  ( 0.000000000000000000, 0.000000000000000000, -1.000000000000000000 ) ) ;
#610 = CYLINDRICAL_SURFACE ( 'NONE', #563, 2.249999999999993339 ) ;
#611 = VERTEX_POINT ( 'NONE', #765 ) ;
#612 = CARTESIAN_POINT ( 'NONE',  ( 91.10323193708099154, -3.041931385006361399, 5.000000000000000000 ) ) ;
#613 = LINE ( 'NONE', #436, #675 ) ;
#614 = EDGE_CURVE ( 'NONE', #403, #179, #168, .T. ) ;
#615 = ORIENTED_EDGE ( 'NONE', *, *, #119, .F. ) ;
#616 = EDGE_CURVE ( 'NONE', #365, #139, #318, .T. ) ;
#617 = ORIENTED_EDGE ( 'NONE', *, *, #284, .F. ) ;
#618 = STYLED_ITEM ( 'NONE', ( #104 ), #451 ) ;
#619 = LINE ( 'NONE', #322, #441 ) ;
#620 = FACE_OUTER_BOUND ( 'NONE', #492, .T. ) ;
#621 = CIRCLE ( 'NONE', #689, 2.249999999999988010 ) ;
#622 = ORIENTED_EDGE ( 'NONE', *, *, #658, .T. ) ;
#623 = ORIENTED_EDGE ( 'NONE', *, *, #454, .T. ) ;
#624 = APPLICATION_PROTOCOL_DEFINITION ( 'draft international standard', 'automotive_design', 1998, #87 ) ;
#625 = DIRECTION ( 'NONE',  ( -0.000000000000000000, -0.000000000000000000, -1.000000000000000000 ) ) ;
#626 = CARTESIAN_POINT ( 'NONE',  ( -90.89676806291900846, 22.95806861499362128, -9.999999999999998224 ) ) ;
#627 = LINE ( 'NONE', #264, #203 ) ;
#628 = ORIENTED_EDGE ( 'NONE', *, *, #547, .T. ) ;
#629 = VECTOR ( 'NONE', #756, 1000.000000000000000 ) ;
#630 = EDGE_CURVE ( 'NONE', #183, #48, #427, .T. ) ;
#631 = FACE_OUTER_BOUND ( 'NONE', #463, .T. ) ;
#632 = DIRECTION ( 'NONE',  ( -1.000000000000000000, -0.000000000000000000, -0.000000000000000000 ) ) ;
#633 = ADVANCED_FACE ( 'NONE', ( #256 ), #549, .T. ) ;
#634 = SURFACE_STYLE_USAGE ( .BOTH. , #339 ) ;
#635 = FACE_OUTER_BOUND ( 'NONE', #45, .T. ) ;
#636 = AXIS2_PLACEMENT_3D ( 'NONE', #218, #393, #401 ) ;
#637 = AXIS2_PLACEMENT_3D ( 'NONE', #14, #23, #247 ) ;
#638 = CARTESIAN_POINT ( 'NONE',  ( -85.89676806291900846, 24.95806861499363549, 0.000000000000000000 ) ) ;
#639 = ORIENTED_EDGE ( 'NONE', *, *, #105, .F. ) ;
#640 = ORIENTED_EDGE ( 'NONE', *, *, #749, .T. ) ;
#641 = CARTESIAN_POINT ( 'NONE',  ( -76.89676806291900846, -3.041931385006362731, 5.000000000000000000 ) ) ;
#642 = CARTESIAN_POINT ( 'NONE',  ( -88.44676806291899140, 10.95806861499363549, -7.249999999999986677 ) ) ;
#643 = VERTEX_POINT ( 'NONE', #373 ) ;
#644 = CARTESIAN_POINT ( 'NONE',  ( -76.89676806291900846, -3.041931385006362731, 5.000000000000000000 ) ) ;
#645 = CARTESIAN_POINT ( 'NONE',  ( 76.10323193708099154, 6.958068614993637269, 5.000000000000000000 ) ) ;
#646 = ADVANCED_FACE ( 'NONE', ( #214 ), #464, .T. ) ;
#647 = AXIS2_PLACEMENT_3D ( 'NONE', #491, #433, #668 ) ;
#648 = EDGE_LOOP ( 'NONE', ( #164, #503 ) ) ;
#649 = VECTOR ( 'NONE', #435, 1000.000000000000000 ) ;
#650 = FACE_OUTER_BOUND ( 'NONE', #178, .T. ) ;
#651 = CARTESIAN_POINT ( 'NONE',  ( 91.10323193708099154, 10.95806861499363372, -4.999999999999998224 ) ) ;
#652 = ORIENTED_EDGE ( 'NONE', *, *, #158, .T. ) ;
#653 = FACE_OUTER_BOUND ( 'NONE', #437, .T. ) ;
#654 = CARTESIAN_POINT ( 'NONE',  ( -76.89676806291900846, 6.958068614993637269, 5.000000000000000000 ) ) ;
#655 = ORIENTED_EDGE ( 'NONE', *, *, #196, .F. ) ;
#656 = ORIENTED_EDGE ( 'NONE', *, *, #276, .T. ) ;
#657 = DIRECTION ( 'NONE',  ( -0.000000000000000000, 1.000000000000000000, -0.000000000000000000 ) ) ;
#658 = EDGE_CURVE ( 'NONE', #198, #458, #509, .T. ) ;
#659 = LINE ( 'NONE', #134, #649 ) ;
#660 = DIRECTION ( 'NONE',  ( 0.000000000000000000, 0.000000000000000000, 1.000000000000000000 ) ) ;
#661 = EDGE_LOOP ( 'NONE', ( #27, #744, #36, #546 ) ) ;
#662 = CARTESIAN_POINT ( 'NONE',  ( 89.10323193708099154, 22.95806861499364260, 5.000000000000000000 ) ) ;
#663 = CIRCLE ( 'NONE', #416, 2.249999999999993339 ) ;
#664 = DIRECTION ( 'NONE',  ( 0.000000000000000000, 0.000000000000000000, 1.000000000000000000 ) ) ;
#665 = CARTESIAN_POINT ( 'NONE',  ( -85.89676806291900846, 22.95806861499363904, 0.000000000000000000 ) ) ;
#666 = VERTEX_POINT ( 'NONE', #220 ) ;
#667 = LINE ( 'NONE', #603, #7 ) ;
#668 = DIRECTION ( 'NONE',  ( 0.000000000000000000, 0.000000000000000000, 1.000000000000000000 ) ) ;
#669 = ORIENTED_EDGE ( 'NONE', *, *, #417, .T. ) ;
#670 = CARTESIAN_POINT ( 'NONE',  ( -88.89676806291900846, 22.95806861499363904, 5.000000000000000000 ) ) ;
#671 = DIRECTION ( 'NONE',  ( 1.000000000000000000, -0.000000000000000000, -0.000000000000000000 ) ) ;
#672 = ORIENTED_EDGE ( 'NONE', *, *, #152, .T. ) ;
#673 = EDGE_CURVE ( 'NONE', #702, #329, #621, .T. ) ;
#674 = ORIENTED_EDGE ( 'NONE', *, *, #340, .F. ) ;
#675 = VECTOR ( 'NONE', #562, 1000.000000000000000 ) ;
#676 = LINE ( 'NONE', #143, #112 ) ;
#677 = AXIS2_PLACEMENT_3D ( 'NONE', #718, #308, #180 ) ;
#678 = VECTOR ( 'NONE', #608, 1000.000000000000000 ) ;
#679 = DIRECTION ( 'NONE',  ( -1.000000000000000000, -1.548860246407863829E-16, 0.000000000000000000 ) ) ;
#680 = EDGE_CURVE ( 'NONE', #757, #350, #432, .T. ) ;
#681 = DIRECTION ( 'NONE',  ( -0.000000000000000000, 1.000000000000000000, -0.000000000000000000 ) ) ;
#682 = LINE ( 'NONE', #626, #598 ) ;
#683 = ORIENTED_EDGE ( 'NONE', *, *, #141, .T. ) ;
#684 = DIRECTION ( 'NONE',  ( 0.000000000000000000, 0.000000000000000000, 1.000000000000000000 ) ) ;
#685 = EDGE_CURVE ( 'NONE', #757, #197, #263, .T. ) ;
#686 = PLANE ( 'NONE',  #229 ) ;
#687 = VECTOR ( 'NONE', #146, 1000.000000000000000 ) ;
#688 = CIRCLE ( 'NONE', #33, 2.249999999999993339 ) ;
#689 = AXIS2_PLACEMENT_3D ( 'NONE', #453, #394, #609 ) ;
#690 = CARTESIAN_POINT ( 'NONE',  ( 91.10323193708099154, 10.95806861499363372, -4.999999999999998224 ) ) ;
#691 = EDGE_CURVE ( 'NONE', #466, #123, #663, .T. ) ;
#692 = VERTEX_POINT ( 'NONE', #194 ) ;
#693 = DIRECTION ( 'NONE',  ( 0.000000000000000000, 0.000000000000000000, 1.000000000000000000 ) ) ;
#694 = ORIENTED_EDGE ( 'NONE', *, *, #29, .F. ) ;
#695 = VERTEX_POINT ( 'NONE', #612 ) ;
#696 = DIRECTION ( 'NONE',  ( 1.000000000000000000, 1.156482317317871478E-16, -0.000000000000000000 ) ) ;
#697 = DIRECTION ( 'NONE',  ( 0.000000000000000000, -1.000000000000000000, 0.000000000000000000 ) ) ;
#698 = VECTOR ( 'NONE', #657, 1000.000000000000000 ) ;
#699 = ORIENTED_EDGE ( 'NONE', *, *, #580, .T. ) ;
#700 = CARTESIAN_POINT ( 'NONE',  ( 91.10323193708099154, 10.95806861499363372, -4.999999999999998224 ) ) ;
#701 = DIRECTION ( 'NONE',  ( 0.000000000000000000, 0.000000000000000000, -1.000000000000000000 ) ) ;
#702 = VERTEX_POINT ( 'NONE', #326 ) ;
#703 = DIRECTION ( 'NONE',  ( -0.000000000000000000, -0.000000000000000000, -1.000000000000000000 ) ) ;
#704 = EDGE_CURVE ( 'NONE', #1, #83, #659, .T. ) ;
#705 = CARTESIAN_POINT ( 'NONE',  ( -85.89676806291900846, 10.95806861499363549, -2.750000000000003997 ) ) ;
#706 = ORIENTED_EDGE ( 'NONE', *, *, #570, .F. ) ;
#707 = ORIENTED_EDGE ( 'NONE', *, *, #512, .T. ) ;
#708 = LINE ( 'NONE', #477, #391 ) ;
#709 = CARTESIAN_POINT ( 'NONE',  ( -76.89676806291900846, 6.958068614993637269, 5.000000000000000000 ) ) ;
#710 = ADVANCED_FACE ( 'NONE', ( #721 ), #244, .F. ) ;
#711 = CIRCLE ( 'NONE', #333, 2.249999999999988010 ) ;
#712 =( GEOMETRIC_REPRESENTATION_CONTEXT ( 3 ) GLOBAL_UNCERTAINTY_ASSIGNED_CONTEXT ( ( #302 ) ) GLOBAL_UNIT_ASSIGNED_CONTEXT ( ( #40, #98, #228 ) ) REPRESENTATION_CONTEXT ( 'NONE', 'WORKASPACE' ) );
#713 = ORIENTED_EDGE ( 'NONE', *, *, #497, .F. ) ;
#714 = LINE ( 'NONE', #246, #698 ) ;
#715 = CARTESIAN_POINT ( 'NONE',  ( 76.10323193708099154, -3.041931385006363175, 0.000000000000000000 ) ) ;
#716 = EDGE_CURVE ( 'NONE', #1, #611, #93, .T. ) ;
#717 = VERTEX_POINT ( 'NONE', #731 ) ;
#718 = CARTESIAN_POINT ( 'NONE',  ( 89.10323193708099154, 22.95806861499364260, -9.999999999999998224 ) ) ;
#719 = DIRECTION ( 'NONE',  ( -1.000000000000000000, 0.000000000000000000, 0.000000000000000000 ) ) ;
#720 = CARTESIAN_POINT ( 'NONE',  ( -90.89676806291900846, 10.95806861499363549, -9.700000000000001066 ) ) ;
#721 = FACE_OUTER_BOUND ( 'NONE', #406, .T. ) ;
#722 = CARTESIAN_POINT ( 'NONE',  ( 86.10323193708099154, 10.95806861499363372, -7.249999999999992006 ) ) ;
#723 = PRODUCT_DEFINITION_CONTEXT ( 'detailed design', #161, 'design' ) ;
#724 = ORIENTED_EDGE ( 'NONE', *, *, #606, .F. ) ;
#725 = VECTOR ( 'NONE', #545, 1000.000000000000000 ) ;
#726 = AXIS2_PLACEMENT_3D ( 'NONE', #267, #74, #438 ) ;
#727 = FACE_OUTER_BOUND ( 'NONE', #56, .T. ) ;
#728 = CARTESIAN_POINT ( 'NONE',  ( 88.65323193708097449, 10.95806861499363372, -4.999999999999998224 ) ) ;
#729 = ADVANCED_FACE ( 'NONE', ( #374 ), #73, .T. ) ;
#730 = ORIENTED_EDGE ( 'NONE', *, *, #29, .T. ) ;
#731 = CARTESIAN_POINT ( 'NONE',  ( -85.89676806291900846, 10.95806861499363549, -7.249999999999992895 ) ) ;
#732 = CARTESIAN_POINT ( 'NONE',  ( -90.89676806291900846, -3.041931385006364952, 5.000000000000000000 ) ) ;
#733 = EDGE_LOOP ( 'NONE', ( #569, #591, #208, #595, #476 ) ) ;
#734 = ORIENTED_EDGE ( 'NONE', *, *, #512, .F. ) ;
#735 = CIRCLE ( 'NONE', #410, 2.249999999999994227 ) ;
#736 = AXIS2_PLACEMENT_3D ( 'NONE', #382, #34, #330 ) ;
#737 = CARTESIAN_POINT ( 'NONE',  ( 88.65323193708097449, 10.95806861499363372, -2.750000000000010214 ) ) ;
#738 = VECTOR ( 'NONE', #68, 1000.000000000000000 ) ;
#739 = DIRECTION ( 'NONE',  ( 0.000000000000000000, 0.000000000000000000, 1.000000000000000000 ) ) ;
#740 = EDGE_CURVE ( 'NONE', #360, #458, #368, .T. ) ;
#741 = CARTESIAN_POINT ( 'NONE',  ( 91.10323193708099154, -3.041931385006361399, 5.000000000000000000 ) ) ;
#742 = LINE ( 'NONE', #286, #31 ) ;
#743 = ORIENTED_EDGE ( 'NONE', *, *, #312, .F. ) ;
#744 = ORIENTED_EDGE ( 'NONE', *, *, #223, .F. ) ;
#745 = CARTESIAN_POINT ( 'NONE',  ( 86.10323193708099154, 10.95806861499363372, -2.750000000000004885 ) ) ;
#746 = CARTESIAN_POINT ( 'NONE',  ( 0.000000000000000000, 0.000000000000000000, 0.000000000000000000 ) ) ;
#747 = DIRECTION ( 'NONE',  ( 0.000000000000000000, 0.000000000000000000, 1.000000000000000000 ) ) ;
#748 = CARTESIAN_POINT ( 'NONE',  ( -88.89676806291899425, 24.95806861499363549, 0.000000000000000000 ) ) ;
#749 = EDGE_CURVE ( 'NONE', #377, #757, #667, .T. ) ;
#750 = AXIS2_PLACEMENT_3D ( 'NONE', #94, #513, #578 ) ;
#751 = ORIENTED_EDGE ( 'NONE', *, *, #716, .F. ) ;
#752 = FACE_OUTER_BOUND ( 'NONE', #231, .T. ) ;
#753 = EDGE_CURVE ( 'NONE', #695, #361, #619, .T. ) ;
#754 = EDGE_LOOP ( 'NONE', ( #529, #577, #548, #586 ) ) ;
#755 = DIRECTION ( 'NONE',  ( 0.000000000000000000, 0.000000000000000000, 1.000000000000000000 ) ) ;
#756 = DIRECTION ( 'NONE',  ( 0.000000000000000000, -1.000000000000000000, 0.000000000000000000 ) ) ;
#757 = VERTEX_POINT ( 'NONE', #544 ) ;
#758 = FILL_AREA_STYLE_COLOUR ( '', #500 ) ;
#759 = VECTOR ( 'NONE', #127, 1000.000000000000000 ) ;
#760 = VERTEX_POINT ( 'NONE', #257 ) ;
#761 = AXIS2_PLACEMENT_3D ( 'NONE', #746, #37, #384 ) ;
#762 = ORIENTED_EDGE ( 'NONE', *, *, #386, .T. ) ;
#763 = ADVANCED_FACE ( 'NONE', ( #9 ), #490, .F. ) ;
#764 = ORIENTED_EDGE ( 'NONE', *, *, #567, .T. ) ;
#765 = CARTESIAN_POINT ( 'NONE',  ( -90.89676806291900846, 22.95806861499362128, 5.000000000000000000 ) ) ;
#766 = CYLINDRICAL_SURFACE ( 'NONE', #390, 2.249999999999994227 ) ;
#767 = EDGE_LOOP ( 'NONE', ( #672, #234, #150, #278 ) ) ;
#768 = DIRECTION ( 'NONE',  ( 1.000000000000000000, -0.000000000000000000, -0.000000000000000000 ) ) ;
#769 = DIRECTION ( 'NONE',  ( 1.000000000000000000, 0.000000000000000000, -0.000000000000000000 ) ) ;
ENDSEC;
END-ISO-10303-21;
